<?xml version="1.0" encoding="utf-8" standalone="no"?>
<!DOCTYPE svg PUBLIC "-//W3C//DTD SVG 1.1//EN"
  "http://www.w3.org/Graphics/SVG/1.1/DTD/svg11.dtd">
<svg xmlns:xlink="http://www.w3.org/1999/xlink" width="432pt" height="288pt" viewBox="0 0 432 288" xmlns="http://www.w3.org/2000/svg" version="1.1">
 <metadata>
  <rdf:RDF xmlns:dc="http://purl.org/dc/elements/1.1/" xmlns:cc="http://creativecommons.org/ns#" xmlns:rdf="http://www.w3.org/1999/02/22-rdf-syntax-ns#">
   <cc:Work>
    <dc:type rdf:resource="http://purl.org/dc/dcmitype/StillImage"/>
    <dc:date>2025-06-26T11:14:13.664215</dc:date>
    <dc:format>image/svg+xml</dc:format>
    <dc:creator>
     <cc:Agent>
      <dc:title>Matplotlib v3.10.1, https://matplotlib.org/</dc:title>
     </cc:Agent>
    </dc:creator>
   </cc:Work>
  </rdf:RDF>
 </metadata>
 <defs>
  <style type="text/css">*{stroke-linejoin: round; stroke-linecap: butt}</style>
 </defs>
 <g id="figure_1">
  <g id="patch_1">
   <path d="M 0 288 
L 432 288 
L 432 0 
L 0 0 
z
" style="fill: #ffffff"/>
  </g>
  <g id="axes_1">
   <g id="patch_2">
    <path d="M 57.113446 242.786449 
L 419.04 242.786449 
L 419.04 26.570347 
L 57.113446 26.570347 
z
" style="fill: #ffffff"/>
   </g>
   <g id="matplotlib.axis_1">
    <g id="xtick_1">
     <g id="line2d_1">
      <path d="M 73.564653 242.786449 
L 73.564653 26.570347 
" clip-path="url(#pb76fc799d3)" style="fill: none; stroke: #b0b0b0; stroke-width: 0.8; stroke-linecap: square"/>
     </g>
     <g id="line2d_2">
      <defs>
       <path id="m5c9328893f" d="M 0 0 
L 0 3.5 
" style="stroke: #000000; stroke-width: 0.8"/>
      </defs>
      <g>
       <use xlink:href="#m5c9328893f" x="73.564653" y="242.786449" style="stroke: #000000; stroke-width: 0.8"/>
      </g>
     </g>
     <g id="text_1">
      <!-- $\mathdefault{0}$ -->
      <g transform="translate(70.638157 258.088629) scale(0.12 -0.12)">
       <defs>
        <path id="CMR17-30" d="M 2688 2038 
C 2688 2430 2682 3099 2413 3613 
C 2176 4063 1798 4224 1466 4224 
C 1158 4224 768 4082 525 3620 
C 269 3137 243 2539 243 2038 
C 243 1671 250 1112 448 623 
C 723 -39 1216 -128 1466 -128 
C 1760 -128 2208 -7 2470 604 
C 2662 1048 2688 1568 2688 2038 
z
M 1466 -26 
C 1056 -26 813 328 723 816 
C 653 1196 653 1749 653 2109 
C 653 2604 653 3015 736 3407 
C 858 3954 1216 4121 1466 4121 
C 1728 4121 2067 3947 2189 3420 
C 2272 3054 2278 2623 2278 2109 
C 2278 1691 2278 1176 2202 797 
C 2067 96 1690 -26 1466 -26 
z
" transform="scale(0.015625)"/>
       </defs>
       <use xlink:href="#CMR17-30" transform="scale(0.996264)"/>
      </g>
     </g>
    </g>
    <g id="xtick_2">
     <g id="line2d_3">
      <path d="M 112.002052 242.786449 
L 112.002052 26.570347 
" clip-path="url(#pb76fc799d3)" style="fill: none; stroke: #b0b0b0; stroke-width: 0.8; stroke-linecap: square"/>
     </g>
     <g id="line2d_4">
      <g>
       <use xlink:href="#m5c9328893f" x="112.002052" y="242.786449" style="stroke: #000000; stroke-width: 0.8"/>
      </g>
     </g>
     <g id="text_2">
      <!-- $\mathdefault{50}$ -->
      <g transform="translate(106.149062 258.088629) scale(0.12 -0.12)">
       <defs>
        <path id="CMR17-35" d="M 730 3750 
C 794 3724 1056 3641 1325 3641 
C 1920 3641 2246 3961 2432 4140 
C 2432 4191 2432 4224 2394 4224 
C 2387 4224 2374 4224 2323 4198 
C 2099 4102 1837 4032 1517 4032 
C 1325 4032 1037 4055 723 4191 
C 653 4224 640 4224 634 4224 
C 602 4224 595 4217 595 4090 
L 595 2231 
C 595 2113 595 2080 659 2080 
C 691 2080 704 2093 736 2139 
C 941 2435 1222 2560 1542 2560 
C 1766 2560 2246 2415 2246 1293 
C 2246 1087 2246 716 2054 422 
C 1894 159 1645 25 1370 25 
C 947 25 518 319 403 812 
C 429 806 480 793 506 793 
C 589 793 749 838 749 1036 
C 749 1209 627 1280 506 1280 
C 358 1280 262 1190 262 1011 
C 262 454 704 -128 1382 -128 
C 2042 -128 2669 441 2669 1267 
C 2669 2054 2170 2662 1549 2662 
C 1222 2662 947 2540 730 2304 
L 730 3750 
z
" transform="scale(0.015625)"/>
       </defs>
       <use xlink:href="#CMR17-35" transform="scale(0.996264)"/>
       <use xlink:href="#CMR17-30" transform="translate(45.690477 0) scale(0.996264)"/>
      </g>
     </g>
    </g>
    <g id="xtick_3">
     <g id="line2d_5">
      <path d="M 150.439452 242.786449 
L 150.439452 26.570347 
" clip-path="url(#pb76fc799d3)" style="fill: none; stroke: #b0b0b0; stroke-width: 0.8; stroke-linecap: square"/>
     </g>
     <g id="line2d_6">
      <g>
       <use xlink:href="#m5c9328893f" x="150.439452" y="242.786449" style="stroke: #000000; stroke-width: 0.8"/>
      </g>
     </g>
     <g id="text_3">
      <!-- $\mathdefault{100}$ -->
      <g transform="translate(141.659966 258.088629) scale(0.12 -0.12)">
       <defs>
        <path id="CMR17-31" d="M 1702 4083 
C 1702 4217 1696 4224 1606 4224 
C 1357 3927 979 3833 621 3820 
C 602 3820 570 3820 563 3808 
C 557 3795 557 3782 557 3648 
C 755 3648 1088 3686 1344 3839 
L 1344 467 
C 1344 243 1331 166 781 166 
L 589 166 
L 589 0 
C 896 6 1216 12 1523 12 
C 1830 12 2150 6 2458 0 
L 2458 166 
L 2266 166 
C 1715 166 1702 236 1702 467 
L 1702 4083 
z
" transform="scale(0.015625)"/>
       </defs>
       <use xlink:href="#CMR17-31" transform="scale(0.996264)"/>
       <use xlink:href="#CMR17-30" transform="translate(45.690477 0) scale(0.996264)"/>
       <use xlink:href="#CMR17-30" transform="translate(91.380954 0) scale(0.996264)"/>
      </g>
     </g>
    </g>
    <g id="xtick_4">
     <g id="line2d_7">
      <path d="M 188.876851 242.786449 
L 188.876851 26.570347 
" clip-path="url(#pb76fc799d3)" style="fill: none; stroke: #b0b0b0; stroke-width: 0.8; stroke-linecap: square"/>
     </g>
     <g id="line2d_8">
      <g>
       <use xlink:href="#m5c9328893f" x="188.876851" y="242.786449" style="stroke: #000000; stroke-width: 0.8"/>
      </g>
     </g>
     <g id="text_4">
      <!-- $\mathdefault{150}$ -->
      <g transform="translate(180.097366 258.088629) scale(0.12 -0.12)">
       <use xlink:href="#CMR17-31" transform="scale(0.996264)"/>
       <use xlink:href="#CMR17-35" transform="translate(45.690477 0) scale(0.996264)"/>
       <use xlink:href="#CMR17-30" transform="translate(91.380954 0) scale(0.996264)"/>
      </g>
     </g>
    </g>
    <g id="xtick_5">
     <g id="line2d_9">
      <path d="M 227.314251 242.786449 
L 227.314251 26.570347 
" clip-path="url(#pb76fc799d3)" style="fill: none; stroke: #b0b0b0; stroke-width: 0.8; stroke-linecap: square"/>
     </g>
     <g id="line2d_10">
      <g>
       <use xlink:href="#m5c9328893f" x="227.314251" y="242.786449" style="stroke: #000000; stroke-width: 0.8"/>
      </g>
     </g>
     <g id="text_5">
      <!-- $\mathdefault{200}$ -->
      <g transform="translate(218.534766 258.088629) scale(0.12 -0.12)">
       <defs>
        <path id="CMR17-32" d="M 2669 990 
L 2554 990 
C 2490 537 2438 460 2413 422 
C 2381 371 1920 371 1830 371 
L 602 371 
C 832 620 1280 1073 1824 1596 
C 2214 1966 2669 2400 2669 3033 
C 2669 3788 2067 4224 1395 4224 
C 691 4224 262 3603 262 3027 
C 262 2777 448 2745 525 2745 
C 589 2745 781 2783 781 3007 
C 781 3206 614 3264 525 3264 
C 486 3264 448 3257 422 3244 
C 544 3788 915 4057 1306 4057 
C 1862 4057 2227 3616 2227 3033 
C 2227 2477 1901 1998 1536 1583 
L 262 147 
L 262 0 
L 2515 0 
L 2669 990 
z
" transform="scale(0.015625)"/>
       </defs>
       <use xlink:href="#CMR17-32" transform="scale(0.996264)"/>
       <use xlink:href="#CMR17-30" transform="translate(45.690477 0) scale(0.996264)"/>
       <use xlink:href="#CMR17-30" transform="translate(91.380954 0) scale(0.996264)"/>
      </g>
     </g>
    </g>
    <g id="xtick_6">
     <g id="line2d_11">
      <path d="M 265.75165 242.786449 
L 265.75165 26.570347 
" clip-path="url(#pb76fc799d3)" style="fill: none; stroke: #b0b0b0; stroke-width: 0.8; stroke-linecap: square"/>
     </g>
     <g id="line2d_12">
      <g>
       <use xlink:href="#m5c9328893f" x="265.75165" y="242.786449" style="stroke: #000000; stroke-width: 0.8"/>
      </g>
     </g>
     <g id="text_6">
      <!-- $\mathdefault{250}$ -->
      <g transform="translate(256.972165 258.088629) scale(0.12 -0.12)">
       <use xlink:href="#CMR17-32" transform="scale(0.996264)"/>
       <use xlink:href="#CMR17-35" transform="translate(45.690477 0) scale(0.996264)"/>
       <use xlink:href="#CMR17-30" transform="translate(91.380954 0) scale(0.996264)"/>
      </g>
     </g>
    </g>
    <g id="xtick_7">
     <g id="line2d_13">
      <path d="M 304.18905 242.786449 
L 304.18905 26.570347 
" clip-path="url(#pb76fc799d3)" style="fill: none; stroke: #b0b0b0; stroke-width: 0.8; stroke-linecap: square"/>
     </g>
     <g id="line2d_14">
      <g>
       <use xlink:href="#m5c9328893f" x="304.18905" y="242.786449" style="stroke: #000000; stroke-width: 0.8"/>
      </g>
     </g>
     <g id="text_7">
      <!-- $\mathdefault{300}$ -->
      <g transform="translate(295.409565 258.088629) scale(0.12 -0.12)">
       <defs>
        <path id="CMR17-33" d="M 1414 2176 
C 1984 2176 2234 1673 2234 1094 
C 2234 322 1824 25 1453 25 
C 1114 25 563 193 390 691 
C 422 678 454 678 486 678 
C 640 678 755 780 755 947 
C 755 1132 614 1216 486 1216 
C 378 1216 211 1164 211 927 
C 211 335 787 -128 1466 -128 
C 2176 -128 2720 432 2720 1087 
C 2720 1718 2208 2176 1600 2246 
C 2086 2347 2554 2776 2554 3353 
C 2554 3856 2048 4224 1472 4224 
C 890 4224 378 3862 378 3347 
C 378 3123 544 3084 627 3084 
C 762 3084 877 3167 877 3334 
C 877 3500 762 3584 627 3584 
C 602 3584 570 3584 544 3571 
C 730 3999 1235 4076 1459 4076 
C 1683 4076 2106 3966 2106 3347 
C 2106 3167 2080 2851 1862 2574 
C 1670 2329 1453 2316 1242 2297 
C 1210 2297 1062 2284 1037 2284 
C 992 2278 966 2272 966 2227 
C 966 2182 973 2176 1101 2176 
L 1414 2176 
z
" transform="scale(0.015625)"/>
       </defs>
       <use xlink:href="#CMR17-33" transform="scale(0.996264)"/>
       <use xlink:href="#CMR17-30" transform="translate(45.690477 0) scale(0.996264)"/>
       <use xlink:href="#CMR17-30" transform="translate(91.380954 0) scale(0.996264)"/>
      </g>
     </g>
    </g>
    <g id="xtick_8">
     <g id="line2d_15">
      <path d="M 342.62645 242.786449 
L 342.62645 26.570347 
" clip-path="url(#pb76fc799d3)" style="fill: none; stroke: #b0b0b0; stroke-width: 0.8; stroke-linecap: square"/>
     </g>
     <g id="line2d_16">
      <g>
       <use xlink:href="#m5c9328893f" x="342.62645" y="242.786449" style="stroke: #000000; stroke-width: 0.8"/>
      </g>
     </g>
     <g id="text_8">
      <!-- $\mathdefault{350}$ -->
      <g transform="translate(333.846964 258.088629) scale(0.12 -0.12)">
       <use xlink:href="#CMR17-33" transform="scale(0.996264)"/>
       <use xlink:href="#CMR17-35" transform="translate(45.690477 0) scale(0.996264)"/>
       <use xlink:href="#CMR17-30" transform="translate(91.380954 0) scale(0.996264)"/>
      </g>
     </g>
    </g>
    <g id="xtick_9">
     <g id="line2d_17">
      <path d="M 381.063849 242.786449 
L 381.063849 26.570347 
" clip-path="url(#pb76fc799d3)" style="fill: none; stroke: #b0b0b0; stroke-width: 0.8; stroke-linecap: square"/>
     </g>
     <g id="line2d_18">
      <g>
       <use xlink:href="#m5c9328893f" x="381.063849" y="242.786449" style="stroke: #000000; stroke-width: 0.8"/>
      </g>
     </g>
     <g id="text_9">
      <!-- $\mathdefault{400}$ -->
      <g transform="translate(372.284364 258.088629) scale(0.12 -0.12)">
       <defs>
        <path id="CMR17-34" d="M 2150 4147 
C 2150 4281 2144 4288 2029 4288 
L 128 1254 
L 128 1088 
L 1779 1088 
L 1779 460 
C 1779 230 1766 166 1318 166 
L 1197 166 
L 1197 0 
C 1402 12 1747 12 1965 12 
C 2182 12 2528 12 2733 0 
L 2733 166 
L 2611 166 
C 2163 166 2150 230 2150 460 
L 2150 1088 
L 2803 1088 
L 2803 1254 
L 2150 1254 
L 2150 4147 
z
M 1798 3723 
L 1798 1254 
L 256 1254 
L 1798 3723 
z
" transform="scale(0.015625)"/>
       </defs>
       <use xlink:href="#CMR17-34" transform="scale(0.996264)"/>
       <use xlink:href="#CMR17-30" transform="translate(45.690477 0) scale(0.996264)"/>
       <use xlink:href="#CMR17-30" transform="translate(91.380954 0) scale(0.996264)"/>
      </g>
     </g>
    </g>
    <g id="text_10">
     <!-- \textbf{Epoch} -->
     <g transform="translate(219.652755 272.715404) scale(0.12 -0.12)">
      <defs>
       <path id="CMBX12-45" d="M 4518 1753 
L 4250 1753 
C 4115 783 3878 275 2765 275 
L 1766 275 
L 1766 2156 
L 2144 2156 
C 2758 2156 2822 1889 2822 1395 
L 3091 1395 
L 3091 3177 
L 2822 3177 
C 2822 2699 2758 2432 2144 2432 
L 1766 2432 
L 1766 4108 
L 2765 4108 
C 3744 4108 3955 3694 4051 2871 
L 4320 2871 
L 4134 4383 
L 243 4383 
L 243 4108 
L 922 4108 
L 922 275 
L 243 275 
L 243 0 
L 4243 0 
L 4518 1753 
z
" transform="scale(0.015625)"/>
       <path id="CMBX12-70" d="M 1805 -941 
L 1363 -941 
L 1363 237 
C 1523 96 1805 -64 2189 -64 
C 3066 -64 3750 470 3750 1414 
C 3750 2306 3155 2880 2291 2880 
C 1914 2880 1587 2751 1331 2546 
L 1331 2880 
L 224 2828 
L 224 2552 
C 621 2552 666 2552 666 2300 
L 666 -941 
L 224 -941 
L 224 -1216 
C 371 -1204 832 -1204 1011 -1204 
C 1190 -1204 1658 -1204 1805 -1216 
L 1805 -941 
z
M 1363 2235 
C 1600 2546 1939 2649 2189 2649 
C 2605 2649 2982 2268 2982 1414 
C 2982 476 2522 147 2112 147 
C 1837 147 1562 289 1363 593 
L 1363 2235 
z
" transform="scale(0.015625)"/>
       <path id="CMBX12-6f" d="M 3392 1379 
C 3392 2245 2803 2880 1798 2880 
C 755 2880 198 2213 198 1379 
C 198 538 787 -64 1792 -64 
C 2835 -64 3392 570 3392 1379 
z
M 1798 166 
C 966 166 966 917 966 1443 
C 966 1744 966 2065 1088 2296 
C 1229 2553 1517 2668 1792 2668 
C 2157 2668 2387 2495 2496 2315 
C 2624 2084 2624 1751 2624 1443 
C 2624 910 2624 166 1798 166 
z
" transform="scale(0.015625)"/>
       <path id="CMBX12-63" d="M 2995 724 
C 2995 801 2925 801 2861 801 
C 2758 801 2752 795 2720 718 
C 2675 596 2502 166 1914 166 
C 1011 166 1011 1141 1011 1430 
C 1011 1808 1018 2649 1856 2649 
C 1901 2649 2278 2636 2278 2604 
C 2278 2598 2272 2591 2259 2585 
C 2240 2566 2157 2469 2157 2309 
C 2157 2039 2374 1930 2534 1930 
C 2669 1930 2912 2014 2912 2315 
C 2912 2841 2176 2880 1830 2880 
C 691 2880 243 2136 243 1398 
C 243 525 851 -64 1792 -64 
C 2797 -64 2995 679 2995 724 
z
" transform="scale(0.015625)"/>
       <path id="CMBX12-68" d="M 3398 1958 
C 3398 2566 3136 2880 2432 2880 
C 1786 2880 1472 2425 1382 2233 
L 1376 2233 
L 1376 4480 
L 269 4428 
L 269 4153 
C 666 4153 710 4153 710 3896 
L 710 275 
L 269 275 
L 269 0 
C 416 12 877 12 1056 12 
C 1235 12 1702 12 1850 0 
L 1850 275 
L 1408 275 
L 1408 1638 
C 1408 2329 1920 2668 2330 2668 
C 2566 2668 2701 2515 2701 2028 
L 2701 275 
L 2259 275 
L 2259 0 
C 2406 12 2867 12 3046 12 
C 3226 12 3693 12 3840 0 
L 3840 275 
L 3398 275 
L 3398 1958 
z
" transform="scale(0.015625)"/>
      </defs>
      <use xlink:href="#CMBX12-45" transform="scale(0.996264)"/>
      <use xlink:href="#CMBX12-70" transform="translate(73.566746 0) scale(0.996264)"/>
      <use xlink:href="#CMBX12-6f" transform="translate(138.946571 0) scale(0.996264)"/>
      <use xlink:href="#CMBX12-63" transform="translate(198.099747 0) scale(0.996264)"/>
      <use xlink:href="#CMBX12-68" transform="translate(244.799622 0) scale(0.996264)"/>
     </g>
    </g>
   </g>
   <g id="matplotlib.axis_2">
    <g id="ytick_1">
     <g id="line2d_19">
      <path d="M 57.113446 220.985811 
L 419.04 220.985811 
" clip-path="url(#pb76fc799d3)" style="fill: none; stroke: #b0b0b0; stroke-width: 0.8; stroke-linecap: square"/>
     </g>
     <g id="line2d_20">
      <defs>
       <path id="me9be1d9cc9" d="M 0 0 
L -3.5 0 
" style="stroke: #000000; stroke-width: 0.8"/>
      </defs>
      <g>
       <use xlink:href="#me9be1d9cc9" x="57.113446" y="220.985811" style="stroke: #000000; stroke-width: 0.8"/>
      </g>
     </g>
     <g id="text_11">
      <!-- $\mathdefault{10^{-5}}$ -->
      <g transform="translate(27.586776 225.136901) scale(0.12 -0.12)">
       <defs>
        <path id="CMSY10-0" d="M 4218 1472 
C 4326 1472 4442 1472 4442 1600 
C 4442 1728 4326 1728 4218 1728 
L 755 1728 
C 646 1728 531 1728 531 1600 
C 531 1472 646 1472 755 1472 
L 4218 1472 
z
" transform="scale(0.015625)"/>
       </defs>
       <use xlink:href="#CMR17-31" transform="scale(0.996264)"/>
       <use xlink:href="#CMR17-30" transform="translate(45.690477 0) scale(0.996264)"/>
       <use xlink:href="#CMSY10-0" transform="translate(91.380954 36.153639) scale(0.697382)"/>
       <use xlink:href="#CMR17-35" transform="translate(145.621947 36.153639) scale(0.697382)"/>
      </g>
     </g>
    </g>
    <g id="ytick_2">
     <g id="line2d_21">
      <path d="M 57.113446 167.699945 
L 419.04 167.699945 
" clip-path="url(#pb76fc799d3)" style="fill: none; stroke: #b0b0b0; stroke-width: 0.8; stroke-linecap: square"/>
     </g>
     <g id="line2d_22">
      <g>
       <use xlink:href="#me9be1d9cc9" x="57.113446" y="167.699945" style="stroke: #000000; stroke-width: 0.8"/>
      </g>
     </g>
     <g id="text_12">
      <!-- $\mathdefault{10^{-4}}$ -->
      <g transform="translate(27.586776 171.851035) scale(0.12 -0.12)">
       <use xlink:href="#CMR17-31" transform="scale(0.996264)"/>
       <use xlink:href="#CMR17-30" transform="translate(45.690477 0) scale(0.996264)"/>
       <use xlink:href="#CMSY10-0" transform="translate(91.380954 36.153639) scale(0.697382)"/>
       <use xlink:href="#CMR17-34" transform="translate(145.621947 36.153639) scale(0.697382)"/>
      </g>
     </g>
    </g>
    <g id="ytick_3">
     <g id="line2d_23">
      <path d="M 57.113446 114.414078 
L 419.04 114.414078 
" clip-path="url(#pb76fc799d3)" style="fill: none; stroke: #b0b0b0; stroke-width: 0.8; stroke-linecap: square"/>
     </g>
     <g id="line2d_24">
      <g>
       <use xlink:href="#me9be1d9cc9" x="57.113446" y="114.414078" style="stroke: #000000; stroke-width: 0.8"/>
      </g>
     </g>
     <g id="text_13">
      <!-- $\mathdefault{10^{-3}}$ -->
      <g transform="translate(27.586776 118.565168) scale(0.12 -0.12)">
       <use xlink:href="#CMR17-31" transform="scale(0.996264)"/>
       <use xlink:href="#CMR17-30" transform="translate(45.690477 0) scale(0.996264)"/>
       <use xlink:href="#CMSY10-0" transform="translate(91.380954 36.153639) scale(0.697382)"/>
       <use xlink:href="#CMR17-33" transform="translate(145.621947 36.153639) scale(0.697382)"/>
      </g>
     </g>
    </g>
    <g id="ytick_4">
     <g id="line2d_25">
      <path d="M 57.113446 61.128212 
L 419.04 61.128212 
" clip-path="url(#pb76fc799d3)" style="fill: none; stroke: #b0b0b0; stroke-width: 0.8; stroke-linecap: square"/>
     </g>
     <g id="line2d_26">
      <g>
       <use xlink:href="#me9be1d9cc9" x="57.113446" y="61.128212" style="stroke: #000000; stroke-width: 0.8"/>
      </g>
     </g>
     <g id="text_14">
      <!-- $\mathdefault{10^{-2}}$ -->
      <g transform="translate(27.586776 65.279302) scale(0.12 -0.12)">
       <use xlink:href="#CMR17-31" transform="scale(0.996264)"/>
       <use xlink:href="#CMR17-30" transform="translate(45.690477 0) scale(0.996264)"/>
       <use xlink:href="#CMSY10-0" transform="translate(91.380954 36.153639) scale(0.697382)"/>
       <use xlink:href="#CMR17-32" transform="translate(145.621947 36.153639) scale(0.697382)"/>
      </g>
     </g>
    </g>
    <g id="ytick_5">
     <g id="line2d_27">
      <defs>
       <path id="m0c76eccfbc" d="M 0 0 
L -2 0 
" style="stroke: #000000; stroke-width: 0.6"/>
      </defs>
      <g>
       <use xlink:href="#m0c76eccfbc" x="57.113446" y="242.19039" style="stroke: #000000; stroke-width: 0.6"/>
      </g>
     </g>
    </g>
    <g id="ytick_6">
     <g id="line2d_28">
      <g>
       <use xlink:href="#m0c76eccfbc" x="57.113446" y="237.026456" style="stroke: #000000; stroke-width: 0.6"/>
      </g>
     </g>
    </g>
    <g id="ytick_7">
     <g id="line2d_29">
      <g>
       <use xlink:href="#m0c76eccfbc" x="57.113446" y="232.807214" style="stroke: #000000; stroke-width: 0.6"/>
      </g>
     </g>
    </g>
    <g id="ytick_8">
     <g id="line2d_30">
      <g>
       <use xlink:href="#m0c76eccfbc" x="57.113446" y="229.239897" style="stroke: #000000; stroke-width: 0.6"/>
      </g>
     </g>
    </g>
    <g id="ytick_9">
     <g id="line2d_31">
      <g>
       <use xlink:href="#m0c76eccfbc" x="57.113446" y="226.149745" style="stroke: #000000; stroke-width: 0.6"/>
      </g>
     </g>
    </g>
    <g id="ytick_10">
     <g id="line2d_32">
      <g>
       <use xlink:href="#m0c76eccfbc" x="57.113446" y="223.424039" style="stroke: #000000; stroke-width: 0.6"/>
      </g>
     </g>
    </g>
    <g id="ytick_11">
     <g id="line2d_33">
      <g>
       <use xlink:href="#m0c76eccfbc" x="57.113446" y="204.945167" style="stroke: #000000; stroke-width: 0.6"/>
      </g>
     </g>
    </g>
    <g id="ytick_12">
     <g id="line2d_34">
      <g>
       <use xlink:href="#m0c76eccfbc" x="57.113446" y="195.561992" style="stroke: #000000; stroke-width: 0.6"/>
      </g>
     </g>
    </g>
    <g id="ytick_13">
     <g id="line2d_35">
      <g>
       <use xlink:href="#m0c76eccfbc" x="57.113446" y="188.904523" style="stroke: #000000; stroke-width: 0.6"/>
      </g>
     </g>
    </g>
    <g id="ytick_14">
     <g id="line2d_36">
      <g>
       <use xlink:href="#m0c76eccfbc" x="57.113446" y="183.740589" style="stroke: #000000; stroke-width: 0.6"/>
      </g>
     </g>
    </g>
    <g id="ytick_15">
     <g id="line2d_37">
      <g>
       <use xlink:href="#m0c76eccfbc" x="57.113446" y="179.521348" style="stroke: #000000; stroke-width: 0.6"/>
      </g>
     </g>
    </g>
    <g id="ytick_16">
     <g id="line2d_38">
      <g>
       <use xlink:href="#m0c76eccfbc" x="57.113446" y="175.95403" style="stroke: #000000; stroke-width: 0.6"/>
      </g>
     </g>
    </g>
    <g id="ytick_17">
     <g id="line2d_39">
      <g>
       <use xlink:href="#m0c76eccfbc" x="57.113446" y="172.863879" style="stroke: #000000; stroke-width: 0.6"/>
      </g>
     </g>
    </g>
    <g id="ytick_18">
     <g id="line2d_40">
      <g>
       <use xlink:href="#m0c76eccfbc" x="57.113446" y="170.138172" style="stroke: #000000; stroke-width: 0.6"/>
      </g>
     </g>
    </g>
    <g id="ytick_19">
     <g id="line2d_41">
      <g>
       <use xlink:href="#m0c76eccfbc" x="57.113446" y="151.659301" style="stroke: #000000; stroke-width: 0.6"/>
      </g>
     </g>
    </g>
    <g id="ytick_20">
     <g id="line2d_42">
      <g>
       <use xlink:href="#m0c76eccfbc" x="57.113446" y="142.276125" style="stroke: #000000; stroke-width: 0.6"/>
      </g>
     </g>
    </g>
    <g id="ytick_21">
     <g id="line2d_43">
      <g>
       <use xlink:href="#m0c76eccfbc" x="57.113446" y="135.618656" style="stroke: #000000; stroke-width: 0.6"/>
      </g>
     </g>
    </g>
    <g id="ytick_22">
     <g id="line2d_44">
      <g>
       <use xlink:href="#m0c76eccfbc" x="57.113446" y="130.454722" style="stroke: #000000; stroke-width: 0.6"/>
      </g>
     </g>
    </g>
    <g id="ytick_23">
     <g id="line2d_45">
      <g>
       <use xlink:href="#m0c76eccfbc" x="57.113446" y="126.235481" style="stroke: #000000; stroke-width: 0.6"/>
      </g>
     </g>
    </g>
    <g id="ytick_24">
     <g id="line2d_46">
      <g>
       <use xlink:href="#m0c76eccfbc" x="57.113446" y="122.668163" style="stroke: #000000; stroke-width: 0.6"/>
      </g>
     </g>
    </g>
    <g id="ytick_25">
     <g id="line2d_47">
      <g>
       <use xlink:href="#m0c76eccfbc" x="57.113446" y="119.578012" style="stroke: #000000; stroke-width: 0.6"/>
      </g>
     </g>
    </g>
    <g id="ytick_26">
     <g id="line2d_48">
      <g>
       <use xlink:href="#m0c76eccfbc" x="57.113446" y="116.852306" style="stroke: #000000; stroke-width: 0.6"/>
      </g>
     </g>
    </g>
    <g id="ytick_27">
     <g id="line2d_49">
      <g>
       <use xlink:href="#m0c76eccfbc" x="57.113446" y="98.373434" style="stroke: #000000; stroke-width: 0.6"/>
      </g>
     </g>
    </g>
    <g id="ytick_28">
     <g id="line2d_50">
      <g>
       <use xlink:href="#m0c76eccfbc" x="57.113446" y="88.990259" style="stroke: #000000; stroke-width: 0.6"/>
      </g>
     </g>
    </g>
    <g id="ytick_29">
     <g id="line2d_51">
      <g>
       <use xlink:href="#m0c76eccfbc" x="57.113446" y="82.33279" style="stroke: #000000; stroke-width: 0.6"/>
      </g>
     </g>
    </g>
    <g id="ytick_30">
     <g id="line2d_52">
      <g>
       <use xlink:href="#m0c76eccfbc" x="57.113446" y="77.168856" style="stroke: #000000; stroke-width: 0.6"/>
      </g>
     </g>
    </g>
    <g id="ytick_31">
     <g id="line2d_53">
      <g>
       <use xlink:href="#m0c76eccfbc" x="57.113446" y="72.949614" style="stroke: #000000; stroke-width: 0.6"/>
      </g>
     </g>
    </g>
    <g id="ytick_32">
     <g id="line2d_54">
      <g>
       <use xlink:href="#m0c76eccfbc" x="57.113446" y="69.382297" style="stroke: #000000; stroke-width: 0.6"/>
      </g>
     </g>
    </g>
    <g id="ytick_33">
     <g id="line2d_55">
      <g>
       <use xlink:href="#m0c76eccfbc" x="57.113446" y="66.292146" style="stroke: #000000; stroke-width: 0.6"/>
      </g>
     </g>
    </g>
    <g id="ytick_34">
     <g id="line2d_56">
      <g>
       <use xlink:href="#m0c76eccfbc" x="57.113446" y="63.566439" style="stroke: #000000; stroke-width: 0.6"/>
      </g>
     </g>
    </g>
    <g id="ytick_35">
     <g id="line2d_57">
      <g>
       <use xlink:href="#m0c76eccfbc" x="57.113446" y="45.087567" style="stroke: #000000; stroke-width: 0.6"/>
      </g>
     </g>
    </g>
    <g id="ytick_36">
     <g id="line2d_58">
      <g>
       <use xlink:href="#m0c76eccfbc" x="57.113446" y="35.704392" style="stroke: #000000; stroke-width: 0.6"/>
      </g>
     </g>
    </g>
    <g id="ytick_37">
     <g id="line2d_59">
      <g>
       <use xlink:href="#m0c76eccfbc" x="57.113446" y="29.046923" style="stroke: #000000; stroke-width: 0.6"/>
      </g>
     </g>
    </g>
    <g id="text_15">
     <!-- \textbf{MSE Loss} -->
     <g transform="translate(21.26218 164.156767) rotate(-90) scale(0.12 -0.12)">
      <defs>
       <path id="CMBX12-4d" d="M 3411 816 
L 1875 4281 
C 1818 4416 1760 4416 1626 4416 
L 262 4416 
L 262 4140 
L 941 4140 
L 941 468 
C 941 326 934 320 768 294 
C 653 281 525 275 410 275 
L 262 275 
L 262 0 
C 410 12 909 12 1088 12 
C 1267 12 1773 12 1920 0 
L 1920 275 
L 1773 275 
C 1600 275 1587 275 1434 294 
C 1248 320 1242 326 1242 468 
L 1242 4063 
L 1248 4063 
L 2989 134 
C 3021 64 3059 0 3168 0 
C 3277 0 3315 64 3347 134 
L 5120 4140 
L 5126 4140 
L 5126 275 
L 4448 275 
L 4448 0 
C 4621 12 5286 12 5504 12 
C 5722 12 6387 12 6560 0 
L 6560 275 
L 5882 275 
L 5882 4140 
L 6560 4140 
L 6560 4416 
L 5197 4416 
C 5062 4416 5005 4416 4947 4281 
L 3411 816 
z
" transform="scale(0.015625)"/>
       <path id="CMBX12-53" d="M 1626 2828 
C 992 2969 973 3430 973 3520 
C 973 3846 1184 4223 1805 4223 
C 2426 4223 2982 3923 3117 3084 
C 3136 2950 3136 2944 3258 2944 
C 3392 2944 3392 2963 3392 3110 
L 3392 4313 
C 3392 4435 3392 4480 3296 4480 
C 3251 4480 3232 4473 3174 4409 
L 2899 4096 
C 2739 4230 2419 4480 1798 4480 
C 883 4480 397 3904 397 3206 
C 397 2777 627 2476 717 2387 
C 1050 2054 1229 2016 1894 1868 
C 2534 1728 2611 1715 2752 1580 
C 2835 1497 3021 1318 3021 992 
C 3021 716 2886 211 2170 211 
C 1606 211 717 403 666 1337 
C 659 1452 659 1472 531 1472 
C 397 1472 397 1452 397 1305 
L 397 102 
C 397 -20 397 -64 493 -64 
C 538 -64 544 -58 608 0 
C 678 70 736 153 896 313 
C 1267 19 1792 -64 2176 -64 
C 3174 -64 3597 614 3597 1292 
C 3597 1894 3200 2470 2502 2630 
L 1626 2828 
z
" transform="scale(0.015625)"/>
       <path id="CMBX12-4c" d="M 4019 1737 
L 3750 1737 
C 3706 1293 3603 275 2451 275 
L 1766 275 
L 1766 4140 
L 2618 4140 
L 2618 4416 
C 2304 4403 1734 4403 1395 4403 
C 1158 4403 429 4403 243 4416 
L 243 4140 
L 922 4140 
L 922 275 
L 243 275 
L 243 0 
L 3834 0 
L 4019 1737 
z
" transform="scale(0.015625)"/>
       <path id="CMBX12-73" d="M 2413 2713 
C 2413 2835 2413 2880 2317 2880 
C 2278 2880 2266 2880 2170 2822 
C 2144 2803 2074 2758 2042 2739 
C 1862 2841 1626 2880 1395 2880 
C 1203 2880 243 2880 243 2046 
C 243 1372 1037 1231 1235 1199 
C 1408 1167 1619 1128 1645 1128 
C 1901 1071 2157 910 2157 641 
C 2157 147 1574 147 1440 147 
C 1114 147 710 249 531 872 
C 493 1000 486 1006 378 1006 
C 243 1006 243 987 243 840 
L 243 102 
C 243 -20 243 -64 339 -64 
C 384 -64 397 -64 525 38 
L 691 160 
C 979 -64 1325 -64 1440 -64 
C 1792 -64 2592 12 2592 865 
C 2592 1173 2426 1385 2298 1500 
C 2035 1719 1818 1757 1472 1821 
C 1062 1892 678 1962 678 2270 
C 678 2687 1248 2687 1382 2687 
C 2093 2687 2131 2238 2144 2078 
C 2150 1995 2202 1995 2278 1995 
C 2413 1995 2413 2014 2413 2161 
L 2413 2713 
z
" transform="scale(0.015625)"/>
      </defs>
      <use xlink:href="#CMBX12-4d" transform="scale(0.996264)"/>
      <use xlink:href="#CMBX12-53" transform="translate(106.314425 0) scale(0.996264)"/>
      <use xlink:href="#CMBX12-45" transform="translate(168.580926 0) scale(0.996264)"/>
      <use xlink:href="#CMBX12-4c" transform="translate(279.507572 0) scale(0.996264)"/>
      <use xlink:href="#CMBX12-6f" transform="translate(346.847667 0) scale(0.996264)"/>
      <use xlink:href="#CMBX12-73" transform="translate(402.887518 0) scale(0.996264)"/>
      <use xlink:href="#CMBX12-73" transform="translate(447.096855 0) scale(0.996264)"/>
     </g>
    </g>
   </g>
   <g id="line2d_60">
    <path d="M 73.564653 36.398351 
L 74.333401 81.71206 
L 75.102149 90.527356 
L 76.639645 97.991349 
L 77.408393 100.553799 
L 78.177141 105.936003 
L 78.945889 103.637415 
L 80.483385 106.915601 
L 81.252133 110.862283 
L 82.020881 110.804185 
L 82.789628 115.017489 
L 83.558376 110.119902 
L 84.327124 116.817374 
L 85.095872 115.88016 
L 85.86462 117.696398 
L 86.633368 117.398857 
L 87.402116 120.173023 
L 88.170864 119.253508 
L 88.939612 122.997866 
L 89.70836 115.284873 
L 90.477108 123.35432 
L 91.245856 124.501946 
L 92.014604 125.986972 
L 92.783352 123.210249 
L 93.5521 125.50356 
L 94.320848 119.637494 
L 95.089596 126.376659 
L 95.858344 129.381326 
L 96.627092 133.41707 
L 97.39584 130.776772 
L 98.164588 133.950784 
L 98.933336 128.191271 
L 99.702084 130.431302 
L 100.470832 138.164549 
L 101.23958 141.392323 
L 102.008328 140.50643 
L 102.777076 140.326742 
L 103.545824 140.426028 
L 104.314572 142.026006 
L 105.08332 138.063012 
L 105.852068 141.219875 
L 106.620816 141.810275 
L 107.389564 142.911097 
L 108.158312 142.734767 
L 108.92706 146.489527 
L 109.695808 141.121654 
L 110.464556 145.147063 
L 111.233304 150.34052 
L 112.002052 147.372285 
L 112.7708 148.148734 
L 113.539548 150.978019 
L 114.308296 152.300295 
L 115.845792 149.349453 
L 116.61454 152.670261 
L 117.383288 153.050576 
L 118.152036 153.706499 
L 118.920784 149.450932 
L 119.689532 151.087944 
L 120.45828 150.757394 
L 121.227028 153.200725 
L 121.995776 153.64326 
L 122.764524 151.504072 
L 123.533272 151.766878 
L 124.30202 153.94172 
L 125.070768 154.799751 
L 125.839516 157.34196 
L 126.608264 157.609743 
L 127.377012 160.408677 
L 128.14576 157.31091 
L 128.914508 158.878937 
L 129.683256 161.13895 
L 130.452004 159.386732 
L 131.220752 160.068406 
L 131.9895 160.087406 
L 132.758248 160.510976 
L 133.526996 161.229139 
L 134.295744 159.471151 
L 135.83324 160.800027 
L 136.601988 161.02902 
L 137.370736 160.071635 
L 138.139484 161.401557 
L 138.908232 160.125376 
L 139.67698 161.828695 
L 140.445728 158.900938 
L 141.983224 161.473969 
L 142.751972 160.038664 
L 143.52072 160.088138 
L 144.289468 163.347743 
L 145.058216 164.28405 
L 145.826964 162.593318 
L 146.595712 162.082645 
L 147.36446 164.773492 
L 148.133208 164.565481 
L 148.901956 160.551177 
L 149.670704 164.337175 
L 150.439452 163.775478 
L 151.2082 164.957575 
L 151.976948 163.295932 
L 152.745696 166.277981 
L 153.514444 167.090575 
L 154.283192 166.727228 
L 155.05194 167.822053 
L 155.820688 167.73573 
L 156.589436 168.52412 
L 157.358184 168.874482 
L 158.126932 166.867768 
L 159.664428 168.842041 
L 160.433176 167.828663 
L 161.201924 168.401326 
L 161.970672 168.38038 
L 162.73942 166.272107 
L 164.276916 166.536627 
L 165.045664 167.121382 
L 165.814412 167.042728 
L 166.58316 170.317348 
L 167.351908 169.036522 
L 169.658152 169.968061 
L 170.4269 171.585802 
L 171.195648 171.502525 
L 171.964396 170.220877 
L 172.733144 170.527699 
L 173.501891 172.235508 
L 174.270639 170.839171 
L 175.039387 171.804675 
L 175.808135 171.874558 
L 176.576883 170.788609 
L 177.345631 170.275732 
L 178.114379 171.263794 
L 178.883127 171.057357 
L 179.651875 173.590309 
L 180.420623 170.427851 
L 181.189371 170.884394 
L 181.958119 171.807553 
L 182.726867 171.811196 
L 183.495615 171.68968 
L 185.033111 172.647764 
L 185.801859 173.833953 
L 186.570607 172.870618 
L 187.339355 172.256312 
L 188.108103 174.350765 
L 188.876851 171.917621 
L 189.645599 173.460929 
L 190.414347 173.524611 
L 191.183095 173.95051 
L 192.720591 172.386565 
L 193.489339 173.331158 
L 194.258087 173.725606 
L 195.026835 173.757783 
L 195.795583 173.387262 
L 196.564331 173.392772 
L 197.333079 174.157301 
L 198.101827 172.869425 
L 198.870575 174.296656 
L 199.639323 174.249995 
L 200.408071 172.113305 
L 201.945567 173.731514 
L 202.714315 173.802476 
L 203.483063 174.155227 
L 204.251811 174.663393 
L 205.020559 173.835014 
L 205.789307 173.770138 
L 206.558055 173.401409 
L 207.326803 175.193468 
L 208.095551 174.370562 
L 208.864299 174.395319 
L 209.633047 173.837503 
L 210.401795 175.744692 
L 211.939291 174.353264 
L 212.708039 176.017933 
L 213.476787 175.030343 
L 214.245535 175.477346 
L 215.014283 175.488403 
L 215.783031 176.938358 
L 216.551779 174.970272 
L 217.320527 174.320521 
L 218.089275 175.734908 
L 218.858023 174.752499 
L 219.626771 175.906452 
L 220.395519 175.101094 
L 221.164267 175.917953 
L 221.933015 174.974874 
L 222.701763 175.130441 
L 223.470511 175.481379 
L 224.239259 176.244241 
L 225.008007 174.865627 
L 225.776755 174.363789 
L 226.545503 176.421265 
L 227.314251 175.122121 
L 228.851747 174.769801 
L 229.620495 175.089592 
L 230.389243 176.437801 
L 231.157991 176.248554 
L 231.926739 174.486907 
L 232.695487 176.233718 
L 233.464235 175.654854 
L 234.232983 177.21708 
L 235.001731 175.967113 
L 235.770479 175.715633 
L 236.539227 176.092782 
L 237.307975 174.849669 
L 238.076723 174.893973 
L 238.845471 176.131659 
L 239.614219 176.691527 
L 240.382967 176.328544 
L 241.151715 176.517046 
L 241.920463 175.707585 
L 242.689211 176.309202 
L 243.457959 176.612859 
L 244.226707 176.616356 
L 244.995455 177.853443 
L 245.764203 176.332878 
L 246.532951 177.144428 
L 247.301699 175.807032 
L 248.070447 176.167501 
L 248.839195 175.895902 
L 249.607943 177.109134 
L 250.376691 177.454169 
L 251.145439 176.454022 
L 251.914187 176.571645 
L 252.682935 175.811507 
L 253.451683 176.12172 
L 254.220431 175.967645 
L 254.989179 176.891417 
L 255.757927 176.273454 
L 256.526675 176.653831 
L 257.295423 176.226521 
L 258.064171 176.873857 
L 258.832919 176.157331 
L 260.370415 176.378692 
L 261.139163 177.588113 
L 261.907911 175.931048 
L 262.676659 176.890214 
L 263.445407 175.594546 
L 264.214155 176.804981 
L 264.982902 175.6019 
L 265.75165 175.990296 
L 266.520398 176.544832 
L 267.289146 176.625163 
L 268.057894 176.133143 
L 268.826642 177.19387 
L 269.59539 175.518277 
L 270.364138 176.168153 
L 271.132886 175.568607 
L 271.901634 175.848967 
L 272.670382 175.937562 
L 273.43913 176.813241 
L 274.207878 176.04064 
L 274.976626 175.452728 
L 275.745374 176.637708 
L 276.514122 177.122767 
L 277.28287 176.482043 
L 278.051618 176.20562 
L 278.820366 177.275658 
L 279.589114 174.59446 
L 280.357862 177.12455 
L 281.12661 175.816276 
L 281.895358 177.219755 
L 282.664106 175.664008 
L 283.432854 176.952547 
L 284.201602 177.005459 
L 284.97035 177.953801 
L 285.739098 175.202279 
L 287.276594 177.479213 
L 288.045342 176.850732 
L 289.582838 176.196969 
L 290.351586 177.525197 
L 291.120334 175.817608 
L 291.889082 175.890074 
L 292.65783 177.018304 
L 293.426578 176.306813 
L 294.195326 176.543392 
L 294.964074 176.407915 
L 295.732822 176.125886 
L 296.50157 177.15087 
L 297.270318 176.563693 
L 298.039066 176.182215 
L 298.807814 175.996699 
L 299.576562 174.870125 
L 300.34531 175.719832 
L 301.114058 177.445905 
L 301.882806 177.275183 
L 302.651554 175.716526 
L 303.420302 176.246301 
L 304.957798 175.156175 
L 305.726546 176.62115 
L 306.495294 177.224532 
L 307.264042 176.438106 
L 308.03279 176.52321 
L 308.801538 175.768486 
L 309.570286 176.564806 
L 311.107782 175.815461 
L 311.87653 177.396948 
L 312.645278 177.03015 
L 313.414026 176.925146 
L 314.182774 175.822834 
L 314.951522 176.844229 
L 315.72027 177.053352 
L 316.489018 176.524447 
L 317.257766 177.666555 
L 318.026514 176.79984 
L 320.332758 175.720734 
L 321.101506 175.927266 
L 321.870254 176.817705 
L 322.639002 175.895157 
L 323.40775 176.046763 
L 324.176498 176.974592 
L 324.945246 176.346848 
L 325.713994 176.314585 
L 327.25149 177.017608 
L 328.020238 176.355766 
L 328.788986 176.850947 
L 329.557734 176.107846 
L 330.326482 175.918922 
L 331.09523 176.887101 
L 331.863978 176.731874 
L 332.632726 177.09997 
L 333.401474 176.156188 
L 334.170222 177.26385 
L 335.707718 177.123578 
L 336.476466 177.449098 
L 337.245214 174.82981 
L 338.013962 176.347414 
L 338.78271 176.45399 
L 339.551458 177.488039 
L 340.320206 176.995705 
L 341.088954 175.72586 
L 341.857702 176.090669 
L 342.62645 175.90609 
L 343.395198 176.74736 
L 344.163946 176.564242 
L 344.932694 175.80632 
L 345.701442 176.744882 
L 346.47019 175.939588 
L 347.238938 177.248619 
L 348.007686 177.095679 
L 349.545182 176.522862 
L 350.31393 176.962983 
L 351.082678 176.150302 
L 351.851426 177.496339 
L 352.620174 176.867419 
L 353.388922 175.866959 
L 354.926418 175.889153 
L 355.695165 175.647971 
L 356.463913 176.615368 
L 357.232661 176.800709 
L 358.001409 176.209707 
L 358.770157 177.695492 
L 359.538905 175.632665 
L 360.307653 175.954397 
L 361.076401 175.907533 
L 362.613897 176.929626 
L 363.382645 177.073303 
L 364.151393 177.046345 
L 364.920141 175.256629 
L 365.688889 176.968739 
L 366.457637 175.230657 
L 367.226385 175.408007 
L 367.995133 175.879898 
L 368.763881 177.137132 
L 369.532629 176.331874 
L 371.838873 176.179641 
L 372.607621 175.932933 
L 373.376369 176.57734 
L 374.145117 176.571895 
L 374.913865 176.854581 
L 375.682613 176.380198 
L 376.451361 177.05686 
L 377.220109 175.485948 
L 377.988857 176.961843 
L 378.757605 176.55363 
L 379.526353 175.825296 
L 380.295101 175.927958 
L 381.063849 176.144619 
L 381.832597 175.708092 
L 382.601345 177.496144 
L 383.370093 177.225622 
L 384.138841 176.599651 
L 385.676337 177.21791 
L 386.445085 176.27722 
L 387.213833 175.684067 
L 387.982581 176.878824 
L 388.751329 177.287255 
L 389.520077 177.122575 
L 390.288825 176.7327 
L 391.057573 177.333035 
L 391.826321 176.082855 
L 392.595069 176.618937 
L 393.363817 175.541002 
L 394.132565 176.55181 
L 394.901313 177.37599 
L 395.670061 175.338905 
L 396.438809 176.004853 
L 397.207557 177.181761 
L 397.976305 175.240332 
L 398.745053 177.16211 
L 399.513801 175.513088 
L 400.282549 176.382782 
L 401.051297 176.403392 
L 401.820045 175.442381 
L 402.588793 175.251887 
L 402.588793 175.251887 
" clip-path="url(#pb76fc799d3)" style="fill: none; stroke: #1f77b4; stroke-width: 2; stroke-linecap: square"/>
   </g>
   <g id="line2d_61">
    <path d="M 73.564653 99.078234 
L 74.333401 101.753611 
L 75.102149 78.653505 
L 75.870897 108.723089 
L 76.639645 93.426533 
L 77.408393 74.49068 
L 78.177141 122.841826 
L 78.945889 70.856286 
L 79.714637 96.437958 
L 80.483385 83.957321 
L 81.252133 104.816283 
L 82.020881 130.480034 
L 82.789628 146.237144 
L 83.558376 82.358004 
L 85.095872 148.963386 
L 85.86462 163.696242 
L 86.633368 126.555038 
L 87.402116 118.201483 
L 88.170864 146.4316 
L 89.70836 133.974302 
L 90.477108 134.704113 
L 91.245856 178.529271 
L 92.014604 162.570034 
L 92.783352 149.526825 
L 93.5521 117.998026 
L 94.320848 146.588953 
L 95.089596 166.766384 
L 95.858344 164.079294 
L 96.627092 162.664206 
L 97.39584 164.989928 
L 98.164588 140.632085 
L 98.933336 129.187487 
L 99.702084 127.969312 
L 100.470832 177.261383 
L 101.23958 185.145841 
L 102.008328 204.813583 
L 102.777076 183.51691 
L 103.545824 151.240766 
L 104.314572 188.586064 
L 105.08332 204.58404 
L 106.620816 167.750108 
L 107.389564 190.077141 
L 108.158312 145.509635 
L 108.92706 160.931692 
L 109.695808 153.023258 
L 110.464556 194.565966 
L 111.233304 178.228525 
L 112.002052 188.036404 
L 112.7708 209.843645 
L 113.539548 194.485032 
L 114.308296 200.991117 
L 115.077044 214.511483 
L 115.845792 190.811882 
L 116.61454 222.036565 
L 117.383288 188.647978 
L 118.152036 204.936292 
L 118.920784 175.905337 
L 119.689532 202.145369 
L 120.45828 171.479732 
L 121.227028 204.990309 
L 121.995776 201.300714 
L 122.764524 213.01407 
L 123.533272 196.805474 
L 124.30202 219.866998 
L 125.070768 221.781499 
L 125.839516 217.844242 
L 126.608264 207.014223 
L 127.377012 207.435592 
L 128.14576 213.502186 
L 128.914508 223.094373 
L 129.683256 203.403458 
L 130.452004 187.402269 
L 131.220752 215.238702 
L 131.9895 206.810765 
L 132.758248 224.205829 
L 133.526996 202.450218 
L 134.295744 216.220671 
L 135.064492 197.055668 
L 135.83324 191.444864 
L 136.601988 195.343425 
L 137.370736 203.257374 
L 138.139484 228.292517 
L 138.908232 214.858173 
L 139.67698 212.367527 
L 140.445728 169.229038 
L 141.214476 208.586567 
L 141.983224 208.285233 
L 142.751972 209.817306 
L 143.52072 228.775643 
L 144.289468 225.151238 
L 145.058216 218.408716 
L 145.826964 225.719497 
L 146.595712 198.481654 
L 147.36446 212.204093 
L 148.133208 220.70305 
L 148.901956 190.652585 
L 149.670704 208.789958 
L 150.439452 217.818578 
L 151.2082 221.097004 
L 151.976948 221.041624 
L 152.745696 226.167063 
L 153.514444 205.074483 
L 154.283192 227.374556 
L 155.05194 224.540265 
L 155.820688 219.835353 
L 156.589436 223.499828 
L 157.358184 218.099622 
L 158.126932 224.221453 
L 158.89568 224.481185 
L 159.664428 229.353129 
L 160.433176 226.847024 
L 161.201924 220.704769 
L 161.970672 209.318898 
L 162.73942 218.769201 
L 163.508168 217.949023 
L 164.276916 224.820839 
L 165.045664 210.514287 
L 166.58316 220.922716 
L 167.351908 223.285152 
L 168.120656 199.80288 
L 168.889404 220.763118 
L 169.658152 221.672827 
L 170.4269 231.153662 
L 171.195648 226.31122 
L 171.964396 225.302789 
L 172.733144 229.769116 
L 173.501891 230.251153 
L 175.039387 225.810272 
L 175.808135 229.866965 
L 176.576883 231.603436 
L 177.345631 231.294907 
L 178.114379 227.639874 
L 178.883127 224.815085 
L 179.651875 225.062222 
L 180.420623 229.310916 
L 181.189371 229.658917 
L 181.958119 220.46025 
L 182.726867 226.212637 
L 184.264363 228.027593 
L 185.033111 220.824028 
L 185.801859 231.609938 
L 186.570607 219.716293 
L 187.339355 229.183467 
L 188.108103 231.997361 
L 188.876851 231.674909 
L 189.645599 230.379938 
L 190.414347 226.555265 
L 191.183095 226.880035 
L 191.951843 230.222418 
L 192.720591 225.77358 
L 193.489339 231.355853 
L 194.258087 232.242887 
L 195.026835 231.471439 
L 195.795583 226.802559 
L 196.564331 232.124244 
L 197.333079 231.615702 
L 198.101827 231.374847 
L 198.870575 230.11593 
L 199.639323 231.660717 
L 200.408071 229.361109 
L 201.176819 232.302059 
L 201.945567 228.536237 
L 202.714315 231.870973 
L 203.483063 227.304347 
L 204.251811 226.767125 
L 205.020559 231.112901 
L 205.789307 230.624285 
L 206.558055 230.702486 
L 207.326803 220.68622 
L 208.095551 228.772532 
L 208.864299 229.525689 
L 209.633047 228.464453 
L 211.170543 231.371323 
L 211.939291 232.160625 
L 212.708039 230.692713 
L 213.476787 230.87052 
L 214.245535 231.431269 
L 215.014283 232.420633 
L 215.783031 227.710145 
L 216.551779 226.851479 
L 217.320527 230.702806 
L 218.089275 231.000785 
L 218.858023 231.856744 
L 219.626771 231.484539 
L 220.395519 229.38033 
L 221.164267 231.989895 
L 221.933015 223.459945 
L 222.701763 231.941186 
L 223.470511 232.376351 
L 224.239259 227.951281 
L 225.008007 231.992568 
L 225.776755 231.890476 
L 226.545503 230.252512 
L 227.314251 229.432943 
L 228.082999 231.770026 
L 228.851747 226.380423 
L 229.620495 231.791346 
L 230.389243 228.57718 
L 231.157991 222.772468 
L 231.926739 231.759063 
L 232.695487 231.806733 
L 233.464235 231.014245 
L 234.232983 229.156905 
L 235.001731 226.451463 
L 235.770479 226.072844 
L 236.539227 224.096216 
L 237.307975 227.728948 
L 238.076723 225.585129 
L 238.845471 227.882953 
L 239.614219 231.698147 
L 240.382967 231.480364 
L 241.151715 220.42476 
L 241.920463 231.815523 
L 243.457959 222.808114 
L 244.226707 223.830062 
L 244.995455 232.420923 
L 245.764203 227.399212 
L 246.532951 224.725654 
L 247.301699 229.034596 
L 248.070447 231.342611 
L 248.839195 232.400117 
L 249.607943 228.520276 
L 250.376691 228.819285 
L 251.145439 227.949344 
L 251.914187 231.314779 
L 252.682935 226.696816 
L 253.451683 231.375848 
L 254.220431 229.516725 
L 254.989179 232.380045 
L 255.757927 232.464246 
L 256.526675 230.108262 
L 257.295423 220.804822 
L 258.064171 219.910215 
L 258.832919 230.284408 
L 259.601667 228.064551 
L 260.370415 232.129288 
L 261.139163 218.10783 
L 261.907911 231.216923 
L 262.676659 231.456552 
L 263.445407 217.647537 
L 264.214155 232.256087 
L 264.982902 225.863421 
L 265.75165 232.659464 
L 266.520398 225.754519 
L 267.289146 232.239728 
L 268.057894 223.289466 
L 268.826642 232.377089 
L 269.59539 222.795454 
L 270.364138 227.060775 
L 271.132886 229.216279 
L 271.901634 224.267746 
L 272.670382 228.459967 
L 273.43913 232.004132 
L 274.207878 228.035986 
L 274.976626 225.961888 
L 275.745374 231.588121 
L 276.514122 230.253982 
L 277.28287 228.527965 
L 278.051618 222.3495 
L 278.820366 229.991731 
L 279.589114 229.341206 
L 280.357862 226.724802 
L 281.12661 231.78678 
L 281.895358 230.776276 
L 282.664106 231.598991 
L 283.432854 232.59211 
L 284.201602 231.170142 
L 284.97035 231.664915 
L 285.739098 231.777071 
L 286.507846 231.772444 
L 287.276594 232.087731 
L 288.045342 231.814009 
L 288.81409 229.965724 
L 289.582838 230.529005 
L 290.351586 231.776455 
L 291.120334 231.351586 
L 291.889082 224.957484 
L 292.65783 231.414209 
L 293.426578 228.664115 
L 294.195326 212.670982 
L 294.964074 232.773689 
L 295.732822 231.569578 
L 297.270318 232.432772 
L 298.039066 228.04945 
L 298.807814 228.283029 
L 299.576562 227.127759 
L 300.34531 230.875529 
L 301.114058 231.961917 
L 301.882806 231.620684 
L 302.651554 226.294913 
L 303.420302 231.976458 
L 304.18905 231.163619 
L 304.957798 232.263126 
L 305.726546 230.07082 
L 306.495294 228.590981 
L 307.264042 227.655966 
L 308.03279 232.124607 
L 308.801538 229.481459 
L 309.570286 232.05356 
L 310.339034 230.042017 
L 311.107782 229.708785 
L 311.87653 230.621478 
L 312.645278 232.09182 
L 313.414026 230.751839 
L 314.182774 231.401512 
L 314.951522 230.216767 
L 315.72027 230.51496 
L 316.489018 227.510126 
L 317.257766 226.569117 
L 318.026514 229.200269 
L 318.795262 230.317435 
L 319.56401 227.488717 
L 320.332758 232.288288 
L 321.101506 232.49304 
L 321.870254 230.882503 
L 322.639002 230.264356 
L 323.40775 232.043439 
L 324.176498 232.958444 
L 324.945246 229.651452 
L 325.713994 232.744269 
L 326.482742 225.886013 
L 327.25149 227.617338 
L 328.020238 229.81631 
L 328.788986 232.565513 
L 329.557734 230.959501 
L 330.326482 231.669822 
L 331.09523 212.979613 
L 331.863978 222.114631 
L 332.632726 227.28425 
L 333.401474 221.215123 
L 334.170222 221.16504 
L 334.93897 232.275148 
L 335.707718 226.458953 
L 336.476466 227.421067 
L 337.245214 220.525053 
L 338.013962 232.542444 
L 338.78271 232.342144 
L 339.551458 229.103615 
L 340.320206 227.338457 
L 341.088954 227.374108 
L 341.857702 221.985199 
L 342.62645 232.488082 
L 343.395198 231.713049 
L 344.163946 232.451848 
L 344.932694 229.123892 
L 345.701442 220.692372 
L 346.47019 225.479847 
L 347.238938 231.422906 
L 348.007686 231.469296 
L 348.776434 230.808597 
L 349.545182 222.988479 
L 350.31393 229.651979 
L 351.082678 231.405922 
L 351.851426 231.060083 
L 352.620174 225.495269 
L 354.15767 220.254105 
L 354.926418 231.634761 
L 355.695165 232.449319 
L 356.463913 229.310557 
L 357.232661 223.488864 
L 358.001409 224.829088 
L 358.770157 232.143845 
L 359.538905 230.282503 
L 360.307653 229.130135 
L 361.076401 231.692458 
L 361.845149 229.291829 
L 362.613897 230.96494 
L 363.382645 223.802842 
L 364.151393 231.797238 
L 364.920141 230.944613 
L 365.688889 231.057209 
L 366.457637 229.564847 
L 367.226385 232.85316 
L 367.995133 232.318572 
L 368.763881 231.441422 
L 369.532629 231.874536 
L 370.301377 226.905223 
L 371.070125 231.290504 
L 371.838873 232.651287 
L 372.607621 230.906166 
L 373.376369 227.773649 
L 374.145117 231.357773 
L 374.913865 231.44971 
L 375.682613 226.756963 
L 376.451361 230.47316 
L 377.220109 231.858184 
L 377.988857 228.172788 
L 378.757605 225.808454 
L 379.526353 228.891542 
L 380.295101 225.094272 
L 381.063849 227.428342 
L 381.832597 232.575279 
L 382.601345 228.793831 
L 383.370093 232.725475 
L 384.138841 228.597064 
L 384.907589 228.894209 
L 385.676337 230.562412 
L 386.445085 231.345572 
L 387.213833 227.860526 
L 388.751329 232.318449 
L 389.520077 227.595998 
L 390.288825 230.159484 
L 391.057573 231.53802 
L 391.826321 229.618958 
L 392.595069 232.351103 
L 393.363817 228.72409 
L 394.132565 220.733612 
L 394.901313 231.022305 
L 395.670061 232.386373 
L 396.438809 231.533978 
L 397.207557 229.763066 
L 397.976305 230.790632 
L 398.745053 226.500087 
L 399.513801 227.576702 
L 400.282549 230.257959 
L 401.051297 229.749054 
L 401.820045 229.44686 
L 402.588793 225.022537 
L 402.588793 225.022537 
" clip-path="url(#pb76fc799d3)" style="fill: none; stroke: #ff7f0e; stroke-width: 2; stroke-linecap: square"/>
   </g>
   <g id="patch_3">
    <path d="M 57.113446 242.786449 
L 57.113446 26.570347 
" style="fill: none; stroke: #000000; stroke-width: 0.8; stroke-linejoin: miter; stroke-linecap: square"/>
   </g>
   <g id="patch_4">
    <path d="M 419.04 242.786449 
L 419.04 26.570347 
" style="fill: none; stroke: #000000; stroke-width: 0.8; stroke-linejoin: miter; stroke-linecap: square"/>
   </g>
   <g id="patch_5">
    <path d="M 57.113446 242.786449 
L 419.04 242.786449 
" style="fill: none; stroke: #000000; stroke-width: 0.8; stroke-linejoin: miter; stroke-linecap: square"/>
   </g>
   <g id="patch_6">
    <path d="M 57.113446 26.570347 
L 419.04 26.570347 
" style="fill: none; stroke: #000000; stroke-width: 0.8; stroke-linejoin: miter; stroke-linecap: square"/>
   </g>
   <g id="text_16">
    <!-- \textbf{Loss evolution over epochs} -->
    <g transform="translate(164.459971 20.570347) scale(0.11 -0.11)">
     <defs>
      <path id="CMBX12-65" d="M 2893 1408 
C 3040 1408 3078 1408 3078 1568 
C 3078 1758 3034 2232 2739 2529 
C 2470 2796 2112 2880 1741 2880 
C 742 2880 198 2232 198 1433 
C 198 523 858 -64 1824 -64 
C 2790 -64 3078 621 3078 731 
C 3078 829 2982 829 2944 829 
C 2842 829 2835 809 2797 725 
C 2630 302 2208 166 1901 166 
C 973 166 966 1043 966 1408 
L 2893 1408 
z
M 966 1593 
C 979 1852 986 2099 1120 2327 
C 1242 2529 1466 2668 1741 2668 
C 2426 2668 2483 1909 2490 1593 
L 966 1593 
z
" transform="scale(0.015625)"/>
      <path id="CMBX12-76" d="M 3168 2393 
C 3213 2489 3238 2540 3642 2540 
L 3642 2816 
C 3411 2803 3398 2803 3136 2803 
C 2963 2803 2950 2803 2586 2816 
L 2586 2540 
C 2758 2540 2899 2508 2899 2463 
C 2899 2457 2899 2451 2867 2386 
L 2118 737 
L 1293 2540 
L 1645 2540 
L 1645 2816 
C 1498 2803 1050 2803 877 2803 
C 691 2803 320 2803 154 2816 
L 154 2540 
L 557 2540 
L 1683 89 
C 1741 -32 1754 -64 1901 -64 
C 2003 -64 2054 -52 2112 76 
L 3168 2393 
z
" transform="scale(0.015625)"/>
      <path id="CMBX12-6c" d="M 1389 4480 
L 282 4428 
L 282 4153 
C 678 4153 723 4153 723 3901 
L 723 275 
L 282 275 
L 282 0 
C 429 12 883 12 1056 12 
C 1229 12 1683 12 1830 0 
L 1830 275 
L 1389 275 
L 1389 4480 
z
" transform="scale(0.015625)"/>
      <path id="CMBX12-75" d="M 2259 2828 
L 2259 2553 
C 2656 2553 2701 2553 2701 2301 
L 2701 1033 
C 2701 541 2413 147 1914 147 
C 1434 147 1408 308 1408 664 
L 1408 2880 
L 269 2828 
L 269 2553 
C 666 2553 710 2553 710 2301 
L 710 768 
C 710 121 1139 -64 1824 -64 
C 1978 -64 2451 -64 2726 457 
L 2733 457 
L 2733 -64 
L 3840 -26 
L 3840 250 
C 3443 250 3398 250 3398 502 
L 3398 2880 
L 2259 2828 
z
" transform="scale(0.015625)"/>
      <path id="CMBX12-74" d="M 1350 2540 
L 2272 2540 
L 2272 2816 
L 1350 2816 
L 1350 4032 
L 1082 4032 
C 1075 3401 768 2771 134 2751 
L 134 2540 
L 653 2540 
L 653 761 
C 653 83 1178 -64 1638 -64 
C 2112 -64 2394 294 2394 768 
L 2394 1107 
L 2125 1107 
L 2125 774 
C 2125 352 1933 166 1734 166 
C 1350 166 1350 595 1350 742 
L 1350 2540 
z
" transform="scale(0.015625)"/>
      <path id="CMBX12-69" d="M 1427 4019 
C 1427 4281 1216 4480 966 4480 
C 704 4480 506 4262 506 4019 
C 506 3775 704 3558 966 3558 
C 1216 3558 1427 3756 1427 4019 
z
M 301 2828 
L 301 2553 
C 678 2553 723 2553 723 2303 
L 723 275 
L 282 275 
L 282 0 
C 429 12 870 12 1043 12 
C 1222 12 1632 12 1786 0 
L 1786 275 
L 1389 275 
L 1389 2880 
L 301 2828 
z
" transform="scale(0.015625)"/>
      <path id="CMBX12-6e" d="M 3398 1958 
C 3398 2566 3136 2880 2432 2880 
C 1971 2880 1574 2656 1357 2176 
L 1350 2176 
L 1350 2880 
L 269 2828 
L 269 2553 
C 666 2553 710 2553 710 2304 
L 710 275 
L 269 275 
L 269 0 
C 416 12 877 12 1056 12 
C 1235 12 1702 12 1850 0 
L 1850 275 
L 1408 275 
L 1408 1638 
C 1408 2329 1920 2668 2330 2668 
C 2566 2668 2701 2515 2701 2028 
L 2701 275 
L 2259 275 
L 2259 0 
C 2406 12 2867 12 3046 12 
C 3226 12 3693 12 3840 0 
L 3840 275 
L 3398 275 
L 3398 1958 
z
" transform="scale(0.015625)"/>
      <path id="CMBX12-72" d="M 1331 1440 
C 1331 1651 1376 2668 2125 2668 
C 2035 2598 1990 2489 1990 2374 
C 1990 2112 2202 2003 2362 2003 
C 2522 2003 2733 2112 2733 2374 
C 2733 2700 2400 2880 2093 2880 
C 1587 2880 1370 2438 1280 2169 
L 1274 2169 
L 1274 2880 
L 224 2828 
L 224 2553 
C 621 2553 666 2553 666 2304 
L 666 275 
L 224 275 
L 224 0 
C 371 12 851 12 1030 12 
C 1216 12 1734 12 1888 0 
L 1888 275 
L 1331 275 
L 1331 1440 
z
" transform="scale(0.015625)"/>
     </defs>
     <use xlink:href="#CMBX12-4c" transform="scale(0.996264)"/>
     <use xlink:href="#CMBX12-6f" transform="translate(67.340095 0) scale(0.996264)"/>
     <use xlink:href="#CMBX12-73" transform="translate(123.379946 0) scale(0.996264)"/>
     <use xlink:href="#CMBX12-73" transform="translate(167.589283 0) scale(0.996264)"/>
     <use xlink:href="#CMBX12-65" transform="translate(249.158521 0) scale(0.996264)"/>
     <use xlink:href="#CMBX12-76" transform="translate(300.297788 0) scale(0.996264)"/>
     <use xlink:href="#CMBX12-6f" transform="translate(356.337638 0) scale(0.996264)"/>
     <use xlink:href="#CMBX12-6c" transform="translate(412.377489 0) scale(0.996264)"/>
     <use xlink:href="#CMBX12-75" transform="translate(443.510739 0) scale(0.996264)"/>
     <use xlink:href="#CMBX12-74" transform="translate(505.77724 0) scale(0.996264)"/>
     <use xlink:href="#CMBX12-69" transform="translate(549.36379 0) scale(0.996264)"/>
     <use xlink:href="#CMBX12-6f" transform="translate(580.497041 0) scale(0.996264)"/>
     <use xlink:href="#CMBX12-6e" transform="translate(636.536891 0) scale(0.996264)"/>
     <use xlink:href="#CMBX12-6f" transform="translate(736.163292 0) scale(0.996264)"/>
     <use xlink:href="#CMBX12-76" transform="translate(789.089818 0) scale(0.996264)"/>
     <use xlink:href="#CMBX12-65" transform="translate(845.129668 0) scale(0.996264)"/>
     <use xlink:href="#CMBX12-72" transform="translate(896.268935 0) scale(0.996264)"/>
     <use xlink:href="#CMBX12-65" transform="translate(979.406343 0) scale(0.996264)"/>
     <use xlink:href="#CMBX12-70" transform="translate(1030.54561 0) scale(0.996264)"/>
     <use xlink:href="#CMBX12-6f" transform="translate(1095.925436 0) scale(0.996264)"/>
     <use xlink:href="#CMBX12-63" transform="translate(1155.078611 0) scale(0.996264)"/>
     <use xlink:href="#CMBX12-68" transform="translate(1201.778487 0) scale(0.996264)"/>
     <use xlink:href="#CMBX12-73" transform="translate(1264.044988 0) scale(0.996264)"/>
    </g>
   </g>
   <g id="legend_1">
    <g id="patch_7">
     <path d="M 282.122359 69.619538 
L 410.64 69.619538 
Q 413.04 69.619538 413.04 67.219538 
L 413.04 34.970347 
Q 413.04 32.570347 410.64 32.570347 
L 282.122359 32.570347 
Q 279.722359 32.570347 279.722359 34.970347 
L 279.722359 67.219538 
Q 279.722359 69.619538 282.122359 69.619538 
z
" style="fill: #ffffff; opacity: 0.8; stroke: #cccccc; stroke-linejoin: miter"/>
    </g>
    <g id="line2d_62">
     <path d="M 284.522359 41.570347 
L 296.522359 41.570347 
L 308.522359 41.570347 
" style="fill: none; stroke: #1f77b4; stroke-width: 2; stroke-linecap: square"/>
    </g>
    <g id="text_17">
     <!-- \textbf{Train Loss} -->
     <g transform="translate(318.122359 45.770347) scale(0.12 -0.12)">
      <defs>
       <path id="CMBX12-54" d="M 4608 4358 
L 390 4358 
L 262 2833 
L 531 2833 
C 589 3535 640 4083 1562 4083 
L 2080 4083 
L 2080 275 
L 1114 275 
L 1114 0 
C 1626 12 2285 12 2502 12 
C 2893 12 3379 12 3891 0 
L 3891 275 
L 2925 275 
L 2925 4083 
L 3437 4083 
C 4358 4083 4410 3542 4467 2833 
L 4736 2833 
L 4608 4358 
z
" transform="scale(0.015625)"/>
       <path id="CMBX12-61" d="M 2944 1894 
C 2944 2483 2477 2880 1574 2880 
C 1216 2880 461 2847 461 2310 
C 461 2041 666 1926 838 1926 
C 1030 1926 1216 2060 1216 2303 
C 1216 2425 1171 2540 1062 2611 
C 1274 2668 1427 2668 1549 2668 
C 1984 2668 2246 2425 2246 1900 
L 2246 1644 
C 1235 1644 218 1362 218 648 
C 218 64 960 -64 1402 -64 
C 1894 -64 2208 205 2336 488 
C 2336 250 2336 -26 2982 -26 
L 3309 -26 
C 3443 -26 3494 -26 3494 115 
C 3494 250 3437 250 3347 250 
C 2944 256 2944 359 2944 507 
L 2944 1894 
z
M 2246 867 
C 2246 262 1709 147 1504 147 
C 1190 147 928 359 928 655 
C 928 1240 1619 1439 2246 1472 
L 2246 867 
z
" transform="scale(0.015625)"/>
      </defs>
      <use xlink:href="#CMBX12-54" transform="scale(0.996264)"/>
      <use xlink:href="#CMBX12-72" transform="translate(68.608395 0) scale(0.996264)"/>
      <use xlink:href="#CMBX12-61" transform="translate(114.385903 0) scale(0.996264)"/>
      <use xlink:href="#CMBX12-69" transform="translate(168.869091 0) scale(0.996264)"/>
      <use xlink:href="#CMBX12-6e" transform="translate(200.002341 0) scale(0.996264)"/>
      <use xlink:href="#CMBX12-4c" transform="translate(299.628742 0) scale(0.996264)"/>
      <use xlink:href="#CMBX12-6f" transform="translate(366.968838 0) scale(0.996264)"/>
      <use xlink:href="#CMBX12-73" transform="translate(423.008688 0) scale(0.996264)"/>
      <use xlink:href="#CMBX12-73" transform="translate(467.218025 0) scale(0.996264)"/>
     </g>
    </g>
    <g id="line2d_63">
     <path d="M 284.522359 58.294942 
L 296.522359 58.294942 
L 308.522359 58.294942 
" style="fill: none; stroke: #ff7f0e; stroke-width: 2; stroke-linecap: square"/>
    </g>
    <g id="text_18">
     <!-- \textbf{Validation Loss} -->
     <g transform="translate(318.122359 62.494942) scale(0.12 -0.12)">
      <defs>
       <path id="CMBX12-56" d="M 4634 3992 
C 4672 4075 4698 4140 5171 4140 
L 5280 4140 
L 5280 4416 
C 5082 4403 4621 4403 4570 4403 
C 4390 4403 3936 4403 3789 4416 
L 3789 4140 
C 3930 4140 4166 4140 4346 4069 
L 4314 3979 
L 3002 960 
L 1619 4140 
L 2214 4140 
L 2214 4416 
C 2010 4403 1395 4403 1152 4403 
C 947 4403 314 4403 154 4416 
L 154 4140 
L 730 4140 
L 2496 70 
C 2554 -58 2611 -64 2714 -64 
C 2816 -64 2880 -64 2938 70 
L 4634 3992 
z
" transform="scale(0.015625)"/>
       <path id="CMBX12-64" d="M 2221 4428 
L 2221 4153 
C 2618 4153 2662 4153 2662 3896 
L 2662 2571 
C 2522 2694 2240 2880 1798 2880 
C 890 2880 243 2313 243 1408 
C 243 483 877 -64 1728 -64 
C 2080 -64 2381 57 2630 270 
L 2630 -64 
L 3770 -26 
L 3770 250 
C 3373 250 3328 250 3328 502 
L 3328 4480 
L 2221 4428 
z
M 2630 625 
C 2362 231 2035 147 1805 147 
C 1011 147 1011 968 1011 1395 
C 1011 1699 1011 2022 1152 2268 
C 1350 2630 1728 2668 1875 2668 
C 2138 2668 2419 2552 2630 2268 
L 2630 625 
z
" transform="scale(0.015625)"/>
      </defs>
      <use xlink:href="#CMBX12-56" transform="scale(0.996264)"/>
      <use xlink:href="#CMBX12-61" transform="translate(75.29642 0) scale(0.996264)"/>
      <use xlink:href="#CMBX12-6c" transform="translate(129.779608 0) scale(0.996264)"/>
      <use xlink:href="#CMBX12-69" transform="translate(160.912858 0) scale(0.996264)"/>
      <use xlink:href="#CMBX12-64" transform="translate(192.046108 0) scale(0.996264)"/>
      <use xlink:href="#CMBX12-61" transform="translate(254.312609 0) scale(0.996264)"/>
      <use xlink:href="#CMBX12-74" transform="translate(308.795797 0) scale(0.996264)"/>
      <use xlink:href="#CMBX12-69" transform="translate(352.382347 0) scale(0.996264)"/>
      <use xlink:href="#CMBX12-6f" transform="translate(383.515598 0) scale(0.996264)"/>
      <use xlink:href="#CMBX12-6e" transform="translate(439.555448 0) scale(0.996264)"/>
      <use xlink:href="#CMBX12-4c" transform="translate(539.181849 0) scale(0.996264)"/>
      <use xlink:href="#CMBX12-6f" transform="translate(606.521945 0) scale(0.996264)"/>
      <use xlink:href="#CMBX12-73" transform="translate(662.561795 0) scale(0.996264)"/>
      <use xlink:href="#CMBX12-73" transform="translate(706.771132 0) scale(0.996264)"/>
     </g>
    </g>
   </g>
  </g>
 </g>
 <defs>
  <clipPath id="pb76fc799d3">
   <rect x="57.113446" y="26.570347" width="361.926554" height="216.216102"/>
  </clipPath>
 </defs>
</svg>
