<?xml version="1.0" encoding="utf-8" standalone="no"?>
<!DOCTYPE svg PUBLIC "-//W3C//DTD SVG 1.1//EN"
  "http://www.w3.org/Graphics/SVG/1.1/DTD/svg11.dtd">
<svg xmlns:xlink="http://www.w3.org/1999/xlink" width="432pt" height="288pt" viewBox="0 0 432 288" xmlns="http://www.w3.org/2000/svg" version="1.1">
 <metadata>
  <rdf:RDF xmlns:dc="http://purl.org/dc/elements/1.1/" xmlns:cc="http://creativecommons.org/ns#" xmlns:rdf="http://www.w3.org/1999/02/22-rdf-syntax-ns#">
   <cc:Work>
    <dc:type rdf:resource="http://purl.org/dc/dcmitype/StillImage"/>
    <dc:date>2025-06-24T16:13:21.568174</dc:date>
    <dc:format>image/svg+xml</dc:format>
    <dc:creator>
     <cc:Agent>
      <dc:title>Matplotlib v3.10.1, https://matplotlib.org/</dc:title>
     </cc:Agent>
    </dc:creator>
   </cc:Work>
  </rdf:RDF>
 </metadata>
 <defs>
  <style type="text/css">*{stroke-linejoin: round; stroke-linecap: butt}</style>
 </defs>
 <g id="figure_1">
  <g id="patch_1">
   <path d="M 0 288 
L 432 288 
L 432 0 
L 0 0 
z
" style="fill: #ffffff"/>
  </g>
  <g id="axes_1">
   <g id="patch_2">
    <path d="M 57.113446 242.786449 
L 419.04 242.786449 
L 419.04 26.570347 
L 57.113446 26.570347 
z
" style="fill: #ffffff"/>
   </g>
   <g id="matplotlib.axis_1">
    <g id="xtick_1">
     <g id="line2d_1">
      <path d="M 73.564653 242.786449 
L 73.564653 26.570347 
" clip-path="url(#pd9492e5a62)" style="fill: none; stroke: #b0b0b0; stroke-width: 0.8; stroke-linecap: square"/>
     </g>
     <g id="line2d_2">
      <defs>
       <path id="m6e13306d5a" d="M 0 0 
L 0 3.5 
" style="stroke: #000000; stroke-width: 0.8"/>
      </defs>
      <g>
       <use xlink:href="#m6e13306d5a" x="73.564653" y="242.786449" style="stroke: #000000; stroke-width: 0.8"/>
      </g>
     </g>
     <g id="text_1">
      <!-- $\mathdefault{0}$ -->
      <g transform="translate(70.638157 258.088629) scale(0.12 -0.12)">
       <defs>
        <path id="CMR17-30" d="M 2688 2038 
C 2688 2430 2682 3099 2413 3613 
C 2176 4063 1798 4224 1466 4224 
C 1158 4224 768 4082 525 3620 
C 269 3137 243 2539 243 2038 
C 243 1671 250 1112 448 623 
C 723 -39 1216 -128 1466 -128 
C 1760 -128 2208 -7 2470 604 
C 2662 1048 2688 1568 2688 2038 
z
M 1466 -26 
C 1056 -26 813 328 723 816 
C 653 1196 653 1749 653 2109 
C 653 2604 653 3015 736 3407 
C 858 3954 1216 4121 1466 4121 
C 1728 4121 2067 3947 2189 3420 
C 2272 3054 2278 2623 2278 2109 
C 2278 1691 2278 1176 2202 797 
C 2067 96 1690 -26 1466 -26 
z
" transform="scale(0.015625)"/>
       </defs>
       <use xlink:href="#CMR17-30" transform="scale(0.996264)"/>
      </g>
     </g>
    </g>
    <g id="xtick_2">
     <g id="line2d_3">
      <path d="M 114.951337 242.786449 
L 114.951337 26.570347 
" clip-path="url(#pd9492e5a62)" style="fill: none; stroke: #b0b0b0; stroke-width: 0.8; stroke-linecap: square"/>
     </g>
     <g id="line2d_4">
      <g>
       <use xlink:href="#m6e13306d5a" x="114.951337" y="242.786449" style="stroke: #000000; stroke-width: 0.8"/>
      </g>
     </g>
     <g id="text_2">
      <!-- $\mathdefault{40}$ -->
      <g transform="translate(109.098347 258.088629) scale(0.12 -0.12)">
       <defs>
        <path id="CMR17-34" d="M 2150 4147 
C 2150 4281 2144 4288 2029 4288 
L 128 1254 
L 128 1088 
L 1779 1088 
L 1779 460 
C 1779 230 1766 166 1318 166 
L 1197 166 
L 1197 0 
C 1402 12 1747 12 1965 12 
C 2182 12 2528 12 2733 0 
L 2733 166 
L 2611 166 
C 2163 166 2150 230 2150 460 
L 2150 1088 
L 2803 1088 
L 2803 1254 
L 2150 1254 
L 2150 4147 
z
M 1798 3723 
L 1798 1254 
L 256 1254 
L 1798 3723 
z
" transform="scale(0.015625)"/>
       </defs>
       <use xlink:href="#CMR17-34" transform="scale(0.996264)"/>
       <use xlink:href="#CMR17-30" transform="translate(45.690477 0) scale(0.996264)"/>
      </g>
     </g>
    </g>
    <g id="xtick_3">
     <g id="line2d_5">
      <path d="M 156.338021 242.786449 
L 156.338021 26.570347 
" clip-path="url(#pd9492e5a62)" style="fill: none; stroke: #b0b0b0; stroke-width: 0.8; stroke-linecap: square"/>
     </g>
     <g id="line2d_6">
      <g>
       <use xlink:href="#m6e13306d5a" x="156.338021" y="242.786449" style="stroke: #000000; stroke-width: 0.8"/>
      </g>
     </g>
     <g id="text_3">
      <!-- $\mathdefault{80}$ -->
      <g transform="translate(150.485031 258.088629) scale(0.12 -0.12)">
       <defs>
        <path id="CMR17-38" d="M 1741 2289 
C 2144 2494 2554 2803 2554 3298 
C 2554 3884 1990 4224 1472 4224 
C 890 4224 378 3800 378 3215 
C 378 3054 416 2777 666 2533 
C 730 2469 998 2276 1171 2154 
C 883 2006 211 1652 211 945 
C 211 282 838 -128 1459 -128 
C 2144 -128 2720 366 2720 1022 
C 2720 1607 2330 1877 2074 2051 
L 1741 2289 
z
M 902 2855 
C 851 2887 595 3086 595 3388 
C 595 3781 998 4076 1459 4076 
C 1965 4076 2336 3716 2336 3298 
C 2336 2700 1670 2359 1638 2359 
C 1632 2359 1626 2359 1574 2398 
L 902 2855 
z
M 2080 1536 
C 2176 1466 2483 1253 2483 861 
C 2483 385 2010 25 1472 25 
C 890 25 448 443 448 951 
C 448 1459 838 1884 1280 2083 
L 2080 1536 
z
" transform="scale(0.015625)"/>
       </defs>
       <use xlink:href="#CMR17-38" transform="scale(0.996264)"/>
       <use xlink:href="#CMR17-30" transform="translate(45.690477 0) scale(0.996264)"/>
      </g>
     </g>
    </g>
    <g id="xtick_4">
     <g id="line2d_7">
      <path d="M 197.724706 242.786449 
L 197.724706 26.570347 
" clip-path="url(#pd9492e5a62)" style="fill: none; stroke: #b0b0b0; stroke-width: 0.8; stroke-linecap: square"/>
     </g>
     <g id="line2d_8">
      <g>
       <use xlink:href="#m6e13306d5a" x="197.724706" y="242.786449" style="stroke: #000000; stroke-width: 0.8"/>
      </g>
     </g>
     <g id="text_4">
      <!-- $\mathdefault{120}$ -->
      <g transform="translate(188.94522 258.088629) scale(0.12 -0.12)">
       <defs>
        <path id="CMR17-31" d="M 1702 4083 
C 1702 4217 1696 4224 1606 4224 
C 1357 3927 979 3833 621 3820 
C 602 3820 570 3820 563 3808 
C 557 3795 557 3782 557 3648 
C 755 3648 1088 3686 1344 3839 
L 1344 467 
C 1344 243 1331 166 781 166 
L 589 166 
L 589 0 
C 896 6 1216 12 1523 12 
C 1830 12 2150 6 2458 0 
L 2458 166 
L 2266 166 
C 1715 166 1702 236 1702 467 
L 1702 4083 
z
" transform="scale(0.015625)"/>
        <path id="CMR17-32" d="M 2669 990 
L 2554 990 
C 2490 537 2438 460 2413 422 
C 2381 371 1920 371 1830 371 
L 602 371 
C 832 620 1280 1073 1824 1596 
C 2214 1966 2669 2400 2669 3033 
C 2669 3788 2067 4224 1395 4224 
C 691 4224 262 3603 262 3027 
C 262 2777 448 2745 525 2745 
C 589 2745 781 2783 781 3007 
C 781 3206 614 3264 525 3264 
C 486 3264 448 3257 422 3244 
C 544 3788 915 4057 1306 4057 
C 1862 4057 2227 3616 2227 3033 
C 2227 2477 1901 1998 1536 1583 
L 262 147 
L 262 0 
L 2515 0 
L 2669 990 
z
" transform="scale(0.015625)"/>
       </defs>
       <use xlink:href="#CMR17-31" transform="scale(0.996264)"/>
       <use xlink:href="#CMR17-32" transform="translate(45.690477 0) scale(0.996264)"/>
       <use xlink:href="#CMR17-30" transform="translate(91.380954 0) scale(0.996264)"/>
      </g>
     </g>
    </g>
    <g id="xtick_5">
     <g id="line2d_9">
      <path d="M 239.11139 242.786449 
L 239.11139 26.570347 
" clip-path="url(#pd9492e5a62)" style="fill: none; stroke: #b0b0b0; stroke-width: 0.8; stroke-linecap: square"/>
     </g>
     <g id="line2d_10">
      <g>
       <use xlink:href="#m6e13306d5a" x="239.11139" y="242.786449" style="stroke: #000000; stroke-width: 0.8"/>
      </g>
     </g>
     <g id="text_5">
      <!-- $\mathdefault{160}$ -->
      <g transform="translate(230.331905 258.088629) scale(0.12 -0.12)">
       <defs>
        <path id="CMR17-36" d="M 678 2198 
C 678 3712 1395 4076 1811 4076 
C 1946 4076 2272 4049 2400 3782 
C 2298 3782 2106 3782 2106 3558 
C 2106 3385 2246 3328 2336 3328 
C 2394 3328 2566 3353 2566 3571 
C 2566 3987 2246 4224 1805 4224 
C 1043 4224 243 3411 243 2011 
C 243 257 966 -128 1478 -128 
C 2099 -128 2688 431 2688 1295 
C 2688 2101 2170 2688 1517 2688 
C 1126 2688 838 2430 678 1979 
L 678 2198 
z
M 1478 25 
C 691 25 691 1212 691 1450 
C 691 1914 909 2585 1504 2585 
C 1613 2585 1926 2585 2138 2140 
C 2253 1889 2253 1624 2253 1302 
C 2253 954 2253 696 2118 438 
C 1978 173 1773 25 1478 25 
z
" transform="scale(0.015625)"/>
       </defs>
       <use xlink:href="#CMR17-31" transform="scale(0.996264)"/>
       <use xlink:href="#CMR17-36" transform="translate(45.690477 0) scale(0.996264)"/>
       <use xlink:href="#CMR17-30" transform="translate(91.380954 0) scale(0.996264)"/>
      </g>
     </g>
    </g>
    <g id="xtick_6">
     <g id="line2d_11">
      <path d="M 280.498074 242.786449 
L 280.498074 26.570347 
" clip-path="url(#pd9492e5a62)" style="fill: none; stroke: #b0b0b0; stroke-width: 0.8; stroke-linecap: square"/>
     </g>
     <g id="line2d_12">
      <g>
       <use xlink:href="#m6e13306d5a" x="280.498074" y="242.786449" style="stroke: #000000; stroke-width: 0.8"/>
      </g>
     </g>
     <g id="text_6">
      <!-- $\mathdefault{200}$ -->
      <g transform="translate(271.718589 258.088629) scale(0.12 -0.12)">
       <use xlink:href="#CMR17-32" transform="scale(0.996264)"/>
       <use xlink:href="#CMR17-30" transform="translate(45.690477 0) scale(0.996264)"/>
       <use xlink:href="#CMR17-30" transform="translate(91.380954 0) scale(0.996264)"/>
      </g>
     </g>
    </g>
    <g id="xtick_7">
     <g id="line2d_13">
      <path d="M 321.884759 242.786449 
L 321.884759 26.570347 
" clip-path="url(#pd9492e5a62)" style="fill: none; stroke: #b0b0b0; stroke-width: 0.8; stroke-linecap: square"/>
     </g>
     <g id="line2d_14">
      <g>
       <use xlink:href="#m6e13306d5a" x="321.884759" y="242.786449" style="stroke: #000000; stroke-width: 0.8"/>
      </g>
     </g>
     <g id="text_7">
      <!-- $\mathdefault{240}$ -->
      <g transform="translate(313.105273 258.088629) scale(0.12 -0.12)">
       <use xlink:href="#CMR17-32" transform="scale(0.996264)"/>
       <use xlink:href="#CMR17-34" transform="translate(45.690477 0) scale(0.996264)"/>
       <use xlink:href="#CMR17-30" transform="translate(91.380954 0) scale(0.996264)"/>
      </g>
     </g>
    </g>
    <g id="xtick_8">
     <g id="line2d_15">
      <path d="M 363.271443 242.786449 
L 363.271443 26.570347 
" clip-path="url(#pd9492e5a62)" style="fill: none; stroke: #b0b0b0; stroke-width: 0.8; stroke-linecap: square"/>
     </g>
     <g id="line2d_16">
      <g>
       <use xlink:href="#m6e13306d5a" x="363.271443" y="242.786449" style="stroke: #000000; stroke-width: 0.8"/>
      </g>
     </g>
     <g id="text_8">
      <!-- $\mathdefault{280}$ -->
      <g transform="translate(354.491957 258.088629) scale(0.12 -0.12)">
       <use xlink:href="#CMR17-32" transform="scale(0.996264)"/>
       <use xlink:href="#CMR17-38" transform="translate(45.690477 0) scale(0.996264)"/>
       <use xlink:href="#CMR17-30" transform="translate(91.380954 0) scale(0.996264)"/>
      </g>
     </g>
    </g>
    <g id="xtick_9">
     <g id="line2d_17">
      <path d="M 404.658127 242.786449 
L 404.658127 26.570347 
" clip-path="url(#pd9492e5a62)" style="fill: none; stroke: #b0b0b0; stroke-width: 0.8; stroke-linecap: square"/>
     </g>
     <g id="line2d_18">
      <g>
       <use xlink:href="#m6e13306d5a" x="404.658127" y="242.786449" style="stroke: #000000; stroke-width: 0.8"/>
      </g>
     </g>
     <g id="text_9">
      <!-- $\mathdefault{320}$ -->
      <g transform="translate(395.878642 258.088629) scale(0.12 -0.12)">
       <defs>
        <path id="CMR17-33" d="M 1414 2176 
C 1984 2176 2234 1673 2234 1094 
C 2234 322 1824 25 1453 25 
C 1114 25 563 193 390 691 
C 422 678 454 678 486 678 
C 640 678 755 780 755 947 
C 755 1132 614 1216 486 1216 
C 378 1216 211 1164 211 927 
C 211 335 787 -128 1466 -128 
C 2176 -128 2720 432 2720 1087 
C 2720 1718 2208 2176 1600 2246 
C 2086 2347 2554 2776 2554 3353 
C 2554 3856 2048 4224 1472 4224 
C 890 4224 378 3862 378 3347 
C 378 3123 544 3084 627 3084 
C 762 3084 877 3167 877 3334 
C 877 3500 762 3584 627 3584 
C 602 3584 570 3584 544 3571 
C 730 3999 1235 4076 1459 4076 
C 1683 4076 2106 3966 2106 3347 
C 2106 3167 2080 2851 1862 2574 
C 1670 2329 1453 2316 1242 2297 
C 1210 2297 1062 2284 1037 2284 
C 992 2278 966 2272 966 2227 
C 966 2182 973 2176 1101 2176 
L 1414 2176 
z
" transform="scale(0.015625)"/>
       </defs>
       <use xlink:href="#CMR17-33" transform="scale(0.996264)"/>
       <use xlink:href="#CMR17-32" transform="translate(45.690477 0) scale(0.996264)"/>
       <use xlink:href="#CMR17-30" transform="translate(91.380954 0) scale(0.996264)"/>
      </g>
     </g>
    </g>
    <g id="text_10">
     <!-- \textbf{Epoch} -->
     <g transform="translate(219.652755 272.715404) scale(0.12 -0.12)">
      <defs>
       <path id="CMBX12-45" d="M 4518 1753 
L 4250 1753 
C 4115 783 3878 275 2765 275 
L 1766 275 
L 1766 2156 
L 2144 2156 
C 2758 2156 2822 1889 2822 1395 
L 3091 1395 
L 3091 3177 
L 2822 3177 
C 2822 2699 2758 2432 2144 2432 
L 1766 2432 
L 1766 4108 
L 2765 4108 
C 3744 4108 3955 3694 4051 2871 
L 4320 2871 
L 4134 4383 
L 243 4383 
L 243 4108 
L 922 4108 
L 922 275 
L 243 275 
L 243 0 
L 4243 0 
L 4518 1753 
z
" transform="scale(0.015625)"/>
       <path id="CMBX12-70" d="M 1805 -941 
L 1363 -941 
L 1363 237 
C 1523 96 1805 -64 2189 -64 
C 3066 -64 3750 470 3750 1414 
C 3750 2306 3155 2880 2291 2880 
C 1914 2880 1587 2751 1331 2546 
L 1331 2880 
L 224 2828 
L 224 2552 
C 621 2552 666 2552 666 2300 
L 666 -941 
L 224 -941 
L 224 -1216 
C 371 -1204 832 -1204 1011 -1204 
C 1190 -1204 1658 -1204 1805 -1216 
L 1805 -941 
z
M 1363 2235 
C 1600 2546 1939 2649 2189 2649 
C 2605 2649 2982 2268 2982 1414 
C 2982 476 2522 147 2112 147 
C 1837 147 1562 289 1363 593 
L 1363 2235 
z
" transform="scale(0.015625)"/>
       <path id="CMBX12-6f" d="M 3392 1379 
C 3392 2245 2803 2880 1798 2880 
C 755 2880 198 2213 198 1379 
C 198 538 787 -64 1792 -64 
C 2835 -64 3392 570 3392 1379 
z
M 1798 166 
C 966 166 966 917 966 1443 
C 966 1744 966 2065 1088 2296 
C 1229 2553 1517 2668 1792 2668 
C 2157 2668 2387 2495 2496 2315 
C 2624 2084 2624 1751 2624 1443 
C 2624 910 2624 166 1798 166 
z
" transform="scale(0.015625)"/>
       <path id="CMBX12-63" d="M 2995 724 
C 2995 801 2925 801 2861 801 
C 2758 801 2752 795 2720 718 
C 2675 596 2502 166 1914 166 
C 1011 166 1011 1141 1011 1430 
C 1011 1808 1018 2649 1856 2649 
C 1901 2649 2278 2636 2278 2604 
C 2278 2598 2272 2591 2259 2585 
C 2240 2566 2157 2469 2157 2309 
C 2157 2039 2374 1930 2534 1930 
C 2669 1930 2912 2014 2912 2315 
C 2912 2841 2176 2880 1830 2880 
C 691 2880 243 2136 243 1398 
C 243 525 851 -64 1792 -64 
C 2797 -64 2995 679 2995 724 
z
" transform="scale(0.015625)"/>
       <path id="CMBX12-68" d="M 3398 1958 
C 3398 2566 3136 2880 2432 2880 
C 1786 2880 1472 2425 1382 2233 
L 1376 2233 
L 1376 4480 
L 269 4428 
L 269 4153 
C 666 4153 710 4153 710 3896 
L 710 275 
L 269 275 
L 269 0 
C 416 12 877 12 1056 12 
C 1235 12 1702 12 1850 0 
L 1850 275 
L 1408 275 
L 1408 1638 
C 1408 2329 1920 2668 2330 2668 
C 2566 2668 2701 2515 2701 2028 
L 2701 275 
L 2259 275 
L 2259 0 
C 2406 12 2867 12 3046 12 
C 3226 12 3693 12 3840 0 
L 3840 275 
L 3398 275 
L 3398 1958 
z
" transform="scale(0.015625)"/>
      </defs>
      <use xlink:href="#CMBX12-45" transform="scale(0.996264)"/>
      <use xlink:href="#CMBX12-70" transform="translate(73.566746 0) scale(0.996264)"/>
      <use xlink:href="#CMBX12-6f" transform="translate(138.946571 0) scale(0.996264)"/>
      <use xlink:href="#CMBX12-63" transform="translate(198.099747 0) scale(0.996264)"/>
      <use xlink:href="#CMBX12-68" transform="translate(244.799622 0) scale(0.996264)"/>
     </g>
    </g>
   </g>
   <g id="matplotlib.axis_2">
    <g id="ytick_1">
     <g id="line2d_19">
      <path d="M 57.113446 213.048208 
L 419.04 213.048208 
" clip-path="url(#pd9492e5a62)" style="fill: none; stroke: #b0b0b0; stroke-width: 0.8; stroke-linecap: square"/>
     </g>
     <g id="line2d_20">
      <defs>
       <path id="m8b14e35b94" d="M 0 0 
L -3.5 0 
" style="stroke: #000000; stroke-width: 0.8"/>
      </defs>
      <g>
       <use xlink:href="#m8b14e35b94" x="57.113446" y="213.048208" style="stroke: #000000; stroke-width: 0.8"/>
      </g>
     </g>
     <g id="text_11">
      <!-- $\mathdefault{10^{-5}}$ -->
      <g transform="translate(27.586776 217.199298) scale(0.12 -0.12)">
       <defs>
        <path id="CMSY10-0" d="M 4218 1472 
C 4326 1472 4442 1472 4442 1600 
C 4442 1728 4326 1728 4218 1728 
L 755 1728 
C 646 1728 531 1728 531 1600 
C 531 1472 646 1472 755 1472 
L 4218 1472 
z
" transform="scale(0.015625)"/>
        <path id="CMR17-35" d="M 730 3750 
C 794 3724 1056 3641 1325 3641 
C 1920 3641 2246 3961 2432 4140 
C 2432 4191 2432 4224 2394 4224 
C 2387 4224 2374 4224 2323 4198 
C 2099 4102 1837 4032 1517 4032 
C 1325 4032 1037 4055 723 4191 
C 653 4224 640 4224 634 4224 
C 602 4224 595 4217 595 4090 
L 595 2231 
C 595 2113 595 2080 659 2080 
C 691 2080 704 2093 736 2139 
C 941 2435 1222 2560 1542 2560 
C 1766 2560 2246 2415 2246 1293 
C 2246 1087 2246 716 2054 422 
C 1894 159 1645 25 1370 25 
C 947 25 518 319 403 812 
C 429 806 480 793 506 793 
C 589 793 749 838 749 1036 
C 749 1209 627 1280 506 1280 
C 358 1280 262 1190 262 1011 
C 262 454 704 -128 1382 -128 
C 2042 -128 2669 441 2669 1267 
C 2669 2054 2170 2662 1549 2662 
C 1222 2662 947 2540 730 2304 
L 730 3750 
z
" transform="scale(0.015625)"/>
       </defs>
       <use xlink:href="#CMR17-31" transform="scale(0.996264)"/>
       <use xlink:href="#CMR17-30" transform="translate(45.690477 0) scale(0.996264)"/>
       <use xlink:href="#CMSY10-0" transform="translate(91.380954 36.153639) scale(0.697382)"/>
       <use xlink:href="#CMR17-35" transform="translate(145.621947 36.153639) scale(0.697382)"/>
      </g>
     </g>
    </g>
    <g id="ytick_2">
     <g id="line2d_21">
      <path d="M 57.113446 157.879929 
L 419.04 157.879929 
" clip-path="url(#pd9492e5a62)" style="fill: none; stroke: #b0b0b0; stroke-width: 0.8; stroke-linecap: square"/>
     </g>
     <g id="line2d_22">
      <g>
       <use xlink:href="#m8b14e35b94" x="57.113446" y="157.879929" style="stroke: #000000; stroke-width: 0.8"/>
      </g>
     </g>
     <g id="text_12">
      <!-- $\mathdefault{10^{-4}}$ -->
      <g transform="translate(27.586776 162.031019) scale(0.12 -0.12)">
       <use xlink:href="#CMR17-31" transform="scale(0.996264)"/>
       <use xlink:href="#CMR17-30" transform="translate(45.690477 0) scale(0.996264)"/>
       <use xlink:href="#CMSY10-0" transform="translate(91.380954 36.153639) scale(0.697382)"/>
       <use xlink:href="#CMR17-34" transform="translate(145.621947 36.153639) scale(0.697382)"/>
      </g>
     </g>
    </g>
    <g id="ytick_3">
     <g id="line2d_23">
      <path d="M 57.113446 102.711651 
L 419.04 102.711651 
" clip-path="url(#pd9492e5a62)" style="fill: none; stroke: #b0b0b0; stroke-width: 0.8; stroke-linecap: square"/>
     </g>
     <g id="line2d_24">
      <g>
       <use xlink:href="#m8b14e35b94" x="57.113446" y="102.711651" style="stroke: #000000; stroke-width: 0.8"/>
      </g>
     </g>
     <g id="text_13">
      <!-- $\mathdefault{10^{-3}}$ -->
      <g transform="translate(27.586776 106.862741) scale(0.12 -0.12)">
       <use xlink:href="#CMR17-31" transform="scale(0.996264)"/>
       <use xlink:href="#CMR17-30" transform="translate(45.690477 0) scale(0.996264)"/>
       <use xlink:href="#CMSY10-0" transform="translate(91.380954 36.153639) scale(0.697382)"/>
       <use xlink:href="#CMR17-33" transform="translate(145.621947 36.153639) scale(0.697382)"/>
      </g>
     </g>
    </g>
    <g id="ytick_4">
     <g id="line2d_25">
      <path d="M 57.113446 47.543372 
L 419.04 47.543372 
" clip-path="url(#pd9492e5a62)" style="fill: none; stroke: #b0b0b0; stroke-width: 0.8; stroke-linecap: square"/>
     </g>
     <g id="line2d_26">
      <g>
       <use xlink:href="#m8b14e35b94" x="57.113446" y="47.543372" style="stroke: #000000; stroke-width: 0.8"/>
      </g>
     </g>
     <g id="text_14">
      <!-- $\mathdefault{10^{-2}}$ -->
      <g transform="translate(27.586776 51.694462) scale(0.12 -0.12)">
       <use xlink:href="#CMR17-31" transform="scale(0.996264)"/>
       <use xlink:href="#CMR17-30" transform="translate(45.690477 0) scale(0.996264)"/>
       <use xlink:href="#CMSY10-0" transform="translate(91.380954 36.153639) scale(0.697382)"/>
       <use xlink:href="#CMR17-32" transform="translate(145.621947 36.153639) scale(0.697382)"/>
      </g>
     </g>
    </g>
    <g id="ytick_5">
     <g id="line2d_27">
      <defs>
       <path id="md9c45af1d2" d="M 0 0 
L -2 0 
" style="stroke: #000000; stroke-width: 0.6"/>
      </defs>
      <g>
       <use xlink:href="#md9c45af1d2" x="57.113446" y="241.894528" style="stroke: #000000; stroke-width: 0.6"/>
      </g>
     </g>
    </g>
    <g id="ytick_6">
     <g id="line2d_28">
      <g>
       <use xlink:href="#md9c45af1d2" x="57.113446" y="235.001873" style="stroke: #000000; stroke-width: 0.6"/>
      </g>
     </g>
    </g>
    <g id="ytick_7">
     <g id="line2d_29">
      <g>
       <use xlink:href="#md9c45af1d2" x="57.113446" y="229.655515" style="stroke: #000000; stroke-width: 0.6"/>
      </g>
     </g>
    </g>
    <g id="ytick_8">
     <g id="line2d_30">
      <g>
       <use xlink:href="#md9c45af1d2" x="57.113446" y="225.287222" style="stroke: #000000; stroke-width: 0.6"/>
      </g>
     </g>
    </g>
    <g id="ytick_9">
     <g id="line2d_31">
      <g>
       <use xlink:href="#md9c45af1d2" x="57.113446" y="221.593882" style="stroke: #000000; stroke-width: 0.6"/>
      </g>
     </g>
    </g>
    <g id="ytick_10">
     <g id="line2d_32">
      <g>
       <use xlink:href="#md9c45af1d2" x="57.113446" y="218.394567" style="stroke: #000000; stroke-width: 0.6"/>
      </g>
     </g>
    </g>
    <g id="ytick_11">
     <g id="line2d_33">
      <g>
       <use xlink:href="#md9c45af1d2" x="57.113446" y="215.57257" style="stroke: #000000; stroke-width: 0.6"/>
      </g>
     </g>
    </g>
    <g id="ytick_12">
     <g id="line2d_34">
      <g>
       <use xlink:href="#md9c45af1d2" x="57.113446" y="196.440901" style="stroke: #000000; stroke-width: 0.6"/>
      </g>
     </g>
    </g>
    <g id="ytick_13">
     <g id="line2d_35">
      <g>
       <use xlink:href="#md9c45af1d2" x="57.113446" y="186.72625" style="stroke: #000000; stroke-width: 0.6"/>
      </g>
     </g>
    </g>
    <g id="ytick_14">
     <g id="line2d_36">
      <g>
       <use xlink:href="#md9c45af1d2" x="57.113446" y="179.833595" style="stroke: #000000; stroke-width: 0.6"/>
      </g>
     </g>
    </g>
    <g id="ytick_15">
     <g id="line2d_37">
      <g>
       <use xlink:href="#md9c45af1d2" x="57.113446" y="174.487236" style="stroke: #000000; stroke-width: 0.6"/>
      </g>
     </g>
    </g>
    <g id="ytick_16">
     <g id="line2d_38">
      <g>
       <use xlink:href="#md9c45af1d2" x="57.113446" y="170.118943" style="stroke: #000000; stroke-width: 0.6"/>
      </g>
     </g>
    </g>
    <g id="ytick_17">
     <g id="line2d_39">
      <g>
       <use xlink:href="#md9c45af1d2" x="57.113446" y="166.425604" style="stroke: #000000; stroke-width: 0.6"/>
      </g>
     </g>
    </g>
    <g id="ytick_18">
     <g id="line2d_40">
      <g>
       <use xlink:href="#md9c45af1d2" x="57.113446" y="163.226288" style="stroke: #000000; stroke-width: 0.6"/>
      </g>
     </g>
    </g>
    <g id="ytick_19">
     <g id="line2d_41">
      <g>
       <use xlink:href="#md9c45af1d2" x="57.113446" y="160.404291" style="stroke: #000000; stroke-width: 0.6"/>
      </g>
     </g>
    </g>
    <g id="ytick_20">
     <g id="line2d_42">
      <g>
       <use xlink:href="#md9c45af1d2" x="57.113446" y="141.272623" style="stroke: #000000; stroke-width: 0.6"/>
      </g>
     </g>
    </g>
    <g id="ytick_21">
     <g id="line2d_43">
      <g>
       <use xlink:href="#md9c45af1d2" x="57.113446" y="131.557971" style="stroke: #000000; stroke-width: 0.6"/>
      </g>
     </g>
    </g>
    <g id="ytick_22">
     <g id="line2d_44">
      <g>
       <use xlink:href="#md9c45af1d2" x="57.113446" y="124.665316" style="stroke: #000000; stroke-width: 0.6"/>
      </g>
     </g>
    </g>
    <g id="ytick_23">
     <g id="line2d_45">
      <g>
       <use xlink:href="#md9c45af1d2" x="57.113446" y="119.318958" style="stroke: #000000; stroke-width: 0.6"/>
      </g>
     </g>
    </g>
    <g id="ytick_24">
     <g id="line2d_46">
      <g>
       <use xlink:href="#md9c45af1d2" x="57.113446" y="114.950665" style="stroke: #000000; stroke-width: 0.6"/>
      </g>
     </g>
    </g>
    <g id="ytick_25">
     <g id="line2d_47">
      <g>
       <use xlink:href="#md9c45af1d2" x="57.113446" y="111.257325" style="stroke: #000000; stroke-width: 0.6"/>
      </g>
     </g>
    </g>
    <g id="ytick_26">
     <g id="line2d_48">
      <g>
       <use xlink:href="#md9c45af1d2" x="57.113446" y="108.05801" style="stroke: #000000; stroke-width: 0.6"/>
      </g>
     </g>
    </g>
    <g id="ytick_27">
     <g id="line2d_49">
      <g>
       <use xlink:href="#md9c45af1d2" x="57.113446" y="105.236013" style="stroke: #000000; stroke-width: 0.6"/>
      </g>
     </g>
    </g>
    <g id="ytick_28">
     <g id="line2d_50">
      <g>
       <use xlink:href="#md9c45af1d2" x="57.113446" y="86.104344" style="stroke: #000000; stroke-width: 0.6"/>
      </g>
     </g>
    </g>
    <g id="ytick_29">
     <g id="line2d_51">
      <g>
       <use xlink:href="#md9c45af1d2" x="57.113446" y="76.389693" style="stroke: #000000; stroke-width: 0.6"/>
      </g>
     </g>
    </g>
    <g id="ytick_30">
     <g id="line2d_52">
      <g>
       <use xlink:href="#md9c45af1d2" x="57.113446" y="69.497038" style="stroke: #000000; stroke-width: 0.6"/>
      </g>
     </g>
    </g>
    <g id="ytick_31">
     <g id="line2d_53">
      <g>
       <use xlink:href="#md9c45af1d2" x="57.113446" y="64.150679" style="stroke: #000000; stroke-width: 0.6"/>
      </g>
     </g>
    </g>
    <g id="ytick_32">
     <g id="line2d_54">
      <g>
       <use xlink:href="#md9c45af1d2" x="57.113446" y="59.782386" style="stroke: #000000; stroke-width: 0.6"/>
      </g>
     </g>
    </g>
    <g id="ytick_33">
     <g id="line2d_55">
      <g>
       <use xlink:href="#md9c45af1d2" x="57.113446" y="56.089047" style="stroke: #000000; stroke-width: 0.6"/>
      </g>
     </g>
    </g>
    <g id="ytick_34">
     <g id="line2d_56">
      <g>
       <use xlink:href="#md9c45af1d2" x="57.113446" y="52.889731" style="stroke: #000000; stroke-width: 0.6"/>
      </g>
     </g>
    </g>
    <g id="ytick_35">
     <g id="line2d_57">
      <g>
       <use xlink:href="#md9c45af1d2" x="57.113446" y="50.067734" style="stroke: #000000; stroke-width: 0.6"/>
      </g>
     </g>
    </g>
    <g id="ytick_36">
     <g id="line2d_58">
      <g>
       <use xlink:href="#md9c45af1d2" x="57.113446" y="30.936066" style="stroke: #000000; stroke-width: 0.6"/>
      </g>
     </g>
    </g>
    <g id="text_15">
     <!-- \textbf{MSE Loss} -->
     <g transform="translate(21.26218 164.156767) rotate(-90) scale(0.12 -0.12)">
      <defs>
       <path id="CMBX12-4d" d="M 3411 816 
L 1875 4281 
C 1818 4416 1760 4416 1626 4416 
L 262 4416 
L 262 4140 
L 941 4140 
L 941 468 
C 941 326 934 320 768 294 
C 653 281 525 275 410 275 
L 262 275 
L 262 0 
C 410 12 909 12 1088 12 
C 1267 12 1773 12 1920 0 
L 1920 275 
L 1773 275 
C 1600 275 1587 275 1434 294 
C 1248 320 1242 326 1242 468 
L 1242 4063 
L 1248 4063 
L 2989 134 
C 3021 64 3059 0 3168 0 
C 3277 0 3315 64 3347 134 
L 5120 4140 
L 5126 4140 
L 5126 275 
L 4448 275 
L 4448 0 
C 4621 12 5286 12 5504 12 
C 5722 12 6387 12 6560 0 
L 6560 275 
L 5882 275 
L 5882 4140 
L 6560 4140 
L 6560 4416 
L 5197 4416 
C 5062 4416 5005 4416 4947 4281 
L 3411 816 
z
" transform="scale(0.015625)"/>
       <path id="CMBX12-53" d="M 1626 2828 
C 992 2969 973 3430 973 3520 
C 973 3846 1184 4223 1805 4223 
C 2426 4223 2982 3923 3117 3084 
C 3136 2950 3136 2944 3258 2944 
C 3392 2944 3392 2963 3392 3110 
L 3392 4313 
C 3392 4435 3392 4480 3296 4480 
C 3251 4480 3232 4473 3174 4409 
L 2899 4096 
C 2739 4230 2419 4480 1798 4480 
C 883 4480 397 3904 397 3206 
C 397 2777 627 2476 717 2387 
C 1050 2054 1229 2016 1894 1868 
C 2534 1728 2611 1715 2752 1580 
C 2835 1497 3021 1318 3021 992 
C 3021 716 2886 211 2170 211 
C 1606 211 717 403 666 1337 
C 659 1452 659 1472 531 1472 
C 397 1472 397 1452 397 1305 
L 397 102 
C 397 -20 397 -64 493 -64 
C 538 -64 544 -58 608 0 
C 678 70 736 153 896 313 
C 1267 19 1792 -64 2176 -64 
C 3174 -64 3597 614 3597 1292 
C 3597 1894 3200 2470 2502 2630 
L 1626 2828 
z
" transform="scale(0.015625)"/>
       <path id="CMBX12-4c" d="M 4019 1737 
L 3750 1737 
C 3706 1293 3603 275 2451 275 
L 1766 275 
L 1766 4140 
L 2618 4140 
L 2618 4416 
C 2304 4403 1734 4403 1395 4403 
C 1158 4403 429 4403 243 4416 
L 243 4140 
L 922 4140 
L 922 275 
L 243 275 
L 243 0 
L 3834 0 
L 4019 1737 
z
" transform="scale(0.015625)"/>
       <path id="CMBX12-73" d="M 2413 2713 
C 2413 2835 2413 2880 2317 2880 
C 2278 2880 2266 2880 2170 2822 
C 2144 2803 2074 2758 2042 2739 
C 1862 2841 1626 2880 1395 2880 
C 1203 2880 243 2880 243 2046 
C 243 1372 1037 1231 1235 1199 
C 1408 1167 1619 1128 1645 1128 
C 1901 1071 2157 910 2157 641 
C 2157 147 1574 147 1440 147 
C 1114 147 710 249 531 872 
C 493 1000 486 1006 378 1006 
C 243 1006 243 987 243 840 
L 243 102 
C 243 -20 243 -64 339 -64 
C 384 -64 397 -64 525 38 
L 691 160 
C 979 -64 1325 -64 1440 -64 
C 1792 -64 2592 12 2592 865 
C 2592 1173 2426 1385 2298 1500 
C 2035 1719 1818 1757 1472 1821 
C 1062 1892 678 1962 678 2270 
C 678 2687 1248 2687 1382 2687 
C 2093 2687 2131 2238 2144 2078 
C 2150 1995 2202 1995 2278 1995 
C 2413 1995 2413 2014 2413 2161 
L 2413 2713 
z
" transform="scale(0.015625)"/>
      </defs>
      <use xlink:href="#CMBX12-4d" transform="scale(0.996264)"/>
      <use xlink:href="#CMBX12-53" transform="translate(106.314425 0) scale(0.996264)"/>
      <use xlink:href="#CMBX12-45" transform="translate(168.580926 0) scale(0.996264)"/>
      <use xlink:href="#CMBX12-4c" transform="translate(279.507572 0) scale(0.996264)"/>
      <use xlink:href="#CMBX12-6f" transform="translate(346.847667 0) scale(0.996264)"/>
      <use xlink:href="#CMBX12-73" transform="translate(402.887518 0) scale(0.996264)"/>
      <use xlink:href="#CMBX12-73" transform="translate(447.096855 0) scale(0.996264)"/>
     </g>
    </g>
   </g>
   <g id="line2d_59">
    <path d="M 73.564653 48.23794 
L 74.59932 85.846426 
L 76.668654 97.622069 
L 77.703321 101.257747 
L 78.737988 105.441166 
L 79.772655 107.330827 
L 81.841989 111.475015 
L 82.876657 114.399095 
L 83.911324 116.730453 
L 84.945991 117.658026 
L 85.980658 118.102632 
L 87.015325 120.556774 
L 88.049992 121.044122 
L 89.084659 124.630139 
L 90.119326 124.895924 
L 91.153993 126.142893 
L 92.188661 121.497078 
L 93.223328 126.582872 
L 94.257995 128.799514 
L 95.292662 129.558313 
L 96.327329 131.927632 
L 97.361996 133.86578 
L 98.396663 130.543361 
L 99.43133 130.134613 
L 100.465997 132.602548 
L 101.500665 136.362285 
L 102.535332 130.789846 
L 103.569999 136.25787 
L 105.639333 140.751336 
L 106.674 140.516235 
L 107.708667 139.193431 
L 108.743334 137.600181 
L 109.778001 140.538815 
L 110.812668 145.934399 
L 111.847336 148.466156 
L 112.882003 145.740646 
L 113.91667 149.573375 
L 114.951337 145.629946 
L 115.986004 145.75039 
L 117.020671 147.601804 
L 118.055338 150.234319 
L 119.090005 148.296125 
L 120.124672 151.738956 
L 121.15934 151.646257 
L 122.194007 146.976896 
L 123.228674 151.573242 
L 124.263341 151.288052 
L 125.298008 151.377816 
L 126.332675 153.035889 
L 127.367342 150.638586 
L 128.402009 152.897927 
L 129.436676 153.457318 
L 130.471344 154.744782 
L 131.506011 152.547674 
L 132.540678 153.994842 
L 133.575345 158.985061 
L 134.610012 158.929026 
L 135.644679 159.440604 
L 136.679346 160.57645 
L 137.714013 158.645339 
L 138.74868 158.468196 
L 139.783348 160.885524 
L 140.818015 162.580147 
L 141.852682 162.422954 
L 142.887349 160.69451 
L 143.922016 163.872042 
L 144.956683 158.34516 
L 145.99135 161.714311 
L 147.026017 163.633396 
L 148.060684 160.01065 
L 149.095351 163.423302 
L 151.164686 161.968527 
L 152.199353 166.257697 
L 153.23402 164.831655 
L 154.268687 166.2904 
L 155.303354 170.453499 
L 156.338021 165.831768 
L 157.372688 164.520282 
L 158.407355 165.853298 
L 159.442023 166.577751 
L 160.47669 166.260904 
L 161.511357 169.058334 
L 162.546024 168.150919 
L 163.580691 168.927206 
L 164.615358 167.06384 
L 165.650025 169.680939 
L 166.684692 169.717754 
L 167.719359 169.075535 
L 168.754027 171.250447 
L 169.788694 170.486544 
L 170.823361 171.988284 
L 171.858028 169.600902 
L 172.892695 168.638207 
L 173.927362 170.276727 
L 174.962029 170.016924 
L 175.996696 169.450526 
L 177.031363 172.41888 
L 178.066031 170.146484 
L 179.100698 171.200313 
L 180.135365 170.242911 
L 181.170032 171.374116 
L 182.204699 171.856332 
L 183.239366 169.102943 
L 184.274033 171.418856 
L 185.3087 172.81309 
L 186.343367 171.402665 
L 187.378034 172.979673 
L 188.412702 174.153447 
L 189.447369 174.359979 
L 190.482036 173.258857 
L 191.516703 172.897854 
L 192.55137 172.168386 
L 193.586037 173.639147 
L 194.620704 173.2848 
L 195.655371 172.36697 
L 196.690038 174.856642 
L 197.724706 173.940684 
L 198.759373 172.080529 
L 199.79404 173.255398 
L 200.828707 173.839622 
L 201.863374 173.745528 
L 202.898041 172.623572 
L 203.932708 172.464148 
L 204.967375 172.579972 
L 206.002042 173.838559 
L 207.03671 175.620862 
L 208.071377 174.870233 
L 209.106044 174.742351 
L 210.140711 173.844002 
L 211.175378 174.424724 
L 212.210045 174.865791 
L 213.244712 173.638481 
L 214.279379 174.997932 
L 215.314046 173.696152 
L 216.348714 174.621555 
L 217.383381 175.210278 
L 218.418048 174.428898 
L 219.452715 174.321393 
L 220.487382 176.075095 
L 221.522049 173.392685 
L 222.556716 175.260203 
L 223.591383 174.731146 
L 224.62605 172.465241 
L 226.695385 175.679312 
L 227.730052 174.654745 
L 228.764719 174.733586 
L 229.799386 175.102409 
L 230.834053 174.90505 
L 231.86872 175.667578 
L 232.903387 173.280157 
L 233.938054 174.601766 
L 234.972721 174.961037 
L 236.007389 175.96422 
L 237.042056 175.231073 
L 238.076723 177.385305 
L 239.11139 176.842036 
L 240.146057 175.098913 
L 242.215391 176.159004 
L 243.250058 175.070106 
L 244.284725 175.450731 
L 245.319393 177.000762 
L 246.35406 175.690882 
L 247.388727 174.861496 
L 248.423394 175.421836 
L 249.458061 175.780931 
L 250.492728 176.734591 
L 252.562062 175.538032 
L 254.631397 176.130321 
L 255.666064 174.432583 
L 257.735398 176.248672 
L 258.770065 176.519039 
L 259.804732 174.782355 
L 260.839399 176.238547 
L 261.874066 175.853714 
L 262.908733 176.876264 
L 263.9434 175.448832 
L 264.978068 176.955767 
L 266.012735 175.863665 
L 267.047402 175.49391 
L 268.082069 177.049642 
L 269.116736 176.496223 
L 270.151403 177.295706 
L 272.220737 175.0997 
L 273.255404 177.366612 
L 274.290072 177.172612 
L 275.324739 176.656714 
L 276.359406 176.802819 
L 277.394073 175.250992 
L 278.42874 175.747501 
L 279.463407 176.808656 
L 280.498074 174.963617 
L 281.532741 176.472412 
L 282.567408 177.158858 
L 283.602076 175.437243 
L 284.636743 176.738566 
L 285.67141 175.204194 
L 286.706077 176.785491 
L 287.740744 175.105634 
L 288.775411 177.030513 
L 289.810078 175.966387 
L 290.844745 176.026945 
L 291.879412 175.794906 
L 293.948747 177.48271 
L 294.983414 177.260822 
L 296.018081 176.132765 
L 297.052748 176.200897 
L 298.087415 176.665154 
L 299.122082 175.588444 
L 300.156749 176.299604 
L 301.191416 177.309329 
L 302.226083 175.483029 
L 304.295418 176.639233 
L 305.330085 176.649873 
L 306.364752 174.750081 
L 307.399419 175.146215 
L 308.434086 176.812483 
L 309.468753 176.526788 
L 310.50342 174.356838 
L 311.538087 176.54513 
L 312.572755 174.852119 
L 313.607422 175.813424 
L 314.642089 176.031166 
L 315.676756 175.916357 
L 316.711423 176.407109 
L 317.74609 175.893628 
L 318.780757 176.63057 
L 319.815424 176.00913 
L 321.884759 175.218376 
L 322.919426 175.010182 
L 323.954093 175.404163 
L 326.023427 175.684478 
L 327.058094 175.498984 
L 328.092761 175.758215 
L 329.127428 175.251298 
L 330.162095 176.740399 
L 331.196763 175.445421 
L 332.23143 175.683512 
L 333.266097 175.719712 
L 334.300764 175.40983 
L 335.335431 176.287154 
L 336.370098 176.155156 
L 337.404765 176.407568 
L 338.439432 175.381856 
L 339.474099 177.082183 
L 340.508766 176.387688 
L 341.543434 176.835648 
L 342.578101 176.33916 
L 343.612768 176.824154 
L 344.647435 175.443841 
L 345.682102 175.352405 
L 346.716769 176.132956 
L 347.751436 177.253342 
L 348.786103 174.695822 
L 349.82077 176.045227 
L 350.855438 175.856445 
L 351.890105 176.228847 
L 352.924772 176.330449 
L 353.959439 175.620587 
L 354.994106 176.426146 
L 356.028773 175.952522 
L 357.06344 176.117529 
L 358.098107 175.442156 
L 359.132774 177.005199 
L 360.167442 176.909435 
L 361.202109 175.429086 
L 362.236776 176.08726 
L 363.271443 176.408813 
L 364.30611 174.970203 
L 365.340777 176.099691 
L 366.375444 178.349864 
L 367.410111 175.945891 
L 368.444778 176.324279 
L 369.479446 175.22457 
L 370.514113 176.42705 
L 371.54878 176.02827 
L 372.583447 174.865149 
L 373.618114 177.13726 
L 374.652781 176.497809 
L 375.687448 177.259245 
L 376.722115 176.626107 
L 377.756782 176.786921 
L 378.791449 174.442088 
L 379.826117 177.235268 
L 380.860784 177.155583 
L 381.895451 176.352519 
L 382.930118 175.363862 
L 383.964785 176.806003 
L 384.999452 175.608326 
L 387.068786 176.356865 
L 388.103453 174.894112 
L 389.138121 177.157674 
L 390.172788 174.492022 
L 391.207455 176.294154 
L 392.242122 176.521791 
L 393.276789 175.721731 
L 394.311456 177.574088 
L 395.346123 175.95441 
L 396.38079 176.425186 
L 397.415457 175.769421 
L 398.450125 176.866829 
L 399.484792 176.963709 
L 400.519459 175.684395 
L 401.554126 175.503457 
L 402.588793 174.628679 
L 402.588793 174.628679 
" clip-path="url(#pd9492e5a62)" style="fill: none; stroke: #1f77b4; stroke-width: 2; stroke-linecap: square"/>
   </g>
   <g id="line2d_60">
    <path d="M 73.564653 91.173402 
L 74.59932 36.398351 
L 75.633987 68.075688 
L 76.668654 91.236284 
L 77.703321 127.959565 
L 78.737988 120.100461 
L 79.772655 129.747503 
L 80.807322 117.608998 
L 81.841989 101.600849 
L 83.911324 145.692472 
L 84.945991 131.301357 
L 85.980658 88.246889 
L 87.015325 127.754451 
L 88.049992 137.056644 
L 89.084659 131.269242 
L 90.119326 136.679344 
L 91.153993 155.544306 
L 92.188661 170.497772 
L 93.223328 150.462731 
L 94.257995 134.219954 
L 95.292662 174.136979 
L 96.327329 129.624636 
L 97.361996 172.957571 
L 98.396663 180.685721 
L 99.43133 139.736241 
L 100.465997 159.662343 
L 101.500665 136.646426 
L 102.535332 146.555324 
L 103.569999 174.096148 
L 104.604666 142.515997 
L 105.639333 172.181451 
L 106.674 133.773264 
L 107.708667 111.337623 
L 108.743334 166.020905 
L 110.812668 150.345835 
L 111.847336 150.133804 
L 112.882003 155.914456 
L 113.91667 184.108835 
L 114.951337 187.425606 
L 115.986004 205.416273 
L 117.020671 201.675129 
L 118.055338 176.773856 
L 119.090005 212.059346 
L 120.124672 165.241289 
L 121.15934 214.974561 
L 122.194007 184.949409 
L 123.228674 198.388756 
L 124.263341 207.767092 
L 125.298008 157.285082 
L 126.332675 163.927806 
L 127.367342 193.817297 
L 128.402009 200.616273 
L 129.436676 195.601449 
L 130.471344 176.628859 
L 131.506011 164.973173 
L 132.540678 170.026464 
L 133.575345 217.400356 
L 134.610012 212.456084 
L 135.644679 224.207667 
L 136.679346 224.277503 
L 137.714013 194.839707 
L 139.783348 224.959167 
L 140.818015 214.193793 
L 141.852682 211.679629 
L 142.887349 186.849297 
L 143.922016 207.062438 
L 144.956683 172.205596 
L 145.99135 181.541276 
L 147.026017 182.732479 
L 148.060684 204.121942 
L 149.095351 207.595125 
L 150.130019 172.632144 
L 151.164686 209.902094 
L 152.199353 194.458428 
L 153.23402 227.041923 
L 154.268687 204.69605 
L 155.303354 213.515215 
L 156.338021 212.519181 
L 157.372688 198.662814 
L 158.407355 221.557467 
L 159.442023 188.949194 
L 160.47669 212.654264 
L 161.511357 179.753725 
L 162.546024 225.166284 
L 163.580691 199.547926 
L 164.615358 203.980865 
L 165.650025 222.492701 
L 166.684692 227.22566 
L 167.719359 223.20073 
L 168.754027 223.597607 
L 169.788694 215.421959 
L 170.823361 218.085521 
L 171.858028 215.545379 
L 172.892695 220.016251 
L 173.927362 216.77271 
L 174.962029 224.548262 
L 175.996696 228.748014 
L 177.031363 227.826478 
L 178.066031 228.558157 
L 179.100698 226.234799 
L 180.135365 226.92642 
L 181.170032 215.381392 
L 182.204699 220.70119 
L 183.239366 206.736174 
L 184.274033 224.410755 
L 185.3087 203.326621 
L 186.343367 209.887375 
L 187.378034 228.115372 
L 188.412702 227.694996 
L 189.447369 221.585601 
L 190.482036 228.464338 
L 191.516703 228.597019 
L 192.55137 226.737002 
L 193.586037 204.845354 
L 194.620704 231.218298 
L 195.655371 227.59026 
L 196.690038 227.548024 
L 197.724706 227.741536 
L 198.759373 215.299655 
L 199.79404 219.095696 
L 200.828707 221.791895 
L 201.863374 230.004955 
L 202.898041 224.006747 
L 203.932708 213.060409 
L 204.967375 228.600799 
L 206.002042 227.063224 
L 207.03671 226.748793 
L 208.071377 230.185397 
L 209.106044 229.42693 
L 210.140711 208.74365 
L 211.175378 228.56387 
L 212.210045 226.37095 
L 213.244712 223.406138 
L 214.279379 231.434894 
L 215.314046 221.477112 
L 216.348714 228.001379 
L 217.383381 230.125691 
L 218.418048 230.333395 
L 219.452715 230.353945 
L 220.487382 231.348936 
L 221.522049 230.729589 
L 222.556716 226.278258 
L 223.591383 223.03787 
L 224.62605 226.446793 
L 225.660717 231.545199 
L 226.695385 230.521126 
L 227.730052 231.474735 
L 228.764719 222.409021 
L 229.799386 229.816071 
L 230.834053 229.666583 
L 231.86872 230.432125 
L 232.903387 227.75991 
L 233.938054 228.209369 
L 234.972721 230.46066 
L 236.007389 230.343789 
L 237.042056 228.830905 
L 238.076723 232.514506 
L 239.11139 226.511294 
L 240.146057 227.349342 
L 241.180724 231.654137 
L 242.215391 231.893384 
L 243.250058 228.933992 
L 244.284725 231.564384 
L 245.319393 230.479235 
L 246.35406 228.227849 
L 247.388727 218.502547 
L 248.423394 229.725701 
L 249.458061 230.748903 
L 250.492728 230.830942 
L 251.527395 229.906885 
L 252.562062 222.700598 
L 253.596729 232.088703 
L 254.631397 231.887527 
L 255.666064 221.069926 
L 256.700731 228.703726 
L 257.735398 229.729634 
L 258.770065 214.115251 
L 259.804732 230.199768 
L 260.839399 231.564263 
L 261.874066 212.753866 
L 262.908733 226.010553 
L 263.9434 227.975284 
L 264.978068 228.380627 
L 266.012735 221.656773 
L 267.047402 218.321492 
L 268.082069 230.709009 
L 269.116736 230.787646 
L 270.151403 223.385199 
L 271.18607 229.217544 
L 272.220737 225.786378 
L 273.255404 228.970248 
L 274.290072 224.271141 
L 275.324739 229.816511 
L 276.359406 231.291817 
L 277.394073 228.07093 
L 278.42874 231.512584 
L 279.463407 232.0885 
L 280.498074 226.836472 
L 281.532741 232.490176 
L 282.567408 230.465967 
L 283.602076 232.575596 
L 284.636743 231.753668 
L 285.67141 232.690082 
L 287.740744 218.100785 
L 288.775411 227.381902 
L 289.810078 231.126823 
L 290.844745 232.528881 
L 291.879412 224.764589 
L 292.91408 229.320761 
L 293.948747 227.281517 
L 294.983414 232.665931 
L 296.018081 223.033732 
L 297.052748 231.3362 
L 298.087415 224.776919 
L 299.122082 232.958444 
L 300.156749 230.621016 
L 301.191416 232.118689 
L 302.226083 227.903778 
L 303.260751 222.46669 
L 304.295418 226.440041 
L 305.330085 232.717676 
L 306.364752 232.087263 
L 307.399419 232.416897 
L 308.434086 230.914433 
L 309.468753 230.97492 
L 310.50342 227.902034 
L 311.538087 232.497274 
L 312.572755 230.717364 
L 313.607422 228.191783 
L 314.642089 230.720053 
L 315.676756 230.204215 
L 316.711423 232.009724 
L 317.74609 232.251981 
L 318.780757 228.949234 
L 319.815424 231.704341 
L 320.850091 229.190618 
L 321.884759 224.186382 
L 322.919426 223.566955 
L 323.954093 216.190692 
L 324.98876 229.109562 
L 326.023427 230.415555 
L 327.058094 226.47657 
L 328.092761 205.961453 
L 329.127428 230.219239 
L 330.162095 232.225579 
L 331.196763 215.700195 
L 332.23143 214.745357 
L 333.266097 225.516707 
L 334.300764 231.611707 
L 335.335431 218.417508 
L 336.370098 230.243378 
L 337.404765 213.742121 
L 338.439432 220.215402 
L 339.474099 228.152962 
L 340.508766 219.26081 
L 341.543434 232.330975 
L 342.578101 232.449106 
L 343.612768 218.725671 
L 344.647435 232.434229 
L 345.682102 215.572897 
L 346.716769 231.657833 
L 347.751436 229.281873 
L 348.786103 225.900402 
L 349.82077 221.253211 
L 350.855438 230.355322 
L 351.890105 215.763293 
L 352.924772 211.904584 
L 353.959439 225.547725 
L 354.994106 231.859778 
L 356.028773 232.528426 
L 357.06344 225.456312 
L 358.098107 225.681174 
L 359.132774 230.285083 
L 360.167442 232.165697 
L 361.202109 230.12431 
L 362.236776 222.92803 
L 363.271443 230.902247 
L 364.30611 231.127693 
L 365.340777 228.162572 
L 366.375444 231.861555 
L 367.410111 200.703716 
L 368.444778 232.130394 
L 369.479446 219.939033 
L 370.514113 221.977249 
L 371.54878 231.753583 
L 372.583447 224.384627 
L 373.618114 231.956369 
L 374.652781 228.728062 
L 375.687448 230.158346 
L 376.722115 212.122535 
L 377.756782 231.033197 
L 378.791449 232.2409 
L 379.826117 227.133221 
L 380.860784 230.748511 
L 381.895451 219.793601 
L 382.930118 232.094905 
L 383.964785 229.908028 
L 384.999452 226.596441 
L 386.034119 230.282932 
L 387.068786 229.947065 
L 388.103453 228.817748 
L 389.138121 232.069499 
L 390.172788 232.22881 
L 391.207455 230.256428 
L 392.242122 231.766867 
L 393.276789 226.850501 
L 394.311456 219.802311 
L 395.346123 231.100123 
L 396.38079 231.42791 
L 397.415457 218.553576 
L 398.450125 223.933889 
L 399.484792 231.214163 
L 400.519459 232.605307 
L 401.554126 220.18674 
L 402.588793 229.604848 
L 402.588793 229.604848 
" clip-path="url(#pd9492e5a62)" style="fill: none; stroke: #ff7f0e; stroke-width: 2; stroke-linecap: square"/>
   </g>
   <g id="patch_3">
    <path d="M 57.113446 242.786449 
L 57.113446 26.570347 
" style="fill: none; stroke: #000000; stroke-width: 0.8; stroke-linejoin: miter; stroke-linecap: square"/>
   </g>
   <g id="patch_4">
    <path d="M 419.04 242.786449 
L 419.04 26.570347 
" style="fill: none; stroke: #000000; stroke-width: 0.8; stroke-linejoin: miter; stroke-linecap: square"/>
   </g>
   <g id="patch_5">
    <path d="M 57.113446 242.786449 
L 419.04 242.786449 
" style="fill: none; stroke: #000000; stroke-width: 0.8; stroke-linejoin: miter; stroke-linecap: square"/>
   </g>
   <g id="patch_6">
    <path d="M 57.113446 26.570347 
L 419.04 26.570347 
" style="fill: none; stroke: #000000; stroke-width: 0.8; stroke-linejoin: miter; stroke-linecap: square"/>
   </g>
   <g id="text_16">
    <!-- \textbf{Loss evolution over epochs} -->
    <g transform="translate(164.459971 20.570347) scale(0.11 -0.11)">
     <defs>
      <path id="CMBX12-65" d="M 2893 1408 
C 3040 1408 3078 1408 3078 1568 
C 3078 1758 3034 2232 2739 2529 
C 2470 2796 2112 2880 1741 2880 
C 742 2880 198 2232 198 1433 
C 198 523 858 -64 1824 -64 
C 2790 -64 3078 621 3078 731 
C 3078 829 2982 829 2944 829 
C 2842 829 2835 809 2797 725 
C 2630 302 2208 166 1901 166 
C 973 166 966 1043 966 1408 
L 2893 1408 
z
M 966 1593 
C 979 1852 986 2099 1120 2327 
C 1242 2529 1466 2668 1741 2668 
C 2426 2668 2483 1909 2490 1593 
L 966 1593 
z
" transform="scale(0.015625)"/>
      <path id="CMBX12-76" d="M 3168 2393 
C 3213 2489 3238 2540 3642 2540 
L 3642 2816 
C 3411 2803 3398 2803 3136 2803 
C 2963 2803 2950 2803 2586 2816 
L 2586 2540 
C 2758 2540 2899 2508 2899 2463 
C 2899 2457 2899 2451 2867 2386 
L 2118 737 
L 1293 2540 
L 1645 2540 
L 1645 2816 
C 1498 2803 1050 2803 877 2803 
C 691 2803 320 2803 154 2816 
L 154 2540 
L 557 2540 
L 1683 89 
C 1741 -32 1754 -64 1901 -64 
C 2003 -64 2054 -52 2112 76 
L 3168 2393 
z
" transform="scale(0.015625)"/>
      <path id="CMBX12-6c" d="M 1389 4480 
L 282 4428 
L 282 4153 
C 678 4153 723 4153 723 3901 
L 723 275 
L 282 275 
L 282 0 
C 429 12 883 12 1056 12 
C 1229 12 1683 12 1830 0 
L 1830 275 
L 1389 275 
L 1389 4480 
z
" transform="scale(0.015625)"/>
      <path id="CMBX12-75" d="M 2259 2828 
L 2259 2553 
C 2656 2553 2701 2553 2701 2301 
L 2701 1033 
C 2701 541 2413 147 1914 147 
C 1434 147 1408 308 1408 664 
L 1408 2880 
L 269 2828 
L 269 2553 
C 666 2553 710 2553 710 2301 
L 710 768 
C 710 121 1139 -64 1824 -64 
C 1978 -64 2451 -64 2726 457 
L 2733 457 
L 2733 -64 
L 3840 -26 
L 3840 250 
C 3443 250 3398 250 3398 502 
L 3398 2880 
L 2259 2828 
z
" transform="scale(0.015625)"/>
      <path id="CMBX12-74" d="M 1350 2540 
L 2272 2540 
L 2272 2816 
L 1350 2816 
L 1350 4032 
L 1082 4032 
C 1075 3401 768 2771 134 2751 
L 134 2540 
L 653 2540 
L 653 761 
C 653 83 1178 -64 1638 -64 
C 2112 -64 2394 294 2394 768 
L 2394 1107 
L 2125 1107 
L 2125 774 
C 2125 352 1933 166 1734 166 
C 1350 166 1350 595 1350 742 
L 1350 2540 
z
" transform="scale(0.015625)"/>
      <path id="CMBX12-69" d="M 1427 4019 
C 1427 4281 1216 4480 966 4480 
C 704 4480 506 4262 506 4019 
C 506 3775 704 3558 966 3558 
C 1216 3558 1427 3756 1427 4019 
z
M 301 2828 
L 301 2553 
C 678 2553 723 2553 723 2303 
L 723 275 
L 282 275 
L 282 0 
C 429 12 870 12 1043 12 
C 1222 12 1632 12 1786 0 
L 1786 275 
L 1389 275 
L 1389 2880 
L 301 2828 
z
" transform="scale(0.015625)"/>
      <path id="CMBX12-6e" d="M 3398 1958 
C 3398 2566 3136 2880 2432 2880 
C 1971 2880 1574 2656 1357 2176 
L 1350 2176 
L 1350 2880 
L 269 2828 
L 269 2553 
C 666 2553 710 2553 710 2304 
L 710 275 
L 269 275 
L 269 0 
C 416 12 877 12 1056 12 
C 1235 12 1702 12 1850 0 
L 1850 275 
L 1408 275 
L 1408 1638 
C 1408 2329 1920 2668 2330 2668 
C 2566 2668 2701 2515 2701 2028 
L 2701 275 
L 2259 275 
L 2259 0 
C 2406 12 2867 12 3046 12 
C 3226 12 3693 12 3840 0 
L 3840 275 
L 3398 275 
L 3398 1958 
z
" transform="scale(0.015625)"/>
      <path id="CMBX12-72" d="M 1331 1440 
C 1331 1651 1376 2668 2125 2668 
C 2035 2598 1990 2489 1990 2374 
C 1990 2112 2202 2003 2362 2003 
C 2522 2003 2733 2112 2733 2374 
C 2733 2700 2400 2880 2093 2880 
C 1587 2880 1370 2438 1280 2169 
L 1274 2169 
L 1274 2880 
L 224 2828 
L 224 2553 
C 621 2553 666 2553 666 2304 
L 666 275 
L 224 275 
L 224 0 
C 371 12 851 12 1030 12 
C 1216 12 1734 12 1888 0 
L 1888 275 
L 1331 275 
L 1331 1440 
z
" transform="scale(0.015625)"/>
     </defs>
     <use xlink:href="#CMBX12-4c" transform="scale(0.996264)"/>
     <use xlink:href="#CMBX12-6f" transform="translate(67.340095 0) scale(0.996264)"/>
     <use xlink:href="#CMBX12-73" transform="translate(123.379946 0) scale(0.996264)"/>
     <use xlink:href="#CMBX12-73" transform="translate(167.589283 0) scale(0.996264)"/>
     <use xlink:href="#CMBX12-65" transform="translate(249.158521 0) scale(0.996264)"/>
     <use xlink:href="#CMBX12-76" transform="translate(300.297788 0) scale(0.996264)"/>
     <use xlink:href="#CMBX12-6f" transform="translate(356.337638 0) scale(0.996264)"/>
     <use xlink:href="#CMBX12-6c" transform="translate(412.377489 0) scale(0.996264)"/>
     <use xlink:href="#CMBX12-75" transform="translate(443.510739 0) scale(0.996264)"/>
     <use xlink:href="#CMBX12-74" transform="translate(505.77724 0) scale(0.996264)"/>
     <use xlink:href="#CMBX12-69" transform="translate(549.36379 0) scale(0.996264)"/>
     <use xlink:href="#CMBX12-6f" transform="translate(580.497041 0) scale(0.996264)"/>
     <use xlink:href="#CMBX12-6e" transform="translate(636.536891 0) scale(0.996264)"/>
     <use xlink:href="#CMBX12-6f" transform="translate(736.163292 0) scale(0.996264)"/>
     <use xlink:href="#CMBX12-76" transform="translate(789.089818 0) scale(0.996264)"/>
     <use xlink:href="#CMBX12-65" transform="translate(845.129668 0) scale(0.996264)"/>
     <use xlink:href="#CMBX12-72" transform="translate(896.268935 0) scale(0.996264)"/>
     <use xlink:href="#CMBX12-65" transform="translate(979.406343 0) scale(0.996264)"/>
     <use xlink:href="#CMBX12-70" transform="translate(1030.54561 0) scale(0.996264)"/>
     <use xlink:href="#CMBX12-6f" transform="translate(1095.925436 0) scale(0.996264)"/>
     <use xlink:href="#CMBX12-63" transform="translate(1155.078611 0) scale(0.996264)"/>
     <use xlink:href="#CMBX12-68" transform="translate(1201.778487 0) scale(0.996264)"/>
     <use xlink:href="#CMBX12-73" transform="translate(1264.044988 0) scale(0.996264)"/>
    </g>
   </g>
   <g id="legend_1">
    <g id="patch_7">
     <path d="M 282.122359 69.619538 
L 410.64 69.619538 
Q 413.04 69.619538 413.04 67.219538 
L 413.04 34.970347 
Q 413.04 32.570347 410.64 32.570347 
L 282.122359 32.570347 
Q 279.722359 32.570347 279.722359 34.970347 
L 279.722359 67.219538 
Q 279.722359 69.619538 282.122359 69.619538 
z
" style="fill: #ffffff; opacity: 0.8; stroke: #cccccc; stroke-linejoin: miter"/>
    </g>
    <g id="line2d_61">
     <path d="M 284.522359 41.570347 
L 296.522359 41.570347 
L 308.522359 41.570347 
" style="fill: none; stroke: #1f77b4; stroke-width: 2; stroke-linecap: square"/>
    </g>
    <g id="text_17">
     <!-- \textbf{Train Loss} -->
     <g transform="translate(318.122359 45.770347) scale(0.12 -0.12)">
      <defs>
       <path id="CMBX12-54" d="M 4608 4358 
L 390 4358 
L 262 2833 
L 531 2833 
C 589 3535 640 4083 1562 4083 
L 2080 4083 
L 2080 275 
L 1114 275 
L 1114 0 
C 1626 12 2285 12 2502 12 
C 2893 12 3379 12 3891 0 
L 3891 275 
L 2925 275 
L 2925 4083 
L 3437 4083 
C 4358 4083 4410 3542 4467 2833 
L 4736 2833 
L 4608 4358 
z
" transform="scale(0.015625)"/>
       <path id="CMBX12-61" d="M 2944 1894 
C 2944 2483 2477 2880 1574 2880 
C 1216 2880 461 2847 461 2310 
C 461 2041 666 1926 838 1926 
C 1030 1926 1216 2060 1216 2303 
C 1216 2425 1171 2540 1062 2611 
C 1274 2668 1427 2668 1549 2668 
C 1984 2668 2246 2425 2246 1900 
L 2246 1644 
C 1235 1644 218 1362 218 648 
C 218 64 960 -64 1402 -64 
C 1894 -64 2208 205 2336 488 
C 2336 250 2336 -26 2982 -26 
L 3309 -26 
C 3443 -26 3494 -26 3494 115 
C 3494 250 3437 250 3347 250 
C 2944 256 2944 359 2944 507 
L 2944 1894 
z
M 2246 867 
C 2246 262 1709 147 1504 147 
C 1190 147 928 359 928 655 
C 928 1240 1619 1439 2246 1472 
L 2246 867 
z
" transform="scale(0.015625)"/>
      </defs>
      <use xlink:href="#CMBX12-54" transform="scale(0.996264)"/>
      <use xlink:href="#CMBX12-72" transform="translate(68.608395 0) scale(0.996264)"/>
      <use xlink:href="#CMBX12-61" transform="translate(114.385903 0) scale(0.996264)"/>
      <use xlink:href="#CMBX12-69" transform="translate(168.869091 0) scale(0.996264)"/>
      <use xlink:href="#CMBX12-6e" transform="translate(200.002341 0) scale(0.996264)"/>
      <use xlink:href="#CMBX12-4c" transform="translate(299.628742 0) scale(0.996264)"/>
      <use xlink:href="#CMBX12-6f" transform="translate(366.968838 0) scale(0.996264)"/>
      <use xlink:href="#CMBX12-73" transform="translate(423.008688 0) scale(0.996264)"/>
      <use xlink:href="#CMBX12-73" transform="translate(467.218025 0) scale(0.996264)"/>
     </g>
    </g>
    <g id="line2d_62">
     <path d="M 284.522359 58.294942 
L 296.522359 58.294942 
L 308.522359 58.294942 
" style="fill: none; stroke: #ff7f0e; stroke-width: 2; stroke-linecap: square"/>
    </g>
    <g id="text_18">
     <!-- \textbf{Validation Loss} -->
     <g transform="translate(318.122359 62.494942) scale(0.12 -0.12)">
      <defs>
       <path id="CMBX12-56" d="M 4634 3992 
C 4672 4075 4698 4140 5171 4140 
L 5280 4140 
L 5280 4416 
C 5082 4403 4621 4403 4570 4403 
C 4390 4403 3936 4403 3789 4416 
L 3789 4140 
C 3930 4140 4166 4140 4346 4069 
L 4314 3979 
L 3002 960 
L 1619 4140 
L 2214 4140 
L 2214 4416 
C 2010 4403 1395 4403 1152 4403 
C 947 4403 314 4403 154 4416 
L 154 4140 
L 730 4140 
L 2496 70 
C 2554 -58 2611 -64 2714 -64 
C 2816 -64 2880 -64 2938 70 
L 4634 3992 
z
" transform="scale(0.015625)"/>
       <path id="CMBX12-64" d="M 2221 4428 
L 2221 4153 
C 2618 4153 2662 4153 2662 3896 
L 2662 2571 
C 2522 2694 2240 2880 1798 2880 
C 890 2880 243 2313 243 1408 
C 243 483 877 -64 1728 -64 
C 2080 -64 2381 57 2630 270 
L 2630 -64 
L 3770 -26 
L 3770 250 
C 3373 250 3328 250 3328 502 
L 3328 4480 
L 2221 4428 
z
M 2630 625 
C 2362 231 2035 147 1805 147 
C 1011 147 1011 968 1011 1395 
C 1011 1699 1011 2022 1152 2268 
C 1350 2630 1728 2668 1875 2668 
C 2138 2668 2419 2552 2630 2268 
L 2630 625 
z
" transform="scale(0.015625)"/>
      </defs>
      <use xlink:href="#CMBX12-56" transform="scale(0.996264)"/>
      <use xlink:href="#CMBX12-61" transform="translate(75.29642 0) scale(0.996264)"/>
      <use xlink:href="#CMBX12-6c" transform="translate(129.779608 0) scale(0.996264)"/>
      <use xlink:href="#CMBX12-69" transform="translate(160.912858 0) scale(0.996264)"/>
      <use xlink:href="#CMBX12-64" transform="translate(192.046108 0) scale(0.996264)"/>
      <use xlink:href="#CMBX12-61" transform="translate(254.312609 0) scale(0.996264)"/>
      <use xlink:href="#CMBX12-74" transform="translate(308.795797 0) scale(0.996264)"/>
      <use xlink:href="#CMBX12-69" transform="translate(352.382347 0) scale(0.996264)"/>
      <use xlink:href="#CMBX12-6f" transform="translate(383.515598 0) scale(0.996264)"/>
      <use xlink:href="#CMBX12-6e" transform="translate(439.555448 0) scale(0.996264)"/>
      <use xlink:href="#CMBX12-4c" transform="translate(539.181849 0) scale(0.996264)"/>
      <use xlink:href="#CMBX12-6f" transform="translate(606.521945 0) scale(0.996264)"/>
      <use xlink:href="#CMBX12-73" transform="translate(662.561795 0) scale(0.996264)"/>
      <use xlink:href="#CMBX12-73" transform="translate(706.771132 0) scale(0.996264)"/>
     </g>
    </g>
   </g>
  </g>
 </g>
 <defs>
  <clipPath id="pd9492e5a62">
   <rect x="57.113446" y="26.570347" width="361.926554" height="216.216102"/>
  </clipPath>
 </defs>
</svg>
