<?xml version="1.0" encoding="utf-8" standalone="no"?>
<!DOCTYPE svg PUBLIC "-//W3C//DTD SVG 1.1//EN"
  "http://www.w3.org/Graphics/SVG/1.1/DTD/svg11.dtd">
<svg xmlns:xlink="http://www.w3.org/1999/xlink" width="576pt" height="360pt" viewBox="0 0 576 360" xmlns="http://www.w3.org/2000/svg" version="1.1">
 <metadata>
  <rdf:RDF xmlns:dc="http://purl.org/dc/elements/1.1/" xmlns:cc="http://creativecommons.org/ns#" xmlns:rdf="http://www.w3.org/1999/02/22-rdf-syntax-ns#">
   <cc:Work>
    <dc:type rdf:resource="http://purl.org/dc/dcmitype/StillImage"/>
    <dc:date>2025-05-07T11:35:02.815847</dc:date>
    <dc:format>image/svg+xml</dc:format>
    <dc:creator>
     <cc:Agent>
      <dc:title>Matplotlib v3.10.1, https://matplotlib.org/</dc:title>
     </cc:Agent>
    </dc:creator>
   </cc:Work>
  </rdf:RDF>
 </metadata>
 <defs>
  <style type="text/css">*{stroke-linejoin: round; stroke-linecap: butt}</style>
 </defs>
 <g id="figure_1">
  <g id="patch_1">
   <path d="M 0 360 
L 576 360 
L 576 0 
L 0 0 
z
" style="fill: #ffffff"/>
  </g>
  <g id="axes_1">
   <g id="patch_2">
    <path d="M 55.880346 318.04 
L 565.2 318.04 
L 565.2 27.6 
L 55.880346 27.6 
z
" style="fill: #ffffff"/>
   </g>
   <g id="matplotlib.axis_1">
    <g id="xtick_1">
     <g id="line2d_1">
      <path d="M 79.031239 318.04 
L 79.031239 27.6 
" clip-path="url(#p8b4fa19400)" style="fill: none; stroke: #b0b0b0; stroke-width: 0.8; stroke-linecap: square"/>
     </g>
     <g id="line2d_2">
      <defs>
       <path id="mbb20179db9" d="M 0 0 
L 0 3.5 
" style="stroke: #000000; stroke-width: 0.8"/>
      </defs>
      <g>
       <use xlink:href="#mbb20179db9" x="79.031239" y="318.04" style="stroke: #000000; stroke-width: 0.8"/>
      </g>
     </g>
     <g id="text_1">
      <!-- 0 -->
      <g transform="translate(75.849989 332.638438) scale(0.1 -0.1)">
       <defs>
        <path id="DejaVuSans-30" d="M 2034 4250 
Q 1547 4250 1301 3770 
Q 1056 3291 1056 2328 
Q 1056 1369 1301 889 
Q 1547 409 2034 409 
Q 2525 409 2770 889 
Q 3016 1369 3016 2328 
Q 3016 3291 2770 3770 
Q 2525 4250 2034 4250 
z
M 2034 4750 
Q 2819 4750 3233 4129 
Q 3647 3509 3647 2328 
Q 3647 1150 3233 529 
Q 2819 -91 2034 -91 
Q 1250 -91 836 529 
Q 422 1150 422 2328 
Q 422 3509 836 4129 
Q 1250 4750 2034 4750 
z
" transform="scale(0.015625)"/>
       </defs>
       <use xlink:href="#DejaVuSans-30"/>
      </g>
     </g>
    </g>
    <g id="xtick_2">
     <g id="line2d_3">
      <path d="M 138.202852 318.04 
L 138.202852 27.6 
" clip-path="url(#p8b4fa19400)" style="fill: none; stroke: #b0b0b0; stroke-width: 0.8; stroke-linecap: square"/>
     </g>
     <g id="line2d_4">
      <g>
       <use xlink:href="#mbb20179db9" x="138.202852" y="318.04" style="stroke: #000000; stroke-width: 0.8"/>
      </g>
     </g>
     <g id="text_2">
      <!-- 40 -->
      <g transform="translate(131.840352 332.638438) scale(0.1 -0.1)">
       <defs>
        <path id="DejaVuSans-34" d="M 2419 4116 
L 825 1625 
L 2419 1625 
L 2419 4116 
z
M 2253 4666 
L 3047 4666 
L 3047 1625 
L 3713 1625 
L 3713 1100 
L 3047 1100 
L 3047 0 
L 2419 0 
L 2419 1100 
L 313 1100 
L 313 1709 
L 2253 4666 
z
" transform="scale(0.015625)"/>
       </defs>
       <use xlink:href="#DejaVuSans-34"/>
       <use xlink:href="#DejaVuSans-30" transform="translate(63.623047 0)"/>
      </g>
     </g>
    </g>
    <g id="xtick_3">
     <g id="line2d_5">
      <path d="M 197.374464 318.04 
L 197.374464 27.6 
" clip-path="url(#p8b4fa19400)" style="fill: none; stroke: #b0b0b0; stroke-width: 0.8; stroke-linecap: square"/>
     </g>
     <g id="line2d_6">
      <g>
       <use xlink:href="#mbb20179db9" x="197.374464" y="318.04" style="stroke: #000000; stroke-width: 0.8"/>
      </g>
     </g>
     <g id="text_3">
      <!-- 80 -->
      <g transform="translate(191.011964 332.638438) scale(0.1 -0.1)">
       <defs>
        <path id="DejaVuSans-38" d="M 2034 2216 
Q 1584 2216 1326 1975 
Q 1069 1734 1069 1313 
Q 1069 891 1326 650 
Q 1584 409 2034 409 
Q 2484 409 2743 651 
Q 3003 894 3003 1313 
Q 3003 1734 2745 1975 
Q 2488 2216 2034 2216 
z
M 1403 2484 
Q 997 2584 770 2862 
Q 544 3141 544 3541 
Q 544 4100 942 4425 
Q 1341 4750 2034 4750 
Q 2731 4750 3128 4425 
Q 3525 4100 3525 3541 
Q 3525 3141 3298 2862 
Q 3072 2584 2669 2484 
Q 3125 2378 3379 2068 
Q 3634 1759 3634 1313 
Q 3634 634 3220 271 
Q 2806 -91 2034 -91 
Q 1263 -91 848 271 
Q 434 634 434 1313 
Q 434 1759 690 2068 
Q 947 2378 1403 2484 
z
M 1172 3481 
Q 1172 3119 1398 2916 
Q 1625 2713 2034 2713 
Q 2441 2713 2670 2916 
Q 2900 3119 2900 3481 
Q 2900 3844 2670 4047 
Q 2441 4250 2034 4250 
Q 1625 4250 1398 4047 
Q 1172 3844 1172 3481 
z
" transform="scale(0.015625)"/>
       </defs>
       <use xlink:href="#DejaVuSans-38"/>
       <use xlink:href="#DejaVuSans-30" transform="translate(63.623047 0)"/>
      </g>
     </g>
    </g>
    <g id="xtick_4">
     <g id="line2d_7">
      <path d="M 256.546077 318.04 
L 256.546077 27.6 
" clip-path="url(#p8b4fa19400)" style="fill: none; stroke: #b0b0b0; stroke-width: 0.8; stroke-linecap: square"/>
     </g>
     <g id="line2d_8">
      <g>
       <use xlink:href="#mbb20179db9" x="256.546077" y="318.04" style="stroke: #000000; stroke-width: 0.8"/>
      </g>
     </g>
     <g id="text_4">
      <!-- 120 -->
      <g transform="translate(247.002327 332.638438) scale(0.1 -0.1)">
       <defs>
        <path id="DejaVuSans-31" d="M 794 531 
L 1825 531 
L 1825 4091 
L 703 3866 
L 703 4441 
L 1819 4666 
L 2450 4666 
L 2450 531 
L 3481 531 
L 3481 0 
L 794 0 
L 794 531 
z
" transform="scale(0.015625)"/>
        <path id="DejaVuSans-32" d="M 1228 531 
L 3431 531 
L 3431 0 
L 469 0 
L 469 531 
Q 828 903 1448 1529 
Q 2069 2156 2228 2338 
Q 2531 2678 2651 2914 
Q 2772 3150 2772 3378 
Q 2772 3750 2511 3984 
Q 2250 4219 1831 4219 
Q 1534 4219 1204 4116 
Q 875 4013 500 3803 
L 500 4441 
Q 881 4594 1212 4672 
Q 1544 4750 1819 4750 
Q 2544 4750 2975 4387 
Q 3406 4025 3406 3419 
Q 3406 3131 3298 2873 
Q 3191 2616 2906 2266 
Q 2828 2175 2409 1742 
Q 1991 1309 1228 531 
z
" transform="scale(0.015625)"/>
       </defs>
       <use xlink:href="#DejaVuSans-31"/>
       <use xlink:href="#DejaVuSans-32" transform="translate(63.623047 0)"/>
       <use xlink:href="#DejaVuSans-30" transform="translate(127.246094 0)"/>
      </g>
     </g>
    </g>
    <g id="xtick_5">
     <g id="line2d_9">
      <path d="M 315.717689 318.04 
L 315.717689 27.6 
" clip-path="url(#p8b4fa19400)" style="fill: none; stroke: #b0b0b0; stroke-width: 0.8; stroke-linecap: square"/>
     </g>
     <g id="line2d_10">
      <g>
       <use xlink:href="#mbb20179db9" x="315.717689" y="318.04" style="stroke: #000000; stroke-width: 0.8"/>
      </g>
     </g>
     <g id="text_5">
      <!-- 160 -->
      <g transform="translate(306.173939 332.638438) scale(0.1 -0.1)">
       <defs>
        <path id="DejaVuSans-36" d="M 2113 2584 
Q 1688 2584 1439 2293 
Q 1191 2003 1191 1497 
Q 1191 994 1439 701 
Q 1688 409 2113 409 
Q 2538 409 2786 701 
Q 3034 994 3034 1497 
Q 3034 2003 2786 2293 
Q 2538 2584 2113 2584 
z
M 3366 4563 
L 3366 3988 
Q 3128 4100 2886 4159 
Q 2644 4219 2406 4219 
Q 1781 4219 1451 3797 
Q 1122 3375 1075 2522 
Q 1259 2794 1537 2939 
Q 1816 3084 2150 3084 
Q 2853 3084 3261 2657 
Q 3669 2231 3669 1497 
Q 3669 778 3244 343 
Q 2819 -91 2113 -91 
Q 1303 -91 875 529 
Q 447 1150 447 2328 
Q 447 3434 972 4092 
Q 1497 4750 2381 4750 
Q 2619 4750 2861 4703 
Q 3103 4656 3366 4563 
z
" transform="scale(0.015625)"/>
       </defs>
       <use xlink:href="#DejaVuSans-31"/>
       <use xlink:href="#DejaVuSans-36" transform="translate(63.623047 0)"/>
       <use xlink:href="#DejaVuSans-30" transform="translate(127.246094 0)"/>
      </g>
     </g>
    </g>
    <g id="xtick_6">
     <g id="line2d_11">
      <path d="M 374.889302 318.04 
L 374.889302 27.6 
" clip-path="url(#p8b4fa19400)" style="fill: none; stroke: #b0b0b0; stroke-width: 0.8; stroke-linecap: square"/>
     </g>
     <g id="line2d_12">
      <g>
       <use xlink:href="#mbb20179db9" x="374.889302" y="318.04" style="stroke: #000000; stroke-width: 0.8"/>
      </g>
     </g>
     <g id="text_6">
      <!-- 200 -->
      <g transform="translate(365.345552 332.638438) scale(0.1 -0.1)">
       <use xlink:href="#DejaVuSans-32"/>
       <use xlink:href="#DejaVuSans-30" transform="translate(63.623047 0)"/>
       <use xlink:href="#DejaVuSans-30" transform="translate(127.246094 0)"/>
      </g>
     </g>
    </g>
    <g id="xtick_7">
     <g id="line2d_13">
      <path d="M 434.060914 318.04 
L 434.060914 27.6 
" clip-path="url(#p8b4fa19400)" style="fill: none; stroke: #b0b0b0; stroke-width: 0.8; stroke-linecap: square"/>
     </g>
     <g id="line2d_14">
      <g>
       <use xlink:href="#mbb20179db9" x="434.060914" y="318.04" style="stroke: #000000; stroke-width: 0.8"/>
      </g>
     </g>
     <g id="text_7">
      <!-- 240 -->
      <g transform="translate(424.517164 332.638438) scale(0.1 -0.1)">
       <use xlink:href="#DejaVuSans-32"/>
       <use xlink:href="#DejaVuSans-34" transform="translate(63.623047 0)"/>
       <use xlink:href="#DejaVuSans-30" transform="translate(127.246094 0)"/>
      </g>
     </g>
    </g>
    <g id="xtick_8">
     <g id="line2d_15">
      <path d="M 493.232526 318.04 
L 493.232526 27.6 
" clip-path="url(#p8b4fa19400)" style="fill: none; stroke: #b0b0b0; stroke-width: 0.8; stroke-linecap: square"/>
     </g>
     <g id="line2d_16">
      <g>
       <use xlink:href="#mbb20179db9" x="493.232526" y="318.04" style="stroke: #000000; stroke-width: 0.8"/>
      </g>
     </g>
     <g id="text_8">
      <!-- 280 -->
      <g transform="translate(483.688776 332.638438) scale(0.1 -0.1)">
       <use xlink:href="#DejaVuSans-32"/>
       <use xlink:href="#DejaVuSans-38" transform="translate(63.623047 0)"/>
       <use xlink:href="#DejaVuSans-30" transform="translate(127.246094 0)"/>
      </g>
     </g>
    </g>
    <g id="xtick_9">
     <g id="line2d_17">
      <path d="M 552.404139 318.04 
L 552.404139 27.6 
" clip-path="url(#p8b4fa19400)" style="fill: none; stroke: #b0b0b0; stroke-width: 0.8; stroke-linecap: square"/>
     </g>
     <g id="line2d_18">
      <g>
       <use xlink:href="#mbb20179db9" x="552.404139" y="318.04" style="stroke: #000000; stroke-width: 0.8"/>
      </g>
     </g>
     <g id="text_9">
      <!-- 320 -->
      <g transform="translate(542.860389 332.638438) scale(0.1 -0.1)">
       <defs>
        <path id="DejaVuSans-33" d="M 2597 2516 
Q 3050 2419 3304 2112 
Q 3559 1806 3559 1356 
Q 3559 666 3084 287 
Q 2609 -91 1734 -91 
Q 1441 -91 1130 -33 
Q 819 25 488 141 
L 488 750 
Q 750 597 1062 519 
Q 1375 441 1716 441 
Q 2309 441 2620 675 
Q 2931 909 2931 1356 
Q 2931 1769 2642 2001 
Q 2353 2234 1838 2234 
L 1294 2234 
L 1294 2753 
L 1863 2753 
Q 2328 2753 2575 2939 
Q 2822 3125 2822 3475 
Q 2822 3834 2567 4026 
Q 2313 4219 1838 4219 
Q 1578 4219 1281 4162 
Q 984 4106 628 3988 
L 628 4550 
Q 988 4650 1302 4700 
Q 1616 4750 1894 4750 
Q 2613 4750 3031 4423 
Q 3450 4097 3450 3541 
Q 3450 3153 3228 2886 
Q 3006 2619 2597 2516 
z
" transform="scale(0.015625)"/>
       </defs>
       <use xlink:href="#DejaVuSans-33"/>
       <use xlink:href="#DejaVuSans-32" transform="translate(63.623047 0)"/>
       <use xlink:href="#DejaVuSans-30" transform="translate(127.246094 0)"/>
      </g>
     </g>
    </g>
    <g id="text_10">
     <!-- Epoch -->
     <g transform="translate(295.229236 346.316563) scale(0.1 -0.1)">
      <defs>
       <path id="DejaVuSans-45" d="M 628 4666 
L 3578 4666 
L 3578 4134 
L 1259 4134 
L 1259 2753 
L 3481 2753 
L 3481 2222 
L 1259 2222 
L 1259 531 
L 3634 531 
L 3634 0 
L 628 0 
L 628 4666 
z
" transform="scale(0.015625)"/>
       <path id="DejaVuSans-70" d="M 1159 525 
L 1159 -1331 
L 581 -1331 
L 581 3500 
L 1159 3500 
L 1159 2969 
Q 1341 3281 1617 3432 
Q 1894 3584 2278 3584 
Q 2916 3584 3314 3078 
Q 3713 2572 3713 1747 
Q 3713 922 3314 415 
Q 2916 -91 2278 -91 
Q 1894 -91 1617 61 
Q 1341 213 1159 525 
z
M 3116 1747 
Q 3116 2381 2855 2742 
Q 2594 3103 2138 3103 
Q 1681 3103 1420 2742 
Q 1159 2381 1159 1747 
Q 1159 1113 1420 752 
Q 1681 391 2138 391 
Q 2594 391 2855 752 
Q 3116 1113 3116 1747 
z
" transform="scale(0.015625)"/>
       <path id="DejaVuSans-6f" d="M 1959 3097 
Q 1497 3097 1228 2736 
Q 959 2375 959 1747 
Q 959 1119 1226 758 
Q 1494 397 1959 397 
Q 2419 397 2687 759 
Q 2956 1122 2956 1747 
Q 2956 2369 2687 2733 
Q 2419 3097 1959 3097 
z
M 1959 3584 
Q 2709 3584 3137 3096 
Q 3566 2609 3566 1747 
Q 3566 888 3137 398 
Q 2709 -91 1959 -91 
Q 1206 -91 779 398 
Q 353 888 353 1747 
Q 353 2609 779 3096 
Q 1206 3584 1959 3584 
z
" transform="scale(0.015625)"/>
       <path id="DejaVuSans-63" d="M 3122 3366 
L 3122 2828 
Q 2878 2963 2633 3030 
Q 2388 3097 2138 3097 
Q 1578 3097 1268 2742 
Q 959 2388 959 1747 
Q 959 1106 1268 751 
Q 1578 397 2138 397 
Q 2388 397 2633 464 
Q 2878 531 3122 666 
L 3122 134 
Q 2881 22 2623 -34 
Q 2366 -91 2075 -91 
Q 1284 -91 818 406 
Q 353 903 353 1747 
Q 353 2603 823 3093 
Q 1294 3584 2113 3584 
Q 2378 3584 2631 3529 
Q 2884 3475 3122 3366 
z
" transform="scale(0.015625)"/>
       <path id="DejaVuSans-68" d="M 3513 2113 
L 3513 0 
L 2938 0 
L 2938 2094 
Q 2938 2591 2744 2837 
Q 2550 3084 2163 3084 
Q 1697 3084 1428 2787 
Q 1159 2491 1159 1978 
L 1159 0 
L 581 0 
L 581 4863 
L 1159 4863 
L 1159 2956 
Q 1366 3272 1645 3428 
Q 1925 3584 2291 3584 
Q 2894 3584 3203 3211 
Q 3513 2838 3513 2113 
z
" transform="scale(0.015625)"/>
      </defs>
      <use xlink:href="#DejaVuSans-45"/>
      <use xlink:href="#DejaVuSans-70" transform="translate(63.183594 0)"/>
      <use xlink:href="#DejaVuSans-6f" transform="translate(126.660156 0)"/>
      <use xlink:href="#DejaVuSans-63" transform="translate(187.841797 0)"/>
      <use xlink:href="#DejaVuSans-68" transform="translate(242.822266 0)"/>
     </g>
    </g>
   </g>
   <g id="matplotlib.axis_2">
    <g id="ytick_1">
     <g id="line2d_19">
      <path d="M 55.880346 248.302915 
L 565.2 248.302915 
" clip-path="url(#p8b4fa19400)" style="fill: none; stroke: #b0b0b0; stroke-width: 0.8; stroke-linecap: square"/>
     </g>
     <g id="line2d_20">
      <defs>
       <path id="mf5eb3bab73" d="M 0 0 
L -3.5 0 
" style="stroke: #000000; stroke-width: 0.8"/>
      </defs>
      <g>
       <use xlink:href="#mf5eb3bab73" x="55.880346" y="248.302915" style="stroke: #000000; stroke-width: 0.8"/>
      </g>
     </g>
     <g id="text_11">
      <!-- $\mathdefault{10^{-3}}$ -->
      <g transform="translate(25.380346 252.102134) scale(0.1 -0.1)">
       <defs>
        <path id="DejaVuSans-2212" d="M 678 2272 
L 4684 2272 
L 4684 1741 
L 678 1741 
L 678 2272 
z
" transform="scale(0.015625)"/>
       </defs>
       <use xlink:href="#DejaVuSans-31" transform="translate(0 0.765625)"/>
       <use xlink:href="#DejaVuSans-30" transform="translate(63.623047 0.765625)"/>
       <use xlink:href="#DejaVuSans-2212" transform="translate(128.203125 39.046875) scale(0.7)"/>
       <use xlink:href="#DejaVuSans-33" transform="translate(186.855469 39.046875) scale(0.7)"/>
      </g>
     </g>
    </g>
    <g id="ytick_2">
     <g id="line2d_21">
      <path d="M 55.880346 172.68117 
L 565.2 172.68117 
" clip-path="url(#p8b4fa19400)" style="fill: none; stroke: #b0b0b0; stroke-width: 0.8; stroke-linecap: square"/>
     </g>
     <g id="line2d_22">
      <g>
       <use xlink:href="#mf5eb3bab73" x="55.880346" y="172.68117" style="stroke: #000000; stroke-width: 0.8"/>
      </g>
     </g>
     <g id="text_12">
      <!-- $\mathdefault{10^{-2}}$ -->
      <g transform="translate(25.380346 176.480389) scale(0.1 -0.1)">
       <use xlink:href="#DejaVuSans-31" transform="translate(0 0.765625)"/>
       <use xlink:href="#DejaVuSans-30" transform="translate(63.623047 0.765625)"/>
       <use xlink:href="#DejaVuSans-2212" transform="translate(128.203125 39.046875) scale(0.7)"/>
       <use xlink:href="#DejaVuSans-32" transform="translate(186.855469 39.046875) scale(0.7)"/>
      </g>
     </g>
    </g>
    <g id="ytick_3">
     <g id="line2d_23">
      <path d="M 55.880346 97.059425 
L 565.2 97.059425 
" clip-path="url(#p8b4fa19400)" style="fill: none; stroke: #b0b0b0; stroke-width: 0.8; stroke-linecap: square"/>
     </g>
     <g id="line2d_24">
      <g>
       <use xlink:href="#mf5eb3bab73" x="55.880346" y="97.059425" style="stroke: #000000; stroke-width: 0.8"/>
      </g>
     </g>
     <g id="text_13">
      <!-- $\mathdefault{10^{-1}}$ -->
      <g transform="translate(25.380346 100.858644) scale(0.1 -0.1)">
       <use xlink:href="#DejaVuSans-31" transform="translate(0 0.684375)"/>
       <use xlink:href="#DejaVuSans-30" transform="translate(63.623047 0.684375)"/>
       <use xlink:href="#DejaVuSans-2212" transform="translate(128.203125 38.965625) scale(0.7)"/>
       <use xlink:href="#DejaVuSans-31" transform="translate(186.855469 38.965625) scale(0.7)"/>
      </g>
     </g>
    </g>
    <g id="ytick_4">
     <g id="line2d_25">
      <defs>
       <path id="m7aca707dc2" d="M 0 0 
L -2 0 
" style="stroke: #000000; stroke-width: 0.6"/>
      </defs>
      <g>
       <use xlink:href="#m7aca707dc2" x="55.880346" y="301.160246" style="stroke: #000000; stroke-width: 0.6"/>
      </g>
     </g>
    </g>
    <g id="ytick_5">
     <g id="line2d_26">
      <g>
       <use xlink:href="#m7aca707dc2" x="55.880346" y="287.843918" style="stroke: #000000; stroke-width: 0.6"/>
      </g>
     </g>
    </g>
    <g id="ytick_6">
     <g id="line2d_27">
      <g>
       <use xlink:href="#m7aca707dc2" x="55.880346" y="278.395833" style="stroke: #000000; stroke-width: 0.6"/>
      </g>
     </g>
    </g>
    <g id="ytick_7">
     <g id="line2d_28">
      <g>
       <use xlink:href="#m7aca707dc2" x="55.880346" y="271.067328" style="stroke: #000000; stroke-width: 0.6"/>
      </g>
     </g>
    </g>
    <g id="ytick_8">
     <g id="line2d_29">
      <g>
       <use xlink:href="#m7aca707dc2" x="55.880346" y="265.079504" style="stroke: #000000; stroke-width: 0.6"/>
      </g>
     </g>
    </g>
    <g id="ytick_9">
     <g id="line2d_30">
      <g>
       <use xlink:href="#m7aca707dc2" x="55.880346" y="260.016871" style="stroke: #000000; stroke-width: 0.6"/>
      </g>
     </g>
    </g>
    <g id="ytick_10">
     <g id="line2d_31">
      <g>
       <use xlink:href="#m7aca707dc2" x="55.880346" y="255.631419" style="stroke: #000000; stroke-width: 0.6"/>
      </g>
     </g>
    </g>
    <g id="ytick_11">
     <g id="line2d_32">
      <g>
       <use xlink:href="#m7aca707dc2" x="55.880346" y="251.763176" style="stroke: #000000; stroke-width: 0.6"/>
      </g>
     </g>
    </g>
    <g id="ytick_12">
     <g id="line2d_33">
      <g>
       <use xlink:href="#m7aca707dc2" x="55.880346" y="225.538501" style="stroke: #000000; stroke-width: 0.6"/>
      </g>
     </g>
    </g>
    <g id="ytick_13">
     <g id="line2d_34">
      <g>
       <use xlink:href="#m7aca707dc2" x="55.880346" y="212.222173" style="stroke: #000000; stroke-width: 0.6"/>
      </g>
     </g>
    </g>
    <g id="ytick_14">
     <g id="line2d_35">
      <g>
       <use xlink:href="#m7aca707dc2" x="55.880346" y="202.774088" style="stroke: #000000; stroke-width: 0.6"/>
      </g>
     </g>
    </g>
    <g id="ytick_15">
     <g id="line2d_36">
      <g>
       <use xlink:href="#m7aca707dc2" x="55.880346" y="195.445584" style="stroke: #000000; stroke-width: 0.6"/>
      </g>
     </g>
    </g>
    <g id="ytick_16">
     <g id="line2d_37">
      <g>
       <use xlink:href="#m7aca707dc2" x="55.880346" y="189.45776" style="stroke: #000000; stroke-width: 0.6"/>
      </g>
     </g>
    </g>
    <g id="ytick_17">
     <g id="line2d_38">
      <g>
       <use xlink:href="#m7aca707dc2" x="55.880346" y="184.395127" style="stroke: #000000; stroke-width: 0.6"/>
      </g>
     </g>
    </g>
    <g id="ytick_18">
     <g id="line2d_39">
      <g>
       <use xlink:href="#m7aca707dc2" x="55.880346" y="180.009674" style="stroke: #000000; stroke-width: 0.6"/>
      </g>
     </g>
    </g>
    <g id="ytick_19">
     <g id="line2d_40">
      <g>
       <use xlink:href="#m7aca707dc2" x="55.880346" y="176.141431" style="stroke: #000000; stroke-width: 0.6"/>
      </g>
     </g>
    </g>
    <g id="ytick_20">
     <g id="line2d_41">
      <g>
       <use xlink:href="#m7aca707dc2" x="55.880346" y="149.916757" style="stroke: #000000; stroke-width: 0.6"/>
      </g>
     </g>
    </g>
    <g id="ytick_21">
     <g id="line2d_42">
      <g>
       <use xlink:href="#m7aca707dc2" x="55.880346" y="136.600428" style="stroke: #000000; stroke-width: 0.6"/>
      </g>
     </g>
    </g>
    <g id="ytick_22">
     <g id="line2d_43">
      <g>
       <use xlink:href="#m7aca707dc2" x="55.880346" y="127.152343" style="stroke: #000000; stroke-width: 0.6"/>
      </g>
     </g>
    </g>
    <g id="ytick_23">
     <g id="line2d_44">
      <g>
       <use xlink:href="#m7aca707dc2" x="55.880346" y="119.823839" style="stroke: #000000; stroke-width: 0.6"/>
      </g>
     </g>
    </g>
    <g id="ytick_24">
     <g id="line2d_45">
      <g>
       <use xlink:href="#m7aca707dc2" x="55.880346" y="113.836015" style="stroke: #000000; stroke-width: 0.6"/>
      </g>
     </g>
    </g>
    <g id="ytick_25">
     <g id="line2d_46">
      <g>
       <use xlink:href="#m7aca707dc2" x="55.880346" y="108.773382" style="stroke: #000000; stroke-width: 0.6"/>
      </g>
     </g>
    </g>
    <g id="ytick_26">
     <g id="line2d_47">
      <g>
       <use xlink:href="#m7aca707dc2" x="55.880346" y="104.38793" style="stroke: #000000; stroke-width: 0.6"/>
      </g>
     </g>
    </g>
    <g id="ytick_27">
     <g id="line2d_48">
      <g>
       <use xlink:href="#m7aca707dc2" x="55.880346" y="100.519687" style="stroke: #000000; stroke-width: 0.6"/>
      </g>
     </g>
    </g>
    <g id="ytick_28">
     <g id="line2d_49">
      <g>
       <use xlink:href="#m7aca707dc2" x="55.880346" y="74.295012" style="stroke: #000000; stroke-width: 0.6"/>
      </g>
     </g>
    </g>
    <g id="ytick_29">
     <g id="line2d_50">
      <g>
       <use xlink:href="#m7aca707dc2" x="55.880346" y="60.978684" style="stroke: #000000; stroke-width: 0.6"/>
      </g>
     </g>
    </g>
    <g id="ytick_30">
     <g id="line2d_51">
      <g>
       <use xlink:href="#m7aca707dc2" x="55.880346" y="51.530598" style="stroke: #000000; stroke-width: 0.6"/>
      </g>
     </g>
    </g>
    <g id="ytick_31">
     <g id="line2d_52">
      <g>
       <use xlink:href="#m7aca707dc2" x="55.880346" y="44.202094" style="stroke: #000000; stroke-width: 0.6"/>
      </g>
     </g>
    </g>
    <g id="ytick_32">
     <g id="line2d_53">
      <g>
       <use xlink:href="#m7aca707dc2" x="55.880346" y="38.21427" style="stroke: #000000; stroke-width: 0.6"/>
      </g>
     </g>
    </g>
    <g id="ytick_33">
     <g id="line2d_54">
      <g>
       <use xlink:href="#m7aca707dc2" x="55.880346" y="33.151637" style="stroke: #000000; stroke-width: 0.6"/>
      </g>
     </g>
    </g>
    <g id="ytick_34">
     <g id="line2d_55">
      <g>
       <use xlink:href="#m7aca707dc2" x="55.880346" y="28.766185" style="stroke: #000000; stroke-width: 0.6"/>
      </g>
     </g>
    </g>
    <g id="text_14">
     <!-- MSE Loss -->
     <g transform="translate(19.300659 196.023906) rotate(-90) scale(0.1 -0.1)">
      <defs>
       <path id="DejaVuSans-4d" d="M 628 4666 
L 1569 4666 
L 2759 1491 
L 3956 4666 
L 4897 4666 
L 4897 0 
L 4281 0 
L 4281 4097 
L 3078 897 
L 2444 897 
L 1241 4097 
L 1241 0 
L 628 0 
L 628 4666 
z
" transform="scale(0.015625)"/>
       <path id="DejaVuSans-53" d="M 3425 4513 
L 3425 3897 
Q 3066 4069 2747 4153 
Q 2428 4238 2131 4238 
Q 1616 4238 1336 4038 
Q 1056 3838 1056 3469 
Q 1056 3159 1242 3001 
Q 1428 2844 1947 2747 
L 2328 2669 
Q 3034 2534 3370 2195 
Q 3706 1856 3706 1288 
Q 3706 609 3251 259 
Q 2797 -91 1919 -91 
Q 1588 -91 1214 -16 
Q 841 59 441 206 
L 441 856 
Q 825 641 1194 531 
Q 1563 422 1919 422 
Q 2459 422 2753 634 
Q 3047 847 3047 1241 
Q 3047 1584 2836 1778 
Q 2625 1972 2144 2069 
L 1759 2144 
Q 1053 2284 737 2584 
Q 422 2884 422 3419 
Q 422 4038 858 4394 
Q 1294 4750 2059 4750 
Q 2388 4750 2728 4690 
Q 3069 4631 3425 4513 
z
" transform="scale(0.015625)"/>
       <path id="DejaVuSans-20" transform="scale(0.015625)"/>
       <path id="DejaVuSans-4c" d="M 628 4666 
L 1259 4666 
L 1259 531 
L 3531 531 
L 3531 0 
L 628 0 
L 628 4666 
z
" transform="scale(0.015625)"/>
       <path id="DejaVuSans-73" d="M 2834 3397 
L 2834 2853 
Q 2591 2978 2328 3040 
Q 2066 3103 1784 3103 
Q 1356 3103 1142 2972 
Q 928 2841 928 2578 
Q 928 2378 1081 2264 
Q 1234 2150 1697 2047 
L 1894 2003 
Q 2506 1872 2764 1633 
Q 3022 1394 3022 966 
Q 3022 478 2636 193 
Q 2250 -91 1575 -91 
Q 1294 -91 989 -36 
Q 684 19 347 128 
L 347 722 
Q 666 556 975 473 
Q 1284 391 1588 391 
Q 1994 391 2212 530 
Q 2431 669 2431 922 
Q 2431 1156 2273 1281 
Q 2116 1406 1581 1522 
L 1381 1569 
Q 847 1681 609 1914 
Q 372 2147 372 2553 
Q 372 3047 722 3315 
Q 1072 3584 1716 3584 
Q 2034 3584 2315 3537 
Q 2597 3491 2834 3397 
z
" transform="scale(0.015625)"/>
      </defs>
      <use xlink:href="#DejaVuSans-4d"/>
      <use xlink:href="#DejaVuSans-53" transform="translate(86.279297 0)"/>
      <use xlink:href="#DejaVuSans-45" transform="translate(149.755859 0)"/>
      <use xlink:href="#DejaVuSans-20" transform="translate(212.939453 0)"/>
      <use xlink:href="#DejaVuSans-4c" transform="translate(244.726562 0)"/>
      <use xlink:href="#DejaVuSans-6f" transform="translate(298.689453 0)"/>
      <use xlink:href="#DejaVuSans-73" transform="translate(359.871094 0)"/>
      <use xlink:href="#DejaVuSans-73" transform="translate(411.970703 0)"/>
     </g>
    </g>
   </g>
   <g id="line2d_56">
    <path d="M 79.031239 40.801818 
L 80.51053 144.948302 
L 83.46911 175.04074 
L 84.948401 188.190871 
L 86.427691 197.940475 
L 87.906981 205.789095 
L 89.386272 196.68346 
L 90.865562 222.817438 
L 92.344852 226.886393 
L 93.824143 222.185954 
L 95.303433 222.096927 
L 96.782723 242.5239 
L 98.262014 234.181436 
L 101.220594 248.087706 
L 102.699884 160.156638 
L 104.179175 263.058569 
L 105.658465 265.169946 
L 107.137755 266.061161 
L 108.617046 262.207006 
L 110.096336 264.224114 
L 111.575626 260.124604 
L 113.054917 264.330537 
L 114.534207 274.280188 
L 116.013497 269.941214 
L 117.492788 278.568827 
L 118.972078 276.327159 
L 120.451368 275.928586 
L 121.930659 279.73426 
L 123.409949 278.13471 
L 124.889239 280.638379 
L 126.368529 277.522075 
L 127.84782 279.118647 
L 129.32711 285.747783 
L 130.8064 289.72734 
L 132.285691 286.731975 
L 133.764981 285.596779 
L 135.244271 287.056887 
L 136.723562 223.706865 
L 138.202852 281.65986 
L 139.682142 285.140113 
L 141.161433 286.184915 
L 142.640723 288.254699 
L 144.120013 288.098142 
L 145.599303 290.955948 
L 147.078594 290.232651 
L 148.557884 291.909415 
L 150.037174 291.143081 
L 151.516465 291.084104 
L 152.995755 291.181244 
L 154.475045 292.033785 
L 155.954336 291.48909 
L 157.433626 290.65865 
L 158.912916 291.029991 
L 160.392207 292.373408 
L 161.871497 290.149195 
L 163.350787 293.530338 
L 164.830078 293.684825 
L 166.309368 292.380024 
L 167.788658 294.049872 
L 169.267948 293.459891 
L 170.747239 294.175969 
L 172.226529 293.840721 
L 173.705819 293.299927 
L 175.18511 293.189653 
L 178.14369 294.373318 
L 181.102271 294.267822 
L 182.581561 293.483129 
L 184.060852 293.029244 
L 185.540142 293.607595 
L 187.019432 294.839131 
L 188.498722 296.679879 
L 189.978013 296.054861 
L 191.457303 295.575185 
L 192.936593 296.129592 
L 194.415884 296.108368 
L 197.374464 296.941944 
L 198.853755 296.143834 
L 200.333045 295.772556 
L 201.812335 296.847701 
L 203.291626 296.458434 
L 204.770916 296.902679 
L 206.250206 297.047313 
L 207.729497 296.91588 
L 209.208787 296.952765 
L 210.688077 297.392856 
L 212.167367 297.095758 
L 213.646658 297.380081 
L 215.125948 296.862453 
L 216.605238 296.946621 
L 218.084529 297.475412 
L 219.563819 296.891469 
L 221.043109 297.817917 
L 222.5224 298.273143 
L 224.00169 297.817691 
L 225.48098 298.505267 
L 226.960271 298.012337 
L 228.439561 298.009695 
L 229.918851 298.214613 
L 231.398141 297.580468 
L 232.877432 298.08251 
L 234.356722 298.144042 
L 235.836012 297.95145 
L 237.315303 298.415592 
L 238.794593 297.806884 
L 240.273883 298.170762 
L 241.753174 297.336861 
L 243.232464 297.97047 
L 244.711754 298.197727 
L 246.191045 297.561083 
L 247.670335 298.299841 
L 249.149625 297.967897 
L 250.628916 297.764475 
L 252.108206 298.250029 
L 253.587496 297.873785 
L 256.546077 298.279694 
L 258.025367 297.684889 
L 259.504657 298.444248 
L 260.983948 298.261952 
L 262.463238 298.417987 
L 263.942528 298.133875 
L 265.421819 298.317147 
L 266.901109 298.734734 
L 269.85969 298.956114 
L 271.33898 298.539755 
L 272.81827 298.756517 
L 275.776851 298.17284 
L 277.256141 298.735938 
L 278.735431 298.457332 
L 280.214722 298.387764 
L 281.694012 298.150121 
L 283.173302 298.768186 
L 284.652593 299.072388 
L 286.131883 298.663686 
L 287.611173 298.475024 
L 289.090464 299.05054 
L 290.569754 298.865653 
L 297.966205 298.482381 
L 299.445496 298.785423 
L 300.924786 298.971325 
L 302.404076 298.605693 
L 303.883367 298.586371 
L 305.362657 298.783994 
L 306.841947 298.855095 
L 308.321238 298.616828 
L 309.800528 298.903529 
L 311.279818 298.555121 
L 314.238399 299.335324 
L 315.717689 299.217484 
L 317.196979 299.548912 
L 318.67627 299.076084 
L 320.15556 298.884414 
L 321.63485 299.073639 
L 323.114141 298.967199 
L 326.072721 299.156475 
L 327.552012 298.895174 
L 329.031302 299.053927 
L 331.989883 298.917979 
L 333.469173 299.387674 
L 334.948463 299.127482 
L 337.907044 299.31383 
L 339.386334 298.863016 
L 342.344915 299.208726 
L 343.824205 299.332035 
L 345.303495 299.074435 
L 346.782786 299.330109 
L 348.262076 298.795506 
L 349.741366 299.399584 
L 351.220657 298.758214 
L 352.699947 299.074664 
L 355.658528 299.168116 
L 357.137818 299.540078 
L 358.617108 299.542504 
L 360.096398 299.406748 
L 361.575689 299.141089 
L 363.054979 299.198595 
L 364.534269 299.11512 
L 366.01356 299.698173 
L 367.49285 299.456496 
L 368.97214 299.436232 
L 370.451431 299.269377 
L 371.930721 299.38732 
L 373.410011 299.052055 
L 374.889302 299.500113 
L 376.368592 299.227347 
L 377.847882 299.108597 
L 379.327173 299.479054 
L 382.285753 299.020307 
L 383.765043 299.140391 
L 385.244334 299.431109 
L 388.202914 299.39465 
L 389.682205 299.486651 
L 391.161495 299.793713 
L 392.640785 299.602867 
L 394.120076 299.295429 
L 395.599366 299.646654 
L 397.078656 299.412532 
L 398.557947 299.512201 
L 400.037237 299.181308 
L 401.516527 299.565824 
L 404.475108 299.361656 
L 405.954398 299.132818 
L 407.433688 299.418488 
L 408.912979 299.420281 
L 410.392269 299.567578 
L 411.871559 299.272511 
L 413.35085 299.639461 
L 416.30943 299.566828 
L 417.788721 299.396181 
L 419.268011 299.923709 
L 420.747301 299.496377 
L 422.226592 299.869379 
L 423.705882 299.56311 
L 426.664462 299.57123 
L 428.143753 299.471181 
L 429.623043 299.667627 
L 431.102333 299.396132 
L 432.581624 299.640347 
L 434.060914 299.544555 
L 435.540204 299.890183 
L 437.019495 299.447738 
L 438.498785 299.701993 
L 439.978075 299.638285 
L 441.457366 299.255279 
L 442.936656 299.440585 
L 451.812398 299.532869 
L 453.291688 299.284709 
L 454.770978 299.260744 
L 456.250269 299.593471 
L 457.729559 299.444122 
L 462.16743 299.494246 
L 463.64672 299.74698 
L 465.126011 299.510218 
L 466.605301 299.532706 
L 468.084591 299.729197 
L 469.563881 299.627798 
L 474.001752 299.715106 
L 478.439623 299.412413 
L 479.918914 299.822666 
L 482.877494 299.399226 
L 487.315365 299.651694 
L 488.794655 299.470546 
L 491.753236 299.538733 
L 493.232526 299.862334 
L 494.711817 299.597334 
L 499.149688 299.502398 
L 500.628978 299.697852 
L 502.108268 299.362673 
L 503.587559 299.675132 
L 505.066849 299.409385 
L 509.50472 299.622407 
L 510.98401 299.323457 
L 512.4633 299.554959 
L 513.942591 299.5808 
L 515.421881 299.230243 
L 516.901171 299.66873 
L 518.380462 299.483672 
L 519.859752 299.670069 
L 524.297623 299.479563 
L 525.776913 299.848548 
L 527.256204 299.609159 
L 528.735494 299.623485 
L 531.694074 299.16265 
L 533.173365 299.503795 
L 536.131945 299.671973 
L 539.090526 299.427746 
L 540.569816 299.525389 
L 542.049107 299.408582 
L 542.049107 299.408582 
" clip-path="url(#p8b4fa19400)" style="fill: none; stroke: #1f77b4; stroke-width: 2; stroke-linecap: square"/>
   </g>
   <g id="line2d_57">
    <path d="M 79.031239 179.107996 
L 80.51053 183.19314 
L 81.98982 157.698865 
L 83.46911 176.495718 
L 84.948401 227.240077 
L 86.427691 194.54006 
L 87.906981 227.973794 
L 89.386272 172.370839 
L 90.865562 222.318773 
L 92.344852 182.881427 
L 93.824143 177.381057 
L 95.303433 133.236566 
L 96.782723 269.064011 
L 98.262014 175.129792 
L 99.741304 175.554354 
L 101.220594 185.536985 
L 102.699884 240.187993 
L 104.179175 259.902286 
L 105.658465 286.114069 
L 107.137755 291.915795 
L 108.617046 191.118855 
L 110.096336 231.18773 
L 111.575626 299.81881 
L 113.054917 287.214796 
L 114.534207 262.054632 
L 116.013497 294.166811 
L 117.492788 270.921074 
L 118.972078 255.355177 
L 120.451368 283.554364 
L 121.930659 280.546407 
L 123.409949 296.598164 
L 124.889239 118.328709 
L 126.368529 286.473717 
L 127.84782 233.720029 
L 129.32711 296.025791 
L 130.8064 252.44889 
L 132.285691 286.480294 
L 133.764981 289.954771 
L 136.723562 221.511083 
L 138.202852 296.02726 
L 139.682142 259.011552 
L 141.161433 288.6048 
L 142.640723 276.193991 
L 144.120013 71.875567 
L 145.599303 300.081096 
L 147.078594 295.599324 
L 148.557884 277.574649 
L 150.037174 263.36753 
L 151.516465 296.170466 
L 152.995755 249.417838 
L 154.475045 291.566775 
L 155.954336 299.550447 
L 157.433626 289.027385 
L 158.912916 293.879398 
L 160.392207 269.643877 
L 161.871497 188.057277 
L 163.350787 298.019559 
L 164.830078 281.647051 
L 166.309368 296.963468 
L 167.788658 300.811308 
L 169.267948 300.8595 
L 170.747239 302.62392 
L 172.226529 297.925787 
L 173.705819 295.779922 
L 175.18511 294.575414 
L 176.6644 302.247923 
L 178.14369 292.799395 
L 179.622981 292.136755 
L 181.102271 298.578286 
L 182.581561 289.069042 
L 184.060852 298.810577 
L 185.540142 296.721705 
L 187.019432 298.321627 
L 188.498722 302.871307 
L 189.978013 299.717442 
L 191.457303 303.216591 
L 192.936593 299.334116 
L 194.415884 301.890862 
L 195.895174 299.024631 
L 197.374464 303.717279 
L 198.853755 299.143559 
L 200.333045 297.756041 
L 201.812335 303.401023 
L 203.291626 304.417649 
L 204.770916 298.575657 
L 206.250206 303.307371 
L 207.729497 304.299317 
L 209.208787 303.978048 
L 210.688077 303.324475 
L 212.167367 303.460806 
L 213.646658 303.954317 
L 216.605238 303.130935 
L 218.084529 300.139287 
L 219.563819 301.95825 
L 221.043109 303.291929 
L 222.5224 303.419427 
L 224.00169 303.924564 
L 225.48098 304.240438 
L 226.960271 303.480816 
L 228.439561 301.2225 
L 231.398141 302.298241 
L 232.877432 299.663721 
L 234.356722 304.433351 
L 235.836012 303.647778 
L 237.315303 300.610668 
L 238.794593 304.390531 
L 240.273883 304.142421 
L 241.753174 302.02179 
L 243.232464 304.587882 
L 244.711754 303.790166 
L 246.191045 302.713144 
L 247.670335 304.635211 
L 249.149625 304.658236 
L 250.628916 304.56444 
L 252.108206 304.052827 
L 253.587496 303.908087 
L 255.066786 303.927504 
L 256.546077 304.380991 
L 258.025367 303.575409 
L 259.504657 304.350198 
L 260.983948 302.839998 
L 262.463238 303.674805 
L 263.942528 303.873447 
L 265.421819 302.04487 
L 266.901109 303.968255 
L 268.380399 303.345973 
L 269.85969 304.569929 
L 271.33898 303.445616 
L 272.81827 304.615664 
L 274.29756 303.851282 
L 275.776851 304.378548 
L 277.256141 303.650871 
L 278.735431 304.667663 
L 280.214722 304.492164 
L 281.694012 304.75553 
L 284.652593 304.739929 
L 286.131883 303.861822 
L 287.611173 304.262691 
L 289.090464 303.971225 
L 290.569754 304.755695 
L 293.528335 304.140242 
L 295.007625 304.678327 
L 296.486915 304.762556 
L 297.966205 303.57464 
L 299.445496 304.315867 
L 302.404076 304.741019 
L 303.883367 304.627759 
L 305.362657 303.647556 
L 306.841947 304.646298 
L 308.321238 303.69573 
L 309.800528 303.998579 
L 311.279818 303.838158 
L 312.759109 302.816879 
L 314.238399 304.309646 
L 315.717689 304.247008 
L 318.67627 304.67866 
L 320.15556 304.557448 
L 321.63485 304.734382 
L 323.114141 304.467784 
L 324.593431 304.773944 
L 326.072721 304.646784 
L 327.552012 302.161479 
L 329.031302 304.65451 
L 330.510592 303.246884 
L 331.989883 304.701664 
L 333.469173 304.5032 
L 334.948463 304.739617 
L 336.427754 304.484998 
L 337.907044 304.713958 
L 340.865624 304.797982 
L 345.303495 304.523699 
L 346.782786 303.060321 
L 348.262076 304.809238 
L 349.741366 304.151655 
L 351.220657 304.475655 
L 352.699947 303.971509 
L 355.658528 304.803139 
L 357.137818 304.458998 
L 358.617108 304.784205 
L 360.096398 304.405579 
L 361.575689 304.562266 
L 363.054979 304.182015 
L 364.534269 304.748689 
L 366.01356 304.318564 
L 368.97214 304.775726 
L 370.451431 303.868506 
L 371.930721 304.780208 
L 374.889302 304.759478 
L 376.368592 304.656559 
L 379.327173 304.769297 
L 380.806463 304.552991 
L 382.285753 303.728977 
L 383.765043 304.414662 
L 385.244334 304.793737 
L 386.723624 304.562033 
L 388.202914 304.73407 
L 389.682205 304.486592 
L 391.161495 304.809345 
L 392.640785 304.346904 
L 394.120076 304.838182 
L 395.599366 304.48251 
L 397.078656 304.820659 
L 408.912979 304.793086 
L 410.392269 304.206198 
L 411.871559 304.538583 
L 413.35085 304.705239 
L 414.83014 304.740859 
L 416.30943 304.341738 
L 417.788721 304.816951 
L 420.747301 304.641537 
L 423.705882 304.81955 
L 425.185172 304.785971 
L 426.664462 303.513137 
L 428.143753 304.689112 
L 431.102333 304.748474 
L 434.060914 304.720714 
L 435.540204 304.833948 
L 438.498785 304.811591 
L 441.457366 304.814665 
L 442.936656 304.724043 
L 444.415946 304.800905 
L 445.895236 304.7649 
L 447.374527 304.377744 
L 448.853817 304.818222 
L 450.333107 304.545155 
L 451.812398 304.743479 
L 454.770978 304.666735 
L 456.250269 304.810819 
L 457.729559 304.349564 
L 459.208849 304.672601 
L 463.64672 304.511834 
L 465.126011 304.753448 
L 466.605301 304.154856 
L 468.084591 304.643715 
L 469.563881 304.486547 
L 471.043172 304.797939 
L 472.522462 304.470329 
L 474.001752 303.739713 
L 475.481043 304.743364 
L 476.960333 304.579 
L 478.439623 304.781779 
L 479.918914 304.730052 
L 481.398204 304.799487 
L 482.877494 304.71395 
L 484.356785 304.77742 
L 485.836075 304.561458 
L 487.315365 304.699224 
L 488.794655 304.498478 
L 491.753236 304.81744 
L 493.232526 304.507812 
L 494.711817 304.69235 
L 496.191107 304.386039 
L 497.670397 304.745275 
L 500.628978 304.753184 
L 503.587559 304.808982 
L 505.066849 304.551187 
L 506.546139 304.813994 
L 509.50472 304.7677 
L 512.4633 304.542312 
L 513.942591 304.777959 
L 519.859752 304.768185 
L 521.339042 304.23271 
L 522.818333 304.73949 
L 530.214784 304.756255 
L 531.694074 304.249399 
L 533.173365 304.773874 
L 534.652655 303.914724 
L 536.131945 304.682416 
L 537.611236 304.64307 
L 539.090526 304.787244 
L 540.569816 304.789619 
L 542.049107 304.671758 
L 542.049107 304.671758 
" clip-path="url(#p8b4fa19400)" style="fill: none; stroke: #ff7f0e; stroke-width: 2; stroke-linecap: square"/>
   </g>
   <g id="patch_3">
    <path d="M 55.880346 318.04 
L 55.880346 27.6 
" style="fill: none; stroke: #000000; stroke-width: 0.8; stroke-linejoin: miter; stroke-linecap: square"/>
   </g>
   <g id="patch_4">
    <path d="M 565.2 318.04 
L 565.2 27.6 
" style="fill: none; stroke: #000000; stroke-width: 0.8; stroke-linejoin: miter; stroke-linecap: square"/>
   </g>
   <g id="patch_5">
    <path d="M 55.880346 318.04 
L 565.2 318.04 
" style="fill: none; stroke: #000000; stroke-width: 0.8; stroke-linejoin: miter; stroke-linecap: square"/>
   </g>
   <g id="patch_6">
    <path d="M 55.880346 27.6 
L 565.2 27.6 
" style="fill: none; stroke: #000000; stroke-width: 0.8; stroke-linejoin: miter; stroke-linecap: square"/>
   </g>
   <g id="text_15">
    <!-- Evolución del Loss por Época -->
    <g transform="translate(223.467048 21.6) scale(0.12 -0.12)">
     <defs>
      <path id="DejaVuSans-76" d="M 191 3500 
L 800 3500 
L 1894 563 
L 2988 3500 
L 3597 3500 
L 2284 0 
L 1503 0 
L 191 3500 
z
" transform="scale(0.015625)"/>
      <path id="DejaVuSans-6c" d="M 603 4863 
L 1178 4863 
L 1178 0 
L 603 0 
L 603 4863 
z
" transform="scale(0.015625)"/>
      <path id="DejaVuSans-75" d="M 544 1381 
L 544 3500 
L 1119 3500 
L 1119 1403 
Q 1119 906 1312 657 
Q 1506 409 1894 409 
Q 2359 409 2629 706 
Q 2900 1003 2900 1516 
L 2900 3500 
L 3475 3500 
L 3475 0 
L 2900 0 
L 2900 538 
Q 2691 219 2414 64 
Q 2138 -91 1772 -91 
Q 1169 -91 856 284 
Q 544 659 544 1381 
z
M 1991 3584 
L 1991 3584 
z
" transform="scale(0.015625)"/>
      <path id="DejaVuSans-69" d="M 603 3500 
L 1178 3500 
L 1178 0 
L 603 0 
L 603 3500 
z
M 603 4863 
L 1178 4863 
L 1178 4134 
L 603 4134 
L 603 4863 
z
" transform="scale(0.015625)"/>
      <path id="DejaVuSans-f3" d="M 1959 3097 
Q 1497 3097 1228 2736 
Q 959 2375 959 1747 
Q 959 1119 1226 758 
Q 1494 397 1959 397 
Q 2419 397 2687 759 
Q 2956 1122 2956 1747 
Q 2956 2369 2687 2733 
Q 2419 3097 1959 3097 
z
M 1959 3584 
Q 2709 3584 3137 3096 
Q 3566 2609 3566 1747 
Q 3566 888 3137 398 
Q 2709 -91 1959 -91 
Q 1206 -91 779 398 
Q 353 888 353 1747 
Q 353 2609 779 3096 
Q 1206 3584 1959 3584 
z
M 2394 5119 
L 3016 5119 
L 1997 3944 
L 1519 3944 
L 2394 5119 
z
" transform="scale(0.015625)"/>
      <path id="DejaVuSans-6e" d="M 3513 2113 
L 3513 0 
L 2938 0 
L 2938 2094 
Q 2938 2591 2744 2837 
Q 2550 3084 2163 3084 
Q 1697 3084 1428 2787 
Q 1159 2491 1159 1978 
L 1159 0 
L 581 0 
L 581 3500 
L 1159 3500 
L 1159 2956 
Q 1366 3272 1645 3428 
Q 1925 3584 2291 3584 
Q 2894 3584 3203 3211 
Q 3513 2838 3513 2113 
z
" transform="scale(0.015625)"/>
      <path id="DejaVuSans-64" d="M 2906 2969 
L 2906 4863 
L 3481 4863 
L 3481 0 
L 2906 0 
L 2906 525 
Q 2725 213 2448 61 
Q 2172 -91 1784 -91 
Q 1150 -91 751 415 
Q 353 922 353 1747 
Q 353 2572 751 3078 
Q 1150 3584 1784 3584 
Q 2172 3584 2448 3432 
Q 2725 3281 2906 2969 
z
M 947 1747 
Q 947 1113 1208 752 
Q 1469 391 1925 391 
Q 2381 391 2643 752 
Q 2906 1113 2906 1747 
Q 2906 2381 2643 2742 
Q 2381 3103 1925 3103 
Q 1469 3103 1208 2742 
Q 947 2381 947 1747 
z
" transform="scale(0.015625)"/>
      <path id="DejaVuSans-65" d="M 3597 1894 
L 3597 1613 
L 953 1613 
Q 991 1019 1311 708 
Q 1631 397 2203 397 
Q 2534 397 2845 478 
Q 3156 559 3463 722 
L 3463 178 
Q 3153 47 2828 -22 
Q 2503 -91 2169 -91 
Q 1331 -91 842 396 
Q 353 884 353 1716 
Q 353 2575 817 3079 
Q 1281 3584 2069 3584 
Q 2775 3584 3186 3129 
Q 3597 2675 3597 1894 
z
M 3022 2063 
Q 3016 2534 2758 2815 
Q 2500 3097 2075 3097 
Q 1594 3097 1305 2825 
Q 1016 2553 972 2059 
L 3022 2063 
z
" transform="scale(0.015625)"/>
      <path id="DejaVuSans-72" d="M 2631 2963 
Q 2534 3019 2420 3045 
Q 2306 3072 2169 3072 
Q 1681 3072 1420 2755 
Q 1159 2438 1159 1844 
L 1159 0 
L 581 0 
L 581 3500 
L 1159 3500 
L 1159 2956 
Q 1341 3275 1631 3429 
Q 1922 3584 2338 3584 
Q 2397 3584 2469 3576 
Q 2541 3569 2628 3553 
L 2631 2963 
z
" transform="scale(0.015625)"/>
      <path id="DejaVuSans-c9" d="M 628 4666 
L 3578 4666 
L 3578 4134 
L 1259 4134 
L 1259 2753 
L 3481 2753 
L 3481 2222 
L 1259 2222 
L 1259 531 
L 3634 531 
L 3634 0 
L 628 0 
L 628 4666 
z
M 2266 5935 
L 2844 5935 
L 2131 5110 
L 1653 5110 
L 2266 5935 
z
" transform="scale(0.015625)"/>
      <path id="DejaVuSans-61" d="M 2194 1759 
Q 1497 1759 1228 1600 
Q 959 1441 959 1056 
Q 959 750 1161 570 
Q 1363 391 1709 391 
Q 2188 391 2477 730 
Q 2766 1069 2766 1631 
L 2766 1759 
L 2194 1759 
z
M 3341 1997 
L 3341 0 
L 2766 0 
L 2766 531 
Q 2569 213 2275 61 
Q 1981 -91 1556 -91 
Q 1019 -91 701 211 
Q 384 513 384 1019 
Q 384 1609 779 1909 
Q 1175 2209 1959 2209 
L 2766 2209 
L 2766 2266 
Q 2766 2663 2505 2880 
Q 2244 3097 1772 3097 
Q 1472 3097 1187 3025 
Q 903 2953 641 2809 
L 641 3341 
Q 956 3463 1253 3523 
Q 1550 3584 1831 3584 
Q 2591 3584 2966 3190 
Q 3341 2797 3341 1997 
z
" transform="scale(0.015625)"/>
     </defs>
     <use xlink:href="#DejaVuSans-45"/>
     <use xlink:href="#DejaVuSans-76" transform="translate(63.183594 0)"/>
     <use xlink:href="#DejaVuSans-6f" transform="translate(122.363281 0)"/>
     <use xlink:href="#DejaVuSans-6c" transform="translate(183.544922 0)"/>
     <use xlink:href="#DejaVuSans-75" transform="translate(211.328125 0)"/>
     <use xlink:href="#DejaVuSans-63" transform="translate(274.707031 0)"/>
     <use xlink:href="#DejaVuSans-69" transform="translate(329.6875 0)"/>
     <use xlink:href="#DejaVuSans-f3" transform="translate(357.470703 0)"/>
     <use xlink:href="#DejaVuSans-6e" transform="translate(418.652344 0)"/>
     <use xlink:href="#DejaVuSans-20" transform="translate(482.03125 0)"/>
     <use xlink:href="#DejaVuSans-64" transform="translate(513.818359 0)"/>
     <use xlink:href="#DejaVuSans-65" transform="translate(577.294922 0)"/>
     <use xlink:href="#DejaVuSans-6c" transform="translate(638.818359 0)"/>
     <use xlink:href="#DejaVuSans-20" transform="translate(666.601562 0)"/>
     <use xlink:href="#DejaVuSans-4c" transform="translate(698.388672 0)"/>
     <use xlink:href="#DejaVuSans-6f" transform="translate(752.351562 0)"/>
     <use xlink:href="#DejaVuSans-73" transform="translate(813.533203 0)"/>
     <use xlink:href="#DejaVuSans-73" transform="translate(865.632812 0)"/>
     <use xlink:href="#DejaVuSans-20" transform="translate(917.732422 0)"/>
     <use xlink:href="#DejaVuSans-70" transform="translate(949.519531 0)"/>
     <use xlink:href="#DejaVuSans-6f" transform="translate(1012.996094 0)"/>
     <use xlink:href="#DejaVuSans-72" transform="translate(1074.177734 0)"/>
     <use xlink:href="#DejaVuSans-20" transform="translate(1115.291016 0)"/>
     <use xlink:href="#DejaVuSans-c9" transform="translate(1147.078125 0)"/>
     <use xlink:href="#DejaVuSans-70" transform="translate(1210.261719 0)"/>
     <use xlink:href="#DejaVuSans-6f" transform="translate(1273.738281 0)"/>
     <use xlink:href="#DejaVuSans-63" transform="translate(1334.919922 0)"/>
     <use xlink:href="#DejaVuSans-61" transform="translate(1389.900391 0)"/>
    </g>
   </g>
   <g id="legend_1">
    <g id="patch_7">
     <path d="M 453.839062 64.95625 
L 558.2 64.95625 
Q 560.2 64.95625 560.2 62.95625 
L 560.2 34.6 
Q 560.2 32.6 558.2 32.6 
L 453.839062 32.6 
Q 451.839062 32.6 451.839062 34.6 
L 451.839062 62.95625 
Q 451.839062 64.95625 453.839062 64.95625 
z
" style="fill: #ffffff; opacity: 0.8; stroke: #cccccc; stroke-linejoin: miter"/>
    </g>
    <g id="line2d_58">
     <path d="M 455.839062 40.698438 
L 465.839062 40.698438 
L 475.839062 40.698438 
" style="fill: none; stroke: #1f77b4; stroke-width: 2; stroke-linecap: square"/>
    </g>
    <g id="text_16">
     <!-- Train Loss -->
     <g transform="translate(483.839062 44.198438) scale(0.1 -0.1)">
      <defs>
       <path id="DejaVuSans-54" d="M -19 4666 
L 3928 4666 
L 3928 4134 
L 2272 4134 
L 2272 0 
L 1638 0 
L 1638 4134 
L -19 4134 
L -19 4666 
z
" transform="scale(0.015625)"/>
      </defs>
      <use xlink:href="#DejaVuSans-54"/>
      <use xlink:href="#DejaVuSans-72" transform="translate(46.333984 0)"/>
      <use xlink:href="#DejaVuSans-61" transform="translate(87.447266 0)"/>
      <use xlink:href="#DejaVuSans-69" transform="translate(148.726562 0)"/>
      <use xlink:href="#DejaVuSans-6e" transform="translate(176.509766 0)"/>
      <use xlink:href="#DejaVuSans-20" transform="translate(239.888672 0)"/>
      <use xlink:href="#DejaVuSans-4c" transform="translate(271.675781 0)"/>
      <use xlink:href="#DejaVuSans-6f" transform="translate(325.638672 0)"/>
      <use xlink:href="#DejaVuSans-73" transform="translate(386.820312 0)"/>
      <use xlink:href="#DejaVuSans-73" transform="translate(438.919922 0)"/>
     </g>
    </g>
    <g id="line2d_59">
     <path d="M 455.839062 55.376563 
L 465.839062 55.376563 
L 475.839062 55.376563 
" style="fill: none; stroke: #ff7f0e; stroke-width: 2; stroke-linecap: square"/>
    </g>
    <g id="text_17">
     <!-- Val Loss (MSE) -->
     <g transform="translate(483.839062 58.876563) scale(0.1 -0.1)">
      <defs>
       <path id="DejaVuSans-56" d="M 1831 0 
L 50 4666 
L 709 4666 
L 2188 738 
L 3669 4666 
L 4325 4666 
L 2547 0 
L 1831 0 
z
" transform="scale(0.015625)"/>
       <path id="DejaVuSans-28" d="M 1984 4856 
Q 1566 4138 1362 3434 
Q 1159 2731 1159 2009 
Q 1159 1288 1364 580 
Q 1569 -128 1984 -844 
L 1484 -844 
Q 1016 -109 783 600 
Q 550 1309 550 2009 
Q 550 2706 781 3412 
Q 1013 4119 1484 4856 
L 1984 4856 
z
" transform="scale(0.015625)"/>
       <path id="DejaVuSans-29" d="M 513 4856 
L 1013 4856 
Q 1481 4119 1714 3412 
Q 1947 2706 1947 2009 
Q 1947 1309 1714 600 
Q 1481 -109 1013 -844 
L 513 -844 
Q 928 -128 1133 580 
Q 1338 1288 1338 2009 
Q 1338 2731 1133 3434 
Q 928 4138 513 4856 
z
" transform="scale(0.015625)"/>
      </defs>
      <use xlink:href="#DejaVuSans-56"/>
      <use xlink:href="#DejaVuSans-61" transform="translate(60.658203 0)"/>
      <use xlink:href="#DejaVuSans-6c" transform="translate(121.9375 0)"/>
      <use xlink:href="#DejaVuSans-20" transform="translate(149.720703 0)"/>
      <use xlink:href="#DejaVuSans-4c" transform="translate(181.507812 0)"/>
      <use xlink:href="#DejaVuSans-6f" transform="translate(235.470703 0)"/>
      <use xlink:href="#DejaVuSans-73" transform="translate(296.652344 0)"/>
      <use xlink:href="#DejaVuSans-73" transform="translate(348.751953 0)"/>
      <use xlink:href="#DejaVuSans-20" transform="translate(400.851562 0)"/>
      <use xlink:href="#DejaVuSans-28" transform="translate(432.638672 0)"/>
      <use xlink:href="#DejaVuSans-4d" transform="translate(471.652344 0)"/>
      <use xlink:href="#DejaVuSans-53" transform="translate(557.931641 0)"/>
      <use xlink:href="#DejaVuSans-45" transform="translate(621.408203 0)"/>
      <use xlink:href="#DejaVuSans-29" transform="translate(684.591797 0)"/>
     </g>
    </g>
   </g>
  </g>
 </g>
 <defs>
  <clipPath id="p8b4fa19400">
   <rect x="55.880346" y="27.6" width="509.319654" height="290.44"/>
  </clipPath>
 </defs>
</svg>
