<?xml version="1.0" encoding="utf-8" standalone="no"?>
<!DOCTYPE svg PUBLIC "-//W3C//DTD SVG 1.1//EN"
  "http://www.w3.org/Graphics/SVG/1.1/DTD/svg11.dtd">
<svg xmlns:xlink="http://www.w3.org/1999/xlink" width="576pt" height="360pt" viewBox="0 0 576 360" xmlns="http://www.w3.org/2000/svg" version="1.1">
 <metadata>
  <rdf:RDF xmlns:dc="http://purl.org/dc/elements/1.1/" xmlns:cc="http://creativecommons.org/ns#" xmlns:rdf="http://www.w3.org/1999/02/22-rdf-syntax-ns#">
   <cc:Work>
    <dc:type rdf:resource="http://purl.org/dc/dcmitype/StillImage"/>
    <dc:date>2025-05-07T13:29:21.717385</dc:date>
    <dc:format>image/svg+xml</dc:format>
    <dc:creator>
     <cc:Agent>
      <dc:title>Matplotlib v3.10.1, https://matplotlib.org/</dc:title>
     </cc:Agent>
    </dc:creator>
   </cc:Work>
  </rdf:RDF>
 </metadata>
 <defs>
  <style type="text/css">*{stroke-linejoin: round; stroke-linecap: butt}</style>
 </defs>
 <g id="figure_1">
  <g id="patch_1">
   <path d="M 0 360 
L 576 360 
L 576 0 
L 0 0 
z
" style="fill: #ffffff"/>
  </g>
  <g id="axes_1">
   <g id="patch_2">
    <path d="M 55.880346 318.04 
L 565.2 318.04 
L 565.2 27.6 
L 55.880346 27.6 
z
" style="fill: #ffffff"/>
   </g>
   <g id="matplotlib.axis_1">
    <g id="xtick_1">
     <g id="line2d_1">
      <path d="M 79.031239 318.04 
L 79.031239 27.6 
" clip-path="url(#p4ce4338ad5)" style="fill: none; stroke: #b0b0b0; stroke-width: 0.8; stroke-linecap: square"/>
     </g>
     <g id="line2d_2">
      <defs>
       <path id="m83f1cf9229" d="M 0 0 
L 0 3.5 
" style="stroke: #000000; stroke-width: 0.8"/>
      </defs>
      <g>
       <use xlink:href="#m83f1cf9229" x="79.031239" y="318.04" style="stroke: #000000; stroke-width: 0.8"/>
      </g>
     </g>
     <g id="text_1">
      <!-- 0 -->
      <g transform="translate(75.849989 332.638438) scale(0.1 -0.1)">
       <defs>
        <path id="DejaVuSans-30" d="M 2034 4250 
Q 1547 4250 1301 3770 
Q 1056 3291 1056 2328 
Q 1056 1369 1301 889 
Q 1547 409 2034 409 
Q 2525 409 2770 889 
Q 3016 1369 3016 2328 
Q 3016 3291 2770 3770 
Q 2525 4250 2034 4250 
z
M 2034 4750 
Q 2819 4750 3233 4129 
Q 3647 3509 3647 2328 
Q 3647 1150 3233 529 
Q 2819 -91 2034 -91 
Q 1250 -91 836 529 
Q 422 1150 422 2328 
Q 422 3509 836 4129 
Q 1250 4750 2034 4750 
z
" transform="scale(0.015625)"/>
       </defs>
       <use xlink:href="#DejaVuSans-30"/>
      </g>
     </g>
    </g>
    <g id="xtick_2">
     <g id="line2d_3">
      <path d="M 140.358109 318.04 
L 140.358109 27.6 
" clip-path="url(#p4ce4338ad5)" style="fill: none; stroke: #b0b0b0; stroke-width: 0.8; stroke-linecap: square"/>
     </g>
     <g id="line2d_4">
      <g>
       <use xlink:href="#m83f1cf9229" x="140.358109" y="318.04" style="stroke: #000000; stroke-width: 0.8"/>
      </g>
     </g>
     <g id="text_2">
      <!-- 20 -->
      <g transform="translate(133.995609 332.638438) scale(0.1 -0.1)">
       <defs>
        <path id="DejaVuSans-32" d="M 1228 531 
L 3431 531 
L 3431 0 
L 469 0 
L 469 531 
Q 828 903 1448 1529 
Q 2069 2156 2228 2338 
Q 2531 2678 2651 2914 
Q 2772 3150 2772 3378 
Q 2772 3750 2511 3984 
Q 2250 4219 1831 4219 
Q 1534 4219 1204 4116 
Q 875 4013 500 3803 
L 500 4441 
Q 881 4594 1212 4672 
Q 1544 4750 1819 4750 
Q 2544 4750 2975 4387 
Q 3406 4025 3406 3419 
Q 3406 3131 3298 2873 
Q 3191 2616 2906 2266 
Q 2828 2175 2409 1742 
Q 1991 1309 1228 531 
z
" transform="scale(0.015625)"/>
       </defs>
       <use xlink:href="#DejaVuSans-32"/>
       <use xlink:href="#DejaVuSans-30" transform="translate(63.623047 0)"/>
      </g>
     </g>
    </g>
    <g id="xtick_3">
     <g id="line2d_5">
      <path d="M 201.684979 318.04 
L 201.684979 27.6 
" clip-path="url(#p4ce4338ad5)" style="fill: none; stroke: #b0b0b0; stroke-width: 0.8; stroke-linecap: square"/>
     </g>
     <g id="line2d_6">
      <g>
       <use xlink:href="#m83f1cf9229" x="201.684979" y="318.04" style="stroke: #000000; stroke-width: 0.8"/>
      </g>
     </g>
     <g id="text_3">
      <!-- 40 -->
      <g transform="translate(195.322479 332.638438) scale(0.1 -0.1)">
       <defs>
        <path id="DejaVuSans-34" d="M 2419 4116 
L 825 1625 
L 2419 1625 
L 2419 4116 
z
M 2253 4666 
L 3047 4666 
L 3047 1625 
L 3713 1625 
L 3713 1100 
L 3047 1100 
L 3047 0 
L 2419 0 
L 2419 1100 
L 313 1100 
L 313 1709 
L 2253 4666 
z
" transform="scale(0.015625)"/>
       </defs>
       <use xlink:href="#DejaVuSans-34"/>
       <use xlink:href="#DejaVuSans-30" transform="translate(63.623047 0)"/>
      </g>
     </g>
    </g>
    <g id="xtick_4">
     <g id="line2d_7">
      <path d="M 263.011849 318.04 
L 263.011849 27.6 
" clip-path="url(#p4ce4338ad5)" style="fill: none; stroke: #b0b0b0; stroke-width: 0.8; stroke-linecap: square"/>
     </g>
     <g id="line2d_8">
      <g>
       <use xlink:href="#m83f1cf9229" x="263.011849" y="318.04" style="stroke: #000000; stroke-width: 0.8"/>
      </g>
     </g>
     <g id="text_4">
      <!-- 60 -->
      <g transform="translate(256.649349 332.638438) scale(0.1 -0.1)">
       <defs>
        <path id="DejaVuSans-36" d="M 2113 2584 
Q 1688 2584 1439 2293 
Q 1191 2003 1191 1497 
Q 1191 994 1439 701 
Q 1688 409 2113 409 
Q 2538 409 2786 701 
Q 3034 994 3034 1497 
Q 3034 2003 2786 2293 
Q 2538 2584 2113 2584 
z
M 3366 4563 
L 3366 3988 
Q 3128 4100 2886 4159 
Q 2644 4219 2406 4219 
Q 1781 4219 1451 3797 
Q 1122 3375 1075 2522 
Q 1259 2794 1537 2939 
Q 1816 3084 2150 3084 
Q 2853 3084 3261 2657 
Q 3669 2231 3669 1497 
Q 3669 778 3244 343 
Q 2819 -91 2113 -91 
Q 1303 -91 875 529 
Q 447 1150 447 2328 
Q 447 3434 972 4092 
Q 1497 4750 2381 4750 
Q 2619 4750 2861 4703 
Q 3103 4656 3366 4563 
z
" transform="scale(0.015625)"/>
       </defs>
       <use xlink:href="#DejaVuSans-36"/>
       <use xlink:href="#DejaVuSans-30" transform="translate(63.623047 0)"/>
      </g>
     </g>
    </g>
    <g id="xtick_5">
     <g id="line2d_9">
      <path d="M 324.338719 318.04 
L 324.338719 27.6 
" clip-path="url(#p4ce4338ad5)" style="fill: none; stroke: #b0b0b0; stroke-width: 0.8; stroke-linecap: square"/>
     </g>
     <g id="line2d_10">
      <g>
       <use xlink:href="#m83f1cf9229" x="324.338719" y="318.04" style="stroke: #000000; stroke-width: 0.8"/>
      </g>
     </g>
     <g id="text_5">
      <!-- 80 -->
      <g transform="translate(317.976219 332.638438) scale(0.1 -0.1)">
       <defs>
        <path id="DejaVuSans-38" d="M 2034 2216 
Q 1584 2216 1326 1975 
Q 1069 1734 1069 1313 
Q 1069 891 1326 650 
Q 1584 409 2034 409 
Q 2484 409 2743 651 
Q 3003 894 3003 1313 
Q 3003 1734 2745 1975 
Q 2488 2216 2034 2216 
z
M 1403 2484 
Q 997 2584 770 2862 
Q 544 3141 544 3541 
Q 544 4100 942 4425 
Q 1341 4750 2034 4750 
Q 2731 4750 3128 4425 
Q 3525 4100 3525 3541 
Q 3525 3141 3298 2862 
Q 3072 2584 2669 2484 
Q 3125 2378 3379 2068 
Q 3634 1759 3634 1313 
Q 3634 634 3220 271 
Q 2806 -91 2034 -91 
Q 1263 -91 848 271 
Q 434 634 434 1313 
Q 434 1759 690 2068 
Q 947 2378 1403 2484 
z
M 1172 3481 
Q 1172 3119 1398 2916 
Q 1625 2713 2034 2713 
Q 2441 2713 2670 2916 
Q 2900 3119 2900 3481 
Q 2900 3844 2670 4047 
Q 2441 4250 2034 4250 
Q 1625 4250 1398 4047 
Q 1172 3844 1172 3481 
z
" transform="scale(0.015625)"/>
       </defs>
       <use xlink:href="#DejaVuSans-38"/>
       <use xlink:href="#DejaVuSans-30" transform="translate(63.623047 0)"/>
      </g>
     </g>
    </g>
    <g id="xtick_6">
     <g id="line2d_11">
      <path d="M 385.665589 318.04 
L 385.665589 27.6 
" clip-path="url(#p4ce4338ad5)" style="fill: none; stroke: #b0b0b0; stroke-width: 0.8; stroke-linecap: square"/>
     </g>
     <g id="line2d_12">
      <g>
       <use xlink:href="#m83f1cf9229" x="385.665589" y="318.04" style="stroke: #000000; stroke-width: 0.8"/>
      </g>
     </g>
     <g id="text_6">
      <!-- 100 -->
      <g transform="translate(376.121839 332.638438) scale(0.1 -0.1)">
       <defs>
        <path id="DejaVuSans-31" d="M 794 531 
L 1825 531 
L 1825 4091 
L 703 3866 
L 703 4441 
L 1819 4666 
L 2450 4666 
L 2450 531 
L 3481 531 
L 3481 0 
L 794 0 
L 794 531 
z
" transform="scale(0.015625)"/>
       </defs>
       <use xlink:href="#DejaVuSans-31"/>
       <use xlink:href="#DejaVuSans-30" transform="translate(63.623047 0)"/>
       <use xlink:href="#DejaVuSans-30" transform="translate(127.246094 0)"/>
      </g>
     </g>
    </g>
    <g id="xtick_7">
     <g id="line2d_13">
      <path d="M 446.992458 318.04 
L 446.992458 27.6 
" clip-path="url(#p4ce4338ad5)" style="fill: none; stroke: #b0b0b0; stroke-width: 0.8; stroke-linecap: square"/>
     </g>
     <g id="line2d_14">
      <g>
       <use xlink:href="#m83f1cf9229" x="446.992458" y="318.04" style="stroke: #000000; stroke-width: 0.8"/>
      </g>
     </g>
     <g id="text_7">
      <!-- 120 -->
      <g transform="translate(437.448708 332.638438) scale(0.1 -0.1)">
       <use xlink:href="#DejaVuSans-31"/>
       <use xlink:href="#DejaVuSans-32" transform="translate(63.623047 0)"/>
       <use xlink:href="#DejaVuSans-30" transform="translate(127.246094 0)"/>
      </g>
     </g>
    </g>
    <g id="xtick_8">
     <g id="line2d_15">
      <path d="M 508.319328 318.04 
L 508.319328 27.6 
" clip-path="url(#p4ce4338ad5)" style="fill: none; stroke: #b0b0b0; stroke-width: 0.8; stroke-linecap: square"/>
     </g>
     <g id="line2d_16">
      <g>
       <use xlink:href="#m83f1cf9229" x="508.319328" y="318.04" style="stroke: #000000; stroke-width: 0.8"/>
      </g>
     </g>
     <g id="text_8">
      <!-- 140 -->
      <g transform="translate(498.775578 332.638438) scale(0.1 -0.1)">
       <use xlink:href="#DejaVuSans-31"/>
       <use xlink:href="#DejaVuSans-34" transform="translate(63.623047 0)"/>
       <use xlink:href="#DejaVuSans-30" transform="translate(127.246094 0)"/>
      </g>
     </g>
    </g>
    <g id="text_9">
     <!-- Epoch -->
     <g transform="translate(295.229236 346.316563) scale(0.1 -0.1)">
      <defs>
       <path id="DejaVuSans-45" d="M 628 4666 
L 3578 4666 
L 3578 4134 
L 1259 4134 
L 1259 2753 
L 3481 2753 
L 3481 2222 
L 1259 2222 
L 1259 531 
L 3634 531 
L 3634 0 
L 628 0 
L 628 4666 
z
" transform="scale(0.015625)"/>
       <path id="DejaVuSans-70" d="M 1159 525 
L 1159 -1331 
L 581 -1331 
L 581 3500 
L 1159 3500 
L 1159 2969 
Q 1341 3281 1617 3432 
Q 1894 3584 2278 3584 
Q 2916 3584 3314 3078 
Q 3713 2572 3713 1747 
Q 3713 922 3314 415 
Q 2916 -91 2278 -91 
Q 1894 -91 1617 61 
Q 1341 213 1159 525 
z
M 3116 1747 
Q 3116 2381 2855 2742 
Q 2594 3103 2138 3103 
Q 1681 3103 1420 2742 
Q 1159 2381 1159 1747 
Q 1159 1113 1420 752 
Q 1681 391 2138 391 
Q 2594 391 2855 752 
Q 3116 1113 3116 1747 
z
" transform="scale(0.015625)"/>
       <path id="DejaVuSans-6f" d="M 1959 3097 
Q 1497 3097 1228 2736 
Q 959 2375 959 1747 
Q 959 1119 1226 758 
Q 1494 397 1959 397 
Q 2419 397 2687 759 
Q 2956 1122 2956 1747 
Q 2956 2369 2687 2733 
Q 2419 3097 1959 3097 
z
M 1959 3584 
Q 2709 3584 3137 3096 
Q 3566 2609 3566 1747 
Q 3566 888 3137 398 
Q 2709 -91 1959 -91 
Q 1206 -91 779 398 
Q 353 888 353 1747 
Q 353 2609 779 3096 
Q 1206 3584 1959 3584 
z
" transform="scale(0.015625)"/>
       <path id="DejaVuSans-63" d="M 3122 3366 
L 3122 2828 
Q 2878 2963 2633 3030 
Q 2388 3097 2138 3097 
Q 1578 3097 1268 2742 
Q 959 2388 959 1747 
Q 959 1106 1268 751 
Q 1578 397 2138 397 
Q 2388 397 2633 464 
Q 2878 531 3122 666 
L 3122 134 
Q 2881 22 2623 -34 
Q 2366 -91 2075 -91 
Q 1284 -91 818 406 
Q 353 903 353 1747 
Q 353 2603 823 3093 
Q 1294 3584 2113 3584 
Q 2378 3584 2631 3529 
Q 2884 3475 3122 3366 
z
" transform="scale(0.015625)"/>
       <path id="DejaVuSans-68" d="M 3513 2113 
L 3513 0 
L 2938 0 
L 2938 2094 
Q 2938 2591 2744 2837 
Q 2550 3084 2163 3084 
Q 1697 3084 1428 2787 
Q 1159 2491 1159 1978 
L 1159 0 
L 581 0 
L 581 4863 
L 1159 4863 
L 1159 2956 
Q 1366 3272 1645 3428 
Q 1925 3584 2291 3584 
Q 2894 3584 3203 3211 
Q 3513 2838 3513 2113 
z
" transform="scale(0.015625)"/>
      </defs>
      <use xlink:href="#DejaVuSans-45"/>
      <use xlink:href="#DejaVuSans-70" transform="translate(63.183594 0)"/>
      <use xlink:href="#DejaVuSans-6f" transform="translate(126.660156 0)"/>
      <use xlink:href="#DejaVuSans-63" transform="translate(187.841797 0)"/>
      <use xlink:href="#DejaVuSans-68" transform="translate(242.822266 0)"/>
     </g>
    </g>
   </g>
   <g id="matplotlib.axis_2">
    <g id="ytick_1">
     <g id="line2d_17">
      <path d="M 55.880346 239.806736 
L 565.2 239.806736 
" clip-path="url(#p4ce4338ad5)" style="fill: none; stroke: #b0b0b0; stroke-width: 0.8; stroke-linecap: square"/>
     </g>
     <g id="line2d_18">
      <defs>
       <path id="m56da3beba9" d="M 0 0 
L -3.5 0 
" style="stroke: #000000; stroke-width: 0.8"/>
      </defs>
      <g>
       <use xlink:href="#m56da3beba9" x="55.880346" y="239.806736" style="stroke: #000000; stroke-width: 0.8"/>
      </g>
     </g>
     <g id="text_10">
      <!-- $\mathdefault{10^{-3}}$ -->
      <g transform="translate(25.380346 243.605955) scale(0.1 -0.1)">
       <defs>
        <path id="DejaVuSans-2212" d="M 678 2272 
L 4684 2272 
L 4684 1741 
L 678 1741 
L 678 2272 
z
" transform="scale(0.015625)"/>
        <path id="DejaVuSans-33" d="M 2597 2516 
Q 3050 2419 3304 2112 
Q 3559 1806 3559 1356 
Q 3559 666 3084 287 
Q 2609 -91 1734 -91 
Q 1441 -91 1130 -33 
Q 819 25 488 141 
L 488 750 
Q 750 597 1062 519 
Q 1375 441 1716 441 
Q 2309 441 2620 675 
Q 2931 909 2931 1356 
Q 2931 1769 2642 2001 
Q 2353 2234 1838 2234 
L 1294 2234 
L 1294 2753 
L 1863 2753 
Q 2328 2753 2575 2939 
Q 2822 3125 2822 3475 
Q 2822 3834 2567 4026 
Q 2313 4219 1838 4219 
Q 1578 4219 1281 4162 
Q 984 4106 628 3988 
L 628 4550 
Q 988 4650 1302 4700 
Q 1616 4750 1894 4750 
Q 2613 4750 3031 4423 
Q 3450 4097 3450 3541 
Q 3450 3153 3228 2886 
Q 3006 2619 2597 2516 
z
" transform="scale(0.015625)"/>
       </defs>
       <use xlink:href="#DejaVuSans-31" transform="translate(0 0.765625)"/>
       <use xlink:href="#DejaVuSans-30" transform="translate(63.623047 0.765625)"/>
       <use xlink:href="#DejaVuSans-2212" transform="translate(128.203125 39.046875) scale(0.7)"/>
       <use xlink:href="#DejaVuSans-33" transform="translate(186.855469 39.046875) scale(0.7)"/>
      </g>
     </g>
    </g>
    <g id="ytick_2">
     <g id="line2d_19">
      <path d="M 55.880346 144.768383 
L 565.2 144.768383 
" clip-path="url(#p4ce4338ad5)" style="fill: none; stroke: #b0b0b0; stroke-width: 0.8; stroke-linecap: square"/>
     </g>
     <g id="line2d_20">
      <g>
       <use xlink:href="#m56da3beba9" x="55.880346" y="144.768383" style="stroke: #000000; stroke-width: 0.8"/>
      </g>
     </g>
     <g id="text_11">
      <!-- $\mathdefault{10^{-2}}$ -->
      <g transform="translate(25.380346 148.567601) scale(0.1 -0.1)">
       <use xlink:href="#DejaVuSans-31" transform="translate(0 0.765625)"/>
       <use xlink:href="#DejaVuSans-30" transform="translate(63.623047 0.765625)"/>
       <use xlink:href="#DejaVuSans-2212" transform="translate(128.203125 39.046875) scale(0.7)"/>
       <use xlink:href="#DejaVuSans-32" transform="translate(186.855469 39.046875) scale(0.7)"/>
      </g>
     </g>
    </g>
    <g id="ytick_3">
     <g id="line2d_21">
      <path d="M 55.880346 49.730029 
L 565.2 49.730029 
" clip-path="url(#p4ce4338ad5)" style="fill: none; stroke: #b0b0b0; stroke-width: 0.8; stroke-linecap: square"/>
     </g>
     <g id="line2d_22">
      <g>
       <use xlink:href="#m56da3beba9" x="55.880346" y="49.730029" style="stroke: #000000; stroke-width: 0.8"/>
      </g>
     </g>
     <g id="text_12">
      <!-- $\mathdefault{10^{-1}}$ -->
      <g transform="translate(25.380346 53.529248) scale(0.1 -0.1)">
       <use xlink:href="#DejaVuSans-31" transform="translate(0 0.684375)"/>
       <use xlink:href="#DejaVuSans-30" transform="translate(63.623047 0.684375)"/>
       <use xlink:href="#DejaVuSans-2212" transform="translate(128.203125 38.965625) scale(0.7)"/>
       <use xlink:href="#DejaVuSans-31" transform="translate(186.855469 38.965625) scale(0.7)"/>
      </g>
     </g>
    </g>
    <g id="ytick_4">
     <g id="line2d_23">
      <defs>
       <path id="m1cc876e518" d="M 0 0 
L -2 0 
" style="stroke: #000000; stroke-width: 0.6"/>
      </defs>
      <g>
       <use xlink:href="#m1cc876e518" x="55.880346" y="306.235694" style="stroke: #000000; stroke-width: 0.6"/>
      </g>
     </g>
    </g>
    <g id="ytick_5">
     <g id="line2d_24">
      <g>
       <use xlink:href="#m1cc876e518" x="55.880346" y="289.500271" style="stroke: #000000; stroke-width: 0.6"/>
      </g>
     </g>
    </g>
    <g id="ytick_6">
     <g id="line2d_25">
      <g>
       <use xlink:href="#m1cc876e518" x="55.880346" y="277.626299" style="stroke: #000000; stroke-width: 0.6"/>
      </g>
     </g>
    </g>
    <g id="ytick_7">
     <g id="line2d_26">
      <g>
       <use xlink:href="#m1cc876e518" x="55.880346" y="268.416131" style="stroke: #000000; stroke-width: 0.6"/>
      </g>
     </g>
    </g>
    <g id="ytick_8">
     <g id="line2d_27">
      <g>
       <use xlink:href="#m1cc876e518" x="55.880346" y="260.890876" style="stroke: #000000; stroke-width: 0.6"/>
      </g>
     </g>
    </g>
    <g id="ytick_9">
     <g id="line2d_28">
      <g>
       <use xlink:href="#m1cc876e518" x="55.880346" y="254.528363" style="stroke: #000000; stroke-width: 0.6"/>
      </g>
     </g>
    </g>
    <g id="ytick_10">
     <g id="line2d_29">
      <g>
       <use xlink:href="#m1cc876e518" x="55.880346" y="249.016904" style="stroke: #000000; stroke-width: 0.6"/>
      </g>
     </g>
    </g>
    <g id="ytick_11">
     <g id="line2d_30">
      <g>
       <use xlink:href="#m1cc876e518" x="55.880346" y="244.155453" style="stroke: #000000; stroke-width: 0.6"/>
      </g>
     </g>
    </g>
    <g id="ytick_12">
     <g id="line2d_31">
      <g>
       <use xlink:href="#m1cc876e518" x="55.880346" y="211.197341" style="stroke: #000000; stroke-width: 0.6"/>
      </g>
     </g>
    </g>
    <g id="ytick_13">
     <g id="line2d_32">
      <g>
       <use xlink:href="#m1cc876e518" x="55.880346" y="194.461918" style="stroke: #000000; stroke-width: 0.6"/>
      </g>
     </g>
    </g>
    <g id="ytick_14">
     <g id="line2d_33">
      <g>
       <use xlink:href="#m1cc876e518" x="55.880346" y="182.587946" style="stroke: #000000; stroke-width: 0.6"/>
      </g>
     </g>
    </g>
    <g id="ytick_15">
     <g id="line2d_34">
      <g>
       <use xlink:href="#m1cc876e518" x="55.880346" y="173.377778" style="stroke: #000000; stroke-width: 0.6"/>
      </g>
     </g>
    </g>
    <g id="ytick_16">
     <g id="line2d_35">
      <g>
       <use xlink:href="#m1cc876e518" x="55.880346" y="165.852523" style="stroke: #000000; stroke-width: 0.6"/>
      </g>
     </g>
    </g>
    <g id="ytick_17">
     <g id="line2d_36">
      <g>
       <use xlink:href="#m1cc876e518" x="55.880346" y="159.49001" style="stroke: #000000; stroke-width: 0.6"/>
      </g>
     </g>
    </g>
    <g id="ytick_18">
     <g id="line2d_37">
      <g>
       <use xlink:href="#m1cc876e518" x="55.880346" y="153.978551" style="stroke: #000000; stroke-width: 0.6"/>
      </g>
     </g>
    </g>
    <g id="ytick_19">
     <g id="line2d_38">
      <g>
       <use xlink:href="#m1cc876e518" x="55.880346" y="149.117099" style="stroke: #000000; stroke-width: 0.6"/>
      </g>
     </g>
    </g>
    <g id="ytick_20">
     <g id="line2d_39">
      <g>
       <use xlink:href="#m1cc876e518" x="55.880346" y="116.158988" style="stroke: #000000; stroke-width: 0.6"/>
      </g>
     </g>
    </g>
    <g id="ytick_21">
     <g id="line2d_40">
      <g>
       <use xlink:href="#m1cc876e518" x="55.880346" y="99.423564" style="stroke: #000000; stroke-width: 0.6"/>
      </g>
     </g>
    </g>
    <g id="ytick_22">
     <g id="line2d_41">
      <g>
       <use xlink:href="#m1cc876e518" x="55.880346" y="87.549592" style="stroke: #000000; stroke-width: 0.6"/>
      </g>
     </g>
    </g>
    <g id="ytick_23">
     <g id="line2d_42">
      <g>
       <use xlink:href="#m1cc876e518" x="55.880346" y="78.339424" style="stroke: #000000; stroke-width: 0.6"/>
      </g>
     </g>
    </g>
    <g id="ytick_24">
     <g id="line2d_43">
      <g>
       <use xlink:href="#m1cc876e518" x="55.880346" y="70.814169" style="stroke: #000000; stroke-width: 0.6"/>
      </g>
     </g>
    </g>
    <g id="ytick_25">
     <g id="line2d_44">
      <g>
       <use xlink:href="#m1cc876e518" x="55.880346" y="64.451656" style="stroke: #000000; stroke-width: 0.6"/>
      </g>
     </g>
    </g>
    <g id="ytick_26">
     <g id="line2d_45">
      <g>
       <use xlink:href="#m1cc876e518" x="55.880346" y="58.940197" style="stroke: #000000; stroke-width: 0.6"/>
      </g>
     </g>
    </g>
    <g id="ytick_27">
     <g id="line2d_46">
      <g>
       <use xlink:href="#m1cc876e518" x="55.880346" y="54.078746" style="stroke: #000000; stroke-width: 0.6"/>
      </g>
     </g>
    </g>
    <g id="text_13">
     <!-- MSE Loss -->
     <g transform="translate(19.300659 196.023906) rotate(-90) scale(0.1 -0.1)">
      <defs>
       <path id="DejaVuSans-4d" d="M 628 4666 
L 1569 4666 
L 2759 1491 
L 3956 4666 
L 4897 4666 
L 4897 0 
L 4281 0 
L 4281 4097 
L 3078 897 
L 2444 897 
L 1241 4097 
L 1241 0 
L 628 0 
L 628 4666 
z
" transform="scale(0.015625)"/>
       <path id="DejaVuSans-53" d="M 3425 4513 
L 3425 3897 
Q 3066 4069 2747 4153 
Q 2428 4238 2131 4238 
Q 1616 4238 1336 4038 
Q 1056 3838 1056 3469 
Q 1056 3159 1242 3001 
Q 1428 2844 1947 2747 
L 2328 2669 
Q 3034 2534 3370 2195 
Q 3706 1856 3706 1288 
Q 3706 609 3251 259 
Q 2797 -91 1919 -91 
Q 1588 -91 1214 -16 
Q 841 59 441 206 
L 441 856 
Q 825 641 1194 531 
Q 1563 422 1919 422 
Q 2459 422 2753 634 
Q 3047 847 3047 1241 
Q 3047 1584 2836 1778 
Q 2625 1972 2144 2069 
L 1759 2144 
Q 1053 2284 737 2584 
Q 422 2884 422 3419 
Q 422 4038 858 4394 
Q 1294 4750 2059 4750 
Q 2388 4750 2728 4690 
Q 3069 4631 3425 4513 
z
" transform="scale(0.015625)"/>
       <path id="DejaVuSans-20" transform="scale(0.015625)"/>
       <path id="DejaVuSans-4c" d="M 628 4666 
L 1259 4666 
L 1259 531 
L 3531 531 
L 3531 0 
L 628 0 
L 628 4666 
z
" transform="scale(0.015625)"/>
       <path id="DejaVuSans-73" d="M 2834 3397 
L 2834 2853 
Q 2591 2978 2328 3040 
Q 2066 3103 1784 3103 
Q 1356 3103 1142 2972 
Q 928 2841 928 2578 
Q 928 2378 1081 2264 
Q 1234 2150 1697 2047 
L 1894 2003 
Q 2506 1872 2764 1633 
Q 3022 1394 3022 966 
Q 3022 478 2636 193 
Q 2250 -91 1575 -91 
Q 1294 -91 989 -36 
Q 684 19 347 128 
L 347 722 
Q 666 556 975 473 
Q 1284 391 1588 391 
Q 1994 391 2212 530 
Q 2431 669 2431 922 
Q 2431 1156 2273 1281 
Q 2116 1406 1581 1522 
L 1381 1569 
Q 847 1681 609 1914 
Q 372 2147 372 2553 
Q 372 3047 722 3315 
Q 1072 3584 1716 3584 
Q 2034 3584 2315 3537 
Q 2597 3491 2834 3397 
z
" transform="scale(0.015625)"/>
      </defs>
      <use xlink:href="#DejaVuSans-4d"/>
      <use xlink:href="#DejaVuSans-53" transform="translate(86.279297 0)"/>
      <use xlink:href="#DejaVuSans-45" transform="translate(149.755859 0)"/>
      <use xlink:href="#DejaVuSans-20" transform="translate(212.939453 0)"/>
      <use xlink:href="#DejaVuSans-4c" transform="translate(244.726562 0)"/>
      <use xlink:href="#DejaVuSans-6f" transform="translate(298.689453 0)"/>
      <use xlink:href="#DejaVuSans-73" transform="translate(359.871094 0)"/>
      <use xlink:href="#DejaVuSans-73" transform="translate(411.970703 0)"/>
     </g>
    </g>
   </g>
   <g id="line2d_47">
    <path d="M 79.031239 40.801818 
L 82.097583 69.710023 
L 85.163926 85.021435 
L 88.23027 98.708703 
L 100.495644 150.473838 
L 109.694674 189.739553 
L 112.761018 201.786315 
L 115.827361 212.74809 
L 118.893705 222.191455 
L 121.960048 231.118975 
L 125.026392 238.787176 
L 131.159079 251.007701 
L 134.225422 255.348752 
L 137.291766 259.287056 
L 140.358109 261.282956 
L 143.424453 265.219737 
L 146.490796 267.693982 
L 149.55714 268.899562 
L 152.623483 271.133512 
L 155.689827 273.10965 
L 158.75617 273.392665 
L 161.822514 275.723271 
L 164.888857 275.02392 
L 167.955201 276.782653 
L 171.021544 278.24451 
L 174.087888 279.07202 
L 177.154231 278.462946 
L 180.220575 280.143733 
L 183.286918 280.286338 
L 186.353262 281.409255 
L 189.419605 281.79375 
L 192.485949 281.479729 
L 195.552292 283.00919 
L 198.618636 282.773946 
L 201.684979 283.612003 
L 204.751323 283.409373 
L 207.817666 284.156878 
L 210.88401 286.330388 
L 213.950353 285.803181 
L 217.016697 286.61993 
L 220.08304 286.066832 
L 223.149384 287.057507 
L 226.215727 286.234877 
L 229.282071 286.959246 
L 232.348414 286.010705 
L 235.414758 287.458155 
L 238.481101 287.323039 
L 241.547445 287.697013 
L 244.613788 286.982906 
L 247.680132 287.75184 
L 250.746475 287.652623 
L 253.812818 287.006447 
L 256.879162 288.053259 
L 259.945505 288.698891 
L 263.011849 287.971255 
L 266.078192 288.617941 
L 269.144536 288.575802 
L 272.210879 289.173356 
L 275.277223 289.477588 
L 278.343566 289.257779 
L 281.40991 289.713889 
L 284.476253 290.321753 
L 287.542597 289.720684 
L 290.60894 289.303472 
L 293.675284 290.044504 
L 296.741627 289.975213 
L 299.807971 289.786586 
L 305.940658 290.663073 
L 309.007001 290.985747 
L 312.073345 290.253101 
L 315.139688 290.293544 
L 318.206032 290.479017 
L 321.272375 290.803526 
L 324.338719 290.911363 
L 330.471406 290.339679 
L 333.537749 290.770807 
L 336.604093 290.940972 
L 339.670436 290.821343 
L 342.73678 290.960232 
L 345.803123 291.262834 
L 348.869467 291.034477 
L 351.93581 291.204622 
L 355.002154 291.634154 
L 358.068497 291.211609 
L 361.134841 291.193249 
L 364.201184 291.317582 
L 367.267528 291.197548 
L 373.400215 291.174262 
L 376.466558 291.737948 
L 379.532902 291.594414 
L 382.599245 291.198911 
L 388.731932 291.582058 
L 391.798276 291.534466 
L 397.930963 291.698514 
L 400.997306 291.235884 
L 407.129993 291.541437 
L 410.196337 291.373561 
L 413.26268 291.545204 
L 416.329024 291.930263 
L 419.395367 291.73376 
L 422.46171 291.250588 
L 425.528054 291.700157 
L 428.594397 291.856608 
L 431.660741 291.613463 
L 434.727084 291.746523 
L 437.793428 291.701652 
L 440.859771 291.812054 
L 443.926115 291.57351 
L 446.992458 291.940546 
L 450.058802 291.781971 
L 453.125145 291.859394 
L 459.257832 291.531577 
L 462.324176 291.847382 
L 465.390519 291.404547 
L 468.456863 291.909243 
L 471.523206 291.522009 
L 477.655893 292.006336 
L 480.722237 291.80495 
L 483.78858 291.956021 
L 486.854924 291.762438 
L 489.921267 291.804142 
L 492.987611 291.986926 
L 496.053954 291.395919 
L 502.186641 291.925345 
L 505.252985 291.627328 
L 511.385672 292.090147 
L 514.452015 291.928329 
L 517.518359 291.91977 
L 520.584702 291.374324 
L 523.651046 291.805625 
L 529.783733 291.462822 
L 532.850076 291.817299 
L 542.049107 291.780736 
L 542.049107 291.780736 
" clip-path="url(#p4ce4338ad5)" style="fill: none; stroke: #1f77b4; stroke-width: 2; stroke-linecap: square"/>
   </g>
   <g id="line2d_48">
    <path d="M 79.031239 97.080181 
L 82.097583 159.367493 
L 85.163926 166.034568 
L 88.23027 171.362254 
L 91.296613 200.559219 
L 94.362957 200.765595 
L 97.4293 242.513524 
L 100.495644 221.682472 
L 103.561987 219.167601 
L 106.628331 271.47567 
L 109.694674 253.941809 
L 112.761018 269.568597 
L 115.827361 243.161949 
L 118.893705 256.992146 
L 121.960048 285.718239 
L 125.026392 270.793725 
L 128.092735 288.321028 
L 131.159079 286.642566 
L 134.225422 268.570948 
L 137.291766 283.506019 
L 140.358109 266.390605 
L 143.424453 292.452081 
L 146.490796 296.435489 
L 149.55714 290.829783 
L 152.623483 295.648657 
L 155.689827 296.005176 
L 158.75617 284.875313 
L 161.822514 295.175072 
L 164.888857 282.610193 
L 167.955201 277.127371 
L 171.021544 303.099929 
L 174.087888 303.938779 
L 177.154231 300.748265 
L 180.220575 294.872758 
L 183.286918 299.42805 
L 186.353262 293.50722 
L 189.419605 303.894473 
L 192.485949 295.600134 
L 195.552292 299.519298 
L 198.618636 301.899031 
L 201.684979 302.696546 
L 204.751323 300.726353 
L 207.817666 296.991605 
L 210.88401 292.893233 
L 213.950353 295.894709 
L 217.016697 298.628456 
L 220.08304 287.137425 
L 223.149384 297.37317 
L 226.215727 302.466444 
L 229.282071 291.813981 
L 232.348414 303.854634 
L 235.414758 304.838182 
L 238.481101 292.07408 
L 241.547445 302.981373 
L 244.613788 302.826724 
L 247.680132 295.509003 
L 250.746475 296.022444 
L 253.812818 303.034398 
L 256.879162 299.428623 
L 259.945505 303.140189 
L 263.011849 300.879178 
L 266.078192 304.089875 
L 269.144536 288.025561 
L 272.210879 300.919078 
L 275.277223 301.728381 
L 278.343566 304.033032 
L 281.40991 292.056828 
L 284.476253 302.991938 
L 287.542597 298.581133 
L 290.60894 300.14943 
L 293.675284 303.209979 
L 296.741627 298.466488 
L 299.807971 301.579247 
L 302.874314 303.952504 
L 305.940658 300.766879 
L 309.007001 301.479896 
L 312.073345 303.969901 
L 315.139688 299.386998 
L 318.206032 301.727679 
L 321.272375 302.74847 
L 324.338719 302.961242 
L 330.471406 303.931034 
L 333.537749 302.529547 
L 336.604093 298.718617 
L 339.670436 297.747649 
L 342.73678 302.314632 
L 345.803123 302.981645 
L 348.869467 299.306784 
L 351.93581 301.326472 
L 355.002154 304.086106 
L 358.068497 301.797943 
L 361.134841 301.691923 
L 364.201184 302.265788 
L 367.267528 304.390259 
L 370.333871 302.720316 
L 376.466558 302.623309 
L 379.532902 301.461284 
L 382.599245 302.757349 
L 385.665589 301.692725 
L 388.731932 302.697605 
L 391.798276 302.271669 
L 394.864619 301.204448 
L 397.930963 302.823376 
L 400.997306 303.772529 
L 404.06365 301.491703 
L 407.129993 302.472954 
L 410.196337 301.857619 
L 413.26268 302.719521 
L 416.329024 302.524888 
L 419.395367 301.365646 
L 422.46171 302.990705 
L 425.528054 303.147974 
L 428.594397 302.367609 
L 431.660741 300.262413 
L 434.727084 302.403561 
L 440.859771 302.634468 
L 443.926115 302.667463 
L 446.992458 302.080905 
L 450.058802 303.30799 
L 453.125145 302.708593 
L 456.191489 302.588619 
L 459.257832 302.08305 
L 462.324176 302.838121 
L 465.390519 302.983058 
L 468.456863 301.698864 
L 471.523206 302.283536 
L 474.58955 302.41042 
L 477.655893 303.014436 
L 480.722237 300.066001 
L 483.78858 303.67264 
L 486.854924 302.47622 
L 489.921267 302.627621 
L 492.987611 301.576927 
L 499.120298 302.95094 
L 502.186641 302.275011 
L 505.252985 302.853416 
L 508.319328 303.111669 
L 511.385672 302.540872 
L 514.452015 302.735923 
L 517.518359 302.486532 
L 520.584702 301.874227 
L 523.651046 302.558953 
L 526.717389 302.987746 
L 529.783733 301.467807 
L 532.850076 303.771347 
L 535.91642 300.104123 
L 538.982763 302.523488 
L 542.049107 300.809614 
L 542.049107 300.809614 
" clip-path="url(#p4ce4338ad5)" style="fill: none; stroke: #ff7f0e; stroke-width: 2; stroke-linecap: square"/>
   </g>
   <g id="patch_3">
    <path d="M 55.880346 318.04 
L 55.880346 27.6 
" style="fill: none; stroke: #000000; stroke-width: 0.8; stroke-linejoin: miter; stroke-linecap: square"/>
   </g>
   <g id="patch_4">
    <path d="M 565.2 318.04 
L 565.2 27.6 
" style="fill: none; stroke: #000000; stroke-width: 0.8; stroke-linejoin: miter; stroke-linecap: square"/>
   </g>
   <g id="patch_5">
    <path d="M 55.880346 318.04 
L 565.2 318.04 
" style="fill: none; stroke: #000000; stroke-width: 0.8; stroke-linejoin: miter; stroke-linecap: square"/>
   </g>
   <g id="patch_6">
    <path d="M 55.880346 27.6 
L 565.2 27.6 
" style="fill: none; stroke: #000000; stroke-width: 0.8; stroke-linejoin: miter; stroke-linecap: square"/>
   </g>
   <g id="text_14">
    <!-- Evolución del Loss por Época -->
    <g transform="translate(223.467048 21.6) scale(0.12 -0.12)">
     <defs>
      <path id="DejaVuSans-76" d="M 191 3500 
L 800 3500 
L 1894 563 
L 2988 3500 
L 3597 3500 
L 2284 0 
L 1503 0 
L 191 3500 
z
" transform="scale(0.015625)"/>
      <path id="DejaVuSans-6c" d="M 603 4863 
L 1178 4863 
L 1178 0 
L 603 0 
L 603 4863 
z
" transform="scale(0.015625)"/>
      <path id="DejaVuSans-75" d="M 544 1381 
L 544 3500 
L 1119 3500 
L 1119 1403 
Q 1119 906 1312 657 
Q 1506 409 1894 409 
Q 2359 409 2629 706 
Q 2900 1003 2900 1516 
L 2900 3500 
L 3475 3500 
L 3475 0 
L 2900 0 
L 2900 538 
Q 2691 219 2414 64 
Q 2138 -91 1772 -91 
Q 1169 -91 856 284 
Q 544 659 544 1381 
z
M 1991 3584 
L 1991 3584 
z
" transform="scale(0.015625)"/>
      <path id="DejaVuSans-69" d="M 603 3500 
L 1178 3500 
L 1178 0 
L 603 0 
L 603 3500 
z
M 603 4863 
L 1178 4863 
L 1178 4134 
L 603 4134 
L 603 4863 
z
" transform="scale(0.015625)"/>
      <path id="DejaVuSans-f3" d="M 1959 3097 
Q 1497 3097 1228 2736 
Q 959 2375 959 1747 
Q 959 1119 1226 758 
Q 1494 397 1959 397 
Q 2419 397 2687 759 
Q 2956 1122 2956 1747 
Q 2956 2369 2687 2733 
Q 2419 3097 1959 3097 
z
M 1959 3584 
Q 2709 3584 3137 3096 
Q 3566 2609 3566 1747 
Q 3566 888 3137 398 
Q 2709 -91 1959 -91 
Q 1206 -91 779 398 
Q 353 888 353 1747 
Q 353 2609 779 3096 
Q 1206 3584 1959 3584 
z
M 2394 5119 
L 3016 5119 
L 1997 3944 
L 1519 3944 
L 2394 5119 
z
" transform="scale(0.015625)"/>
      <path id="DejaVuSans-6e" d="M 3513 2113 
L 3513 0 
L 2938 0 
L 2938 2094 
Q 2938 2591 2744 2837 
Q 2550 3084 2163 3084 
Q 1697 3084 1428 2787 
Q 1159 2491 1159 1978 
L 1159 0 
L 581 0 
L 581 3500 
L 1159 3500 
L 1159 2956 
Q 1366 3272 1645 3428 
Q 1925 3584 2291 3584 
Q 2894 3584 3203 3211 
Q 3513 2838 3513 2113 
z
" transform="scale(0.015625)"/>
      <path id="DejaVuSans-64" d="M 2906 2969 
L 2906 4863 
L 3481 4863 
L 3481 0 
L 2906 0 
L 2906 525 
Q 2725 213 2448 61 
Q 2172 -91 1784 -91 
Q 1150 -91 751 415 
Q 353 922 353 1747 
Q 353 2572 751 3078 
Q 1150 3584 1784 3584 
Q 2172 3584 2448 3432 
Q 2725 3281 2906 2969 
z
M 947 1747 
Q 947 1113 1208 752 
Q 1469 391 1925 391 
Q 2381 391 2643 752 
Q 2906 1113 2906 1747 
Q 2906 2381 2643 2742 
Q 2381 3103 1925 3103 
Q 1469 3103 1208 2742 
Q 947 2381 947 1747 
z
" transform="scale(0.015625)"/>
      <path id="DejaVuSans-65" d="M 3597 1894 
L 3597 1613 
L 953 1613 
Q 991 1019 1311 708 
Q 1631 397 2203 397 
Q 2534 397 2845 478 
Q 3156 559 3463 722 
L 3463 178 
Q 3153 47 2828 -22 
Q 2503 -91 2169 -91 
Q 1331 -91 842 396 
Q 353 884 353 1716 
Q 353 2575 817 3079 
Q 1281 3584 2069 3584 
Q 2775 3584 3186 3129 
Q 3597 2675 3597 1894 
z
M 3022 2063 
Q 3016 2534 2758 2815 
Q 2500 3097 2075 3097 
Q 1594 3097 1305 2825 
Q 1016 2553 972 2059 
L 3022 2063 
z
" transform="scale(0.015625)"/>
      <path id="DejaVuSans-72" d="M 2631 2963 
Q 2534 3019 2420 3045 
Q 2306 3072 2169 3072 
Q 1681 3072 1420 2755 
Q 1159 2438 1159 1844 
L 1159 0 
L 581 0 
L 581 3500 
L 1159 3500 
L 1159 2956 
Q 1341 3275 1631 3429 
Q 1922 3584 2338 3584 
Q 2397 3584 2469 3576 
Q 2541 3569 2628 3553 
L 2631 2963 
z
" transform="scale(0.015625)"/>
      <path id="DejaVuSans-c9" d="M 628 4666 
L 3578 4666 
L 3578 4134 
L 1259 4134 
L 1259 2753 
L 3481 2753 
L 3481 2222 
L 1259 2222 
L 1259 531 
L 3634 531 
L 3634 0 
L 628 0 
L 628 4666 
z
M 2266 5935 
L 2844 5935 
L 2131 5110 
L 1653 5110 
L 2266 5935 
z
" transform="scale(0.015625)"/>
      <path id="DejaVuSans-61" d="M 2194 1759 
Q 1497 1759 1228 1600 
Q 959 1441 959 1056 
Q 959 750 1161 570 
Q 1363 391 1709 391 
Q 2188 391 2477 730 
Q 2766 1069 2766 1631 
L 2766 1759 
L 2194 1759 
z
M 3341 1997 
L 3341 0 
L 2766 0 
L 2766 531 
Q 2569 213 2275 61 
Q 1981 -91 1556 -91 
Q 1019 -91 701 211 
Q 384 513 384 1019 
Q 384 1609 779 1909 
Q 1175 2209 1959 2209 
L 2766 2209 
L 2766 2266 
Q 2766 2663 2505 2880 
Q 2244 3097 1772 3097 
Q 1472 3097 1187 3025 
Q 903 2953 641 2809 
L 641 3341 
Q 956 3463 1253 3523 
Q 1550 3584 1831 3584 
Q 2591 3584 2966 3190 
Q 3341 2797 3341 1997 
z
" transform="scale(0.015625)"/>
     </defs>
     <use xlink:href="#DejaVuSans-45"/>
     <use xlink:href="#DejaVuSans-76" transform="translate(63.183594 0)"/>
     <use xlink:href="#DejaVuSans-6f" transform="translate(122.363281 0)"/>
     <use xlink:href="#DejaVuSans-6c" transform="translate(183.544922 0)"/>
     <use xlink:href="#DejaVuSans-75" transform="translate(211.328125 0)"/>
     <use xlink:href="#DejaVuSans-63" transform="translate(274.707031 0)"/>
     <use xlink:href="#DejaVuSans-69" transform="translate(329.6875 0)"/>
     <use xlink:href="#DejaVuSans-f3" transform="translate(357.470703 0)"/>
     <use xlink:href="#DejaVuSans-6e" transform="translate(418.652344 0)"/>
     <use xlink:href="#DejaVuSans-20" transform="translate(482.03125 0)"/>
     <use xlink:href="#DejaVuSans-64" transform="translate(513.818359 0)"/>
     <use xlink:href="#DejaVuSans-65" transform="translate(577.294922 0)"/>
     <use xlink:href="#DejaVuSans-6c" transform="translate(638.818359 0)"/>
     <use xlink:href="#DejaVuSans-20" transform="translate(666.601562 0)"/>
     <use xlink:href="#DejaVuSans-4c" transform="translate(698.388672 0)"/>
     <use xlink:href="#DejaVuSans-6f" transform="translate(752.351562 0)"/>
     <use xlink:href="#DejaVuSans-73" transform="translate(813.533203 0)"/>
     <use xlink:href="#DejaVuSans-73" transform="translate(865.632812 0)"/>
     <use xlink:href="#DejaVuSans-20" transform="translate(917.732422 0)"/>
     <use xlink:href="#DejaVuSans-70" transform="translate(949.519531 0)"/>
     <use xlink:href="#DejaVuSans-6f" transform="translate(1012.996094 0)"/>
     <use xlink:href="#DejaVuSans-72" transform="translate(1074.177734 0)"/>
     <use xlink:href="#DejaVuSans-20" transform="translate(1115.291016 0)"/>
     <use xlink:href="#DejaVuSans-c9" transform="translate(1147.078125 0)"/>
     <use xlink:href="#DejaVuSans-70" transform="translate(1210.261719 0)"/>
     <use xlink:href="#DejaVuSans-6f" transform="translate(1273.738281 0)"/>
     <use xlink:href="#DejaVuSans-63" transform="translate(1334.919922 0)"/>
     <use xlink:href="#DejaVuSans-61" transform="translate(1389.900391 0)"/>
    </g>
   </g>
   <g id="legend_1">
    <g id="patch_7">
     <path d="M 453.839062 64.95625 
L 558.2 64.95625 
Q 560.2 64.95625 560.2 62.95625 
L 560.2 34.6 
Q 560.2 32.6 558.2 32.6 
L 453.839062 32.6 
Q 451.839062 32.6 451.839062 34.6 
L 451.839062 62.95625 
Q 451.839062 64.95625 453.839062 64.95625 
z
" style="fill: #ffffff; opacity: 0.8; stroke: #cccccc; stroke-linejoin: miter"/>
    </g>
    <g id="line2d_49">
     <path d="M 455.839062 40.698438 
L 465.839062 40.698438 
L 475.839062 40.698438 
" style="fill: none; stroke: #1f77b4; stroke-width: 2; stroke-linecap: square"/>
    </g>
    <g id="text_15">
     <!-- Train Loss -->
     <g transform="translate(483.839062 44.198438) scale(0.1 -0.1)">
      <defs>
       <path id="DejaVuSans-54" d="M -19 4666 
L 3928 4666 
L 3928 4134 
L 2272 4134 
L 2272 0 
L 1638 0 
L 1638 4134 
L -19 4134 
L -19 4666 
z
" transform="scale(0.015625)"/>
      </defs>
      <use xlink:href="#DejaVuSans-54"/>
      <use xlink:href="#DejaVuSans-72" transform="translate(46.333984 0)"/>
      <use xlink:href="#DejaVuSans-61" transform="translate(87.447266 0)"/>
      <use xlink:href="#DejaVuSans-69" transform="translate(148.726562 0)"/>
      <use xlink:href="#DejaVuSans-6e" transform="translate(176.509766 0)"/>
      <use xlink:href="#DejaVuSans-20" transform="translate(239.888672 0)"/>
      <use xlink:href="#DejaVuSans-4c" transform="translate(271.675781 0)"/>
      <use xlink:href="#DejaVuSans-6f" transform="translate(325.638672 0)"/>
      <use xlink:href="#DejaVuSans-73" transform="translate(386.820312 0)"/>
      <use xlink:href="#DejaVuSans-73" transform="translate(438.919922 0)"/>
     </g>
    </g>
    <g id="line2d_50">
     <path d="M 455.839062 55.376563 
L 465.839062 55.376563 
L 475.839062 55.376563 
" style="fill: none; stroke: #ff7f0e; stroke-width: 2; stroke-linecap: square"/>
    </g>
    <g id="text_16">
     <!-- Val Loss (MSE) -->
     <g transform="translate(483.839062 58.876563) scale(0.1 -0.1)">
      <defs>
       <path id="DejaVuSans-56" d="M 1831 0 
L 50 4666 
L 709 4666 
L 2188 738 
L 3669 4666 
L 4325 4666 
L 2547 0 
L 1831 0 
z
" transform="scale(0.015625)"/>
       <path id="DejaVuSans-28" d="M 1984 4856 
Q 1566 4138 1362 3434 
Q 1159 2731 1159 2009 
Q 1159 1288 1364 580 
Q 1569 -128 1984 -844 
L 1484 -844 
Q 1016 -109 783 600 
Q 550 1309 550 2009 
Q 550 2706 781 3412 
Q 1013 4119 1484 4856 
L 1984 4856 
z
" transform="scale(0.015625)"/>
       <path id="DejaVuSans-29" d="M 513 4856 
L 1013 4856 
Q 1481 4119 1714 3412 
Q 1947 2706 1947 2009 
Q 1947 1309 1714 600 
Q 1481 -109 1013 -844 
L 513 -844 
Q 928 -128 1133 580 
Q 1338 1288 1338 2009 
Q 1338 2731 1133 3434 
Q 928 4138 513 4856 
z
" transform="scale(0.015625)"/>
      </defs>
      <use xlink:href="#DejaVuSans-56"/>
      <use xlink:href="#DejaVuSans-61" transform="translate(60.658203 0)"/>
      <use xlink:href="#DejaVuSans-6c" transform="translate(121.9375 0)"/>
      <use xlink:href="#DejaVuSans-20" transform="translate(149.720703 0)"/>
      <use xlink:href="#DejaVuSans-4c" transform="translate(181.507812 0)"/>
      <use xlink:href="#DejaVuSans-6f" transform="translate(235.470703 0)"/>
      <use xlink:href="#DejaVuSans-73" transform="translate(296.652344 0)"/>
      <use xlink:href="#DejaVuSans-73" transform="translate(348.751953 0)"/>
      <use xlink:href="#DejaVuSans-20" transform="translate(400.851562 0)"/>
      <use xlink:href="#DejaVuSans-28" transform="translate(432.638672 0)"/>
      <use xlink:href="#DejaVuSans-4d" transform="translate(471.652344 0)"/>
      <use xlink:href="#DejaVuSans-53" transform="translate(557.931641 0)"/>
      <use xlink:href="#DejaVuSans-45" transform="translate(621.408203 0)"/>
      <use xlink:href="#DejaVuSans-29" transform="translate(684.591797 0)"/>
     </g>
    </g>
   </g>
  </g>
 </g>
 <defs>
  <clipPath id="p4ce4338ad5">
   <rect x="55.880346" y="27.6" width="509.319654" height="290.44"/>
  </clipPath>
 </defs>
</svg>
