<?xml version="1.0" encoding="utf-8" standalone="no"?>
<!DOCTYPE svg PUBLIC "-//W3C//DTD SVG 1.1//EN"
  "http://www.w3.org/Graphics/SVG/1.1/DTD/svg11.dtd">
<svg xmlns:xlink="http://www.w3.org/1999/xlink" width="432pt" height="288pt" viewBox="0 0 432 288" xmlns="http://www.w3.org/2000/svg" version="1.1">
 <metadata>
  <rdf:RDF xmlns:dc="http://purl.org/dc/elements/1.1/" xmlns:cc="http://creativecommons.org/ns#" xmlns:rdf="http://www.w3.org/1999/02/22-rdf-syntax-ns#">
   <cc:Work>
    <dc:type rdf:resource="http://purl.org/dc/dcmitype/StillImage"/>
    <dc:date>2025-06-24T09:36:04.328529</dc:date>
    <dc:format>image/svg+xml</dc:format>
    <dc:creator>
     <cc:Agent>
      <dc:title>Matplotlib v3.10.1, https://matplotlib.org/</dc:title>
     </cc:Agent>
    </dc:creator>
   </cc:Work>
  </rdf:RDF>
 </metadata>
 <defs>
  <style type="text/css">*{stroke-linejoin: round; stroke-linecap: butt}</style>
 </defs>
 <g id="figure_1">
  <g id="patch_1">
   <path d="M 0 288 
L 432 288 
L 432 0 
L 0 0 
z
" style="fill: #ffffff"/>
  </g>
  <g id="axes_1">
   <g id="patch_2">
    <path d="M 57.729489 241 
L 418.295826 241 
L 418.295826 26.88 
L 57.729489 26.88 
z
" style="fill: #ffffff"/>
   </g>
   <g id="matplotlib.axis_1">
    <g id="xtick_1">
     <g id="line2d_1">
      <path d="M 74.118868 241 
L 74.118868 26.88 
" clip-path="url(#p3f4940ae26)" style="fill: none; stroke: #b0b0b0; stroke-width: 0.8; stroke-linecap: square"/>
     </g>
     <g id="line2d_2">
      <defs>
       <path id="m2c6444e974" d="M 0 0 
L 0 3.5 
" style="stroke: #000000; stroke-width: 0.8"/>
      </defs>
      <g>
       <use xlink:href="#m2c6444e974" x="74.118868" y="241" style="stroke: #000000; stroke-width: 0.8"/>
      </g>
     </g>
     <g id="text_1">
      <!-- 0 -->
      <g transform="translate(71.118868 256.3325) scale(0.12 -0.12)">
       <defs>
        <path id="TimesNewRomanPSMT-30" d="M 231 2094 
Q 231 2819 450 3342 
Q 669 3866 1031 4122 
Q 1313 4325 1613 4325 
Q 2100 4325 2488 3828 
Q 2972 3213 2972 2159 
Q 2972 1422 2759 906 
Q 2547 391 2217 158 
Q 1888 -75 1581 -75 
Q 975 -75 572 641 
Q 231 1244 231 2094 
z
M 844 2016 
Q 844 1141 1059 588 
Q 1238 122 1591 122 
Q 1759 122 1940 273 
Q 2122 425 2216 781 
Q 2359 1319 2359 2297 
Q 2359 3022 2209 3506 
Q 2097 3866 1919 4016 
Q 1791 4119 1609 4119 
Q 1397 4119 1231 3928 
Q 1006 3669 925 3112 
Q 844 2556 844 2016 
z
" transform="scale(0.015625)"/>
       </defs>
       <use xlink:href="#TimesNewRomanPSMT-30"/>
      </g>
     </g>
    </g>
    <g id="xtick_2">
     <g id="line2d_3">
      <path d="M 111.367456 241 
L 111.367456 26.88 
" clip-path="url(#p3f4940ae26)" style="fill: none; stroke: #b0b0b0; stroke-width: 0.8; stroke-linecap: square"/>
     </g>
     <g id="line2d_4">
      <g>
       <use xlink:href="#m2c6444e974" x="111.367456" y="241" style="stroke: #000000; stroke-width: 0.8"/>
      </g>
     </g>
     <g id="text_2">
      <!-- 30 -->
      <g transform="translate(105.367456 256.3325) scale(0.12 -0.12)">
       <defs>
        <path id="TimesNewRomanPSMT-33" d="M 325 3431 
Q 506 3859 782 4092 
Q 1059 4325 1472 4325 
Q 1981 4325 2253 3994 
Q 2459 3747 2459 3466 
Q 2459 3003 1878 2509 
Q 2269 2356 2469 2072 
Q 2669 1788 2669 1403 
Q 2669 853 2319 450 
Q 1863 -75 997 -75 
Q 569 -75 414 31 
Q 259 138 259 259 
Q 259 350 332 419 
Q 406 488 509 488 
Q 588 488 669 463 
Q 722 447 909 348 
Q 1097 250 1169 231 
Q 1284 197 1416 197 
Q 1734 197 1970 444 
Q 2206 691 2206 1028 
Q 2206 1275 2097 1509 
Q 2016 1684 1919 1775 
Q 1784 1900 1550 2001 
Q 1316 2103 1072 2103 
L 972 2103 
L 972 2197 
Q 1219 2228 1467 2375 
Q 1716 2522 1828 2728 
Q 1941 2934 1941 3181 
Q 1941 3503 1739 3701 
Q 1538 3900 1238 3900 
Q 753 3900 428 3381 
L 325 3431 
z
" transform="scale(0.015625)"/>
       </defs>
       <use xlink:href="#TimesNewRomanPSMT-33"/>
       <use xlink:href="#TimesNewRomanPSMT-30" transform="translate(50 0)"/>
      </g>
     </g>
    </g>
    <g id="xtick_3">
     <g id="line2d_5">
      <path d="M 148.616045 241 
L 148.616045 26.88 
" clip-path="url(#p3f4940ae26)" style="fill: none; stroke: #b0b0b0; stroke-width: 0.8; stroke-linecap: square"/>
     </g>
     <g id="line2d_6">
      <g>
       <use xlink:href="#m2c6444e974" x="148.616045" y="241" style="stroke: #000000; stroke-width: 0.8"/>
      </g>
     </g>
     <g id="text_3">
      <!-- 60 -->
      <g transform="translate(142.616045 256.3325) scale(0.12 -0.12)">
       <defs>
        <path id="TimesNewRomanPSMT-36" d="M 2869 4325 
L 2869 4209 
Q 2456 4169 2195 4045 
Q 1934 3922 1679 3669 
Q 1425 3416 1258 3105 
Q 1091 2794 978 2366 
Q 1428 2675 1881 2675 
Q 2316 2675 2634 2325 
Q 2953 1975 2953 1425 
Q 2953 894 2631 456 
Q 2244 -75 1606 -75 
Q 1172 -75 869 213 
Q 275 772 275 1663 
Q 275 2231 503 2743 
Q 731 3256 1154 3653 
Q 1578 4050 1965 4187 
Q 2353 4325 2688 4325 
L 2869 4325 
z
M 925 2138 
Q 869 1716 869 1456 
Q 869 1156 980 804 
Q 1091 453 1309 247 
Q 1469 100 1697 100 
Q 1969 100 2183 356 
Q 2397 613 2397 1088 
Q 2397 1622 2184 2012 
Q 1972 2403 1581 2403 
Q 1463 2403 1327 2353 
Q 1191 2303 925 2138 
z
" transform="scale(0.015625)"/>
       </defs>
       <use xlink:href="#TimesNewRomanPSMT-36"/>
       <use xlink:href="#TimesNewRomanPSMT-30" transform="translate(50 0)"/>
      </g>
     </g>
    </g>
    <g id="xtick_4">
     <g id="line2d_7">
      <path d="M 185.864634 241 
L 185.864634 26.88 
" clip-path="url(#p3f4940ae26)" style="fill: none; stroke: #b0b0b0; stroke-width: 0.8; stroke-linecap: square"/>
     </g>
     <g id="line2d_8">
      <g>
       <use xlink:href="#m2c6444e974" x="185.864634" y="241" style="stroke: #000000; stroke-width: 0.8"/>
      </g>
     </g>
     <g id="text_4">
      <!-- 90 -->
      <g transform="translate(179.864634 256.3325) scale(0.12 -0.12)">
       <defs>
        <path id="TimesNewRomanPSMT-39" d="M 338 -88 
L 338 28 
Q 744 34 1094 217 
Q 1444 400 1770 856 
Q 2097 1313 2225 1859 
Q 1734 1544 1338 1544 
Q 891 1544 572 1889 
Q 253 2234 253 2806 
Q 253 3363 572 3797 
Q 956 4325 1575 4325 
Q 2097 4325 2469 3894 
Q 2925 3359 2925 2575 
Q 2925 1869 2578 1258 
Q 2231 647 1613 244 
Q 1109 -88 516 -88 
L 338 -88 
z
M 2275 2091 
Q 2331 2497 2331 2741 
Q 2331 3044 2228 3395 
Q 2125 3747 1936 3934 
Q 1747 4122 1506 4122 
Q 1228 4122 1018 3872 
Q 809 3622 809 3128 
Q 809 2469 1088 2097 
Q 1291 1828 1588 1828 
Q 1731 1828 1928 1897 
Q 2125 1966 2275 2091 
z
" transform="scale(0.015625)"/>
       </defs>
       <use xlink:href="#TimesNewRomanPSMT-39"/>
       <use xlink:href="#TimesNewRomanPSMT-30" transform="translate(50 0)"/>
      </g>
     </g>
    </g>
    <g id="xtick_5">
     <g id="line2d_9">
      <path d="M 223.113222 241 
L 223.113222 26.88 
" clip-path="url(#p3f4940ae26)" style="fill: none; stroke: #b0b0b0; stroke-width: 0.8; stroke-linecap: square"/>
     </g>
     <g id="line2d_10">
      <g>
       <use xlink:href="#m2c6444e974" x="223.113222" y="241" style="stroke: #000000; stroke-width: 0.8"/>
      </g>
     </g>
     <g id="text_5">
      <!-- 120 -->
      <g transform="translate(214.113222 256.3325) scale(0.12 -0.12)">
       <defs>
        <path id="TimesNewRomanPSMT-31" d="M 750 3822 
L 1781 4325 
L 1884 4325 
L 1884 747 
Q 1884 391 1914 303 
Q 1944 216 2037 169 
Q 2131 122 2419 116 
L 2419 0 
L 825 0 
L 825 116 
Q 1125 122 1212 167 
Q 1300 213 1334 289 
Q 1369 366 1369 747 
L 1369 3034 
Q 1369 3497 1338 3628 
Q 1316 3728 1258 3775 
Q 1200 3822 1119 3822 
Q 1003 3822 797 3725 
L 750 3822 
z
" transform="scale(0.015625)"/>
        <path id="TimesNewRomanPSMT-32" d="M 2934 816 
L 2638 0 
L 138 0 
L 138 116 
Q 1241 1122 1691 1759 
Q 2141 2397 2141 2925 
Q 2141 3328 1894 3587 
Q 1647 3847 1303 3847 
Q 991 3847 742 3664 
Q 494 3481 375 3128 
L 259 3128 
Q 338 3706 661 4015 
Q 984 4325 1469 4325 
Q 1984 4325 2329 3994 
Q 2675 3663 2675 3213 
Q 2675 2891 2525 2569 
Q 2294 2063 1775 1497 
Q 997 647 803 472 
L 1909 472 
Q 2247 472 2383 497 
Q 2519 522 2628 598 
Q 2738 675 2819 816 
L 2934 816 
z
" transform="scale(0.015625)"/>
       </defs>
       <use xlink:href="#TimesNewRomanPSMT-31"/>
       <use xlink:href="#TimesNewRomanPSMT-32" transform="translate(50 0)"/>
       <use xlink:href="#TimesNewRomanPSMT-30" transform="translate(100 0)"/>
      </g>
     </g>
    </g>
    <g id="xtick_6">
     <g id="line2d_11">
      <path d="M 260.361811 241 
L 260.361811 26.88 
" clip-path="url(#p3f4940ae26)" style="fill: none; stroke: #b0b0b0; stroke-width: 0.8; stroke-linecap: square"/>
     </g>
     <g id="line2d_12">
      <g>
       <use xlink:href="#m2c6444e974" x="260.361811" y="241" style="stroke: #000000; stroke-width: 0.8"/>
      </g>
     </g>
     <g id="text_6">
      <!-- 150 -->
      <g transform="translate(251.361811 256.3325) scale(0.12 -0.12)">
       <defs>
        <path id="TimesNewRomanPSMT-35" d="M 2778 4238 
L 2534 3706 
L 1259 3706 
L 981 3138 
Q 1809 3016 2294 2522 
Q 2709 2097 2709 1522 
Q 2709 1188 2573 903 
Q 2438 619 2231 419 
Q 2025 219 1772 97 
Q 1413 -75 1034 -75 
Q 653 -75 479 54 
Q 306 184 306 341 
Q 306 428 378 495 
Q 450 563 559 563 
Q 641 563 702 538 
Q 763 513 909 409 
Q 1144 247 1384 247 
Q 1750 247 2026 523 
Q 2303 800 2303 1197 
Q 2303 1581 2056 1914 
Q 1809 2247 1375 2428 
Q 1034 2569 447 2591 
L 1259 4238 
L 2778 4238 
z
" transform="scale(0.015625)"/>
       </defs>
       <use xlink:href="#TimesNewRomanPSMT-31"/>
       <use xlink:href="#TimesNewRomanPSMT-35" transform="translate(50 0)"/>
       <use xlink:href="#TimesNewRomanPSMT-30" transform="translate(100 0)"/>
      </g>
     </g>
    </g>
    <g id="xtick_7">
     <g id="line2d_13">
      <path d="M 297.610399 241 
L 297.610399 26.88 
" clip-path="url(#p3f4940ae26)" style="fill: none; stroke: #b0b0b0; stroke-width: 0.8; stroke-linecap: square"/>
     </g>
     <g id="line2d_14">
      <g>
       <use xlink:href="#m2c6444e974" x="297.610399" y="241" style="stroke: #000000; stroke-width: 0.8"/>
      </g>
     </g>
     <g id="text_7">
      <!-- 180 -->
      <g transform="translate(288.610399 256.3325) scale(0.12 -0.12)">
       <defs>
        <path id="TimesNewRomanPSMT-38" d="M 1228 2134 
Q 725 2547 579 2797 
Q 434 3047 434 3316 
Q 434 3728 753 4026 
Q 1072 4325 1600 4325 
Q 2113 4325 2425 4047 
Q 2738 3769 2738 3413 
Q 2738 3175 2569 2928 
Q 2400 2681 1866 2347 
Q 2416 1922 2594 1678 
Q 2831 1359 2831 1006 
Q 2831 559 2490 242 
Q 2150 -75 1597 -75 
Q 994 -75 656 303 
Q 388 606 388 966 
Q 388 1247 577 1523 
Q 766 1800 1228 2134 
z
M 1719 2469 
Q 2094 2806 2194 3001 
Q 2294 3197 2294 3444 
Q 2294 3772 2109 3958 
Q 1925 4144 1606 4144 
Q 1288 4144 1088 3959 
Q 888 3775 888 3528 
Q 888 3366 970 3203 
Q 1053 3041 1206 2894 
L 1719 2469 
z
M 1375 2016 
Q 1116 1797 991 1539 
Q 866 1281 866 981 
Q 866 578 1086 336 
Q 1306 94 1647 94 
Q 1984 94 2187 284 
Q 2391 475 2391 747 
Q 2391 972 2272 1150 
Q 2050 1481 1375 2016 
z
" transform="scale(0.015625)"/>
       </defs>
       <use xlink:href="#TimesNewRomanPSMT-31"/>
       <use xlink:href="#TimesNewRomanPSMT-38" transform="translate(50 0)"/>
       <use xlink:href="#TimesNewRomanPSMT-30" transform="translate(100 0)"/>
      </g>
     </g>
    </g>
    <g id="xtick_8">
     <g id="line2d_15">
      <path d="M 334.858988 241 
L 334.858988 26.88 
" clip-path="url(#p3f4940ae26)" style="fill: none; stroke: #b0b0b0; stroke-width: 0.8; stroke-linecap: square"/>
     </g>
     <g id="line2d_16">
      <g>
       <use xlink:href="#m2c6444e974" x="334.858988" y="241" style="stroke: #000000; stroke-width: 0.8"/>
      </g>
     </g>
     <g id="text_8">
      <!-- 210 -->
      <g transform="translate(325.858988 256.3325) scale(0.12 -0.12)">
       <use xlink:href="#TimesNewRomanPSMT-32"/>
       <use xlink:href="#TimesNewRomanPSMT-31" transform="translate(50 0)"/>
       <use xlink:href="#TimesNewRomanPSMT-30" transform="translate(100 0)"/>
      </g>
     </g>
    </g>
    <g id="xtick_9">
     <g id="line2d_17">
      <path d="M 372.107577 241 
L 372.107577 26.88 
" clip-path="url(#p3f4940ae26)" style="fill: none; stroke: #b0b0b0; stroke-width: 0.8; stroke-linecap: square"/>
     </g>
     <g id="line2d_18">
      <g>
       <use xlink:href="#m2c6444e974" x="372.107577" y="241" style="stroke: #000000; stroke-width: 0.8"/>
      </g>
     </g>
     <g id="text_9">
      <!-- 240 -->
      <g transform="translate(363.107577 256.3325) scale(0.12 -0.12)">
       <defs>
        <path id="TimesNewRomanPSMT-34" d="M 2978 1563 
L 2978 1119 
L 2409 1119 
L 2409 0 
L 1894 0 
L 1894 1119 
L 100 1119 
L 100 1519 
L 2066 4325 
L 2409 4325 
L 2409 1563 
L 2978 1563 
z
M 1894 1563 
L 1894 3666 
L 406 1563 
L 1894 1563 
z
" transform="scale(0.015625)"/>
       </defs>
       <use xlink:href="#TimesNewRomanPSMT-32"/>
       <use xlink:href="#TimesNewRomanPSMT-34" transform="translate(50 0)"/>
       <use xlink:href="#TimesNewRomanPSMT-30" transform="translate(100 0)"/>
      </g>
     </g>
    </g>
    <g id="xtick_10">
     <g id="line2d_19">
      <path d="M 409.356165 241 
L 409.356165 26.88 
" clip-path="url(#p3f4940ae26)" style="fill: none; stroke: #b0b0b0; stroke-width: 0.8; stroke-linecap: square"/>
     </g>
     <g id="line2d_20">
      <g>
       <use xlink:href="#m2c6444e974" x="409.356165" y="241" style="stroke: #000000; stroke-width: 0.8"/>
      </g>
     </g>
     <g id="text_10">
      <!-- 270 -->
      <g transform="translate(400.356165 256.3325) scale(0.12 -0.12)">
       <defs>
        <path id="TimesNewRomanPSMT-37" d="M 644 4238 
L 2916 4238 
L 2916 4119 
L 1503 -88 
L 1153 -88 
L 2419 3728 
L 1253 3728 
Q 900 3728 750 3644 
Q 488 3500 328 3200 
L 238 3234 
L 644 4238 
z
" transform="scale(0.015625)"/>
       </defs>
       <use xlink:href="#TimesNewRomanPSMT-32"/>
       <use xlink:href="#TimesNewRomanPSMT-37" transform="translate(50 0)"/>
       <use xlink:href="#TimesNewRomanPSMT-30" transform="translate(100 0)"/>
      </g>
     </g>
    </g>
    <g id="text_11">
     <!-- Epoch -->
     <g transform="translate(222.684533 271.231875) scale(0.12 -0.12)">
      <defs>
       <path id="TimesNewRomanPSMT-45" d="M 1338 4006 
L 1338 2331 
L 2269 2331 
Q 2631 2331 2753 2441 
Q 2916 2584 2934 2947 
L 3050 2947 
L 3050 1472 
L 2934 1472 
Q 2891 1781 2847 1869 
Q 2791 1978 2662 2040 
Q 2534 2103 2269 2103 
L 1338 2103 
L 1338 706 
Q 1338 425 1363 364 
Q 1388 303 1450 267 
Q 1513 231 1688 231 
L 2406 231 
Q 2766 231 2928 281 
Q 3091 331 3241 478 
Q 3434 672 3638 1063 
L 3763 1063 
L 3397 0 
L 131 0 
L 131 116 
L 281 116 
Q 431 116 566 188 
Q 666 238 702 338 
Q 738 438 738 747 
L 738 3500 
Q 738 3903 656 3997 
Q 544 4122 281 4122 
L 131 4122 
L 131 4238 
L 3397 4238 
L 3444 3309 
L 3322 3309 
Q 3256 3644 3176 3769 
Q 3097 3894 2941 3959 
Q 2816 4006 2500 4006 
L 1338 4006 
z
" transform="scale(0.015625)"/>
       <path id="TimesNewRomanPSMT-70" d="M -6 2578 
L 875 2934 
L 994 2934 
L 994 2266 
Q 1216 2644 1439 2795 
Q 1663 2947 1909 2947 
Q 2341 2947 2628 2609 
Q 2981 2197 2981 1534 
Q 2981 794 2556 309 
Q 2206 -88 1675 -88 
Q 1444 -88 1275 -22 
Q 1150 25 994 166 
L 994 -706 
Q 994 -1000 1030 -1079 
Q 1066 -1159 1155 -1206 
Q 1244 -1253 1478 -1253 
L 1478 -1369 
L -22 -1369 
L -22 -1253 
L 56 -1253 
Q 228 -1256 350 -1188 
Q 409 -1153 442 -1076 
Q 475 -1000 475 -688 
L 475 2019 
Q 475 2297 450 2372 
Q 425 2447 370 2484 
Q 316 2522 222 2522 
Q 147 2522 31 2478 
L -6 2578 
z
M 994 2081 
L 994 1013 
Q 994 666 1022 556 
Q 1066 375 1236 237 
Q 1406 100 1666 100 
Q 1978 100 2172 344 
Q 2425 663 2425 1241 
Q 2425 1897 2138 2250 
Q 1938 2494 1663 2494 
Q 1513 2494 1366 2419 
Q 1253 2363 994 2081 
z
" transform="scale(0.015625)"/>
       <path id="TimesNewRomanPSMT-6f" d="M 1600 2947 
Q 2250 2947 2644 2453 
Q 2978 2031 2978 1484 
Q 2978 1100 2793 706 
Q 2609 313 2286 112 
Q 1963 -88 1566 -88 
Q 919 -88 538 428 
Q 216 863 216 1403 
Q 216 1797 411 2186 
Q 606 2575 925 2761 
Q 1244 2947 1600 2947 
z
M 1503 2744 
Q 1338 2744 1170 2645 
Q 1003 2547 900 2300 
Q 797 2053 797 1666 
Q 797 1041 1045 587 
Q 1294 134 1700 134 
Q 2003 134 2200 384 
Q 2397 634 2397 1244 
Q 2397 2006 2069 2444 
Q 1847 2744 1503 2744 
z
" transform="scale(0.015625)"/>
       <path id="TimesNewRomanPSMT-63" d="M 2631 1088 
Q 2516 522 2178 217 
Q 1841 -88 1431 -88 
Q 944 -88 581 321 
Q 219 731 219 1428 
Q 219 2103 620 2525 
Q 1022 2947 1584 2947 
Q 2006 2947 2278 2723 
Q 2550 2500 2550 2259 
Q 2550 2141 2473 2067 
Q 2397 1994 2259 1994 
Q 2075 1994 1981 2113 
Q 1928 2178 1911 2362 
Q 1894 2547 1784 2644 
Q 1675 2738 1481 2738 
Q 1169 2738 978 2506 
Q 725 2200 725 1697 
Q 725 1184 976 792 
Q 1228 400 1656 400 
Q 1963 400 2206 609 
Q 2378 753 2541 1131 
L 2631 1088 
z
" transform="scale(0.015625)"/>
       <path id="TimesNewRomanPSMT-68" d="M 1041 4444 
L 1041 2350 
Q 1388 2731 1591 2839 
Q 1794 2947 1997 2947 
Q 2241 2947 2416 2812 
Q 2591 2678 2675 2391 
Q 2734 2191 2734 1659 
L 2734 647 
Q 2734 375 2778 275 
Q 2809 200 2884 156 
Q 2959 113 3159 113 
L 3159 0 
L 1753 0 
L 1753 113 
L 1819 113 
Q 2019 113 2097 173 
Q 2175 234 2206 353 
Q 2216 403 2216 647 
L 2216 1659 
Q 2216 2128 2167 2275 
Q 2119 2422 2012 2495 
Q 1906 2569 1756 2569 
Q 1603 2569 1437 2487 
Q 1272 2406 1041 2159 
L 1041 647 
Q 1041 353 1073 281 
Q 1106 209 1195 161 
Q 1284 113 1503 113 
L 1503 0 
L 84 0 
L 84 113 
Q 275 113 384 172 
Q 447 203 484 290 
Q 522 378 522 647 
L 522 3238 
Q 522 3728 498 3840 
Q 475 3953 426 3993 
Q 378 4034 297 4034 
Q 231 4034 84 3984 
L 41 4094 
L 897 4444 
L 1041 4444 
z
" transform="scale(0.015625)"/>
      </defs>
      <use xlink:href="#TimesNewRomanPSMT-45"/>
      <use xlink:href="#TimesNewRomanPSMT-70" transform="translate(61.083984 0)"/>
      <use xlink:href="#TimesNewRomanPSMT-6f" transform="translate(111.083984 0)"/>
      <use xlink:href="#TimesNewRomanPSMT-63" transform="translate(161.083984 0)"/>
      <use xlink:href="#TimesNewRomanPSMT-68" transform="translate(205.46875 0)"/>
     </g>
    </g>
   </g>
   <g id="matplotlib.axis_2">
    <g id="ytick_1">
     <g id="line2d_21">
      <path d="M 57.729489 213.188776 
L 418.295826 213.188776 
" clip-path="url(#p3f4940ae26)" style="fill: none; stroke: #b0b0b0; stroke-width: 0.8; stroke-linecap: square"/>
     </g>
     <g id="line2d_22">
      <defs>
       <path id="m347f7139be" d="M 0 0 
L -3.5 0 
" style="stroke: #000000; stroke-width: 0.8"/>
      </defs>
      <g>
       <use xlink:href="#m347f7139be" x="57.729489" y="213.188776" style="stroke: #000000; stroke-width: 0.8"/>
      </g>
     </g>
     <g id="text_12">
      <!-- $\mathdefault{10^{-4}}$ -->
      <g transform="translate(29.009489 218.505339) scale(0.12 -0.12)">
       <defs>
        <path id="TimesNewRomanPSMT-2212" d="M 3484 2000 
L 116 2000 
L 116 2256 
L 3484 2256 
L 3484 2000 
z
" transform="scale(0.015625)"/>
       </defs>
       <use xlink:href="#TimesNewRomanPSMT-31" transform="translate(0 0.582813)"/>
       <use xlink:href="#TimesNewRomanPSMT-30" transform="translate(50 0.582813)"/>
       <use xlink:href="#TimesNewRomanPSMT-2212" transform="translate(101.502813 60.695312) scale(0.7)"/>
       <use xlink:href="#TimesNewRomanPSMT-34" transform="translate(140.980352 60.695312) scale(0.7)"/>
      </g>
     </g>
    </g>
    <g id="ytick_2">
     <g id="line2d_23">
      <path d="M 57.729489 164.205633 
L 418.295826 164.205633 
" clip-path="url(#p3f4940ae26)" style="fill: none; stroke: #b0b0b0; stroke-width: 0.8; stroke-linecap: square"/>
     </g>
     <g id="line2d_24">
      <g>
       <use xlink:href="#m347f7139be" x="57.729489" y="164.205633" style="stroke: #000000; stroke-width: 0.8"/>
      </g>
     </g>
     <g id="text_13">
      <!-- $\mathdefault{10^{-3}}$ -->
      <g transform="translate(29.009489 169.522196) scale(0.12 -0.12)">
       <use xlink:href="#TimesNewRomanPSMT-31" transform="translate(0 0.582813)"/>
       <use xlink:href="#TimesNewRomanPSMT-30" transform="translate(50 0.582813)"/>
       <use xlink:href="#TimesNewRomanPSMT-2212" transform="translate(101.502813 60.695312) scale(0.7)"/>
       <use xlink:href="#TimesNewRomanPSMT-33" transform="translate(140.980352 60.695312) scale(0.7)"/>
      </g>
     </g>
    </g>
    <g id="ytick_3">
     <g id="line2d_25">
      <path d="M 57.729489 115.22249 
L 418.295826 115.22249 
" clip-path="url(#p3f4940ae26)" style="fill: none; stroke: #b0b0b0; stroke-width: 0.8; stroke-linecap: square"/>
     </g>
     <g id="line2d_26">
      <g>
       <use xlink:href="#m347f7139be" x="57.729489" y="115.22249" style="stroke: #000000; stroke-width: 0.8"/>
      </g>
     </g>
     <g id="text_14">
      <!-- $\mathdefault{10^{-2}}$ -->
      <g transform="translate(29.009489 120.539053) scale(0.12 -0.12)">
       <use xlink:href="#TimesNewRomanPSMT-31" transform="translate(0 0.582813)"/>
       <use xlink:href="#TimesNewRomanPSMT-30" transform="translate(50 0.582813)"/>
       <use xlink:href="#TimesNewRomanPSMT-2212" transform="translate(101.502813 60.695312) scale(0.7)"/>
       <use xlink:href="#TimesNewRomanPSMT-32" transform="translate(140.980352 60.695312) scale(0.7)"/>
      </g>
     </g>
    </g>
    <g id="ytick_4">
     <g id="line2d_27">
      <path d="M 57.729489 66.239347 
L 418.295826 66.239347 
" clip-path="url(#p3f4940ae26)" style="fill: none; stroke: #b0b0b0; stroke-width: 0.8; stroke-linecap: square"/>
     </g>
     <g id="line2d_28">
      <g>
       <use xlink:href="#m347f7139be" x="57.729489" y="66.239347" style="stroke: #000000; stroke-width: 0.8"/>
      </g>
     </g>
     <g id="text_15">
      <!-- $\mathdefault{10^{-1}}$ -->
      <g transform="translate(29.009489 71.555909) scale(0.12 -0.12)">
       <use xlink:href="#TimesNewRomanPSMT-31" transform="translate(0 0.582813)"/>
       <use xlink:href="#TimesNewRomanPSMT-30" transform="translate(50 0.582813)"/>
       <use xlink:href="#TimesNewRomanPSMT-2212" transform="translate(101.502813 60.695312) scale(0.7)"/>
       <use xlink:href="#TimesNewRomanPSMT-31" transform="translate(140.980352 60.695312) scale(0.7)"/>
      </g>
     </g>
    </g>
    <g id="ytick_5">
     <g id="line2d_29">
      <defs>
       <path id="m401f6a4b2e" d="M 0 0 
L -2 0 
" style="stroke: #000000; stroke-width: 0.6"/>
      </defs>
      <g>
       <use xlink:href="#m401f6a4b2e" x="57.729489" y="238.801021" style="stroke: #000000; stroke-width: 0.6"/>
      </g>
     </g>
    </g>
    <g id="ytick_6">
     <g id="line2d_30">
      <g>
       <use xlink:href="#m401f6a4b2e" x="57.729489" y="232.681129" style="stroke: #000000; stroke-width: 0.6"/>
      </g>
     </g>
    </g>
    <g id="ytick_7">
     <g id="line2d_31">
      <g>
       <use xlink:href="#m401f6a4b2e" x="57.729489" y="227.934172" style="stroke: #000000; stroke-width: 0.6"/>
      </g>
     </g>
    </g>
    <g id="ytick_8">
     <g id="line2d_32">
      <g>
       <use xlink:href="#m401f6a4b2e" x="57.729489" y="224.055625" style="stroke: #000000; stroke-width: 0.6"/>
      </g>
     </g>
    </g>
    <g id="ytick_9">
     <g id="line2d_33">
      <g>
       <use xlink:href="#m401f6a4b2e" x="57.729489" y="220.776361" style="stroke: #000000; stroke-width: 0.6"/>
      </g>
     </g>
    </g>
    <g id="ytick_10">
     <g id="line2d_34">
      <g>
       <use xlink:href="#m401f6a4b2e" x="57.729489" y="217.935733" style="stroke: #000000; stroke-width: 0.6"/>
      </g>
     </g>
    </g>
    <g id="ytick_11">
     <g id="line2d_35">
      <g>
       <use xlink:href="#m401f6a4b2e" x="57.729489" y="215.430122" style="stroke: #000000; stroke-width: 0.6"/>
      </g>
     </g>
    </g>
    <g id="ytick_12">
     <g id="line2d_36">
      <g>
       <use xlink:href="#m401f6a4b2e" x="57.729489" y="198.443381" style="stroke: #000000; stroke-width: 0.6"/>
      </g>
     </g>
    </g>
    <g id="ytick_13">
     <g id="line2d_37">
      <g>
       <use xlink:href="#m401f6a4b2e" x="57.729489" y="189.817878" style="stroke: #000000; stroke-width: 0.6"/>
      </g>
     </g>
    </g>
    <g id="ytick_14">
     <g id="line2d_38">
      <g>
       <use xlink:href="#m401f6a4b2e" x="57.729489" y="183.697986" style="stroke: #000000; stroke-width: 0.6"/>
      </g>
     </g>
    </g>
    <g id="ytick_15">
     <g id="line2d_39">
      <g>
       <use xlink:href="#m401f6a4b2e" x="57.729489" y="178.951029" style="stroke: #000000; stroke-width: 0.6"/>
      </g>
     </g>
    </g>
    <g id="ytick_16">
     <g id="line2d_40">
      <g>
       <use xlink:href="#m401f6a4b2e" x="57.729489" y="175.072482" style="stroke: #000000; stroke-width: 0.6"/>
      </g>
     </g>
    </g>
    <g id="ytick_17">
     <g id="line2d_41">
      <g>
       <use xlink:href="#m401f6a4b2e" x="57.729489" y="171.793218" style="stroke: #000000; stroke-width: 0.6"/>
      </g>
     </g>
    </g>
    <g id="ytick_18">
     <g id="line2d_42">
      <g>
       <use xlink:href="#m401f6a4b2e" x="57.729489" y="168.95259" style="stroke: #000000; stroke-width: 0.6"/>
      </g>
     </g>
    </g>
    <g id="ytick_19">
     <g id="line2d_43">
      <g>
       <use xlink:href="#m401f6a4b2e" x="57.729489" y="166.446979" style="stroke: #000000; stroke-width: 0.6"/>
      </g>
     </g>
    </g>
    <g id="ytick_20">
     <g id="line2d_44">
      <g>
       <use xlink:href="#m401f6a4b2e" x="57.729489" y="149.460238" style="stroke: #000000; stroke-width: 0.6"/>
      </g>
     </g>
    </g>
    <g id="ytick_21">
     <g id="line2d_45">
      <g>
       <use xlink:href="#m401f6a4b2e" x="57.729489" y="140.834735" style="stroke: #000000; stroke-width: 0.6"/>
      </g>
     </g>
    </g>
    <g id="ytick_22">
     <g id="line2d_46">
      <g>
       <use xlink:href="#m401f6a4b2e" x="57.729489" y="134.714842" style="stroke: #000000; stroke-width: 0.6"/>
      </g>
     </g>
    </g>
    <g id="ytick_23">
     <g id="line2d_47">
      <g>
       <use xlink:href="#m401f6a4b2e" x="57.729489" y="129.967885" style="stroke: #000000; stroke-width: 0.6"/>
      </g>
     </g>
    </g>
    <g id="ytick_24">
     <g id="line2d_48">
      <g>
       <use xlink:href="#m401f6a4b2e" x="57.729489" y="126.089339" style="stroke: #000000; stroke-width: 0.6"/>
      </g>
     </g>
    </g>
    <g id="ytick_25">
     <g id="line2d_49">
      <g>
       <use xlink:href="#m401f6a4b2e" x="57.729489" y="122.810075" style="stroke: #000000; stroke-width: 0.6"/>
      </g>
     </g>
    </g>
    <g id="ytick_26">
     <g id="line2d_50">
      <g>
       <use xlink:href="#m401f6a4b2e" x="57.729489" y="119.969447" style="stroke: #000000; stroke-width: 0.6"/>
      </g>
     </g>
    </g>
    <g id="ytick_27">
     <g id="line2d_51">
      <g>
       <use xlink:href="#m401f6a4b2e" x="57.729489" y="117.463836" style="stroke: #000000; stroke-width: 0.6"/>
      </g>
     </g>
    </g>
    <g id="ytick_28">
     <g id="line2d_52">
      <g>
       <use xlink:href="#m401f6a4b2e" x="57.729489" y="100.477095" style="stroke: #000000; stroke-width: 0.6"/>
      </g>
     </g>
    </g>
    <g id="ytick_29">
     <g id="line2d_53">
      <g>
       <use xlink:href="#m401f6a4b2e" x="57.729489" y="91.851591" style="stroke: #000000; stroke-width: 0.6"/>
      </g>
     </g>
    </g>
    <g id="ytick_30">
     <g id="line2d_54">
      <g>
       <use xlink:href="#m401f6a4b2e" x="57.729489" y="85.731699" style="stroke: #000000; stroke-width: 0.6"/>
      </g>
     </g>
    </g>
    <g id="ytick_31">
     <g id="line2d_55">
      <g>
       <use xlink:href="#m401f6a4b2e" x="57.729489" y="80.984742" style="stroke: #000000; stroke-width: 0.6"/>
      </g>
     </g>
    </g>
    <g id="ytick_32">
     <g id="line2d_56">
      <g>
       <use xlink:href="#m401f6a4b2e" x="57.729489" y="77.106196" style="stroke: #000000; stroke-width: 0.6"/>
      </g>
     </g>
    </g>
    <g id="ytick_33">
     <g id="line2d_57">
      <g>
       <use xlink:href="#m401f6a4b2e" x="57.729489" y="73.826932" style="stroke: #000000; stroke-width: 0.6"/>
      </g>
     </g>
    </g>
    <g id="ytick_34">
     <g id="line2d_58">
      <g>
       <use xlink:href="#m401f6a4b2e" x="57.729489" y="70.986304" style="stroke: #000000; stroke-width: 0.6"/>
      </g>
     </g>
    </g>
    <g id="ytick_35">
     <g id="line2d_59">
      <g>
       <use xlink:href="#m401f6a4b2e" x="57.729489" y="68.480693" style="stroke: #000000; stroke-width: 0.6"/>
      </g>
     </g>
    </g>
    <g id="ytick_36">
     <g id="line2d_60">
      <g>
       <use xlink:href="#m401f6a4b2e" x="57.729489" y="51.493952" style="stroke: #000000; stroke-width: 0.6"/>
      </g>
     </g>
    </g>
    <g id="ytick_37">
     <g id="line2d_61">
      <g>
       <use xlink:href="#m401f6a4b2e" x="57.729489" y="42.868448" style="stroke: #000000; stroke-width: 0.6"/>
      </g>
     </g>
    </g>
    <g id="ytick_38">
     <g id="line2d_62">
      <g>
       <use xlink:href="#m401f6a4b2e" x="57.729489" y="36.748556" style="stroke: #000000; stroke-width: 0.6"/>
      </g>
     </g>
    </g>
    <g id="ytick_39">
     <g id="line2d_63">
      <g>
       <use xlink:href="#m401f6a4b2e" x="57.729489" y="32.001599" style="stroke: #000000; stroke-width: 0.6"/>
      </g>
     </g>
    </g>
    <g id="ytick_40">
     <g id="line2d_64">
      <g>
       <use xlink:href="#m401f6a4b2e" x="57.729489" y="28.123053" style="stroke: #000000; stroke-width: 0.6"/>
      </g>
     </g>
    </g>
    <g id="text_16">
     <!-- MSE Loss -->
     <g transform="translate(22.442614 159.111875) rotate(-90) scale(0.12 -0.12)">
      <defs>
       <path id="TimesNewRomanPSMT-4d" d="M 2619 0 
L 981 3566 
L 981 734 
Q 981 344 1066 247 
Q 1181 116 1431 116 
L 1581 116 
L 1581 0 
L 106 0 
L 106 116 
L 256 116 
Q 525 116 638 278 
Q 706 378 706 734 
L 706 3503 
Q 706 3784 644 3909 
Q 600 4000 483 4061 
Q 366 4122 106 4122 
L 106 4238 
L 1306 4238 
L 2844 922 
L 4356 4238 
L 5556 4238 
L 5556 4122 
L 5409 4122 
Q 5138 4122 5025 3959 
Q 4956 3859 4956 3503 
L 4956 734 
Q 4956 344 5044 247 
Q 5159 116 5409 116 
L 5556 116 
L 5556 0 
L 3756 0 
L 3756 116 
L 3906 116 
Q 4178 116 4288 278 
Q 4356 378 4356 734 
L 4356 3566 
L 2722 0 
L 2619 0 
z
" transform="scale(0.015625)"/>
       <path id="TimesNewRomanPSMT-53" d="M 2934 4334 
L 2934 2869 
L 2819 2869 
Q 2763 3291 2617 3541 
Q 2472 3791 2203 3937 
Q 1934 4084 1647 4084 
Q 1322 4084 1109 3886 
Q 897 3688 897 3434 
Q 897 3241 1031 3081 
Q 1225 2847 1953 2456 
Q 2547 2138 2764 1967 
Q 2981 1797 3098 1565 
Q 3216 1334 3216 1081 
Q 3216 600 2842 251 
Q 2469 -97 1881 -97 
Q 1697 -97 1534 -69 
Q 1438 -53 1133 45 
Q 828 144 747 144 
Q 669 144 623 97 
Q 578 50 556 -97 
L 441 -97 
L 441 1356 
L 556 1356 
Q 638 900 775 673 
Q 913 447 1195 297 
Q 1478 147 1816 147 
Q 2206 147 2432 353 
Q 2659 559 2659 841 
Q 2659 997 2573 1156 
Q 2488 1316 2306 1453 
Q 2184 1547 1640 1851 
Q 1097 2156 867 2337 
Q 638 2519 519 2737 
Q 400 2956 400 3219 
Q 400 3675 750 4004 
Q 1100 4334 1641 4334 
Q 1978 4334 2356 4169 
Q 2531 4091 2603 4091 
Q 2684 4091 2736 4139 
Q 2788 4188 2819 4334 
L 2934 4334 
z
" transform="scale(0.015625)"/>
       <path id="TimesNewRomanPSMT-20" transform="scale(0.015625)"/>
       <path id="TimesNewRomanPSMT-4c" d="M 3669 1172 
L 3772 1150 
L 3409 0 
L 128 0 
L 128 116 
L 288 116 
Q 556 116 672 291 
Q 738 391 738 753 
L 738 3488 
Q 738 3884 650 3984 
Q 528 4122 288 4122 
L 128 4122 
L 128 4238 
L 2047 4238 
L 2047 4122 
Q 1709 4125 1573 4059 
Q 1438 3994 1388 3894 
Q 1338 3794 1338 3416 
L 1338 753 
Q 1338 494 1388 397 
Q 1425 331 1503 300 
Q 1581 269 1991 269 
L 2300 269 
Q 2788 269 2984 341 
Q 3181 413 3343 595 
Q 3506 778 3669 1172 
z
" transform="scale(0.015625)"/>
       <path id="TimesNewRomanPSMT-73" d="M 2050 2947 
L 2050 1972 
L 1947 1972 
Q 1828 2431 1642 2597 
Q 1456 2763 1169 2763 
Q 950 2763 815 2647 
Q 681 2531 681 2391 
Q 681 2216 781 2091 
Q 878 1963 1175 1819 
L 1631 1597 
Q 2266 1288 2266 781 
Q 2266 391 1970 151 
Q 1675 -88 1309 -88 
Q 1047 -88 709 6 
Q 606 38 541 38 
Q 469 38 428 -44 
L 325 -44 
L 325 978 
L 428 978 
Q 516 541 762 319 
Q 1009 97 1316 97 
Q 1531 97 1667 223 
Q 1803 350 1803 528 
Q 1803 744 1651 891 
Q 1500 1038 1047 1263 
Q 594 1488 453 1669 
Q 313 1847 313 2119 
Q 313 2472 555 2709 
Q 797 2947 1181 2947 
Q 1350 2947 1591 2875 
Q 1750 2828 1803 2828 
Q 1853 2828 1881 2850 
Q 1909 2872 1947 2947 
L 2050 2947 
z
" transform="scale(0.015625)"/>
      </defs>
      <use xlink:href="#TimesNewRomanPSMT-4d"/>
      <use xlink:href="#TimesNewRomanPSMT-53" transform="translate(88.916016 0)"/>
      <use xlink:href="#TimesNewRomanPSMT-45" transform="translate(144.53125 0)"/>
      <use xlink:href="#TimesNewRomanPSMT-20" transform="translate(205.615234 0)"/>
      <use xlink:href="#TimesNewRomanPSMT-4c" transform="translate(230.615234 0)"/>
      <use xlink:href="#TimesNewRomanPSMT-6f" transform="translate(291.699219 0)"/>
      <use xlink:href="#TimesNewRomanPSMT-73" transform="translate(341.699219 0)"/>
      <use xlink:href="#TimesNewRomanPSMT-73" transform="translate(380.615234 0)"/>
     </g>
    </g>
   </g>
   <g id="line2d_65">
    <path d="M 74.118868 36.612727 
L 75.360487 85.098268 
L 76.602107 107.918864 
L 77.843727 123.812864 
L 79.085346 133.8238 
L 80.326966 139.424593 
L 81.568586 143.49733 
L 82.810205 145.92668 
L 86.535064 149.429772 
L 87.776684 149.965275 
L 89.018303 150.913877 
L 90.259923 151.274349 
L 91.501543 151.419251 
L 93.984782 153.465757 
L 95.226401 152.897653 
L 96.468021 153.625766 
L 98.95126 154.240441 
L 100.19288 154.063801 
L 101.434499 154.735606 
L 102.676119 154.496508 
L 103.917739 156.021876 
L 105.159358 156.352347 
L 106.400978 156.227956 
L 107.642598 156.680518 
L 110.125837 157.121612 
L 111.367456 157.639948 
L 112.609076 158.397385 
L 115.092315 159.551163 
L 116.333935 159.068664 
L 117.575555 162.604894 
L 118.817174 162.351981 
L 120.058794 163.037129 
L 121.300413 163.097395 
L 122.542033 163.677976 
L 125.025272 163.896822 
L 126.266892 164.096703 
L 127.508511 163.966734 
L 128.750131 164.189661 
L 129.991751 164.641175 
L 131.23337 164.880833 
L 132.47499 164.796008 
L 133.71661 164.923417 
L 134.958229 166.020263 
L 136.199849 166.182967 
L 137.441468 166.462822 
L 138.683088 166.626282 
L 139.924708 166.302232 
L 142.407947 167.022071 
L 143.649567 166.60641 
L 144.891186 166.920495 
L 146.132806 167.047679 
L 147.374425 166.77864 
L 148.616045 167.124068 
L 149.857665 167.206208 
L 151.099284 167.024281 
L 152.340904 167.00514 
L 153.582524 167.205803 
L 154.824143 167.279349 
L 156.065763 167.09522 
L 157.307382 167.537917 
L 158.549002 167.55746 
L 159.790622 168.241118 
L 161.032241 168.507632 
L 163.51548 168.227051 
L 164.7571 168.445135 
L 165.99872 168.361483 
L 167.240339 168.528485 
L 168.481959 168.355326 
L 170.965198 168.309254 
L 172.206818 168.700059 
L 174.690057 168.585891 
L 175.931677 168.395346 
L 177.173296 168.62703 
L 178.414916 168.745549 
L 179.656536 168.547129 
L 180.898155 168.663982 
L 182.139775 168.569154 
L 183.381394 168.831728 
L 187.106253 168.7213 
L 188.347873 169.034097 
L 189.589492 168.787386 
L 190.831112 169.30359 
L 192.072732 169.225046 
L 193.314351 169.408257 
L 194.555971 169.143068 
L 195.797591 169.059862 
L 198.28083 169.325096 
L 199.522449 169.339095 
L 200.764069 169.172371 
L 202.005689 169.408821 
L 203.247308 169.271285 
L 204.488928 169.359484 
L 205.730548 169.215974 
L 206.972167 169.427687 
L 208.213787 169.182913 
L 209.455406 169.151236 
L 210.697026 169.479112 
L 211.938646 169.370359 
L 214.421885 169.577336 
L 216.905124 169.372445 
L 219.388363 169.754105 
L 220.629983 169.514213 
L 221.871603 169.915519 
L 223.113222 169.649139 
L 224.354842 169.81658 
L 228.079701 169.773326 
L 229.32132 169.940051 
L 230.56294 169.597077 
L 233.046179 169.697769 
L 234.287799 169.737826 
L 235.529418 169.940531 
L 238.012658 169.931543 
L 239.254277 169.770486 
L 241.737517 170.002613 
L 242.979136 169.747424 
L 245.462375 169.805488 
L 247.945615 170.112335 
L 249.187234 169.8259 
L 251.670473 169.847606 
L 252.912093 169.9772 
L 254.153713 169.968669 
L 255.395332 169.708071 
L 257.878572 169.909137 
L 259.120191 169.744236 
L 260.361811 169.757616 
L 261.60343 169.91753 
L 265.328289 169.856645 
L 266.569909 170.034051 
L 269.053148 169.853957 
L 274.019627 170.037715 
L 275.261246 169.790192 
L 276.502866 170.040916 
L 277.744485 169.939008 
L 280.227725 170.047623 
L 281.469344 169.827691 
L 282.710964 170.020143 
L 283.952584 169.904502 
L 286.435823 170.071336 
L 291.402301 169.888128 
L 293.885541 170.148477 
L 296.36878 169.983326 
L 300.093639 170.063009 
L 305.060117 169.976293 
L 306.301737 169.981776 
L 307.543356 170.136158 
L 308.784976 169.884078 
L 310.026596 169.985467 
L 312.509835 169.851217 
L 316.234694 169.892342 
L 317.476313 170.13176 
L 318.717933 170.142826 
L 319.959553 169.976118 
L 326.167651 169.999736 
L 327.40927 169.845502 
L 328.65089 169.858877 
L 329.89251 170.070474 
L 331.134129 169.906659 
L 332.375749 170.135488 
L 334.858988 169.898565 
L 336.100608 170.065229 
L 337.342227 170.071008 
L 338.583847 169.782594 
L 342.308706 169.963485 
L 349.758423 169.941204 
L 351.000043 169.797412 
L 352.241663 170.105331 
L 353.483282 170.071652 
L 354.724902 170.27638 
L 355.966522 169.963316 
L 359.69138 169.822842 
L 360.933 170.084584 
L 362.17462 169.767249 
L 363.416239 170.099727 
L 365.899478 169.943591 
L 372.107577 170.016154 
L 373.349196 169.87985 
L 374.590816 170.017025 
L 379.557294 170.005389 
L 380.798914 169.865641 
L 382.040534 170.236175 
L 383.282153 169.893998 
L 385.765392 169.949858 
L 387.007012 170.153894 
L 388.248632 169.943983 
L 390.731871 169.982783 
L 391.973491 170.079006 
L 395.698349 169.651617 
L 396.939969 169.80716 
L 398.181589 170.146939 
L 399.423208 169.709672 
L 400.664828 170.019849 
L 401.906447 169.848843 
L 401.906447 169.848843 
" clip-path="url(#p3f4940ae26)" style="fill: none; stroke: #1f77b4; stroke-width: 2; stroke-linecap: square"/>
   </g>
   <g id="line2d_66">
    <path d="M 74.118868 177.219032 
L 75.360487 194.636582 
L 76.602107 196.051906 
L 77.843727 203.660453 
L 79.085346 207.326175 
L 80.326966 204.023518 
L 81.568586 197.169548 
L 82.810205 217.693983 
L 84.051825 219.760691 
L 85.293444 217.633708 
L 86.535064 204.386152 
L 87.776684 222.42662 
L 89.018303 217.104773 
L 90.259923 213.626049 
L 91.501543 226.390981 
L 92.743162 225.110005 
L 93.984782 217.045996 
L 95.226401 219.545817 
L 96.468021 226.385316 
L 97.709641 228.345491 
L 98.95126 224.06032 
L 100.19288 228.320795 
L 101.434499 221.880154 
L 102.676119 228.603408 
L 103.917739 219.535086 
L 105.159358 226.824245 
L 106.400978 221.854348 
L 107.642598 223.86041 
L 108.884217 228.098464 
L 110.125837 223.953228 
L 111.367456 226.045813 
L 112.609076 225.392958 
L 113.850696 226.664456 
L 115.092315 220.20002 
L 116.333935 217.676896 
L 117.575555 225.80522 
L 118.817174 226.981466 
L 120.058794 230.509394 
L 121.300413 226.349902 
L 122.542033 228.060379 
L 123.783653 227.089095 
L 125.025272 223.327631 
L 126.266892 226.888239 
L 127.508511 229.212036 
L 128.750131 226.369793 
L 129.991751 227.309972 
L 131.23337 230.478386 
L 132.47499 230.066002 
L 133.71661 227.698728 
L 134.958229 229.658315 
L 136.199849 229.177298 
L 137.441468 228.250025 
L 138.683088 229.170314 
L 139.924708 229.137737 
L 141.166327 229.602814 
L 142.407947 229.602494 
L 143.649567 229.305284 
L 144.891186 230.714295 
L 146.132806 226.988078 
L 147.374425 228.490203 
L 148.616045 229.352234 
L 149.857665 228.721856 
L 151.099284 229.811978 
L 152.340904 228.612407 
L 153.582524 227.965767 
L 154.824143 229.860748 
L 156.065763 230.282897 
L 157.307382 228.079226 
L 158.549002 228.621669 
L 159.790622 226.920633 
L 161.032241 228.631847 
L 162.273861 230.02123 
L 163.51548 229.796755 
L 164.7571 225.86862 
L 165.99872 229.932322 
L 167.240339 229.270494 
L 168.481959 229.464086 
L 169.723579 227.923811 
L 170.965198 231.055399 
L 172.206818 229.685484 
L 173.448437 226.886526 
L 174.690057 227.871045 
L 175.931677 231.134226 
L 177.173296 230.882267 
L 178.414916 228.146143 
L 179.656536 229.630517 
L 180.898155 230.346281 
L 182.139775 229.187814 
L 183.381394 229.25414 
L 184.623014 229.543793 
L 185.864634 231.039476 
L 187.106253 230.632086 
L 188.347873 229.290774 
L 189.589492 231.012203 
L 190.831112 222.607148 
L 192.072732 228.072588 
L 193.314351 230.521656 
L 194.555971 226.772357 
L 195.797591 229.645972 
L 197.03921 229.722424 
L 198.28083 230.476912 
L 199.522449 229.939742 
L 200.764069 227.33845 
L 202.005689 229.086649 
L 203.247308 231.267273 
L 204.488928 229.274852 
L 205.730548 230.525289 
L 206.972167 229.387414 
L 208.213787 230.128296 
L 209.455406 230.164151 
L 210.697026 229.323659 
L 211.938646 229.00528 
L 213.180265 229.120037 
L 214.421885 230.34319 
L 215.663505 224.26572 
L 216.905124 229.669314 
L 218.146744 229.804736 
L 219.388363 230.937398 
L 220.629983 230.77381 
L 221.871603 229.922211 
L 223.113222 230.688288 
L 224.354842 228.434648 
L 225.596461 230.637392 
L 226.838081 230.137849 
L 228.079701 229.270059 
L 229.32132 231.090704 
L 230.56294 228.675037 
L 231.80456 228.173203 
L 234.287799 229.872683 
L 235.529418 230.335391 
L 236.771038 229.30364 
L 238.012658 229.090437 
L 239.254277 229.591242 
L 240.495897 229.022887 
L 241.737517 229.698472 
L 242.979136 230.626743 
L 244.220756 230.562199 
L 245.462375 230.941852 
L 247.945615 226.580626 
L 249.187234 228.233214 
L 250.428854 229.687726 
L 251.670473 230.547666 
L 252.912093 229.269942 
L 254.153713 230.679306 
L 255.395332 229.40924 
L 256.636952 230.570536 
L 257.878572 230.194982 
L 259.120191 228.255159 
L 260.361811 230.005597 
L 261.60343 229.719732 
L 262.84505 230.387189 
L 264.08667 227.90963 
L 265.328289 226.504532 
L 266.569909 229.946582 
L 267.811529 228.883695 
L 269.053148 230.991867 
L 270.294768 229.580672 
L 271.536387 229.119071 
L 272.778007 228.871795 
L 274.019627 229.053167 
L 275.261246 227.644517 
L 276.502866 227.216912 
L 277.744485 231.230446 
L 278.986105 227.552552 
L 280.227725 230.306781 
L 281.469344 228.337183 
L 282.710964 230.635007 
L 283.952584 230.728289 
L 285.194203 229.799945 
L 286.435823 228.572853 
L 287.677442 229.60455 
L 288.919062 228.492593 
L 290.160682 230.130357 
L 291.402301 230.097718 
L 292.643921 228.928972 
L 293.885541 230.874396 
L 295.12716 229.503653 
L 296.36878 228.839961 
L 297.610399 230.44124 
L 298.852019 229.398634 
L 300.093639 231.020551 
L 301.335258 230.03779 
L 302.576878 228.184448 
L 303.818498 229.301764 
L 305.060117 228.471311 
L 306.301737 228.673214 
L 307.543356 228.215719 
L 308.784976 228.27647 
L 310.026596 224.066271 
L 311.268215 231.043617 
L 312.509835 228.766783 
L 313.751454 229.644145 
L 314.993074 230.145875 
L 316.234694 230.069821 
L 317.476313 228.822272 
L 318.717933 227.998181 
L 319.959553 227.631834 
L 321.201172 227.720866 
L 322.442792 230.162074 
L 323.684411 230.350034 
L 324.926031 229.830387 
L 326.167651 230.688483 
L 327.40927 228.087726 
L 328.65089 229.601021 
L 329.89251 230.395144 
L 331.134129 229.058654 
L 332.375749 230.607257 
L 333.617368 229.777938 
L 334.858988 226.16333 
L 336.100608 229.598191 
L 337.342227 228.551441 
L 338.583847 230.032625 
L 339.825466 229.706206 
L 341.067086 226.406123 
L 342.308706 230.165887 
L 343.550325 228.964575 
L 346.033565 230.061085 
L 347.275184 229.80018 
L 348.516804 229.819878 
L 349.758423 228.824587 
L 351.000043 228.998523 
L 352.241663 230.390386 
L 353.483282 229.612446 
L 354.724902 229.473342 
L 355.966522 231.095651 
L 357.208141 230.550028 
L 358.449761 230.826082 
L 359.69138 229.133207 
L 360.933 229.581037 
L 362.17462 231.022584 
L 363.416239 227.579467 
L 364.657859 229.943122 
L 365.899478 230.784068 
L 367.141098 229.434401 
L 368.382718 230.562322 
L 370.865957 230.596092 
L 372.107577 226.881071 
L 373.349196 229.345444 
L 374.590816 228.281148 
L 375.832435 228.549043 
L 377.074055 228.562086 
L 378.315675 229.229686 
L 379.557294 229.205906 
L 380.798914 226.631194 
L 382.040534 229.482255 
L 383.282153 230.665563 
L 384.523773 230.655516 
L 385.765392 228.617571 
L 387.007012 227.994257 
L 388.248632 229.649127 
L 389.490251 229.992085 
L 390.731871 229.176904 
L 391.973491 227.728783 
L 393.21511 229.143503 
L 394.45673 228.35448 
L 395.698349 230.951538 
L 396.939969 230.327527 
L 398.181589 230.421949 
L 399.423208 229.024099 
L 400.664828 226.407383 
L 401.906447 227.945967 
L 401.906447 227.945967 
" clip-path="url(#p3f4940ae26)" style="fill: none; stroke: #ff7f0e; stroke-width: 2; stroke-linecap: square"/>
   </g>
   <g id="patch_3">
    <path d="M 57.729489 241 
L 57.729489 26.88 
" style="fill: none; stroke: #000000; stroke-width: 0.8; stroke-linejoin: miter; stroke-linecap: square"/>
   </g>
   <g id="patch_4">
    <path d="M 418.295826 241 
L 418.295826 26.88 
" style="fill: none; stroke: #000000; stroke-width: 0.8; stroke-linejoin: miter; stroke-linecap: square"/>
   </g>
   <g id="patch_5">
    <path d="M 57.729489 241 
L 418.295826 241 
" style="fill: none; stroke: #000000; stroke-width: 0.8; stroke-linejoin: miter; stroke-linecap: square"/>
   </g>
   <g id="patch_6">
    <path d="M 57.729489 26.88 
L 418.295826 26.88 
" style="fill: none; stroke: #000000; stroke-width: 0.8; stroke-linejoin: miter; stroke-linecap: square"/>
   </g>
   <g id="text_17">
    <!-- Evolution of MSE Loss during Training -->
    <g transform="translate(150.155314 20.88) scale(0.11 -0.11)">
     <defs>
      <path id="TimesNewRomanPSMT-76" d="M 53 2863 
L 1400 2863 
L 1400 2747 
L 1313 2747 
Q 1191 2747 1127 2687 
Q 1063 2628 1063 2528 
Q 1063 2419 1128 2269 
L 1794 688 
L 2463 2328 
Q 2534 2503 2534 2594 
Q 2534 2638 2509 2666 
Q 2475 2713 2422 2730 
Q 2369 2747 2206 2747 
L 2206 2863 
L 3141 2863 
L 3141 2747 
Q 2978 2734 2916 2681 
Q 2806 2588 2719 2369 
L 1703 -88 
L 1575 -88 
L 553 2328 
Q 484 2497 421 2570 
Q 359 2644 263 2694 
Q 209 2722 53 2747 
L 53 2863 
z
" transform="scale(0.015625)"/>
      <path id="TimesNewRomanPSMT-6c" d="M 1184 4444 
L 1184 647 
Q 1184 378 1223 290 
Q 1263 203 1344 158 
Q 1425 113 1647 113 
L 1647 0 
L 244 0 
L 244 113 
Q 441 113 512 153 
Q 584 194 625 287 
Q 666 381 666 647 
L 666 3247 
Q 666 3731 644 3842 
Q 622 3953 573 3993 
Q 525 4034 450 4034 
Q 369 4034 244 3984 
L 191 4094 
L 1044 4444 
L 1184 4444 
z
" transform="scale(0.015625)"/>
      <path id="TimesNewRomanPSMT-75" d="M 2709 2863 
L 2709 1128 
Q 2709 631 2732 520 
Q 2756 409 2807 365 
Q 2859 322 2928 322 
Q 3025 322 3147 375 
L 3191 266 
L 2334 -88 
L 2194 -88 
L 2194 519 
Q 1825 119 1631 15 
Q 1438 -88 1222 -88 
Q 981 -88 804 51 
Q 628 191 559 409 
Q 491 628 491 1028 
L 491 2306 
Q 491 2509 447 2587 
Q 403 2666 317 2708 
Q 231 2750 6 2747 
L 6 2863 
L 1009 2863 
L 1009 947 
Q 1009 547 1148 422 
Q 1288 297 1484 297 
Q 1619 297 1789 381 
Q 1959 466 2194 703 
L 2194 2325 
Q 2194 2569 2105 2655 
Q 2016 2741 1734 2747 
L 1734 2863 
L 2709 2863 
z
" transform="scale(0.015625)"/>
      <path id="TimesNewRomanPSMT-74" d="M 1031 3803 
L 1031 2863 
L 1700 2863 
L 1700 2644 
L 1031 2644 
L 1031 788 
Q 1031 509 1111 412 
Q 1191 316 1316 316 
Q 1419 316 1516 380 
Q 1613 444 1666 569 
L 1788 569 
Q 1678 263 1478 108 
Q 1278 -47 1066 -47 
Q 922 -47 784 33 
Q 647 113 581 261 
Q 516 409 516 719 
L 516 2644 
L 63 2644 
L 63 2747 
Q 234 2816 414 2980 
Q 594 3144 734 3369 
Q 806 3488 934 3803 
L 1031 3803 
z
" transform="scale(0.015625)"/>
      <path id="TimesNewRomanPSMT-69" d="M 928 4444 
Q 1059 4444 1151 4351 
Q 1244 4259 1244 4128 
Q 1244 3997 1151 3903 
Q 1059 3809 928 3809 
Q 797 3809 703 3903 
Q 609 3997 609 4128 
Q 609 4259 701 4351 
Q 794 4444 928 4444 
z
M 1188 2947 
L 1188 647 
Q 1188 378 1227 289 
Q 1266 200 1342 156 
Q 1419 113 1622 113 
L 1622 0 
L 231 0 
L 231 113 
Q 441 113 512 153 
Q 584 194 626 287 
Q 669 381 669 647 
L 669 1750 
Q 669 2216 641 2353 
Q 619 2453 572 2492 
Q 525 2531 444 2531 
Q 356 2531 231 2484 
L 188 2597 
L 1050 2947 
L 1188 2947 
z
" transform="scale(0.015625)"/>
      <path id="TimesNewRomanPSMT-6e" d="M 1034 2341 
Q 1538 2947 1994 2947 
Q 2228 2947 2397 2830 
Q 2566 2713 2666 2444 
Q 2734 2256 2734 1869 
L 2734 647 
Q 2734 375 2778 278 
Q 2813 200 2889 156 
Q 2966 113 3172 113 
L 3172 0 
L 1756 0 
L 1756 113 
L 1816 113 
Q 2016 113 2095 173 
Q 2175 234 2206 353 
Q 2219 400 2219 647 
L 2219 1819 
Q 2219 2209 2117 2386 
Q 2016 2563 1775 2563 
Q 1403 2563 1034 2156 
L 1034 647 
Q 1034 356 1069 288 
Q 1113 197 1189 155 
Q 1266 113 1500 113 
L 1500 0 
L 84 0 
L 84 113 
L 147 113 
Q 366 113 442 223 
Q 519 334 519 647 
L 519 1709 
Q 519 2225 495 2337 
Q 472 2450 423 2490 
Q 375 2531 294 2531 
Q 206 2531 84 2484 
L 38 2597 
L 900 2947 
L 1034 2947 
L 1034 2341 
z
" transform="scale(0.015625)"/>
      <path id="TimesNewRomanPSMT-66" d="M 1319 2638 
L 1319 756 
Q 1319 356 1406 250 
Q 1522 113 1716 113 
L 1975 113 
L 1975 0 
L 266 0 
L 266 113 
L 394 113 
Q 519 113 622 175 
Q 725 238 764 344 
Q 803 450 803 756 
L 803 2638 
L 247 2638 
L 247 2863 
L 803 2863 
L 803 3050 
Q 803 3478 940 3775 
Q 1078 4072 1361 4255 
Q 1644 4438 1997 4438 
Q 2325 4438 2600 4225 
Q 2781 4084 2781 3909 
Q 2781 3816 2700 3733 
Q 2619 3650 2525 3650 
Q 2453 3650 2373 3701 
Q 2294 3753 2178 3923 
Q 2063 4094 1966 4153 
Q 1869 4213 1750 4213 
Q 1606 4213 1506 4136 
Q 1406 4059 1362 3898 
Q 1319 3738 1319 3069 
L 1319 2863 
L 2056 2863 
L 2056 2638 
L 1319 2638 
z
" transform="scale(0.015625)"/>
      <path id="TimesNewRomanPSMT-64" d="M 2222 322 
Q 2013 103 1813 7 
Q 1613 -88 1381 -88 
Q 913 -88 563 304 
Q 213 697 213 1313 
Q 213 1928 600 2439 
Q 988 2950 1597 2950 
Q 1975 2950 2222 2709 
L 2222 3238 
Q 2222 3728 2198 3840 
Q 2175 3953 2125 3993 
Q 2075 4034 2000 4034 
Q 1919 4034 1784 3984 
L 1744 4094 
L 2597 4444 
L 2738 4444 
L 2738 1134 
Q 2738 631 2761 520 
Q 2784 409 2836 365 
Q 2888 322 2956 322 
Q 3041 322 3181 375 
L 3216 266 
L 2366 -88 
L 2222 -88 
L 2222 322 
z
M 2222 541 
L 2222 2016 
Q 2203 2228 2109 2403 
Q 2016 2578 1861 2667 
Q 1706 2756 1559 2756 
Q 1284 2756 1069 2509 
Q 784 2184 784 1559 
Q 784 928 1059 592 
Q 1334 256 1672 256 
Q 1956 256 2222 541 
z
" transform="scale(0.015625)"/>
      <path id="TimesNewRomanPSMT-72" d="M 1038 2947 
L 1038 2303 
Q 1397 2947 1775 2947 
Q 1947 2947 2059 2842 
Q 2172 2738 2172 2600 
Q 2172 2478 2090 2393 
Q 2009 2309 1897 2309 
Q 1788 2309 1652 2417 
Q 1516 2525 1450 2525 
Q 1394 2525 1328 2463 
Q 1188 2334 1038 2041 
L 1038 669 
Q 1038 431 1097 309 
Q 1138 225 1241 169 
Q 1344 113 1538 113 
L 1538 0 
L 72 0 
L 72 113 
Q 291 113 397 181 
Q 475 231 506 341 
Q 522 394 522 644 
L 522 1753 
Q 522 2253 501 2348 
Q 481 2444 426 2487 
Q 372 2531 291 2531 
Q 194 2531 72 2484 
L 41 2597 
L 906 2947 
L 1038 2947 
z
" transform="scale(0.015625)"/>
      <path id="TimesNewRomanPSMT-67" d="M 966 1044 
Q 703 1172 562 1401 
Q 422 1631 422 1909 
Q 422 2334 742 2640 
Q 1063 2947 1563 2947 
Q 1972 2947 2272 2747 
L 2878 2747 
Q 3013 2747 3034 2739 
Q 3056 2731 3066 2713 
Q 3084 2684 3084 2613 
Q 3084 2531 3069 2500 
Q 3059 2484 3036 2475 
Q 3013 2466 2878 2466 
L 2506 2466 
Q 2681 2241 2681 1891 
Q 2681 1491 2375 1206 
Q 2069 922 1553 922 
Q 1341 922 1119 984 
Q 981 866 932 777 
Q 884 688 884 625 
Q 884 572 936 522 
Q 988 472 1138 450 
Q 1225 438 1575 428 
Q 2219 413 2409 384 
Q 2700 344 2873 169 
Q 3047 -6 3047 -263 
Q 3047 -616 2716 -925 
Q 2228 -1381 1444 -1381 
Q 841 -1381 425 -1109 
Q 191 -953 191 -784 
Q 191 -709 225 -634 
Q 278 -519 444 -313 
Q 466 -284 763 25 
Q 600 122 533 198 
Q 466 275 466 372 
Q 466 481 555 628 
Q 644 775 966 1044 
z
M 1509 2797 
Q 1278 2797 1122 2612 
Q 966 2428 966 2047 
Q 966 1553 1178 1281 
Q 1341 1075 1591 1075 
Q 1828 1075 1981 1253 
Q 2134 1431 2134 1813 
Q 2134 2309 1919 2591 
Q 1759 2797 1509 2797 
z
M 934 0 
Q 788 -159 713 -296 
Q 638 -434 638 -550 
Q 638 -700 819 -813 
Q 1131 -1006 1722 -1006 
Q 2284 -1006 2551 -807 
Q 2819 -609 2819 -384 
Q 2819 -222 2659 -153 
Q 2497 -84 2016 -72 
Q 1313 -53 934 0 
z
" transform="scale(0.015625)"/>
      <path id="TimesNewRomanPSMT-54" d="M 3703 4238 
L 3750 3244 
L 3631 3244 
Q 3597 3506 3538 3619 
Q 3441 3800 3280 3886 
Q 3119 3972 2856 3972 
L 2259 3972 
L 2259 734 
Q 2259 344 2344 247 
Q 2463 116 2709 116 
L 2856 116 
L 2856 0 
L 1059 0 
L 1059 116 
L 1209 116 
Q 1478 116 1591 278 
Q 1659 378 1659 734 
L 1659 3972 
L 1150 3972 
Q 853 3972 728 3928 
Q 566 3869 450 3700 
Q 334 3531 313 3244 
L 194 3244 
L 244 4238 
L 3703 4238 
z
" transform="scale(0.015625)"/>
      <path id="TimesNewRomanPSMT-61" d="M 1822 413 
Q 1381 72 1269 19 
Q 1100 -59 909 -59 
Q 613 -59 420 144 
Q 228 347 228 678 
Q 228 888 322 1041 
Q 450 1253 767 1440 
Q 1084 1628 1822 1897 
L 1822 2009 
Q 1822 2438 1686 2597 
Q 1550 2756 1291 2756 
Q 1094 2756 978 2650 
Q 859 2544 859 2406 
L 866 2225 
Q 866 2081 792 2003 
Q 719 1925 600 1925 
Q 484 1925 411 2006 
Q 338 2088 338 2228 
Q 338 2497 613 2722 
Q 888 2947 1384 2947 
Q 1766 2947 2009 2819 
Q 2194 2722 2281 2516 
Q 2338 2381 2338 1966 
L 2338 994 
Q 2338 584 2353 492 
Q 2369 400 2405 369 
Q 2441 338 2488 338 
Q 2538 338 2575 359 
Q 2641 400 2828 588 
L 2828 413 
Q 2478 -56 2159 -56 
Q 2006 -56 1915 50 
Q 1825 156 1822 413 
z
M 1822 616 
L 1822 1706 
Q 1350 1519 1213 1441 
Q 966 1303 859 1153 
Q 753 1003 753 825 
Q 753 600 887 451 
Q 1022 303 1197 303 
Q 1434 303 1822 616 
z
" transform="scale(0.015625)"/>
     </defs>
     <use xlink:href="#TimesNewRomanPSMT-45"/>
     <use xlink:href="#TimesNewRomanPSMT-76" transform="translate(61.083984 0)"/>
     <use xlink:href="#TimesNewRomanPSMT-6f" transform="translate(111.083984 0)"/>
     <use xlink:href="#TimesNewRomanPSMT-6c" transform="translate(161.083984 0)"/>
     <use xlink:href="#TimesNewRomanPSMT-75" transform="translate(188.867188 0)"/>
     <use xlink:href="#TimesNewRomanPSMT-74" transform="translate(238.867188 0)"/>
     <use xlink:href="#TimesNewRomanPSMT-69" transform="translate(266.650391 0)"/>
     <use xlink:href="#TimesNewRomanPSMT-6f" transform="translate(294.433594 0)"/>
     <use xlink:href="#TimesNewRomanPSMT-6e" transform="translate(344.433594 0)"/>
     <use xlink:href="#TimesNewRomanPSMT-20" transform="translate(394.433594 0)"/>
     <use xlink:href="#TimesNewRomanPSMT-6f" transform="translate(419.433594 0)"/>
     <use xlink:href="#TimesNewRomanPSMT-66" transform="translate(469.433594 0)"/>
     <use xlink:href="#TimesNewRomanPSMT-20" transform="translate(502.734375 0)"/>
     <use xlink:href="#TimesNewRomanPSMT-4d" transform="translate(527.734375 0)"/>
     <use xlink:href="#TimesNewRomanPSMT-53" transform="translate(616.650391 0)"/>
     <use xlink:href="#TimesNewRomanPSMT-45" transform="translate(672.265625 0)"/>
     <use xlink:href="#TimesNewRomanPSMT-20" transform="translate(733.349609 0)"/>
     <use xlink:href="#TimesNewRomanPSMT-4c" transform="translate(758.349609 0)"/>
     <use xlink:href="#TimesNewRomanPSMT-6f" transform="translate(819.433594 0)"/>
     <use xlink:href="#TimesNewRomanPSMT-73" transform="translate(869.433594 0)"/>
     <use xlink:href="#TimesNewRomanPSMT-73" transform="translate(908.349609 0)"/>
     <use xlink:href="#TimesNewRomanPSMT-20" transform="translate(947.265625 0)"/>
     <use xlink:href="#TimesNewRomanPSMT-64" transform="translate(972.265625 0)"/>
     <use xlink:href="#TimesNewRomanPSMT-75" transform="translate(1022.265625 0)"/>
     <use xlink:href="#TimesNewRomanPSMT-72" transform="translate(1072.265625 0)"/>
     <use xlink:href="#TimesNewRomanPSMT-69" transform="translate(1105.566406 0)"/>
     <use xlink:href="#TimesNewRomanPSMT-6e" transform="translate(1133.349609 0)"/>
     <use xlink:href="#TimesNewRomanPSMT-67" transform="translate(1183.349609 0)"/>
     <use xlink:href="#TimesNewRomanPSMT-20" transform="translate(1233.349609 0)"/>
     <use xlink:href="#TimesNewRomanPSMT-54" transform="translate(1256.599609 0)"/>
     <use xlink:href="#TimesNewRomanPSMT-72" transform="translate(1314.183594 0)"/>
     <use xlink:href="#TimesNewRomanPSMT-61" transform="translate(1347.484375 0)"/>
     <use xlink:href="#TimesNewRomanPSMT-69" transform="translate(1391.869141 0)"/>
     <use xlink:href="#TimesNewRomanPSMT-6e" transform="translate(1419.652344 0)"/>
     <use xlink:href="#TimesNewRomanPSMT-69" transform="translate(1469.652344 0)"/>
     <use xlink:href="#TimesNewRomanPSMT-6e" transform="translate(1497.435547 0)"/>
     <use xlink:href="#TimesNewRomanPSMT-67" transform="translate(1547.435547 0)"/>
    </g>
   </g>
   <g id="legend_1">
    <g id="patch_7">
     <path d="M 294.168951 70.41375 
L 409.895826 70.41375 
Q 412.295826 70.41375 412.295826 68.01375 
L 412.295826 35.28 
Q 412.295826 32.88 409.895826 32.88 
L 294.168951 32.88 
Q 291.768951 32.88 291.768951 35.28 
L 291.768951 68.01375 
Q 291.768951 70.41375 294.168951 70.41375 
z
" style="fill: #ffffff; opacity: 0.8; stroke: #cccccc; stroke-linejoin: miter"/>
    </g>
    <g id="line2d_67">
     <path d="M 296.568951 41.88 
L 308.568951 41.88 
L 320.568951 41.88 
" style="fill: none; stroke: #1f77b4; stroke-width: 2; stroke-linecap: square"/>
    </g>
    <g id="text_18">
     <!-- Train Loss -->
     <g transform="translate(330.168951 46.08) scale(0.12 -0.12)">
      <use xlink:href="#TimesNewRomanPSMT-54"/>
      <use xlink:href="#TimesNewRomanPSMT-72" transform="translate(57.583984 0)"/>
      <use xlink:href="#TimesNewRomanPSMT-61" transform="translate(90.884766 0)"/>
      <use xlink:href="#TimesNewRomanPSMT-69" transform="translate(135.269531 0)"/>
      <use xlink:href="#TimesNewRomanPSMT-6e" transform="translate(163.052734 0)"/>
      <use xlink:href="#TimesNewRomanPSMT-20" transform="translate(213.052734 0)"/>
      <use xlink:href="#TimesNewRomanPSMT-4c" transform="translate(238.052734 0)"/>
      <use xlink:href="#TimesNewRomanPSMT-6f" transform="translate(299.136719 0)"/>
      <use xlink:href="#TimesNewRomanPSMT-73" transform="translate(349.136719 0)"/>
      <use xlink:href="#TimesNewRomanPSMT-73" transform="translate(388.052734 0)"/>
     </g>
    </g>
    <g id="line2d_68">
     <path d="M 296.568951 58.846875 
L 308.568951 58.846875 
L 320.568951 58.846875 
" style="fill: none; stroke: #ff7f0e; stroke-width: 2; stroke-linecap: square"/>
    </g>
    <g id="text_19">
     <!-- Val Loss (MSE) -->
     <g transform="translate(330.168951 63.046875) scale(0.12 -0.12)">
      <defs>
       <path id="TimesNewRomanPSMT-56" d="M 4544 4238 
L 4544 4122 
Q 4319 4081 4203 3978 
Q 4038 3825 3909 3509 
L 2431 -97 
L 2316 -97 
L 728 3556 
Q 606 3838 556 3900 
Q 478 3997 364 4051 
Q 250 4106 56 4122 
L 56 4238 
L 1788 4238 
L 1788 4122 
Q 1494 4094 1406 4022 
Q 1319 3950 1319 3838 
Q 1319 3681 1463 3350 
L 2541 866 
L 3541 3319 
Q 3688 3681 3688 3822 
Q 3688 3913 3597 3995 
Q 3506 4078 3291 4113 
Q 3275 4116 3238 4122 
L 3238 4238 
L 4544 4238 
z
" transform="scale(0.015625)"/>
       <path id="TimesNewRomanPSMT-28" d="M 1988 -1253 
L 1988 -1369 
Q 1516 -1131 1200 -813 
Q 750 -359 506 256 
Q 263 872 263 1534 
Q 263 2503 741 3301 
Q 1219 4100 1988 4444 
L 1988 4313 
Q 1603 4100 1356 3731 
Q 1109 3363 987 2797 
Q 866 2231 866 1616 
Q 866 947 969 400 
Q 1050 -31 1165 -292 
Q 1281 -553 1476 -793 
Q 1672 -1034 1988 -1253 
z
" transform="scale(0.015625)"/>
       <path id="TimesNewRomanPSMT-29" d="M 144 4313 
L 144 4444 
Q 619 4209 934 3891 
Q 1381 3434 1625 2820 
Q 1869 2206 1869 1541 
Q 1869 572 1392 -226 
Q 916 -1025 144 -1369 
L 144 -1253 
Q 528 -1038 776 -670 
Q 1025 -303 1145 264 
Q 1266 831 1266 1447 
Q 1266 2113 1163 2663 
Q 1084 3094 967 3353 
Q 850 3613 656 3853 
Q 463 4094 144 4313 
z
" transform="scale(0.015625)"/>
      </defs>
      <use xlink:href="#TimesNewRomanPSMT-56"/>
      <use xlink:href="#TimesNewRomanPSMT-61" transform="translate(61.091797 0)"/>
      <use xlink:href="#TimesNewRomanPSMT-6c" transform="translate(105.476562 0)"/>
      <use xlink:href="#TimesNewRomanPSMT-20" transform="translate(133.259766 0)"/>
      <use xlink:href="#TimesNewRomanPSMT-4c" transform="translate(158.259766 0)"/>
      <use xlink:href="#TimesNewRomanPSMT-6f" transform="translate(219.34375 0)"/>
      <use xlink:href="#TimesNewRomanPSMT-73" transform="translate(269.34375 0)"/>
      <use xlink:href="#TimesNewRomanPSMT-73" transform="translate(308.259766 0)"/>
      <use xlink:href="#TimesNewRomanPSMT-20" transform="translate(347.175781 0)"/>
      <use xlink:href="#TimesNewRomanPSMT-28" transform="translate(372.175781 0)"/>
      <use xlink:href="#TimesNewRomanPSMT-4d" transform="translate(405.476562 0)"/>
      <use xlink:href="#TimesNewRomanPSMT-53" transform="translate(494.392578 0)"/>
      <use xlink:href="#TimesNewRomanPSMT-45" transform="translate(550.007812 0)"/>
      <use xlink:href="#TimesNewRomanPSMT-29" transform="translate(611.091797 0)"/>
     </g>
    </g>
   </g>
  </g>
 </g>
 <defs>
  <clipPath id="p3f4940ae26">
   <rect x="57.729489" y="26.88" width="360.566338" height="214.12"/>
  </clipPath>
 </defs>
</svg>
