<?xml version="1.0" encoding="utf-8" standalone="no"?>
<!DOCTYPE svg PUBLIC "-//W3C//DTD SVG 1.1//EN"
  "http://www.w3.org/Graphics/SVG/1.1/DTD/svg11.dtd">
<svg xmlns:xlink="http://www.w3.org/1999/xlink" width="432pt" height="288pt" viewBox="0 0 432 288" xmlns="http://www.w3.org/2000/svg" version="1.1">
 <metadata>
  <rdf:RDF xmlns:dc="http://purl.org/dc/elements/1.1/" xmlns:cc="http://creativecommons.org/ns#" xmlns:rdf="http://www.w3.org/1999/02/22-rdf-syntax-ns#">
   <cc:Work>
    <dc:type rdf:resource="http://purl.org/dc/dcmitype/StillImage"/>
    <dc:date>2025-06-25T14:33:12.571144</dc:date>
    <dc:format>image/svg+xml</dc:format>
    <dc:creator>
     <cc:Agent>
      <dc:title>Matplotlib v3.10.1, https://matplotlib.org/</dc:title>
     </cc:Agent>
    </dc:creator>
   </cc:Work>
  </rdf:RDF>
 </metadata>
 <defs>
  <style type="text/css">*{stroke-linejoin: round; stroke-linecap: butt}</style>
 </defs>
 <g id="figure_1">
  <g id="patch_1">
   <path d="M 0 288 
L 432 288 
L 432 0 
L 0 0 
z
" style="fill: #ffffff"/>
  </g>
  <g id="axes_1">
   <g id="patch_2">
    <path d="M 57.113446 242.786449 
L 419.04 242.786449 
L 419.04 26.570347 
L 57.113446 26.570347 
z
" style="fill: #ffffff"/>
   </g>
   <g id="matplotlib.axis_1">
    <g id="xtick_1">
     <g id="line2d_1">
      <path d="M 73.564653 242.786449 
L 73.564653 26.570347 
" clip-path="url(#p44344d0cd3)" style="fill: none; stroke: #b0b0b0; stroke-width: 0.8; stroke-linecap: square"/>
     </g>
     <g id="line2d_2">
      <defs>
       <path id="mb74dadd7c3" d="M 0 0 
L 0 3.5 
" style="stroke: #000000; stroke-width: 0.8"/>
      </defs>
      <g>
       <use xlink:href="#mb74dadd7c3" x="73.564653" y="242.786449" style="stroke: #000000; stroke-width: 0.8"/>
      </g>
     </g>
     <g id="text_1">
      <!-- $\mathdefault{0}$ -->
      <g transform="translate(70.638157 258.088629) scale(0.12 -0.12)">
       <defs>
        <path id="CMR17-30" d="M 2688 2038 
C 2688 2430 2682 3099 2413 3613 
C 2176 4063 1798 4224 1466 4224 
C 1158 4224 768 4082 525 3620 
C 269 3137 243 2539 243 2038 
C 243 1671 250 1112 448 623 
C 723 -39 1216 -128 1466 -128 
C 1760 -128 2208 -7 2470 604 
C 2662 1048 2688 1568 2688 2038 
z
M 1466 -26 
C 1056 -26 813 328 723 816 
C 653 1196 653 1749 653 2109 
C 653 2604 653 3015 736 3407 
C 858 3954 1216 4121 1466 4121 
C 1728 4121 2067 3947 2189 3420 
C 2272 3054 2278 2623 2278 2109 
C 2278 1691 2278 1176 2202 797 
C 2067 96 1690 -26 1466 -26 
z
" transform="scale(0.015625)"/>
       </defs>
       <use xlink:href="#CMR17-30" transform="scale(0.996264)"/>
      </g>
     </g>
    </g>
    <g id="xtick_2">
     <g id="line2d_3">
      <path d="M 114.899344 242.786449 
L 114.899344 26.570347 
" clip-path="url(#p44344d0cd3)" style="fill: none; stroke: #b0b0b0; stroke-width: 0.8; stroke-linecap: square"/>
     </g>
     <g id="line2d_4">
      <g>
       <use xlink:href="#mb74dadd7c3" x="114.899344" y="242.786449" style="stroke: #000000; stroke-width: 0.8"/>
      </g>
     </g>
     <g id="text_2">
      <!-- $\mathdefault{50}$ -->
      <g transform="translate(109.046353 258.088629) scale(0.12 -0.12)">
       <defs>
        <path id="CMR17-35" d="M 730 3750 
C 794 3724 1056 3641 1325 3641 
C 1920 3641 2246 3961 2432 4140 
C 2432 4191 2432 4224 2394 4224 
C 2387 4224 2374 4224 2323 4198 
C 2099 4102 1837 4032 1517 4032 
C 1325 4032 1037 4055 723 4191 
C 653 4224 640 4224 634 4224 
C 602 4224 595 4217 595 4090 
L 595 2231 
C 595 2113 595 2080 659 2080 
C 691 2080 704 2093 736 2139 
C 941 2435 1222 2560 1542 2560 
C 1766 2560 2246 2415 2246 1293 
C 2246 1087 2246 716 2054 422 
C 1894 159 1645 25 1370 25 
C 947 25 518 319 403 812 
C 429 806 480 793 506 793 
C 589 793 749 838 749 1036 
C 749 1209 627 1280 506 1280 
C 358 1280 262 1190 262 1011 
C 262 454 704 -128 1382 -128 
C 2042 -128 2669 441 2669 1267 
C 2669 2054 2170 2662 1549 2662 
C 1222 2662 947 2540 730 2304 
L 730 3750 
z
" transform="scale(0.015625)"/>
       </defs>
       <use xlink:href="#CMR17-35" transform="scale(0.996264)"/>
       <use xlink:href="#CMR17-30" transform="translate(45.690477 0) scale(0.996264)"/>
      </g>
     </g>
    </g>
    <g id="xtick_3">
     <g id="line2d_5">
      <path d="M 156.234035 242.786449 
L 156.234035 26.570347 
" clip-path="url(#p44344d0cd3)" style="fill: none; stroke: #b0b0b0; stroke-width: 0.8; stroke-linecap: square"/>
     </g>
     <g id="line2d_6">
      <g>
       <use xlink:href="#mb74dadd7c3" x="156.234035" y="242.786449" style="stroke: #000000; stroke-width: 0.8"/>
      </g>
     </g>
     <g id="text_3">
      <!-- $\mathdefault{100}$ -->
      <g transform="translate(147.454549 258.088629) scale(0.12 -0.12)">
       <defs>
        <path id="CMR17-31" d="M 1702 4083 
C 1702 4217 1696 4224 1606 4224 
C 1357 3927 979 3833 621 3820 
C 602 3820 570 3820 563 3808 
C 557 3795 557 3782 557 3648 
C 755 3648 1088 3686 1344 3839 
L 1344 467 
C 1344 243 1331 166 781 166 
L 589 166 
L 589 0 
C 896 6 1216 12 1523 12 
C 1830 12 2150 6 2458 0 
L 2458 166 
L 2266 166 
C 1715 166 1702 236 1702 467 
L 1702 4083 
z
" transform="scale(0.015625)"/>
       </defs>
       <use xlink:href="#CMR17-31" transform="scale(0.996264)"/>
       <use xlink:href="#CMR17-30" transform="translate(45.690477 0) scale(0.996264)"/>
       <use xlink:href="#CMR17-30" transform="translate(91.380954 0) scale(0.996264)"/>
      </g>
     </g>
    </g>
    <g id="xtick_4">
     <g id="line2d_7">
      <path d="M 197.568726 242.786449 
L 197.568726 26.570347 
" clip-path="url(#p44344d0cd3)" style="fill: none; stroke: #b0b0b0; stroke-width: 0.8; stroke-linecap: square"/>
     </g>
     <g id="line2d_8">
      <g>
       <use xlink:href="#mb74dadd7c3" x="197.568726" y="242.786449" style="stroke: #000000; stroke-width: 0.8"/>
      </g>
     </g>
     <g id="text_4">
      <!-- $\mathdefault{150}$ -->
      <g transform="translate(188.78924 258.088629) scale(0.12 -0.12)">
       <use xlink:href="#CMR17-31" transform="scale(0.996264)"/>
       <use xlink:href="#CMR17-35" transform="translate(45.690477 0) scale(0.996264)"/>
       <use xlink:href="#CMR17-30" transform="translate(91.380954 0) scale(0.996264)"/>
      </g>
     </g>
    </g>
    <g id="xtick_5">
     <g id="line2d_9">
      <path d="M 238.903417 242.786449 
L 238.903417 26.570347 
" clip-path="url(#p44344d0cd3)" style="fill: none; stroke: #b0b0b0; stroke-width: 0.8; stroke-linecap: square"/>
     </g>
     <g id="line2d_10">
      <g>
       <use xlink:href="#mb74dadd7c3" x="238.903417" y="242.786449" style="stroke: #000000; stroke-width: 0.8"/>
      </g>
     </g>
     <g id="text_5">
      <!-- $\mathdefault{200}$ -->
      <g transform="translate(230.123931 258.088629) scale(0.12 -0.12)">
       <defs>
        <path id="CMR17-32" d="M 2669 990 
L 2554 990 
C 2490 537 2438 460 2413 422 
C 2381 371 1920 371 1830 371 
L 602 371 
C 832 620 1280 1073 1824 1596 
C 2214 1966 2669 2400 2669 3033 
C 2669 3788 2067 4224 1395 4224 
C 691 4224 262 3603 262 3027 
C 262 2777 448 2745 525 2745 
C 589 2745 781 2783 781 3007 
C 781 3206 614 3264 525 3264 
C 486 3264 448 3257 422 3244 
C 544 3788 915 4057 1306 4057 
C 1862 4057 2227 3616 2227 3033 
C 2227 2477 1901 1998 1536 1583 
L 262 147 
L 262 0 
L 2515 0 
L 2669 990 
z
" transform="scale(0.015625)"/>
       </defs>
       <use xlink:href="#CMR17-32" transform="scale(0.996264)"/>
       <use xlink:href="#CMR17-30" transform="translate(45.690477 0) scale(0.996264)"/>
       <use xlink:href="#CMR17-30" transform="translate(91.380954 0) scale(0.996264)"/>
      </g>
     </g>
    </g>
    <g id="xtick_6">
     <g id="line2d_11">
      <path d="M 280.238108 242.786449 
L 280.238108 26.570347 
" clip-path="url(#p44344d0cd3)" style="fill: none; stroke: #b0b0b0; stroke-width: 0.8; stroke-linecap: square"/>
     </g>
     <g id="line2d_12">
      <g>
       <use xlink:href="#mb74dadd7c3" x="280.238108" y="242.786449" style="stroke: #000000; stroke-width: 0.8"/>
      </g>
     </g>
     <g id="text_6">
      <!-- $\mathdefault{250}$ -->
      <g transform="translate(271.458622 258.088629) scale(0.12 -0.12)">
       <use xlink:href="#CMR17-32" transform="scale(0.996264)"/>
       <use xlink:href="#CMR17-35" transform="translate(45.690477 0) scale(0.996264)"/>
       <use xlink:href="#CMR17-30" transform="translate(91.380954 0) scale(0.996264)"/>
      </g>
     </g>
    </g>
    <g id="xtick_7">
     <g id="line2d_13">
      <path d="M 321.572799 242.786449 
L 321.572799 26.570347 
" clip-path="url(#p44344d0cd3)" style="fill: none; stroke: #b0b0b0; stroke-width: 0.8; stroke-linecap: square"/>
     </g>
     <g id="line2d_14">
      <g>
       <use xlink:href="#mb74dadd7c3" x="321.572799" y="242.786449" style="stroke: #000000; stroke-width: 0.8"/>
      </g>
     </g>
     <g id="text_7">
      <!-- $\mathdefault{300}$ -->
      <g transform="translate(312.793313 258.088629) scale(0.12 -0.12)">
       <defs>
        <path id="CMR17-33" d="M 1414 2176 
C 1984 2176 2234 1673 2234 1094 
C 2234 322 1824 25 1453 25 
C 1114 25 563 193 390 691 
C 422 678 454 678 486 678 
C 640 678 755 780 755 947 
C 755 1132 614 1216 486 1216 
C 378 1216 211 1164 211 927 
C 211 335 787 -128 1466 -128 
C 2176 -128 2720 432 2720 1087 
C 2720 1718 2208 2176 1600 2246 
C 2086 2347 2554 2776 2554 3353 
C 2554 3856 2048 4224 1472 4224 
C 890 4224 378 3862 378 3347 
C 378 3123 544 3084 627 3084 
C 762 3084 877 3167 877 3334 
C 877 3500 762 3584 627 3584 
C 602 3584 570 3584 544 3571 
C 730 3999 1235 4076 1459 4076 
C 1683 4076 2106 3966 2106 3347 
C 2106 3167 2080 2851 1862 2574 
C 1670 2329 1453 2316 1242 2297 
C 1210 2297 1062 2284 1037 2284 
C 992 2278 966 2272 966 2227 
C 966 2182 973 2176 1101 2176 
L 1414 2176 
z
" transform="scale(0.015625)"/>
       </defs>
       <use xlink:href="#CMR17-33" transform="scale(0.996264)"/>
       <use xlink:href="#CMR17-30" transform="translate(45.690477 0) scale(0.996264)"/>
       <use xlink:href="#CMR17-30" transform="translate(91.380954 0) scale(0.996264)"/>
      </g>
     </g>
    </g>
    <g id="xtick_8">
     <g id="line2d_15">
      <path d="M 362.90749 242.786449 
L 362.90749 26.570347 
" clip-path="url(#p44344d0cd3)" style="fill: none; stroke: #b0b0b0; stroke-width: 0.8; stroke-linecap: square"/>
     </g>
     <g id="line2d_16">
      <g>
       <use xlink:href="#mb74dadd7c3" x="362.90749" y="242.786449" style="stroke: #000000; stroke-width: 0.8"/>
      </g>
     </g>
     <g id="text_8">
      <!-- $\mathdefault{350}$ -->
      <g transform="translate(354.128004 258.088629) scale(0.12 -0.12)">
       <use xlink:href="#CMR17-33" transform="scale(0.996264)"/>
       <use xlink:href="#CMR17-35" transform="translate(45.690477 0) scale(0.996264)"/>
       <use xlink:href="#CMR17-30" transform="translate(91.380954 0) scale(0.996264)"/>
      </g>
     </g>
    </g>
    <g id="xtick_9">
     <g id="line2d_17">
      <path d="M 404.242181 242.786449 
L 404.242181 26.570347 
" clip-path="url(#p44344d0cd3)" style="fill: none; stroke: #b0b0b0; stroke-width: 0.8; stroke-linecap: square"/>
     </g>
     <g id="line2d_18">
      <g>
       <use xlink:href="#mb74dadd7c3" x="404.242181" y="242.786449" style="stroke: #000000; stroke-width: 0.8"/>
      </g>
     </g>
     <g id="text_9">
      <!-- $\mathdefault{400}$ -->
      <g transform="translate(395.462695 258.088629) scale(0.12 -0.12)">
       <defs>
        <path id="CMR17-34" d="M 2150 4147 
C 2150 4281 2144 4288 2029 4288 
L 128 1254 
L 128 1088 
L 1779 1088 
L 1779 460 
C 1779 230 1766 166 1318 166 
L 1197 166 
L 1197 0 
C 1402 12 1747 12 1965 12 
C 2182 12 2528 12 2733 0 
L 2733 166 
L 2611 166 
C 2163 166 2150 230 2150 460 
L 2150 1088 
L 2803 1088 
L 2803 1254 
L 2150 1254 
L 2150 4147 
z
M 1798 3723 
L 1798 1254 
L 256 1254 
L 1798 3723 
z
" transform="scale(0.015625)"/>
       </defs>
       <use xlink:href="#CMR17-34" transform="scale(0.996264)"/>
       <use xlink:href="#CMR17-30" transform="translate(45.690477 0) scale(0.996264)"/>
       <use xlink:href="#CMR17-30" transform="translate(91.380954 0) scale(0.996264)"/>
      </g>
     </g>
    </g>
    <g id="text_10">
     <!-- \textbf{Epoch} -->
     <g transform="translate(219.652755 272.715404) scale(0.12 -0.12)">
      <defs>
       <path id="CMBX12-45" d="M 4518 1753 
L 4250 1753 
C 4115 783 3878 275 2765 275 
L 1766 275 
L 1766 2156 
L 2144 2156 
C 2758 2156 2822 1889 2822 1395 
L 3091 1395 
L 3091 3177 
L 2822 3177 
C 2822 2699 2758 2432 2144 2432 
L 1766 2432 
L 1766 4108 
L 2765 4108 
C 3744 4108 3955 3694 4051 2871 
L 4320 2871 
L 4134 4383 
L 243 4383 
L 243 4108 
L 922 4108 
L 922 275 
L 243 275 
L 243 0 
L 4243 0 
L 4518 1753 
z
" transform="scale(0.015625)"/>
       <path id="CMBX12-70" d="M 1805 -941 
L 1363 -941 
L 1363 237 
C 1523 96 1805 -64 2189 -64 
C 3066 -64 3750 470 3750 1414 
C 3750 2306 3155 2880 2291 2880 
C 1914 2880 1587 2751 1331 2546 
L 1331 2880 
L 224 2828 
L 224 2552 
C 621 2552 666 2552 666 2300 
L 666 -941 
L 224 -941 
L 224 -1216 
C 371 -1204 832 -1204 1011 -1204 
C 1190 -1204 1658 -1204 1805 -1216 
L 1805 -941 
z
M 1363 2235 
C 1600 2546 1939 2649 2189 2649 
C 2605 2649 2982 2268 2982 1414 
C 2982 476 2522 147 2112 147 
C 1837 147 1562 289 1363 593 
L 1363 2235 
z
" transform="scale(0.015625)"/>
       <path id="CMBX12-6f" d="M 3392 1379 
C 3392 2245 2803 2880 1798 2880 
C 755 2880 198 2213 198 1379 
C 198 538 787 -64 1792 -64 
C 2835 -64 3392 570 3392 1379 
z
M 1798 166 
C 966 166 966 917 966 1443 
C 966 1744 966 2065 1088 2296 
C 1229 2553 1517 2668 1792 2668 
C 2157 2668 2387 2495 2496 2315 
C 2624 2084 2624 1751 2624 1443 
C 2624 910 2624 166 1798 166 
z
" transform="scale(0.015625)"/>
       <path id="CMBX12-63" d="M 2995 724 
C 2995 801 2925 801 2861 801 
C 2758 801 2752 795 2720 718 
C 2675 596 2502 166 1914 166 
C 1011 166 1011 1141 1011 1430 
C 1011 1808 1018 2649 1856 2649 
C 1901 2649 2278 2636 2278 2604 
C 2278 2598 2272 2591 2259 2585 
C 2240 2566 2157 2469 2157 2309 
C 2157 2039 2374 1930 2534 1930 
C 2669 1930 2912 2014 2912 2315 
C 2912 2841 2176 2880 1830 2880 
C 691 2880 243 2136 243 1398 
C 243 525 851 -64 1792 -64 
C 2797 -64 2995 679 2995 724 
z
" transform="scale(0.015625)"/>
       <path id="CMBX12-68" d="M 3398 1958 
C 3398 2566 3136 2880 2432 2880 
C 1786 2880 1472 2425 1382 2233 
L 1376 2233 
L 1376 4480 
L 269 4428 
L 269 4153 
C 666 4153 710 4153 710 3896 
L 710 275 
L 269 275 
L 269 0 
C 416 12 877 12 1056 12 
C 1235 12 1702 12 1850 0 
L 1850 275 
L 1408 275 
L 1408 1638 
C 1408 2329 1920 2668 2330 2668 
C 2566 2668 2701 2515 2701 2028 
L 2701 275 
L 2259 275 
L 2259 0 
C 2406 12 2867 12 3046 12 
C 3226 12 3693 12 3840 0 
L 3840 275 
L 3398 275 
L 3398 1958 
z
" transform="scale(0.015625)"/>
      </defs>
      <use xlink:href="#CMBX12-45" transform="scale(0.996264)"/>
      <use xlink:href="#CMBX12-70" transform="translate(73.566746 0) scale(0.996264)"/>
      <use xlink:href="#CMBX12-6f" transform="translate(138.946571 0) scale(0.996264)"/>
      <use xlink:href="#CMBX12-63" transform="translate(198.099747 0) scale(0.996264)"/>
      <use xlink:href="#CMBX12-68" transform="translate(244.799622 0) scale(0.996264)"/>
     </g>
    </g>
   </g>
   <g id="matplotlib.axis_2">
    <g id="ytick_1">
     <g id="line2d_19">
      <path d="M 57.113446 208.189472 
L 419.04 208.189472 
" clip-path="url(#p44344d0cd3)" style="fill: none; stroke: #b0b0b0; stroke-width: 0.8; stroke-linecap: square"/>
     </g>
     <g id="line2d_20">
      <defs>
       <path id="m197079775b" d="M 0 0 
L -3.5 0 
" style="stroke: #000000; stroke-width: 0.8"/>
      </defs>
      <g>
       <use xlink:href="#m197079775b" x="57.113446" y="208.189472" style="stroke: #000000; stroke-width: 0.8"/>
      </g>
     </g>
     <g id="text_11">
      <!-- $\mathdefault{10^{-6}}$ -->
      <g transform="translate(27.586776 212.340561) scale(0.12 -0.12)">
       <defs>
        <path id="CMSY10-0" d="M 4218 1472 
C 4326 1472 4442 1472 4442 1600 
C 4442 1728 4326 1728 4218 1728 
L 755 1728 
C 646 1728 531 1728 531 1600 
C 531 1472 646 1472 755 1472 
L 4218 1472 
z
" transform="scale(0.015625)"/>
        <path id="CMR17-36" d="M 678 2198 
C 678 3712 1395 4076 1811 4076 
C 1946 4076 2272 4049 2400 3782 
C 2298 3782 2106 3782 2106 3558 
C 2106 3385 2246 3328 2336 3328 
C 2394 3328 2566 3353 2566 3571 
C 2566 3987 2246 4224 1805 4224 
C 1043 4224 243 3411 243 2011 
C 243 257 966 -128 1478 -128 
C 2099 -128 2688 431 2688 1295 
C 2688 2101 2170 2688 1517 2688 
C 1126 2688 838 2430 678 1979 
L 678 2198 
z
M 1478 25 
C 691 25 691 1212 691 1450 
C 691 1914 909 2585 1504 2585 
C 1613 2585 1926 2585 2138 2140 
C 2253 1889 2253 1624 2253 1302 
C 2253 954 2253 696 2118 438 
C 1978 173 1773 25 1478 25 
z
" transform="scale(0.015625)"/>
       </defs>
       <use xlink:href="#CMR17-31" transform="scale(0.996264)"/>
       <use xlink:href="#CMR17-30" transform="translate(45.690477 0) scale(0.996264)"/>
       <use xlink:href="#CMSY10-0" transform="translate(91.380954 36.153639) scale(0.697382)"/>
       <use xlink:href="#CMR17-36" transform="translate(145.621947 36.153639) scale(0.697382)"/>
      </g>
     </g>
    </g>
    <g id="ytick_2">
     <g id="line2d_21">
      <path d="M 57.113446 162.912259 
L 419.04 162.912259 
" clip-path="url(#p44344d0cd3)" style="fill: none; stroke: #b0b0b0; stroke-width: 0.8; stroke-linecap: square"/>
     </g>
     <g id="line2d_22">
      <g>
       <use xlink:href="#m197079775b" x="57.113446" y="162.912259" style="stroke: #000000; stroke-width: 0.8"/>
      </g>
     </g>
     <g id="text_12">
      <!-- $\mathdefault{10^{-5}}$ -->
      <g transform="translate(27.586776 167.063349) scale(0.12 -0.12)">
       <use xlink:href="#CMR17-31" transform="scale(0.996264)"/>
       <use xlink:href="#CMR17-30" transform="translate(45.690477 0) scale(0.996264)"/>
       <use xlink:href="#CMSY10-0" transform="translate(91.380954 36.153639) scale(0.697382)"/>
       <use xlink:href="#CMR17-35" transform="translate(145.621947 36.153639) scale(0.697382)"/>
      </g>
     </g>
    </g>
    <g id="ytick_3">
     <g id="line2d_23">
      <path d="M 57.113446 117.635046 
L 419.04 117.635046 
" clip-path="url(#p44344d0cd3)" style="fill: none; stroke: #b0b0b0; stroke-width: 0.8; stroke-linecap: square"/>
     </g>
     <g id="line2d_24">
      <g>
       <use xlink:href="#m197079775b" x="57.113446" y="117.635046" style="stroke: #000000; stroke-width: 0.8"/>
      </g>
     </g>
     <g id="text_13">
      <!-- $\mathdefault{10^{-4}}$ -->
      <g transform="translate(27.586776 121.786136) scale(0.12 -0.12)">
       <use xlink:href="#CMR17-31" transform="scale(0.996264)"/>
       <use xlink:href="#CMR17-30" transform="translate(45.690477 0) scale(0.996264)"/>
       <use xlink:href="#CMSY10-0" transform="translate(91.380954 36.153639) scale(0.697382)"/>
       <use xlink:href="#CMR17-34" transform="translate(145.621947 36.153639) scale(0.697382)"/>
      </g>
     </g>
    </g>
    <g id="ytick_4">
     <g id="line2d_25">
      <path d="M 57.113446 72.357834 
L 419.04 72.357834 
" clip-path="url(#p44344d0cd3)" style="fill: none; stroke: #b0b0b0; stroke-width: 0.8; stroke-linecap: square"/>
     </g>
     <g id="line2d_26">
      <g>
       <use xlink:href="#m197079775b" x="57.113446" y="72.357834" style="stroke: #000000; stroke-width: 0.8"/>
      </g>
     </g>
     <g id="text_14">
      <!-- $\mathdefault{10^{-3}}$ -->
      <g transform="translate(27.586776 76.508924) scale(0.12 -0.12)">
       <use xlink:href="#CMR17-31" transform="scale(0.996264)"/>
       <use xlink:href="#CMR17-30" transform="translate(45.690477 0) scale(0.996264)"/>
       <use xlink:href="#CMSY10-0" transform="translate(91.380954 36.153639) scale(0.697382)"/>
       <use xlink:href="#CMR17-33" transform="translate(145.621947 36.153639) scale(0.697382)"/>
      </g>
     </g>
    </g>
    <g id="ytick_5">
     <g id="line2d_27">
      <path d="M 57.113446 27.080621 
L 419.04 27.080621 
" clip-path="url(#p44344d0cd3)" style="fill: none; stroke: #b0b0b0; stroke-width: 0.8; stroke-linecap: square"/>
     </g>
     <g id="line2d_28">
      <g>
       <use xlink:href="#m197079775b" x="57.113446" y="27.080621" style="stroke: #000000; stroke-width: 0.8"/>
      </g>
     </g>
     <g id="text_15">
      <!-- $\mathdefault{10^{-2}}$ -->
      <g transform="translate(27.586776 31.231711) scale(0.12 -0.12)">
       <use xlink:href="#CMR17-31" transform="scale(0.996264)"/>
       <use xlink:href="#CMR17-30" transform="translate(45.690477 0) scale(0.996264)"/>
       <use xlink:href="#CMSY10-0" transform="translate(91.380954 36.153639) scale(0.697382)"/>
       <use xlink:href="#CMR17-32" transform="translate(145.621947 36.153639) scale(0.697382)"/>
      </g>
     </g>
    </g>
    <g id="ytick_6">
     <g id="line2d_29">
      <defs>
       <path id="mc50dcdf20a" d="M 0 0 
L -2 0 
" style="stroke: #000000; stroke-width: 0.6"/>
      </defs>
      <g>
       <use xlink:href="#mc50dcdf20a" x="57.113446" y="239.836885" style="stroke: #000000; stroke-width: 0.6"/>
      </g>
     </g>
    </g>
    <g id="ytick_7">
     <g id="line2d_30">
      <g>
       <use xlink:href="#mc50dcdf20a" x="57.113446" y="231.863964" style="stroke: #000000; stroke-width: 0.6"/>
      </g>
     </g>
    </g>
    <g id="ytick_8">
     <g id="line2d_31">
      <g>
       <use xlink:href="#mc50dcdf20a" x="57.113446" y="226.207086" style="stroke: #000000; stroke-width: 0.6"/>
      </g>
     </g>
    </g>
    <g id="ytick_9">
     <g id="line2d_32">
      <g>
       <use xlink:href="#mc50dcdf20a" x="57.113446" y="221.819271" style="stroke: #000000; stroke-width: 0.6"/>
      </g>
     </g>
    </g>
    <g id="ytick_10">
     <g id="line2d_33">
      <g>
       <use xlink:href="#mc50dcdf20a" x="57.113446" y="218.234165" style="stroke: #000000; stroke-width: 0.6"/>
      </g>
     </g>
    </g>
    <g id="ytick_11">
     <g id="line2d_34">
      <g>
       <use xlink:href="#mc50dcdf20a" x="57.113446" y="215.203001" style="stroke: #000000; stroke-width: 0.6"/>
      </g>
     </g>
    </g>
    <g id="ytick_12">
     <g id="line2d_35">
      <g>
       <use xlink:href="#mc50dcdf20a" x="57.113446" y="212.577287" style="stroke: #000000; stroke-width: 0.6"/>
      </g>
     </g>
    </g>
    <g id="ytick_13">
     <g id="line2d_36">
      <g>
       <use xlink:href="#mc50dcdf20a" x="57.113446" y="210.261243" style="stroke: #000000; stroke-width: 0.6"/>
      </g>
     </g>
    </g>
    <g id="ytick_14">
     <g id="line2d_37">
      <g>
       <use xlink:href="#mc50dcdf20a" x="57.113446" y="194.559672" style="stroke: #000000; stroke-width: 0.6"/>
      </g>
     </g>
    </g>
    <g id="ytick_15">
     <g id="line2d_38">
      <g>
       <use xlink:href="#mc50dcdf20a" x="57.113446" y="186.586751" style="stroke: #000000; stroke-width: 0.6"/>
      </g>
     </g>
    </g>
    <g id="ytick_16">
     <g id="line2d_39">
      <g>
       <use xlink:href="#mc50dcdf20a" x="57.113446" y="180.929873" style="stroke: #000000; stroke-width: 0.6"/>
      </g>
     </g>
    </g>
    <g id="ytick_17">
     <g id="line2d_40">
      <g>
       <use xlink:href="#mc50dcdf20a" x="57.113446" y="176.542058" style="stroke: #000000; stroke-width: 0.6"/>
      </g>
     </g>
    </g>
    <g id="ytick_18">
     <g id="line2d_41">
      <g>
       <use xlink:href="#mc50dcdf20a" x="57.113446" y="172.956952" style="stroke: #000000; stroke-width: 0.6"/>
      </g>
     </g>
    </g>
    <g id="ytick_19">
     <g id="line2d_42">
      <g>
       <use xlink:href="#mc50dcdf20a" x="57.113446" y="169.925788" style="stroke: #000000; stroke-width: 0.6"/>
      </g>
     </g>
    </g>
    <g id="ytick_20">
     <g id="line2d_43">
      <g>
       <use xlink:href="#mc50dcdf20a" x="57.113446" y="167.300074" style="stroke: #000000; stroke-width: 0.6"/>
      </g>
     </g>
    </g>
    <g id="ytick_21">
     <g id="line2d_44">
      <g>
       <use xlink:href="#mc50dcdf20a" x="57.113446" y="164.984031" style="stroke: #000000; stroke-width: 0.6"/>
      </g>
     </g>
    </g>
    <g id="ytick_22">
     <g id="line2d_45">
      <g>
       <use xlink:href="#mc50dcdf20a" x="57.113446" y="149.28246" style="stroke: #000000; stroke-width: 0.6"/>
      </g>
     </g>
    </g>
    <g id="ytick_23">
     <g id="line2d_46">
      <g>
       <use xlink:href="#mc50dcdf20a" x="57.113446" y="141.309539" style="stroke: #000000; stroke-width: 0.6"/>
      </g>
     </g>
    </g>
    <g id="ytick_24">
     <g id="line2d_47">
      <g>
       <use xlink:href="#mc50dcdf20a" x="57.113446" y="135.652661" style="stroke: #000000; stroke-width: 0.6"/>
      </g>
     </g>
    </g>
    <g id="ytick_25">
     <g id="line2d_48">
      <g>
       <use xlink:href="#mc50dcdf20a" x="57.113446" y="131.264846" style="stroke: #000000; stroke-width: 0.6"/>
      </g>
     </g>
    </g>
    <g id="ytick_26">
     <g id="line2d_49">
      <g>
       <use xlink:href="#mc50dcdf20a" x="57.113446" y="127.679739" style="stroke: #000000; stroke-width: 0.6"/>
      </g>
     </g>
    </g>
    <g id="ytick_27">
     <g id="line2d_50">
      <g>
       <use xlink:href="#mc50dcdf20a" x="57.113446" y="124.648575" style="stroke: #000000; stroke-width: 0.6"/>
      </g>
     </g>
    </g>
    <g id="ytick_28">
     <g id="line2d_51">
      <g>
       <use xlink:href="#mc50dcdf20a" x="57.113446" y="122.022862" style="stroke: #000000; stroke-width: 0.6"/>
      </g>
     </g>
    </g>
    <g id="ytick_29">
     <g id="line2d_52">
      <g>
       <use xlink:href="#mc50dcdf20a" x="57.113446" y="119.706818" style="stroke: #000000; stroke-width: 0.6"/>
      </g>
     </g>
    </g>
    <g id="ytick_30">
     <g id="line2d_53">
      <g>
       <use xlink:href="#mc50dcdf20a" x="57.113446" y="104.005247" style="stroke: #000000; stroke-width: 0.6"/>
      </g>
     </g>
    </g>
    <g id="ytick_31">
     <g id="line2d_54">
      <g>
       <use xlink:href="#mc50dcdf20a" x="57.113446" y="96.032326" style="stroke: #000000; stroke-width: 0.6"/>
      </g>
     </g>
    </g>
    <g id="ytick_32">
     <g id="line2d_55">
      <g>
       <use xlink:href="#mc50dcdf20a" x="57.113446" y="90.375448" style="stroke: #000000; stroke-width: 0.6"/>
      </g>
     </g>
    </g>
    <g id="ytick_33">
     <g id="line2d_56">
      <g>
       <use xlink:href="#mc50dcdf20a" x="57.113446" y="85.987633" style="stroke: #000000; stroke-width: 0.6"/>
      </g>
     </g>
    </g>
    <g id="ytick_34">
     <g id="line2d_57">
      <g>
       <use xlink:href="#mc50dcdf20a" x="57.113446" y="82.402527" style="stroke: #000000; stroke-width: 0.6"/>
      </g>
     </g>
    </g>
    <g id="ytick_35">
     <g id="line2d_58">
      <g>
       <use xlink:href="#mc50dcdf20a" x="57.113446" y="79.371363" style="stroke: #000000; stroke-width: 0.6"/>
      </g>
     </g>
    </g>
    <g id="ytick_36">
     <g id="line2d_59">
      <g>
       <use xlink:href="#mc50dcdf20a" x="57.113446" y="76.745649" style="stroke: #000000; stroke-width: 0.6"/>
      </g>
     </g>
    </g>
    <g id="ytick_37">
     <g id="line2d_60">
      <g>
       <use xlink:href="#mc50dcdf20a" x="57.113446" y="74.429606" style="stroke: #000000; stroke-width: 0.6"/>
      </g>
     </g>
    </g>
    <g id="ytick_38">
     <g id="line2d_61">
      <g>
       <use xlink:href="#mc50dcdf20a" x="57.113446" y="58.728035" style="stroke: #000000; stroke-width: 0.6"/>
      </g>
     </g>
    </g>
    <g id="ytick_39">
     <g id="line2d_62">
      <g>
       <use xlink:href="#mc50dcdf20a" x="57.113446" y="50.755113" style="stroke: #000000; stroke-width: 0.6"/>
      </g>
     </g>
    </g>
    <g id="ytick_40">
     <g id="line2d_63">
      <g>
       <use xlink:href="#mc50dcdf20a" x="57.113446" y="45.098236" style="stroke: #000000; stroke-width: 0.6"/>
      </g>
     </g>
    </g>
    <g id="ytick_41">
     <g id="line2d_64">
      <g>
       <use xlink:href="#mc50dcdf20a" x="57.113446" y="40.71042" style="stroke: #000000; stroke-width: 0.6"/>
      </g>
     </g>
    </g>
    <g id="ytick_42">
     <g id="line2d_65">
      <g>
       <use xlink:href="#mc50dcdf20a" x="57.113446" y="37.125314" style="stroke: #000000; stroke-width: 0.6"/>
      </g>
     </g>
    </g>
    <g id="ytick_43">
     <g id="line2d_66">
      <g>
       <use xlink:href="#mc50dcdf20a" x="57.113446" y="34.09415" style="stroke: #000000; stroke-width: 0.6"/>
      </g>
     </g>
    </g>
    <g id="ytick_44">
     <g id="line2d_67">
      <g>
       <use xlink:href="#mc50dcdf20a" x="57.113446" y="31.468437" style="stroke: #000000; stroke-width: 0.6"/>
      </g>
     </g>
    </g>
    <g id="ytick_45">
     <g id="line2d_68">
      <g>
       <use xlink:href="#mc50dcdf20a" x="57.113446" y="29.152393" style="stroke: #000000; stroke-width: 0.6"/>
      </g>
     </g>
    </g>
    <g id="text_16">
     <!-- \textbf{MSE Loss} -->
     <g transform="translate(21.26218 164.156767) rotate(-90) scale(0.12 -0.12)">
      <defs>
       <path id="CMBX12-4d" d="M 3411 816 
L 1875 4281 
C 1818 4416 1760 4416 1626 4416 
L 262 4416 
L 262 4140 
L 941 4140 
L 941 468 
C 941 326 934 320 768 294 
C 653 281 525 275 410 275 
L 262 275 
L 262 0 
C 410 12 909 12 1088 12 
C 1267 12 1773 12 1920 0 
L 1920 275 
L 1773 275 
C 1600 275 1587 275 1434 294 
C 1248 320 1242 326 1242 468 
L 1242 4063 
L 1248 4063 
L 2989 134 
C 3021 64 3059 0 3168 0 
C 3277 0 3315 64 3347 134 
L 5120 4140 
L 5126 4140 
L 5126 275 
L 4448 275 
L 4448 0 
C 4621 12 5286 12 5504 12 
C 5722 12 6387 12 6560 0 
L 6560 275 
L 5882 275 
L 5882 4140 
L 6560 4140 
L 6560 4416 
L 5197 4416 
C 5062 4416 5005 4416 4947 4281 
L 3411 816 
z
" transform="scale(0.015625)"/>
       <path id="CMBX12-53" d="M 1626 2828 
C 992 2969 973 3430 973 3520 
C 973 3846 1184 4223 1805 4223 
C 2426 4223 2982 3923 3117 3084 
C 3136 2950 3136 2944 3258 2944 
C 3392 2944 3392 2963 3392 3110 
L 3392 4313 
C 3392 4435 3392 4480 3296 4480 
C 3251 4480 3232 4473 3174 4409 
L 2899 4096 
C 2739 4230 2419 4480 1798 4480 
C 883 4480 397 3904 397 3206 
C 397 2777 627 2476 717 2387 
C 1050 2054 1229 2016 1894 1868 
C 2534 1728 2611 1715 2752 1580 
C 2835 1497 3021 1318 3021 992 
C 3021 716 2886 211 2170 211 
C 1606 211 717 403 666 1337 
C 659 1452 659 1472 531 1472 
C 397 1472 397 1452 397 1305 
L 397 102 
C 397 -20 397 -64 493 -64 
C 538 -64 544 -58 608 0 
C 678 70 736 153 896 313 
C 1267 19 1792 -64 2176 -64 
C 3174 -64 3597 614 3597 1292 
C 3597 1894 3200 2470 2502 2630 
L 1626 2828 
z
" transform="scale(0.015625)"/>
       <path id="CMBX12-4c" d="M 4019 1737 
L 3750 1737 
C 3706 1293 3603 275 2451 275 
L 1766 275 
L 1766 4140 
L 2618 4140 
L 2618 4416 
C 2304 4403 1734 4403 1395 4403 
C 1158 4403 429 4403 243 4416 
L 243 4140 
L 922 4140 
L 922 275 
L 243 275 
L 243 0 
L 3834 0 
L 4019 1737 
z
" transform="scale(0.015625)"/>
       <path id="CMBX12-73" d="M 2413 2713 
C 2413 2835 2413 2880 2317 2880 
C 2278 2880 2266 2880 2170 2822 
C 2144 2803 2074 2758 2042 2739 
C 1862 2841 1626 2880 1395 2880 
C 1203 2880 243 2880 243 2046 
C 243 1372 1037 1231 1235 1199 
C 1408 1167 1619 1128 1645 1128 
C 1901 1071 2157 910 2157 641 
C 2157 147 1574 147 1440 147 
C 1114 147 710 249 531 872 
C 493 1000 486 1006 378 1006 
C 243 1006 243 987 243 840 
L 243 102 
C 243 -20 243 -64 339 -64 
C 384 -64 397 -64 525 38 
L 691 160 
C 979 -64 1325 -64 1440 -64 
C 1792 -64 2592 12 2592 865 
C 2592 1173 2426 1385 2298 1500 
C 2035 1719 1818 1757 1472 1821 
C 1062 1892 678 1962 678 2270 
C 678 2687 1248 2687 1382 2687 
C 2093 2687 2131 2238 2144 2078 
C 2150 1995 2202 1995 2278 1995 
C 2413 1995 2413 2014 2413 2161 
L 2413 2713 
z
" transform="scale(0.015625)"/>
      </defs>
      <use xlink:href="#CMBX12-4d" transform="scale(0.996264)"/>
      <use xlink:href="#CMBX12-53" transform="translate(106.314425 0) scale(0.996264)"/>
      <use xlink:href="#CMBX12-45" transform="translate(168.580926 0) scale(0.996264)"/>
      <use xlink:href="#CMBX12-4c" transform="translate(279.507572 0) scale(0.996264)"/>
      <use xlink:href="#CMBX12-6f" transform="translate(346.847667 0) scale(0.996264)"/>
      <use xlink:href="#CMBX12-73" transform="translate(402.887518 0) scale(0.996264)"/>
      <use xlink:href="#CMBX12-73" transform="translate(447.096855 0) scale(0.996264)"/>
     </g>
    </g>
   </g>
   <g id="line2d_69">
    <path d="M 73.564653 36.398351 
L 74.391346 107.025321 
L 75.21804 106.767111 
L 76.044734 111.385408 
L 76.871428 110.358267 
L 77.698122 114.461548 
L 78.524816 114.439884 
L 79.351509 116.072769 
L 80.178203 115.401337 
L 81.004897 116.532539 
L 81.831591 122.825394 
L 82.658285 121.157286 
L 83.484978 128.370535 
L 84.311672 120.899293 
L 85.138366 115.917261 
L 85.96506 127.652173 
L 86.791754 126.28055 
L 87.618448 123.425064 
L 88.445141 127.67426 
L 89.271835 135.572653 
L 90.098529 135.537347 
L 90.925223 126.347647 
L 91.751917 135.239814 
L 92.57861 132.364363 
L 93.405304 138.262663 
L 94.231998 136.093827 
L 95.058692 138.078511 
L 95.885386 134.078109 
L 96.71208 133.704032 
L 97.538773 135.033363 
L 99.192161 142.473248 
L 100.018855 144.025345 
L 100.845549 143.837168 
L 101.672242 141.226467 
L 102.498936 145.400017 
L 103.32563 147.798747 
L 104.152324 144.032592 
L 104.979018 145.12018 
L 105.805712 142.486655 
L 106.632405 150.398185 
L 107.459099 137.906735 
L 108.285793 148.478718 
L 109.112487 138.344959 
L 109.939181 142.422212 
L 110.765874 145.598109 
L 111.592568 136.829247 
L 112.419262 140.481583 
L 113.245956 148.29548 
L 114.07265 146.701321 
L 114.899344 139.788932 
L 115.726037 146.067177 
L 116.552731 147.633075 
L 117.379425 148.592993 
L 118.206119 148.363825 
L 119.032813 149.517325 
L 119.859507 149.815579 
L 120.6862 151.166129 
L 121.512894 152.889267 
L 122.339588 156.673563 
L 123.166282 150.202437 
L 123.992976 152.926643 
L 124.819669 153.791694 
L 125.646363 152.79885 
L 126.473057 151.255328 
L 127.299751 153.796912 
L 128.126445 152.126456 
L 128.953139 154.360899 
L 129.779832 158.374734 
L 130.606526 155.27323 
L 131.43322 160.83725 
L 132.259914 158.84954 
L 133.086608 160.251207 
L 133.913301 157.124778 
L 134.739995 160.851793 
L 135.566689 158.431884 
L 136.393383 159.424416 
L 137.220077 156.810858 
L 138.046771 161.33837 
L 138.873464 157.025391 
L 139.700158 162.211452 
L 140.526852 154.918693 
L 141.353546 157.980519 
L 142.18024 155.065758 
L 143.006933 153.220404 
L 143.833627 162.161218 
L 144.660321 161.031252 
L 145.487015 163.756387 
L 146.313709 161.056704 
L 147.140403 164.140808 
L 147.967096 163.806163 
L 148.79379 165.33423 
L 149.620484 164.631159 
L 150.447178 162.374247 
L 152.100566 162.255707 
L 152.927259 159.483294 
L 153.753953 161.448423 
L 154.580647 161.581372 
L 155.407341 166.522463 
L 156.234035 164.558429 
L 157.060728 164.377236 
L 157.887422 164.783148 
L 158.714116 160.390982 
L 159.54081 162.82827 
L 160.367504 159.551322 
L 161.194198 162.774622 
L 162.020891 166.797711 
L 162.847585 165.152297 
L 163.674279 162.479811 
L 164.500973 161.849419 
L 165.327667 162.47186 
L 166.15436 166.95741 
L 166.981054 165.476551 
L 167.807748 166.813893 
L 168.634442 163.878505 
L 169.461136 166.829159 
L 170.28783 164.941763 
L 171.114523 162.267109 
L 171.941217 161.126411 
L 172.767911 166.090212 
L 173.594605 168.591534 
L 174.421299 163.727216 
L 175.247992 163.510735 
L 176.074686 166.987909 
L 176.90138 164.653931 
L 177.728074 167.802152 
L 178.554768 169.268449 
L 179.381462 166.401041 
L 180.208155 166.463134 
L 181.034849 170.357804 
L 181.861543 163.618093 
L 182.688237 164.469162 
L 183.514931 167.831168 
L 185.168318 166.038436 
L 185.995012 168.621325 
L 186.821706 167.670736 
L 187.6484 165.605886 
L 188.475094 166.541636 
L 189.301787 166.731105 
L 190.128481 169.570499 
L 190.955175 168.342431 
L 191.781869 168.370066 
L 192.608563 167.661822 
L 193.435257 166.176242 
L 194.26195 166.027773 
L 195.088644 166.827693 
L 195.915338 165.992114 
L 196.742032 170.871512 
L 197.568726 167.489735 
L 198.395419 165.927759 
L 199.222113 169.500036 
L 200.048807 164.031849 
L 200.875501 169.084885 
L 201.702195 166.555323 
L 202.528889 169.335765 
L 203.355582 167.51818 
L 204.182276 168.322998 
L 205.00897 167.027335 
L 205.835664 167.88266 
L 206.662358 169.16756 
L 207.489051 167.834894 
L 208.315745 169.38207 
L 209.142439 165.060011 
L 209.969133 168.45922 
L 210.795827 170.148509 
L 211.622521 169.215981 
L 212.449214 167.029744 
L 214.102602 170.491866 
L 214.929296 167.360251 
L 215.75599 167.710568 
L 216.582683 167.579703 
L 217.409377 168.66858 
L 218.236071 168.877729 
L 219.062765 169.938883 
L 219.889459 169.502116 
L 220.716153 170.679455 
L 221.542846 168.248723 
L 222.36954 169.169572 
L 223.196234 169.796685 
L 224.022928 166.160053 
L 224.849622 167.600077 
L 225.676315 170.327232 
L 226.503009 165.515507 
L 227.329703 169.130553 
L 228.156397 168.890181 
L 228.983091 168.850658 
L 229.809785 166.623374 
L 230.636478 168.446778 
L 231.463172 164.705037 
L 232.289866 169.031324 
L 233.11656 166.175089 
L 233.943254 168.036333 
L 234.769948 167.99409 
L 235.596641 165.918137 
L 236.423335 166.550607 
L 237.250029 169.770957 
L 238.903417 168.37724 
L 239.73011 169.358786 
L 240.556804 169.282533 
L 241.383498 167.222202 
L 242.210192 168.092117 
L 243.036886 168.649357 
L 243.86358 169.377991 
L 244.690273 168.576541 
L 245.516967 165.600836 
L 246.343661 167.403411 
L 247.170355 169.557953 
L 247.997049 166.762776 
L 248.823742 167.778754 
L 249.650436 169.280013 
L 250.47713 168.992809 
L 251.303824 167.374017 
L 252.130518 167.579007 
L 252.957212 170.557414 
L 253.783905 163.47844 
L 254.610599 171.211159 
L 255.437293 166.074204 
L 256.263987 168.464007 
L 257.090681 168.99832 
L 257.917374 166.164214 
L 258.744068 169.531166 
L 259.570762 169.457147 
L 260.397456 168.176513 
L 261.22415 169.589912 
L 262.050844 168.343297 
L 262.877537 165.882211 
L 263.704231 170.135119 
L 264.530925 170.068307 
L 265.357619 166.623662 
L 266.184313 170.971685 
L 267.011006 167.621929 
L 267.8377 172.422988 
L 268.664394 169.993898 
L 269.491088 165.746501 
L 270.317782 167.577198 
L 271.971169 164.988254 
L 272.797863 169.935628 
L 273.624557 168.007585 
L 274.451251 167.745686 
L 275.277945 168.716045 
L 276.104639 170.398051 
L 276.931332 169.361413 
L 277.758026 169.447725 
L 278.58472 164.758667 
L 279.411414 164.127917 
L 280.238108 170.285594 
L 281.064801 169.730506 
L 281.891495 170.535181 
L 282.718189 169.659268 
L 283.544883 166.763587 
L 284.371577 167.829396 
L 285.198271 166.985539 
L 286.024964 169.927897 
L 286.851658 170.307644 
L 287.678352 169.198815 
L 288.505046 167.72194 
L 289.33174 170.398132 
L 290.158433 164.850957 
L 290.985127 169.530134 
L 292.638515 167.626143 
L 293.465209 169.04998 
L 294.291903 168.467164 
L 295.118596 168.022773 
L 295.94529 169.154586 
L 296.771984 168.358829 
L 297.598678 169.49433 
L 298.425372 167.492892 
L 299.252065 170.297946 
L 300.078759 166.471204 
L 300.905453 167.156858 
L 301.732147 169.017216 
L 302.558841 168.589191 
L 303.385535 168.788134 
L 304.212228 168.182955 
L 305.038922 168.676041 
L 305.865616 169.748089 
L 307.519004 168.114843 
L 308.345697 170.455956 
L 309.172391 169.721598 
L 309.999085 166.317859 
L 310.825779 170.327564 
L 311.652473 168.40078 
L 312.479167 168.841414 
L 313.30586 168.341552 
L 314.132554 166.319989 
L 314.959248 168.89448 
L 315.785942 168.522673 
L 317.43933 170.897607 
L 318.266023 170.044765 
L 319.092717 165.946772 
L 320.746105 168.491196 
L 321.572799 170.114892 
L 322.399492 170.046275 
L 323.226186 168.749098 
L 324.05288 171.109177 
L 324.879574 166.365321 
L 325.706268 168.346773 
L 326.532962 165.826026 
L 328.186349 169.768938 
L 329.013043 169.068553 
L 329.839737 167.797941 
L 330.666431 167.79876 
L 331.493124 167.200287 
L 332.319818 167.375581 
L 333.146512 164.921216 
L 333.973206 167.864754 
L 334.7999 168.550775 
L 335.626594 170.254884 
L 336.453287 168.610375 
L 337.279981 166.460821 
L 338.106675 169.910659 
L 338.933369 169.740171 
L 339.760063 168.089602 
L 340.586756 168.62738 
L 341.41345 167.329532 
L 342.240144 168.178518 
L 343.066838 165.16558 
L 343.893532 167.526612 
L 344.720226 170.612715 
L 345.546919 170.085774 
L 346.373613 169.415326 
L 347.200307 170.245765 
L 348.853695 167.306601 
L 349.680388 169.364057 
L 350.507082 168.327016 
L 351.333776 168.061942 
L 352.16047 166.617481 
L 352.987164 165.950959 
L 353.813858 168.069378 
L 354.640551 170.716921 
L 355.467245 168.066407 
L 356.293939 168.230166 
L 357.120633 166.680881 
L 357.947327 171.006684 
L 358.774021 166.706742 
L 359.600714 169.604694 
L 360.427408 168.35849 
L 361.254102 168.366539 
L 362.080796 167.182641 
L 362.90749 168.158368 
L 363.734183 167.112462 
L 364.560877 165.260489 
L 365.387571 172.767017 
L 367.040959 170.219106 
L 367.867653 171.65384 
L 368.694346 169.657849 
L 369.52104 168.888408 
L 370.347734 168.630581 
L 371.174428 167.000574 
L 372.001122 169.172302 
L 372.827815 169.599389 
L 373.654509 168.719814 
L 374.481203 166.431624 
L 375.307897 170.194426 
L 376.134591 169.497135 
L 376.961285 167.942788 
L 377.787978 168.21672 
L 378.614672 168.912177 
L 379.441366 166.394755 
L 380.26806 168.628753 
L 381.094754 167.174819 
L 381.921447 169.432849 
L 382.748141 168.143835 
L 383.574835 167.264521 
L 384.401529 169.087914 
L 385.228223 168.849221 
L 386.054917 170.492079 
L 386.88161 166.137116 
L 387.708304 166.681267 
L 388.534998 168.901682 
L 389.361692 168.237592 
L 390.188386 168.704927 
L 391.015079 166.096003 
L 391.841773 169.315852 
L 392.668467 169.521936 
L 393.495161 166.34159 
L 394.321855 166.844989 
L 395.148549 168.515951 
L 395.975242 168.109973 
L 396.801936 170.124435 
L 397.62863 169.48678 
L 398.455324 164.488579 
L 399.282018 170.720296 
L 400.108712 170.016575 
L 400.935405 169.484483 
L 401.762099 167.444521 
L 402.588793 168.902747 
L 402.588793 168.902747 
" clip-path="url(#p44344d0cd3)" style="fill: none; stroke: #1f77b4; stroke-width: 2; stroke-linecap: square"/>
   </g>
   <g id="line2d_70">
    <path d="M 73.564653 51.310644 
L 74.391346 137.924251 
L 75.21804 107.212934 
L 76.044734 100.046683 
L 76.871428 136.503233 
L 77.698122 100.925882 
L 78.524816 105.075239 
L 79.351509 160.992168 
L 80.178203 115.995581 
L 81.004897 115.487059 
L 81.831591 118.579423 
L 82.658285 119.18607 
L 83.484978 143.212326 
L 84.311672 137.637337 
L 85.138366 126.91047 
L 85.96506 138.347876 
L 86.791754 97.439344 
L 87.618448 114.997534 
L 88.445141 82.199902 
L 89.271835 173.096708 
L 90.098529 123.657805 
L 90.925223 155.046575 
L 91.751917 151.884891 
L 92.57861 155.808315 
L 93.405304 144.307838 
L 94.231998 172.911362 
L 95.058692 152.545412 
L 95.885386 139.934648 
L 96.71208 136.859551 
L 97.538773 136.844183 
L 98.365467 163.855398 
L 99.192161 175.200538 
L 100.018855 147.297898 
L 100.845549 128.500564 
L 101.672242 158.100638 
L 102.498936 147.004061 
L 103.32563 185.490891 
L 104.152324 164.203366 
L 104.979018 171.484979 
L 105.805712 158.227818 
L 106.632405 164.717037 
L 107.459099 172.9402 
L 108.285793 178.36501 
L 109.112487 130.058482 
L 109.939181 192.661812 
L 110.765874 170.327916 
L 111.592568 140.301787 
L 112.419262 156.5128 
L 113.245956 175.585302 
L 114.07265 134.451057 
L 114.899344 142.442487 
L 115.726037 170.996669 
L 116.552731 136.527248 
L 117.379425 155.787126 
L 118.206119 151.388199 
L 119.032813 155.37872 
L 119.859507 145.708395 
L 120.6862 155.534467 
L 121.512894 146.287046 
L 122.339588 185.275157 
L 123.166282 192.566109 
L 123.992976 161.18111 
L 124.819669 185.007156 
L 125.646363 140.138242 
L 126.473057 154.491528 
L 127.299751 181.003869 
L 128.126445 153.869103 
L 128.953139 186.156731 
L 129.779832 189.38041 
L 130.606526 173.013469 
L 131.43322 183.239543 
L 132.259914 179.16695 
L 133.086608 179.421147 
L 133.913301 198.456165 
L 134.739995 193.28805 
L 135.566689 197.116739 
L 136.393383 198.109588 
L 137.220077 184.152477 
L 138.046771 179.792871 
L 138.873464 148.174858 
L 139.700158 188.052529 
L 140.526852 158.204807 
L 141.353546 195.804864 
L 142.18024 164.129958 
L 143.006933 192.331702 
L 143.833627 216.61041 
L 144.660321 192.96416 
L 145.487015 203.636054 
L 146.313709 197.483154 
L 147.140403 181.560214 
L 147.967096 188.754873 
L 148.79379 181.018787 
L 149.620484 183.67348 
L 150.447178 173.005577 
L 151.273872 193.098731 
L 152.100566 203.655306 
L 152.927259 192.576545 
L 153.753953 218.118268 
L 154.580647 210.557105 
L 155.407341 209.514168 
L 157.060728 217.986982 
L 157.887422 218.24147 
L 158.714116 207.345488 
L 159.54081 192.877521 
L 161.194198 219.696953 
L 162.020891 219.169735 
L 162.847585 208.323084 
L 163.674279 191.266026 
L 164.500973 192.841649 
L 165.327667 219.387793 
L 166.15436 198.214786 
L 166.981054 185.160534 
L 167.807748 227.885285 
L 168.634442 215.564582 
L 169.461136 210.902497 
L 170.28783 208.705034 
L 171.114523 219.949214 
L 171.941217 212.479436 
L 172.767911 210.979187 
L 173.594605 217.551985 
L 174.421299 198.410722 
L 175.247992 223.127842 
L 176.074686 200.342568 
L 176.90138 198.072634 
L 177.728074 213.604305 
L 178.554768 198.633083 
L 179.381462 205.794223 
L 180.208155 205.405198 
L 181.034849 208.104358 
L 181.861543 177.544514 
L 182.688237 213.57785 
L 183.514931 225.522572 
L 184.341624 206.601362 
L 185.168318 223.897385 
L 185.995012 209.637539 
L 186.821706 210.380497 
L 187.6484 203.080518 
L 188.475094 213.183929 
L 189.301787 213.818563 
L 190.128481 220.882803 
L 190.955175 230.386261 
L 191.781869 220.754449 
L 192.608563 227.033808 
L 193.435257 225.037325 
L 194.26195 225.56816 
L 195.088644 223.406676 
L 195.915338 211.235621 
L 196.742032 204.153866 
L 197.568726 210.642525 
L 198.395419 226.627027 
L 199.222113 218.507151 
L 200.048807 227.245813 
L 200.875501 216.51747 
L 201.702195 219.602084 
L 202.528889 213.416541 
L 203.355582 189.268569 
L 204.182276 216.688911 
L 205.00897 221.804533 
L 205.835664 211.70175 
L 206.662358 216.517459 
L 207.489051 224.002027 
L 208.315745 225.741296 
L 209.142439 212.688974 
L 209.969133 211.645358 
L 210.795827 225.674049 
L 211.622521 215.912965 
L 212.449214 199.359722 
L 213.275908 213.067967 
L 214.102602 204.338613 
L 214.929296 206.980114 
L 215.75599 214.533665 
L 216.582683 201.934412 
L 217.409377 220.704392 
L 218.236071 208.485088 
L 219.062765 201.574592 
L 220.716153 217.993475 
L 221.542846 225.725571 
L 222.36954 189.246888 
L 224.022928 222.26331 
L 224.849622 209.011935 
L 225.676315 212.358669 
L 226.503009 213.868191 
L 227.329703 218.133713 
L 228.156397 199.256149 
L 228.983091 224.124568 
L 229.809785 209.538264 
L 230.636478 229.189832 
L 231.463172 187.321668 
L 232.289866 211.806542 
L 233.11656 230.55247 
L 234.769948 208.963219 
L 235.596641 205.846552 
L 236.423335 220.331019 
L 238.076723 199.67266 
L 238.903417 211.301556 
L 239.73011 210.531281 
L 240.556804 202.503345 
L 241.383498 208.59271 
L 242.210192 212.940028 
L 243.036886 225.479071 
L 243.86358 214.75047 
L 244.690273 197.542398 
L 245.516967 200.624292 
L 246.343661 227.450573 
L 247.170355 223.673948 
L 247.997049 207.205777 
L 248.823742 211.669868 
L 249.650436 208.295993 
L 250.47713 227.467169 
L 251.303824 204.7968 
L 252.130518 194.985295 
L 252.957212 215.640957 
L 253.783905 220.880083 
L 254.610599 197.191619 
L 255.437293 227.916573 
L 256.263987 214.22472 
L 257.090681 212.685995 
L 257.917374 213.380594 
L 258.744068 207.014011 
L 260.397456 203.021337 
L 261.22415 205.78358 
L 262.050844 223.594201 
L 262.877537 209.200421 
L 263.704231 211.468888 
L 264.530925 217.799039 
L 265.357619 226.510371 
L 266.184313 228.491909 
L 267.011006 232.035279 
L 267.8377 202.460738 
L 268.664394 198.46396 
L 269.491088 224.048631 
L 270.317782 178.99598 
L 271.144476 226.831676 
L 271.971169 217.48848 
L 272.797863 203.73735 
L 273.624557 215.005598 
L 274.451251 229.9315 
L 275.277945 226.165039 
L 276.104639 226.819989 
L 276.931332 211.795292 
L 277.758026 226.109037 
L 278.58472 220.075317 
L 279.411414 226.587636 
L 280.238108 229.551275 
L 281.891495 200.413447 
L 282.718189 230.347266 
L 283.544883 212.768387 
L 284.371577 228.342032 
L 285.198271 220.241745 
L 286.024964 206.93207 
L 286.851658 226.133185 
L 287.678352 210.479016 
L 288.505046 223.037046 
L 289.33174 215.725209 
L 290.158433 229.328569 
L 290.985127 225.621289 
L 291.811821 207.170937 
L 292.638515 227.557567 
L 293.465209 200.799755 
L 294.291903 211.446214 
L 295.118596 213.33158 
L 295.94529 226.344801 
L 296.771984 226.80345 
L 297.598678 216.298014 
L 298.425372 216.241031 
L 299.252065 218.904398 
L 300.078759 227.021784 
L 301.732147 203.893916 
L 302.558841 205.462983 
L 303.385535 202.034459 
L 304.212228 215.913633 
L 305.038922 224.794755 
L 305.865616 223.615745 
L 306.69231 214.121056 
L 307.519004 218.870782 
L 308.345697 203.965243 
L 309.172391 211.879398 
L 309.999085 224.540358 
L 310.825779 203.441648 
L 311.652473 211.578324 
L 312.479167 201.608918 
L 313.30586 206.997613 
L 314.132554 224.20083 
L 314.959248 204.913482 
L 315.785942 215.565988 
L 316.612636 227.654977 
L 317.43933 218.232279 
L 318.266023 222.388977 
L 319.092717 222.453717 
L 319.919411 232.958444 
L 320.746105 196.30261 
L 321.572799 212.13004 
L 322.399492 219.852936 
L 323.226186 209.558491 
L 324.05288 195.699159 
L 324.879574 195.242276 
L 325.706268 210.693231 
L 326.532962 214.580736 
L 327.359655 223.243268 
L 328.186349 227.359798 
L 329.013043 196.930012 
L 329.839737 224.44914 
L 330.666431 221.43206 
L 331.493124 212.439849 
L 333.146512 221.354921 
L 333.973206 202.29087 
L 334.7999 205.884679 
L 335.626594 196.238034 
L 336.453287 216.601616 
L 337.279981 223.955489 
L 338.106675 218.642147 
L 338.933369 222.79905 
L 339.760063 201.400828 
L 340.586756 200.295091 
L 341.41345 229.098217 
L 342.240144 210.878505 
L 343.066838 215.509608 
L 343.893532 225.100228 
L 344.720226 198.154456 
L 345.546919 219.475517 
L 346.373613 218.745991 
L 347.200307 226.752572 
L 348.027001 224.792582 
L 348.853695 219.366343 
L 349.680388 209.697156 
L 350.507082 205.12967 
L 351.333776 210.085872 
L 352.16047 207.058382 
L 352.987164 216.154113 
L 353.813858 218.735322 
L 354.640551 223.562708 
L 355.467245 226.262017 
L 356.293939 201.846458 
L 357.120633 209.266938 
L 357.947327 223.962188 
L 358.774021 224.617306 
L 359.600714 223.088032 
L 360.427408 200.159028 
L 361.254102 223.292613 
L 362.080796 222.340974 
L 362.90749 209.590106 
L 363.734183 193.256466 
L 364.560877 219.806249 
L 365.387571 218.22183 
L 366.214265 229.619191 
L 367.040959 217.251013 
L 367.867653 223.127105 
L 368.694346 222.834029 
L 369.52104 189.452793 
L 370.347734 211.438291 
L 371.174428 211.039289 
L 372.001122 226.588163 
L 372.827815 183.655638 
L 373.654509 216.244554 
L 374.481203 225.651197 
L 375.307897 209.41064 
L 376.134591 219.204813 
L 376.961285 220.863796 
L 377.787978 202.703974 
L 378.614672 221.167558 
L 379.441366 214.246835 
L 380.26806 202.349715 
L 381.094754 203.610635 
L 381.921447 211.112605 
L 382.748141 221.665029 
L 383.574835 224.737346 
L 384.401529 199.286829 
L 385.228223 189.281313 
L 386.054917 187.064567 
L 386.88161 215.489853 
L 387.708304 213.798435 
L 388.534998 220.614749 
L 389.361692 212.002138 
L 390.188386 219.220236 
L 391.015079 208.434047 
L 391.841773 217.858528 
L 392.668467 224.099879 
L 393.495161 215.577701 
L 394.321855 216.013572 
L 395.148549 223.785456 
L 395.975242 198.769717 
L 396.801936 225.072947 
L 397.62863 211.032818 
L 398.455324 219.595152 
L 399.282018 207.855393 
L 400.108712 209.057663 
L 400.935405 216.741782 
L 401.762099 212.601373 
L 402.588793 219.020147 
L 402.588793 219.020147 
" clip-path="url(#p44344d0cd3)" style="fill: none; stroke: #ff7f0e; stroke-width: 2; stroke-linecap: square"/>
   </g>
   <g id="patch_3">
    <path d="M 57.113446 242.786449 
L 57.113446 26.570347 
" style="fill: none; stroke: #000000; stroke-width: 0.8; stroke-linejoin: miter; stroke-linecap: square"/>
   </g>
   <g id="patch_4">
    <path d="M 419.04 242.786449 
L 419.04 26.570347 
" style="fill: none; stroke: #000000; stroke-width: 0.8; stroke-linejoin: miter; stroke-linecap: square"/>
   </g>
   <g id="patch_5">
    <path d="M 57.113446 242.786449 
L 419.04 242.786449 
" style="fill: none; stroke: #000000; stroke-width: 0.8; stroke-linejoin: miter; stroke-linecap: square"/>
   </g>
   <g id="patch_6">
    <path d="M 57.113446 26.570347 
L 419.04 26.570347 
" style="fill: none; stroke: #000000; stroke-width: 0.8; stroke-linejoin: miter; stroke-linecap: square"/>
   </g>
   <g id="text_17">
    <!-- \textbf{Loss evolution over epochs} -->
    <g transform="translate(164.459971 20.570347) scale(0.11 -0.11)">
     <defs>
      <path id="CMBX12-65" d="M 2893 1408 
C 3040 1408 3078 1408 3078 1568 
C 3078 1758 3034 2232 2739 2529 
C 2470 2796 2112 2880 1741 2880 
C 742 2880 198 2232 198 1433 
C 198 523 858 -64 1824 -64 
C 2790 -64 3078 621 3078 731 
C 3078 829 2982 829 2944 829 
C 2842 829 2835 809 2797 725 
C 2630 302 2208 166 1901 166 
C 973 166 966 1043 966 1408 
L 2893 1408 
z
M 966 1593 
C 979 1852 986 2099 1120 2327 
C 1242 2529 1466 2668 1741 2668 
C 2426 2668 2483 1909 2490 1593 
L 966 1593 
z
" transform="scale(0.015625)"/>
      <path id="CMBX12-76" d="M 3168 2393 
C 3213 2489 3238 2540 3642 2540 
L 3642 2816 
C 3411 2803 3398 2803 3136 2803 
C 2963 2803 2950 2803 2586 2816 
L 2586 2540 
C 2758 2540 2899 2508 2899 2463 
C 2899 2457 2899 2451 2867 2386 
L 2118 737 
L 1293 2540 
L 1645 2540 
L 1645 2816 
C 1498 2803 1050 2803 877 2803 
C 691 2803 320 2803 154 2816 
L 154 2540 
L 557 2540 
L 1683 89 
C 1741 -32 1754 -64 1901 -64 
C 2003 -64 2054 -52 2112 76 
L 3168 2393 
z
" transform="scale(0.015625)"/>
      <path id="CMBX12-6c" d="M 1389 4480 
L 282 4428 
L 282 4153 
C 678 4153 723 4153 723 3901 
L 723 275 
L 282 275 
L 282 0 
C 429 12 883 12 1056 12 
C 1229 12 1683 12 1830 0 
L 1830 275 
L 1389 275 
L 1389 4480 
z
" transform="scale(0.015625)"/>
      <path id="CMBX12-75" d="M 2259 2828 
L 2259 2553 
C 2656 2553 2701 2553 2701 2301 
L 2701 1033 
C 2701 541 2413 147 1914 147 
C 1434 147 1408 308 1408 664 
L 1408 2880 
L 269 2828 
L 269 2553 
C 666 2553 710 2553 710 2301 
L 710 768 
C 710 121 1139 -64 1824 -64 
C 1978 -64 2451 -64 2726 457 
L 2733 457 
L 2733 -64 
L 3840 -26 
L 3840 250 
C 3443 250 3398 250 3398 502 
L 3398 2880 
L 2259 2828 
z
" transform="scale(0.015625)"/>
      <path id="CMBX12-74" d="M 1350 2540 
L 2272 2540 
L 2272 2816 
L 1350 2816 
L 1350 4032 
L 1082 4032 
C 1075 3401 768 2771 134 2751 
L 134 2540 
L 653 2540 
L 653 761 
C 653 83 1178 -64 1638 -64 
C 2112 -64 2394 294 2394 768 
L 2394 1107 
L 2125 1107 
L 2125 774 
C 2125 352 1933 166 1734 166 
C 1350 166 1350 595 1350 742 
L 1350 2540 
z
" transform="scale(0.015625)"/>
      <path id="CMBX12-69" d="M 1427 4019 
C 1427 4281 1216 4480 966 4480 
C 704 4480 506 4262 506 4019 
C 506 3775 704 3558 966 3558 
C 1216 3558 1427 3756 1427 4019 
z
M 301 2828 
L 301 2553 
C 678 2553 723 2553 723 2303 
L 723 275 
L 282 275 
L 282 0 
C 429 12 870 12 1043 12 
C 1222 12 1632 12 1786 0 
L 1786 275 
L 1389 275 
L 1389 2880 
L 301 2828 
z
" transform="scale(0.015625)"/>
      <path id="CMBX12-6e" d="M 3398 1958 
C 3398 2566 3136 2880 2432 2880 
C 1971 2880 1574 2656 1357 2176 
L 1350 2176 
L 1350 2880 
L 269 2828 
L 269 2553 
C 666 2553 710 2553 710 2304 
L 710 275 
L 269 275 
L 269 0 
C 416 12 877 12 1056 12 
C 1235 12 1702 12 1850 0 
L 1850 275 
L 1408 275 
L 1408 1638 
C 1408 2329 1920 2668 2330 2668 
C 2566 2668 2701 2515 2701 2028 
L 2701 275 
L 2259 275 
L 2259 0 
C 2406 12 2867 12 3046 12 
C 3226 12 3693 12 3840 0 
L 3840 275 
L 3398 275 
L 3398 1958 
z
" transform="scale(0.015625)"/>
      <path id="CMBX12-72" d="M 1331 1440 
C 1331 1651 1376 2668 2125 2668 
C 2035 2598 1990 2489 1990 2374 
C 1990 2112 2202 2003 2362 2003 
C 2522 2003 2733 2112 2733 2374 
C 2733 2700 2400 2880 2093 2880 
C 1587 2880 1370 2438 1280 2169 
L 1274 2169 
L 1274 2880 
L 224 2828 
L 224 2553 
C 621 2553 666 2553 666 2304 
L 666 275 
L 224 275 
L 224 0 
C 371 12 851 12 1030 12 
C 1216 12 1734 12 1888 0 
L 1888 275 
L 1331 275 
L 1331 1440 
z
" transform="scale(0.015625)"/>
     </defs>
     <use xlink:href="#CMBX12-4c" transform="scale(0.996264)"/>
     <use xlink:href="#CMBX12-6f" transform="translate(67.340095 0) scale(0.996264)"/>
     <use xlink:href="#CMBX12-73" transform="translate(123.379946 0) scale(0.996264)"/>
     <use xlink:href="#CMBX12-73" transform="translate(167.589283 0) scale(0.996264)"/>
     <use xlink:href="#CMBX12-65" transform="translate(249.158521 0) scale(0.996264)"/>
     <use xlink:href="#CMBX12-76" transform="translate(300.297788 0) scale(0.996264)"/>
     <use xlink:href="#CMBX12-6f" transform="translate(356.337638 0) scale(0.996264)"/>
     <use xlink:href="#CMBX12-6c" transform="translate(412.377489 0) scale(0.996264)"/>
     <use xlink:href="#CMBX12-75" transform="translate(443.510739 0) scale(0.996264)"/>
     <use xlink:href="#CMBX12-74" transform="translate(505.77724 0) scale(0.996264)"/>
     <use xlink:href="#CMBX12-69" transform="translate(549.36379 0) scale(0.996264)"/>
     <use xlink:href="#CMBX12-6f" transform="translate(580.497041 0) scale(0.996264)"/>
     <use xlink:href="#CMBX12-6e" transform="translate(636.536891 0) scale(0.996264)"/>
     <use xlink:href="#CMBX12-6f" transform="translate(736.163292 0) scale(0.996264)"/>
     <use xlink:href="#CMBX12-76" transform="translate(789.089818 0) scale(0.996264)"/>
     <use xlink:href="#CMBX12-65" transform="translate(845.129668 0) scale(0.996264)"/>
     <use xlink:href="#CMBX12-72" transform="translate(896.268935 0) scale(0.996264)"/>
     <use xlink:href="#CMBX12-65" transform="translate(979.406343 0) scale(0.996264)"/>
     <use xlink:href="#CMBX12-70" transform="translate(1030.54561 0) scale(0.996264)"/>
     <use xlink:href="#CMBX12-6f" transform="translate(1095.925436 0) scale(0.996264)"/>
     <use xlink:href="#CMBX12-63" transform="translate(1155.078611 0) scale(0.996264)"/>
     <use xlink:href="#CMBX12-68" transform="translate(1201.778487 0) scale(0.996264)"/>
     <use xlink:href="#CMBX12-73" transform="translate(1264.044988 0) scale(0.996264)"/>
    </g>
   </g>
   <g id="legend_1">
    <g id="patch_7">
     <path d="M 282.122359 69.619538 
L 410.64 69.619538 
Q 413.04 69.619538 413.04 67.219538 
L 413.04 34.970347 
Q 413.04 32.570347 410.64 32.570347 
L 282.122359 32.570347 
Q 279.722359 32.570347 279.722359 34.970347 
L 279.722359 67.219538 
Q 279.722359 69.619538 282.122359 69.619538 
z
" style="fill: #ffffff; opacity: 0.8; stroke: #cccccc; stroke-linejoin: miter"/>
    </g>
    <g id="line2d_71">
     <path d="M 284.522359 41.570347 
L 296.522359 41.570347 
L 308.522359 41.570347 
" style="fill: none; stroke: #1f77b4; stroke-width: 2; stroke-linecap: square"/>
    </g>
    <g id="text_18">
     <!-- \textbf{Train Loss} -->
     <g transform="translate(318.122359 45.770347) scale(0.12 -0.12)">
      <defs>
       <path id="CMBX12-54" d="M 4608 4358 
L 390 4358 
L 262 2833 
L 531 2833 
C 589 3535 640 4083 1562 4083 
L 2080 4083 
L 2080 275 
L 1114 275 
L 1114 0 
C 1626 12 2285 12 2502 12 
C 2893 12 3379 12 3891 0 
L 3891 275 
L 2925 275 
L 2925 4083 
L 3437 4083 
C 4358 4083 4410 3542 4467 2833 
L 4736 2833 
L 4608 4358 
z
" transform="scale(0.015625)"/>
       <path id="CMBX12-61" d="M 2944 1894 
C 2944 2483 2477 2880 1574 2880 
C 1216 2880 461 2847 461 2310 
C 461 2041 666 1926 838 1926 
C 1030 1926 1216 2060 1216 2303 
C 1216 2425 1171 2540 1062 2611 
C 1274 2668 1427 2668 1549 2668 
C 1984 2668 2246 2425 2246 1900 
L 2246 1644 
C 1235 1644 218 1362 218 648 
C 218 64 960 -64 1402 -64 
C 1894 -64 2208 205 2336 488 
C 2336 250 2336 -26 2982 -26 
L 3309 -26 
C 3443 -26 3494 -26 3494 115 
C 3494 250 3437 250 3347 250 
C 2944 256 2944 359 2944 507 
L 2944 1894 
z
M 2246 867 
C 2246 262 1709 147 1504 147 
C 1190 147 928 359 928 655 
C 928 1240 1619 1439 2246 1472 
L 2246 867 
z
" transform="scale(0.015625)"/>
      </defs>
      <use xlink:href="#CMBX12-54" transform="scale(0.996264)"/>
      <use xlink:href="#CMBX12-72" transform="translate(68.608395 0) scale(0.996264)"/>
      <use xlink:href="#CMBX12-61" transform="translate(114.385903 0) scale(0.996264)"/>
      <use xlink:href="#CMBX12-69" transform="translate(168.869091 0) scale(0.996264)"/>
      <use xlink:href="#CMBX12-6e" transform="translate(200.002341 0) scale(0.996264)"/>
      <use xlink:href="#CMBX12-4c" transform="translate(299.628742 0) scale(0.996264)"/>
      <use xlink:href="#CMBX12-6f" transform="translate(366.968838 0) scale(0.996264)"/>
      <use xlink:href="#CMBX12-73" transform="translate(423.008688 0) scale(0.996264)"/>
      <use xlink:href="#CMBX12-73" transform="translate(467.218025 0) scale(0.996264)"/>
     </g>
    </g>
    <g id="line2d_72">
     <path d="M 284.522359 58.294942 
L 296.522359 58.294942 
L 308.522359 58.294942 
" style="fill: none; stroke: #ff7f0e; stroke-width: 2; stroke-linecap: square"/>
    </g>
    <g id="text_19">
     <!-- \textbf{Validation Loss} -->
     <g transform="translate(318.122359 62.494942) scale(0.12 -0.12)">
      <defs>
       <path id="CMBX12-56" d="M 4634 3992 
C 4672 4075 4698 4140 5171 4140 
L 5280 4140 
L 5280 4416 
C 5082 4403 4621 4403 4570 4403 
C 4390 4403 3936 4403 3789 4416 
L 3789 4140 
C 3930 4140 4166 4140 4346 4069 
L 4314 3979 
L 3002 960 
L 1619 4140 
L 2214 4140 
L 2214 4416 
C 2010 4403 1395 4403 1152 4403 
C 947 4403 314 4403 154 4416 
L 154 4140 
L 730 4140 
L 2496 70 
C 2554 -58 2611 -64 2714 -64 
C 2816 -64 2880 -64 2938 70 
L 4634 3992 
z
" transform="scale(0.015625)"/>
       <path id="CMBX12-64" d="M 2221 4428 
L 2221 4153 
C 2618 4153 2662 4153 2662 3896 
L 2662 2571 
C 2522 2694 2240 2880 1798 2880 
C 890 2880 243 2313 243 1408 
C 243 483 877 -64 1728 -64 
C 2080 -64 2381 57 2630 270 
L 2630 -64 
L 3770 -26 
L 3770 250 
C 3373 250 3328 250 3328 502 
L 3328 4480 
L 2221 4428 
z
M 2630 625 
C 2362 231 2035 147 1805 147 
C 1011 147 1011 968 1011 1395 
C 1011 1699 1011 2022 1152 2268 
C 1350 2630 1728 2668 1875 2668 
C 2138 2668 2419 2552 2630 2268 
L 2630 625 
z
" transform="scale(0.015625)"/>
      </defs>
      <use xlink:href="#CMBX12-56" transform="scale(0.996264)"/>
      <use xlink:href="#CMBX12-61" transform="translate(75.29642 0) scale(0.996264)"/>
      <use xlink:href="#CMBX12-6c" transform="translate(129.779608 0) scale(0.996264)"/>
      <use xlink:href="#CMBX12-69" transform="translate(160.912858 0) scale(0.996264)"/>
      <use xlink:href="#CMBX12-64" transform="translate(192.046108 0) scale(0.996264)"/>
      <use xlink:href="#CMBX12-61" transform="translate(254.312609 0) scale(0.996264)"/>
      <use xlink:href="#CMBX12-74" transform="translate(308.795797 0) scale(0.996264)"/>
      <use xlink:href="#CMBX12-69" transform="translate(352.382347 0) scale(0.996264)"/>
      <use xlink:href="#CMBX12-6f" transform="translate(383.515598 0) scale(0.996264)"/>
      <use xlink:href="#CMBX12-6e" transform="translate(439.555448 0) scale(0.996264)"/>
      <use xlink:href="#CMBX12-4c" transform="translate(539.181849 0) scale(0.996264)"/>
      <use xlink:href="#CMBX12-6f" transform="translate(606.521945 0) scale(0.996264)"/>
      <use xlink:href="#CMBX12-73" transform="translate(662.561795 0) scale(0.996264)"/>
      <use xlink:href="#CMBX12-73" transform="translate(706.771132 0) scale(0.996264)"/>
     </g>
    </g>
   </g>
  </g>
 </g>
 <defs>
  <clipPath id="p44344d0cd3">
   <rect x="57.113446" y="26.570347" width="361.926554" height="216.216102"/>
  </clipPath>
 </defs>
</svg>
