<?xml version="1.0" encoding="utf-8" standalone="no"?>
<!DOCTYPE svg PUBLIC "-//W3C//DTD SVG 1.1//EN"
  "http://www.w3.org/Graphics/SVG/1.1/DTD/svg11.dtd">
<svg xmlns:xlink="http://www.w3.org/1999/xlink" width="432pt" height="288pt" viewBox="0 0 432 288" xmlns="http://www.w3.org/2000/svg" version="1.1">
 <metadata>
  <rdf:RDF xmlns:dc="http://purl.org/dc/elements/1.1/" xmlns:cc="http://creativecommons.org/ns#" xmlns:rdf="http://www.w3.org/1999/02/22-rdf-syntax-ns#">
   <cc:Work>
    <dc:type rdf:resource="http://purl.org/dc/dcmitype/StillImage"/>
    <dc:date>2025-06-19T09:32:26.328545</dc:date>
    <dc:format>image/svg+xml</dc:format>
    <dc:creator>
     <cc:Agent>
      <dc:title>Matplotlib v3.10.0, https://matplotlib.org/</dc:title>
     </cc:Agent>
    </dc:creator>
   </cc:Work>
  </rdf:RDF>
 </metadata>
 <defs>
  <style type="text/css">*{stroke-linejoin: round; stroke-linecap: butt}</style>
 </defs>
 <g id="figure_1">
  <g id="patch_1">
   <path d="M 0 288 
L 432 288 
L 432 0 
L 0 0 
z
" style="fill: #ffffff"/>
  </g>
  <g id="axes_1">
   <g id="patch_2">
    <path d="M 57.113446 242.786449 
L 414.983399 242.786449 
L 414.983399 26.570347 
L 57.113446 26.570347 
z
" style="fill: #ffffff"/>
   </g>
   <g id="matplotlib.axis_1">
    <g id="xtick_1">
     <g id="line2d_1">
      <path d="M 73.380262 242.786449 
L 73.380262 26.570347 
" clip-path="url(#p66b2f50e6c)" style="fill: none; stroke: #b0b0b0; stroke-width: 0.8; stroke-linecap: square"/>
     </g>
     <g id="line2d_2">
      <defs>
       <path id="m8450a9c009" d="M 0 0 
L 0 3.5 
" style="stroke: #000000; stroke-width: 0.8"/>
      </defs>
      <g>
       <use xlink:href="#m8450a9c009" x="73.380262" y="242.786449" style="stroke: #000000; stroke-width: 0.8"/>
      </g>
     </g>
     <g id="text_1">
      <!-- $\mathdefault{0}$ -->
      <g transform="translate(70.453766 258.088629) scale(0.12 -0.12)">
       <defs>
        <path id="CMR17-30" d="M 2688 2038 
C 2688 2430 2682 3099 2413 3613 
C 2176 4063 1798 4224 1466 4224 
C 1158 4224 768 4082 525 3620 
C 269 3137 243 2539 243 2038 
C 243 1671 250 1112 448 623 
C 723 -39 1216 -128 1466 -128 
C 1760 -128 2208 -7 2470 604 
C 2662 1048 2688 1568 2688 2038 
z
M 1466 -26 
C 1056 -26 813 328 723 816 
C 653 1196 653 1749 653 2109 
C 653 2604 653 3015 736 3407 
C 858 3954 1216 4121 1466 4121 
C 1728 4121 2067 3947 2189 3420 
C 2272 3054 2278 2623 2278 2109 
C 2278 1691 2278 1176 2202 797 
C 2067 96 1690 -26 1466 -26 
z
" transform="scale(0.015625)"/>
       </defs>
       <use xlink:href="#CMR17-30" transform="scale(0.996264)"/>
      </g>
     </g>
    </g>
    <g id="xtick_2">
     <g id="line2d_3">
      <path d="M 115.449613 242.786449 
L 115.449613 26.570347 
" clip-path="url(#p66b2f50e6c)" style="fill: none; stroke: #b0b0b0; stroke-width: 0.8; stroke-linecap: square"/>
     </g>
     <g id="line2d_4">
      <g>
       <use xlink:href="#m8450a9c009" x="115.449613" y="242.786449" style="stroke: #000000; stroke-width: 0.8"/>
      </g>
     </g>
     <g id="text_2">
      <!-- $\mathdefault{15}$ -->
      <g transform="translate(109.596623 258.088629) scale(0.12 -0.12)">
       <defs>
        <path id="CMR17-31" d="M 1702 4083 
C 1702 4217 1696 4224 1606 4224 
C 1357 3927 979 3833 621 3820 
C 602 3820 570 3820 563 3808 
C 557 3795 557 3782 557 3648 
C 755 3648 1088 3686 1344 3839 
L 1344 467 
C 1344 243 1331 166 781 166 
L 589 166 
L 589 0 
C 896 6 1216 12 1523 12 
C 1830 12 2150 6 2458 0 
L 2458 166 
L 2266 166 
C 1715 166 1702 236 1702 467 
L 1702 4083 
z
" transform="scale(0.015625)"/>
        <path id="CMR17-35" d="M 730 3750 
C 794 3724 1056 3641 1325 3641 
C 1920 3641 2246 3961 2432 4140 
C 2432 4191 2432 4224 2394 4224 
C 2387 4224 2374 4224 2323 4198 
C 2099 4102 1837 4032 1517 4032 
C 1325 4032 1037 4055 723 4191 
C 653 4224 640 4224 634 4224 
C 602 4224 595 4217 595 4090 
L 595 2231 
C 595 2113 595 2080 659 2080 
C 691 2080 704 2093 736 2139 
C 941 2435 1222 2560 1542 2560 
C 1766 2560 2246 2415 2246 1293 
C 2246 1087 2246 716 2054 422 
C 1894 159 1645 25 1370 25 
C 947 25 518 319 403 812 
C 429 806 480 793 506 793 
C 589 793 749 838 749 1036 
C 749 1209 627 1280 506 1280 
C 358 1280 262 1190 262 1011 
C 262 454 704 -128 1382 -128 
C 2042 -128 2669 441 2669 1267 
C 2669 2054 2170 2662 1549 2662 
C 1222 2662 947 2540 730 2304 
L 730 3750 
z
" transform="scale(0.015625)"/>
       </defs>
       <use xlink:href="#CMR17-31" transform="scale(0.996264)"/>
       <use xlink:href="#CMR17-35" transform="translate(45.690477 0) scale(0.996264)"/>
      </g>
     </g>
    </g>
    <g id="xtick_3">
     <g id="line2d_5">
      <path d="M 157.518965 242.786449 
L 157.518965 26.570347 
" clip-path="url(#p66b2f50e6c)" style="fill: none; stroke: #b0b0b0; stroke-width: 0.8; stroke-linecap: square"/>
     </g>
     <g id="line2d_6">
      <g>
       <use xlink:href="#m8450a9c009" x="157.518965" y="242.786449" style="stroke: #000000; stroke-width: 0.8"/>
      </g>
     </g>
     <g id="text_3">
      <!-- $\mathdefault{30}$ -->
      <g transform="translate(151.665975 258.088629) scale(0.12 -0.12)">
       <defs>
        <path id="CMR17-33" d="M 1414 2176 
C 1984 2176 2234 1673 2234 1094 
C 2234 322 1824 25 1453 25 
C 1114 25 563 193 390 691 
C 422 678 454 678 486 678 
C 640 678 755 780 755 947 
C 755 1132 614 1216 486 1216 
C 378 1216 211 1164 211 927 
C 211 335 787 -128 1466 -128 
C 2176 -128 2720 432 2720 1087 
C 2720 1718 2208 2176 1600 2246 
C 2086 2347 2554 2776 2554 3353 
C 2554 3856 2048 4224 1472 4224 
C 890 4224 378 3862 378 3347 
C 378 3123 544 3084 627 3084 
C 762 3084 877 3167 877 3334 
C 877 3500 762 3584 627 3584 
C 602 3584 570 3584 544 3571 
C 730 3999 1235 4076 1459 4076 
C 1683 4076 2106 3966 2106 3347 
C 2106 3167 2080 2851 1862 2574 
C 1670 2329 1453 2316 1242 2297 
C 1210 2297 1062 2284 1037 2284 
C 992 2278 966 2272 966 2227 
C 966 2182 973 2176 1101 2176 
L 1414 2176 
z
" transform="scale(0.015625)"/>
       </defs>
       <use xlink:href="#CMR17-33" transform="scale(0.996264)"/>
       <use xlink:href="#CMR17-30" transform="translate(45.690477 0) scale(0.996264)"/>
      </g>
     </g>
    </g>
    <g id="xtick_4">
     <g id="line2d_7">
      <path d="M 199.588317 242.786449 
L 199.588317 26.570347 
" clip-path="url(#p66b2f50e6c)" style="fill: none; stroke: #b0b0b0; stroke-width: 0.8; stroke-linecap: square"/>
     </g>
     <g id="line2d_8">
      <g>
       <use xlink:href="#m8450a9c009" x="199.588317" y="242.786449" style="stroke: #000000; stroke-width: 0.8"/>
      </g>
     </g>
     <g id="text_4">
      <!-- $\mathdefault{45}$ -->
      <g transform="translate(193.735327 258.088629) scale(0.12 -0.12)">
       <defs>
        <path id="CMR17-34" d="M 2150 4147 
C 2150 4281 2144 4288 2029 4288 
L 128 1254 
L 128 1088 
L 1779 1088 
L 1779 460 
C 1779 230 1766 166 1318 166 
L 1197 166 
L 1197 0 
C 1402 12 1747 12 1965 12 
C 2182 12 2528 12 2733 0 
L 2733 166 
L 2611 166 
C 2163 166 2150 230 2150 460 
L 2150 1088 
L 2803 1088 
L 2803 1254 
L 2150 1254 
L 2150 4147 
z
M 1798 3723 
L 1798 1254 
L 256 1254 
L 1798 3723 
z
" transform="scale(0.015625)"/>
       </defs>
       <use xlink:href="#CMR17-34" transform="scale(0.996264)"/>
       <use xlink:href="#CMR17-35" transform="translate(45.690477 0) scale(0.996264)"/>
      </g>
     </g>
    </g>
    <g id="xtick_5">
     <g id="line2d_9">
      <path d="M 241.657669 242.786449 
L 241.657669 26.570347 
" clip-path="url(#p66b2f50e6c)" style="fill: none; stroke: #b0b0b0; stroke-width: 0.8; stroke-linecap: square"/>
     </g>
     <g id="line2d_10">
      <g>
       <use xlink:href="#m8450a9c009" x="241.657669" y="242.786449" style="stroke: #000000; stroke-width: 0.8"/>
      </g>
     </g>
     <g id="text_5">
      <!-- $\mathdefault{60}$ -->
      <g transform="translate(235.804679 258.088629) scale(0.12 -0.12)">
       <defs>
        <path id="CMR17-36" d="M 678 2198 
C 678 3712 1395 4076 1811 4076 
C 1946 4076 2272 4049 2400 3782 
C 2298 3782 2106 3782 2106 3558 
C 2106 3385 2246 3328 2336 3328 
C 2394 3328 2566 3353 2566 3571 
C 2566 3987 2246 4224 1805 4224 
C 1043 4224 243 3411 243 2011 
C 243 257 966 -128 1478 -128 
C 2099 -128 2688 431 2688 1295 
C 2688 2101 2170 2688 1517 2688 
C 1126 2688 838 2430 678 1979 
L 678 2198 
z
M 1478 25 
C 691 25 691 1212 691 1450 
C 691 1914 909 2585 1504 2585 
C 1613 2585 1926 2585 2138 2140 
C 2253 1889 2253 1624 2253 1302 
C 2253 954 2253 696 2118 438 
C 1978 173 1773 25 1478 25 
z
" transform="scale(0.015625)"/>
       </defs>
       <use xlink:href="#CMR17-36" transform="scale(0.996264)"/>
       <use xlink:href="#CMR17-30" transform="translate(45.690477 0) scale(0.996264)"/>
      </g>
     </g>
    </g>
    <g id="xtick_6">
     <g id="line2d_11">
      <path d="M 283.727021 242.786449 
L 283.727021 26.570347 
" clip-path="url(#p66b2f50e6c)" style="fill: none; stroke: #b0b0b0; stroke-width: 0.8; stroke-linecap: square"/>
     </g>
     <g id="line2d_12">
      <g>
       <use xlink:href="#m8450a9c009" x="283.727021" y="242.786449" style="stroke: #000000; stroke-width: 0.8"/>
      </g>
     </g>
     <g id="text_6">
      <!-- $\mathdefault{75}$ -->
      <g transform="translate(277.874031 258.088629) scale(0.12 -0.12)">
       <defs>
        <path id="CMR17-37" d="M 2886 3955 
L 2886 4096 
L 1382 4096 
C 634 4096 621 4166 595 4288 
L 480 4288 
L 294 3104 
L 410 3104 
C 429 3226 474 3552 550 3673 
C 589 3724 1062 3724 1171 3724 
L 2579 3724 
L 1869 2670 
C 1395 1961 1069 1003 1069 166 
C 1069 89 1069 -128 1299 -128 
C 1530 -128 1530 89 1530 172 
L 1530 466 
C 1530 1514 1709 2204 2003 2644 
L 2886 3955 
z
" transform="scale(0.015625)"/>
       </defs>
       <use xlink:href="#CMR17-37" transform="scale(0.996264)"/>
       <use xlink:href="#CMR17-35" transform="translate(45.690477 0) scale(0.996264)"/>
      </g>
     </g>
    </g>
    <g id="xtick_7">
     <g id="line2d_13">
      <path d="M 325.796373 242.786449 
L 325.796373 26.570347 
" clip-path="url(#p66b2f50e6c)" style="fill: none; stroke: #b0b0b0; stroke-width: 0.8; stroke-linecap: square"/>
     </g>
     <g id="line2d_14">
      <g>
       <use xlink:href="#m8450a9c009" x="325.796373" y="242.786449" style="stroke: #000000; stroke-width: 0.8"/>
      </g>
     </g>
     <g id="text_7">
      <!-- $\mathdefault{90}$ -->
      <g transform="translate(319.943382 258.088629) scale(0.12 -0.12)">
       <defs>
        <path id="CMR17-39" d="M 2253 1871 
C 2253 448 1670 25 1190 25 
C 1043 25 685 43 538 281 
C 704 256 826 345 826 505 
C 826 678 685 736 595 736 
C 538 736 365 710 365 492 
C 365 68 742 -128 1203 -128 
C 1939 -128 2688 665 2688 2090 
C 2688 3857 1971 4224 1485 4224 
C 851 4224 243 3664 243 2800 
C 243 2000 762 1408 1414 1408 
C 1952 1408 2189 1910 2253 2122 
L 2253 1871 
z
M 1427 1510 
C 1254 1510 1011 1542 813 1929 
C 678 2181 678 2477 678 2793 
C 678 3174 678 3438 858 3722 
C 947 3857 1114 4076 1485 4076 
C 2240 4076 2240 2909 2240 2651 
C 2240 2193 2035 1510 1427 1510 
z
" transform="scale(0.015625)"/>
       </defs>
       <use xlink:href="#CMR17-39" transform="scale(0.996264)"/>
       <use xlink:href="#CMR17-30" transform="translate(45.690477 0) scale(0.996264)"/>
      </g>
     </g>
    </g>
    <g id="xtick_8">
     <g id="line2d_15">
      <path d="M 367.865725 242.786449 
L 367.865725 26.570347 
" clip-path="url(#p66b2f50e6c)" style="fill: none; stroke: #b0b0b0; stroke-width: 0.8; stroke-linecap: square"/>
     </g>
     <g id="line2d_16">
      <g>
       <use xlink:href="#m8450a9c009" x="367.865725" y="242.786449" style="stroke: #000000; stroke-width: 0.8"/>
      </g>
     </g>
     <g id="text_8">
      <!-- $\mathdefault{105}$ -->
      <g transform="translate(359.086239 258.088629) scale(0.12 -0.12)">
       <use xlink:href="#CMR17-31" transform="scale(0.996264)"/>
       <use xlink:href="#CMR17-30" transform="translate(45.690477 0) scale(0.996264)"/>
       <use xlink:href="#CMR17-35" transform="translate(91.380954 0) scale(0.996264)"/>
      </g>
     </g>
    </g>
    <g id="xtick_9">
     <g id="line2d_17">
      <path d="M 409.935076 242.786449 
L 409.935076 26.570347 
" clip-path="url(#p66b2f50e6c)" style="fill: none; stroke: #b0b0b0; stroke-width: 0.8; stroke-linecap: square"/>
     </g>
     <g id="line2d_18">
      <g>
       <use xlink:href="#m8450a9c009" x="409.935076" y="242.786449" style="stroke: #000000; stroke-width: 0.8"/>
      </g>
     </g>
     <g id="text_9">
      <!-- $\mathdefault{120}$ -->
      <g transform="translate(401.155591 258.088629) scale(0.12 -0.12)">
       <defs>
        <path id="CMR17-32" d="M 2669 990 
L 2554 990 
C 2490 537 2438 460 2413 422 
C 2381 371 1920 371 1830 371 
L 602 371 
C 832 620 1280 1073 1824 1596 
C 2214 1966 2669 2400 2669 3033 
C 2669 3788 2067 4224 1395 4224 
C 691 4224 262 3603 262 3027 
C 262 2777 448 2745 525 2745 
C 589 2745 781 2783 781 3007 
C 781 3206 614 3264 525 3264 
C 486 3264 448 3257 422 3244 
C 544 3788 915 4057 1306 4057 
C 1862 4057 2227 3616 2227 3033 
C 2227 2477 1901 1998 1536 1583 
L 262 147 
L 262 0 
L 2515 0 
L 2669 990 
z
" transform="scale(0.015625)"/>
       </defs>
       <use xlink:href="#CMR17-31" transform="scale(0.996264)"/>
       <use xlink:href="#CMR17-32" transform="translate(45.690477 0) scale(0.996264)"/>
       <use xlink:href="#CMR17-30" transform="translate(91.380954 0) scale(0.996264)"/>
      </g>
     </g>
    </g>
    <g id="text_10">
     <!-- \textbf{Epoch} -->
     <g transform="translate(217.624455 272.715404) scale(0.12 -0.12)">
      <defs>
       <path id="CMBX12-45" d="M 4518 1753 
L 4250 1753 
C 4115 783 3878 275 2765 275 
L 1766 275 
L 1766 2156 
L 2144 2156 
C 2758 2156 2822 1889 2822 1395 
L 3091 1395 
L 3091 3177 
L 2822 3177 
C 2822 2699 2758 2432 2144 2432 
L 1766 2432 
L 1766 4108 
L 2765 4108 
C 3744 4108 3955 3694 4051 2871 
L 4320 2871 
L 4134 4383 
L 243 4383 
L 243 4108 
L 922 4108 
L 922 275 
L 243 275 
L 243 0 
L 4243 0 
L 4518 1753 
z
" transform="scale(0.015625)"/>
       <path id="CMBX12-70" d="M 1805 -941 
L 1363 -941 
L 1363 237 
C 1523 96 1805 -64 2189 -64 
C 3066 -64 3750 470 3750 1414 
C 3750 2306 3155 2880 2291 2880 
C 1914 2880 1587 2751 1331 2546 
L 1331 2880 
L 224 2828 
L 224 2552 
C 621 2552 666 2552 666 2300 
L 666 -941 
L 224 -941 
L 224 -1216 
C 371 -1204 832 -1204 1011 -1204 
C 1190 -1204 1658 -1204 1805 -1216 
L 1805 -941 
z
M 1363 2235 
C 1600 2546 1939 2649 2189 2649 
C 2605 2649 2982 2268 2982 1414 
C 2982 476 2522 147 2112 147 
C 1837 147 1562 289 1363 593 
L 1363 2235 
z
" transform="scale(0.015625)"/>
       <path id="CMBX12-6f" d="M 3392 1379 
C 3392 2245 2803 2880 1798 2880 
C 755 2880 198 2213 198 1379 
C 198 538 787 -64 1792 -64 
C 2835 -64 3392 570 3392 1379 
z
M 1798 166 
C 966 166 966 917 966 1443 
C 966 1744 966 2065 1088 2296 
C 1229 2553 1517 2668 1792 2668 
C 2157 2668 2387 2495 2496 2315 
C 2624 2084 2624 1751 2624 1443 
C 2624 910 2624 166 1798 166 
z
" transform="scale(0.015625)"/>
       <path id="CMBX12-63" d="M 2995 724 
C 2995 801 2925 801 2861 801 
C 2758 801 2752 795 2720 718 
C 2675 596 2502 166 1914 166 
C 1011 166 1011 1141 1011 1430 
C 1011 1808 1018 2649 1856 2649 
C 1901 2649 2278 2636 2278 2604 
C 2278 2598 2272 2591 2259 2585 
C 2240 2566 2157 2469 2157 2309 
C 2157 2039 2374 1930 2534 1930 
C 2669 1930 2912 2014 2912 2315 
C 2912 2841 2176 2880 1830 2880 
C 691 2880 243 2136 243 1398 
C 243 525 851 -64 1792 -64 
C 2797 -64 2995 679 2995 724 
z
" transform="scale(0.015625)"/>
       <path id="CMBX12-68" d="M 3398 1958 
C 3398 2566 3136 2880 2432 2880 
C 1786 2880 1472 2425 1382 2233 
L 1376 2233 
L 1376 4480 
L 269 4428 
L 269 4153 
C 666 4153 710 4153 710 3896 
L 710 275 
L 269 275 
L 269 0 
C 416 12 877 12 1056 12 
C 1235 12 1702 12 1850 0 
L 1850 275 
L 1408 275 
L 1408 1638 
C 1408 2329 1920 2668 2330 2668 
C 2566 2668 2701 2515 2701 2028 
L 2701 275 
L 2259 275 
L 2259 0 
C 2406 12 2867 12 3046 12 
C 3226 12 3693 12 3840 0 
L 3840 275 
L 3398 275 
L 3398 1958 
z
" transform="scale(0.015625)"/>
      </defs>
      <use xlink:href="#CMBX12-45" transform="scale(0.996264)"/>
      <use xlink:href="#CMBX12-70" transform="translate(73.566746 0) scale(0.996264)"/>
      <use xlink:href="#CMBX12-6f" transform="translate(138.946571 0) scale(0.996264)"/>
      <use xlink:href="#CMBX12-63" transform="translate(198.099747 0) scale(0.996264)"/>
      <use xlink:href="#CMBX12-68" transform="translate(244.799622 0) scale(0.996264)"/>
     </g>
    </g>
   </g>
   <g id="matplotlib.axis_2">
    <g id="ytick_1">
     <g id="line2d_19">
      <path d="M 57.113446 203.050707 
L 414.983399 203.050707 
" clip-path="url(#p66b2f50e6c)" style="fill: none; stroke: #b0b0b0; stroke-width: 0.8; stroke-linecap: square"/>
     </g>
     <g id="line2d_20">
      <defs>
       <path id="mc89b69e898" d="M 0 0 
L -3.5 0 
" style="stroke: #000000; stroke-width: 0.8"/>
      </defs>
      <g>
       <use xlink:href="#mc89b69e898" x="57.113446" y="203.050707" style="stroke: #000000; stroke-width: 0.8"/>
      </g>
     </g>
     <g id="text_11">
      <!-- $\mathdefault{10^{-2}}$ -->
      <g transform="translate(27.586776 207.201797) scale(0.12 -0.12)">
       <defs>
        <path id="CMSY10-0" d="M 4218 1472 
C 4326 1472 4442 1472 4442 1600 
C 4442 1728 4326 1728 4218 1728 
L 755 1728 
C 646 1728 531 1728 531 1600 
C 531 1472 646 1472 755 1472 
L 4218 1472 
z
" transform="scale(0.015625)"/>
       </defs>
       <use xlink:href="#CMR17-31" transform="scale(0.996264)"/>
       <use xlink:href="#CMR17-30" transform="translate(45.690477 0) scale(0.996264)"/>
       <use xlink:href="#CMSY10-0" transform="translate(91.380954 36.153639) scale(0.697382)"/>
       <use xlink:href="#CMR17-32" transform="translate(145.621947 36.153639) scale(0.697382)"/>
      </g>
     </g>
    </g>
    <g id="ytick_2">
     <g id="line2d_21">
      <path d="M 57.113446 154.955874 
L 414.983399 154.955874 
" clip-path="url(#p66b2f50e6c)" style="fill: none; stroke: #b0b0b0; stroke-width: 0.8; stroke-linecap: square"/>
     </g>
     <g id="line2d_22">
      <g>
       <use xlink:href="#mc89b69e898" x="57.113446" y="154.955874" style="stroke: #000000; stroke-width: 0.8"/>
      </g>
     </g>
     <g id="text_12">
      <!-- $\mathdefault{10^{-1}}$ -->
      <g transform="translate(27.586776 159.106964) scale(0.12 -0.12)">
       <use xlink:href="#CMR17-31" transform="scale(0.996264)"/>
       <use xlink:href="#CMR17-30" transform="translate(45.690477 0) scale(0.996264)"/>
       <use xlink:href="#CMSY10-0" transform="translate(91.380954 36.153639) scale(0.697382)"/>
       <use xlink:href="#CMR17-31" transform="translate(145.621947 36.153639) scale(0.697382)"/>
      </g>
     </g>
    </g>
    <g id="ytick_3">
     <g id="line2d_23">
      <path d="M 57.113446 106.861042 
L 414.983399 106.861042 
" clip-path="url(#p66b2f50e6c)" style="fill: none; stroke: #b0b0b0; stroke-width: 0.8; stroke-linecap: square"/>
     </g>
     <g id="line2d_24">
      <g>
       <use xlink:href="#mc89b69e898" x="57.113446" y="106.861042" style="stroke: #000000; stroke-width: 0.8"/>
      </g>
     </g>
     <g id="text_13">
      <!-- $\mathdefault{10^{0}}$ -->
      <g transform="translate(34.173282 111.012132) scale(0.12 -0.12)">
       <use xlink:href="#CMR17-31" transform="scale(0.996264)"/>
       <use xlink:href="#CMR17-30" transform="translate(45.690477 0) scale(0.996264)"/>
       <use xlink:href="#CMR17-30" transform="translate(91.380954 36.153639) scale(0.697382)"/>
      </g>
     </g>
    </g>
    <g id="ytick_4">
     <g id="line2d_25">
      <path d="M 57.113446 58.766209 
L 414.983399 58.766209 
" clip-path="url(#p66b2f50e6c)" style="fill: none; stroke: #b0b0b0; stroke-width: 0.8; stroke-linecap: square"/>
     </g>
     <g id="line2d_26">
      <g>
       <use xlink:href="#mc89b69e898" x="57.113446" y="58.766209" style="stroke: #000000; stroke-width: 0.8"/>
      </g>
     </g>
     <g id="text_14">
      <!-- $\mathdefault{10^{1}}$ -->
      <g transform="translate(34.173282 62.917299) scale(0.12 -0.12)">
       <use xlink:href="#CMR17-31" transform="scale(0.996264)"/>
       <use xlink:href="#CMR17-30" transform="translate(45.690477 0) scale(0.996264)"/>
       <use xlink:href="#CMR17-31" transform="translate(91.380954 36.153639) scale(0.697382)"/>
      </g>
     </g>
    </g>
    <g id="ytick_5">
     <g id="line2d_27">
      <defs>
       <path id="mce24bdc91b" d="M 0 0 
L -2 0 
" style="stroke: #000000; stroke-width: 0.6"/>
      </defs>
      <g>
       <use xlink:href="#mce24bdc91b" x="57.113446" y="236.667552" style="stroke: #000000; stroke-width: 0.6"/>
      </g>
     </g>
    </g>
    <g id="ytick_6">
     <g id="line2d_28">
      <g>
       <use xlink:href="#mce24bdc91b" x="57.113446" y="228.198473" style="stroke: #000000; stroke-width: 0.6"/>
      </g>
     </g>
    </g>
    <g id="ytick_7">
     <g id="line2d_29">
      <g>
       <use xlink:href="#mce24bdc91b" x="57.113446" y="222.189565" style="stroke: #000000; stroke-width: 0.6"/>
      </g>
     </g>
    </g>
    <g id="ytick_8">
     <g id="line2d_30">
      <g>
       <use xlink:href="#mce24bdc91b" x="57.113446" y="217.528694" style="stroke: #000000; stroke-width: 0.6"/>
      </g>
     </g>
    </g>
    <g id="ytick_9">
     <g id="line2d_31">
      <g>
       <use xlink:href="#mce24bdc91b" x="57.113446" y="213.720486" style="stroke: #000000; stroke-width: 0.6"/>
      </g>
     </g>
    </g>
    <g id="ytick_10">
     <g id="line2d_32">
      <g>
       <use xlink:href="#mce24bdc91b" x="57.113446" y="210.500691" style="stroke: #000000; stroke-width: 0.6"/>
      </g>
     </g>
    </g>
    <g id="ytick_11">
     <g id="line2d_33">
      <g>
       <use xlink:href="#mce24bdc91b" x="57.113446" y="207.711578" style="stroke: #000000; stroke-width: 0.6"/>
      </g>
     </g>
    </g>
    <g id="ytick_12">
     <g id="line2d_34">
      <g>
       <use xlink:href="#mce24bdc91b" x="57.113446" y="205.251406" style="stroke: #000000; stroke-width: 0.6"/>
      </g>
     </g>
    </g>
    <g id="ytick_13">
     <g id="line2d_35">
      <g>
       <use xlink:href="#mce24bdc91b" x="57.113446" y="188.57272" style="stroke: #000000; stroke-width: 0.6"/>
      </g>
     </g>
    </g>
    <g id="ytick_14">
     <g id="line2d_36">
      <g>
       <use xlink:href="#mce24bdc91b" x="57.113446" y="180.10364" style="stroke: #000000; stroke-width: 0.6"/>
      </g>
     </g>
    </g>
    <g id="ytick_15">
     <g id="line2d_37">
      <g>
       <use xlink:href="#mce24bdc91b" x="57.113446" y="174.094733" style="stroke: #000000; stroke-width: 0.6"/>
      </g>
     </g>
    </g>
    <g id="ytick_16">
     <g id="line2d_38">
      <g>
       <use xlink:href="#mce24bdc91b" x="57.113446" y="169.433862" style="stroke: #000000; stroke-width: 0.6"/>
      </g>
     </g>
    </g>
    <g id="ytick_17">
     <g id="line2d_39">
      <g>
       <use xlink:href="#mce24bdc91b" x="57.113446" y="165.625653" style="stroke: #000000; stroke-width: 0.6"/>
      </g>
     </g>
    </g>
    <g id="ytick_18">
     <g id="line2d_40">
      <g>
       <use xlink:href="#mce24bdc91b" x="57.113446" y="162.405858" style="stroke: #000000; stroke-width: 0.6"/>
      </g>
     </g>
    </g>
    <g id="ytick_19">
     <g id="line2d_41">
      <g>
       <use xlink:href="#mce24bdc91b" x="57.113446" y="159.616745" style="stroke: #000000; stroke-width: 0.6"/>
      </g>
     </g>
    </g>
    <g id="ytick_20">
     <g id="line2d_42">
      <g>
       <use xlink:href="#mce24bdc91b" x="57.113446" y="157.156573" style="stroke: #000000; stroke-width: 0.6"/>
      </g>
     </g>
    </g>
    <g id="ytick_21">
     <g id="line2d_43">
      <g>
       <use xlink:href="#mce24bdc91b" x="57.113446" y="140.477887" style="stroke: #000000; stroke-width: 0.6"/>
      </g>
     </g>
    </g>
    <g id="ytick_22">
     <g id="line2d_44">
      <g>
       <use xlink:href="#mce24bdc91b" x="57.113446" y="132.008808" style="stroke: #000000; stroke-width: 0.6"/>
      </g>
     </g>
    </g>
    <g id="ytick_23">
     <g id="line2d_45">
      <g>
       <use xlink:href="#mce24bdc91b" x="57.113446" y="125.9999" style="stroke: #000000; stroke-width: 0.6"/>
      </g>
     </g>
    </g>
    <g id="ytick_24">
     <g id="line2d_46">
      <g>
       <use xlink:href="#mce24bdc91b" x="57.113446" y="121.339029" style="stroke: #000000; stroke-width: 0.6"/>
      </g>
     </g>
    </g>
    <g id="ytick_25">
     <g id="line2d_47">
      <g>
       <use xlink:href="#mce24bdc91b" x="57.113446" y="117.53082" style="stroke: #000000; stroke-width: 0.6"/>
      </g>
     </g>
    </g>
    <g id="ytick_26">
     <g id="line2d_48">
      <g>
       <use xlink:href="#mce24bdc91b" x="57.113446" y="114.311026" style="stroke: #000000; stroke-width: 0.6"/>
      </g>
     </g>
    </g>
    <g id="ytick_27">
     <g id="line2d_49">
      <g>
       <use xlink:href="#mce24bdc91b" x="57.113446" y="111.521913" style="stroke: #000000; stroke-width: 0.6"/>
      </g>
     </g>
    </g>
    <g id="ytick_28">
     <g id="line2d_50">
      <g>
       <use xlink:href="#mce24bdc91b" x="57.113446" y="109.061741" style="stroke: #000000; stroke-width: 0.6"/>
      </g>
     </g>
    </g>
    <g id="ytick_29">
     <g id="line2d_51">
      <g>
       <use xlink:href="#mce24bdc91b" x="57.113446" y="92.383055" style="stroke: #000000; stroke-width: 0.6"/>
      </g>
     </g>
    </g>
    <g id="ytick_30">
     <g id="line2d_52">
      <g>
       <use xlink:href="#mce24bdc91b" x="57.113446" y="83.913975" style="stroke: #000000; stroke-width: 0.6"/>
      </g>
     </g>
    </g>
    <g id="ytick_31">
     <g id="line2d_53">
      <g>
       <use xlink:href="#mce24bdc91b" x="57.113446" y="77.905067" style="stroke: #000000; stroke-width: 0.6"/>
      </g>
     </g>
    </g>
    <g id="ytick_32">
     <g id="line2d_54">
      <g>
       <use xlink:href="#mce24bdc91b" x="57.113446" y="73.244197" style="stroke: #000000; stroke-width: 0.6"/>
      </g>
     </g>
    </g>
    <g id="ytick_33">
     <g id="line2d_55">
      <g>
       <use xlink:href="#mce24bdc91b" x="57.113446" y="69.435988" style="stroke: #000000; stroke-width: 0.6"/>
      </g>
     </g>
    </g>
    <g id="ytick_34">
     <g id="line2d_56">
      <g>
       <use xlink:href="#mce24bdc91b" x="57.113446" y="66.216193" style="stroke: #000000; stroke-width: 0.6"/>
      </g>
     </g>
    </g>
    <g id="ytick_35">
     <g id="line2d_57">
      <g>
       <use xlink:href="#mce24bdc91b" x="57.113446" y="63.42708" style="stroke: #000000; stroke-width: 0.6"/>
      </g>
     </g>
    </g>
    <g id="ytick_36">
     <g id="line2d_58">
      <g>
       <use xlink:href="#mce24bdc91b" x="57.113446" y="60.966908" style="stroke: #000000; stroke-width: 0.6"/>
      </g>
     </g>
    </g>
    <g id="ytick_37">
     <g id="line2d_59">
      <g>
       <use xlink:href="#mce24bdc91b" x="57.113446" y="44.288222" style="stroke: #000000; stroke-width: 0.6"/>
      </g>
     </g>
    </g>
    <g id="ytick_38">
     <g id="line2d_60">
      <g>
       <use xlink:href="#mce24bdc91b" x="57.113446" y="35.819142" style="stroke: #000000; stroke-width: 0.6"/>
      </g>
     </g>
    </g>
    <g id="ytick_39">
     <g id="line2d_61">
      <g>
       <use xlink:href="#mce24bdc91b" x="57.113446" y="29.810235" style="stroke: #000000; stroke-width: 0.6"/>
      </g>
     </g>
    </g>
    <g id="text_15">
     <!-- \textbf{MSE Loss} -->
     <g transform="translate(21.26218 164.156767) rotate(-90) scale(0.12 -0.12)">
      <defs>
       <path id="CMBX12-4d" d="M 3411 816 
L 1875 4281 
C 1818 4416 1760 4416 1626 4416 
L 262 4416 
L 262 4140 
L 941 4140 
L 941 468 
C 941 326 934 320 768 294 
C 653 281 525 275 410 275 
L 262 275 
L 262 0 
C 410 12 909 12 1088 12 
C 1267 12 1773 12 1920 0 
L 1920 275 
L 1773 275 
C 1600 275 1587 275 1434 294 
C 1248 320 1242 326 1242 468 
L 1242 4063 
L 1248 4063 
L 2989 134 
C 3021 64 3059 0 3168 0 
C 3277 0 3315 64 3347 134 
L 5120 4140 
L 5126 4140 
L 5126 275 
L 4448 275 
L 4448 0 
C 4621 12 5286 12 5504 12 
C 5722 12 6387 12 6560 0 
L 6560 275 
L 5882 275 
L 5882 4140 
L 6560 4140 
L 6560 4416 
L 5197 4416 
C 5062 4416 5005 4416 4947 4281 
L 3411 816 
z
" transform="scale(0.015625)"/>
       <path id="CMBX12-53" d="M 1626 2828 
C 992 2969 973 3430 973 3520 
C 973 3846 1184 4223 1805 4223 
C 2426 4223 2982 3923 3117 3084 
C 3136 2950 3136 2944 3258 2944 
C 3392 2944 3392 2963 3392 3110 
L 3392 4313 
C 3392 4435 3392 4480 3296 4480 
C 3251 4480 3232 4473 3174 4409 
L 2899 4096 
C 2739 4230 2419 4480 1798 4480 
C 883 4480 397 3904 397 3206 
C 397 2777 627 2476 717 2387 
C 1050 2054 1229 2016 1894 1868 
C 2534 1728 2611 1715 2752 1580 
C 2835 1497 3021 1318 3021 992 
C 3021 716 2886 211 2170 211 
C 1606 211 717 403 666 1337 
C 659 1452 659 1472 531 1472 
C 397 1472 397 1452 397 1305 
L 397 102 
C 397 -20 397 -64 493 -64 
C 538 -64 544 -58 608 0 
C 678 70 736 153 896 313 
C 1267 19 1792 -64 2176 -64 
C 3174 -64 3597 614 3597 1292 
C 3597 1894 3200 2470 2502 2630 
L 1626 2828 
z
" transform="scale(0.015625)"/>
       <path id="CMBX12-4c" d="M 4019 1737 
L 3750 1737 
C 3706 1293 3603 275 2451 275 
L 1766 275 
L 1766 4140 
L 2618 4140 
L 2618 4416 
C 2304 4403 1734 4403 1395 4403 
C 1158 4403 429 4403 243 4416 
L 243 4140 
L 922 4140 
L 922 275 
L 243 275 
L 243 0 
L 3834 0 
L 4019 1737 
z
" transform="scale(0.015625)"/>
       <path id="CMBX12-73" d="M 2413 2713 
C 2413 2835 2413 2880 2317 2880 
C 2278 2880 2266 2880 2170 2822 
C 2144 2803 2074 2758 2042 2739 
C 1862 2841 1626 2880 1395 2880 
C 1203 2880 243 2880 243 2046 
C 243 1372 1037 1231 1235 1199 
C 1408 1167 1619 1128 1645 1128 
C 1901 1071 2157 910 2157 641 
C 2157 147 1574 147 1440 147 
C 1114 147 710 249 531 872 
C 493 1000 486 1006 378 1006 
C 243 1006 243 987 243 840 
L 243 102 
C 243 -20 243 -64 339 -64 
C 384 -64 397 -64 525 38 
L 691 160 
C 979 -64 1325 -64 1440 -64 
C 1792 -64 2592 12 2592 865 
C 2592 1173 2426 1385 2298 1500 
C 2035 1719 1818 1757 1472 1821 
C 1062 1892 678 1962 678 2270 
C 678 2687 1248 2687 1382 2687 
C 2093 2687 2131 2238 2144 2078 
C 2150 1995 2202 1995 2278 1995 
C 2413 1995 2413 2014 2413 2161 
L 2413 2713 
z
" transform="scale(0.015625)"/>
      </defs>
      <use xlink:href="#CMBX12-4d" transform="scale(0.996264)"/>
      <use xlink:href="#CMBX12-53" transform="translate(106.314425 0) scale(0.996264)"/>
      <use xlink:href="#CMBX12-45" transform="translate(168.580926 0) scale(0.996264)"/>
      <use xlink:href="#CMBX12-4c" transform="translate(279.507572 0) scale(0.996264)"/>
      <use xlink:href="#CMBX12-6f" transform="translate(346.847667 0) scale(0.996264)"/>
      <use xlink:href="#CMBX12-73" transform="translate(402.887518 0) scale(0.996264)"/>
      <use xlink:href="#CMBX12-73" transform="translate(447.096855 0) scale(0.996264)"/>
     </g>
    </g>
   </g>
   <g id="line2d_62">
    <path d="M 73.380262 36.398351 
L 76.184885 102.144856 
L 78.989509 119.037285 
L 81.794132 127.198365 
L 84.598755 132.145545 
L 87.403379 135.671008 
L 90.208002 139.031405 
L 93.012626 142.332473 
L 95.817249 146.044768 
L 98.621873 150.12083 
L 101.426496 154.75458 
L 104.23112 159.946623 
L 107.035743 165.616325 
L 109.840367 171.749285 
L 112.64499 178.231603 
L 115.449613 184.805102 
L 118.254237 191.320568 
L 121.05886 197.51552 
L 123.863484 203.172574 
L 126.668107 207.737328 
L 129.472731 211.352651 
L 132.277354 213.992133 
L 135.081978 215.56997 
L 137.886601 216.595067 
L 140.691225 217.062011 
L 143.495848 217.320623 
L 146.300471 217.45183 
L 149.105095 217.553493 
L 151.909718 217.638132 
L 154.714342 217.602971 
L 157.518965 217.75666 
L 160.323589 217.783479 
L 163.128212 217.836214 
L 165.932836 217.945321 
L 168.737459 218.127765 
L 171.542083 218.158984 
L 174.346706 218.208777 
L 177.15133 218.252069 
L 179.955953 218.290642 
L 182.760576 218.320145 
L 185.5652 218.368078 
L 188.369823 218.428658 
L 191.174447 218.479243 
L 193.97907 218.564268 
L 196.783694 218.646591 
L 199.588317 218.753441 
L 202.392941 218.775278 
L 205.197564 218.790112 
L 208.002188 218.805486 
L 210.806811 218.830632 
L 213.611434 218.844544 
L 216.416058 218.870292 
L 219.220681 218.881353 
L 222.025305 218.888457 
L 224.829928 218.914818 
L 227.634552 218.923137 
L 230.439175 218.954724 
L 233.243799 218.955449 
L 236.048422 218.970004 
L 238.853046 218.974177 
L 241.657669 218.984176 
L 244.462292 218.990868 
L 247.266916 218.992251 
L 250.071539 219.006776 
L 252.876163 219.007573 
L 255.680786 219.007796 
L 258.48541 219.013544 
L 261.290033 219.034901 
L 264.094657 219.035171 
L 266.89928 219.037333 
L 269.703904 219.040948 
L 272.508527 219.04258 
L 275.31315 219.040246 
L 278.117774 219.051071 
L 280.922397 219.048276 
L 283.727021 219.052599 
L 286.531644 219.056628 
L 289.336268 219.062477 
L 292.140891 219.075189 
L 294.945515 219.067166 
L 297.750138 219.063551 
L 300.554762 219.073797 
L 303.359385 219.08049 
L 306.164009 219.077292 
L 308.968632 219.077508 
L 311.773255 219.078778 
L 314.577879 219.076401 
L 317.382502 219.08187 
L 320.187126 219.08463 
L 322.991749 219.086435 
L 325.796373 219.088532 
L 328.600996 219.087048 
L 331.40562 219.090792 
L 334.210243 219.089349 
L 337.014867 219.087641 
L 339.81949 219.092374 
L 342.624113 219.089261 
L 345.428737 219.088225 
L 348.23336 219.097276 
L 351.037984 219.085621 
L 353.842607 219.096357 
L 356.647231 219.095844 
L 359.451854 219.09676 
L 362.256478 219.094989 
L 365.061101 219.095758 
L 367.865725 219.099634 
L 370.670348 219.101107 
L 373.474971 219.097106 
L 376.279595 219.094448 
L 379.084218 219.099221 
L 381.888842 219.097866 
L 384.693465 219.100959 
L 387.498089 219.099039 
L 390.302712 219.102847 
L 393.107336 219.096213 
L 395.911959 219.100308 
L 398.716583 219.099017 
" clip-path="url(#p66b2f50e6c)" style="fill: none; stroke: #1f77b4; stroke-width: 2; stroke-linecap: square"/>
   </g>
   <g id="line2d_63">
    <path d="M 73.380262 153.324489 
L 76.184885 153.171523 
L 78.989509 153.542729 
L 81.794132 154.452131 
L 84.598755 155.805914 
L 87.403379 157.687756 
L 90.208002 160.146383 
L 93.012626 163.194153 
L 95.817249 166.906215 
L 98.621873 171.323289 
L 101.426496 176.396725 
L 104.23112 182.142127 
L 107.035743 188.504953 
L 109.840367 195.290533 
L 112.64499 202.39504 
L 115.449613 209.528306 
L 118.254237 216.289845 
L 121.05886 222.325947 
L 123.863484 227.073412 
L 126.668107 230.372846 
L 129.472731 232.20586 
L 132.277354 232.939437 
L 135.081978 232.958444 
L 137.886601 232.712772 
L 140.691225 232.345283 
L 143.495848 232.071426 
L 146.300471 231.92086 
L 149.105095 231.786886 
L 151.909718 231.812798 
L 154.714342 231.801465 
L 157.518965 231.818978 
L 160.323589 231.816325 
L 163.128212 231.987867 
L 165.932836 231.713551 
L 168.737459 231.854248 
L 171.542083 231.827959 
L 174.346706 231.89346 
L 177.15133 231.81676 
L 179.955953 231.841201 
L 182.760576 231.893218 
L 185.5652 231.75778 
L 188.369823 231.892146 
L 191.174447 231.810306 
L 193.97907 231.797055 
L 196.783694 231.834416 
L 199.588317 231.812228 
L 202.392941 231.887155 
L 205.197564 231.829738 
L 208.002188 231.8074 
L 210.806811 231.80701 
L 213.611434 231.860759 
L 216.416058 231.843172 
L 219.220681 231.867546 
L 222.025305 231.827479 
L 224.829928 231.828602 
L 227.634552 231.848954 
L 230.439175 231.850701 
L 233.243799 231.854974 
L 236.048422 231.85028 
L 238.853046 231.84704 
L 241.657669 231.836376 
L 244.462292 231.841387 
L 247.266916 231.840306 
L 250.071539 231.840371 
L 252.876163 231.843122 
L 255.680786 231.829171 
L 258.48541 231.832621 
L 261.290033 231.8353 
L 264.094657 231.839675 
L 266.89928 231.835173 
L 269.703904 231.846101 
L 272.508527 231.845131 
L 275.31315 231.841695 
L 278.117774 231.848144 
L 280.922397 231.846845 
L 283.727021 231.847129 
L 286.531644 231.843897 
L 289.336268 231.846953 
L 292.140891 231.846269 
L 294.945515 231.845278 
L 297.750138 231.841585 
L 300.554762 231.842386 
L 303.359385 231.845739 
L 306.164009 231.842526 
L 308.968632 231.845614 
L 311.773255 231.842489 
L 314.577879 231.83975 
L 317.382502 231.839992 
L 320.187126 231.841623 
L 322.991749 231.842958 
L 325.796373 231.842578 
L 328.600996 231.843195 
L 331.40562 231.843828 
L 334.210243 231.845489 
L 337.014867 231.844302 
L 339.81949 231.842086 
L 342.624113 231.843373 
L 345.428737 231.843498 
L 348.23336 231.84093 
L 351.037984 231.845619 
L 353.842607 231.843272 
L 356.647231 231.8427 
L 359.451854 231.84458 
L 362.256478 231.843012 
L 365.061101 231.844064 
L 367.865725 231.845266 
L 370.670348 231.845098 
L 373.474971 231.844434 
L 376.279595 231.845265 
L 379.084218 231.843902 
L 381.888842 231.845426 
L 384.693465 231.842957 
L 387.498089 231.842976 
L 390.302712 231.845343 
L 393.107336 231.843564 
L 395.911959 231.844307 
L 398.716583 231.842246 
" clip-path="url(#p66b2f50e6c)" style="fill: none; stroke: #ff7f0e; stroke-width: 2; stroke-linecap: square"/>
   </g>
   <g id="patch_3">
    <path d="M 57.113446 242.786449 
L 57.113446 26.570347 
" style="fill: none; stroke: #000000; stroke-width: 0.8; stroke-linejoin: miter; stroke-linecap: square"/>
   </g>
   <g id="patch_4">
    <path d="M 414.983399 242.786449 
L 414.983399 26.570347 
" style="fill: none; stroke: #000000; stroke-width: 0.8; stroke-linejoin: miter; stroke-linecap: square"/>
   </g>
   <g id="patch_5">
    <path d="M 57.113446 242.786449 
L 414.983399 242.786449 
" style="fill: none; stroke: #000000; stroke-width: 0.8; stroke-linejoin: miter; stroke-linecap: square"/>
   </g>
   <g id="patch_6">
    <path d="M 57.113446 26.570347 
L 414.983399 26.570347 
" style="fill: none; stroke: #000000; stroke-width: 0.8; stroke-linejoin: miter; stroke-linecap: square"/>
   </g>
   <g id="text_16">
    <!-- \textbf{Loss evolution over epochs} -->
    <g transform="translate(162.43167 20.570347) scale(0.11 -0.11)">
     <defs>
      <path id="CMBX12-65" d="M 2893 1408 
C 3040 1408 3078 1408 3078 1568 
C 3078 1758 3034 2232 2739 2529 
C 2470 2796 2112 2880 1741 2880 
C 742 2880 198 2232 198 1433 
C 198 523 858 -64 1824 -64 
C 2790 -64 3078 621 3078 731 
C 3078 829 2982 829 2944 829 
C 2842 829 2835 809 2797 725 
C 2630 302 2208 166 1901 166 
C 973 166 966 1043 966 1408 
L 2893 1408 
z
M 966 1593 
C 979 1852 986 2099 1120 2327 
C 1242 2529 1466 2668 1741 2668 
C 2426 2668 2483 1909 2490 1593 
L 966 1593 
z
" transform="scale(0.015625)"/>
      <path id="CMBX12-76" d="M 3168 2393 
C 3213 2489 3238 2540 3642 2540 
L 3642 2816 
C 3411 2803 3398 2803 3136 2803 
C 2963 2803 2950 2803 2586 2816 
L 2586 2540 
C 2758 2540 2899 2508 2899 2463 
C 2899 2457 2899 2451 2867 2386 
L 2118 737 
L 1293 2540 
L 1645 2540 
L 1645 2816 
C 1498 2803 1050 2803 877 2803 
C 691 2803 320 2803 154 2816 
L 154 2540 
L 557 2540 
L 1683 89 
C 1741 -32 1754 -64 1901 -64 
C 2003 -64 2054 -52 2112 76 
L 3168 2393 
z
" transform="scale(0.015625)"/>
      <path id="CMBX12-6c" d="M 1389 4480 
L 282 4428 
L 282 4153 
C 678 4153 723 4153 723 3901 
L 723 275 
L 282 275 
L 282 0 
C 429 12 883 12 1056 12 
C 1229 12 1683 12 1830 0 
L 1830 275 
L 1389 275 
L 1389 4480 
z
" transform="scale(0.015625)"/>
      <path id="CMBX12-75" d="M 2259 2828 
L 2259 2553 
C 2656 2553 2701 2553 2701 2301 
L 2701 1033 
C 2701 541 2413 147 1914 147 
C 1434 147 1408 308 1408 664 
L 1408 2880 
L 269 2828 
L 269 2553 
C 666 2553 710 2553 710 2301 
L 710 768 
C 710 121 1139 -64 1824 -64 
C 1978 -64 2451 -64 2726 457 
L 2733 457 
L 2733 -64 
L 3840 -26 
L 3840 250 
C 3443 250 3398 250 3398 502 
L 3398 2880 
L 2259 2828 
z
" transform="scale(0.015625)"/>
      <path id="CMBX12-74" d="M 1350 2540 
L 2272 2540 
L 2272 2816 
L 1350 2816 
L 1350 4032 
L 1082 4032 
C 1075 3401 768 2771 134 2751 
L 134 2540 
L 653 2540 
L 653 761 
C 653 83 1178 -64 1638 -64 
C 2112 -64 2394 294 2394 768 
L 2394 1107 
L 2125 1107 
L 2125 774 
C 2125 352 1933 166 1734 166 
C 1350 166 1350 595 1350 742 
L 1350 2540 
z
" transform="scale(0.015625)"/>
      <path id="CMBX12-69" d="M 1427 4019 
C 1427 4281 1216 4480 966 4480 
C 704 4480 506 4262 506 4019 
C 506 3775 704 3558 966 3558 
C 1216 3558 1427 3756 1427 4019 
z
M 301 2828 
L 301 2553 
C 678 2553 723 2553 723 2303 
L 723 275 
L 282 275 
L 282 0 
C 429 12 870 12 1043 12 
C 1222 12 1632 12 1786 0 
L 1786 275 
L 1389 275 
L 1389 2880 
L 301 2828 
z
" transform="scale(0.015625)"/>
      <path id="CMBX12-6e" d="M 3398 1958 
C 3398 2566 3136 2880 2432 2880 
C 1971 2880 1574 2656 1357 2176 
L 1350 2176 
L 1350 2880 
L 269 2828 
L 269 2553 
C 666 2553 710 2553 710 2304 
L 710 275 
L 269 275 
L 269 0 
C 416 12 877 12 1056 12 
C 1235 12 1702 12 1850 0 
L 1850 275 
L 1408 275 
L 1408 1638 
C 1408 2329 1920 2668 2330 2668 
C 2566 2668 2701 2515 2701 2028 
L 2701 275 
L 2259 275 
L 2259 0 
C 2406 12 2867 12 3046 12 
C 3226 12 3693 12 3840 0 
L 3840 275 
L 3398 275 
L 3398 1958 
z
" transform="scale(0.015625)"/>
      <path id="CMBX12-72" d="M 1331 1440 
C 1331 1651 1376 2668 2125 2668 
C 2035 2598 1990 2489 1990 2374 
C 1990 2112 2202 2003 2362 2003 
C 2522 2003 2733 2112 2733 2374 
C 2733 2700 2400 2880 2093 2880 
C 1587 2880 1370 2438 1280 2169 
L 1274 2169 
L 1274 2880 
L 224 2828 
L 224 2553 
C 621 2553 666 2553 666 2304 
L 666 275 
L 224 275 
L 224 0 
C 371 12 851 12 1030 12 
C 1216 12 1734 12 1888 0 
L 1888 275 
L 1331 275 
L 1331 1440 
z
" transform="scale(0.015625)"/>
     </defs>
     <use xlink:href="#CMBX12-4c" transform="scale(0.996264)"/>
     <use xlink:href="#CMBX12-6f" transform="translate(67.340095 0) scale(0.996264)"/>
     <use xlink:href="#CMBX12-73" transform="translate(123.379946 0) scale(0.996264)"/>
     <use xlink:href="#CMBX12-73" transform="translate(167.589283 0) scale(0.996264)"/>
     <use xlink:href="#CMBX12-65" transform="translate(249.158521 0) scale(0.996264)"/>
     <use xlink:href="#CMBX12-76" transform="translate(300.297788 0) scale(0.996264)"/>
     <use xlink:href="#CMBX12-6f" transform="translate(356.337638 0) scale(0.996264)"/>
     <use xlink:href="#CMBX12-6c" transform="translate(412.377489 0) scale(0.996264)"/>
     <use xlink:href="#CMBX12-75" transform="translate(443.510739 0) scale(0.996264)"/>
     <use xlink:href="#CMBX12-74" transform="translate(505.77724 0) scale(0.996264)"/>
     <use xlink:href="#CMBX12-69" transform="translate(549.36379 0) scale(0.996264)"/>
     <use xlink:href="#CMBX12-6f" transform="translate(580.497041 0) scale(0.996264)"/>
     <use xlink:href="#CMBX12-6e" transform="translate(636.536891 0) scale(0.996264)"/>
     <use xlink:href="#CMBX12-6f" transform="translate(736.163292 0) scale(0.996264)"/>
     <use xlink:href="#CMBX12-76" transform="translate(789.089818 0) scale(0.996264)"/>
     <use xlink:href="#CMBX12-65" transform="translate(845.129668 0) scale(0.996264)"/>
     <use xlink:href="#CMBX12-72" transform="translate(896.268935 0) scale(0.996264)"/>
     <use xlink:href="#CMBX12-65" transform="translate(979.406343 0) scale(0.996264)"/>
     <use xlink:href="#CMBX12-70" transform="translate(1030.54561 0) scale(0.996264)"/>
     <use xlink:href="#CMBX12-6f" transform="translate(1095.925436 0) scale(0.996264)"/>
     <use xlink:href="#CMBX12-63" transform="translate(1155.078611 0) scale(0.996264)"/>
     <use xlink:href="#CMBX12-68" transform="translate(1201.778487 0) scale(0.996264)"/>
     <use xlink:href="#CMBX12-73" transform="translate(1264.044988 0) scale(0.996264)"/>
    </g>
   </g>
   <g id="legend_1">
    <g id="patch_7">
     <path d="M 278.065758 69.619538 
L 406.583399 69.619538 
Q 408.983399 69.619538 408.983399 67.219538 
L 408.983399 34.970347 
Q 408.983399 32.570347 406.583399 32.570347 
L 278.065758 32.570347 
Q 275.665758 32.570347 275.665758 34.970347 
L 275.665758 67.219538 
Q 275.665758 69.619538 278.065758 69.619538 
z
" style="fill: #ffffff; opacity: 0.8; stroke: #cccccc; stroke-linejoin: miter"/>
    </g>
    <g id="line2d_64">
     <path d="M 280.465758 41.570347 
L 292.465758 41.570347 
L 304.465758 41.570347 
" style="fill: none; stroke: #1f77b4; stroke-width: 2; stroke-linecap: square"/>
    </g>
    <g id="text_17">
     <!-- \textbf{Train Loss} -->
     <g transform="translate(314.065758 45.770347) scale(0.12 -0.12)">
      <defs>
       <path id="CMBX12-54" d="M 4608 4358 
L 390 4358 
L 262 2833 
L 531 2833 
C 589 3535 640 4083 1562 4083 
L 2080 4083 
L 2080 275 
L 1114 275 
L 1114 0 
C 1626 12 2285 12 2502 12 
C 2893 12 3379 12 3891 0 
L 3891 275 
L 2925 275 
L 2925 4083 
L 3437 4083 
C 4358 4083 4410 3542 4467 2833 
L 4736 2833 
L 4608 4358 
z
" transform="scale(0.015625)"/>
       <path id="CMBX12-61" d="M 2944 1894 
C 2944 2483 2477 2880 1574 2880 
C 1216 2880 461 2847 461 2310 
C 461 2041 666 1926 838 1926 
C 1030 1926 1216 2060 1216 2303 
C 1216 2425 1171 2540 1062 2611 
C 1274 2668 1427 2668 1549 2668 
C 1984 2668 2246 2425 2246 1900 
L 2246 1644 
C 1235 1644 218 1362 218 648 
C 218 64 960 -64 1402 -64 
C 1894 -64 2208 205 2336 488 
C 2336 250 2336 -26 2982 -26 
L 3309 -26 
C 3443 -26 3494 -26 3494 115 
C 3494 250 3437 250 3347 250 
C 2944 256 2944 359 2944 507 
L 2944 1894 
z
M 2246 867 
C 2246 262 1709 147 1504 147 
C 1190 147 928 359 928 655 
C 928 1240 1619 1439 2246 1472 
L 2246 867 
z
" transform="scale(0.015625)"/>
      </defs>
      <use xlink:href="#CMBX12-54" transform="scale(0.996264)"/>
      <use xlink:href="#CMBX12-72" transform="translate(68.608395 0) scale(0.996264)"/>
      <use xlink:href="#CMBX12-61" transform="translate(114.385903 0) scale(0.996264)"/>
      <use xlink:href="#CMBX12-69" transform="translate(168.869091 0) scale(0.996264)"/>
      <use xlink:href="#CMBX12-6e" transform="translate(200.002341 0) scale(0.996264)"/>
      <use xlink:href="#CMBX12-4c" transform="translate(299.628742 0) scale(0.996264)"/>
      <use xlink:href="#CMBX12-6f" transform="translate(366.968838 0) scale(0.996264)"/>
      <use xlink:href="#CMBX12-73" transform="translate(423.008688 0) scale(0.996264)"/>
      <use xlink:href="#CMBX12-73" transform="translate(467.218025 0) scale(0.996264)"/>
     </g>
    </g>
    <g id="line2d_65">
     <path d="M 280.465758 58.294942 
L 292.465758 58.294942 
L 304.465758 58.294942 
" style="fill: none; stroke: #ff7f0e; stroke-width: 2; stroke-linecap: square"/>
    </g>
    <g id="text_18">
     <!-- \textbf{Validation Loss} -->
     <g transform="translate(314.065758 62.494942) scale(0.12 -0.12)">
      <defs>
       <path id="CMBX12-56" d="M 4634 3992 
C 4672 4075 4698 4140 5171 4140 
L 5280 4140 
L 5280 4416 
C 5082 4403 4621 4403 4570 4403 
C 4390 4403 3936 4403 3789 4416 
L 3789 4140 
C 3930 4140 4166 4140 4346 4069 
L 4314 3979 
L 3002 960 
L 1619 4140 
L 2214 4140 
L 2214 4416 
C 2010 4403 1395 4403 1152 4403 
C 947 4403 314 4403 154 4416 
L 154 4140 
L 730 4140 
L 2496 70 
C 2554 -58 2611 -64 2714 -64 
C 2816 -64 2880 -64 2938 70 
L 4634 3992 
z
" transform="scale(0.015625)"/>
       <path id="CMBX12-64" d="M 2221 4428 
L 2221 4153 
C 2618 4153 2662 4153 2662 3896 
L 2662 2571 
C 2522 2694 2240 2880 1798 2880 
C 890 2880 243 2313 243 1408 
C 243 483 877 -64 1728 -64 
C 2080 -64 2381 57 2630 270 
L 2630 -64 
L 3770 -26 
L 3770 250 
C 3373 250 3328 250 3328 502 
L 3328 4480 
L 2221 4428 
z
M 2630 625 
C 2362 231 2035 147 1805 147 
C 1011 147 1011 968 1011 1395 
C 1011 1699 1011 2022 1152 2268 
C 1350 2630 1728 2668 1875 2668 
C 2138 2668 2419 2552 2630 2268 
L 2630 625 
z
" transform="scale(0.015625)"/>
      </defs>
      <use xlink:href="#CMBX12-56" transform="scale(0.996264)"/>
      <use xlink:href="#CMBX12-61" transform="translate(75.29642 0) scale(0.996264)"/>
      <use xlink:href="#CMBX12-6c" transform="translate(129.779608 0) scale(0.996264)"/>
      <use xlink:href="#CMBX12-69" transform="translate(160.912858 0) scale(0.996264)"/>
      <use xlink:href="#CMBX12-64" transform="translate(192.046108 0) scale(0.996264)"/>
      <use xlink:href="#CMBX12-61" transform="translate(254.312609 0) scale(0.996264)"/>
      <use xlink:href="#CMBX12-74" transform="translate(308.795797 0) scale(0.996264)"/>
      <use xlink:href="#CMBX12-69" transform="translate(352.382347 0) scale(0.996264)"/>
      <use xlink:href="#CMBX12-6f" transform="translate(383.515598 0) scale(0.996264)"/>
      <use xlink:href="#CMBX12-6e" transform="translate(439.555448 0) scale(0.996264)"/>
      <use xlink:href="#CMBX12-4c" transform="translate(539.181849 0) scale(0.996264)"/>
      <use xlink:href="#CMBX12-6f" transform="translate(606.521945 0) scale(0.996264)"/>
      <use xlink:href="#CMBX12-73" transform="translate(662.561795 0) scale(0.996264)"/>
      <use xlink:href="#CMBX12-73" transform="translate(706.771132 0) scale(0.996264)"/>
     </g>
    </g>
   </g>
  </g>
 </g>
 <defs>
  <clipPath id="p66b2f50e6c">
   <rect x="57.113446" y="26.570347" width="357.869953" height="216.216102"/>
  </clipPath>
 </defs>
</svg>
