<?xml version="1.0" encoding="utf-8" standalone="no"?>
<!DOCTYPE svg PUBLIC "-//W3C//DTD SVG 1.1//EN"
  "http://www.w3.org/Graphics/SVG/1.1/DTD/svg11.dtd">
<svg xmlns:xlink="http://www.w3.org/1999/xlink" width="432pt" height="288pt" viewBox="0 0 432 288" xmlns="http://www.w3.org/2000/svg" version="1.1">
 <metadata>
  <rdf:RDF xmlns:dc="http://purl.org/dc/elements/1.1/" xmlns:cc="http://creativecommons.org/ns#" xmlns:rdf="http://www.w3.org/1999/02/22-rdf-syntax-ns#">
   <cc:Work>
    <dc:type rdf:resource="http://purl.org/dc/dcmitype/StillImage"/>
    <dc:date>2025-06-25T13:17:08.548237</dc:date>
    <dc:format>image/svg+xml</dc:format>
    <dc:creator>
     <cc:Agent>
      <dc:title>Matplotlib v3.10.1, https://matplotlib.org/</dc:title>
     </cc:Agent>
    </dc:creator>
   </cc:Work>
  </rdf:RDF>
 </metadata>
 <defs>
  <style type="text/css">*{stroke-linejoin: round; stroke-linecap: butt}</style>
 </defs>
 <g id="figure_1">
  <g id="patch_1">
   <path d="M 0 288 
L 432 288 
L 432 0 
L 0 0 
z
" style="fill: #ffffff"/>
  </g>
  <g id="axes_1">
   <g id="patch_2">
    <path d="M 57.113446 242.786449 
L 419.04 242.786449 
L 419.04 26.570347 
L 57.113446 26.570347 
z
" style="fill: #ffffff"/>
   </g>
   <g id="matplotlib.axis_1">
    <g id="xtick_1">
     <g id="line2d_1">
      <path d="M 73.564653 242.786449 
L 73.564653 26.570347 
" clip-path="url(#pdf8c52751b)" style="fill: none; stroke: #b0b0b0; stroke-width: 0.8; stroke-linecap: square"/>
     </g>
     <g id="line2d_2">
      <defs>
       <path id="md4ac3f79c3" d="M 0 0 
L 0 3.5 
" style="stroke: #000000; stroke-width: 0.8"/>
      </defs>
      <g>
       <use xlink:href="#md4ac3f79c3" x="73.564653" y="242.786449" style="stroke: #000000; stroke-width: 0.8"/>
      </g>
     </g>
     <g id="text_1">
      <!-- $\mathdefault{0}$ -->
      <g transform="translate(70.638157 258.088629) scale(0.12 -0.12)">
       <defs>
        <path id="CMR17-30" d="M 2688 2038 
C 2688 2430 2682 3099 2413 3613 
C 2176 4063 1798 4224 1466 4224 
C 1158 4224 768 4082 525 3620 
C 269 3137 243 2539 243 2038 
C 243 1671 250 1112 448 623 
C 723 -39 1216 -128 1466 -128 
C 1760 -128 2208 -7 2470 604 
C 2662 1048 2688 1568 2688 2038 
z
M 1466 -26 
C 1056 -26 813 328 723 816 
C 653 1196 653 1749 653 2109 
C 653 2604 653 3015 736 3407 
C 858 3954 1216 4121 1466 4121 
C 1728 4121 2067 3947 2189 3420 
C 2272 3054 2278 2623 2278 2109 
C 2278 1691 2278 1176 2202 797 
C 2067 96 1690 -26 1466 -26 
z
" transform="scale(0.015625)"/>
       </defs>
       <use xlink:href="#CMR17-30" transform="scale(0.996264)"/>
      </g>
     </g>
    </g>
    <g id="xtick_2">
     <g id="line2d_3">
      <path d="M 118.027374 242.786449 
L 118.027374 26.570347 
" clip-path="url(#pdf8c52751b)" style="fill: none; stroke: #b0b0b0; stroke-width: 0.8; stroke-linecap: square"/>
     </g>
     <g id="line2d_4">
      <g>
       <use xlink:href="#md4ac3f79c3" x="118.027374" y="242.786449" style="stroke: #000000; stroke-width: 0.8"/>
      </g>
     </g>
     <g id="text_2">
      <!-- $\mathdefault{40}$ -->
      <g transform="translate(112.174384 258.088629) scale(0.12 -0.12)">
       <defs>
        <path id="CMR17-34" d="M 2150 4147 
C 2150 4281 2144 4288 2029 4288 
L 128 1254 
L 128 1088 
L 1779 1088 
L 1779 460 
C 1779 230 1766 166 1318 166 
L 1197 166 
L 1197 0 
C 1402 12 1747 12 1965 12 
C 2182 12 2528 12 2733 0 
L 2733 166 
L 2611 166 
C 2163 166 2150 230 2150 460 
L 2150 1088 
L 2803 1088 
L 2803 1254 
L 2150 1254 
L 2150 4147 
z
M 1798 3723 
L 1798 1254 
L 256 1254 
L 1798 3723 
z
" transform="scale(0.015625)"/>
       </defs>
       <use xlink:href="#CMR17-34" transform="scale(0.996264)"/>
       <use xlink:href="#CMR17-30" transform="translate(45.690477 0) scale(0.996264)"/>
      </g>
     </g>
    </g>
    <g id="xtick_3">
     <g id="line2d_5">
      <path d="M 162.490096 242.786449 
L 162.490096 26.570347 
" clip-path="url(#pdf8c52751b)" style="fill: none; stroke: #b0b0b0; stroke-width: 0.8; stroke-linecap: square"/>
     </g>
     <g id="line2d_6">
      <g>
       <use xlink:href="#md4ac3f79c3" x="162.490096" y="242.786449" style="stroke: #000000; stroke-width: 0.8"/>
      </g>
     </g>
     <g id="text_3">
      <!-- $\mathdefault{80}$ -->
      <g transform="translate(156.637106 258.088629) scale(0.12 -0.12)">
       <defs>
        <path id="CMR17-38" d="M 1741 2289 
C 2144 2494 2554 2803 2554 3298 
C 2554 3884 1990 4224 1472 4224 
C 890 4224 378 3800 378 3215 
C 378 3054 416 2777 666 2533 
C 730 2469 998 2276 1171 2154 
C 883 2006 211 1652 211 945 
C 211 282 838 -128 1459 -128 
C 2144 -128 2720 366 2720 1022 
C 2720 1607 2330 1877 2074 2051 
L 1741 2289 
z
M 902 2855 
C 851 2887 595 3086 595 3388 
C 595 3781 998 4076 1459 4076 
C 1965 4076 2336 3716 2336 3298 
C 2336 2700 1670 2359 1638 2359 
C 1632 2359 1626 2359 1574 2398 
L 902 2855 
z
M 2080 1536 
C 2176 1466 2483 1253 2483 861 
C 2483 385 2010 25 1472 25 
C 890 25 448 443 448 951 
C 448 1459 838 1884 1280 2083 
L 2080 1536 
z
" transform="scale(0.015625)"/>
       </defs>
       <use xlink:href="#CMR17-38" transform="scale(0.996264)"/>
       <use xlink:href="#CMR17-30" transform="translate(45.690477 0) scale(0.996264)"/>
      </g>
     </g>
    </g>
    <g id="xtick_4">
     <g id="line2d_7">
      <path d="M 206.952818 242.786449 
L 206.952818 26.570347 
" clip-path="url(#pdf8c52751b)" style="fill: none; stroke: #b0b0b0; stroke-width: 0.8; stroke-linecap: square"/>
     </g>
     <g id="line2d_8">
      <g>
       <use xlink:href="#md4ac3f79c3" x="206.952818" y="242.786449" style="stroke: #000000; stroke-width: 0.8"/>
      </g>
     </g>
     <g id="text_4">
      <!-- $\mathdefault{120}$ -->
      <g transform="translate(198.173332 258.088629) scale(0.12 -0.12)">
       <defs>
        <path id="CMR17-31" d="M 1702 4083 
C 1702 4217 1696 4224 1606 4224 
C 1357 3927 979 3833 621 3820 
C 602 3820 570 3820 563 3808 
C 557 3795 557 3782 557 3648 
C 755 3648 1088 3686 1344 3839 
L 1344 467 
C 1344 243 1331 166 781 166 
L 589 166 
L 589 0 
C 896 6 1216 12 1523 12 
C 1830 12 2150 6 2458 0 
L 2458 166 
L 2266 166 
C 1715 166 1702 236 1702 467 
L 1702 4083 
z
" transform="scale(0.015625)"/>
        <path id="CMR17-32" d="M 2669 990 
L 2554 990 
C 2490 537 2438 460 2413 422 
C 2381 371 1920 371 1830 371 
L 602 371 
C 832 620 1280 1073 1824 1596 
C 2214 1966 2669 2400 2669 3033 
C 2669 3788 2067 4224 1395 4224 
C 691 4224 262 3603 262 3027 
C 262 2777 448 2745 525 2745 
C 589 2745 781 2783 781 3007 
C 781 3206 614 3264 525 3264 
C 486 3264 448 3257 422 3244 
C 544 3788 915 4057 1306 4057 
C 1862 4057 2227 3616 2227 3033 
C 2227 2477 1901 1998 1536 1583 
L 262 147 
L 262 0 
L 2515 0 
L 2669 990 
z
" transform="scale(0.015625)"/>
       </defs>
       <use xlink:href="#CMR17-31" transform="scale(0.996264)"/>
       <use xlink:href="#CMR17-32" transform="translate(45.690477 0) scale(0.996264)"/>
       <use xlink:href="#CMR17-30" transform="translate(91.380954 0) scale(0.996264)"/>
      </g>
     </g>
    </g>
    <g id="xtick_5">
     <g id="line2d_9">
      <path d="M 251.415539 242.786449 
L 251.415539 26.570347 
" clip-path="url(#pdf8c52751b)" style="fill: none; stroke: #b0b0b0; stroke-width: 0.8; stroke-linecap: square"/>
     </g>
     <g id="line2d_10">
      <g>
       <use xlink:href="#md4ac3f79c3" x="251.415539" y="242.786449" style="stroke: #000000; stroke-width: 0.8"/>
      </g>
     </g>
     <g id="text_5">
      <!-- $\mathdefault{160}$ -->
      <g transform="translate(242.636054 258.088629) scale(0.12 -0.12)">
       <defs>
        <path id="CMR17-36" d="M 678 2198 
C 678 3712 1395 4076 1811 4076 
C 1946 4076 2272 4049 2400 3782 
C 2298 3782 2106 3782 2106 3558 
C 2106 3385 2246 3328 2336 3328 
C 2394 3328 2566 3353 2566 3571 
C 2566 3987 2246 4224 1805 4224 
C 1043 4224 243 3411 243 2011 
C 243 257 966 -128 1478 -128 
C 2099 -128 2688 431 2688 1295 
C 2688 2101 2170 2688 1517 2688 
C 1126 2688 838 2430 678 1979 
L 678 2198 
z
M 1478 25 
C 691 25 691 1212 691 1450 
C 691 1914 909 2585 1504 2585 
C 1613 2585 1926 2585 2138 2140 
C 2253 1889 2253 1624 2253 1302 
C 2253 954 2253 696 2118 438 
C 1978 173 1773 25 1478 25 
z
" transform="scale(0.015625)"/>
       </defs>
       <use xlink:href="#CMR17-31" transform="scale(0.996264)"/>
       <use xlink:href="#CMR17-36" transform="translate(45.690477 0) scale(0.996264)"/>
       <use xlink:href="#CMR17-30" transform="translate(91.380954 0) scale(0.996264)"/>
      </g>
     </g>
    </g>
    <g id="xtick_6">
     <g id="line2d_11">
      <path d="M 295.878261 242.786449 
L 295.878261 26.570347 
" clip-path="url(#pdf8c52751b)" style="fill: none; stroke: #b0b0b0; stroke-width: 0.8; stroke-linecap: square"/>
     </g>
     <g id="line2d_12">
      <g>
       <use xlink:href="#md4ac3f79c3" x="295.878261" y="242.786449" style="stroke: #000000; stroke-width: 0.8"/>
      </g>
     </g>
     <g id="text_6">
      <!-- $\mathdefault{200}$ -->
      <g transform="translate(287.098776 258.088629) scale(0.12 -0.12)">
       <use xlink:href="#CMR17-32" transform="scale(0.996264)"/>
       <use xlink:href="#CMR17-30" transform="translate(45.690477 0) scale(0.996264)"/>
       <use xlink:href="#CMR17-30" transform="translate(91.380954 0) scale(0.996264)"/>
      </g>
     </g>
    </g>
    <g id="xtick_7">
     <g id="line2d_13">
      <path d="M 340.340983 242.786449 
L 340.340983 26.570347 
" clip-path="url(#pdf8c52751b)" style="fill: none; stroke: #b0b0b0; stroke-width: 0.8; stroke-linecap: square"/>
     </g>
     <g id="line2d_14">
      <g>
       <use xlink:href="#md4ac3f79c3" x="340.340983" y="242.786449" style="stroke: #000000; stroke-width: 0.8"/>
      </g>
     </g>
     <g id="text_7">
      <!-- $\mathdefault{240}$ -->
      <g transform="translate(331.561497 258.088629) scale(0.12 -0.12)">
       <use xlink:href="#CMR17-32" transform="scale(0.996264)"/>
       <use xlink:href="#CMR17-34" transform="translate(45.690477 0) scale(0.996264)"/>
       <use xlink:href="#CMR17-30" transform="translate(91.380954 0) scale(0.996264)"/>
      </g>
     </g>
    </g>
    <g id="xtick_8">
     <g id="line2d_15">
      <path d="M 384.803704 242.786449 
L 384.803704 26.570347 
" clip-path="url(#pdf8c52751b)" style="fill: none; stroke: #b0b0b0; stroke-width: 0.8; stroke-linecap: square"/>
     </g>
     <g id="line2d_16">
      <g>
       <use xlink:href="#md4ac3f79c3" x="384.803704" y="242.786449" style="stroke: #000000; stroke-width: 0.8"/>
      </g>
     </g>
     <g id="text_8">
      <!-- $\mathdefault{280}$ -->
      <g transform="translate(376.024219 258.088629) scale(0.12 -0.12)">
       <use xlink:href="#CMR17-32" transform="scale(0.996264)"/>
       <use xlink:href="#CMR17-38" transform="translate(45.690477 0) scale(0.996264)"/>
       <use xlink:href="#CMR17-30" transform="translate(91.380954 0) scale(0.996264)"/>
      </g>
     </g>
    </g>
    <g id="text_9">
     <!-- \textbf{Epoch} -->
     <g transform="translate(219.652755 272.715404) scale(0.12 -0.12)">
      <defs>
       <path id="CMBX12-45" d="M 4518 1753 
L 4250 1753 
C 4115 783 3878 275 2765 275 
L 1766 275 
L 1766 2156 
L 2144 2156 
C 2758 2156 2822 1889 2822 1395 
L 3091 1395 
L 3091 3177 
L 2822 3177 
C 2822 2699 2758 2432 2144 2432 
L 1766 2432 
L 1766 4108 
L 2765 4108 
C 3744 4108 3955 3694 4051 2871 
L 4320 2871 
L 4134 4383 
L 243 4383 
L 243 4108 
L 922 4108 
L 922 275 
L 243 275 
L 243 0 
L 4243 0 
L 4518 1753 
z
" transform="scale(0.015625)"/>
       <path id="CMBX12-70" d="M 1805 -941 
L 1363 -941 
L 1363 237 
C 1523 96 1805 -64 2189 -64 
C 3066 -64 3750 470 3750 1414 
C 3750 2306 3155 2880 2291 2880 
C 1914 2880 1587 2751 1331 2546 
L 1331 2880 
L 224 2828 
L 224 2552 
C 621 2552 666 2552 666 2300 
L 666 -941 
L 224 -941 
L 224 -1216 
C 371 -1204 832 -1204 1011 -1204 
C 1190 -1204 1658 -1204 1805 -1216 
L 1805 -941 
z
M 1363 2235 
C 1600 2546 1939 2649 2189 2649 
C 2605 2649 2982 2268 2982 1414 
C 2982 476 2522 147 2112 147 
C 1837 147 1562 289 1363 593 
L 1363 2235 
z
" transform="scale(0.015625)"/>
       <path id="CMBX12-6f" d="M 3392 1379 
C 3392 2245 2803 2880 1798 2880 
C 755 2880 198 2213 198 1379 
C 198 538 787 -64 1792 -64 
C 2835 -64 3392 570 3392 1379 
z
M 1798 166 
C 966 166 966 917 966 1443 
C 966 1744 966 2065 1088 2296 
C 1229 2553 1517 2668 1792 2668 
C 2157 2668 2387 2495 2496 2315 
C 2624 2084 2624 1751 2624 1443 
C 2624 910 2624 166 1798 166 
z
" transform="scale(0.015625)"/>
       <path id="CMBX12-63" d="M 2995 724 
C 2995 801 2925 801 2861 801 
C 2758 801 2752 795 2720 718 
C 2675 596 2502 166 1914 166 
C 1011 166 1011 1141 1011 1430 
C 1011 1808 1018 2649 1856 2649 
C 1901 2649 2278 2636 2278 2604 
C 2278 2598 2272 2591 2259 2585 
C 2240 2566 2157 2469 2157 2309 
C 2157 2039 2374 1930 2534 1930 
C 2669 1930 2912 2014 2912 2315 
C 2912 2841 2176 2880 1830 2880 
C 691 2880 243 2136 243 1398 
C 243 525 851 -64 1792 -64 
C 2797 -64 2995 679 2995 724 
z
" transform="scale(0.015625)"/>
       <path id="CMBX12-68" d="M 3398 1958 
C 3398 2566 3136 2880 2432 2880 
C 1786 2880 1472 2425 1382 2233 
L 1376 2233 
L 1376 4480 
L 269 4428 
L 269 4153 
C 666 4153 710 4153 710 3896 
L 710 275 
L 269 275 
L 269 0 
C 416 12 877 12 1056 12 
C 1235 12 1702 12 1850 0 
L 1850 275 
L 1408 275 
L 1408 1638 
C 1408 2329 1920 2668 2330 2668 
C 2566 2668 2701 2515 2701 2028 
L 2701 275 
L 2259 275 
L 2259 0 
C 2406 12 2867 12 3046 12 
C 3226 12 3693 12 3840 0 
L 3840 275 
L 3398 275 
L 3398 1958 
z
" transform="scale(0.015625)"/>
      </defs>
      <use xlink:href="#CMBX12-45" transform="scale(0.996264)"/>
      <use xlink:href="#CMBX12-70" transform="translate(73.566746 0) scale(0.996264)"/>
      <use xlink:href="#CMBX12-6f" transform="translate(138.946571 0) scale(0.996264)"/>
      <use xlink:href="#CMBX12-63" transform="translate(198.099747 0) scale(0.996264)"/>
      <use xlink:href="#CMBX12-68" transform="translate(244.799622 0) scale(0.996264)"/>
     </g>
    </g>
   </g>
   <g id="matplotlib.axis_2">
    <g id="ytick_1">
     <g id="line2d_17">
      <path d="M 57.113446 220.819781 
L 419.04 220.819781 
" clip-path="url(#pdf8c52751b)" style="fill: none; stroke: #b0b0b0; stroke-width: 0.8; stroke-linecap: square"/>
     </g>
     <g id="line2d_18">
      <defs>
       <path id="m1b6e721ef2" d="M 0 0 
L -3.5 0 
" style="stroke: #000000; stroke-width: 0.8"/>
      </defs>
      <g>
       <use xlink:href="#m1b6e721ef2" x="57.113446" y="220.819781" style="stroke: #000000; stroke-width: 0.8"/>
      </g>
     </g>
     <g id="text_10">
      <!-- $\mathdefault{10^{-4}}$ -->
      <g transform="translate(27.586776 224.970871) scale(0.12 -0.12)">
       <defs>
        <path id="CMSY10-0" d="M 4218 1472 
C 4326 1472 4442 1472 4442 1600 
C 4442 1728 4326 1728 4218 1728 
L 755 1728 
C 646 1728 531 1728 531 1600 
C 531 1472 646 1472 755 1472 
L 4218 1472 
z
" transform="scale(0.015625)"/>
       </defs>
       <use xlink:href="#CMR17-31" transform="scale(0.996264)"/>
       <use xlink:href="#CMR17-30" transform="translate(45.690477 0) scale(0.996264)"/>
       <use xlink:href="#CMSY10-0" transform="translate(91.380954 36.153639) scale(0.697382)"/>
       <use xlink:href="#CMR17-34" transform="translate(145.621947 36.153639) scale(0.697382)"/>
      </g>
     </g>
    </g>
    <g id="ytick_2">
     <g id="line2d_19">
      <path d="M 57.113446 147.679417 
L 419.04 147.679417 
" clip-path="url(#pdf8c52751b)" style="fill: none; stroke: #b0b0b0; stroke-width: 0.8; stroke-linecap: square"/>
     </g>
     <g id="line2d_20">
      <g>
       <use xlink:href="#m1b6e721ef2" x="57.113446" y="147.679417" style="stroke: #000000; stroke-width: 0.8"/>
      </g>
     </g>
     <g id="text_11">
      <!-- $\mathdefault{10^{-3}}$ -->
      <g transform="translate(27.586776 151.830507) scale(0.12 -0.12)">
       <defs>
        <path id="CMR17-33" d="M 1414 2176 
C 1984 2176 2234 1673 2234 1094 
C 2234 322 1824 25 1453 25 
C 1114 25 563 193 390 691 
C 422 678 454 678 486 678 
C 640 678 755 780 755 947 
C 755 1132 614 1216 486 1216 
C 378 1216 211 1164 211 927 
C 211 335 787 -128 1466 -128 
C 2176 -128 2720 432 2720 1087 
C 2720 1718 2208 2176 1600 2246 
C 2086 2347 2554 2776 2554 3353 
C 2554 3856 2048 4224 1472 4224 
C 890 4224 378 3862 378 3347 
C 378 3123 544 3084 627 3084 
C 762 3084 877 3167 877 3334 
C 877 3500 762 3584 627 3584 
C 602 3584 570 3584 544 3571 
C 730 3999 1235 4076 1459 4076 
C 1683 4076 2106 3966 2106 3347 
C 2106 3167 2080 2851 1862 2574 
C 1670 2329 1453 2316 1242 2297 
C 1210 2297 1062 2284 1037 2284 
C 992 2278 966 2272 966 2227 
C 966 2182 973 2176 1101 2176 
L 1414 2176 
z
" transform="scale(0.015625)"/>
       </defs>
       <use xlink:href="#CMR17-31" transform="scale(0.996264)"/>
       <use xlink:href="#CMR17-30" transform="translate(45.690477 0) scale(0.996264)"/>
       <use xlink:href="#CMSY10-0" transform="translate(91.380954 36.153639) scale(0.697382)"/>
       <use xlink:href="#CMR17-33" transform="translate(145.621947 36.153639) scale(0.697382)"/>
      </g>
     </g>
    </g>
    <g id="ytick_3">
     <g id="line2d_21">
      <path d="M 57.113446 74.539054 
L 419.04 74.539054 
" clip-path="url(#pdf8c52751b)" style="fill: none; stroke: #b0b0b0; stroke-width: 0.8; stroke-linecap: square"/>
     </g>
     <g id="line2d_22">
      <g>
       <use xlink:href="#m1b6e721ef2" x="57.113446" y="74.539054" style="stroke: #000000; stroke-width: 0.8"/>
      </g>
     </g>
     <g id="text_12">
      <!-- $\mathdefault{10^{-2}}$ -->
      <g transform="translate(27.586776 78.690144) scale(0.12 -0.12)">
       <use xlink:href="#CMR17-31" transform="scale(0.996264)"/>
       <use xlink:href="#CMR17-30" transform="translate(45.690477 0) scale(0.996264)"/>
       <use xlink:href="#CMSY10-0" transform="translate(91.380954 36.153639) scale(0.697382)"/>
       <use xlink:href="#CMR17-32" transform="translate(145.621947 36.153639) scale(0.697382)"/>
      </g>
     </g>
    </g>
    <g id="ytick_4">
     <g id="line2d_23">
      <defs>
       <path id="ma494fc30ca" d="M 0 0 
L -2 0 
" style="stroke: #000000; stroke-width: 0.6"/>
      </defs>
      <g>
       <use xlink:href="#ma494fc30ca" x="57.113446" y="237.045879" style="stroke: #000000; stroke-width: 0.6"/>
      </g>
     </g>
    </g>
    <g id="ytick_5">
     <g id="line2d_24">
      <g>
       <use xlink:href="#ma494fc30ca" x="57.113446" y="232.149366" style="stroke: #000000; stroke-width: 0.6"/>
      </g>
     </g>
    </g>
    <g id="ytick_6">
     <g id="line2d_25">
      <g>
       <use xlink:href="#ma494fc30ca" x="57.113446" y="227.907814" style="stroke: #000000; stroke-width: 0.6"/>
      </g>
     </g>
    </g>
    <g id="ytick_7">
     <g id="line2d_26">
      <g>
       <use xlink:href="#ma494fc30ca" x="57.113446" y="224.1665" style="stroke: #000000; stroke-width: 0.6"/>
      </g>
     </g>
    </g>
    <g id="ytick_8">
     <g id="line2d_27">
      <g>
       <use xlink:href="#ma494fc30ca" x="57.113446" y="198.802337" style="stroke: #000000; stroke-width: 0.6"/>
      </g>
     </g>
    </g>
    <g id="ytick_9">
     <g id="line2d_28">
      <g>
       <use xlink:href="#ma494fc30ca" x="57.113446" y="185.922959" style="stroke: #000000; stroke-width: 0.6"/>
      </g>
     </g>
    </g>
    <g id="ytick_10">
     <g id="line2d_29">
      <g>
       <use xlink:href="#ma494fc30ca" x="57.113446" y="176.784894" style="stroke: #000000; stroke-width: 0.6"/>
      </g>
     </g>
    </g>
    <g id="ytick_11">
     <g id="line2d_30">
      <g>
       <use xlink:href="#ma494fc30ca" x="57.113446" y="169.696861" style="stroke: #000000; stroke-width: 0.6"/>
      </g>
     </g>
    </g>
    <g id="ytick_12">
     <g id="line2d_31">
      <g>
       <use xlink:href="#ma494fc30ca" x="57.113446" y="163.905515" style="stroke: #000000; stroke-width: 0.6"/>
      </g>
     </g>
    </g>
    <g id="ytick_13">
     <g id="line2d_32">
      <g>
       <use xlink:href="#ma494fc30ca" x="57.113446" y="159.009003" style="stroke: #000000; stroke-width: 0.6"/>
      </g>
     </g>
    </g>
    <g id="ytick_14">
     <g id="line2d_33">
      <g>
       <use xlink:href="#ma494fc30ca" x="57.113446" y="154.767451" style="stroke: #000000; stroke-width: 0.6"/>
      </g>
     </g>
    </g>
    <g id="ytick_15">
     <g id="line2d_34">
      <g>
       <use xlink:href="#ma494fc30ca" x="57.113446" y="151.026137" style="stroke: #000000; stroke-width: 0.6"/>
      </g>
     </g>
    </g>
    <g id="ytick_16">
     <g id="line2d_35">
      <g>
       <use xlink:href="#ma494fc30ca" x="57.113446" y="125.661974" style="stroke: #000000; stroke-width: 0.6"/>
      </g>
     </g>
    </g>
    <g id="ytick_17">
     <g id="line2d_36">
      <g>
       <use xlink:href="#ma494fc30ca" x="57.113446" y="112.782595" style="stroke: #000000; stroke-width: 0.6"/>
      </g>
     </g>
    </g>
    <g id="ytick_18">
     <g id="line2d_37">
      <g>
       <use xlink:href="#ma494fc30ca" x="57.113446" y="103.644531" style="stroke: #000000; stroke-width: 0.6"/>
      </g>
     </g>
    </g>
    <g id="ytick_19">
     <g id="line2d_38">
      <g>
       <use xlink:href="#ma494fc30ca" x="57.113446" y="96.556497" style="stroke: #000000; stroke-width: 0.6"/>
      </g>
     </g>
    </g>
    <g id="ytick_20">
     <g id="line2d_39">
      <g>
       <use xlink:href="#ma494fc30ca" x="57.113446" y="90.765152" style="stroke: #000000; stroke-width: 0.6"/>
      </g>
     </g>
    </g>
    <g id="ytick_21">
     <g id="line2d_40">
      <g>
       <use xlink:href="#ma494fc30ca" x="57.113446" y="85.86864" style="stroke: #000000; stroke-width: 0.6"/>
      </g>
     </g>
    </g>
    <g id="ytick_22">
     <g id="line2d_41">
      <g>
       <use xlink:href="#ma494fc30ca" x="57.113446" y="81.627088" style="stroke: #000000; stroke-width: 0.6"/>
      </g>
     </g>
    </g>
    <g id="ytick_23">
     <g id="line2d_42">
      <g>
       <use xlink:href="#ma494fc30ca" x="57.113446" y="77.885773" style="stroke: #000000; stroke-width: 0.6"/>
      </g>
     </g>
    </g>
    <g id="ytick_24">
     <g id="line2d_43">
      <g>
       <use xlink:href="#ma494fc30ca" x="57.113446" y="52.521611" style="stroke: #000000; stroke-width: 0.6"/>
      </g>
     </g>
    </g>
    <g id="ytick_25">
     <g id="line2d_44">
      <g>
       <use xlink:href="#ma494fc30ca" x="57.113446" y="39.642232" style="stroke: #000000; stroke-width: 0.6"/>
      </g>
     </g>
    </g>
    <g id="ytick_26">
     <g id="line2d_45">
      <g>
       <use xlink:href="#ma494fc30ca" x="57.113446" y="30.504167" style="stroke: #000000; stroke-width: 0.6"/>
      </g>
     </g>
    </g>
    <g id="text_13">
     <!-- \textbf{MSE Loss} -->
     <g transform="translate(21.26218 164.156767) rotate(-90) scale(0.12 -0.12)">
      <defs>
       <path id="CMBX12-4d" d="M 3411 816 
L 1875 4281 
C 1818 4416 1760 4416 1626 4416 
L 262 4416 
L 262 4140 
L 941 4140 
L 941 468 
C 941 326 934 320 768 294 
C 653 281 525 275 410 275 
L 262 275 
L 262 0 
C 410 12 909 12 1088 12 
C 1267 12 1773 12 1920 0 
L 1920 275 
L 1773 275 
C 1600 275 1587 275 1434 294 
C 1248 320 1242 326 1242 468 
L 1242 4063 
L 1248 4063 
L 2989 134 
C 3021 64 3059 0 3168 0 
C 3277 0 3315 64 3347 134 
L 5120 4140 
L 5126 4140 
L 5126 275 
L 4448 275 
L 4448 0 
C 4621 12 5286 12 5504 12 
C 5722 12 6387 12 6560 0 
L 6560 275 
L 5882 275 
L 5882 4140 
L 6560 4140 
L 6560 4416 
L 5197 4416 
C 5062 4416 5005 4416 4947 4281 
L 3411 816 
z
" transform="scale(0.015625)"/>
       <path id="CMBX12-53" d="M 1626 2828 
C 992 2969 973 3430 973 3520 
C 973 3846 1184 4223 1805 4223 
C 2426 4223 2982 3923 3117 3084 
C 3136 2950 3136 2944 3258 2944 
C 3392 2944 3392 2963 3392 3110 
L 3392 4313 
C 3392 4435 3392 4480 3296 4480 
C 3251 4480 3232 4473 3174 4409 
L 2899 4096 
C 2739 4230 2419 4480 1798 4480 
C 883 4480 397 3904 397 3206 
C 397 2777 627 2476 717 2387 
C 1050 2054 1229 2016 1894 1868 
C 2534 1728 2611 1715 2752 1580 
C 2835 1497 3021 1318 3021 992 
C 3021 716 2886 211 2170 211 
C 1606 211 717 403 666 1337 
C 659 1452 659 1472 531 1472 
C 397 1472 397 1452 397 1305 
L 397 102 
C 397 -20 397 -64 493 -64 
C 538 -64 544 -58 608 0 
C 678 70 736 153 896 313 
C 1267 19 1792 -64 2176 -64 
C 3174 -64 3597 614 3597 1292 
C 3597 1894 3200 2470 2502 2630 
L 1626 2828 
z
" transform="scale(0.015625)"/>
       <path id="CMBX12-4c" d="M 4019 1737 
L 3750 1737 
C 3706 1293 3603 275 2451 275 
L 1766 275 
L 1766 4140 
L 2618 4140 
L 2618 4416 
C 2304 4403 1734 4403 1395 4403 
C 1158 4403 429 4403 243 4416 
L 243 4140 
L 922 4140 
L 922 275 
L 243 275 
L 243 0 
L 3834 0 
L 4019 1737 
z
" transform="scale(0.015625)"/>
       <path id="CMBX12-73" d="M 2413 2713 
C 2413 2835 2413 2880 2317 2880 
C 2278 2880 2266 2880 2170 2822 
C 2144 2803 2074 2758 2042 2739 
C 1862 2841 1626 2880 1395 2880 
C 1203 2880 243 2880 243 2046 
C 243 1372 1037 1231 1235 1199 
C 1408 1167 1619 1128 1645 1128 
C 1901 1071 2157 910 2157 641 
C 2157 147 1574 147 1440 147 
C 1114 147 710 249 531 872 
C 493 1000 486 1006 378 1006 
C 243 1006 243 987 243 840 
L 243 102 
C 243 -20 243 -64 339 -64 
C 384 -64 397 -64 525 38 
L 691 160 
C 979 -64 1325 -64 1440 -64 
C 1792 -64 2592 12 2592 865 
C 2592 1173 2426 1385 2298 1500 
C 2035 1719 1818 1757 1472 1821 
C 1062 1892 678 1962 678 2270 
C 678 2687 1248 2687 1382 2687 
C 2093 2687 2131 2238 2144 2078 
C 2150 1995 2202 1995 2278 1995 
C 2413 1995 2413 2014 2413 2161 
L 2413 2713 
z
" transform="scale(0.015625)"/>
      </defs>
      <use xlink:href="#CMBX12-4d" transform="scale(0.996264)"/>
      <use xlink:href="#CMBX12-53" transform="translate(106.314425 0) scale(0.996264)"/>
      <use xlink:href="#CMBX12-45" transform="translate(168.580926 0) scale(0.996264)"/>
      <use xlink:href="#CMBX12-4c" transform="translate(279.507572 0) scale(0.996264)"/>
      <use xlink:href="#CMBX12-6f" transform="translate(346.847667 0) scale(0.996264)"/>
      <use xlink:href="#CMBX12-73" transform="translate(402.887518 0) scale(0.996264)"/>
      <use xlink:href="#CMBX12-73" transform="translate(447.096855 0) scale(0.996264)"/>
     </g>
    </g>
   </g>
   <g id="line2d_46">
    <path d="M 73.564653 36.398351 
L 74.676221 79.732846 
L 75.787789 111.364217 
L 76.899357 133.170293 
L 78.010925 141.826264 
L 79.122493 146.229736 
L 80.234061 147.989264 
L 81.345629 148.927566 
L 82.457197 150.913869 
L 83.568765 151.835969 
L 84.680333 152.329897 
L 85.791901 152.384781 
L 86.903469 154.518533 
L 88.015037 155.198777 
L 89.126605 156.050507 
L 90.238173 157.853233 
L 91.349741 158.618674 
L 92.461309 160.830128 
L 93.572877 160.538445 
L 94.684445 160.805178 
L 95.796013 163.226243 
L 96.907581 164.93699 
L 98.01915 165.448453 
L 99.130718 166.775262 
L 101.353854 167.825541 
L 103.57699 170.07637 
L 104.688558 171.836884 
L 105.800126 173.277451 
L 106.911694 171.886947 
L 108.023262 171.605149 
L 109.13483 172.235103 
L 110.246398 171.840864 
L 111.357966 173.271096 
L 112.469534 173.842071 
L 113.581102 174.033541 
L 114.69267 176.087657 
L 115.804238 175.437171 
L 116.915806 178.490925 
L 118.027374 178.842333 
L 119.138942 178.851533 
L 120.25051 179.695688 
L 121.362078 178.274545 
L 123.585214 180.486495 
L 124.696783 180.624442 
L 125.808351 179.963043 
L 126.919919 180.168145 
L 128.031487 180.138287 
L 129.143055 182.385312 
L 130.254623 180.179552 
L 131.366191 183.430017 
L 132.477759 183.171815 
L 133.589327 183.806569 
L 134.700895 184.740358 
L 135.812463 185.124788 
L 136.924031 184.168974 
L 138.035599 184.474725 
L 139.147167 183.527904 
L 140.258735 184.726984 
L 141.370303 183.788634 
L 142.481871 184.558411 
L 143.593439 185.061181 
L 144.705007 185.024782 
L 145.816575 185.859248 
L 148.039711 184.856261 
L 149.151279 186.599516 
L 150.262847 187.657459 
L 151.374416 188.04274 
L 152.485984 186.944405 
L 153.597552 187.918667 
L 154.70912 186.719212 
L 155.820688 186.458873 
L 156.932256 187.644867 
L 158.043824 187.310516 
L 159.155392 188.772744 
L 160.26696 188.449377 
L 161.378528 186.739558 
L 162.490096 188.460924 
L 163.601664 189.451544 
L 164.713232 186.042901 
L 165.8248 187.856854 
L 166.936368 188.086508 
L 168.047936 187.59813 
L 169.159504 187.530693 
L 170.271072 188.483693 
L 173.605776 189.055963 
L 174.717344 189.480995 
L 175.828912 188.232269 
L 178.052049 189.681046 
L 179.163617 188.753124 
L 180.275185 188.549971 
L 181.386753 189.962213 
L 182.498321 187.951035 
L 183.609889 188.30271 
L 184.721457 188.907037 
L 185.833025 189.730344 
L 186.944593 188.226813 
L 188.056161 189.46137 
L 189.167729 189.477931 
L 190.279297 189.076025 
L 191.390865 191.423982 
L 192.502433 190.234664 
L 193.614001 189.982961 
L 194.725569 189.59413 
L 195.837137 190.024999 
L 196.948705 190.030859 
L 198.060273 190.514273 
L 199.171841 191.304307 
L 200.283409 189.949022 
L 201.394977 188.776151 
L 202.506545 189.465568 
L 203.618113 191.277001 
L 204.729682 190.493099 
L 205.84125 190.264206 
L 206.952818 190.550501 
L 208.064386 191.384623 
L 209.175954 191.000696 
L 211.39909 190.91011 
L 212.510658 190.312527 
L 213.622226 191.441205 
L 215.845362 189.664598 
L 216.95693 190.427364 
L 218.068498 191.501675 
L 219.180066 190.871796 
L 220.291634 191.659264 
L 221.403202 192.081511 
L 222.51477 191.309488 
L 223.626338 192.344065 
L 224.737906 190.851938 
L 225.849474 191.806648 
L 226.961042 191.094823 
L 228.07261 191.717225 
L 229.184178 191.164501 
L 230.295746 191.369019 
L 231.407315 191.275899 
L 233.630451 190.622865 
L 234.742019 190.820894 
L 235.853587 189.79807 
L 236.965155 190.6567 
L 238.076723 191.784671 
L 239.188291 191.883931 
L 240.299859 190.956482 
L 241.411427 191.285222 
L 242.522995 190.097247 
L 243.634563 190.953916 
L 244.746131 191.558654 
L 245.857699 191.731136 
L 246.969267 191.003988 
L 248.080835 191.499294 
L 249.192403 191.221289 
L 250.303971 191.636784 
L 251.415539 191.451309 
L 252.527107 190.833079 
L 253.638675 190.821686 
L 254.750243 192.469085 
L 255.861811 191.911405 
L 256.973379 190.828534 
L 258.084948 191.346848 
L 259.196516 190.787273 
L 260.308084 190.798135 
L 261.419652 191.659154 
L 262.53122 191.488062 
L 263.642788 191.448384 
L 264.754356 191.602206 
L 266.977492 192.125557 
L 268.08906 191.159924 
L 269.200628 190.672758 
L 270.312196 192.005045 
L 272.535332 192.000347 
L 273.6469 190.768794 
L 274.758468 192.154467 
L 275.870036 190.967276 
L 276.981604 191.333021 
L 278.093172 192.762768 
L 279.20474 192.057997 
L 280.316308 192.548902 
L 281.427876 192.068416 
L 282.539444 191.118019 
L 283.651013 191.942193 
L 284.762581 192.009089 
L 285.874149 190.997793 
L 286.985717 190.405725 
L 288.097285 192.029005 
L 289.208853 191.948298 
L 290.320421 191.651141 
L 291.431989 192.950203 
L 292.543557 190.317173 
L 293.655125 190.391803 
L 294.766693 192.289241 
L 295.878261 191.536878 
L 298.101397 191.883993 
L 299.212965 191.281995 
L 300.324533 189.99603 
L 301.436101 190.691411 
L 302.547669 191.681812 
L 303.659237 191.800986 
L 304.770805 191.213058 
L 305.882373 191.158052 
L 306.993941 191.942266 
L 308.105509 191.150634 
L 309.217077 191.388262 
L 310.328646 192.124176 
L 311.440214 191.864578 
L 312.551782 190.780562 
L 313.66335 192.717564 
L 314.774918 191.641578 
L 315.886486 192.237055 
L 316.998054 191.108291 
L 318.109622 191.197414 
L 320.332758 191.002669 
L 321.444326 190.74446 
L 322.555894 191.764478 
L 323.667462 190.483831 
L 324.77903 191.68342 
L 325.890598 191.269103 
L 327.002166 191.187253 
L 328.113734 191.915102 
L 329.225302 191.998704 
L 330.33687 191.705187 
L 331.448438 192.318236 
L 332.560006 191.59603 
L 333.671574 192.47311 
L 334.783142 191.619141 
L 335.89471 191.73034 
L 338.117847 191.783895 
L 339.229415 190.948559 
L 340.340983 192.012133 
L 341.452551 191.163471 
L 342.564119 191.635862 
L 343.675687 192.712009 
L 344.787255 191.344629 
L 347.010391 192.396934 
L 348.121959 190.608017 
L 349.233527 191.429183 
L 351.456663 192.173618 
L 352.568231 191.04264 
L 353.679799 191.389518 
L 354.791367 192.714047 
L 355.902935 192.300627 
L 357.014503 190.877472 
L 358.126071 192.325513 
L 359.237639 190.968268 
L 360.349207 191.516295 
L 361.460775 190.828037 
L 362.572343 191.619454 
L 363.683912 192.14975 
L 365.907048 191.972141 
L 367.018616 190.996298 
L 368.130184 190.306756 
L 369.241752 191.227668 
L 370.35332 192.636892 
L 371.464888 191.065727 
L 372.576456 191.483911 
L 373.688024 191.520047 
L 374.799592 190.654177 
L 375.91116 191.778491 
L 377.022728 191.359974 
L 378.134296 192.103535 
L 379.245864 192.385058 
L 380.357432 191.347088 
L 381.469 191.375012 
L 382.580568 192.419232 
L 383.692136 192.715901 
L 384.803704 191.101326 
L 385.915272 190.441676 
L 387.02684 191.408692 
L 388.138408 190.483984 
L 389.249976 191.558948 
L 390.361545 191.427535 
L 391.473113 191.819173 
L 392.584681 191.040656 
L 393.696249 191.91344 
L 394.807817 191.132846 
L 395.919385 192.394777 
L 397.030953 192.728824 
L 398.142521 192.121861 
L 399.254089 190.224625 
L 400.365657 190.571669 
L 401.477225 191.574352 
L 402.588793 191.671914 
L 402.588793 191.671914 
" clip-path="url(#pdf8c52751b)" style="fill: none; stroke: #1f77b4; stroke-width: 2; stroke-linecap: square"/>
   </g>
   <g id="line2d_47">
    <path d="M 73.564653 83.904091 
L 75.787789 128.712892 
L 76.899357 158.84581 
L 78.010925 156.763225 
L 79.122493 157.290962 
L 80.234061 162.810138 
L 81.345629 159.451398 
L 82.457197 150.539572 
L 83.568765 158.394486 
L 84.680333 164.451116 
L 85.791901 158.706213 
L 86.903469 159.003395 
L 88.015037 169.907944 
L 89.126605 149.967516 
L 90.238173 170.383346 
L 91.349741 165.753227 
L 92.461309 159.308177 
L 93.572877 166.25302 
L 94.684445 178.693544 
L 95.796013 181.070839 
L 96.907581 175.56151 
L 98.01915 178.343396 
L 99.130718 191.39285 
L 100.242286 188.662743 
L 101.353854 184.774552 
L 102.465422 182.423027 
L 103.57699 196.389098 
L 104.688558 176.638115 
L 105.800126 189.645058 
L 106.911694 169.154509 
L 108.023262 193.290552 
L 109.13483 187.205754 
L 110.246398 187.349799 
L 111.357966 186.899352 
L 112.469534 180.299695 
L 113.581102 183.054885 
L 114.69267 154.798047 
L 115.804238 171.725429 
L 116.915806 206.782816 
L 118.027374 208.499517 
L 119.138942 202.2812 
L 120.25051 203.553906 
L 121.362078 199.950514 
L 122.473646 203.080659 
L 123.585214 205.315241 
L 124.696783 204.179114 
L 125.808351 191.925158 
L 126.919919 198.511863 
L 128.031487 206.3234 
L 129.143055 201.360865 
L 130.254623 201.378914 
L 131.366191 210.327956 
L 132.477759 210.028235 
L 133.589327 208.742142 
L 134.700895 216.731937 
L 135.812463 214.882494 
L 136.924031 219.307789 
L 138.035599 216.273242 
L 139.147167 216.576023 
L 140.258735 214.849554 
L 141.370303 199.672473 
L 142.481871 209.590531 
L 143.593439 217.698171 
L 144.705007 214.601955 
L 145.816575 213.844213 
L 146.928143 217.037603 
L 148.039711 214.26816 
L 149.151279 190.147405 
L 150.262847 220.295086 
L 151.374416 218.102768 
L 152.485984 211.690306 
L 153.597552 223.085305 
L 154.70912 223.976053 
L 155.820688 224.442143 
L 156.932256 223.143403 
L 158.043824 217.257574 
L 159.155392 223.049214 
L 160.26696 219.855811 
L 161.378528 218.957637 
L 162.490096 224.796106 
L 164.713232 221.85119 
L 165.8248 221.969056 
L 166.936368 224.33138 
L 168.047936 224.639525 
L 169.159504 225.371622 
L 170.271072 218.875734 
L 171.38264 227.926934 
L 172.494208 212.29371 
L 173.605776 226.621066 
L 174.717344 219.957872 
L 175.828912 228.52222 
L 176.94048 225.560261 
L 178.052049 213.726051 
L 179.163617 224.693289 
L 180.275185 218.520822 
L 181.386753 226.118739 
L 183.609889 213.234126 
L 184.721457 222.167313 
L 185.833025 210.430508 
L 186.944593 218.251553 
L 188.056161 227.520825 
L 189.167729 231.370538 
L 190.279297 230.589659 
L 191.390865 224.236097 
L 192.502433 227.437449 
L 193.614001 228.920384 
L 194.725569 226.604538 
L 195.837137 223.363443 
L 196.948705 228.262481 
L 198.060273 228.328257 
L 199.171841 221.885866 
L 200.283409 229.621131 
L 201.394977 222.386991 
L 202.506545 229.311094 
L 203.618113 230.5865 
L 204.729682 230.171271 
L 205.84125 225.445214 
L 206.952818 230.342162 
L 208.064386 224.858113 
L 209.175954 225.476517 
L 210.287522 222.856521 
L 211.39909 228.551888 
L 212.510658 230.179393 
L 213.622226 230.749081 
L 214.733794 229.105039 
L 215.845362 230.777473 
L 216.95693 231.301508 
L 218.068498 226.762275 
L 219.180066 225.084051 
L 220.291634 231.973552 
L 221.403202 232.008515 
L 222.51477 229.408619 
L 223.626338 227.703466 
L 224.737906 231.781149 
L 225.849474 231.707611 
L 226.961042 231.828384 
L 228.07261 232.20994 
L 229.184178 230.885344 
L 230.295746 232.197349 
L 231.407315 231.985805 
L 232.518883 226.296262 
L 233.630451 231.178147 
L 234.742019 224.372934 
L 235.853587 224.167984 
L 236.965155 225.03714 
L 238.076723 231.569702 
L 239.188291 229.572552 
L 240.299859 227.124831 
L 241.411427 229.219407 
L 242.522995 227.950025 
L 243.634563 230.206117 
L 244.746131 231.993309 
L 245.857699 216.566957 
L 246.969267 232.000971 
L 248.080835 231.455001 
L 249.192403 232.068583 
L 250.303971 229.223543 
L 251.415539 231.993419 
L 252.527107 232.121756 
L 253.638675 229.91994 
L 254.750243 232.147774 
L 255.861811 229.56194 
L 256.973379 226.040715 
L 258.084948 228.878934 
L 259.196516 230.955517 
L 260.308084 225.889791 
L 261.419652 216.67004 
L 262.53122 220.525438 
L 263.642788 231.731743 
L 264.754356 231.084814 
L 265.865924 231.799689 
L 266.977492 227.682377 
L 268.08906 229.822464 
L 269.200628 230.971332 
L 270.312196 228.025548 
L 271.423764 232.20473 
L 272.535332 227.745279 
L 273.6469 231.623138 
L 274.758468 232.362381 
L 275.870036 231.315402 
L 276.981604 231.917924 
L 278.093172 225.751359 
L 279.20474 229.715914 
L 280.316308 231.479169 
L 281.427876 222.306488 
L 282.539444 231.966757 
L 283.651013 228.836561 
L 284.762581 228.47504 
L 285.874149 229.570167 
L 286.985717 228.504388 
L 288.097285 231.803313 
L 289.208853 226.555972 
L 290.320421 231.959286 
L 291.431989 232.958444 
L 293.655125 230.895674 
L 294.766693 232.286633 
L 295.878261 225.163921 
L 296.989829 224.799743 
L 298.101397 231.165965 
L 299.212965 220.553687 
L 300.324533 230.136128 
L 301.436101 230.665791 
L 302.547669 232.565778 
L 303.659237 231.82702 
L 304.770805 229.408355 
L 305.882373 231.827579 
L 306.993941 223.732273 
L 308.105509 229.683979 
L 309.217077 232.107073 
L 310.328646 232.303585 
L 311.440214 231.723144 
L 312.551782 230.721494 
L 313.66335 232.588796 
L 314.774918 230.333158 
L 315.886486 229.974706 
L 316.998054 228.913952 
L 318.109622 231.983718 
L 319.22119 224.103362 
L 320.332758 232.862468 
L 321.444326 221.974522 
L 322.555894 232.375537 
L 323.667462 231.72038 
L 324.77903 232.261327 
L 325.890598 232.284782 
L 327.002166 229.326334 
L 328.113734 219.901021 
L 329.225302 228.727797 
L 331.448438 230.868096 
L 332.560006 227.609663 
L 333.671574 232.642278 
L 334.783142 231.052642 
L 335.89471 227.698603 
L 337.006279 231.428589 
L 338.117847 215.837005 
L 339.229415 232.269333 
L 340.340983 230.886369 
L 341.452551 232.329687 
L 342.564119 231.068238 
L 343.675687 230.602554 
L 344.787255 230.468665 
L 345.898823 229.880676 
L 347.010391 230.639445 
L 348.121959 232.464914 
L 349.233527 232.636796 
L 350.345095 228.83722 
L 351.456663 228.765409 
L 352.568231 229.803886 
L 353.679799 232.639807 
L 354.791367 219.421596 
L 355.902935 229.194785 
L 357.014503 231.547353 
L 358.126071 226.922967 
L 359.237639 232.250915 
L 360.349207 232.633036 
L 361.460775 231.608392 
L 362.572343 229.796053 
L 363.683912 232.148587 
L 364.79548 228.765933 
L 365.907048 232.186844 
L 367.018616 232.630319 
L 368.130184 230.777932 
L 369.241752 230.633461 
L 370.35332 227.825817 
L 371.464888 231.187838 
L 372.576456 226.509953 
L 373.688024 228.98937 
L 374.799592 226.620699 
L 375.91116 225.833651 
L 377.022728 223.483262 
L 378.134296 227.202276 
L 379.245864 231.494129 
L 380.357432 232.409747 
L 381.469 227.667932 
L 382.580568 225.46348 
L 383.692136 230.66928 
L 384.803704 232.368737 
L 387.02684 231.861513 
L 388.138408 227.557873 
L 389.249976 230.340699 
L 390.361545 231.278665 
L 391.473113 225.809197 
L 392.584681 231.140227 
L 393.696249 230.45857 
L 394.807817 227.934695 
L 395.919385 232.007955 
L 397.030953 232.06977 
L 398.142521 228.246322 
L 399.254089 229.714846 
L 400.365657 227.385775 
L 401.477225 232.225281 
L 402.588793 232.270421 
L 402.588793 232.270421 
" clip-path="url(#pdf8c52751b)" style="fill: none; stroke: #ff7f0e; stroke-width: 2; stroke-linecap: square"/>
   </g>
   <g id="patch_3">
    <path d="M 57.113446 242.786449 
L 57.113446 26.570347 
" style="fill: none; stroke: #000000; stroke-width: 0.8; stroke-linejoin: miter; stroke-linecap: square"/>
   </g>
   <g id="patch_4">
    <path d="M 419.04 242.786449 
L 419.04 26.570347 
" style="fill: none; stroke: #000000; stroke-width: 0.8; stroke-linejoin: miter; stroke-linecap: square"/>
   </g>
   <g id="patch_5">
    <path d="M 57.113446 242.786449 
L 419.04 242.786449 
" style="fill: none; stroke: #000000; stroke-width: 0.8; stroke-linejoin: miter; stroke-linecap: square"/>
   </g>
   <g id="patch_6">
    <path d="M 57.113446 26.570347 
L 419.04 26.570347 
" style="fill: none; stroke: #000000; stroke-width: 0.8; stroke-linejoin: miter; stroke-linecap: square"/>
   </g>
   <g id="text_14">
    <!-- \textbf{Loss evolution over epochs} -->
    <g transform="translate(164.459971 20.570347) scale(0.11 -0.11)">
     <defs>
      <path id="CMBX12-65" d="M 2893 1408 
C 3040 1408 3078 1408 3078 1568 
C 3078 1758 3034 2232 2739 2529 
C 2470 2796 2112 2880 1741 2880 
C 742 2880 198 2232 198 1433 
C 198 523 858 -64 1824 -64 
C 2790 -64 3078 621 3078 731 
C 3078 829 2982 829 2944 829 
C 2842 829 2835 809 2797 725 
C 2630 302 2208 166 1901 166 
C 973 166 966 1043 966 1408 
L 2893 1408 
z
M 966 1593 
C 979 1852 986 2099 1120 2327 
C 1242 2529 1466 2668 1741 2668 
C 2426 2668 2483 1909 2490 1593 
L 966 1593 
z
" transform="scale(0.015625)"/>
      <path id="CMBX12-76" d="M 3168 2393 
C 3213 2489 3238 2540 3642 2540 
L 3642 2816 
C 3411 2803 3398 2803 3136 2803 
C 2963 2803 2950 2803 2586 2816 
L 2586 2540 
C 2758 2540 2899 2508 2899 2463 
C 2899 2457 2899 2451 2867 2386 
L 2118 737 
L 1293 2540 
L 1645 2540 
L 1645 2816 
C 1498 2803 1050 2803 877 2803 
C 691 2803 320 2803 154 2816 
L 154 2540 
L 557 2540 
L 1683 89 
C 1741 -32 1754 -64 1901 -64 
C 2003 -64 2054 -52 2112 76 
L 3168 2393 
z
" transform="scale(0.015625)"/>
      <path id="CMBX12-6c" d="M 1389 4480 
L 282 4428 
L 282 4153 
C 678 4153 723 4153 723 3901 
L 723 275 
L 282 275 
L 282 0 
C 429 12 883 12 1056 12 
C 1229 12 1683 12 1830 0 
L 1830 275 
L 1389 275 
L 1389 4480 
z
" transform="scale(0.015625)"/>
      <path id="CMBX12-75" d="M 2259 2828 
L 2259 2553 
C 2656 2553 2701 2553 2701 2301 
L 2701 1033 
C 2701 541 2413 147 1914 147 
C 1434 147 1408 308 1408 664 
L 1408 2880 
L 269 2828 
L 269 2553 
C 666 2553 710 2553 710 2301 
L 710 768 
C 710 121 1139 -64 1824 -64 
C 1978 -64 2451 -64 2726 457 
L 2733 457 
L 2733 -64 
L 3840 -26 
L 3840 250 
C 3443 250 3398 250 3398 502 
L 3398 2880 
L 2259 2828 
z
" transform="scale(0.015625)"/>
      <path id="CMBX12-74" d="M 1350 2540 
L 2272 2540 
L 2272 2816 
L 1350 2816 
L 1350 4032 
L 1082 4032 
C 1075 3401 768 2771 134 2751 
L 134 2540 
L 653 2540 
L 653 761 
C 653 83 1178 -64 1638 -64 
C 2112 -64 2394 294 2394 768 
L 2394 1107 
L 2125 1107 
L 2125 774 
C 2125 352 1933 166 1734 166 
C 1350 166 1350 595 1350 742 
L 1350 2540 
z
" transform="scale(0.015625)"/>
      <path id="CMBX12-69" d="M 1427 4019 
C 1427 4281 1216 4480 966 4480 
C 704 4480 506 4262 506 4019 
C 506 3775 704 3558 966 3558 
C 1216 3558 1427 3756 1427 4019 
z
M 301 2828 
L 301 2553 
C 678 2553 723 2553 723 2303 
L 723 275 
L 282 275 
L 282 0 
C 429 12 870 12 1043 12 
C 1222 12 1632 12 1786 0 
L 1786 275 
L 1389 275 
L 1389 2880 
L 301 2828 
z
" transform="scale(0.015625)"/>
      <path id="CMBX12-6e" d="M 3398 1958 
C 3398 2566 3136 2880 2432 2880 
C 1971 2880 1574 2656 1357 2176 
L 1350 2176 
L 1350 2880 
L 269 2828 
L 269 2553 
C 666 2553 710 2553 710 2304 
L 710 275 
L 269 275 
L 269 0 
C 416 12 877 12 1056 12 
C 1235 12 1702 12 1850 0 
L 1850 275 
L 1408 275 
L 1408 1638 
C 1408 2329 1920 2668 2330 2668 
C 2566 2668 2701 2515 2701 2028 
L 2701 275 
L 2259 275 
L 2259 0 
C 2406 12 2867 12 3046 12 
C 3226 12 3693 12 3840 0 
L 3840 275 
L 3398 275 
L 3398 1958 
z
" transform="scale(0.015625)"/>
      <path id="CMBX12-72" d="M 1331 1440 
C 1331 1651 1376 2668 2125 2668 
C 2035 2598 1990 2489 1990 2374 
C 1990 2112 2202 2003 2362 2003 
C 2522 2003 2733 2112 2733 2374 
C 2733 2700 2400 2880 2093 2880 
C 1587 2880 1370 2438 1280 2169 
L 1274 2169 
L 1274 2880 
L 224 2828 
L 224 2553 
C 621 2553 666 2553 666 2304 
L 666 275 
L 224 275 
L 224 0 
C 371 12 851 12 1030 12 
C 1216 12 1734 12 1888 0 
L 1888 275 
L 1331 275 
L 1331 1440 
z
" transform="scale(0.015625)"/>
     </defs>
     <use xlink:href="#CMBX12-4c" transform="scale(0.996264)"/>
     <use xlink:href="#CMBX12-6f" transform="translate(67.340095 0) scale(0.996264)"/>
     <use xlink:href="#CMBX12-73" transform="translate(123.379946 0) scale(0.996264)"/>
     <use xlink:href="#CMBX12-73" transform="translate(167.589283 0) scale(0.996264)"/>
     <use xlink:href="#CMBX12-65" transform="translate(249.158521 0) scale(0.996264)"/>
     <use xlink:href="#CMBX12-76" transform="translate(300.297788 0) scale(0.996264)"/>
     <use xlink:href="#CMBX12-6f" transform="translate(356.337638 0) scale(0.996264)"/>
     <use xlink:href="#CMBX12-6c" transform="translate(412.377489 0) scale(0.996264)"/>
     <use xlink:href="#CMBX12-75" transform="translate(443.510739 0) scale(0.996264)"/>
     <use xlink:href="#CMBX12-74" transform="translate(505.77724 0) scale(0.996264)"/>
     <use xlink:href="#CMBX12-69" transform="translate(549.36379 0) scale(0.996264)"/>
     <use xlink:href="#CMBX12-6f" transform="translate(580.497041 0) scale(0.996264)"/>
     <use xlink:href="#CMBX12-6e" transform="translate(636.536891 0) scale(0.996264)"/>
     <use xlink:href="#CMBX12-6f" transform="translate(736.163292 0) scale(0.996264)"/>
     <use xlink:href="#CMBX12-76" transform="translate(789.089818 0) scale(0.996264)"/>
     <use xlink:href="#CMBX12-65" transform="translate(845.129668 0) scale(0.996264)"/>
     <use xlink:href="#CMBX12-72" transform="translate(896.268935 0) scale(0.996264)"/>
     <use xlink:href="#CMBX12-65" transform="translate(979.406343 0) scale(0.996264)"/>
     <use xlink:href="#CMBX12-70" transform="translate(1030.54561 0) scale(0.996264)"/>
     <use xlink:href="#CMBX12-6f" transform="translate(1095.925436 0) scale(0.996264)"/>
     <use xlink:href="#CMBX12-63" transform="translate(1155.078611 0) scale(0.996264)"/>
     <use xlink:href="#CMBX12-68" transform="translate(1201.778487 0) scale(0.996264)"/>
     <use xlink:href="#CMBX12-73" transform="translate(1264.044988 0) scale(0.996264)"/>
    </g>
   </g>
   <g id="legend_1">
    <g id="patch_7">
     <path d="M 282.122359 69.619538 
L 410.64 69.619538 
Q 413.04 69.619538 413.04 67.219538 
L 413.04 34.970347 
Q 413.04 32.570347 410.64 32.570347 
L 282.122359 32.570347 
Q 279.722359 32.570347 279.722359 34.970347 
L 279.722359 67.219538 
Q 279.722359 69.619538 282.122359 69.619538 
z
" style="fill: #ffffff; opacity: 0.8; stroke: #cccccc; stroke-linejoin: miter"/>
    </g>
    <g id="line2d_48">
     <path d="M 284.522359 41.570347 
L 296.522359 41.570347 
L 308.522359 41.570347 
" style="fill: none; stroke: #1f77b4; stroke-width: 2; stroke-linecap: square"/>
    </g>
    <g id="text_15">
     <!-- \textbf{Train Loss} -->
     <g transform="translate(318.122359 45.770347) scale(0.12 -0.12)">
      <defs>
       <path id="CMBX12-54" d="M 4608 4358 
L 390 4358 
L 262 2833 
L 531 2833 
C 589 3535 640 4083 1562 4083 
L 2080 4083 
L 2080 275 
L 1114 275 
L 1114 0 
C 1626 12 2285 12 2502 12 
C 2893 12 3379 12 3891 0 
L 3891 275 
L 2925 275 
L 2925 4083 
L 3437 4083 
C 4358 4083 4410 3542 4467 2833 
L 4736 2833 
L 4608 4358 
z
" transform="scale(0.015625)"/>
       <path id="CMBX12-61" d="M 2944 1894 
C 2944 2483 2477 2880 1574 2880 
C 1216 2880 461 2847 461 2310 
C 461 2041 666 1926 838 1926 
C 1030 1926 1216 2060 1216 2303 
C 1216 2425 1171 2540 1062 2611 
C 1274 2668 1427 2668 1549 2668 
C 1984 2668 2246 2425 2246 1900 
L 2246 1644 
C 1235 1644 218 1362 218 648 
C 218 64 960 -64 1402 -64 
C 1894 -64 2208 205 2336 488 
C 2336 250 2336 -26 2982 -26 
L 3309 -26 
C 3443 -26 3494 -26 3494 115 
C 3494 250 3437 250 3347 250 
C 2944 256 2944 359 2944 507 
L 2944 1894 
z
M 2246 867 
C 2246 262 1709 147 1504 147 
C 1190 147 928 359 928 655 
C 928 1240 1619 1439 2246 1472 
L 2246 867 
z
" transform="scale(0.015625)"/>
      </defs>
      <use xlink:href="#CMBX12-54" transform="scale(0.996264)"/>
      <use xlink:href="#CMBX12-72" transform="translate(68.608395 0) scale(0.996264)"/>
      <use xlink:href="#CMBX12-61" transform="translate(114.385903 0) scale(0.996264)"/>
      <use xlink:href="#CMBX12-69" transform="translate(168.869091 0) scale(0.996264)"/>
      <use xlink:href="#CMBX12-6e" transform="translate(200.002341 0) scale(0.996264)"/>
      <use xlink:href="#CMBX12-4c" transform="translate(299.628742 0) scale(0.996264)"/>
      <use xlink:href="#CMBX12-6f" transform="translate(366.968838 0) scale(0.996264)"/>
      <use xlink:href="#CMBX12-73" transform="translate(423.008688 0) scale(0.996264)"/>
      <use xlink:href="#CMBX12-73" transform="translate(467.218025 0) scale(0.996264)"/>
     </g>
    </g>
    <g id="line2d_49">
     <path d="M 284.522359 58.294942 
L 296.522359 58.294942 
L 308.522359 58.294942 
" style="fill: none; stroke: #ff7f0e; stroke-width: 2; stroke-linecap: square"/>
    </g>
    <g id="text_16">
     <!-- \textbf{Validation Loss} -->
     <g transform="translate(318.122359 62.494942) scale(0.12 -0.12)">
      <defs>
       <path id="CMBX12-56" d="M 4634 3992 
C 4672 4075 4698 4140 5171 4140 
L 5280 4140 
L 5280 4416 
C 5082 4403 4621 4403 4570 4403 
C 4390 4403 3936 4403 3789 4416 
L 3789 4140 
C 3930 4140 4166 4140 4346 4069 
L 4314 3979 
L 3002 960 
L 1619 4140 
L 2214 4140 
L 2214 4416 
C 2010 4403 1395 4403 1152 4403 
C 947 4403 314 4403 154 4416 
L 154 4140 
L 730 4140 
L 2496 70 
C 2554 -58 2611 -64 2714 -64 
C 2816 -64 2880 -64 2938 70 
L 4634 3992 
z
" transform="scale(0.015625)"/>
       <path id="CMBX12-64" d="M 2221 4428 
L 2221 4153 
C 2618 4153 2662 4153 2662 3896 
L 2662 2571 
C 2522 2694 2240 2880 1798 2880 
C 890 2880 243 2313 243 1408 
C 243 483 877 -64 1728 -64 
C 2080 -64 2381 57 2630 270 
L 2630 -64 
L 3770 -26 
L 3770 250 
C 3373 250 3328 250 3328 502 
L 3328 4480 
L 2221 4428 
z
M 2630 625 
C 2362 231 2035 147 1805 147 
C 1011 147 1011 968 1011 1395 
C 1011 1699 1011 2022 1152 2268 
C 1350 2630 1728 2668 1875 2668 
C 2138 2668 2419 2552 2630 2268 
L 2630 625 
z
" transform="scale(0.015625)"/>
      </defs>
      <use xlink:href="#CMBX12-56" transform="scale(0.996264)"/>
      <use xlink:href="#CMBX12-61" transform="translate(75.29642 0) scale(0.996264)"/>
      <use xlink:href="#CMBX12-6c" transform="translate(129.779608 0) scale(0.996264)"/>
      <use xlink:href="#CMBX12-69" transform="translate(160.912858 0) scale(0.996264)"/>
      <use xlink:href="#CMBX12-64" transform="translate(192.046108 0) scale(0.996264)"/>
      <use xlink:href="#CMBX12-61" transform="translate(254.312609 0) scale(0.996264)"/>
      <use xlink:href="#CMBX12-74" transform="translate(308.795797 0) scale(0.996264)"/>
      <use xlink:href="#CMBX12-69" transform="translate(352.382347 0) scale(0.996264)"/>
      <use xlink:href="#CMBX12-6f" transform="translate(383.515598 0) scale(0.996264)"/>
      <use xlink:href="#CMBX12-6e" transform="translate(439.555448 0) scale(0.996264)"/>
      <use xlink:href="#CMBX12-4c" transform="translate(539.181849 0) scale(0.996264)"/>
      <use xlink:href="#CMBX12-6f" transform="translate(606.521945 0) scale(0.996264)"/>
      <use xlink:href="#CMBX12-73" transform="translate(662.561795 0) scale(0.996264)"/>
      <use xlink:href="#CMBX12-73" transform="translate(706.771132 0) scale(0.996264)"/>
     </g>
    </g>
   </g>
  </g>
 </g>
 <defs>
  <clipPath id="pdf8c52751b">
   <rect x="57.113446" y="26.570347" width="361.926554" height="216.216102"/>
  </clipPath>
 </defs>
</svg>
