<?xml version="1.0" encoding="utf-8" standalone="no"?>
<!DOCTYPE svg PUBLIC "-//W3C//DTD SVG 1.1//EN"
  "http://www.w3.org/Graphics/SVG/1.1/DTD/svg11.dtd">
<svg xmlns:xlink="http://www.w3.org/1999/xlink" width="576pt" height="360pt" viewBox="0 0 576 360" xmlns="http://www.w3.org/2000/svg" version="1.1">
 <metadata>
  <rdf:RDF xmlns:dc="http://purl.org/dc/elements/1.1/" xmlns:cc="http://creativecommons.org/ns#" xmlns:rdf="http://www.w3.org/1999/02/22-rdf-syntax-ns#">
   <cc:Work>
    <dc:type rdf:resource="http://purl.org/dc/dcmitype/StillImage"/>
    <dc:date>2025-05-13T09:42:15.312883</dc:date>
    <dc:format>image/svg+xml</dc:format>
    <dc:creator>
     <cc:Agent>
      <dc:title>Matplotlib v3.10.1, https://matplotlib.org/</dc:title>
     </cc:Agent>
    </dc:creator>
   </cc:Work>
  </rdf:RDF>
 </metadata>
 <defs>
  <style type="text/css">*{stroke-linejoin: round; stroke-linecap: butt}</style>
 </defs>
 <g id="figure_1">
  <g id="patch_1">
   <path d="M 0 360 
L 576 360 
L 576 0 
L 0 0 
z
" style="fill: #ffffff"/>
  </g>
  <g id="axes_1">
   <g id="patch_2">
    <path d="M 56.015346 318.04 
L 558.996818 318.04 
L 558.996818 27.6 
L 56.015346 27.6 
z
" style="fill: #ffffff"/>
   </g>
   <g id="matplotlib.axis_1">
    <g id="xtick_1">
     <g id="line2d_1">
      <path d="M 78.87814 318.04 
L 78.87814 27.6 
" clip-path="url(#pe4508a86f9)" style="fill: none; stroke: #b0b0b0; stroke-width: 0.8; stroke-linecap: square"/>
     </g>
     <g id="line2d_2">
      <defs>
       <path id="m427e13bb42" d="M 0 0 
L 0 3.5 
" style="stroke: #000000; stroke-width: 0.8"/>
      </defs>
      <g>
       <use xlink:href="#m427e13bb42" x="78.87814" y="318.04" style="stroke: #000000; stroke-width: 0.8"/>
      </g>
     </g>
     <g id="text_1">
      <!-- 0 -->
      <g transform="translate(75.69689 332.638438) scale(0.1 -0.1)">
       <defs>
        <path id="DejaVuSans-30" d="M 2034 4250 
Q 1547 4250 1301 3770 
Q 1056 3291 1056 2328 
Q 1056 1369 1301 889 
Q 1547 409 2034 409 
Q 2525 409 2770 889 
Q 3016 1369 3016 2328 
Q 3016 3291 2770 3770 
Q 2525 4250 2034 4250 
z
M 2034 4750 
Q 2819 4750 3233 4129 
Q 3647 3509 3647 2328 
Q 3647 1150 3233 529 
Q 2819 -91 2034 -91 
Q 1250 -91 836 529 
Q 422 1150 422 2328 
Q 422 3509 836 4129 
Q 1250 4750 2034 4750 
z
" transform="scale(0.015625)"/>
       </defs>
       <use xlink:href="#DejaVuSans-30"/>
      </g>
     </g>
    </g>
    <g id="xtick_2">
     <g id="line2d_3">
      <path d="M 138.416667 318.04 
L 138.416667 27.6 
" clip-path="url(#pe4508a86f9)" style="fill: none; stroke: #b0b0b0; stroke-width: 0.8; stroke-linecap: square"/>
     </g>
     <g id="line2d_4">
      <g>
       <use xlink:href="#m427e13bb42" x="138.416667" y="318.04" style="stroke: #000000; stroke-width: 0.8"/>
      </g>
     </g>
     <g id="text_2">
      <!-- 25 -->
      <g transform="translate(132.054167 332.638438) scale(0.1 -0.1)">
       <defs>
        <path id="DejaVuSans-32" d="M 1228 531 
L 3431 531 
L 3431 0 
L 469 0 
L 469 531 
Q 828 903 1448 1529 
Q 2069 2156 2228 2338 
Q 2531 2678 2651 2914 
Q 2772 3150 2772 3378 
Q 2772 3750 2511 3984 
Q 2250 4219 1831 4219 
Q 1534 4219 1204 4116 
Q 875 4013 500 3803 
L 500 4441 
Q 881 4594 1212 4672 
Q 1544 4750 1819 4750 
Q 2544 4750 2975 4387 
Q 3406 4025 3406 3419 
Q 3406 3131 3298 2873 
Q 3191 2616 2906 2266 
Q 2828 2175 2409 1742 
Q 1991 1309 1228 531 
z
" transform="scale(0.015625)"/>
        <path id="DejaVuSans-35" d="M 691 4666 
L 3169 4666 
L 3169 4134 
L 1269 4134 
L 1269 2991 
Q 1406 3038 1543 3061 
Q 1681 3084 1819 3084 
Q 2600 3084 3056 2656 
Q 3513 2228 3513 1497 
Q 3513 744 3044 326 
Q 2575 -91 1722 -91 
Q 1428 -91 1123 -41 
Q 819 9 494 109 
L 494 744 
Q 775 591 1075 516 
Q 1375 441 1709 441 
Q 2250 441 2565 725 
Q 2881 1009 2881 1497 
Q 2881 1984 2565 2268 
Q 2250 2553 1709 2553 
Q 1456 2553 1204 2497 
Q 953 2441 691 2322 
L 691 4666 
z
" transform="scale(0.015625)"/>
       </defs>
       <use xlink:href="#DejaVuSans-32"/>
       <use xlink:href="#DejaVuSans-35" transform="translate(63.623047 0)"/>
      </g>
     </g>
    </g>
    <g id="xtick_3">
     <g id="line2d_5">
      <path d="M 197.955193 318.04 
L 197.955193 27.6 
" clip-path="url(#pe4508a86f9)" style="fill: none; stroke: #b0b0b0; stroke-width: 0.8; stroke-linecap: square"/>
     </g>
     <g id="line2d_6">
      <g>
       <use xlink:href="#m427e13bb42" x="197.955193" y="318.04" style="stroke: #000000; stroke-width: 0.8"/>
      </g>
     </g>
     <g id="text_3">
      <!-- 50 -->
      <g transform="translate(191.592693 332.638438) scale(0.1 -0.1)">
       <use xlink:href="#DejaVuSans-35"/>
       <use xlink:href="#DejaVuSans-30" transform="translate(63.623047 0)"/>
      </g>
     </g>
    </g>
    <g id="xtick_4">
     <g id="line2d_7">
      <path d="M 257.49372 318.04 
L 257.49372 27.6 
" clip-path="url(#pe4508a86f9)" style="fill: none; stroke: #b0b0b0; stroke-width: 0.8; stroke-linecap: square"/>
     </g>
     <g id="line2d_8">
      <g>
       <use xlink:href="#m427e13bb42" x="257.49372" y="318.04" style="stroke: #000000; stroke-width: 0.8"/>
      </g>
     </g>
     <g id="text_4">
      <!-- 75 -->
      <g transform="translate(251.13122 332.638438) scale(0.1 -0.1)">
       <defs>
        <path id="DejaVuSans-37" d="M 525 4666 
L 3525 4666 
L 3525 4397 
L 1831 0 
L 1172 0 
L 2766 4134 
L 525 4134 
L 525 4666 
z
" transform="scale(0.015625)"/>
       </defs>
       <use xlink:href="#DejaVuSans-37"/>
       <use xlink:href="#DejaVuSans-35" transform="translate(63.623047 0)"/>
      </g>
     </g>
    </g>
    <g id="xtick_5">
     <g id="line2d_9">
      <path d="M 317.032246 318.04 
L 317.032246 27.6 
" clip-path="url(#pe4508a86f9)" style="fill: none; stroke: #b0b0b0; stroke-width: 0.8; stroke-linecap: square"/>
     </g>
     <g id="line2d_10">
      <g>
       <use xlink:href="#m427e13bb42" x="317.032246" y="318.04" style="stroke: #000000; stroke-width: 0.8"/>
      </g>
     </g>
     <g id="text_5">
      <!-- 100 -->
      <g transform="translate(307.488496 332.638438) scale(0.1 -0.1)">
       <defs>
        <path id="DejaVuSans-31" d="M 794 531 
L 1825 531 
L 1825 4091 
L 703 3866 
L 703 4441 
L 1819 4666 
L 2450 4666 
L 2450 531 
L 3481 531 
L 3481 0 
L 794 0 
L 794 531 
z
" transform="scale(0.015625)"/>
       </defs>
       <use xlink:href="#DejaVuSans-31"/>
       <use xlink:href="#DejaVuSans-30" transform="translate(63.623047 0)"/>
       <use xlink:href="#DejaVuSans-30" transform="translate(127.246094 0)"/>
      </g>
     </g>
    </g>
    <g id="xtick_6">
     <g id="line2d_11">
      <path d="M 376.570773 318.04 
L 376.570773 27.6 
" clip-path="url(#pe4508a86f9)" style="fill: none; stroke: #b0b0b0; stroke-width: 0.8; stroke-linecap: square"/>
     </g>
     <g id="line2d_12">
      <g>
       <use xlink:href="#m427e13bb42" x="376.570773" y="318.04" style="stroke: #000000; stroke-width: 0.8"/>
      </g>
     </g>
     <g id="text_6">
      <!-- 125 -->
      <g transform="translate(367.027023 332.638438) scale(0.1 -0.1)">
       <use xlink:href="#DejaVuSans-31"/>
       <use xlink:href="#DejaVuSans-32" transform="translate(63.623047 0)"/>
       <use xlink:href="#DejaVuSans-35" transform="translate(127.246094 0)"/>
      </g>
     </g>
    </g>
    <g id="xtick_7">
     <g id="line2d_13">
      <path d="M 436.109299 318.04 
L 436.109299 27.6 
" clip-path="url(#pe4508a86f9)" style="fill: none; stroke: #b0b0b0; stroke-width: 0.8; stroke-linecap: square"/>
     </g>
     <g id="line2d_14">
      <g>
       <use xlink:href="#m427e13bb42" x="436.109299" y="318.04" style="stroke: #000000; stroke-width: 0.8"/>
      </g>
     </g>
     <g id="text_7">
      <!-- 150 -->
      <g transform="translate(426.565549 332.638438) scale(0.1 -0.1)">
       <use xlink:href="#DejaVuSans-31"/>
       <use xlink:href="#DejaVuSans-35" transform="translate(63.623047 0)"/>
       <use xlink:href="#DejaVuSans-30" transform="translate(127.246094 0)"/>
      </g>
     </g>
    </g>
    <g id="xtick_8">
     <g id="line2d_15">
      <path d="M 495.647826 318.04 
L 495.647826 27.6 
" clip-path="url(#pe4508a86f9)" style="fill: none; stroke: #b0b0b0; stroke-width: 0.8; stroke-linecap: square"/>
     </g>
     <g id="line2d_16">
      <g>
       <use xlink:href="#m427e13bb42" x="495.647826" y="318.04" style="stroke: #000000; stroke-width: 0.8"/>
      </g>
     </g>
     <g id="text_8">
      <!-- 175 -->
      <g transform="translate(486.104076 332.638438) scale(0.1 -0.1)">
       <use xlink:href="#DejaVuSans-31"/>
       <use xlink:href="#DejaVuSans-37" transform="translate(63.623047 0)"/>
       <use xlink:href="#DejaVuSans-35" transform="translate(127.246094 0)"/>
      </g>
     </g>
    </g>
    <g id="xtick_9">
     <g id="line2d_17">
      <path d="M 555.186352 318.04 
L 555.186352 27.6 
" clip-path="url(#pe4508a86f9)" style="fill: none; stroke: #b0b0b0; stroke-width: 0.8; stroke-linecap: square"/>
     </g>
     <g id="line2d_18">
      <g>
       <use xlink:href="#m427e13bb42" x="555.186352" y="318.04" style="stroke: #000000; stroke-width: 0.8"/>
      </g>
     </g>
     <g id="text_9">
      <!-- 200 -->
      <g transform="translate(545.642602 332.638438) scale(0.1 -0.1)">
       <use xlink:href="#DejaVuSans-32"/>
       <use xlink:href="#DejaVuSans-30" transform="translate(63.623047 0)"/>
       <use xlink:href="#DejaVuSans-30" transform="translate(127.246094 0)"/>
      </g>
     </g>
    </g>
    <g id="text_10">
     <!-- Epoch -->
     <g transform="translate(292.195145 346.316563) scale(0.1 -0.1)">
      <defs>
       <path id="DejaVuSans-45" d="M 628 4666 
L 3578 4666 
L 3578 4134 
L 1259 4134 
L 1259 2753 
L 3481 2753 
L 3481 2222 
L 1259 2222 
L 1259 531 
L 3634 531 
L 3634 0 
L 628 0 
L 628 4666 
z
" transform="scale(0.015625)"/>
       <path id="DejaVuSans-70" d="M 1159 525 
L 1159 -1331 
L 581 -1331 
L 581 3500 
L 1159 3500 
L 1159 2969 
Q 1341 3281 1617 3432 
Q 1894 3584 2278 3584 
Q 2916 3584 3314 3078 
Q 3713 2572 3713 1747 
Q 3713 922 3314 415 
Q 2916 -91 2278 -91 
Q 1894 -91 1617 61 
Q 1341 213 1159 525 
z
M 3116 1747 
Q 3116 2381 2855 2742 
Q 2594 3103 2138 3103 
Q 1681 3103 1420 2742 
Q 1159 2381 1159 1747 
Q 1159 1113 1420 752 
Q 1681 391 2138 391 
Q 2594 391 2855 752 
Q 3116 1113 3116 1747 
z
" transform="scale(0.015625)"/>
       <path id="DejaVuSans-6f" d="M 1959 3097 
Q 1497 3097 1228 2736 
Q 959 2375 959 1747 
Q 959 1119 1226 758 
Q 1494 397 1959 397 
Q 2419 397 2687 759 
Q 2956 1122 2956 1747 
Q 2956 2369 2687 2733 
Q 2419 3097 1959 3097 
z
M 1959 3584 
Q 2709 3584 3137 3096 
Q 3566 2609 3566 1747 
Q 3566 888 3137 398 
Q 2709 -91 1959 -91 
Q 1206 -91 779 398 
Q 353 888 353 1747 
Q 353 2609 779 3096 
Q 1206 3584 1959 3584 
z
" transform="scale(0.015625)"/>
       <path id="DejaVuSans-63" d="M 3122 3366 
L 3122 2828 
Q 2878 2963 2633 3030 
Q 2388 3097 2138 3097 
Q 1578 3097 1268 2742 
Q 959 2388 959 1747 
Q 959 1106 1268 751 
Q 1578 397 2138 397 
Q 2388 397 2633 464 
Q 2878 531 3122 666 
L 3122 134 
Q 2881 22 2623 -34 
Q 2366 -91 2075 -91 
Q 1284 -91 818 406 
Q 353 903 353 1747 
Q 353 2603 823 3093 
Q 1294 3584 2113 3584 
Q 2378 3584 2631 3529 
Q 2884 3475 3122 3366 
z
" transform="scale(0.015625)"/>
       <path id="DejaVuSans-68" d="M 3513 2113 
L 3513 0 
L 2938 0 
L 2938 2094 
Q 2938 2591 2744 2837 
Q 2550 3084 2163 3084 
Q 1697 3084 1428 2787 
Q 1159 2491 1159 1978 
L 1159 0 
L 581 0 
L 581 4863 
L 1159 4863 
L 1159 2956 
Q 1366 3272 1645 3428 
Q 1925 3584 2291 3584 
Q 2894 3584 3203 3211 
Q 3513 2838 3513 2113 
z
" transform="scale(0.015625)"/>
      </defs>
      <use xlink:href="#DejaVuSans-45"/>
      <use xlink:href="#DejaVuSans-70" transform="translate(63.183594 0)"/>
      <use xlink:href="#DejaVuSans-6f" transform="translate(126.660156 0)"/>
      <use xlink:href="#DejaVuSans-63" transform="translate(187.841797 0)"/>
      <use xlink:href="#DejaVuSans-68" transform="translate(242.822266 0)"/>
     </g>
    </g>
   </g>
   <g id="matplotlib.axis_2">
    <g id="ytick_1">
     <g id="line2d_19">
      <path d="M 56.015346 296.64695 
L 558.996818 296.64695 
" clip-path="url(#pe4508a86f9)" style="fill: none; stroke: #b0b0b0; stroke-width: 0.8; stroke-linecap: square"/>
     </g>
     <g id="line2d_20">
      <defs>
       <path id="mb22715217c" d="M 0 0 
L -3.5 0 
" style="stroke: #000000; stroke-width: 0.8"/>
      </defs>
      <g>
       <use xlink:href="#mb22715217c" x="56.015346" y="296.64695" style="stroke: #000000; stroke-width: 0.8"/>
      </g>
     </g>
     <g id="text_11">
      <!-- $\mathdefault{10^{-4}}$ -->
      <g transform="translate(25.515346 300.446169) scale(0.1 -0.1)">
       <defs>
        <path id="DejaVuSans-2212" d="M 678 2272 
L 4684 2272 
L 4684 1741 
L 678 1741 
L 678 2272 
z
" transform="scale(0.015625)"/>
        <path id="DejaVuSans-34" d="M 2419 4116 
L 825 1625 
L 2419 1625 
L 2419 4116 
z
M 2253 4666 
L 3047 4666 
L 3047 1625 
L 3713 1625 
L 3713 1100 
L 3047 1100 
L 3047 0 
L 2419 0 
L 2419 1100 
L 313 1100 
L 313 1709 
L 2253 4666 
z
" transform="scale(0.015625)"/>
       </defs>
       <use xlink:href="#DejaVuSans-31" transform="translate(0 0.684375)"/>
       <use xlink:href="#DejaVuSans-30" transform="translate(63.623047 0.684375)"/>
       <use xlink:href="#DejaVuSans-2212" transform="translate(128.203125 38.965625) scale(0.7)"/>
       <use xlink:href="#DejaVuSans-34" transform="translate(186.855469 38.965625) scale(0.7)"/>
      </g>
     </g>
    </g>
    <g id="ytick_2">
     <g id="line2d_21">
      <path d="M 56.015346 214.449685 
L 558.996818 214.449685 
" clip-path="url(#pe4508a86f9)" style="fill: none; stroke: #b0b0b0; stroke-width: 0.8; stroke-linecap: square"/>
     </g>
     <g id="line2d_22">
      <g>
       <use xlink:href="#mb22715217c" x="56.015346" y="214.449685" style="stroke: #000000; stroke-width: 0.8"/>
      </g>
     </g>
     <g id="text_12">
      <!-- $\mathdefault{10^{-3}}$ -->
      <g transform="translate(25.515346 218.248903) scale(0.1 -0.1)">
       <defs>
        <path id="DejaVuSans-33" d="M 2597 2516 
Q 3050 2419 3304 2112 
Q 3559 1806 3559 1356 
Q 3559 666 3084 287 
Q 2609 -91 1734 -91 
Q 1441 -91 1130 -33 
Q 819 25 488 141 
L 488 750 
Q 750 597 1062 519 
Q 1375 441 1716 441 
Q 2309 441 2620 675 
Q 2931 909 2931 1356 
Q 2931 1769 2642 2001 
Q 2353 2234 1838 2234 
L 1294 2234 
L 1294 2753 
L 1863 2753 
Q 2328 2753 2575 2939 
Q 2822 3125 2822 3475 
Q 2822 3834 2567 4026 
Q 2313 4219 1838 4219 
Q 1578 4219 1281 4162 
Q 984 4106 628 3988 
L 628 4550 
Q 988 4650 1302 4700 
Q 1616 4750 1894 4750 
Q 2613 4750 3031 4423 
Q 3450 4097 3450 3541 
Q 3450 3153 3228 2886 
Q 3006 2619 2597 2516 
z
" transform="scale(0.015625)"/>
       </defs>
       <use xlink:href="#DejaVuSans-31" transform="translate(0 0.765625)"/>
       <use xlink:href="#DejaVuSans-30" transform="translate(63.623047 0.765625)"/>
       <use xlink:href="#DejaVuSans-2212" transform="translate(128.203125 39.046875) scale(0.7)"/>
       <use xlink:href="#DejaVuSans-33" transform="translate(186.855469 39.046875) scale(0.7)"/>
      </g>
     </g>
    </g>
    <g id="ytick_3">
     <g id="line2d_23">
      <path d="M 56.015346 132.252419 
L 558.996818 132.252419 
" clip-path="url(#pe4508a86f9)" style="fill: none; stroke: #b0b0b0; stroke-width: 0.8; stroke-linecap: square"/>
     </g>
     <g id="line2d_24">
      <g>
       <use xlink:href="#mb22715217c" x="56.015346" y="132.252419" style="stroke: #000000; stroke-width: 0.8"/>
      </g>
     </g>
     <g id="text_13">
      <!-- $\mathdefault{10^{-2}}$ -->
      <g transform="translate(25.515346 136.051638) scale(0.1 -0.1)">
       <use xlink:href="#DejaVuSans-31" transform="translate(0 0.765625)"/>
       <use xlink:href="#DejaVuSans-30" transform="translate(63.623047 0.765625)"/>
       <use xlink:href="#DejaVuSans-2212" transform="translate(128.203125 39.046875) scale(0.7)"/>
       <use xlink:href="#DejaVuSans-32" transform="translate(186.855469 39.046875) scale(0.7)"/>
      </g>
     </g>
    </g>
    <g id="ytick_4">
     <g id="line2d_25">
      <path d="M 56.015346 50.055153 
L 558.996818 50.055153 
" clip-path="url(#pe4508a86f9)" style="fill: none; stroke: #b0b0b0; stroke-width: 0.8; stroke-linecap: square"/>
     </g>
     <g id="line2d_26">
      <g>
       <use xlink:href="#mb22715217c" x="56.015346" y="50.055153" style="stroke: #000000; stroke-width: 0.8"/>
      </g>
     </g>
     <g id="text_14">
      <!-- $\mathdefault{10^{-1}}$ -->
      <g transform="translate(25.515346 53.854372) scale(0.1 -0.1)">
       <use xlink:href="#DejaVuSans-31" transform="translate(0 0.684375)"/>
       <use xlink:href="#DejaVuSans-30" transform="translate(63.623047 0.684375)"/>
       <use xlink:href="#DejaVuSans-2212" transform="translate(128.203125 38.965625) scale(0.7)"/>
       <use xlink:href="#DejaVuSans-31" transform="translate(186.855469 38.965625) scale(0.7)"/>
      </g>
     </g>
    </g>
    <g id="ytick_5">
     <g id="line2d_27">
      <defs>
       <path id="m664b0f851b" d="M 0 0 
L -2 0 
" style="stroke: #000000; stroke-width: 0.6"/>
      </defs>
      <g>
       <use xlink:href="#m664b0f851b" x="56.015346" y="314.882311" style="stroke: #000000; stroke-width: 0.6"/>
      </g>
     </g>
    </g>
    <g id="ytick_6">
     <g id="line2d_28">
      <g>
       <use xlink:href="#m664b0f851b" x="56.015346" y="309.379468" style="stroke: #000000; stroke-width: 0.6"/>
      </g>
     </g>
    </g>
    <g id="ytick_7">
     <g id="line2d_29">
      <g>
       <use xlink:href="#m664b0f851b" x="56.015346" y="304.612688" style="stroke: #000000; stroke-width: 0.6"/>
      </g>
     </g>
    </g>
    <g id="ytick_8">
     <g id="line2d_30">
      <g>
       <use xlink:href="#m664b0f851b" x="56.015346" y="300.408091" style="stroke: #000000; stroke-width: 0.6"/>
      </g>
     </g>
    </g>
    <g id="ytick_9">
     <g id="line2d_31">
      <g>
       <use xlink:href="#m664b0f851b" x="56.015346" y="271.903108" style="stroke: #000000; stroke-width: 0.6"/>
      </g>
     </g>
    </g>
    <g id="ytick_10">
     <g id="line2d_32">
      <g>
       <use xlink:href="#m664b0f851b" x="56.015346" y="257.428888" style="stroke: #000000; stroke-width: 0.6"/>
      </g>
     </g>
    </g>
    <g id="ytick_11">
     <g id="line2d_33">
      <g>
       <use xlink:href="#m664b0f851b" x="56.015346" y="247.159265" style="stroke: #000000; stroke-width: 0.6"/>
      </g>
     </g>
    </g>
    <g id="ytick_12">
     <g id="line2d_34">
      <g>
       <use xlink:href="#m664b0f851b" x="56.015346" y="239.193527" style="stroke: #000000; stroke-width: 0.6"/>
      </g>
     </g>
    </g>
    <g id="ytick_13">
     <g id="line2d_35">
      <g>
       <use xlink:href="#m664b0f851b" x="56.015346" y="232.685045" style="stroke: #000000; stroke-width: 0.6"/>
      </g>
     </g>
    </g>
    <g id="ytick_14">
     <g id="line2d_36">
      <g>
       <use xlink:href="#m664b0f851b" x="56.015346" y="227.182202" style="stroke: #000000; stroke-width: 0.6"/>
      </g>
     </g>
    </g>
    <g id="ytick_15">
     <g id="line2d_37">
      <g>
       <use xlink:href="#m664b0f851b" x="56.015346" y="222.415423" style="stroke: #000000; stroke-width: 0.6"/>
      </g>
     </g>
    </g>
    <g id="ytick_16">
     <g id="line2d_38">
      <g>
       <use xlink:href="#m664b0f851b" x="56.015346" y="218.210825" style="stroke: #000000; stroke-width: 0.6"/>
      </g>
     </g>
    </g>
    <g id="ytick_17">
     <g id="line2d_39">
      <g>
       <use xlink:href="#m664b0f851b" x="56.015346" y="189.705842" style="stroke: #000000; stroke-width: 0.6"/>
      </g>
     </g>
    </g>
    <g id="ytick_18">
     <g id="line2d_40">
      <g>
       <use xlink:href="#m664b0f851b" x="56.015346" y="175.231622" style="stroke: #000000; stroke-width: 0.6"/>
      </g>
     </g>
    </g>
    <g id="ytick_19">
     <g id="line2d_41">
      <g>
       <use xlink:href="#m664b0f851b" x="56.015346" y="164.962" style="stroke: #000000; stroke-width: 0.6"/>
      </g>
     </g>
    </g>
    <g id="ytick_20">
     <g id="line2d_42">
      <g>
       <use xlink:href="#m664b0f851b" x="56.015346" y="156.996262" style="stroke: #000000; stroke-width: 0.6"/>
      </g>
     </g>
    </g>
    <g id="ytick_21">
     <g id="line2d_43">
      <g>
       <use xlink:href="#m664b0f851b" x="56.015346" y="150.48778" style="stroke: #000000; stroke-width: 0.6"/>
      </g>
     </g>
    </g>
    <g id="ytick_22">
     <g id="line2d_44">
      <g>
       <use xlink:href="#m664b0f851b" x="56.015346" y="144.984937" style="stroke: #000000; stroke-width: 0.6"/>
      </g>
     </g>
    </g>
    <g id="ytick_23">
     <g id="line2d_45">
      <g>
       <use xlink:href="#m664b0f851b" x="56.015346" y="140.218157" style="stroke: #000000; stroke-width: 0.6"/>
      </g>
     </g>
    </g>
    <g id="ytick_24">
     <g id="line2d_46">
      <g>
       <use xlink:href="#m664b0f851b" x="56.015346" y="136.01356" style="stroke: #000000; stroke-width: 0.6"/>
      </g>
     </g>
    </g>
    <g id="ytick_25">
     <g id="line2d_47">
      <g>
       <use xlink:href="#m664b0f851b" x="56.015346" y="107.508577" style="stroke: #000000; stroke-width: 0.6"/>
      </g>
     </g>
    </g>
    <g id="ytick_26">
     <g id="line2d_48">
      <g>
       <use xlink:href="#m664b0f851b" x="56.015346" y="93.034357" style="stroke: #000000; stroke-width: 0.6"/>
      </g>
     </g>
    </g>
    <g id="ytick_27">
     <g id="line2d_49">
      <g>
       <use xlink:href="#m664b0f851b" x="56.015346" y="82.764734" style="stroke: #000000; stroke-width: 0.6"/>
      </g>
     </g>
    </g>
    <g id="ytick_28">
     <g id="line2d_50">
      <g>
       <use xlink:href="#m664b0f851b" x="56.015346" y="74.798996" style="stroke: #000000; stroke-width: 0.6"/>
      </g>
     </g>
    </g>
    <g id="ytick_29">
     <g id="line2d_51">
      <g>
       <use xlink:href="#m664b0f851b" x="56.015346" y="68.290514" style="stroke: #000000; stroke-width: 0.6"/>
      </g>
     </g>
    </g>
    <g id="ytick_30">
     <g id="line2d_52">
      <g>
       <use xlink:href="#m664b0f851b" x="56.015346" y="62.787671" style="stroke: #000000; stroke-width: 0.6"/>
      </g>
     </g>
    </g>
    <g id="ytick_31">
     <g id="line2d_53">
      <g>
       <use xlink:href="#m664b0f851b" x="56.015346" y="58.020892" style="stroke: #000000; stroke-width: 0.6"/>
      </g>
     </g>
    </g>
    <g id="ytick_32">
     <g id="line2d_54">
      <g>
       <use xlink:href="#m664b0f851b" x="56.015346" y="53.816294" style="stroke: #000000; stroke-width: 0.6"/>
      </g>
     </g>
    </g>
    <g id="text_15">
     <!-- MSE Loss -->
     <g transform="translate(19.435659 196.023906) rotate(-90) scale(0.1 -0.1)">
      <defs>
       <path id="DejaVuSans-4d" d="M 628 4666 
L 1569 4666 
L 2759 1491 
L 3956 4666 
L 4897 4666 
L 4897 0 
L 4281 0 
L 4281 4097 
L 3078 897 
L 2444 897 
L 1241 4097 
L 1241 0 
L 628 0 
L 628 4666 
z
" transform="scale(0.015625)"/>
       <path id="DejaVuSans-53" d="M 3425 4513 
L 3425 3897 
Q 3066 4069 2747 4153 
Q 2428 4238 2131 4238 
Q 1616 4238 1336 4038 
Q 1056 3838 1056 3469 
Q 1056 3159 1242 3001 
Q 1428 2844 1947 2747 
L 2328 2669 
Q 3034 2534 3370 2195 
Q 3706 1856 3706 1288 
Q 3706 609 3251 259 
Q 2797 -91 1919 -91 
Q 1588 -91 1214 -16 
Q 841 59 441 206 
L 441 856 
Q 825 641 1194 531 
Q 1563 422 1919 422 
Q 2459 422 2753 634 
Q 3047 847 3047 1241 
Q 3047 1584 2836 1778 
Q 2625 1972 2144 2069 
L 1759 2144 
Q 1053 2284 737 2584 
Q 422 2884 422 3419 
Q 422 4038 858 4394 
Q 1294 4750 2059 4750 
Q 2388 4750 2728 4690 
Q 3069 4631 3425 4513 
z
" transform="scale(0.015625)"/>
       <path id="DejaVuSans-20" transform="scale(0.015625)"/>
       <path id="DejaVuSans-4c" d="M 628 4666 
L 1259 4666 
L 1259 531 
L 3531 531 
L 3531 0 
L 628 0 
L 628 4666 
z
" transform="scale(0.015625)"/>
       <path id="DejaVuSans-73" d="M 2834 3397 
L 2834 2853 
Q 2591 2978 2328 3040 
Q 2066 3103 1784 3103 
Q 1356 3103 1142 2972 
Q 928 2841 928 2578 
Q 928 2378 1081 2264 
Q 1234 2150 1697 2047 
L 1894 2003 
Q 2506 1872 2764 1633 
Q 3022 1394 3022 966 
Q 3022 478 2636 193 
Q 2250 -91 1575 -91 
Q 1294 -91 989 -36 
Q 684 19 347 128 
L 347 722 
Q 666 556 975 473 
Q 1284 391 1588 391 
Q 1994 391 2212 530 
Q 2431 669 2431 922 
Q 2431 1156 2273 1281 
Q 2116 1406 1581 1522 
L 1381 1569 
Q 847 1681 609 1914 
Q 372 2147 372 2553 
Q 372 3047 722 3315 
Q 1072 3584 1716 3584 
Q 2034 3584 2315 3537 
Q 2597 3491 2834 3397 
z
" transform="scale(0.015625)"/>
      </defs>
      <use xlink:href="#DejaVuSans-4d"/>
      <use xlink:href="#DejaVuSans-53" transform="translate(86.279297 0)"/>
      <use xlink:href="#DejaVuSans-45" transform="translate(149.755859 0)"/>
      <use xlink:href="#DejaVuSans-20" transform="translate(212.939453 0)"/>
      <use xlink:href="#DejaVuSans-4c" transform="translate(244.726562 0)"/>
      <use xlink:href="#DejaVuSans-6f" transform="translate(298.689453 0)"/>
      <use xlink:href="#DejaVuSans-73" transform="translate(359.871094 0)"/>
      <use xlink:href="#DejaVuSans-73" transform="translate(411.970703 0)"/>
     </g>
    </g>
   </g>
   <g id="line2d_55">
    <path d="M 78.87814 40.801818 
L 81.259681 113.803968 
L 83.641222 130.074828 
L 86.022764 143.942136 
L 88.404305 155.807799 
L 90.785846 165.800676 
L 93.167387 176.939728 
L 95.548928 185.530014 
L 97.930469 195.00367 
L 100.31201 201.1661 
L 102.693551 208.570879 
L 105.075092 207.499718 
L 107.456633 215.552596 
L 109.838174 216.109507 
L 112.219715 221.21397 
L 114.601256 222.901353 
L 116.982797 226.830394 
L 119.364338 225.21108 
L 121.745879 227.426273 
L 124.12742 233.77454 
L 126.508962 229.654663 
L 131.272044 236.791353 
L 133.653585 235.929639 
L 136.035126 238.286087 
L 138.416667 235.638707 
L 140.798208 241.205197 
L 143.179749 244.177506 
L 145.56129 242.2931 
L 147.942831 248.27514 
L 152.705913 247.864282 
L 155.087454 252.707091 
L 157.468995 252.085706 
L 159.850536 252.912686 
L 162.232077 254.145275 
L 164.613619 252.578704 
L 166.99516 253.911987 
L 169.376701 254.100361 
L 174.139783 252.911601 
L 176.521324 255.155399 
L 178.902865 255.210544 
L 181.284406 254.974836 
L 183.665947 254.611671 
L 186.047488 255.425046 
L 188.429029 256.025575 
L 190.81057 259.691491 
L 193.192111 259.942596 
L 195.573652 259.388256 
L 197.955193 258.076409 
L 200.336734 259.901673 
L 202.718275 259.714196 
L 205.099817 259.370782 
L 209.862899 259.106486 
L 212.24444 260.514432 
L 214.625981 259.782566 
L 219.389063 259.695834 
L 221.770604 260.429106 
L 224.152145 259.623454 
L 226.533686 258.989538 
L 231.296768 260.825139 
L 233.678309 259.997745 
L 236.05985 262.104677 
L 238.441391 262.74595 
L 240.822932 261.693266 
L 243.204474 262.264097 
L 247.967556 262.021297 
L 250.349097 262.384255 
L 252.730638 261.635492 
L 255.112179 261.45365 
L 257.49372 262.153825 
L 259.875261 263.073758 
L 264.638343 262.622648 
L 267.019884 262.244494 
L 269.401425 262.280955 
L 271.782966 261.696431 
L 274.164507 262.38589 
L 276.546048 261.784795 
L 278.927589 262.494009 
L 281.30913 262.695543 
L 283.690672 262.541878 
L 286.072213 263.019891 
L 288.453754 263.778525 
L 290.835295 263.262565 
L 293.216836 263.317814 
L 297.979918 263.76305 
L 300.361459 262.911206 
L 302.743 263.530017 
L 305.124541 263.816382 
L 307.506082 263.192277 
L 309.887623 263.524392 
L 312.269164 263.192731 
L 314.650705 263.767432 
L 317.032246 263.625062 
L 319.413787 263.8624 
L 321.795329 263.067582 
L 324.17687 263.458346 
L 326.558411 264.045581 
L 328.939952 264.108597 
L 331.321493 264.338615 
L 333.703034 263.856184 
L 340.847657 264.503146 
L 343.229198 264.331941 
L 345.610739 263.744634 
L 347.99228 263.869038 
L 350.373821 264.283614 
L 352.755362 264.584823 
L 355.136903 264.190097 
L 357.518444 264.77267 
L 359.899985 264.608993 
L 362.281527 264.640082 
L 364.663068 264.300439 
L 367.044609 264.668884 
L 369.42615 264.563544 
L 371.807691 264.730671 
L 374.189232 264.602735 
L 376.570773 264.912606 
L 378.952314 265.076427 
L 386.096937 264.813411 
L 388.478478 264.919596 
L 390.860019 264.834833 
L 393.24156 264.944246 
L 395.623101 264.560296 
L 398.004642 265.216288 
L 400.386184 264.807387 
L 402.767725 264.802929 
L 405.149266 264.937849 
L 407.530807 264.542625 
L 409.912348 264.871705 
L 412.293889 264.898963 
L 414.67543 265.215595 
L 417.056971 264.728078 
L 419.438512 265.351626 
L 421.820053 264.8709 
L 424.201594 265.176729 
L 426.583135 264.721254 
L 428.964676 264.975428 
L 431.346217 265.002627 
L 433.727758 265.141269 
L 436.109299 265.15207 
L 438.490841 264.948005 
L 440.872382 265.202799 
L 448.017005 264.904171 
L 455.161628 265.203606 
L 457.543169 265.151766 
L 459.92471 265.32775 
L 462.306251 265.08881 
L 464.687792 264.702623 
L 467.069333 264.923958 
L 469.450874 264.809906 
L 471.832415 265.161012 
L 476.595497 265.210441 
L 478.977039 264.853456 
L 481.35858 264.856878 
L 483.740121 265.069399 
L 486.121662 265.169076 
L 495.647826 265.020506 
L 500.410908 265.333146 
L 505.17399 264.802062 
L 507.555531 265.191195 
L 509.937072 264.94919 
L 512.318613 265.285037 
L 514.700154 264.769441 
L 517.081696 265.141381 
L 519.463237 264.887367 
L 521.844778 264.96565 
L 524.226319 265.155418 
L 526.60786 265.16123 
L 528.989401 265.002399 
L 531.370942 265.281172 
L 533.752483 264.986122 
L 536.134024 265.191398 
L 536.134024 265.191398 
" clip-path="url(#pe4508a86f9)" style="fill: none; stroke: #1f77b4; stroke-width: 2; stroke-linecap: square"/>
   </g>
   <g id="line2d_56">
    <path d="M 78.87814 177.358125 
L 81.259681 223.642489 
L 83.641222 229.124214 
L 86.022764 220.284945 
L 88.404305 256.6476 
L 90.785846 219.237664 
L 93.167387 258.983764 
L 95.548928 253.007213 
L 97.930469 243.904605 
L 100.31201 245.506069 
L 102.693551 194.479567 
L 105.075092 261.863714 
L 107.456633 270.914587 
L 109.838174 238.670052 
L 112.219715 275.898291 
L 114.601256 217.544409 
L 116.982797 257.736698 
L 119.364338 279.99094 
L 121.745879 275.364548 
L 124.12742 282.811514 
L 126.508962 239.650548 
L 128.890503 227.602931 
L 131.272044 282.237906 
L 133.653585 245.415015 
L 136.035126 286.209236 
L 138.416667 276.951134 
L 140.798208 265.775681 
L 143.179749 269.729916 
L 145.56129 284.818083 
L 147.942831 274.155049 
L 150.324372 252.48594 
L 152.705913 264.061192 
L 155.087454 276.477771 
L 157.468995 300.010059 
L 159.850536 268.121757 
L 162.232077 302.938789 
L 164.613619 287.53575 
L 166.99516 273.175483 
L 169.376701 242.029348 
L 171.758242 291.230741 
L 174.139783 266.00004 
L 176.521324 294.173381 
L 178.902865 272.786362 
L 181.284406 292.277368 
L 183.665947 282.470743 
L 186.047488 288.1563 
L 188.429029 278.667797 
L 190.81057 302.347804 
L 193.192111 298.547195 
L 195.573652 277.841302 
L 197.955193 299.743901 
L 200.336734 301.821993 
L 202.718275 287.412968 
L 205.099817 267.415833 
L 207.481358 303.219491 
L 209.862899 277.551574 
L 212.24444 301.833738 
L 214.625981 297.98892 
L 217.007522 286.87156 
L 219.389063 291.598833 
L 221.770604 299.301439 
L 224.152145 301.691129 
L 226.533686 274.299594 
L 228.915227 299.481698 
L 231.296768 290.304619 
L 233.678309 294.734075 
L 236.05985 303.738715 
L 238.441391 302.574769 
L 240.822932 303.358287 
L 243.204474 298.267968 
L 245.586015 301.239525 
L 247.967556 289.275992 
L 250.349097 299.063181 
L 252.730638 301.382822 
L 255.112179 303.317341 
L 257.49372 304.377002 
L 259.875261 303.369586 
L 262.256802 282.655991 
L 264.638343 301.454044 
L 267.019884 298.760584 
L 269.401425 303.270579 
L 271.782966 292.117355 
L 274.164507 284.614088 
L 276.546048 291.607573 
L 278.927589 271.995929 
L 281.30913 303.961348 
L 283.690672 289.73044 
L 286.072213 291.734994 
L 288.453754 281.625876 
L 290.835295 304.736916 
L 293.216836 288.021118 
L 295.598377 293.503614 
L 297.979918 304.838182 
L 300.361459 300.439105 
L 302.743 283.219222 
L 305.124541 296.518779 
L 307.506082 293.150686 
L 309.887623 302.809744 
L 312.269164 297.991488 
L 314.650705 289.861632 
L 317.032246 301.408195 
L 319.413787 289.053277 
L 321.795329 303.162661 
L 324.17687 303.906165 
L 326.558411 298.051583 
L 328.939952 297.897318 
L 331.321493 292.648771 
L 333.703034 292.389644 
L 336.084575 291.192401 
L 338.466116 291.946142 
L 340.847657 301.434168 
L 343.229198 294.481155 
L 345.610739 299.595724 
L 347.99228 289.592719 
L 350.373821 293.139676 
L 352.755362 294.293479 
L 355.136903 294.512766 
L 357.518444 291.15842 
L 359.899985 296.827926 
L 362.281527 299.79948 
L 364.663068 291.689355 
L 367.044609 302.21945 
L 369.42615 296.944384 
L 371.807691 294.21845 
L 374.189232 300.945644 
L 376.570773 296.251926 
L 378.952314 294.601773 
L 381.333855 298.692551 
L 383.715396 296.306739 
L 386.096937 299.280316 
L 388.478478 294.556259 
L 390.860019 296.901326 
L 393.24156 297.932762 
L 395.623101 301.928803 
L 398.004642 295.760088 
L 400.386184 301.687722 
L 402.767725 303.118779 
L 405.149266 295.975402 
L 407.530807 297.791021 
L 409.912348 298.241094 
L 412.293889 291.128323 
L 414.67543 297.073466 
L 417.056971 299.339339 
L 419.438512 296.769309 
L 421.820053 299.338869 
L 424.201594 297.947369 
L 426.583135 298.320584 
L 428.964676 300.16972 
L 431.346217 298.52034 
L 433.727758 296.639386 
L 436.109299 295.743967 
L 438.490841 297.397904 
L 440.872382 295.450651 
L 443.253923 293.662535 
L 445.635464 292.235633 
L 448.017005 300.192989 
L 450.398546 299.321284 
L 452.780087 297.822897 
L 455.161628 295.032478 
L 457.543169 299.420827 
L 459.92471 296.981136 
L 462.306251 298.678638 
L 464.687792 297.750651 
L 467.069333 296.258821 
L 469.450874 296.023776 
L 471.832415 293.359599 
L 474.213956 295.126042 
L 478.977039 295.351732 
L 481.35858 300.427226 
L 483.740121 297.08501 
L 486.121662 301.564336 
L 488.503203 294.464937 
L 490.884744 297.288817 
L 493.266285 298.923843 
L 495.647826 300.146089 
L 498.029367 298.018525 
L 500.410908 299.546864 
L 502.792449 294.904887 
L 505.17399 297.425828 
L 507.555531 297.268666 
L 509.937072 295.261173 
L 512.318613 298.504798 
L 514.700154 296.44336 
L 517.081696 302.996126 
L 519.463237 295.613997 
L 521.844778 296.54982 
L 524.226319 290.861867 
L 526.60786 298.361656 
L 528.989401 297.78724 
L 531.370942 300.841249 
L 533.752483 298.419408 
L 536.134024 295.178933 
L 536.134024 295.178933 
" clip-path="url(#pe4508a86f9)" style="fill: none; stroke: #ff7f0e; stroke-width: 2; stroke-linecap: square"/>
   </g>
   <g id="patch_3">
    <path d="M 56.015346 318.04 
L 56.015346 27.6 
" style="fill: none; stroke: #000000; stroke-width: 0.8; stroke-linejoin: miter; stroke-linecap: square"/>
   </g>
   <g id="patch_4">
    <path d="M 558.996818 318.04 
L 558.996818 27.6 
" style="fill: none; stroke: #000000; stroke-width: 0.8; stroke-linejoin: miter; stroke-linecap: square"/>
   </g>
   <g id="patch_5">
    <path d="M 56.015346 318.04 
L 558.996818 318.04 
" style="fill: none; stroke: #000000; stroke-width: 0.8; stroke-linejoin: miter; stroke-linecap: square"/>
   </g>
   <g id="patch_6">
    <path d="M 56.015346 27.6 
L 558.996818 27.6 
" style="fill: none; stroke: #000000; stroke-width: 0.8; stroke-linejoin: miter; stroke-linecap: square"/>
   </g>
   <g id="text_16">
    <!-- Evolución del Loss por Época -->
    <g transform="translate(220.432957 21.6) scale(0.12 -0.12)">
     <defs>
      <path id="DejaVuSans-76" d="M 191 3500 
L 800 3500 
L 1894 563 
L 2988 3500 
L 3597 3500 
L 2284 0 
L 1503 0 
L 191 3500 
z
" transform="scale(0.015625)"/>
      <path id="DejaVuSans-6c" d="M 603 4863 
L 1178 4863 
L 1178 0 
L 603 0 
L 603 4863 
z
" transform="scale(0.015625)"/>
      <path id="DejaVuSans-75" d="M 544 1381 
L 544 3500 
L 1119 3500 
L 1119 1403 
Q 1119 906 1312 657 
Q 1506 409 1894 409 
Q 2359 409 2629 706 
Q 2900 1003 2900 1516 
L 2900 3500 
L 3475 3500 
L 3475 0 
L 2900 0 
L 2900 538 
Q 2691 219 2414 64 
Q 2138 -91 1772 -91 
Q 1169 -91 856 284 
Q 544 659 544 1381 
z
M 1991 3584 
L 1991 3584 
z
" transform="scale(0.015625)"/>
      <path id="DejaVuSans-69" d="M 603 3500 
L 1178 3500 
L 1178 0 
L 603 0 
L 603 3500 
z
M 603 4863 
L 1178 4863 
L 1178 4134 
L 603 4134 
L 603 4863 
z
" transform="scale(0.015625)"/>
      <path id="DejaVuSans-f3" d="M 1959 3097 
Q 1497 3097 1228 2736 
Q 959 2375 959 1747 
Q 959 1119 1226 758 
Q 1494 397 1959 397 
Q 2419 397 2687 759 
Q 2956 1122 2956 1747 
Q 2956 2369 2687 2733 
Q 2419 3097 1959 3097 
z
M 1959 3584 
Q 2709 3584 3137 3096 
Q 3566 2609 3566 1747 
Q 3566 888 3137 398 
Q 2709 -91 1959 -91 
Q 1206 -91 779 398 
Q 353 888 353 1747 
Q 353 2609 779 3096 
Q 1206 3584 1959 3584 
z
M 2394 5119 
L 3016 5119 
L 1997 3944 
L 1519 3944 
L 2394 5119 
z
" transform="scale(0.015625)"/>
      <path id="DejaVuSans-6e" d="M 3513 2113 
L 3513 0 
L 2938 0 
L 2938 2094 
Q 2938 2591 2744 2837 
Q 2550 3084 2163 3084 
Q 1697 3084 1428 2787 
Q 1159 2491 1159 1978 
L 1159 0 
L 581 0 
L 581 3500 
L 1159 3500 
L 1159 2956 
Q 1366 3272 1645 3428 
Q 1925 3584 2291 3584 
Q 2894 3584 3203 3211 
Q 3513 2838 3513 2113 
z
" transform="scale(0.015625)"/>
      <path id="DejaVuSans-64" d="M 2906 2969 
L 2906 4863 
L 3481 4863 
L 3481 0 
L 2906 0 
L 2906 525 
Q 2725 213 2448 61 
Q 2172 -91 1784 -91 
Q 1150 -91 751 415 
Q 353 922 353 1747 
Q 353 2572 751 3078 
Q 1150 3584 1784 3584 
Q 2172 3584 2448 3432 
Q 2725 3281 2906 2969 
z
M 947 1747 
Q 947 1113 1208 752 
Q 1469 391 1925 391 
Q 2381 391 2643 752 
Q 2906 1113 2906 1747 
Q 2906 2381 2643 2742 
Q 2381 3103 1925 3103 
Q 1469 3103 1208 2742 
Q 947 2381 947 1747 
z
" transform="scale(0.015625)"/>
      <path id="DejaVuSans-65" d="M 3597 1894 
L 3597 1613 
L 953 1613 
Q 991 1019 1311 708 
Q 1631 397 2203 397 
Q 2534 397 2845 478 
Q 3156 559 3463 722 
L 3463 178 
Q 3153 47 2828 -22 
Q 2503 -91 2169 -91 
Q 1331 -91 842 396 
Q 353 884 353 1716 
Q 353 2575 817 3079 
Q 1281 3584 2069 3584 
Q 2775 3584 3186 3129 
Q 3597 2675 3597 1894 
z
M 3022 2063 
Q 3016 2534 2758 2815 
Q 2500 3097 2075 3097 
Q 1594 3097 1305 2825 
Q 1016 2553 972 2059 
L 3022 2063 
z
" transform="scale(0.015625)"/>
      <path id="DejaVuSans-72" d="M 2631 2963 
Q 2534 3019 2420 3045 
Q 2306 3072 2169 3072 
Q 1681 3072 1420 2755 
Q 1159 2438 1159 1844 
L 1159 0 
L 581 0 
L 581 3500 
L 1159 3500 
L 1159 2956 
Q 1341 3275 1631 3429 
Q 1922 3584 2338 3584 
Q 2397 3584 2469 3576 
Q 2541 3569 2628 3553 
L 2631 2963 
z
" transform="scale(0.015625)"/>
      <path id="DejaVuSans-c9" d="M 628 4666 
L 3578 4666 
L 3578 4134 
L 1259 4134 
L 1259 2753 
L 3481 2753 
L 3481 2222 
L 1259 2222 
L 1259 531 
L 3634 531 
L 3634 0 
L 628 0 
L 628 4666 
z
M 2266 5935 
L 2844 5935 
L 2131 5110 
L 1653 5110 
L 2266 5935 
z
" transform="scale(0.015625)"/>
      <path id="DejaVuSans-61" d="M 2194 1759 
Q 1497 1759 1228 1600 
Q 959 1441 959 1056 
Q 959 750 1161 570 
Q 1363 391 1709 391 
Q 2188 391 2477 730 
Q 2766 1069 2766 1631 
L 2766 1759 
L 2194 1759 
z
M 3341 1997 
L 3341 0 
L 2766 0 
L 2766 531 
Q 2569 213 2275 61 
Q 1981 -91 1556 -91 
Q 1019 -91 701 211 
Q 384 513 384 1019 
Q 384 1609 779 1909 
Q 1175 2209 1959 2209 
L 2766 2209 
L 2766 2266 
Q 2766 2663 2505 2880 
Q 2244 3097 1772 3097 
Q 1472 3097 1187 3025 
Q 903 2953 641 2809 
L 641 3341 
Q 956 3463 1253 3523 
Q 1550 3584 1831 3584 
Q 2591 3584 2966 3190 
Q 3341 2797 3341 1997 
z
" transform="scale(0.015625)"/>
     </defs>
     <use xlink:href="#DejaVuSans-45"/>
     <use xlink:href="#DejaVuSans-76" transform="translate(63.183594 0)"/>
     <use xlink:href="#DejaVuSans-6f" transform="translate(122.363281 0)"/>
     <use xlink:href="#DejaVuSans-6c" transform="translate(183.544922 0)"/>
     <use xlink:href="#DejaVuSans-75" transform="translate(211.328125 0)"/>
     <use xlink:href="#DejaVuSans-63" transform="translate(274.707031 0)"/>
     <use xlink:href="#DejaVuSans-69" transform="translate(329.6875 0)"/>
     <use xlink:href="#DejaVuSans-f3" transform="translate(357.470703 0)"/>
     <use xlink:href="#DejaVuSans-6e" transform="translate(418.652344 0)"/>
     <use xlink:href="#DejaVuSans-20" transform="translate(482.03125 0)"/>
     <use xlink:href="#DejaVuSans-64" transform="translate(513.818359 0)"/>
     <use xlink:href="#DejaVuSans-65" transform="translate(577.294922 0)"/>
     <use xlink:href="#DejaVuSans-6c" transform="translate(638.818359 0)"/>
     <use xlink:href="#DejaVuSans-20" transform="translate(666.601562 0)"/>
     <use xlink:href="#DejaVuSans-4c" transform="translate(698.388672 0)"/>
     <use xlink:href="#DejaVuSans-6f" transform="translate(752.351562 0)"/>
     <use xlink:href="#DejaVuSans-73" transform="translate(813.533203 0)"/>
     <use xlink:href="#DejaVuSans-73" transform="translate(865.632812 0)"/>
     <use xlink:href="#DejaVuSans-20" transform="translate(917.732422 0)"/>
     <use xlink:href="#DejaVuSans-70" transform="translate(949.519531 0)"/>
     <use xlink:href="#DejaVuSans-6f" transform="translate(1012.996094 0)"/>
     <use xlink:href="#DejaVuSans-72" transform="translate(1074.177734 0)"/>
     <use xlink:href="#DejaVuSans-20" transform="translate(1115.291016 0)"/>
     <use xlink:href="#DejaVuSans-c9" transform="translate(1147.078125 0)"/>
     <use xlink:href="#DejaVuSans-70" transform="translate(1210.261719 0)"/>
     <use xlink:href="#DejaVuSans-6f" transform="translate(1273.738281 0)"/>
     <use xlink:href="#DejaVuSans-63" transform="translate(1334.919922 0)"/>
     <use xlink:href="#DejaVuSans-61" transform="translate(1389.900391 0)"/>
    </g>
   </g>
   <g id="legend_1">
    <g id="patch_7">
     <path d="M 447.635881 64.95625 
L 551.996818 64.95625 
Q 553.996818 64.95625 553.996818 62.95625 
L 553.996818 34.6 
Q 553.996818 32.6 551.996818 32.6 
L 447.635881 32.6 
Q 445.635881 32.6 445.635881 34.6 
L 445.635881 62.95625 
Q 445.635881 64.95625 447.635881 64.95625 
z
" style="fill: #ffffff; opacity: 0.8; stroke: #cccccc; stroke-linejoin: miter"/>
    </g>
    <g id="line2d_57">
     <path d="M 449.635881 40.698438 
L 459.635881 40.698438 
L 469.635881 40.698438 
" style="fill: none; stroke: #1f77b4; stroke-width: 2; stroke-linecap: square"/>
    </g>
    <g id="text_17">
     <!-- Train Loss -->
     <g transform="translate(477.635881 44.198438) scale(0.1 -0.1)">
      <defs>
       <path id="DejaVuSans-54" d="M -19 4666 
L 3928 4666 
L 3928 4134 
L 2272 4134 
L 2272 0 
L 1638 0 
L 1638 4134 
L -19 4134 
L -19 4666 
z
" transform="scale(0.015625)"/>
      </defs>
      <use xlink:href="#DejaVuSans-54"/>
      <use xlink:href="#DejaVuSans-72" transform="translate(46.333984 0)"/>
      <use xlink:href="#DejaVuSans-61" transform="translate(87.447266 0)"/>
      <use xlink:href="#DejaVuSans-69" transform="translate(148.726562 0)"/>
      <use xlink:href="#DejaVuSans-6e" transform="translate(176.509766 0)"/>
      <use xlink:href="#DejaVuSans-20" transform="translate(239.888672 0)"/>
      <use xlink:href="#DejaVuSans-4c" transform="translate(271.675781 0)"/>
      <use xlink:href="#DejaVuSans-6f" transform="translate(325.638672 0)"/>
      <use xlink:href="#DejaVuSans-73" transform="translate(386.820312 0)"/>
      <use xlink:href="#DejaVuSans-73" transform="translate(438.919922 0)"/>
     </g>
    </g>
    <g id="line2d_58">
     <path d="M 449.635881 55.376563 
L 459.635881 55.376563 
L 469.635881 55.376563 
" style="fill: none; stroke: #ff7f0e; stroke-width: 2; stroke-linecap: square"/>
    </g>
    <g id="text_18">
     <!-- Val Loss (MSE) -->
     <g transform="translate(477.635881 58.876563) scale(0.1 -0.1)">
      <defs>
       <path id="DejaVuSans-56" d="M 1831 0 
L 50 4666 
L 709 4666 
L 2188 738 
L 3669 4666 
L 4325 4666 
L 2547 0 
L 1831 0 
z
" transform="scale(0.015625)"/>
       <path id="DejaVuSans-28" d="M 1984 4856 
Q 1566 4138 1362 3434 
Q 1159 2731 1159 2009 
Q 1159 1288 1364 580 
Q 1569 -128 1984 -844 
L 1484 -844 
Q 1016 -109 783 600 
Q 550 1309 550 2009 
Q 550 2706 781 3412 
Q 1013 4119 1484 4856 
L 1984 4856 
z
" transform="scale(0.015625)"/>
       <path id="DejaVuSans-29" d="M 513 4856 
L 1013 4856 
Q 1481 4119 1714 3412 
Q 1947 2706 1947 2009 
Q 1947 1309 1714 600 
Q 1481 -109 1013 -844 
L 513 -844 
Q 928 -128 1133 580 
Q 1338 1288 1338 2009 
Q 1338 2731 1133 3434 
Q 928 4138 513 4856 
z
" transform="scale(0.015625)"/>
      </defs>
      <use xlink:href="#DejaVuSans-56"/>
      <use xlink:href="#DejaVuSans-61" transform="translate(60.658203 0)"/>
      <use xlink:href="#DejaVuSans-6c" transform="translate(121.9375 0)"/>
      <use xlink:href="#DejaVuSans-20" transform="translate(149.720703 0)"/>
      <use xlink:href="#DejaVuSans-4c" transform="translate(181.507812 0)"/>
      <use xlink:href="#DejaVuSans-6f" transform="translate(235.470703 0)"/>
      <use xlink:href="#DejaVuSans-73" transform="translate(296.652344 0)"/>
      <use xlink:href="#DejaVuSans-73" transform="translate(348.751953 0)"/>
      <use xlink:href="#DejaVuSans-20" transform="translate(400.851562 0)"/>
      <use xlink:href="#DejaVuSans-28" transform="translate(432.638672 0)"/>
      <use xlink:href="#DejaVuSans-4d" transform="translate(471.652344 0)"/>
      <use xlink:href="#DejaVuSans-53" transform="translate(557.931641 0)"/>
      <use xlink:href="#DejaVuSans-45" transform="translate(621.408203 0)"/>
      <use xlink:href="#DejaVuSans-29" transform="translate(684.591797 0)"/>
     </g>
    </g>
   </g>
  </g>
 </g>
 <defs>
  <clipPath id="pe4508a86f9">
   <rect x="56.015346" y="27.6" width="502.981472" height="290.44"/>
  </clipPath>
 </defs>
</svg>
