<?xml version="1.0" encoding="utf-8" standalone="no"?>
<!DOCTYPE svg PUBLIC "-//W3C//DTD SVG 1.1//EN"
  "http://www.w3.org/Graphics/SVG/1.1/DTD/svg11.dtd">
<svg xmlns:xlink="http://www.w3.org/1999/xlink" width="576pt" height="360pt" viewBox="0 0 576 360" xmlns="http://www.w3.org/2000/svg" version="1.1">
 <metadata>
  <rdf:RDF xmlns:dc="http://purl.org/dc/elements/1.1/" xmlns:cc="http://creativecommons.org/ns#" xmlns:rdf="http://www.w3.org/1999/02/22-rdf-syntax-ns#">
   <cc:Work>
    <dc:type rdf:resource="http://purl.org/dc/dcmitype/StillImage"/>
    <dc:date>2025-05-09T09:15:33.350135</dc:date>
    <dc:format>image/svg+xml</dc:format>
    <dc:creator>
     <cc:Agent>
      <dc:title>Matplotlib v3.10.1, https://matplotlib.org/</dc:title>
     </cc:Agent>
    </dc:creator>
   </cc:Work>
  </rdf:RDF>
 </metadata>
 <defs>
  <style type="text/css">*{stroke-linejoin: round; stroke-linecap: butt}</style>
 </defs>
 <g id="figure_1">
  <g id="patch_1">
   <path d="M 0 360 
L 576 360 
L 576 0 
L 0 0 
z
" style="fill: #ffffff"/>
  </g>
  <g id="axes_1">
   <g id="patch_2">
    <path d="M 55.880346 318.04 
L 565.2 318.04 
L 565.2 27.6 
L 55.880346 27.6 
z
" style="fill: #ffffff"/>
   </g>
   <g id="matplotlib.axis_1">
    <g id="xtick_1">
     <g id="line2d_1">
      <path d="M 79.031239 318.04 
L 79.031239 27.6 
" clip-path="url(#p9b7c01e445)" style="fill: none; stroke: #b0b0b0; stroke-width: 0.8; stroke-linecap: square"/>
     </g>
     <g id="line2d_2">
      <defs>
       <path id="mea6c4cd4b8" d="M 0 0 
L 0 3.5 
" style="stroke: #000000; stroke-width: 0.8"/>
      </defs>
      <g>
       <use xlink:href="#mea6c4cd4b8" x="79.031239" y="318.04" style="stroke: #000000; stroke-width: 0.8"/>
      </g>
     </g>
     <g id="text_1">
      <!-- 0 -->
      <g transform="translate(75.849989 332.638438) scale(0.1 -0.1)">
       <defs>
        <path id="DejaVuSans-30" d="M 2034 4250 
Q 1547 4250 1301 3770 
Q 1056 3291 1056 2328 
Q 1056 1369 1301 889 
Q 1547 409 2034 409 
Q 2525 409 2770 889 
Q 3016 1369 3016 2328 
Q 3016 3291 2770 3770 
Q 2525 4250 2034 4250 
z
M 2034 4750 
Q 2819 4750 3233 4129 
Q 3647 3509 3647 2328 
Q 3647 1150 3233 529 
Q 2819 -91 2034 -91 
Q 1250 -91 836 529 
Q 422 1150 422 2328 
Q 422 3509 836 4129 
Q 1250 4750 2034 4750 
z
" transform="scale(0.015625)"/>
       </defs>
       <use xlink:href="#DejaVuSans-30"/>
      </g>
     </g>
    </g>
    <g id="xtick_2">
     <g id="line2d_3">
      <path d="M 132.251684 318.04 
L 132.251684 27.6 
" clip-path="url(#p9b7c01e445)" style="fill: none; stroke: #b0b0b0; stroke-width: 0.8; stroke-linecap: square"/>
     </g>
     <g id="line2d_4">
      <g>
       <use xlink:href="#mea6c4cd4b8" x="132.251684" y="318.04" style="stroke: #000000; stroke-width: 0.8"/>
      </g>
     </g>
     <g id="text_2">
      <!-- 20 -->
      <g transform="translate(125.889184 332.638438) scale(0.1 -0.1)">
       <defs>
        <path id="DejaVuSans-32" d="M 1228 531 
L 3431 531 
L 3431 0 
L 469 0 
L 469 531 
Q 828 903 1448 1529 
Q 2069 2156 2228 2338 
Q 2531 2678 2651 2914 
Q 2772 3150 2772 3378 
Q 2772 3750 2511 3984 
Q 2250 4219 1831 4219 
Q 1534 4219 1204 4116 
Q 875 4013 500 3803 
L 500 4441 
Q 881 4594 1212 4672 
Q 1544 4750 1819 4750 
Q 2544 4750 2975 4387 
Q 3406 4025 3406 3419 
Q 3406 3131 3298 2873 
Q 3191 2616 2906 2266 
Q 2828 2175 2409 1742 
Q 1991 1309 1228 531 
z
" transform="scale(0.015625)"/>
       </defs>
       <use xlink:href="#DejaVuSans-32"/>
       <use xlink:href="#DejaVuSans-30" transform="translate(63.623047 0)"/>
      </g>
     </g>
    </g>
    <g id="xtick_3">
     <g id="line2d_5">
      <path d="M 185.472128 318.04 
L 185.472128 27.6 
" clip-path="url(#p9b7c01e445)" style="fill: none; stroke: #b0b0b0; stroke-width: 0.8; stroke-linecap: square"/>
     </g>
     <g id="line2d_6">
      <g>
       <use xlink:href="#mea6c4cd4b8" x="185.472128" y="318.04" style="stroke: #000000; stroke-width: 0.8"/>
      </g>
     </g>
     <g id="text_3">
      <!-- 40 -->
      <g transform="translate(179.109628 332.638438) scale(0.1 -0.1)">
       <defs>
        <path id="DejaVuSans-34" d="M 2419 4116 
L 825 1625 
L 2419 1625 
L 2419 4116 
z
M 2253 4666 
L 3047 4666 
L 3047 1625 
L 3713 1625 
L 3713 1100 
L 3047 1100 
L 3047 0 
L 2419 0 
L 2419 1100 
L 313 1100 
L 313 1709 
L 2253 4666 
z
" transform="scale(0.015625)"/>
       </defs>
       <use xlink:href="#DejaVuSans-34"/>
       <use xlink:href="#DejaVuSans-30" transform="translate(63.623047 0)"/>
      </g>
     </g>
    </g>
    <g id="xtick_4">
     <g id="line2d_7">
      <path d="M 238.692573 318.04 
L 238.692573 27.6 
" clip-path="url(#p9b7c01e445)" style="fill: none; stroke: #b0b0b0; stroke-width: 0.8; stroke-linecap: square"/>
     </g>
     <g id="line2d_8">
      <g>
       <use xlink:href="#mea6c4cd4b8" x="238.692573" y="318.04" style="stroke: #000000; stroke-width: 0.8"/>
      </g>
     </g>
     <g id="text_4">
      <!-- 60 -->
      <g transform="translate(232.330073 332.638438) scale(0.1 -0.1)">
       <defs>
        <path id="DejaVuSans-36" d="M 2113 2584 
Q 1688 2584 1439 2293 
Q 1191 2003 1191 1497 
Q 1191 994 1439 701 
Q 1688 409 2113 409 
Q 2538 409 2786 701 
Q 3034 994 3034 1497 
Q 3034 2003 2786 2293 
Q 2538 2584 2113 2584 
z
M 3366 4563 
L 3366 3988 
Q 3128 4100 2886 4159 
Q 2644 4219 2406 4219 
Q 1781 4219 1451 3797 
Q 1122 3375 1075 2522 
Q 1259 2794 1537 2939 
Q 1816 3084 2150 3084 
Q 2853 3084 3261 2657 
Q 3669 2231 3669 1497 
Q 3669 778 3244 343 
Q 2819 -91 2113 -91 
Q 1303 -91 875 529 
Q 447 1150 447 2328 
Q 447 3434 972 4092 
Q 1497 4750 2381 4750 
Q 2619 4750 2861 4703 
Q 3103 4656 3366 4563 
z
" transform="scale(0.015625)"/>
       </defs>
       <use xlink:href="#DejaVuSans-36"/>
       <use xlink:href="#DejaVuSans-30" transform="translate(63.623047 0)"/>
      </g>
     </g>
    </g>
    <g id="xtick_5">
     <g id="line2d_9">
      <path d="M 291.913017 318.04 
L 291.913017 27.6 
" clip-path="url(#p9b7c01e445)" style="fill: none; stroke: #b0b0b0; stroke-width: 0.8; stroke-linecap: square"/>
     </g>
     <g id="line2d_10">
      <g>
       <use xlink:href="#mea6c4cd4b8" x="291.913017" y="318.04" style="stroke: #000000; stroke-width: 0.8"/>
      </g>
     </g>
     <g id="text_5">
      <!-- 80 -->
      <g transform="translate(285.550517 332.638438) scale(0.1 -0.1)">
       <defs>
        <path id="DejaVuSans-38" d="M 2034 2216 
Q 1584 2216 1326 1975 
Q 1069 1734 1069 1313 
Q 1069 891 1326 650 
Q 1584 409 2034 409 
Q 2484 409 2743 651 
Q 3003 894 3003 1313 
Q 3003 1734 2745 1975 
Q 2488 2216 2034 2216 
z
M 1403 2484 
Q 997 2584 770 2862 
Q 544 3141 544 3541 
Q 544 4100 942 4425 
Q 1341 4750 2034 4750 
Q 2731 4750 3128 4425 
Q 3525 4100 3525 3541 
Q 3525 3141 3298 2862 
Q 3072 2584 2669 2484 
Q 3125 2378 3379 2068 
Q 3634 1759 3634 1313 
Q 3634 634 3220 271 
Q 2806 -91 2034 -91 
Q 1263 -91 848 271 
Q 434 634 434 1313 
Q 434 1759 690 2068 
Q 947 2378 1403 2484 
z
M 1172 3481 
Q 1172 3119 1398 2916 
Q 1625 2713 2034 2713 
Q 2441 2713 2670 2916 
Q 2900 3119 2900 3481 
Q 2900 3844 2670 4047 
Q 2441 4250 2034 4250 
Q 1625 4250 1398 4047 
Q 1172 3844 1172 3481 
z
" transform="scale(0.015625)"/>
       </defs>
       <use xlink:href="#DejaVuSans-38"/>
       <use xlink:href="#DejaVuSans-30" transform="translate(63.623047 0)"/>
      </g>
     </g>
    </g>
    <g id="xtick_6">
     <g id="line2d_11">
      <path d="M 345.133462 318.04 
L 345.133462 27.6 
" clip-path="url(#p9b7c01e445)" style="fill: none; stroke: #b0b0b0; stroke-width: 0.8; stroke-linecap: square"/>
     </g>
     <g id="line2d_12">
      <g>
       <use xlink:href="#mea6c4cd4b8" x="345.133462" y="318.04" style="stroke: #000000; stroke-width: 0.8"/>
      </g>
     </g>
     <g id="text_6">
      <!-- 100 -->
      <g transform="translate(335.589712 332.638438) scale(0.1 -0.1)">
       <defs>
        <path id="DejaVuSans-31" d="M 794 531 
L 1825 531 
L 1825 4091 
L 703 3866 
L 703 4441 
L 1819 4666 
L 2450 4666 
L 2450 531 
L 3481 531 
L 3481 0 
L 794 0 
L 794 531 
z
" transform="scale(0.015625)"/>
       </defs>
       <use xlink:href="#DejaVuSans-31"/>
       <use xlink:href="#DejaVuSans-30" transform="translate(63.623047 0)"/>
       <use xlink:href="#DejaVuSans-30" transform="translate(127.246094 0)"/>
      </g>
     </g>
    </g>
    <g id="xtick_7">
     <g id="line2d_13">
      <path d="M 398.353906 318.04 
L 398.353906 27.6 
" clip-path="url(#p9b7c01e445)" style="fill: none; stroke: #b0b0b0; stroke-width: 0.8; stroke-linecap: square"/>
     </g>
     <g id="line2d_14">
      <g>
       <use xlink:href="#mea6c4cd4b8" x="398.353906" y="318.04" style="stroke: #000000; stroke-width: 0.8"/>
      </g>
     </g>
     <g id="text_7">
      <!-- 120 -->
      <g transform="translate(388.810156 332.638438) scale(0.1 -0.1)">
       <use xlink:href="#DejaVuSans-31"/>
       <use xlink:href="#DejaVuSans-32" transform="translate(63.623047 0)"/>
       <use xlink:href="#DejaVuSans-30" transform="translate(127.246094 0)"/>
      </g>
     </g>
    </g>
    <g id="xtick_8">
     <g id="line2d_15">
      <path d="M 451.574351 318.04 
L 451.574351 27.6 
" clip-path="url(#p9b7c01e445)" style="fill: none; stroke: #b0b0b0; stroke-width: 0.8; stroke-linecap: square"/>
     </g>
     <g id="line2d_16">
      <g>
       <use xlink:href="#mea6c4cd4b8" x="451.574351" y="318.04" style="stroke: #000000; stroke-width: 0.8"/>
      </g>
     </g>
     <g id="text_8">
      <!-- 140 -->
      <g transform="translate(442.030601 332.638438) scale(0.1 -0.1)">
       <use xlink:href="#DejaVuSans-31"/>
       <use xlink:href="#DejaVuSans-34" transform="translate(63.623047 0)"/>
       <use xlink:href="#DejaVuSans-30" transform="translate(127.246094 0)"/>
      </g>
     </g>
    </g>
    <g id="xtick_9">
     <g id="line2d_17">
      <path d="M 504.794795 318.04 
L 504.794795 27.6 
" clip-path="url(#p9b7c01e445)" style="fill: none; stroke: #b0b0b0; stroke-width: 0.8; stroke-linecap: square"/>
     </g>
     <g id="line2d_18">
      <g>
       <use xlink:href="#mea6c4cd4b8" x="504.794795" y="318.04" style="stroke: #000000; stroke-width: 0.8"/>
      </g>
     </g>
     <g id="text_9">
      <!-- 160 -->
      <g transform="translate(495.251045 332.638438) scale(0.1 -0.1)">
       <use xlink:href="#DejaVuSans-31"/>
       <use xlink:href="#DejaVuSans-36" transform="translate(63.623047 0)"/>
       <use xlink:href="#DejaVuSans-30" transform="translate(127.246094 0)"/>
      </g>
     </g>
    </g>
    <g id="xtick_10">
     <g id="line2d_19">
      <path d="M 558.01524 318.04 
L 558.01524 27.6 
" clip-path="url(#p9b7c01e445)" style="fill: none; stroke: #b0b0b0; stroke-width: 0.8; stroke-linecap: square"/>
     </g>
     <g id="line2d_20">
      <g>
       <use xlink:href="#mea6c4cd4b8" x="558.01524" y="318.04" style="stroke: #000000; stroke-width: 0.8"/>
      </g>
     </g>
     <g id="text_10">
      <!-- 180 -->
      <g transform="translate(548.47149 332.638438) scale(0.1 -0.1)">
       <use xlink:href="#DejaVuSans-31"/>
       <use xlink:href="#DejaVuSans-38" transform="translate(63.623047 0)"/>
       <use xlink:href="#DejaVuSans-30" transform="translate(127.246094 0)"/>
      </g>
     </g>
    </g>
    <g id="text_11">
     <!-- Epoch -->
     <g transform="translate(295.229236 346.316563) scale(0.1 -0.1)">
      <defs>
       <path id="DejaVuSans-45" d="M 628 4666 
L 3578 4666 
L 3578 4134 
L 1259 4134 
L 1259 2753 
L 3481 2753 
L 3481 2222 
L 1259 2222 
L 1259 531 
L 3634 531 
L 3634 0 
L 628 0 
L 628 4666 
z
" transform="scale(0.015625)"/>
       <path id="DejaVuSans-70" d="M 1159 525 
L 1159 -1331 
L 581 -1331 
L 581 3500 
L 1159 3500 
L 1159 2969 
Q 1341 3281 1617 3432 
Q 1894 3584 2278 3584 
Q 2916 3584 3314 3078 
Q 3713 2572 3713 1747 
Q 3713 922 3314 415 
Q 2916 -91 2278 -91 
Q 1894 -91 1617 61 
Q 1341 213 1159 525 
z
M 3116 1747 
Q 3116 2381 2855 2742 
Q 2594 3103 2138 3103 
Q 1681 3103 1420 2742 
Q 1159 2381 1159 1747 
Q 1159 1113 1420 752 
Q 1681 391 2138 391 
Q 2594 391 2855 752 
Q 3116 1113 3116 1747 
z
" transform="scale(0.015625)"/>
       <path id="DejaVuSans-6f" d="M 1959 3097 
Q 1497 3097 1228 2736 
Q 959 2375 959 1747 
Q 959 1119 1226 758 
Q 1494 397 1959 397 
Q 2419 397 2687 759 
Q 2956 1122 2956 1747 
Q 2956 2369 2687 2733 
Q 2419 3097 1959 3097 
z
M 1959 3584 
Q 2709 3584 3137 3096 
Q 3566 2609 3566 1747 
Q 3566 888 3137 398 
Q 2709 -91 1959 -91 
Q 1206 -91 779 398 
Q 353 888 353 1747 
Q 353 2609 779 3096 
Q 1206 3584 1959 3584 
z
" transform="scale(0.015625)"/>
       <path id="DejaVuSans-63" d="M 3122 3366 
L 3122 2828 
Q 2878 2963 2633 3030 
Q 2388 3097 2138 3097 
Q 1578 3097 1268 2742 
Q 959 2388 959 1747 
Q 959 1106 1268 751 
Q 1578 397 2138 397 
Q 2388 397 2633 464 
Q 2878 531 3122 666 
L 3122 134 
Q 2881 22 2623 -34 
Q 2366 -91 2075 -91 
Q 1284 -91 818 406 
Q 353 903 353 1747 
Q 353 2603 823 3093 
Q 1294 3584 2113 3584 
Q 2378 3584 2631 3529 
Q 2884 3475 3122 3366 
z
" transform="scale(0.015625)"/>
       <path id="DejaVuSans-68" d="M 3513 2113 
L 3513 0 
L 2938 0 
L 2938 2094 
Q 2938 2591 2744 2837 
Q 2550 3084 2163 3084 
Q 1697 3084 1428 2787 
Q 1159 2491 1159 1978 
L 1159 0 
L 581 0 
L 581 4863 
L 1159 4863 
L 1159 2956 
Q 1366 3272 1645 3428 
Q 1925 3584 2291 3584 
Q 2894 3584 3203 3211 
Q 3513 2838 3513 2113 
z
" transform="scale(0.015625)"/>
      </defs>
      <use xlink:href="#DejaVuSans-45"/>
      <use xlink:href="#DejaVuSans-70" transform="translate(63.183594 0)"/>
      <use xlink:href="#DejaVuSans-6f" transform="translate(126.660156 0)"/>
      <use xlink:href="#DejaVuSans-63" transform="translate(187.841797 0)"/>
      <use xlink:href="#DejaVuSans-68" transform="translate(242.822266 0)"/>
     </g>
    </g>
   </g>
   <g id="matplotlib.axis_2">
    <g id="ytick_1">
     <g id="line2d_21">
      <path d="M 55.880346 210.37025 
L 565.2 210.37025 
" clip-path="url(#p9b7c01e445)" style="fill: none; stroke: #b0b0b0; stroke-width: 0.8; stroke-linecap: square"/>
     </g>
     <g id="line2d_22">
      <defs>
       <path id="m01287697b1" d="M 0 0 
L -3.5 0 
" style="stroke: #000000; stroke-width: 0.8"/>
      </defs>
      <g>
       <use xlink:href="#m01287697b1" x="55.880346" y="210.37025" style="stroke: #000000; stroke-width: 0.8"/>
      </g>
     </g>
     <g id="text_12">
      <!-- $\mathdefault{10^{-3}}$ -->
      <g transform="translate(25.380346 214.169468) scale(0.1 -0.1)">
       <defs>
        <path id="DejaVuSans-2212" d="M 678 2272 
L 4684 2272 
L 4684 1741 
L 678 1741 
L 678 2272 
z
" transform="scale(0.015625)"/>
        <path id="DejaVuSans-33" d="M 2597 2516 
Q 3050 2419 3304 2112 
Q 3559 1806 3559 1356 
Q 3559 666 3084 287 
Q 2609 -91 1734 -91 
Q 1441 -91 1130 -33 
Q 819 25 488 141 
L 488 750 
Q 750 597 1062 519 
Q 1375 441 1716 441 
Q 2309 441 2620 675 
Q 2931 909 2931 1356 
Q 2931 1769 2642 2001 
Q 2353 2234 1838 2234 
L 1294 2234 
L 1294 2753 
L 1863 2753 
Q 2328 2753 2575 2939 
Q 2822 3125 2822 3475 
Q 2822 3834 2567 4026 
Q 2313 4219 1838 4219 
Q 1578 4219 1281 4162 
Q 984 4106 628 3988 
L 628 4550 
Q 988 4650 1302 4700 
Q 1616 4750 1894 4750 
Q 2613 4750 3031 4423 
Q 3450 4097 3450 3541 
Q 3450 3153 3228 2886 
Q 3006 2619 2597 2516 
z
" transform="scale(0.015625)"/>
       </defs>
       <use xlink:href="#DejaVuSans-31" transform="translate(0 0.765625)"/>
       <use xlink:href="#DejaVuSans-30" transform="translate(63.623047 0.765625)"/>
       <use xlink:href="#DejaVuSans-2212" transform="translate(128.203125 39.046875) scale(0.7)"/>
       <use xlink:href="#DejaVuSans-33" transform="translate(186.855469 39.046875) scale(0.7)"/>
      </g>
     </g>
    </g>
    <g id="ytick_2">
     <g id="line2d_23">
      <path d="M 55.880346 85.98149 
L 565.2 85.98149 
" clip-path="url(#p9b7c01e445)" style="fill: none; stroke: #b0b0b0; stroke-width: 0.8; stroke-linecap: square"/>
     </g>
     <g id="line2d_24">
      <g>
       <use xlink:href="#m01287697b1" x="55.880346" y="85.98149" style="stroke: #000000; stroke-width: 0.8"/>
      </g>
     </g>
     <g id="text_13">
      <!-- $\mathdefault{10^{-2}}$ -->
      <g transform="translate(25.380346 89.780709) scale(0.1 -0.1)">
       <use xlink:href="#DejaVuSans-31" transform="translate(0 0.765625)"/>
       <use xlink:href="#DejaVuSans-30" transform="translate(63.623047 0.765625)"/>
       <use xlink:href="#DejaVuSans-2212" transform="translate(128.203125 39.046875) scale(0.7)"/>
       <use xlink:href="#DejaVuSans-32" transform="translate(186.855469 39.046875) scale(0.7)"/>
      </g>
     </g>
    </g>
    <g id="ytick_3">
     <g id="line2d_25">
      <defs>
       <path id="m34c9979cb2" d="M 0 0 
L -2 0 
" style="stroke: #000000; stroke-width: 0.6"/>
      </defs>
      <g>
       <use xlink:href="#m34c9979cb2" x="55.880346" y="297.314262" style="stroke: #000000; stroke-width: 0.6"/>
      </g>
     </g>
    </g>
    <g id="ytick_4">
     <g id="line2d_26">
      <g>
       <use xlink:href="#m34c9979cb2" x="55.880346" y="275.410488" style="stroke: #000000; stroke-width: 0.6"/>
      </g>
     </g>
    </g>
    <g id="ytick_5">
     <g id="line2d_27">
      <g>
       <use xlink:href="#m34c9979cb2" x="55.880346" y="259.869514" style="stroke: #000000; stroke-width: 0.6"/>
      </g>
     </g>
    </g>
    <g id="ytick_6">
     <g id="line2d_28">
      <g>
       <use xlink:href="#m34c9979cb2" x="55.880346" y="247.814998" style="stroke: #000000; stroke-width: 0.6"/>
      </g>
     </g>
    </g>
    <g id="ytick_7">
     <g id="line2d_29">
      <g>
       <use xlink:href="#m34c9979cb2" x="55.880346" y="237.965741" style="stroke: #000000; stroke-width: 0.6"/>
      </g>
     </g>
    </g>
    <g id="ytick_8">
     <g id="line2d_30">
      <g>
       <use xlink:href="#m34c9979cb2" x="55.880346" y="229.638312" style="stroke: #000000; stroke-width: 0.6"/>
      </g>
     </g>
    </g>
    <g id="ytick_9">
     <g id="line2d_31">
      <g>
       <use xlink:href="#m34c9979cb2" x="55.880346" y="222.424766" style="stroke: #000000; stroke-width: 0.6"/>
      </g>
     </g>
    </g>
    <g id="ytick_10">
     <g id="line2d_32">
      <g>
       <use xlink:href="#m34c9979cb2" x="55.880346" y="216.061967" style="stroke: #000000; stroke-width: 0.6"/>
      </g>
     </g>
    </g>
    <g id="ytick_11">
     <g id="line2d_33">
      <g>
       <use xlink:href="#m34c9979cb2" x="55.880346" y="172.925502" style="stroke: #000000; stroke-width: 0.6"/>
      </g>
     </g>
    </g>
    <g id="ytick_12">
     <g id="line2d_34">
      <g>
       <use xlink:href="#m34c9979cb2" x="55.880346" y="151.021729" style="stroke: #000000; stroke-width: 0.6"/>
      </g>
     </g>
    </g>
    <g id="ytick_13">
     <g id="line2d_35">
      <g>
       <use xlink:href="#m34c9979cb2" x="55.880346" y="135.480754" style="stroke: #000000; stroke-width: 0.6"/>
      </g>
     </g>
    </g>
    <g id="ytick_14">
     <g id="line2d_36">
      <g>
       <use xlink:href="#m34c9979cb2" x="55.880346" y="123.426238" style="stroke: #000000; stroke-width: 0.6"/>
      </g>
     </g>
    </g>
    <g id="ytick_15">
     <g id="line2d_37">
      <g>
       <use xlink:href="#m34c9979cb2" x="55.880346" y="113.576981" style="stroke: #000000; stroke-width: 0.6"/>
      </g>
     </g>
    </g>
    <g id="ytick_16">
     <g id="line2d_38">
      <g>
       <use xlink:href="#m34c9979cb2" x="55.880346" y="105.249553" style="stroke: #000000; stroke-width: 0.6"/>
      </g>
     </g>
    </g>
    <g id="ytick_17">
     <g id="line2d_39">
      <g>
       <use xlink:href="#m34c9979cb2" x="55.880346" y="98.036006" style="stroke: #000000; stroke-width: 0.6"/>
      </g>
     </g>
    </g>
    <g id="ytick_18">
     <g id="line2d_40">
      <g>
       <use xlink:href="#m34c9979cb2" x="55.880346" y="91.673207" style="stroke: #000000; stroke-width: 0.6"/>
      </g>
     </g>
    </g>
    <g id="ytick_19">
     <g id="line2d_41">
      <g>
       <use xlink:href="#m34c9979cb2" x="55.880346" y="48.536742" style="stroke: #000000; stroke-width: 0.6"/>
      </g>
     </g>
    </g>
    <g id="text_14">
     <!-- MSE Loss -->
     <g transform="translate(19.300659 196.023906) rotate(-90) scale(0.1 -0.1)">
      <defs>
       <path id="DejaVuSans-4d" d="M 628 4666 
L 1569 4666 
L 2759 1491 
L 3956 4666 
L 4897 4666 
L 4897 0 
L 4281 0 
L 4281 4097 
L 3078 897 
L 2444 897 
L 1241 4097 
L 1241 0 
L 628 0 
L 628 4666 
z
" transform="scale(0.015625)"/>
       <path id="DejaVuSans-53" d="M 3425 4513 
L 3425 3897 
Q 3066 4069 2747 4153 
Q 2428 4238 2131 4238 
Q 1616 4238 1336 4038 
Q 1056 3838 1056 3469 
Q 1056 3159 1242 3001 
Q 1428 2844 1947 2747 
L 2328 2669 
Q 3034 2534 3370 2195 
Q 3706 1856 3706 1288 
Q 3706 609 3251 259 
Q 2797 -91 1919 -91 
Q 1588 -91 1214 -16 
Q 841 59 441 206 
L 441 856 
Q 825 641 1194 531 
Q 1563 422 1919 422 
Q 2459 422 2753 634 
Q 3047 847 3047 1241 
Q 3047 1584 2836 1778 
Q 2625 1972 2144 2069 
L 1759 2144 
Q 1053 2284 737 2584 
Q 422 2884 422 3419 
Q 422 4038 858 4394 
Q 1294 4750 2059 4750 
Q 2388 4750 2728 4690 
Q 3069 4631 3425 4513 
z
" transform="scale(0.015625)"/>
       <path id="DejaVuSans-20" transform="scale(0.015625)"/>
       <path id="DejaVuSans-4c" d="M 628 4666 
L 1259 4666 
L 1259 531 
L 3531 531 
L 3531 0 
L 628 0 
L 628 4666 
z
" transform="scale(0.015625)"/>
       <path id="DejaVuSans-73" d="M 2834 3397 
L 2834 2853 
Q 2591 2978 2328 3040 
Q 2066 3103 1784 3103 
Q 1356 3103 1142 2972 
Q 928 2841 928 2578 
Q 928 2378 1081 2264 
Q 1234 2150 1697 2047 
L 1894 2003 
Q 2506 1872 2764 1633 
Q 3022 1394 3022 966 
Q 3022 478 2636 193 
Q 2250 -91 1575 -91 
Q 1294 -91 989 -36 
Q 684 19 347 128 
L 347 722 
Q 666 556 975 473 
Q 1284 391 1588 391 
Q 1994 391 2212 530 
Q 2431 669 2431 922 
Q 2431 1156 2273 1281 
Q 2116 1406 1581 1522 
L 1381 1569 
Q 847 1681 609 1914 
Q 372 2147 372 2553 
Q 372 3047 722 3315 
Q 1072 3584 1716 3584 
Q 2034 3584 2315 3537 
Q 2597 3491 2834 3397 
z
" transform="scale(0.015625)"/>
      </defs>
      <use xlink:href="#DejaVuSans-4d"/>
      <use xlink:href="#DejaVuSans-53" transform="translate(86.279297 0)"/>
      <use xlink:href="#DejaVuSans-45" transform="translate(149.755859 0)"/>
      <use xlink:href="#DejaVuSans-20" transform="translate(212.939453 0)"/>
      <use xlink:href="#DejaVuSans-4c" transform="translate(244.726562 0)"/>
      <use xlink:href="#DejaVuSans-6f" transform="translate(298.689453 0)"/>
      <use xlink:href="#DejaVuSans-73" transform="translate(359.871094 0)"/>
      <use xlink:href="#DejaVuSans-73" transform="translate(411.970703 0)"/>
     </g>
    </g>
   </g>
   <g id="line2d_42">
    <path d="M 79.031239 40.801818 
L 81.692262 166.524238 
L 84.353284 203.535811 
L 87.014306 223.108084 
L 89.675328 234.951927 
L 92.336351 235.576508 
L 94.997373 240.122303 
L 97.658395 247.576108 
L 100.319417 252.58511 
L 102.98044 253.624767 
L 105.641462 246.349052 
L 108.302484 255.943156 
L 110.963506 262.381552 
L 113.624528 258.638193 
L 116.285551 260.96628 
L 118.946573 256.741565 
L 121.607595 268.92928 
L 124.268617 265.351018 
L 126.92964 271.390617 
L 129.590662 269.583183 
L 132.251684 276.365257 
L 134.912706 272.776737 
L 137.573728 280.460587 
L 140.234751 270.66939 
L 142.895773 276.977371 
L 145.556795 286.27018 
L 148.217817 288.022934 
L 150.87884 289.600747 
L 153.539862 286.788146 
L 156.200884 288.469232 
L 158.861906 288.367692 
L 161.522928 286.077282 
L 164.183951 288.045054 
L 166.844973 285.977616 
L 169.505995 288.674274 
L 172.167017 289.08287 
L 174.82804 288.421759 
L 177.489062 287.501268 
L 180.150084 290.213268 
L 182.811106 290.29293 
L 185.472128 289.801942 
L 188.133151 288.174833 
L 190.794173 291.121001 
L 193.455195 290.811857 
L 196.116217 288.322001 
L 198.77724 288.826437 
L 201.438262 294.588598 
L 204.099284 294.487811 
L 206.760306 293.232669 
L 209.421329 293.981466 
L 212.082351 293.778567 
L 214.743373 293.893135 
L 220.065417 293.194025 
L 222.72644 294.529478 
L 225.387462 293.640386 
L 228.048484 295.25649 
L 230.709506 294.137925 
L 233.370529 292.410135 
L 236.031551 294.616442 
L 238.692573 292.829873 
L 241.353595 293.886855 
L 244.014617 294.641218 
L 246.67564 297.086648 
L 249.336662 296.754459 
L 251.997684 296.703219 
L 259.980751 296.883608 
L 262.641773 296.864045 
L 267.963817 296.438244 
L 270.62484 297.801037 
L 273.285862 296.142525 
L 275.946884 297.500507 
L 278.607906 297.695584 
L 281.268929 299.00994 
L 283.929951 298.853024 
L 286.590973 297.521159 
L 289.251995 298.599721 
L 291.913017 297.973813 
L 294.57404 298.981952 
L 297.235062 297.870005 
L 299.896084 299.065069 
L 302.557106 298.537787 
L 305.218129 298.903248 
L 307.879151 298.337719 
L 310.540173 299.041995 
L 313.201195 298.718924 
L 315.862218 299.392663 
L 318.52324 299.308648 
L 321.184262 299.060354 
L 323.845284 299.169218 
L 326.506306 299.703743 
L 329.167329 298.800632 
L 331.828351 299.744938 
L 334.489373 299.761321 
L 337.150395 299.363354 
L 339.811418 299.929537 
L 342.47244 299.592154 
L 345.133462 298.911523 
L 347.794484 299.560972 
L 350.455506 299.644506 
L 353.116529 298.543034 
L 355.777551 298.670303 
L 358.438573 300.159288 
L 361.099595 299.487668 
L 363.760618 299.039332 
L 366.42164 300.227206 
L 369.082662 299.857769 
L 371.743684 300.260154 
L 374.404706 299.537873 
L 377.065729 299.570064 
L 379.726751 300.033714 
L 382.387773 299.590229 
L 385.048795 300.114033 
L 387.709818 299.371551 
L 390.37084 300.413015 
L 393.031862 299.600194 
L 395.692884 300.338756 
L 398.353906 300.143465 
L 401.014929 299.692825 
L 403.675951 299.575481 
L 406.336973 300.224322 
L 414.32004 299.375238 
L 416.981062 299.583565 
L 419.642084 299.964241 
L 422.303107 299.882167 
L 424.964129 299.537015 
L 427.625151 300.289938 
L 430.286173 299.077542 
L 432.947195 300.035327 
L 435.608218 299.519308 
L 438.26924 299.935105 
L 440.930262 299.715949 
L 443.591284 299.224035 
L 446.252307 300.103965 
L 448.913329 299.977855 
L 451.574351 300.48551 
L 454.235373 299.350518 
L 456.896395 299.757416 
L 459.557418 299.401515 
L 462.21844 299.998865 
L 467.540484 300.481439 
L 470.201507 299.545993 
L 472.862529 299.644084 
L 478.184573 299.510449 
L 480.845595 300.277574 
L 483.506618 300.437851 
L 488.828662 299.926223 
L 491.489684 300.308038 
L 499.472751 299.608181 
L 502.133773 299.689735 
L 504.794795 299.95533 
L 507.455818 299.781566 
L 510.11684 299.95757 
L 512.777862 299.960796 
L 515.438884 300.346044 
L 518.099907 300.405156 
L 520.760929 299.867748 
L 523.421951 300.049842 
L 526.082973 299.745023 
L 528.743996 300.365384 
L 531.405018 300.114191 
L 534.06604 299.392209 
L 536.727062 299.287089 
L 539.388084 300.213191 
L 542.049107 300.050195 
L 542.049107 300.050195 
" clip-path="url(#p9b7c01e445)" style="fill: none; stroke: #1f77b4; stroke-width: 2; stroke-linecap: square"/>
   </g>
   <g id="line2d_43">
    <path d="M 79.031239 268.894015 
L 81.692262 249.495088 
L 84.353284 228.355746 
L 87.014306 270.425543 
L 89.675328 254.215873 
L 92.336351 287.957951 
L 94.997373 271.994105 
L 97.658395 268.369559 
L 100.319417 278.705764 
L 102.98044 270.732515 
L 105.641462 279.328466 
L 108.302484 274.595676 
L 110.963506 242.271917 
L 113.624528 291.322207 
L 116.285551 253.278116 
L 118.946573 246.565861 
L 121.607595 263.073613 
L 124.268617 286.249767 
L 126.92964 279.539451 
L 129.590662 213.683738 
L 132.251684 271.992634 
L 134.912706 276.420824 
L 137.573728 268.038006 
L 140.234751 257.153616 
L 142.895773 276.638255 
L 145.556795 298.261245 
L 148.217817 285.008858 
L 150.87884 284.877781 
L 153.539862 302.12183 
L 156.200884 294.731472 
L 158.861906 299.483808 
L 161.522928 296.388444 
L 164.183951 300.111067 
L 169.505995 303.208963 
L 172.167017 297.510957 
L 174.82804 284.376326 
L 177.489062 258.252883 
L 180.150084 294.912556 
L 182.811106 301.391185 
L 185.472128 289.877266 
L 188.133151 249.839049 
L 190.794173 266.715038 
L 193.455195 275.135987 
L 196.116217 290.440555 
L 198.77724 300.881282 
L 201.438262 294.95383 
L 204.099284 297.477297 
L 206.760306 299.20879 
L 209.421329 279.201412 
L 212.082351 295.824095 
L 214.743373 303.929515 
L 217.404395 292.320384 
L 220.065417 277.987517 
L 222.72644 289.082571 
L 225.387462 301.266504 
L 228.048484 264.748962 
L 230.709506 300.153956 
L 233.370529 302.255054 
L 236.031551 284.95253 
L 238.692573 292.975249 
L 241.353595 297.480704 
L 244.014617 297.654355 
L 246.67564 287.38864 
L 249.336662 281.791313 
L 251.997684 287.685443 
L 254.658706 294.242551 
L 257.319729 299.721222 
L 259.980751 297.16575 
L 262.641773 296.742711 
L 265.302795 298.709985 
L 267.963817 293.79244 
L 270.62484 301.334848 
L 273.285862 303.459618 
L 275.946884 304.838182 
L 278.607906 299.542895 
L 281.268929 295.384421 
L 283.929951 287.995359 
L 286.590973 295.060958 
L 289.251995 297.87462 
L 291.913017 289.552606 
L 294.57404 304.529292 
L 297.235062 303.693525 
L 299.896084 293.682975 
L 302.557106 291.23974 
L 305.218129 293.262704 
L 307.879151 299.50682 
L 310.540173 297.831848 
L 313.201195 295.713114 
L 315.862218 298.332758 
L 318.52324 300.757125 
L 321.184262 301.995184 
L 323.845284 302.452616 
L 326.506306 295.483039 
L 329.167329 296.979615 
L 331.828351 300.998212 
L 334.489373 300.221491 
L 337.150395 301.310105 
L 339.811418 297.480337 
L 342.47244 299.905394 
L 345.133462 298.460083 
L 347.794484 298.826124 
L 350.455506 299.374533 
L 353.116529 297.573346 
L 355.777551 300.774698 
L 358.438573 301.866797 
L 361.099595 297.71969 
L 363.760618 299.026491 
L 366.42164 299.798605 
L 369.082662 299.660774 
L 371.743684 300.319682 
L 374.404706 298.748304 
L 377.065729 300.473932 
L 379.726751 301.792721 
L 382.387773 300.20139 
L 385.048795 298.880655 
L 387.709818 299.486631 
L 390.37084 297.298802 
L 393.031862 296.058321 
L 395.692884 297.638789 
L 398.353906 298.913537 
L 401.014929 296.540513 
L 403.675951 297.561143 
L 406.336973 299.430696 
L 408.997995 297.589885 
L 411.659018 300.293289 
L 414.32004 298.791934 
L 416.981062 297.986818 
L 419.642084 298.763616 
L 422.303107 298.389757 
L 424.964129 300.546659 
L 427.625151 299.190568 
L 430.286173 297.636642 
L 432.947195 299.318872 
L 435.608218 299.222991 
L 438.26924 293.442198 
L 440.930262 299.047657 
L 443.591284 299.6607 
L 448.913329 300.30804 
L 451.574351 297.362875 
L 454.235373 295.450867 
L 456.896395 297.412105 
L 459.557418 294.968517 
L 462.21844 300.951259 
L 464.879462 296.593502 
L 467.540484 297.812263 
L 470.201507 297.017754 
L 472.862529 299.290415 
L 475.523551 297.723555 
L 478.184573 299.520973 
L 480.845595 294.882931 
L 483.506618 299.419697 
L 486.16764 298.999757 
L 488.828662 298.776271 
L 491.489684 299.090709 
L 494.150707 298.671862 
L 496.811729 300.211321 
L 499.472751 299.248104 
L 502.133773 298.81962 
L 504.794795 296.089259 
L 507.455818 300.405772 
L 510.11684 297.001303 
L 512.777862 299.678088 
L 515.438884 298.346078 
L 518.099907 301.220593 
L 520.760929 300.687085 
L 523.421951 298.05425 
L 526.082973 296.919937 
L 528.743996 298.915342 
L 531.405018 300.272879 
L 534.06604 297.180185 
L 536.727062 299.928644 
L 539.388084 297.028685 
L 542.049107 299.294562 
L 542.049107 299.294562 
" clip-path="url(#p9b7c01e445)" style="fill: none; stroke: #ff7f0e; stroke-width: 2; stroke-linecap: square"/>
   </g>
   <g id="patch_3">
    <path d="M 55.880346 318.04 
L 55.880346 27.6 
" style="fill: none; stroke: #000000; stroke-width: 0.8; stroke-linejoin: miter; stroke-linecap: square"/>
   </g>
   <g id="patch_4">
    <path d="M 565.2 318.04 
L 565.2 27.6 
" style="fill: none; stroke: #000000; stroke-width: 0.8; stroke-linejoin: miter; stroke-linecap: square"/>
   </g>
   <g id="patch_5">
    <path d="M 55.880346 318.04 
L 565.2 318.04 
" style="fill: none; stroke: #000000; stroke-width: 0.8; stroke-linejoin: miter; stroke-linecap: square"/>
   </g>
   <g id="patch_6">
    <path d="M 55.880346 27.6 
L 565.2 27.6 
" style="fill: none; stroke: #000000; stroke-width: 0.8; stroke-linejoin: miter; stroke-linecap: square"/>
   </g>
   <g id="text_15">
    <!-- Evolución del Loss por Época -->
    <g transform="translate(223.467048 21.6) scale(0.12 -0.12)">
     <defs>
      <path id="DejaVuSans-76" d="M 191 3500 
L 800 3500 
L 1894 563 
L 2988 3500 
L 3597 3500 
L 2284 0 
L 1503 0 
L 191 3500 
z
" transform="scale(0.015625)"/>
      <path id="DejaVuSans-6c" d="M 603 4863 
L 1178 4863 
L 1178 0 
L 603 0 
L 603 4863 
z
" transform="scale(0.015625)"/>
      <path id="DejaVuSans-75" d="M 544 1381 
L 544 3500 
L 1119 3500 
L 1119 1403 
Q 1119 906 1312 657 
Q 1506 409 1894 409 
Q 2359 409 2629 706 
Q 2900 1003 2900 1516 
L 2900 3500 
L 3475 3500 
L 3475 0 
L 2900 0 
L 2900 538 
Q 2691 219 2414 64 
Q 2138 -91 1772 -91 
Q 1169 -91 856 284 
Q 544 659 544 1381 
z
M 1991 3584 
L 1991 3584 
z
" transform="scale(0.015625)"/>
      <path id="DejaVuSans-69" d="M 603 3500 
L 1178 3500 
L 1178 0 
L 603 0 
L 603 3500 
z
M 603 4863 
L 1178 4863 
L 1178 4134 
L 603 4134 
L 603 4863 
z
" transform="scale(0.015625)"/>
      <path id="DejaVuSans-f3" d="M 1959 3097 
Q 1497 3097 1228 2736 
Q 959 2375 959 1747 
Q 959 1119 1226 758 
Q 1494 397 1959 397 
Q 2419 397 2687 759 
Q 2956 1122 2956 1747 
Q 2956 2369 2687 2733 
Q 2419 3097 1959 3097 
z
M 1959 3584 
Q 2709 3584 3137 3096 
Q 3566 2609 3566 1747 
Q 3566 888 3137 398 
Q 2709 -91 1959 -91 
Q 1206 -91 779 398 
Q 353 888 353 1747 
Q 353 2609 779 3096 
Q 1206 3584 1959 3584 
z
M 2394 5119 
L 3016 5119 
L 1997 3944 
L 1519 3944 
L 2394 5119 
z
" transform="scale(0.015625)"/>
      <path id="DejaVuSans-6e" d="M 3513 2113 
L 3513 0 
L 2938 0 
L 2938 2094 
Q 2938 2591 2744 2837 
Q 2550 3084 2163 3084 
Q 1697 3084 1428 2787 
Q 1159 2491 1159 1978 
L 1159 0 
L 581 0 
L 581 3500 
L 1159 3500 
L 1159 2956 
Q 1366 3272 1645 3428 
Q 1925 3584 2291 3584 
Q 2894 3584 3203 3211 
Q 3513 2838 3513 2113 
z
" transform="scale(0.015625)"/>
      <path id="DejaVuSans-64" d="M 2906 2969 
L 2906 4863 
L 3481 4863 
L 3481 0 
L 2906 0 
L 2906 525 
Q 2725 213 2448 61 
Q 2172 -91 1784 -91 
Q 1150 -91 751 415 
Q 353 922 353 1747 
Q 353 2572 751 3078 
Q 1150 3584 1784 3584 
Q 2172 3584 2448 3432 
Q 2725 3281 2906 2969 
z
M 947 1747 
Q 947 1113 1208 752 
Q 1469 391 1925 391 
Q 2381 391 2643 752 
Q 2906 1113 2906 1747 
Q 2906 2381 2643 2742 
Q 2381 3103 1925 3103 
Q 1469 3103 1208 2742 
Q 947 2381 947 1747 
z
" transform="scale(0.015625)"/>
      <path id="DejaVuSans-65" d="M 3597 1894 
L 3597 1613 
L 953 1613 
Q 991 1019 1311 708 
Q 1631 397 2203 397 
Q 2534 397 2845 478 
Q 3156 559 3463 722 
L 3463 178 
Q 3153 47 2828 -22 
Q 2503 -91 2169 -91 
Q 1331 -91 842 396 
Q 353 884 353 1716 
Q 353 2575 817 3079 
Q 1281 3584 2069 3584 
Q 2775 3584 3186 3129 
Q 3597 2675 3597 1894 
z
M 3022 2063 
Q 3016 2534 2758 2815 
Q 2500 3097 2075 3097 
Q 1594 3097 1305 2825 
Q 1016 2553 972 2059 
L 3022 2063 
z
" transform="scale(0.015625)"/>
      <path id="DejaVuSans-72" d="M 2631 2963 
Q 2534 3019 2420 3045 
Q 2306 3072 2169 3072 
Q 1681 3072 1420 2755 
Q 1159 2438 1159 1844 
L 1159 0 
L 581 0 
L 581 3500 
L 1159 3500 
L 1159 2956 
Q 1341 3275 1631 3429 
Q 1922 3584 2338 3584 
Q 2397 3584 2469 3576 
Q 2541 3569 2628 3553 
L 2631 2963 
z
" transform="scale(0.015625)"/>
      <path id="DejaVuSans-c9" d="M 628 4666 
L 3578 4666 
L 3578 4134 
L 1259 4134 
L 1259 2753 
L 3481 2753 
L 3481 2222 
L 1259 2222 
L 1259 531 
L 3634 531 
L 3634 0 
L 628 0 
L 628 4666 
z
M 2266 5935 
L 2844 5935 
L 2131 5110 
L 1653 5110 
L 2266 5935 
z
" transform="scale(0.015625)"/>
      <path id="DejaVuSans-61" d="M 2194 1759 
Q 1497 1759 1228 1600 
Q 959 1441 959 1056 
Q 959 750 1161 570 
Q 1363 391 1709 391 
Q 2188 391 2477 730 
Q 2766 1069 2766 1631 
L 2766 1759 
L 2194 1759 
z
M 3341 1997 
L 3341 0 
L 2766 0 
L 2766 531 
Q 2569 213 2275 61 
Q 1981 -91 1556 -91 
Q 1019 -91 701 211 
Q 384 513 384 1019 
Q 384 1609 779 1909 
Q 1175 2209 1959 2209 
L 2766 2209 
L 2766 2266 
Q 2766 2663 2505 2880 
Q 2244 3097 1772 3097 
Q 1472 3097 1187 3025 
Q 903 2953 641 2809 
L 641 3341 
Q 956 3463 1253 3523 
Q 1550 3584 1831 3584 
Q 2591 3584 2966 3190 
Q 3341 2797 3341 1997 
z
" transform="scale(0.015625)"/>
     </defs>
     <use xlink:href="#DejaVuSans-45"/>
     <use xlink:href="#DejaVuSans-76" transform="translate(63.183594 0)"/>
     <use xlink:href="#DejaVuSans-6f" transform="translate(122.363281 0)"/>
     <use xlink:href="#DejaVuSans-6c" transform="translate(183.544922 0)"/>
     <use xlink:href="#DejaVuSans-75" transform="translate(211.328125 0)"/>
     <use xlink:href="#DejaVuSans-63" transform="translate(274.707031 0)"/>
     <use xlink:href="#DejaVuSans-69" transform="translate(329.6875 0)"/>
     <use xlink:href="#DejaVuSans-f3" transform="translate(357.470703 0)"/>
     <use xlink:href="#DejaVuSans-6e" transform="translate(418.652344 0)"/>
     <use xlink:href="#DejaVuSans-20" transform="translate(482.03125 0)"/>
     <use xlink:href="#DejaVuSans-64" transform="translate(513.818359 0)"/>
     <use xlink:href="#DejaVuSans-65" transform="translate(577.294922 0)"/>
     <use xlink:href="#DejaVuSans-6c" transform="translate(638.818359 0)"/>
     <use xlink:href="#DejaVuSans-20" transform="translate(666.601562 0)"/>
     <use xlink:href="#DejaVuSans-4c" transform="translate(698.388672 0)"/>
     <use xlink:href="#DejaVuSans-6f" transform="translate(752.351562 0)"/>
     <use xlink:href="#DejaVuSans-73" transform="translate(813.533203 0)"/>
     <use xlink:href="#DejaVuSans-73" transform="translate(865.632812 0)"/>
     <use xlink:href="#DejaVuSans-20" transform="translate(917.732422 0)"/>
     <use xlink:href="#DejaVuSans-70" transform="translate(949.519531 0)"/>
     <use xlink:href="#DejaVuSans-6f" transform="translate(1012.996094 0)"/>
     <use xlink:href="#DejaVuSans-72" transform="translate(1074.177734 0)"/>
     <use xlink:href="#DejaVuSans-20" transform="translate(1115.291016 0)"/>
     <use xlink:href="#DejaVuSans-c9" transform="translate(1147.078125 0)"/>
     <use xlink:href="#DejaVuSans-70" transform="translate(1210.261719 0)"/>
     <use xlink:href="#DejaVuSans-6f" transform="translate(1273.738281 0)"/>
     <use xlink:href="#DejaVuSans-63" transform="translate(1334.919922 0)"/>
     <use xlink:href="#DejaVuSans-61" transform="translate(1389.900391 0)"/>
    </g>
   </g>
   <g id="legend_1">
    <g id="patch_7">
     <path d="M 453.839062 64.95625 
L 558.2 64.95625 
Q 560.2 64.95625 560.2 62.95625 
L 560.2 34.6 
Q 560.2 32.6 558.2 32.6 
L 453.839062 32.6 
Q 451.839062 32.6 451.839062 34.6 
L 451.839062 62.95625 
Q 451.839062 64.95625 453.839062 64.95625 
z
" style="fill: #ffffff; opacity: 0.8; stroke: #cccccc; stroke-linejoin: miter"/>
    </g>
    <g id="line2d_44">
     <path d="M 455.839062 40.698438 
L 465.839062 40.698438 
L 475.839062 40.698438 
" style="fill: none; stroke: #1f77b4; stroke-width: 2; stroke-linecap: square"/>
    </g>
    <g id="text_16">
     <!-- Train Loss -->
     <g transform="translate(483.839062 44.198438) scale(0.1 -0.1)">
      <defs>
       <path id="DejaVuSans-54" d="M -19 4666 
L 3928 4666 
L 3928 4134 
L 2272 4134 
L 2272 0 
L 1638 0 
L 1638 4134 
L -19 4134 
L -19 4666 
z
" transform="scale(0.015625)"/>
      </defs>
      <use xlink:href="#DejaVuSans-54"/>
      <use xlink:href="#DejaVuSans-72" transform="translate(46.333984 0)"/>
      <use xlink:href="#DejaVuSans-61" transform="translate(87.447266 0)"/>
      <use xlink:href="#DejaVuSans-69" transform="translate(148.726562 0)"/>
      <use xlink:href="#DejaVuSans-6e" transform="translate(176.509766 0)"/>
      <use xlink:href="#DejaVuSans-20" transform="translate(239.888672 0)"/>
      <use xlink:href="#DejaVuSans-4c" transform="translate(271.675781 0)"/>
      <use xlink:href="#DejaVuSans-6f" transform="translate(325.638672 0)"/>
      <use xlink:href="#DejaVuSans-73" transform="translate(386.820312 0)"/>
      <use xlink:href="#DejaVuSans-73" transform="translate(438.919922 0)"/>
     </g>
    </g>
    <g id="line2d_45">
     <path d="M 455.839062 55.376563 
L 465.839062 55.376563 
L 475.839062 55.376563 
" style="fill: none; stroke: #ff7f0e; stroke-width: 2; stroke-linecap: square"/>
    </g>
    <g id="text_17">
     <!-- Val Loss (MSE) -->
     <g transform="translate(483.839062 58.876563) scale(0.1 -0.1)">
      <defs>
       <path id="DejaVuSans-56" d="M 1831 0 
L 50 4666 
L 709 4666 
L 2188 738 
L 3669 4666 
L 4325 4666 
L 2547 0 
L 1831 0 
z
" transform="scale(0.015625)"/>
       <path id="DejaVuSans-28" d="M 1984 4856 
Q 1566 4138 1362 3434 
Q 1159 2731 1159 2009 
Q 1159 1288 1364 580 
Q 1569 -128 1984 -844 
L 1484 -844 
Q 1016 -109 783 600 
Q 550 1309 550 2009 
Q 550 2706 781 3412 
Q 1013 4119 1484 4856 
L 1984 4856 
z
" transform="scale(0.015625)"/>
       <path id="DejaVuSans-29" d="M 513 4856 
L 1013 4856 
Q 1481 4119 1714 3412 
Q 1947 2706 1947 2009 
Q 1947 1309 1714 600 
Q 1481 -109 1013 -844 
L 513 -844 
Q 928 -128 1133 580 
Q 1338 1288 1338 2009 
Q 1338 2731 1133 3434 
Q 928 4138 513 4856 
z
" transform="scale(0.015625)"/>
      </defs>
      <use xlink:href="#DejaVuSans-56"/>
      <use xlink:href="#DejaVuSans-61" transform="translate(60.658203 0)"/>
      <use xlink:href="#DejaVuSans-6c" transform="translate(121.9375 0)"/>
      <use xlink:href="#DejaVuSans-20" transform="translate(149.720703 0)"/>
      <use xlink:href="#DejaVuSans-4c" transform="translate(181.507812 0)"/>
      <use xlink:href="#DejaVuSans-6f" transform="translate(235.470703 0)"/>
      <use xlink:href="#DejaVuSans-73" transform="translate(296.652344 0)"/>
      <use xlink:href="#DejaVuSans-73" transform="translate(348.751953 0)"/>
      <use xlink:href="#DejaVuSans-20" transform="translate(400.851562 0)"/>
      <use xlink:href="#DejaVuSans-28" transform="translate(432.638672 0)"/>
      <use xlink:href="#DejaVuSans-4d" transform="translate(471.652344 0)"/>
      <use xlink:href="#DejaVuSans-53" transform="translate(557.931641 0)"/>
      <use xlink:href="#DejaVuSans-45" transform="translate(621.408203 0)"/>
      <use xlink:href="#DejaVuSans-29" transform="translate(684.591797 0)"/>
     </g>
    </g>
   </g>
  </g>
 </g>
 <defs>
  <clipPath id="p9b7c01e445">
   <rect x="55.880346" y="27.6" width="509.319654" height="290.44"/>
  </clipPath>
 </defs>
</svg>
