<?xml version="1.0" encoding="utf-8" standalone="no"?>
<!DOCTYPE svg PUBLIC "-//W3C//DTD SVG 1.1//EN"
  "http://www.w3.org/Graphics/SVG/1.1/DTD/svg11.dtd">
<svg xmlns:xlink="http://www.w3.org/1999/xlink" width="576pt" height="360pt" viewBox="0 0 576 360" xmlns="http://www.w3.org/2000/svg" version="1.1">
 <metadata>
  <rdf:RDF xmlns:dc="http://purl.org/dc/elements/1.1/" xmlns:cc="http://creativecommons.org/ns#" xmlns:rdf="http://www.w3.org/1999/02/22-rdf-syntax-ns#">
   <cc:Work>
    <dc:type rdf:resource="http://purl.org/dc/dcmitype/StillImage"/>
    <dc:date>2025-05-09T12:27:35.689106</dc:date>
    <dc:format>image/svg+xml</dc:format>
    <dc:creator>
     <cc:Agent>
      <dc:title>Matplotlib v3.10.1, https://matplotlib.org/</dc:title>
     </cc:Agent>
    </dc:creator>
   </cc:Work>
  </rdf:RDF>
 </metadata>
 <defs>
  <style type="text/css">*{stroke-linejoin: round; stroke-linecap: butt}</style>
 </defs>
 <g id="figure_1">
  <g id="patch_1">
   <path d="M 0 360 
L 576 360 
L 576 0 
L 0 0 
z
" style="fill: #ffffff"/>
  </g>
  <g id="axes_1">
   <g id="patch_2">
    <path d="M 55.880346 318.04 
L 564.787603 318.04 
L 564.787603 27.6 
L 55.880346 27.6 
z
" style="fill: #ffffff"/>
   </g>
   <g id="matplotlib.axis_1">
    <g id="xtick_1">
     <g id="line2d_1">
      <path d="M 79.012494 318.04 
L 79.012494 27.6 
" clip-path="url(#p0cbd32db10)" style="fill: none; stroke: #b0b0b0; stroke-width: 0.8; stroke-linecap: square"/>
     </g>
     <g id="line2d_2">
      <defs>
       <path id="m9725f9c1be" d="M 0 0 
L 0 3.5 
" style="stroke: #000000; stroke-width: 0.8"/>
      </defs>
      <g>
       <use xlink:href="#m9725f9c1be" x="79.012494" y="318.04" style="stroke: #000000; stroke-width: 0.8"/>
      </g>
     </g>
     <g id="text_1">
      <!-- 0 -->
      <g transform="translate(75.831244 332.638438) scale(0.1 -0.1)">
       <defs>
        <path id="DejaVuSans-30" d="M 2034 4250 
Q 1547 4250 1301 3770 
Q 1056 3291 1056 2328 
Q 1056 1369 1301 889 
Q 1547 409 2034 409 
Q 2525 409 2770 889 
Q 3016 1369 3016 2328 
Q 3016 3291 2770 3770 
Q 2525 4250 2034 4250 
z
M 2034 4750 
Q 2819 4750 3233 4129 
Q 3647 3509 3647 2328 
Q 3647 1150 3233 529 
Q 2819 -91 2034 -91 
Q 1250 -91 836 529 
Q 422 1150 422 2328 
Q 422 3509 836 4129 
Q 1250 4750 2034 4750 
z
" transform="scale(0.015625)"/>
       </defs>
       <use xlink:href="#DejaVuSans-30"/>
      </g>
     </g>
    </g>
    <g id="xtick_2">
     <g id="line2d_3">
      <path d="M 142.388242 318.04 
L 142.388242 27.6 
" clip-path="url(#p0cbd32db10)" style="fill: none; stroke: #b0b0b0; stroke-width: 0.8; stroke-linecap: square"/>
     </g>
     <g id="line2d_4">
      <g>
       <use xlink:href="#m9725f9c1be" x="142.388242" y="318.04" style="stroke: #000000; stroke-width: 0.8"/>
      </g>
     </g>
     <g id="text_2">
      <!-- 80 -->
      <g transform="translate(136.025742 332.638438) scale(0.1 -0.1)">
       <defs>
        <path id="DejaVuSans-38" d="M 2034 2216 
Q 1584 2216 1326 1975 
Q 1069 1734 1069 1313 
Q 1069 891 1326 650 
Q 1584 409 2034 409 
Q 2484 409 2743 651 
Q 3003 894 3003 1313 
Q 3003 1734 2745 1975 
Q 2488 2216 2034 2216 
z
M 1403 2484 
Q 997 2584 770 2862 
Q 544 3141 544 3541 
Q 544 4100 942 4425 
Q 1341 4750 2034 4750 
Q 2731 4750 3128 4425 
Q 3525 4100 3525 3541 
Q 3525 3141 3298 2862 
Q 3072 2584 2669 2484 
Q 3125 2378 3379 2068 
Q 3634 1759 3634 1313 
Q 3634 634 3220 271 
Q 2806 -91 2034 -91 
Q 1263 -91 848 271 
Q 434 634 434 1313 
Q 434 1759 690 2068 
Q 947 2378 1403 2484 
z
M 1172 3481 
Q 1172 3119 1398 2916 
Q 1625 2713 2034 2713 
Q 2441 2713 2670 2916 
Q 2900 3119 2900 3481 
Q 2900 3844 2670 4047 
Q 2441 4250 2034 4250 
Q 1625 4250 1398 4047 
Q 1172 3844 1172 3481 
z
" transform="scale(0.015625)"/>
       </defs>
       <use xlink:href="#DejaVuSans-38"/>
       <use xlink:href="#DejaVuSans-30" transform="translate(63.623047 0)"/>
      </g>
     </g>
    </g>
    <g id="xtick_3">
     <g id="line2d_5">
      <path d="M 205.76399 318.04 
L 205.76399 27.6 
" clip-path="url(#p0cbd32db10)" style="fill: none; stroke: #b0b0b0; stroke-width: 0.8; stroke-linecap: square"/>
     </g>
     <g id="line2d_6">
      <g>
       <use xlink:href="#m9725f9c1be" x="205.76399" y="318.04" style="stroke: #000000; stroke-width: 0.8"/>
      </g>
     </g>
     <g id="text_3">
      <!-- 160 -->
      <g transform="translate(196.22024 332.638438) scale(0.1 -0.1)">
       <defs>
        <path id="DejaVuSans-31" d="M 794 531 
L 1825 531 
L 1825 4091 
L 703 3866 
L 703 4441 
L 1819 4666 
L 2450 4666 
L 2450 531 
L 3481 531 
L 3481 0 
L 794 0 
L 794 531 
z
" transform="scale(0.015625)"/>
        <path id="DejaVuSans-36" d="M 2113 2584 
Q 1688 2584 1439 2293 
Q 1191 2003 1191 1497 
Q 1191 994 1439 701 
Q 1688 409 2113 409 
Q 2538 409 2786 701 
Q 3034 994 3034 1497 
Q 3034 2003 2786 2293 
Q 2538 2584 2113 2584 
z
M 3366 4563 
L 3366 3988 
Q 3128 4100 2886 4159 
Q 2644 4219 2406 4219 
Q 1781 4219 1451 3797 
Q 1122 3375 1075 2522 
Q 1259 2794 1537 2939 
Q 1816 3084 2150 3084 
Q 2853 3084 3261 2657 
Q 3669 2231 3669 1497 
Q 3669 778 3244 343 
Q 2819 -91 2113 -91 
Q 1303 -91 875 529 
Q 447 1150 447 2328 
Q 447 3434 972 4092 
Q 1497 4750 2381 4750 
Q 2619 4750 2861 4703 
Q 3103 4656 3366 4563 
z
" transform="scale(0.015625)"/>
       </defs>
       <use xlink:href="#DejaVuSans-31"/>
       <use xlink:href="#DejaVuSans-36" transform="translate(63.623047 0)"/>
       <use xlink:href="#DejaVuSans-30" transform="translate(127.246094 0)"/>
      </g>
     </g>
    </g>
    <g id="xtick_4">
     <g id="line2d_7">
      <path d="M 269.139738 318.04 
L 269.139738 27.6 
" clip-path="url(#p0cbd32db10)" style="fill: none; stroke: #b0b0b0; stroke-width: 0.8; stroke-linecap: square"/>
     </g>
     <g id="line2d_8">
      <g>
       <use xlink:href="#m9725f9c1be" x="269.139738" y="318.04" style="stroke: #000000; stroke-width: 0.8"/>
      </g>
     </g>
     <g id="text_4">
      <!-- 240 -->
      <g transform="translate(259.595988 332.638438) scale(0.1 -0.1)">
       <defs>
        <path id="DejaVuSans-32" d="M 1228 531 
L 3431 531 
L 3431 0 
L 469 0 
L 469 531 
Q 828 903 1448 1529 
Q 2069 2156 2228 2338 
Q 2531 2678 2651 2914 
Q 2772 3150 2772 3378 
Q 2772 3750 2511 3984 
Q 2250 4219 1831 4219 
Q 1534 4219 1204 4116 
Q 875 4013 500 3803 
L 500 4441 
Q 881 4594 1212 4672 
Q 1544 4750 1819 4750 
Q 2544 4750 2975 4387 
Q 3406 4025 3406 3419 
Q 3406 3131 3298 2873 
Q 3191 2616 2906 2266 
Q 2828 2175 2409 1742 
Q 1991 1309 1228 531 
z
" transform="scale(0.015625)"/>
        <path id="DejaVuSans-34" d="M 2419 4116 
L 825 1625 
L 2419 1625 
L 2419 4116 
z
M 2253 4666 
L 3047 4666 
L 3047 1625 
L 3713 1625 
L 3713 1100 
L 3047 1100 
L 3047 0 
L 2419 0 
L 2419 1100 
L 313 1100 
L 313 1709 
L 2253 4666 
z
" transform="scale(0.015625)"/>
       </defs>
       <use xlink:href="#DejaVuSans-32"/>
       <use xlink:href="#DejaVuSans-34" transform="translate(63.623047 0)"/>
       <use xlink:href="#DejaVuSans-30" transform="translate(127.246094 0)"/>
      </g>
     </g>
    </g>
    <g id="xtick_5">
     <g id="line2d_9">
      <path d="M 332.515486 318.04 
L 332.515486 27.6 
" clip-path="url(#p0cbd32db10)" style="fill: none; stroke: #b0b0b0; stroke-width: 0.8; stroke-linecap: square"/>
     </g>
     <g id="line2d_10">
      <g>
       <use xlink:href="#m9725f9c1be" x="332.515486" y="318.04" style="stroke: #000000; stroke-width: 0.8"/>
      </g>
     </g>
     <g id="text_5">
      <!-- 320 -->
      <g transform="translate(322.971736 332.638438) scale(0.1 -0.1)">
       <defs>
        <path id="DejaVuSans-33" d="M 2597 2516 
Q 3050 2419 3304 2112 
Q 3559 1806 3559 1356 
Q 3559 666 3084 287 
Q 2609 -91 1734 -91 
Q 1441 -91 1130 -33 
Q 819 25 488 141 
L 488 750 
Q 750 597 1062 519 
Q 1375 441 1716 441 
Q 2309 441 2620 675 
Q 2931 909 2931 1356 
Q 2931 1769 2642 2001 
Q 2353 2234 1838 2234 
L 1294 2234 
L 1294 2753 
L 1863 2753 
Q 2328 2753 2575 2939 
Q 2822 3125 2822 3475 
Q 2822 3834 2567 4026 
Q 2313 4219 1838 4219 
Q 1578 4219 1281 4162 
Q 984 4106 628 3988 
L 628 4550 
Q 988 4650 1302 4700 
Q 1616 4750 1894 4750 
Q 2613 4750 3031 4423 
Q 3450 4097 3450 3541 
Q 3450 3153 3228 2886 
Q 3006 2619 2597 2516 
z
" transform="scale(0.015625)"/>
       </defs>
       <use xlink:href="#DejaVuSans-33"/>
       <use xlink:href="#DejaVuSans-32" transform="translate(63.623047 0)"/>
       <use xlink:href="#DejaVuSans-30" transform="translate(127.246094 0)"/>
      </g>
     </g>
    </g>
    <g id="xtick_6">
     <g id="line2d_11">
      <path d="M 395.891234 318.04 
L 395.891234 27.6 
" clip-path="url(#p0cbd32db10)" style="fill: none; stroke: #b0b0b0; stroke-width: 0.8; stroke-linecap: square"/>
     </g>
     <g id="line2d_12">
      <g>
       <use xlink:href="#m9725f9c1be" x="395.891234" y="318.04" style="stroke: #000000; stroke-width: 0.8"/>
      </g>
     </g>
     <g id="text_6">
      <!-- 400 -->
      <g transform="translate(386.347484 332.638438) scale(0.1 -0.1)">
       <use xlink:href="#DejaVuSans-34"/>
       <use xlink:href="#DejaVuSans-30" transform="translate(63.623047 0)"/>
       <use xlink:href="#DejaVuSans-30" transform="translate(127.246094 0)"/>
      </g>
     </g>
    </g>
    <g id="xtick_7">
     <g id="line2d_13">
      <path d="M 459.266982 318.04 
L 459.266982 27.6 
" clip-path="url(#p0cbd32db10)" style="fill: none; stroke: #b0b0b0; stroke-width: 0.8; stroke-linecap: square"/>
     </g>
     <g id="line2d_14">
      <g>
       <use xlink:href="#m9725f9c1be" x="459.266982" y="318.04" style="stroke: #000000; stroke-width: 0.8"/>
      </g>
     </g>
     <g id="text_7">
      <!-- 480 -->
      <g transform="translate(449.723232 332.638438) scale(0.1 -0.1)">
       <use xlink:href="#DejaVuSans-34"/>
       <use xlink:href="#DejaVuSans-38" transform="translate(63.623047 0)"/>
       <use xlink:href="#DejaVuSans-30" transform="translate(127.246094 0)"/>
      </g>
     </g>
    </g>
    <g id="xtick_8">
     <g id="line2d_15">
      <path d="M 522.64273 318.04 
L 522.64273 27.6 
" clip-path="url(#p0cbd32db10)" style="fill: none; stroke: #b0b0b0; stroke-width: 0.8; stroke-linecap: square"/>
     </g>
     <g id="line2d_16">
      <g>
       <use xlink:href="#m9725f9c1be" x="522.64273" y="318.04" style="stroke: #000000; stroke-width: 0.8"/>
      </g>
     </g>
     <g id="text_8">
      <!-- 560 -->
      <g transform="translate(513.09898 332.638438) scale(0.1 -0.1)">
       <defs>
        <path id="DejaVuSans-35" d="M 691 4666 
L 3169 4666 
L 3169 4134 
L 1269 4134 
L 1269 2991 
Q 1406 3038 1543 3061 
Q 1681 3084 1819 3084 
Q 2600 3084 3056 2656 
Q 3513 2228 3513 1497 
Q 3513 744 3044 326 
Q 2575 -91 1722 -91 
Q 1428 -91 1123 -41 
Q 819 9 494 109 
L 494 744 
Q 775 591 1075 516 
Q 1375 441 1709 441 
Q 2250 441 2565 725 
Q 2881 1009 2881 1497 
Q 2881 1984 2565 2268 
Q 2250 2553 1709 2553 
Q 1456 2553 1204 2497 
Q 953 2441 691 2322 
L 691 4666 
z
" transform="scale(0.015625)"/>
       </defs>
       <use xlink:href="#DejaVuSans-35"/>
       <use xlink:href="#DejaVuSans-36" transform="translate(63.623047 0)"/>
       <use xlink:href="#DejaVuSans-30" transform="translate(127.246094 0)"/>
      </g>
     </g>
    </g>
    <g id="text_9">
     <!-- Epoch -->
     <g transform="translate(295.023037 346.316563) scale(0.1 -0.1)">
      <defs>
       <path id="DejaVuSans-45" d="M 628 4666 
L 3578 4666 
L 3578 4134 
L 1259 4134 
L 1259 2753 
L 3481 2753 
L 3481 2222 
L 1259 2222 
L 1259 531 
L 3634 531 
L 3634 0 
L 628 0 
L 628 4666 
z
" transform="scale(0.015625)"/>
       <path id="DejaVuSans-70" d="M 1159 525 
L 1159 -1331 
L 581 -1331 
L 581 3500 
L 1159 3500 
L 1159 2969 
Q 1341 3281 1617 3432 
Q 1894 3584 2278 3584 
Q 2916 3584 3314 3078 
Q 3713 2572 3713 1747 
Q 3713 922 3314 415 
Q 2916 -91 2278 -91 
Q 1894 -91 1617 61 
Q 1341 213 1159 525 
z
M 3116 1747 
Q 3116 2381 2855 2742 
Q 2594 3103 2138 3103 
Q 1681 3103 1420 2742 
Q 1159 2381 1159 1747 
Q 1159 1113 1420 752 
Q 1681 391 2138 391 
Q 2594 391 2855 752 
Q 3116 1113 3116 1747 
z
" transform="scale(0.015625)"/>
       <path id="DejaVuSans-6f" d="M 1959 3097 
Q 1497 3097 1228 2736 
Q 959 2375 959 1747 
Q 959 1119 1226 758 
Q 1494 397 1959 397 
Q 2419 397 2687 759 
Q 2956 1122 2956 1747 
Q 2956 2369 2687 2733 
Q 2419 3097 1959 3097 
z
M 1959 3584 
Q 2709 3584 3137 3096 
Q 3566 2609 3566 1747 
Q 3566 888 3137 398 
Q 2709 -91 1959 -91 
Q 1206 -91 779 398 
Q 353 888 353 1747 
Q 353 2609 779 3096 
Q 1206 3584 1959 3584 
z
" transform="scale(0.015625)"/>
       <path id="DejaVuSans-63" d="M 3122 3366 
L 3122 2828 
Q 2878 2963 2633 3030 
Q 2388 3097 2138 3097 
Q 1578 3097 1268 2742 
Q 959 2388 959 1747 
Q 959 1106 1268 751 
Q 1578 397 2138 397 
Q 2388 397 2633 464 
Q 2878 531 3122 666 
L 3122 134 
Q 2881 22 2623 -34 
Q 2366 -91 2075 -91 
Q 1284 -91 818 406 
Q 353 903 353 1747 
Q 353 2603 823 3093 
Q 1294 3584 2113 3584 
Q 2378 3584 2631 3529 
Q 2884 3475 3122 3366 
z
" transform="scale(0.015625)"/>
       <path id="DejaVuSans-68" d="M 3513 2113 
L 3513 0 
L 2938 0 
L 2938 2094 
Q 2938 2591 2744 2837 
Q 2550 3084 2163 3084 
Q 1697 3084 1428 2787 
Q 1159 2491 1159 1978 
L 1159 0 
L 581 0 
L 581 4863 
L 1159 4863 
L 1159 2956 
Q 1366 3272 1645 3428 
Q 1925 3584 2291 3584 
Q 2894 3584 3203 3211 
Q 3513 2838 3513 2113 
z
" transform="scale(0.015625)"/>
      </defs>
      <use xlink:href="#DejaVuSans-45"/>
      <use xlink:href="#DejaVuSans-70" transform="translate(63.183594 0)"/>
      <use xlink:href="#DejaVuSans-6f" transform="translate(126.660156 0)"/>
      <use xlink:href="#DejaVuSans-63" transform="translate(187.841797 0)"/>
      <use xlink:href="#DejaVuSans-68" transform="translate(242.822266 0)"/>
     </g>
    </g>
   </g>
   <g id="matplotlib.axis_2">
    <g id="ytick_1">
     <g id="line2d_17">
      <path d="M 55.880346 216.832856 
L 564.787603 216.832856 
" clip-path="url(#p0cbd32db10)" style="fill: none; stroke: #b0b0b0; stroke-width: 0.8; stroke-linecap: square"/>
     </g>
     <g id="line2d_18">
      <defs>
       <path id="m596ab7bff6" d="M 0 0 
L -3.5 0 
" style="stroke: #000000; stroke-width: 0.8"/>
      </defs>
      <g>
       <use xlink:href="#m596ab7bff6" x="55.880346" y="216.832856" style="stroke: #000000; stroke-width: 0.8"/>
      </g>
     </g>
     <g id="text_10">
      <!-- $\mathdefault{10^{-3}}$ -->
      <g transform="translate(25.380346 220.632074) scale(0.1 -0.1)">
       <defs>
        <path id="DejaVuSans-2212" d="M 678 2272 
L 4684 2272 
L 4684 1741 
L 678 1741 
L 678 2272 
z
" transform="scale(0.015625)"/>
       </defs>
       <use xlink:href="#DejaVuSans-31" transform="translate(0 0.765625)"/>
       <use xlink:href="#DejaVuSans-30" transform="translate(63.623047 0.765625)"/>
       <use xlink:href="#DejaVuSans-2212" transform="translate(128.203125 39.046875) scale(0.7)"/>
       <use xlink:href="#DejaVuSans-33" transform="translate(186.855469 39.046875) scale(0.7)"/>
      </g>
     </g>
    </g>
    <g id="ytick_2">
     <g id="line2d_19">
      <path d="M 55.880346 96.638966 
L 564.787603 96.638966 
" clip-path="url(#p0cbd32db10)" style="fill: none; stroke: #b0b0b0; stroke-width: 0.8; stroke-linecap: square"/>
     </g>
     <g id="line2d_20">
      <g>
       <use xlink:href="#m596ab7bff6" x="55.880346" y="96.638966" style="stroke: #000000; stroke-width: 0.8"/>
      </g>
     </g>
     <g id="text_11">
      <!-- $\mathdefault{10^{-2}}$ -->
      <g transform="translate(25.380346 100.438184) scale(0.1 -0.1)">
       <use xlink:href="#DejaVuSans-31" transform="translate(0 0.765625)"/>
       <use xlink:href="#DejaVuSans-30" transform="translate(63.623047 0.765625)"/>
       <use xlink:href="#DejaVuSans-2212" transform="translate(128.203125 39.046875) scale(0.7)"/>
       <use xlink:href="#DejaVuSans-32" transform="translate(186.855469 39.046875) scale(0.7)"/>
      </g>
     </g>
    </g>
    <g id="ytick_3">
     <g id="line2d_21">
      <defs>
       <path id="md4c63e227c" d="M 0 0 
L -2 0 
" style="stroke: #000000; stroke-width: 0.6"/>
      </defs>
      <g>
       <use xlink:href="#md4c63e227c" x="55.880346" y="300.844779" style="stroke: #000000; stroke-width: 0.6"/>
      </g>
     </g>
    </g>
    <g id="ytick_4">
     <g id="line2d_22">
      <g>
       <use xlink:href="#md4c63e227c" x="55.880346" y="279.679686" style="stroke: #000000; stroke-width: 0.6"/>
      </g>
     </g>
    </g>
    <g id="ytick_5">
     <g id="line2d_23">
      <g>
       <use xlink:href="#md4c63e227c" x="55.880346" y="264.662813" style="stroke: #000000; stroke-width: 0.6"/>
      </g>
     </g>
    </g>
    <g id="ytick_6">
     <g id="line2d_24">
      <g>
       <use xlink:href="#md4c63e227c" x="55.880346" y="253.014822" style="stroke: #000000; stroke-width: 0.6"/>
      </g>
     </g>
    </g>
    <g id="ytick_7">
     <g id="line2d_25">
      <g>
       <use xlink:href="#md4c63e227c" x="55.880346" y="243.49772" style="stroke: #000000; stroke-width: 0.6"/>
      </g>
     </g>
    </g>
    <g id="ytick_8">
     <g id="line2d_26">
      <g>
       <use xlink:href="#md4c63e227c" x="55.880346" y="235.451125" style="stroke: #000000; stroke-width: 0.6"/>
      </g>
     </g>
    </g>
    <g id="ytick_9">
     <g id="line2d_27">
      <g>
       <use xlink:href="#md4c63e227c" x="55.880346" y="228.480847" style="stroke: #000000; stroke-width: 0.6"/>
      </g>
     </g>
    </g>
    <g id="ytick_10">
     <g id="line2d_28">
      <g>
       <use xlink:href="#md4c63e227c" x="55.880346" y="222.332626" style="stroke: #000000; stroke-width: 0.6"/>
      </g>
     </g>
    </g>
    <g id="ytick_11">
     <g id="line2d_29">
      <g>
       <use xlink:href="#md4c63e227c" x="55.880346" y="180.650889" style="stroke: #000000; stroke-width: 0.6"/>
      </g>
     </g>
    </g>
    <g id="ytick_12">
     <g id="line2d_30">
      <g>
       <use xlink:href="#md4c63e227c" x="55.880346" y="159.485796" style="stroke: #000000; stroke-width: 0.6"/>
      </g>
     </g>
    </g>
    <g id="ytick_13">
     <g id="line2d_31">
      <g>
       <use xlink:href="#md4c63e227c" x="55.880346" y="144.468923" style="stroke: #000000; stroke-width: 0.6"/>
      </g>
     </g>
    </g>
    <g id="ytick_14">
     <g id="line2d_32">
      <g>
       <use xlink:href="#md4c63e227c" x="55.880346" y="132.820932" style="stroke: #000000; stroke-width: 0.6"/>
      </g>
     </g>
    </g>
    <g id="ytick_15">
     <g id="line2d_33">
      <g>
       <use xlink:href="#md4c63e227c" x="55.880346" y="123.30383" style="stroke: #000000; stroke-width: 0.6"/>
      </g>
     </g>
    </g>
    <g id="ytick_16">
     <g id="line2d_34">
      <g>
       <use xlink:href="#md4c63e227c" x="55.880346" y="115.257235" style="stroke: #000000; stroke-width: 0.6"/>
      </g>
     </g>
    </g>
    <g id="ytick_17">
     <g id="line2d_35">
      <g>
       <use xlink:href="#md4c63e227c" x="55.880346" y="108.286957" style="stroke: #000000; stroke-width: 0.6"/>
      </g>
     </g>
    </g>
    <g id="ytick_18">
     <g id="line2d_36">
      <g>
       <use xlink:href="#md4c63e227c" x="55.880346" y="102.138736" style="stroke: #000000; stroke-width: 0.6"/>
      </g>
     </g>
    </g>
    <g id="ytick_19">
     <g id="line2d_37">
      <g>
       <use xlink:href="#md4c63e227c" x="55.880346" y="60.457" style="stroke: #000000; stroke-width: 0.6"/>
      </g>
     </g>
    </g>
    <g id="ytick_20">
     <g id="line2d_38">
      <g>
       <use xlink:href="#md4c63e227c" x="55.880346" y="39.291906" style="stroke: #000000; stroke-width: 0.6"/>
      </g>
     </g>
    </g>
    <g id="text_12">
     <!-- MSE Loss -->
     <g transform="translate(19.300659 196.023906) rotate(-90) scale(0.1 -0.1)">
      <defs>
       <path id="DejaVuSans-4d" d="M 628 4666 
L 1569 4666 
L 2759 1491 
L 3956 4666 
L 4897 4666 
L 4897 0 
L 4281 0 
L 4281 4097 
L 3078 897 
L 2444 897 
L 1241 4097 
L 1241 0 
L 628 0 
L 628 4666 
z
" transform="scale(0.015625)"/>
       <path id="DejaVuSans-53" d="M 3425 4513 
L 3425 3897 
Q 3066 4069 2747 4153 
Q 2428 4238 2131 4238 
Q 1616 4238 1336 4038 
Q 1056 3838 1056 3469 
Q 1056 3159 1242 3001 
Q 1428 2844 1947 2747 
L 2328 2669 
Q 3034 2534 3370 2195 
Q 3706 1856 3706 1288 
Q 3706 609 3251 259 
Q 2797 -91 1919 -91 
Q 1588 -91 1214 -16 
Q 841 59 441 206 
L 441 856 
Q 825 641 1194 531 
Q 1563 422 1919 422 
Q 2459 422 2753 634 
Q 3047 847 3047 1241 
Q 3047 1584 2836 1778 
Q 2625 1972 2144 2069 
L 1759 2144 
Q 1053 2284 737 2584 
Q 422 2884 422 3419 
Q 422 4038 858 4394 
Q 1294 4750 2059 4750 
Q 2388 4750 2728 4690 
Q 3069 4631 3425 4513 
z
" transform="scale(0.015625)"/>
       <path id="DejaVuSans-20" transform="scale(0.015625)"/>
       <path id="DejaVuSans-4c" d="M 628 4666 
L 1259 4666 
L 1259 531 
L 3531 531 
L 3531 0 
L 628 0 
L 628 4666 
z
" transform="scale(0.015625)"/>
       <path id="DejaVuSans-73" d="M 2834 3397 
L 2834 2853 
Q 2591 2978 2328 3040 
Q 2066 3103 1784 3103 
Q 1356 3103 1142 2972 
Q 928 2841 928 2578 
Q 928 2378 1081 2264 
Q 1234 2150 1697 2047 
L 1894 2003 
Q 2506 1872 2764 1633 
Q 3022 1394 3022 966 
Q 3022 478 2636 193 
Q 2250 -91 1575 -91 
Q 1294 -91 989 -36 
Q 684 19 347 128 
L 347 722 
Q 666 556 975 473 
Q 1284 391 1588 391 
Q 1994 391 2212 530 
Q 2431 669 2431 922 
Q 2431 1156 2273 1281 
Q 2116 1406 1581 1522 
L 1381 1569 
Q 847 1681 609 1914 
Q 372 2147 372 2553 
Q 372 3047 722 3315 
Q 1072 3584 1716 3584 
Q 2034 3584 2315 3537 
Q 2597 3491 2834 3397 
z
" transform="scale(0.015625)"/>
      </defs>
      <use xlink:href="#DejaVuSans-4d"/>
      <use xlink:href="#DejaVuSans-53" transform="translate(86.279297 0)"/>
      <use xlink:href="#DejaVuSans-45" transform="translate(149.755859 0)"/>
      <use xlink:href="#DejaVuSans-20" transform="translate(212.939453 0)"/>
      <use xlink:href="#DejaVuSans-4c" transform="translate(244.726562 0)"/>
      <use xlink:href="#DejaVuSans-6f" transform="translate(298.689453 0)"/>
      <use xlink:href="#DejaVuSans-73" transform="translate(359.871094 0)"/>
      <use xlink:href="#DejaVuSans-73" transform="translate(411.970703 0)"/>
     </g>
    </g>
   </g>
   <g id="line2d_39">
    <path d="M 79.012494 40.801818 
L 79.804691 186.339172 
L 80.596888 223.030392 
L 81.389085 235.235609 
L 82.973478 256.07557 
L 83.765675 261.940797 
L 85.350069 270.532561 
L 86.142266 273.559448 
L 86.934463 275.539539 
L 87.72666 281.686644 
L 88.518856 284.033406 
L 89.311053 285.051099 
L 90.10325 284.832493 
L 90.895447 285.53434 
L 91.687644 285.195877 
L 93.272037 286.768482 
L 94.064234 286.335972 
L 94.856431 286.657635 
L 95.648628 287.271354 
L 96.440825 287.152538 
L 98.025219 287.823833 
L 99.609612 287.883316 
L 100.401809 288.090476 
L 101.194006 288.052805 
L 101.986203 288.720218 
L 102.7784 288.539281 
L 103.570597 291.138587 
L 104.362793 290.957799 
L 105.947187 291.639821 
L 106.739384 291.660006 
L 107.531581 291.441114 
L 108.323778 290.454519 
L 109.115974 291.499801 
L 109.908171 291.680013 
L 110.700368 291.564714 
L 112.284762 292.539918 
L 113.076959 291.728911 
L 113.869156 291.8297 
L 114.661352 292.256186 
L 115.453549 292.114521 
L 116.245746 292.100252 
L 117.037943 292.756523 
L 118.622337 292.72222 
L 119.414534 292.663201 
L 120.20673 292.876292 
L 120.998927 292.457992 
L 121.791124 292.875056 
L 122.583321 293.43332 
L 123.375518 292.83383 
L 124.167715 292.936776 
L 124.959911 292.898879 
L 125.752108 293.295378 
L 126.544305 293.144538 
L 127.336502 293.40673 
L 128.128699 293.818277 
L 128.920896 293.791036 
L 129.713093 293.404922 
L 131.297486 293.730022 
L 132.089683 293.420318 
L 133.674077 293.942615 
L 134.466274 293.514844 
L 135.258471 294.953038 
L 136.050667 294.992866 
L 136.842864 295.330687 
L 137.635061 294.931114 
L 138.427258 295.096967 
L 139.219455 295.02198 
L 140.011652 295.295502 
L 140.803848 294.566308 
L 141.596045 295.43139 
L 143.180439 295.119588 
L 143.972636 295.344325 
L 144.764833 295.188381 
L 147.141423 295.160524 
L 147.93362 295.521787 
L 148.725817 296.068344 
L 149.518014 295.221834 
L 150.310211 294.718529 
L 151.102408 295.443712 
L 151.894604 295.709377 
L 153.478998 295.092461 
L 154.271195 295.168543 
L 155.063392 295.841841 
L 155.855589 295.528179 
L 156.647785 295.525533 
L 157.439982 296.401776 
L 158.232179 296.585055 
L 159.024376 296.373295 
L 159.816573 296.662432 
L 160.60877 296.344247 
L 162.193163 296.727506 
L 162.98536 296.54981 
L 163.777557 296.597015 
L 164.569754 296.288568 
L 165.361951 296.836712 
L 166.154148 296.378694 
L 168.530738 296.57642 
L 170.115132 296.669009 
L 170.907329 296.196291 
L 171.699526 296.369529 
L 172.491722 296.196525 
L 174.076116 296.637257 
L 174.868313 296.350679 
L 175.66051 297.314572 
L 176.452707 296.658019 
L 178.0371 296.756861 
L 180.413691 297.172306 
L 181.205888 296.724131 
L 182.790282 297.277032 
L 184.374675 297.150976 
L 185.959069 297.061326 
L 186.751266 297.317715 
L 187.543463 297.14135 
L 188.33566 297.369425 
L 189.127856 297.148619 
L 189.920053 297.608667 
L 190.71225 297.330663 
L 191.504447 297.216356 
L 192.296644 297.224625 
L 193.088841 296.75536 
L 193.881037 297.236559 
L 195.465431 297.332967 
L 197.049825 297.653675 
L 198.634219 297.330838 
L 199.426415 297.378458 
L 201.010809 297.757709 
L 201.803006 297.461271 
L 203.3874 297.832473 
L 204.971793 297.658443 
L 206.556187 297.23122 
L 207.348384 297.502384 
L 208.140581 297.454437 
L 208.932778 297.76733 
L 209.724974 297.725815 
L 210.517171 297.983162 
L 211.309368 297.413848 
L 212.893762 297.900349 
L 213.685959 297.536174 
L 214.478156 297.501729 
L 215.270352 297.819866 
L 216.062549 297.709849 
L 216.854746 297.945003 
L 217.646943 297.516714 
L 218.43914 297.616331 
L 219.231337 297.847816 
L 220.023534 297.658825 
L 220.81573 297.950833 
L 221.607927 297.858805 
L 222.400124 297.456686 
L 223.192321 297.811122 
L 223.984518 297.741675 
L 225.568911 297.793859 
L 226.361108 297.711385 
L 227.153305 297.893733 
L 227.945502 297.847349 
L 228.737699 297.972838 
L 230.322093 298.009586 
L 231.114289 297.701337 
L 231.906486 298.333089 
L 232.698683 297.675128 
L 233.49088 297.501055 
L 235.867471 297.904175 
L 236.659667 297.684848 
L 238.244061 297.665225 
L 239.036258 297.837775 
L 240.620652 297.552693 
L 241.412848 298.086053 
L 242.205045 297.938659 
L 244.581636 298.098372 
L 245.373833 297.925617 
L 246.16603 297.611201 
L 246.958226 298.10411 
L 247.750423 297.874743 
L 248.54262 297.919381 
L 249.334817 298.256942 
L 250.919211 297.665265 
L 252.503604 298.056434 
L 254.087998 298.06064 
L 255.672392 297.642962 
L 256.464589 297.870213 
L 257.256785 297.874171 
L 258.048982 297.58536 
L 258.841179 298.313049 
L 260.425573 297.891423 
L 261.21777 297.798794 
L 262.009967 297.834355 
L 262.802163 297.51028 
L 263.59436 297.792352 
L 264.386557 297.878227 
L 265.178754 297.774154 
L 265.970951 298.100067 
L 266.763148 297.834602 
L 267.555345 297.914257 
L 268.347541 297.786364 
L 269.139738 297.774652 
L 269.931935 297.644597 
L 270.724132 298.000977 
L 271.516329 298.06987 
L 273.100722 297.935331 
L 273.892919 297.614533 
L 274.685116 297.954702 
L 275.477313 297.749296 
L 276.26951 297.986874 
L 277.061707 297.944573 
L 277.853904 297.757344 
L 279.438297 298.099503 
L 280.230494 298.144357 
L 281.022691 297.66606 
L 281.814888 298.086325 
L 282.607085 297.955375 
L 283.399282 297.705609 
L 284.191478 298.092712 
L 284.983675 297.675027 
L 286.568069 298.076902 
L 287.360266 297.869986 
L 288.152463 298.042997 
L 288.944659 297.614024 
L 289.736856 298.254097 
L 291.32125 297.810369 
L 292.113447 298.218954 
L 292.905644 298.367706 
L 293.697841 297.578465 
L 294.490037 297.896907 
L 296.866628 298.078402 
L 297.658825 297.855327 
L 298.451022 297.75152 
L 299.243219 298.229693 
L 300.035415 297.673686 
L 300.827612 297.976927 
L 301.619809 297.849035 
L 302.412006 297.598308 
L 303.204203 297.9424 
L 303.9964 297.747356 
L 304.788596 298.030623 
L 307.957384 297.952578 
L 308.749581 298.30766 
L 309.541778 297.903886 
L 310.333974 297.680722 
L 311.126171 297.937685 
L 311.918368 297.918857 
L 312.710565 297.638746 
L 313.502762 297.666742 
L 314.294959 298.081416 
L 315.087156 297.877109 
L 315.879352 297.791307 
L 316.671549 297.555617 
L 317.463746 298.242834 
L 318.255943 297.979816 
L 319.04814 298.087954 
L 319.840337 298.043104 
L 320.632533 297.752292 
L 321.42473 298.087175 
L 322.216927 298.069116 
L 323.801321 297.47416 
L 324.593518 298.467662 
L 326.177911 297.955953 
L 326.970108 298.02505 
L 327.762305 297.833739 
L 329.346699 298.149841 
L 330.931093 298.014175 
L 331.723289 297.581833 
L 332.515486 297.858911 
L 333.307683 297.802155 
L 334.09988 297.858641 
L 334.892077 298.105841 
L 335.684274 297.832669 
L 336.47647 297.856826 
L 337.268667 297.507314 
L 338.853061 298.061465 
L 341.229652 297.767513 
L 342.021848 297.976379 
L 345.190636 297.708317 
L 345.982833 297.925298 
L 346.77503 297.812773 
L 347.567226 297.866423 
L 348.359423 298.125805 
L 349.15162 298.16042 
L 349.943817 297.915289 
L 351.528211 297.666397 
L 352.320408 297.802037 
L 353.112604 298.05626 
L 354.696998 297.922673 
L 355.489195 298.11174 
L 357.865785 297.988343 
L 358.657982 298.079401 
L 359.450179 297.932244 
L 361.034573 297.918676 
L 361.82677 297.874436 
L 362.618967 298.054333 
L 363.411163 297.90192 
L 364.20336 298.179815 
L 364.995557 297.950647 
L 365.787754 298.077994 
L 366.579951 297.642701 
L 368.164345 297.861476 
L 368.956541 297.6775 
L 369.748738 297.984097 
L 370.540935 297.809714 
L 371.333132 298.154448 
L 372.125329 297.762165 
L 372.917526 297.519626 
L 373.709722 298.154102 
L 374.501919 297.836445 
L 375.294116 297.745028 
L 376.086313 298.103213 
L 376.87851 298.15117 
L 377.670707 297.65998 
L 378.462904 298.140229 
L 380.047297 298.277765 
L 380.839494 297.654851 
L 381.631691 297.656264 
L 382.423888 298.007389 
L 383.216085 297.86123 
L 384.008282 297.880188 
L 384.800478 298.097149 
L 385.592675 298.052655 
L 386.384872 298.146671 
L 387.969266 297.803339 
L 389.553659 298.042054 
L 390.345856 297.829845 
L 391.138053 298.206331 
L 391.93025 297.926458 
L 392.722447 298.154153 
L 393.514644 297.969243 
L 394.306841 298.327916 
L 395.099037 298.093492 
L 396.683431 297.999557 
L 397.475628 297.699172 
L 398.267825 297.608969 
L 399.060022 298.113191 
L 399.852219 297.884844 
L 400.644415 298.076049 
L 401.436612 297.76274 
L 402.228809 298.142044 
L 403.021006 297.946278 
L 403.813203 298.213613 
L 404.6054 297.674661 
L 406.98199 297.87988 
L 407.774187 298.041297 
L 408.566384 298.010801 
L 409.358581 298.103386 
L 410.150778 297.851104 
L 410.942974 297.977848 
L 411.735171 297.74925 
L 412.527368 297.934632 
L 413.319565 297.843089 
L 414.111762 297.954621 
L 414.903959 297.924253 
L 415.696156 298.155742 
L 417.280549 298.115847 
L 418.072746 297.696622 
L 418.864943 297.931742 
L 419.65714 297.711476 
L 420.449337 297.916662 
L 421.241533 298.304398 
L 422.03373 297.963275 
L 422.825927 297.779613 
L 423.618124 298.13426 
L 424.410321 297.869056 
L 427.579108 298.018568 
L 428.371305 297.723188 
L 429.163502 297.86489 
L 429.955699 298.156979 
L 430.747896 297.843753 
L 432.332289 297.743838 
L 433.124486 297.965856 
L 433.916683 297.737241 
L 434.70888 298.096516 
L 435.501077 297.89205 
L 436.293274 297.825171 
L 437.08547 297.901493 
L 437.877667 297.812207 
L 438.669864 298.30069 
L 439.462061 297.935543 
L 440.254258 297.983786 
L 441.046455 298.153844 
L 442.630848 298.033687 
L 443.423045 298.121421 
L 444.215242 298.494599 
L 445.007439 297.914649 
L 445.799636 297.962874 
L 448.176226 297.750473 
L 448.968423 297.830804 
L 450.552817 297.707683 
L 451.345014 297.561088 
L 452.137211 298.060267 
L 453.721604 298.282687 
L 454.513801 297.717238 
L 455.305998 298.144003 
L 456.098195 298.19836 
L 456.890392 297.859076 
L 457.682589 297.731057 
L 458.474785 298.244047 
L 459.266982 297.916344 
L 460.059179 298.103422 
L 460.851376 297.790004 
L 461.643573 298.147296 
L 463.227967 297.99452 
L 464.020163 298.315158 
L 464.81236 297.953089 
L 466.396754 297.590439 
L 467.188951 298.129393 
L 467.981148 297.773788 
L 469.565541 298.040707 
L 470.357738 298.234598 
L 471.149935 297.630904 
L 471.942132 298.069318 
L 472.734329 297.456426 
L 473.526526 298.0222 
L 474.318722 297.964264 
L 475.110919 298.423231 
L 475.903116 297.709454 
L 476.695313 297.937036 
L 477.48751 298.038632 
L 478.279707 297.817607 
L 479.071904 297.773171 
L 479.8641 298.051633 
L 481.448494 297.898469 
L 482.240691 297.755003 
L 483.032888 297.806419 
L 483.825085 297.550965 
L 484.617281 297.683391 
L 485.409478 298.018482 
L 486.201675 297.585718 
L 486.993872 297.868792 
L 487.786069 297.662474 
L 488.578266 297.711027 
L 489.370463 298.070862 
L 490.162659 298.069735 
L 490.954856 297.872437 
L 491.747053 298.052513 
L 492.53925 297.784893 
L 494.123644 298.052854 
L 494.915841 297.866412 
L 495.708037 298.066224 
L 496.500234 297.967159 
L 497.292431 297.736317 
L 498.876825 298.158932 
L 499.669022 297.726038 
L 501.253415 297.776895 
L 502.045612 298.321724 
L 502.837809 297.906788 
L 503.630006 298.290623 
L 504.422203 298.160651 
L 506.006596 297.554613 
L 506.798793 298.089762 
L 507.59099 297.817858 
L 508.383187 297.812476 
L 509.967581 298.198877 
L 511.551974 298.093527 
L 513.136368 297.778708 
L 513.928565 297.812079 
L 514.720762 297.540144 
L 515.512959 298.041447 
L 517.889549 297.596547 
L 518.681746 297.905429 
L 519.473943 298.381974 
L 520.26614 298.108475 
L 521.058337 297.716197 
L 521.850533 297.591534 
L 524.227124 297.96824 
L 527.395911 297.954819 
L 528.188108 297.698256 
L 528.980305 297.717525 
L 529.772502 298.014836 
L 530.564699 297.767252 
L 531.356896 297.701022 
L 532.149093 297.830419 
L 532.941289 298.148176 
L 533.733486 298.13771 
L 534.525683 297.843692 
L 535.31788 297.812668 
L 536.110077 298.078522 
L 536.902274 297.956362 
L 537.69447 297.707449 
L 538.486667 297.715571 
L 539.278864 297.861872 
L 540.071061 298.140233 
L 540.863258 297.725836 
L 541.655455 298.082978 
L 541.655455 298.082978 
" clip-path="url(#p0cbd32db10)" style="fill: none; stroke: #1f77b4; stroke-width: 2; stroke-linecap: square"/>
   </g>
   <g id="line2d_40">
    <path d="M 79.012494 243.972347 
L 79.804691 238.294828 
L 80.596888 188.074662 
L 81.389085 253.659691 
L 82.181282 243.607702 
L 82.973478 272.922299 
L 83.765675 283.293052 
L 85.350069 174.763404 
L 86.142266 139.014871 
L 86.934463 152.666761 
L 87.72666 200.465547 
L 88.518856 255.159257 
L 89.311053 259.31354 
L 90.10325 251.215392 
L 90.895447 285.914436 
L 91.687644 289.401386 
L 92.479841 275.898757 
L 93.272037 277.479437 
L 94.064234 299.021507 
L 94.856431 296.706172 
L 95.648628 284.923925 
L 96.440825 279.691362 
L 97.233022 292.664487 
L 98.025219 247.276006 
L 98.817415 252.197926 
L 99.609612 286.065997 
L 100.401809 213.874453 
L 101.194006 282.72498 
L 101.986203 290.928361 
L 102.7784 269.041102 
L 103.570597 277.026489 
L 104.362793 290.928857 
L 105.15499 298.747841 
L 105.947187 244.581853 
L 106.739384 301.093569 
L 107.531581 289.837197 
L 108.323778 300.862334 
L 109.908171 299.418897 
L 110.700368 297.758898 
L 111.492565 288.588558 
L 112.284762 298.175369 
L 113.076959 297.014526 
L 113.869156 301.620923 
L 114.661352 286.262444 
L 115.453549 299.187143 
L 116.245746 289.265669 
L 117.037943 294.011123 
L 117.83014 272.309673 
L 118.622337 296.181494 
L 119.414534 279.335389 
L 120.20673 299.454547 
L 120.998927 302.10159 
L 122.583321 276.268499 
L 123.375518 289.000012 
L 124.167715 293.69378 
L 124.959911 295.418709 
L 125.752108 302.747045 
L 126.544305 293.687819 
L 128.128699 262.664999 
L 128.920896 300.925243 
L 129.713093 294.683871 
L 130.505289 293.484963 
L 131.297486 292.043891 
L 132.089683 221.868095 
L 132.88188 301.423894 
L 133.674077 294.047165 
L 134.466274 298.599505 
L 135.258471 295.855107 
L 136.050667 278.844537 
L 136.842864 301.314319 
L 137.635061 300.723999 
L 138.427258 299.675668 
L 139.219455 290.9218 
L 140.011652 302.277284 
L 140.803848 302.184225 
L 141.596045 292.986406 
L 142.388242 303.599969 
L 143.180439 298.01698 
L 143.972636 300.435045 
L 144.764833 303.620433 
L 145.55703 299.291357 
L 146.349226 302.710945 
L 147.141423 302.85801 
L 147.93362 303.672269 
L 148.725817 302.683178 
L 149.518014 283.816741 
L 150.310211 303.051869 
L 151.102408 291.442867 
L 151.894604 299.753353 
L 152.686801 287.959669 
L 153.478998 302.407838 
L 154.271195 290.634202 
L 155.063392 297.187108 
L 155.855589 285.391283 
L 156.647785 289.245611 
L 157.439982 303.269915 
L 158.232179 299.209202 
L 159.024376 300.772266 
L 159.816573 303.364533 
L 160.60877 300.632414 
L 161.400967 304.046439 
L 162.193163 297.385547 
L 162.98536 303.370724 
L 163.777557 304.228259 
L 165.361951 292.778394 
L 166.154148 304.272744 
L 166.946345 303.924759 
L 167.738541 285.97861 
L 168.530738 291.640982 
L 169.322935 304.183321 
L 170.115132 304.336618 
L 170.907329 300.795604 
L 172.491722 299.598224 
L 173.283919 301.195285 
L 174.076116 293.565527 
L 174.868313 303.483882 
L 175.66051 303.536655 
L 176.452707 294.702384 
L 177.244904 300.291196 
L 178.0371 302.463478 
L 178.829297 299.939519 
L 179.621494 302.49036 
L 180.413691 304.300055 
L 181.205888 303.77839 
L 181.998085 303.390021 
L 182.790282 304.48262 
L 183.582478 304.335976 
L 184.374675 296.595711 
L 185.166872 303.118494 
L 185.959069 303.922563 
L 186.751266 304.035169 
L 187.543463 304.367034 
L 188.33566 304.151641 
L 189.127856 303.164846 
L 190.71225 304.559628 
L 191.504447 303.412912 
L 192.296644 300.782326 
L 193.088841 302.809657 
L 193.881037 296.764158 
L 194.673234 303.350589 
L 195.465431 304.495428 
L 196.257628 304.505017 
L 197.049825 303.617037 
L 197.842022 301.454341 
L 198.634219 302.493519 
L 199.426415 304.502011 
L 200.218612 304.456931 
L 201.010809 302.334383 
L 201.803006 303.66013 
L 202.595203 304.412235 
L 203.3874 304.169768 
L 204.179597 301.931336 
L 204.971793 303.69131 
L 205.76399 300.51493 
L 206.556187 303.36146 
L 207.348384 302.254042 
L 208.140581 302.998139 
L 208.932778 304.728987 
L 209.724974 304.602743 
L 210.517171 304.033809 
L 211.309368 304.227971 
L 212.101565 304.691122 
L 212.893762 304.680403 
L 213.685959 304.168837 
L 214.478156 304.091352 
L 215.270352 303.853364 
L 216.062549 304.419413 
L 216.854746 304.574878 
L 217.646943 304.190974 
L 218.43914 304.745543 
L 219.231337 304.510036 
L 220.023534 304.578215 
L 220.81573 303.958564 
L 221.607927 304.644535 
L 222.400124 304.725092 
L 223.192321 303.836742 
L 223.984518 304.040568 
L 224.776715 304.427788 
L 225.568911 303.464399 
L 226.361108 304.283587 
L 227.153305 304.361524 
L 227.945502 304.649061 
L 228.737699 304.454012 
L 229.529896 304.551558 
L 230.322093 304.496874 
L 231.114289 304.674546 
L 231.906486 304.161167 
L 232.698683 304.761433 
L 233.49088 304.391215 
L 234.283077 304.480755 
L 235.075274 303.997143 
L 235.867471 304.471174 
L 237.451864 304.675302 
L 238.244061 303.743357 
L 239.036258 304.601931 
L 239.828455 304.741696 
L 240.620652 304.287063 
L 241.412848 304.18763 
L 242.205045 304.59834 
L 242.997242 304.486248 
L 243.789439 304.738287 
L 244.581636 303.947039 
L 245.373833 304.748371 
L 246.958226 304.346701 
L 247.750423 303.307021 
L 248.54262 304.028012 
L 249.334817 304.545368 
L 250.127014 303.705446 
L 250.919211 303.954734 
L 251.711408 304.538756 
L 252.503604 304.218425 
L 253.295801 304.64902 
L 254.087998 304.748203 
L 255.672392 304.622955 
L 256.464589 304.605776 
L 257.256785 304.199386 
L 258.048982 304.036498 
L 258.841179 304.608935 
L 259.633376 304.751171 
L 260.425573 304.39091 
L 261.21777 304.672355 
L 262.009967 304.724593 
L 262.802163 304.596475 
L 263.59436 304.762952 
L 264.386557 304.568507 
L 265.178754 304.777529 
L 265.970951 304.456467 
L 266.763148 304.628178 
L 267.555345 304.13926 
L 268.347541 304.760545 
L 269.139738 304.445499 
L 271.516329 304.679737 
L 272.308526 304.446817 
L 273.892919 304.748289 
L 274.685116 304.037895 
L 275.477313 304.49217 
L 276.26951 304.147817 
L 277.061707 304.244909 
L 277.853904 304.604894 
L 279.438297 304.71502 
L 280.230494 304.351677 
L 281.022691 304.753054 
L 281.814888 304.621199 
L 282.607085 304.352254 
L 284.191478 304.625029 
L 284.983675 304.15124 
L 285.775872 304.337519 
L 286.568069 304.399358 
L 287.360266 303.651228 
L 288.152463 304.729617 
L 288.944659 303.291778 
L 289.736856 304.746738 
L 290.529053 302.623087 
L 291.32125 304.372056 
L 292.113447 304.170703 
L 292.905644 304.354573 
L 293.697841 304.678171 
L 294.490037 304.334246 
L 296.074431 304.614112 
L 296.866628 304.233754 
L 297.658825 304.587607 
L 298.451022 304.388142 
L 299.243219 304.658645 
L 300.035415 304.55862 
L 300.827612 304.658654 
L 301.619809 304.199434 
L 302.412006 304.622771 
L 303.204203 304.261791 
L 304.788596 304.677661 
L 305.580793 303.874104 
L 306.37299 304.503958 
L 307.165187 304.027765 
L 307.957384 304.61799 
L 308.749581 302.661698 
L 309.541778 304.454004 
L 310.333974 304.783185 
L 311.918368 304.554461 
L 312.710565 304.066582 
L 313.502762 304.583662 
L 315.879352 303.913431 
L 316.671549 304.481247 
L 317.463746 304.607866 
L 318.255943 304.604445 
L 319.04814 304.437597 
L 319.840337 304.652333 
L 320.632533 304.687512 
L 321.42473 302.861531 
L 322.216927 304.055804 
L 323.009124 304.702583 
L 323.801321 304.674526 
L 324.593518 304.396727 
L 327.762305 304.600197 
L 328.554502 304.237341 
L 329.346699 304.678208 
L 330.138896 303.468608 
L 330.931093 304.24047 
L 331.723289 304.553001 
L 332.515486 304.699026 
L 333.307683 304.549388 
L 334.09988 304.572341 
L 334.892077 304.151895 
L 335.684274 304.670725 
L 336.47647 303.943154 
L 337.268667 304.354988 
L 338.060864 303.685691 
L 338.853061 304.484024 
L 339.645258 302.709461 
L 340.437455 304.525016 
L 342.021848 304.600997 
L 342.814045 304.514726 
L 343.606242 304.677338 
L 344.398439 304.371003 
L 345.190636 304.624102 
L 345.982833 304.721631 
L 346.77503 303.72915 
L 347.567226 303.982254 
L 348.359423 304.708116 
L 349.15162 304.411284 
L 349.943817 304.633499 
L 350.736014 302.442499 
L 351.528211 304.551085 
L 352.320408 304.441458 
L 353.112604 304.799689 
L 353.904801 304.523471 
L 354.696998 304.386447 
L 355.489195 304.775805 
L 357.073589 304.664656 
L 357.865785 304.687537 
L 358.657982 304.561059 
L 361.034573 304.513373 
L 361.82677 303.706902 
L 362.618967 304.264897 
L 363.411163 304.663577 
L 364.995557 304.710165 
L 366.579951 304.014885 
L 367.372148 304.753283 
L 368.164345 304.088001 
L 368.956541 304.446467 
L 369.748738 303.098995 
L 370.540935 304.172403 
L 371.333132 304.753885 
L 372.125329 304.653179 
L 372.917526 303.639242 
L 373.709722 303.740767 
L 374.501919 304.474093 
L 375.294116 304.78006 
L 376.086313 304.653595 
L 376.87851 304.208187 
L 378.462904 304.689106 
L 379.2551 304.444115 
L 380.047297 304.374555 
L 380.839494 304.576922 
L 381.631691 304.291425 
L 382.423888 304.571191 
L 383.216085 304.353688 
L 384.008282 303.552217 
L 384.800478 304.129285 
L 385.592675 303.911795 
L 387.969266 304.66012 
L 389.553659 304.582062 
L 390.345856 304.377001 
L 391.138053 303.5892 
L 391.93025 304.240186 
L 392.722447 304.139365 
L 393.514644 303.840253 
L 394.306841 304.529421 
L 395.099037 303.862876 
L 395.891234 304.685292 
L 396.683431 303.999196 
L 397.475628 304.62271 
L 398.267825 304.426304 
L 399.060022 304.630007 
L 399.852219 304.241917 
L 400.644415 303.335743 
L 401.436612 303.562723 
L 402.228809 304.460639 
L 408.566384 304.738447 
L 409.358581 304.594936 
L 410.150778 304.744434 
L 411.735171 304.45772 
L 412.527368 304.162365 
L 414.111762 304.6767 
L 414.903959 303.756218 
L 415.696156 304.475241 
L 416.488352 303.644087 
L 417.280549 303.950324 
L 418.864943 304.198082 
L 419.65714 304.509067 
L 422.03373 304.817633 
L 422.825927 304.325009 
L 423.618124 304.438752 
L 424.410321 302.854114 
L 425.202518 304.522737 
L 425.994715 304.45621 
L 426.786911 304.747594 
L 427.579108 304.667271 
L 428.371305 304.711597 
L 429.163502 304.578754 
L 429.955699 304.136679 
L 430.747896 304.182512 
L 431.540093 304.681372 
L 433.916683 304.475152 
L 434.70888 304.458225 
L 435.501077 303.709586 
L 436.293274 304.307652 
L 437.08547 304.28267 
L 437.877667 304.114953 
L 438.669864 304.429647 
L 440.254258 304.438057 
L 441.046455 304.721005 
L 441.838652 304.526246 
L 442.630848 304.45947 
L 443.423045 304.655213 
L 445.007439 304.481952 
L 445.799636 304.730893 
L 447.38403 304.458807 
L 448.176226 304.778115 
L 449.76062 304.698326 
L 450.552817 303.403158 
L 451.345014 304.370971 
L 452.137211 304.496951 
L 452.929407 303.934574 
L 453.721604 304.615822 
L 455.305998 304.422972 
L 456.098195 304.77619 
L 456.890392 304.344455 
L 457.682589 304.572218 
L 458.474785 304.641128 
L 460.059179 304.200034 
L 461.643573 304.787551 
L 462.43577 304.838182 
L 463.227967 304.672609 
L 464.020163 304.704697 
L 464.81236 304.285225 
L 465.604557 304.192667 
L 466.396754 303.765303 
L 467.188951 304.43315 
L 467.981148 304.590761 
L 468.773344 304.303862 
L 469.565541 304.554828 
L 471.149935 304.713577 
L 471.942132 303.923441 
L 472.734329 304.565215 
L 473.526526 304.701242 
L 474.318722 304.361081 
L 475.903116 304.72906 
L 476.695313 304.337174 
L 478.279707 304.723967 
L 479.8641 304.672801 
L 480.656297 304.307482 
L 481.448494 304.754748 
L 482.240691 304.749259 
L 483.032888 304.521001 
L 483.825085 304.615006 
L 485.409478 304.078537 
L 486.201675 304.267606 
L 486.993872 304.277133 
L 488.578266 304.781666 
L 489.370463 304.444461 
L 490.162659 304.561365 
L 490.954856 304.297064 
L 491.747053 304.191059 
L 492.53925 304.662392 
L 493.331447 304.411731 
L 494.123644 304.635128 
L 494.915841 304.478104 
L 495.708037 304.605707 
L 498.084628 304.630946 
L 498.876825 304.759477 
L 499.669022 304.57711 
L 501.253415 304.556663 
L 502.045612 304.704268 
L 503.630006 304.617741 
L 504.422203 303.564847 
L 505.2144 303.687158 
L 506.006596 303.089228 
L 506.798793 304.724658 
L 507.59099 304.423997 
L 508.383187 304.810596 
L 509.967581 304.641083 
L 510.759778 304.745179 
L 511.551974 303.866224 
L 512.344171 303.475466 
L 513.136368 304.561797 
L 513.928565 304.138309 
L 514.720762 304.79329 
L 516.305156 304.308399 
L 517.097352 304.613038 
L 517.889549 304.618362 
L 518.681746 304.462898 
L 521.058337 304.704239 
L 521.850533 304.629317 
L 523.434927 303.918752 
L 525.019321 304.697811 
L 525.811518 304.492447 
L 526.603715 304.609597 
L 527.395911 304.258827 
L 528.188108 304.440002 
L 528.980305 304.47711 
L 529.772502 303.903789 
L 530.564699 303.953146 
L 531.356896 304.592186 
L 532.149093 304.272063 
L 532.941289 304.379651 
L 533.733486 304.667954 
L 534.525683 304.593851 
L 535.31788 303.861089 
L 536.110077 304.104137 
L 536.902274 304.777611 
L 537.69447 304.400016 
L 538.486667 304.621399 
L 539.278864 304.415619 
L 540.071061 304.609556 
L 540.863258 304.57334 
L 541.655455 304.680281 
L 541.655455 304.680281 
" clip-path="url(#p0cbd32db10)" style="fill: none; stroke: #ff7f0e; stroke-width: 2; stroke-linecap: square"/>
   </g>
   <g id="patch_3">
    <path d="M 55.880346 318.04 
L 55.880346 27.6 
" style="fill: none; stroke: #000000; stroke-width: 0.8; stroke-linejoin: miter; stroke-linecap: square"/>
   </g>
   <g id="patch_4">
    <path d="M 564.787603 318.04 
L 564.787603 27.6 
" style="fill: none; stroke: #000000; stroke-width: 0.8; stroke-linejoin: miter; stroke-linecap: square"/>
   </g>
   <g id="patch_5">
    <path d="M 55.880346 318.04 
L 564.787603 318.04 
" style="fill: none; stroke: #000000; stroke-width: 0.8; stroke-linejoin: miter; stroke-linecap: square"/>
   </g>
   <g id="patch_6">
    <path d="M 55.880346 27.6 
L 564.787603 27.6 
" style="fill: none; stroke: #000000; stroke-width: 0.8; stroke-linejoin: miter; stroke-linecap: square"/>
   </g>
   <g id="text_13">
    <!-- Evolución del Loss por Época -->
    <g transform="translate(223.260849 21.6) scale(0.12 -0.12)">
     <defs>
      <path id="DejaVuSans-76" d="M 191 3500 
L 800 3500 
L 1894 563 
L 2988 3500 
L 3597 3500 
L 2284 0 
L 1503 0 
L 191 3500 
z
" transform="scale(0.015625)"/>
      <path id="DejaVuSans-6c" d="M 603 4863 
L 1178 4863 
L 1178 0 
L 603 0 
L 603 4863 
z
" transform="scale(0.015625)"/>
      <path id="DejaVuSans-75" d="M 544 1381 
L 544 3500 
L 1119 3500 
L 1119 1403 
Q 1119 906 1312 657 
Q 1506 409 1894 409 
Q 2359 409 2629 706 
Q 2900 1003 2900 1516 
L 2900 3500 
L 3475 3500 
L 3475 0 
L 2900 0 
L 2900 538 
Q 2691 219 2414 64 
Q 2138 -91 1772 -91 
Q 1169 -91 856 284 
Q 544 659 544 1381 
z
M 1991 3584 
L 1991 3584 
z
" transform="scale(0.015625)"/>
      <path id="DejaVuSans-69" d="M 603 3500 
L 1178 3500 
L 1178 0 
L 603 0 
L 603 3500 
z
M 603 4863 
L 1178 4863 
L 1178 4134 
L 603 4134 
L 603 4863 
z
" transform="scale(0.015625)"/>
      <path id="DejaVuSans-f3" d="M 1959 3097 
Q 1497 3097 1228 2736 
Q 959 2375 959 1747 
Q 959 1119 1226 758 
Q 1494 397 1959 397 
Q 2419 397 2687 759 
Q 2956 1122 2956 1747 
Q 2956 2369 2687 2733 
Q 2419 3097 1959 3097 
z
M 1959 3584 
Q 2709 3584 3137 3096 
Q 3566 2609 3566 1747 
Q 3566 888 3137 398 
Q 2709 -91 1959 -91 
Q 1206 -91 779 398 
Q 353 888 353 1747 
Q 353 2609 779 3096 
Q 1206 3584 1959 3584 
z
M 2394 5119 
L 3016 5119 
L 1997 3944 
L 1519 3944 
L 2394 5119 
z
" transform="scale(0.015625)"/>
      <path id="DejaVuSans-6e" d="M 3513 2113 
L 3513 0 
L 2938 0 
L 2938 2094 
Q 2938 2591 2744 2837 
Q 2550 3084 2163 3084 
Q 1697 3084 1428 2787 
Q 1159 2491 1159 1978 
L 1159 0 
L 581 0 
L 581 3500 
L 1159 3500 
L 1159 2956 
Q 1366 3272 1645 3428 
Q 1925 3584 2291 3584 
Q 2894 3584 3203 3211 
Q 3513 2838 3513 2113 
z
" transform="scale(0.015625)"/>
      <path id="DejaVuSans-64" d="M 2906 2969 
L 2906 4863 
L 3481 4863 
L 3481 0 
L 2906 0 
L 2906 525 
Q 2725 213 2448 61 
Q 2172 -91 1784 -91 
Q 1150 -91 751 415 
Q 353 922 353 1747 
Q 353 2572 751 3078 
Q 1150 3584 1784 3584 
Q 2172 3584 2448 3432 
Q 2725 3281 2906 2969 
z
M 947 1747 
Q 947 1113 1208 752 
Q 1469 391 1925 391 
Q 2381 391 2643 752 
Q 2906 1113 2906 1747 
Q 2906 2381 2643 2742 
Q 2381 3103 1925 3103 
Q 1469 3103 1208 2742 
Q 947 2381 947 1747 
z
" transform="scale(0.015625)"/>
      <path id="DejaVuSans-65" d="M 3597 1894 
L 3597 1613 
L 953 1613 
Q 991 1019 1311 708 
Q 1631 397 2203 397 
Q 2534 397 2845 478 
Q 3156 559 3463 722 
L 3463 178 
Q 3153 47 2828 -22 
Q 2503 -91 2169 -91 
Q 1331 -91 842 396 
Q 353 884 353 1716 
Q 353 2575 817 3079 
Q 1281 3584 2069 3584 
Q 2775 3584 3186 3129 
Q 3597 2675 3597 1894 
z
M 3022 2063 
Q 3016 2534 2758 2815 
Q 2500 3097 2075 3097 
Q 1594 3097 1305 2825 
Q 1016 2553 972 2059 
L 3022 2063 
z
" transform="scale(0.015625)"/>
      <path id="DejaVuSans-72" d="M 2631 2963 
Q 2534 3019 2420 3045 
Q 2306 3072 2169 3072 
Q 1681 3072 1420 2755 
Q 1159 2438 1159 1844 
L 1159 0 
L 581 0 
L 581 3500 
L 1159 3500 
L 1159 2956 
Q 1341 3275 1631 3429 
Q 1922 3584 2338 3584 
Q 2397 3584 2469 3576 
Q 2541 3569 2628 3553 
L 2631 2963 
z
" transform="scale(0.015625)"/>
      <path id="DejaVuSans-c9" d="M 628 4666 
L 3578 4666 
L 3578 4134 
L 1259 4134 
L 1259 2753 
L 3481 2753 
L 3481 2222 
L 1259 2222 
L 1259 531 
L 3634 531 
L 3634 0 
L 628 0 
L 628 4666 
z
M 2266 5935 
L 2844 5935 
L 2131 5110 
L 1653 5110 
L 2266 5935 
z
" transform="scale(0.015625)"/>
      <path id="DejaVuSans-61" d="M 2194 1759 
Q 1497 1759 1228 1600 
Q 959 1441 959 1056 
Q 959 750 1161 570 
Q 1363 391 1709 391 
Q 2188 391 2477 730 
Q 2766 1069 2766 1631 
L 2766 1759 
L 2194 1759 
z
M 3341 1997 
L 3341 0 
L 2766 0 
L 2766 531 
Q 2569 213 2275 61 
Q 1981 -91 1556 -91 
Q 1019 -91 701 211 
Q 384 513 384 1019 
Q 384 1609 779 1909 
Q 1175 2209 1959 2209 
L 2766 2209 
L 2766 2266 
Q 2766 2663 2505 2880 
Q 2244 3097 1772 3097 
Q 1472 3097 1187 3025 
Q 903 2953 641 2809 
L 641 3341 
Q 956 3463 1253 3523 
Q 1550 3584 1831 3584 
Q 2591 3584 2966 3190 
Q 3341 2797 3341 1997 
z
" transform="scale(0.015625)"/>
     </defs>
     <use xlink:href="#DejaVuSans-45"/>
     <use xlink:href="#DejaVuSans-76" transform="translate(63.183594 0)"/>
     <use xlink:href="#DejaVuSans-6f" transform="translate(122.363281 0)"/>
     <use xlink:href="#DejaVuSans-6c" transform="translate(183.544922 0)"/>
     <use xlink:href="#DejaVuSans-75" transform="translate(211.328125 0)"/>
     <use xlink:href="#DejaVuSans-63" transform="translate(274.707031 0)"/>
     <use xlink:href="#DejaVuSans-69" transform="translate(329.6875 0)"/>
     <use xlink:href="#DejaVuSans-f3" transform="translate(357.470703 0)"/>
     <use xlink:href="#DejaVuSans-6e" transform="translate(418.652344 0)"/>
     <use xlink:href="#DejaVuSans-20" transform="translate(482.03125 0)"/>
     <use xlink:href="#DejaVuSans-64" transform="translate(513.818359 0)"/>
     <use xlink:href="#DejaVuSans-65" transform="translate(577.294922 0)"/>
     <use xlink:href="#DejaVuSans-6c" transform="translate(638.818359 0)"/>
     <use xlink:href="#DejaVuSans-20" transform="translate(666.601562 0)"/>
     <use xlink:href="#DejaVuSans-4c" transform="translate(698.388672 0)"/>
     <use xlink:href="#DejaVuSans-6f" transform="translate(752.351562 0)"/>
     <use xlink:href="#DejaVuSans-73" transform="translate(813.533203 0)"/>
     <use xlink:href="#DejaVuSans-73" transform="translate(865.632812 0)"/>
     <use xlink:href="#DejaVuSans-20" transform="translate(917.732422 0)"/>
     <use xlink:href="#DejaVuSans-70" transform="translate(949.519531 0)"/>
     <use xlink:href="#DejaVuSans-6f" transform="translate(1012.996094 0)"/>
     <use xlink:href="#DejaVuSans-72" transform="translate(1074.177734 0)"/>
     <use xlink:href="#DejaVuSans-20" transform="translate(1115.291016 0)"/>
     <use xlink:href="#DejaVuSans-c9" transform="translate(1147.078125 0)"/>
     <use xlink:href="#DejaVuSans-70" transform="translate(1210.261719 0)"/>
     <use xlink:href="#DejaVuSans-6f" transform="translate(1273.738281 0)"/>
     <use xlink:href="#DejaVuSans-63" transform="translate(1334.919922 0)"/>
     <use xlink:href="#DejaVuSans-61" transform="translate(1389.900391 0)"/>
    </g>
   </g>
   <g id="legend_1">
    <g id="patch_7">
     <path d="M 453.426665 64.95625 
L 557.787603 64.95625 
Q 559.787603 64.95625 559.787603 62.95625 
L 559.787603 34.6 
Q 559.787603 32.6 557.787603 32.6 
L 453.426665 32.6 
Q 451.426665 32.6 451.426665 34.6 
L 451.426665 62.95625 
Q 451.426665 64.95625 453.426665 64.95625 
z
" style="fill: #ffffff; opacity: 0.8; stroke: #cccccc; stroke-linejoin: miter"/>
    </g>
    <g id="line2d_41">
     <path d="M 455.426665 40.698438 
L 465.426665 40.698438 
L 475.426665 40.698438 
" style="fill: none; stroke: #1f77b4; stroke-width: 2; stroke-linecap: square"/>
    </g>
    <g id="text_14">
     <!-- Train Loss -->
     <g transform="translate(483.426665 44.198438) scale(0.1 -0.1)">
      <defs>
       <path id="DejaVuSans-54" d="M -19 4666 
L 3928 4666 
L 3928 4134 
L 2272 4134 
L 2272 0 
L 1638 0 
L 1638 4134 
L -19 4134 
L -19 4666 
z
" transform="scale(0.015625)"/>
      </defs>
      <use xlink:href="#DejaVuSans-54"/>
      <use xlink:href="#DejaVuSans-72" transform="translate(46.333984 0)"/>
      <use xlink:href="#DejaVuSans-61" transform="translate(87.447266 0)"/>
      <use xlink:href="#DejaVuSans-69" transform="translate(148.726562 0)"/>
      <use xlink:href="#DejaVuSans-6e" transform="translate(176.509766 0)"/>
      <use xlink:href="#DejaVuSans-20" transform="translate(239.888672 0)"/>
      <use xlink:href="#DejaVuSans-4c" transform="translate(271.675781 0)"/>
      <use xlink:href="#DejaVuSans-6f" transform="translate(325.638672 0)"/>
      <use xlink:href="#DejaVuSans-73" transform="translate(386.820312 0)"/>
      <use xlink:href="#DejaVuSans-73" transform="translate(438.919922 0)"/>
     </g>
    </g>
    <g id="line2d_42">
     <path d="M 455.426665 55.376563 
L 465.426665 55.376563 
L 475.426665 55.376563 
" style="fill: none; stroke: #ff7f0e; stroke-width: 2; stroke-linecap: square"/>
    </g>
    <g id="text_15">
     <!-- Val Loss (MSE) -->
     <g transform="translate(483.426665 58.876563) scale(0.1 -0.1)">
      <defs>
       <path id="DejaVuSans-56" d="M 1831 0 
L 50 4666 
L 709 4666 
L 2188 738 
L 3669 4666 
L 4325 4666 
L 2547 0 
L 1831 0 
z
" transform="scale(0.015625)"/>
       <path id="DejaVuSans-28" d="M 1984 4856 
Q 1566 4138 1362 3434 
Q 1159 2731 1159 2009 
Q 1159 1288 1364 580 
Q 1569 -128 1984 -844 
L 1484 -844 
Q 1016 -109 783 600 
Q 550 1309 550 2009 
Q 550 2706 781 3412 
Q 1013 4119 1484 4856 
L 1984 4856 
z
" transform="scale(0.015625)"/>
       <path id="DejaVuSans-29" d="M 513 4856 
L 1013 4856 
Q 1481 4119 1714 3412 
Q 1947 2706 1947 2009 
Q 1947 1309 1714 600 
Q 1481 -109 1013 -844 
L 513 -844 
Q 928 -128 1133 580 
Q 1338 1288 1338 2009 
Q 1338 2731 1133 3434 
Q 928 4138 513 4856 
z
" transform="scale(0.015625)"/>
      </defs>
      <use xlink:href="#DejaVuSans-56"/>
      <use xlink:href="#DejaVuSans-61" transform="translate(60.658203 0)"/>
      <use xlink:href="#DejaVuSans-6c" transform="translate(121.9375 0)"/>
      <use xlink:href="#DejaVuSans-20" transform="translate(149.720703 0)"/>
      <use xlink:href="#DejaVuSans-4c" transform="translate(181.507812 0)"/>
      <use xlink:href="#DejaVuSans-6f" transform="translate(235.470703 0)"/>
      <use xlink:href="#DejaVuSans-73" transform="translate(296.652344 0)"/>
      <use xlink:href="#DejaVuSans-73" transform="translate(348.751953 0)"/>
      <use xlink:href="#DejaVuSans-20" transform="translate(400.851562 0)"/>
      <use xlink:href="#DejaVuSans-28" transform="translate(432.638672 0)"/>
      <use xlink:href="#DejaVuSans-4d" transform="translate(471.652344 0)"/>
      <use xlink:href="#DejaVuSans-53" transform="translate(557.931641 0)"/>
      <use xlink:href="#DejaVuSans-45" transform="translate(621.408203 0)"/>
      <use xlink:href="#DejaVuSans-29" transform="translate(684.591797 0)"/>
     </g>
    </g>
   </g>
  </g>
 </g>
 <defs>
  <clipPath id="p0cbd32db10">
   <rect x="55.880346" y="27.6" width="508.907257" height="290.44"/>
  </clipPath>
 </defs>
</svg>
