<?xml version="1.0" encoding="utf-8" standalone="no"?>
<!DOCTYPE svg PUBLIC "-//W3C//DTD SVG 1.1//EN"
  "http://www.w3.org/Graphics/SVG/1.1/DTD/svg11.dtd">
<svg xmlns:xlink="http://www.w3.org/1999/xlink" width="576pt" height="360pt" viewBox="0 0 576 360" xmlns="http://www.w3.org/2000/svg" version="1.1">
 <metadata>
  <rdf:RDF xmlns:dc="http://purl.org/dc/elements/1.1/" xmlns:cc="http://creativecommons.org/ns#" xmlns:rdf="http://www.w3.org/1999/02/22-rdf-syntax-ns#">
   <cc:Work>
    <dc:type rdf:resource="http://purl.org/dc/dcmitype/StillImage"/>
    <dc:date>2025-04-10T10:58:16.074915</dc:date>
    <dc:format>image/svg+xml</dc:format>
    <dc:creator>
     <cc:Agent>
      <dc:title>Matplotlib v3.10.1, https://matplotlib.org/</dc:title>
     </cc:Agent>
    </dc:creator>
   </cc:Work>
  </rdf:RDF>
 </metadata>
 <defs>
  <style type="text/css">*{stroke-linejoin: round; stroke-linecap: butt}</style>
 </defs>
 <g id="figure_1">
  <g id="patch_1">
   <path d="M 0 360 
L 576 360 
L 576 0 
L 0 0 
z
" style="fill: #ffffff"/>
  </g>
  <g id="axes_1">
   <g id="patch_2">
    <path d="M 56.015346 318.04 
L 565.2 318.04 
L 565.2 27.6 
L 56.015346 27.6 
z
" style="fill: #ffffff"/>
   </g>
   <g id="matplotlib.axis_1">
    <g id="xtick_1">
     <g id="line2d_1">
      <path d="M 79.160103 318.04 
L 79.160103 27.6 
" clip-path="url(#p2c5df1071b)" style="fill: none; stroke: #b0b0b0; stroke-width: 0.8; stroke-linecap: square"/>
     </g>
     <g id="line2d_2">
      <defs>
       <path id="m30757cd23b" d="M 0 0 
L 0 3.5 
" style="stroke: #000000; stroke-width: 0.8"/>
      </defs>
      <g>
       <use xlink:href="#m30757cd23b" x="79.160103" y="318.04" style="stroke: #000000; stroke-width: 0.8"/>
      </g>
     </g>
     <g id="text_1">
      <!-- 0 -->
      <g transform="translate(75.978853 332.638438) scale(0.1 -0.1)">
       <defs>
        <path id="DejaVuSans-30" d="M 2034 4250 
Q 1547 4250 1301 3770 
Q 1056 3291 1056 2328 
Q 1056 1369 1301 889 
Q 1547 409 2034 409 
Q 2525 409 2770 889 
Q 3016 1369 3016 2328 
Q 3016 3291 2770 3770 
Q 2525 4250 2034 4250 
z
M 2034 4750 
Q 2819 4750 3233 4129 
Q 3647 3509 3647 2328 
Q 3647 1150 3233 529 
Q 2819 -91 2034 -91 
Q 1250 -91 836 529 
Q 422 1150 422 2328 
Q 422 3509 836 4129 
Q 1250 4750 2034 4750 
z
" transform="scale(0.015625)"/>
       </defs>
       <use xlink:href="#DejaVuSans-30"/>
      </g>
     </g>
    </g>
    <g id="xtick_2">
     <g id="line2d_3">
      <path d="M 130.88023 318.04 
L 130.88023 27.6 
" clip-path="url(#p2c5df1071b)" style="fill: none; stroke: #b0b0b0; stroke-width: 0.8; stroke-linecap: square"/>
     </g>
     <g id="line2d_4">
      <g>
       <use xlink:href="#m30757cd23b" x="130.88023" y="318.04" style="stroke: #000000; stroke-width: 0.8"/>
      </g>
     </g>
     <g id="text_2">
      <!-- 40 -->
      <g transform="translate(124.51773 332.638438) scale(0.1 -0.1)">
       <defs>
        <path id="DejaVuSans-34" d="M 2419 4116 
L 825 1625 
L 2419 1625 
L 2419 4116 
z
M 2253 4666 
L 3047 4666 
L 3047 1625 
L 3713 1625 
L 3713 1100 
L 3047 1100 
L 3047 0 
L 2419 0 
L 2419 1100 
L 313 1100 
L 313 1709 
L 2253 4666 
z
" transform="scale(0.015625)"/>
       </defs>
       <use xlink:href="#DejaVuSans-34"/>
       <use xlink:href="#DejaVuSans-30" transform="translate(63.623047 0)"/>
      </g>
     </g>
    </g>
    <g id="xtick_3">
     <g id="line2d_5">
      <path d="M 182.600358 318.04 
L 182.600358 27.6 
" clip-path="url(#p2c5df1071b)" style="fill: none; stroke: #b0b0b0; stroke-width: 0.8; stroke-linecap: square"/>
     </g>
     <g id="line2d_6">
      <g>
       <use xlink:href="#m30757cd23b" x="182.600358" y="318.04" style="stroke: #000000; stroke-width: 0.8"/>
      </g>
     </g>
     <g id="text_3">
      <!-- 80 -->
      <g transform="translate(176.237858 332.638438) scale(0.1 -0.1)">
       <defs>
        <path id="DejaVuSans-38" d="M 2034 2216 
Q 1584 2216 1326 1975 
Q 1069 1734 1069 1313 
Q 1069 891 1326 650 
Q 1584 409 2034 409 
Q 2484 409 2743 651 
Q 3003 894 3003 1313 
Q 3003 1734 2745 1975 
Q 2488 2216 2034 2216 
z
M 1403 2484 
Q 997 2584 770 2862 
Q 544 3141 544 3541 
Q 544 4100 942 4425 
Q 1341 4750 2034 4750 
Q 2731 4750 3128 4425 
Q 3525 4100 3525 3541 
Q 3525 3141 3298 2862 
Q 3072 2584 2669 2484 
Q 3125 2378 3379 2068 
Q 3634 1759 3634 1313 
Q 3634 634 3220 271 
Q 2806 -91 2034 -91 
Q 1263 -91 848 271 
Q 434 634 434 1313 
Q 434 1759 690 2068 
Q 947 2378 1403 2484 
z
M 1172 3481 
Q 1172 3119 1398 2916 
Q 1625 2713 2034 2713 
Q 2441 2713 2670 2916 
Q 2900 3119 2900 3481 
Q 2900 3844 2670 4047 
Q 2441 4250 2034 4250 
Q 1625 4250 1398 4047 
Q 1172 3844 1172 3481 
z
" transform="scale(0.015625)"/>
       </defs>
       <use xlink:href="#DejaVuSans-38"/>
       <use xlink:href="#DejaVuSans-30" transform="translate(63.623047 0)"/>
      </g>
     </g>
    </g>
    <g id="xtick_4">
     <g id="line2d_7">
      <path d="M 234.320485 318.04 
L 234.320485 27.6 
" clip-path="url(#p2c5df1071b)" style="fill: none; stroke: #b0b0b0; stroke-width: 0.8; stroke-linecap: square"/>
     </g>
     <g id="line2d_8">
      <g>
       <use xlink:href="#m30757cd23b" x="234.320485" y="318.04" style="stroke: #000000; stroke-width: 0.8"/>
      </g>
     </g>
     <g id="text_4">
      <!-- 120 -->
      <g transform="translate(224.776735 332.638438) scale(0.1 -0.1)">
       <defs>
        <path id="DejaVuSans-31" d="M 794 531 
L 1825 531 
L 1825 4091 
L 703 3866 
L 703 4441 
L 1819 4666 
L 2450 4666 
L 2450 531 
L 3481 531 
L 3481 0 
L 794 0 
L 794 531 
z
" transform="scale(0.015625)"/>
        <path id="DejaVuSans-32" d="M 1228 531 
L 3431 531 
L 3431 0 
L 469 0 
L 469 531 
Q 828 903 1448 1529 
Q 2069 2156 2228 2338 
Q 2531 2678 2651 2914 
Q 2772 3150 2772 3378 
Q 2772 3750 2511 3984 
Q 2250 4219 1831 4219 
Q 1534 4219 1204 4116 
Q 875 4013 500 3803 
L 500 4441 
Q 881 4594 1212 4672 
Q 1544 4750 1819 4750 
Q 2544 4750 2975 4387 
Q 3406 4025 3406 3419 
Q 3406 3131 3298 2873 
Q 3191 2616 2906 2266 
Q 2828 2175 2409 1742 
Q 1991 1309 1228 531 
z
" transform="scale(0.015625)"/>
       </defs>
       <use xlink:href="#DejaVuSans-31"/>
       <use xlink:href="#DejaVuSans-32" transform="translate(63.623047 0)"/>
       <use xlink:href="#DejaVuSans-30" transform="translate(127.246094 0)"/>
      </g>
     </g>
    </g>
    <g id="xtick_5">
     <g id="line2d_9">
      <path d="M 286.040613 318.04 
L 286.040613 27.6 
" clip-path="url(#p2c5df1071b)" style="fill: none; stroke: #b0b0b0; stroke-width: 0.8; stroke-linecap: square"/>
     </g>
     <g id="line2d_10">
      <g>
       <use xlink:href="#m30757cd23b" x="286.040613" y="318.04" style="stroke: #000000; stroke-width: 0.8"/>
      </g>
     </g>
     <g id="text_5">
      <!-- 160 -->
      <g transform="translate(276.496863 332.638438) scale(0.1 -0.1)">
       <defs>
        <path id="DejaVuSans-36" d="M 2113 2584 
Q 1688 2584 1439 2293 
Q 1191 2003 1191 1497 
Q 1191 994 1439 701 
Q 1688 409 2113 409 
Q 2538 409 2786 701 
Q 3034 994 3034 1497 
Q 3034 2003 2786 2293 
Q 2538 2584 2113 2584 
z
M 3366 4563 
L 3366 3988 
Q 3128 4100 2886 4159 
Q 2644 4219 2406 4219 
Q 1781 4219 1451 3797 
Q 1122 3375 1075 2522 
Q 1259 2794 1537 2939 
Q 1816 3084 2150 3084 
Q 2853 3084 3261 2657 
Q 3669 2231 3669 1497 
Q 3669 778 3244 343 
Q 2819 -91 2113 -91 
Q 1303 -91 875 529 
Q 447 1150 447 2328 
Q 447 3434 972 4092 
Q 1497 4750 2381 4750 
Q 2619 4750 2861 4703 
Q 3103 4656 3366 4563 
z
" transform="scale(0.015625)"/>
       </defs>
       <use xlink:href="#DejaVuSans-31"/>
       <use xlink:href="#DejaVuSans-36" transform="translate(63.623047 0)"/>
       <use xlink:href="#DejaVuSans-30" transform="translate(127.246094 0)"/>
      </g>
     </g>
    </g>
    <g id="xtick_6">
     <g id="line2d_11">
      <path d="M 337.76074 318.04 
L 337.76074 27.6 
" clip-path="url(#p2c5df1071b)" style="fill: none; stroke: #b0b0b0; stroke-width: 0.8; stroke-linecap: square"/>
     </g>
     <g id="line2d_12">
      <g>
       <use xlink:href="#m30757cd23b" x="337.76074" y="318.04" style="stroke: #000000; stroke-width: 0.8"/>
      </g>
     </g>
     <g id="text_6">
      <!-- 200 -->
      <g transform="translate(328.21699 332.638438) scale(0.1 -0.1)">
       <use xlink:href="#DejaVuSans-32"/>
       <use xlink:href="#DejaVuSans-30" transform="translate(63.623047 0)"/>
       <use xlink:href="#DejaVuSans-30" transform="translate(127.246094 0)"/>
      </g>
     </g>
    </g>
    <g id="xtick_7">
     <g id="line2d_13">
      <path d="M 389.480867 318.04 
L 389.480867 27.6 
" clip-path="url(#p2c5df1071b)" style="fill: none; stroke: #b0b0b0; stroke-width: 0.8; stroke-linecap: square"/>
     </g>
     <g id="line2d_14">
      <g>
       <use xlink:href="#m30757cd23b" x="389.480867" y="318.04" style="stroke: #000000; stroke-width: 0.8"/>
      </g>
     </g>
     <g id="text_7">
      <!-- 240 -->
      <g transform="translate(379.937117 332.638438) scale(0.1 -0.1)">
       <use xlink:href="#DejaVuSans-32"/>
       <use xlink:href="#DejaVuSans-34" transform="translate(63.623047 0)"/>
       <use xlink:href="#DejaVuSans-30" transform="translate(127.246094 0)"/>
      </g>
     </g>
    </g>
    <g id="xtick_8">
     <g id="line2d_15">
      <path d="M 441.200995 318.04 
L 441.200995 27.6 
" clip-path="url(#p2c5df1071b)" style="fill: none; stroke: #b0b0b0; stroke-width: 0.8; stroke-linecap: square"/>
     </g>
     <g id="line2d_16">
      <g>
       <use xlink:href="#m30757cd23b" x="441.200995" y="318.04" style="stroke: #000000; stroke-width: 0.8"/>
      </g>
     </g>
     <g id="text_8">
      <!-- 280 -->
      <g transform="translate(431.657245 332.638438) scale(0.1 -0.1)">
       <use xlink:href="#DejaVuSans-32"/>
       <use xlink:href="#DejaVuSans-38" transform="translate(63.623047 0)"/>
       <use xlink:href="#DejaVuSans-30" transform="translate(127.246094 0)"/>
      </g>
     </g>
    </g>
    <g id="xtick_9">
     <g id="line2d_17">
      <path d="M 492.921122 318.04 
L 492.921122 27.6 
" clip-path="url(#p2c5df1071b)" style="fill: none; stroke: #b0b0b0; stroke-width: 0.8; stroke-linecap: square"/>
     </g>
     <g id="line2d_18">
      <g>
       <use xlink:href="#m30757cd23b" x="492.921122" y="318.04" style="stroke: #000000; stroke-width: 0.8"/>
      </g>
     </g>
     <g id="text_9">
      <!-- 320 -->
      <g transform="translate(483.377372 332.638438) scale(0.1 -0.1)">
       <defs>
        <path id="DejaVuSans-33" d="M 2597 2516 
Q 3050 2419 3304 2112 
Q 3559 1806 3559 1356 
Q 3559 666 3084 287 
Q 2609 -91 1734 -91 
Q 1441 -91 1130 -33 
Q 819 25 488 141 
L 488 750 
Q 750 597 1062 519 
Q 1375 441 1716 441 
Q 2309 441 2620 675 
Q 2931 909 2931 1356 
Q 2931 1769 2642 2001 
Q 2353 2234 1838 2234 
L 1294 2234 
L 1294 2753 
L 1863 2753 
Q 2328 2753 2575 2939 
Q 2822 3125 2822 3475 
Q 2822 3834 2567 4026 
Q 2313 4219 1838 4219 
Q 1578 4219 1281 4162 
Q 984 4106 628 3988 
L 628 4550 
Q 988 4650 1302 4700 
Q 1616 4750 1894 4750 
Q 2613 4750 3031 4423 
Q 3450 4097 3450 3541 
Q 3450 3153 3228 2886 
Q 3006 2619 2597 2516 
z
" transform="scale(0.015625)"/>
       </defs>
       <use xlink:href="#DejaVuSans-33"/>
       <use xlink:href="#DejaVuSans-32" transform="translate(63.623047 0)"/>
       <use xlink:href="#DejaVuSans-30" transform="translate(127.246094 0)"/>
      </g>
     </g>
    </g>
    <g id="xtick_10">
     <g id="line2d_19">
      <path d="M 544.641249 318.04 
L 544.641249 27.6 
" clip-path="url(#p2c5df1071b)" style="fill: none; stroke: #b0b0b0; stroke-width: 0.8; stroke-linecap: square"/>
     </g>
     <g id="line2d_20">
      <g>
       <use xlink:href="#m30757cd23b" x="544.641249" y="318.04" style="stroke: #000000; stroke-width: 0.8"/>
      </g>
     </g>
     <g id="text_10">
      <!-- 360 -->
      <g transform="translate(535.097499 332.638438) scale(0.1 -0.1)">
       <use xlink:href="#DejaVuSans-33"/>
       <use xlink:href="#DejaVuSans-36" transform="translate(63.623047 0)"/>
       <use xlink:href="#DejaVuSans-30" transform="translate(127.246094 0)"/>
      </g>
     </g>
    </g>
    <g id="text_11">
     <!-- Epoch -->
     <g transform="translate(295.296736 346.316563) scale(0.1 -0.1)">
      <defs>
       <path id="DejaVuSans-45" d="M 628 4666 
L 3578 4666 
L 3578 4134 
L 1259 4134 
L 1259 2753 
L 3481 2753 
L 3481 2222 
L 1259 2222 
L 1259 531 
L 3634 531 
L 3634 0 
L 628 0 
L 628 4666 
z
" transform="scale(0.015625)"/>
       <path id="DejaVuSans-70" d="M 1159 525 
L 1159 -1331 
L 581 -1331 
L 581 3500 
L 1159 3500 
L 1159 2969 
Q 1341 3281 1617 3432 
Q 1894 3584 2278 3584 
Q 2916 3584 3314 3078 
Q 3713 2572 3713 1747 
Q 3713 922 3314 415 
Q 2916 -91 2278 -91 
Q 1894 -91 1617 61 
Q 1341 213 1159 525 
z
M 3116 1747 
Q 3116 2381 2855 2742 
Q 2594 3103 2138 3103 
Q 1681 3103 1420 2742 
Q 1159 2381 1159 1747 
Q 1159 1113 1420 752 
Q 1681 391 2138 391 
Q 2594 391 2855 752 
Q 3116 1113 3116 1747 
z
" transform="scale(0.015625)"/>
       <path id="DejaVuSans-6f" d="M 1959 3097 
Q 1497 3097 1228 2736 
Q 959 2375 959 1747 
Q 959 1119 1226 758 
Q 1494 397 1959 397 
Q 2419 397 2687 759 
Q 2956 1122 2956 1747 
Q 2956 2369 2687 2733 
Q 2419 3097 1959 3097 
z
M 1959 3584 
Q 2709 3584 3137 3096 
Q 3566 2609 3566 1747 
Q 3566 888 3137 398 
Q 2709 -91 1959 -91 
Q 1206 -91 779 398 
Q 353 888 353 1747 
Q 353 2609 779 3096 
Q 1206 3584 1959 3584 
z
" transform="scale(0.015625)"/>
       <path id="DejaVuSans-63" d="M 3122 3366 
L 3122 2828 
Q 2878 2963 2633 3030 
Q 2388 3097 2138 3097 
Q 1578 3097 1268 2742 
Q 959 2388 959 1747 
Q 959 1106 1268 751 
Q 1578 397 2138 397 
Q 2388 397 2633 464 
Q 2878 531 3122 666 
L 3122 134 
Q 2881 22 2623 -34 
Q 2366 -91 2075 -91 
Q 1284 -91 818 406 
Q 353 903 353 1747 
Q 353 2603 823 3093 
Q 1294 3584 2113 3584 
Q 2378 3584 2631 3529 
Q 2884 3475 3122 3366 
z
" transform="scale(0.015625)"/>
       <path id="DejaVuSans-68" d="M 3513 2113 
L 3513 0 
L 2938 0 
L 2938 2094 
Q 2938 2591 2744 2837 
Q 2550 3084 2163 3084 
Q 1697 3084 1428 2787 
Q 1159 2491 1159 1978 
L 1159 0 
L 581 0 
L 581 4863 
L 1159 4863 
L 1159 2956 
Q 1366 3272 1645 3428 
Q 1925 3584 2291 3584 
Q 2894 3584 3203 3211 
Q 3513 2838 3513 2113 
z
" transform="scale(0.015625)"/>
      </defs>
      <use xlink:href="#DejaVuSans-45"/>
      <use xlink:href="#DejaVuSans-70" transform="translate(63.183594 0)"/>
      <use xlink:href="#DejaVuSans-6f" transform="translate(126.660156 0)"/>
      <use xlink:href="#DejaVuSans-63" transform="translate(187.841797 0)"/>
      <use xlink:href="#DejaVuSans-68" transform="translate(242.822266 0)"/>
     </g>
    </g>
   </g>
   <g id="matplotlib.axis_2">
    <g id="ytick_1">
     <g id="line2d_21">
      <path d="M 56.015346 277.470735 
L 565.2 277.470735 
" clip-path="url(#p2c5df1071b)" style="fill: none; stroke: #b0b0b0; stroke-width: 0.8; stroke-linecap: square"/>
     </g>
     <g id="line2d_22">
      <defs>
       <path id="mad93c7f0f9" d="M 0 0 
L -3.5 0 
" style="stroke: #000000; stroke-width: 0.8"/>
      </defs>
      <g>
       <use xlink:href="#mad93c7f0f9" x="56.015346" y="277.470735" style="stroke: #000000; stroke-width: 0.8"/>
      </g>
     </g>
     <g id="text_12">
      <!-- $\mathdefault{10^{-4}}$ -->
      <g transform="translate(25.515346 281.269954) scale(0.1 -0.1)">
       <defs>
        <path id="DejaVuSans-2212" d="M 678 2272 
L 4684 2272 
L 4684 1741 
L 678 1741 
L 678 2272 
z
" transform="scale(0.015625)"/>
       </defs>
       <use xlink:href="#DejaVuSans-31" transform="translate(0 0.684375)"/>
       <use xlink:href="#DejaVuSans-30" transform="translate(63.623047 0.684375)"/>
       <use xlink:href="#DejaVuSans-2212" transform="translate(128.203125 38.965625) scale(0.7)"/>
       <use xlink:href="#DejaVuSans-34" transform="translate(186.855469 38.965625) scale(0.7)"/>
      </g>
     </g>
    </g>
    <g id="ytick_2">
     <g id="line2d_23">
      <path d="M 56.015346 203.37995 
L 565.2 203.37995 
" clip-path="url(#p2c5df1071b)" style="fill: none; stroke: #b0b0b0; stroke-width: 0.8; stroke-linecap: square"/>
     </g>
     <g id="line2d_24">
      <g>
       <use xlink:href="#mad93c7f0f9" x="56.015346" y="203.37995" style="stroke: #000000; stroke-width: 0.8"/>
      </g>
     </g>
     <g id="text_13">
      <!-- $\mathdefault{10^{-3}}$ -->
      <g transform="translate(25.515346 207.179169) scale(0.1 -0.1)">
       <use xlink:href="#DejaVuSans-31" transform="translate(0 0.765625)"/>
       <use xlink:href="#DejaVuSans-30" transform="translate(63.623047 0.765625)"/>
       <use xlink:href="#DejaVuSans-2212" transform="translate(128.203125 39.046875) scale(0.7)"/>
       <use xlink:href="#DejaVuSans-33" transform="translate(186.855469 39.046875) scale(0.7)"/>
      </g>
     </g>
    </g>
    <g id="ytick_3">
     <g id="line2d_25">
      <path d="M 56.015346 129.289165 
L 565.2 129.289165 
" clip-path="url(#p2c5df1071b)" style="fill: none; stroke: #b0b0b0; stroke-width: 0.8; stroke-linecap: square"/>
     </g>
     <g id="line2d_26">
      <g>
       <use xlink:href="#mad93c7f0f9" x="56.015346" y="129.289165" style="stroke: #000000; stroke-width: 0.8"/>
      </g>
     </g>
     <g id="text_14">
      <!-- $\mathdefault{10^{-2}}$ -->
      <g transform="translate(25.515346 133.088383) scale(0.1 -0.1)">
       <use xlink:href="#DejaVuSans-31" transform="translate(0 0.765625)"/>
       <use xlink:href="#DejaVuSans-30" transform="translate(63.623047 0.765625)"/>
       <use xlink:href="#DejaVuSans-2212" transform="translate(128.203125 39.046875) scale(0.7)"/>
       <use xlink:href="#DejaVuSans-32" transform="translate(186.855469 39.046875) scale(0.7)"/>
      </g>
     </g>
    </g>
    <g id="ytick_4">
     <g id="line2d_27">
      <path d="M 56.015346 55.198379 
L 565.2 55.198379 
" clip-path="url(#p2c5df1071b)" style="fill: none; stroke: #b0b0b0; stroke-width: 0.8; stroke-linecap: square"/>
     </g>
     <g id="line2d_28">
      <g>
       <use xlink:href="#mad93c7f0f9" x="56.015346" y="55.198379" style="stroke: #000000; stroke-width: 0.8"/>
      </g>
     </g>
     <g id="text_15">
      <!-- $\mathdefault{10^{-1}}$ -->
      <g transform="translate(25.515346 58.997598) scale(0.1 -0.1)">
       <use xlink:href="#DejaVuSans-31" transform="translate(0 0.684375)"/>
       <use xlink:href="#DejaVuSans-30" transform="translate(63.623047 0.684375)"/>
       <use xlink:href="#DejaVuSans-2212" transform="translate(128.203125 38.965625) scale(0.7)"/>
       <use xlink:href="#DejaVuSans-31" transform="translate(186.855469 38.965625) scale(0.7)"/>
      </g>
     </g>
    </g>
    <g id="ytick_5">
     <g id="line2d_29">
      <defs>
       <path id="m2f395512e8" d="M 0 0 
L -2 0 
" style="stroke: #000000; stroke-width: 0.6"/>
      </defs>
      <g>
       <use xlink:href="#m2f395512e8" x="56.015346" y="316.211232" style="stroke: #000000; stroke-width: 0.6"/>
      </g>
     </g>
    </g>
    <g id="ytick_6">
     <g id="line2d_30">
      <g>
       <use xlink:href="#m2f395512e8" x="56.015346" y="306.954423" style="stroke: #000000; stroke-width: 0.6"/>
      </g>
     </g>
    </g>
    <g id="ytick_7">
     <g id="line2d_31">
      <g>
       <use xlink:href="#m2f395512e8" x="56.015346" y="299.774284" style="stroke: #000000; stroke-width: 0.6"/>
      </g>
     </g>
    </g>
    <g id="ytick_8">
     <g id="line2d_32">
      <g>
       <use xlink:href="#m2f395512e8" x="56.015346" y="293.907683" style="stroke: #000000; stroke-width: 0.6"/>
      </g>
     </g>
    </g>
    <g id="ytick_9">
     <g id="line2d_33">
      <g>
       <use xlink:href="#m2f395512e8" x="56.015346" y="288.947543" style="stroke: #000000; stroke-width: 0.6"/>
      </g>
     </g>
    </g>
    <g id="ytick_10">
     <g id="line2d_34">
      <g>
       <use xlink:href="#m2f395512e8" x="56.015346" y="284.650874" style="stroke: #000000; stroke-width: 0.6"/>
      </g>
     </g>
    </g>
    <g id="ytick_11">
     <g id="line2d_35">
      <g>
       <use xlink:href="#m2f395512e8" x="56.015346" y="280.860944" style="stroke: #000000; stroke-width: 0.6"/>
      </g>
     </g>
    </g>
    <g id="ytick_12">
     <g id="line2d_36">
      <g>
       <use xlink:href="#m2f395512e8" x="56.015346" y="255.167187" style="stroke: #000000; stroke-width: 0.6"/>
      </g>
     </g>
    </g>
    <g id="ytick_13">
     <g id="line2d_37">
      <g>
       <use xlink:href="#m2f395512e8" x="56.015346" y="242.120447" style="stroke: #000000; stroke-width: 0.6"/>
      </g>
     </g>
    </g>
    <g id="ytick_14">
     <g id="line2d_38">
      <g>
       <use xlink:href="#m2f395512e8" x="56.015346" y="232.863638" style="stroke: #000000; stroke-width: 0.6"/>
      </g>
     </g>
    </g>
    <g id="ytick_15">
     <g id="line2d_39">
      <g>
       <use xlink:href="#m2f395512e8" x="56.015346" y="225.683499" style="stroke: #000000; stroke-width: 0.6"/>
      </g>
     </g>
    </g>
    <g id="ytick_16">
     <g id="line2d_40">
      <g>
       <use xlink:href="#m2f395512e8" x="56.015346" y="219.816898" style="stroke: #000000; stroke-width: 0.6"/>
      </g>
     </g>
    </g>
    <g id="ytick_17">
     <g id="line2d_41">
      <g>
       <use xlink:href="#m2f395512e8" x="56.015346" y="214.856758" style="stroke: #000000; stroke-width: 0.6"/>
      </g>
     </g>
    </g>
    <g id="ytick_18">
     <g id="line2d_42">
      <g>
       <use xlink:href="#m2f395512e8" x="56.015346" y="210.560089" style="stroke: #000000; stroke-width: 0.6"/>
      </g>
     </g>
    </g>
    <g id="ytick_19">
     <g id="line2d_43">
      <g>
       <use xlink:href="#m2f395512e8" x="56.015346" y="206.770158" style="stroke: #000000; stroke-width: 0.6"/>
      </g>
     </g>
    </g>
    <g id="ytick_20">
     <g id="line2d_44">
      <g>
       <use xlink:href="#m2f395512e8" x="56.015346" y="181.076401" style="stroke: #000000; stroke-width: 0.6"/>
      </g>
     </g>
    </g>
    <g id="ytick_21">
     <g id="line2d_45">
      <g>
       <use xlink:href="#m2f395512e8" x="56.015346" y="168.029661" style="stroke: #000000; stroke-width: 0.6"/>
      </g>
     </g>
    </g>
    <g id="ytick_22">
     <g id="line2d_46">
      <g>
       <use xlink:href="#m2f395512e8" x="56.015346" y="158.772852" style="stroke: #000000; stroke-width: 0.6"/>
      </g>
     </g>
    </g>
    <g id="ytick_23">
     <g id="line2d_47">
      <g>
       <use xlink:href="#m2f395512e8" x="56.015346" y="151.592713" style="stroke: #000000; stroke-width: 0.6"/>
      </g>
     </g>
    </g>
    <g id="ytick_24">
     <g id="line2d_48">
      <g>
       <use xlink:href="#m2f395512e8" x="56.015346" y="145.726113" style="stroke: #000000; stroke-width: 0.6"/>
      </g>
     </g>
    </g>
    <g id="ytick_25">
     <g id="line2d_49">
      <g>
       <use xlink:href="#m2f395512e8" x="56.015346" y="140.765972" style="stroke: #000000; stroke-width: 0.6"/>
      </g>
     </g>
    </g>
    <g id="ytick_26">
     <g id="line2d_50">
      <g>
       <use xlink:href="#m2f395512e8" x="56.015346" y="136.469304" style="stroke: #000000; stroke-width: 0.6"/>
      </g>
     </g>
    </g>
    <g id="ytick_27">
     <g id="line2d_51">
      <g>
       <use xlink:href="#m2f395512e8" x="56.015346" y="132.679373" style="stroke: #000000; stroke-width: 0.6"/>
      </g>
     </g>
    </g>
    <g id="ytick_28">
     <g id="line2d_52">
      <g>
       <use xlink:href="#m2f395512e8" x="56.015346" y="106.985616" style="stroke: #000000; stroke-width: 0.6"/>
      </g>
     </g>
    </g>
    <g id="ytick_29">
     <g id="line2d_53">
      <g>
       <use xlink:href="#m2f395512e8" x="56.015346" y="93.938876" style="stroke: #000000; stroke-width: 0.6"/>
      </g>
     </g>
    </g>
    <g id="ytick_30">
     <g id="line2d_54">
      <g>
       <use xlink:href="#m2f395512e8" x="56.015346" y="84.682067" style="stroke: #000000; stroke-width: 0.6"/>
      </g>
     </g>
    </g>
    <g id="ytick_31">
     <g id="line2d_55">
      <g>
       <use xlink:href="#m2f395512e8" x="56.015346" y="77.501928" style="stroke: #000000; stroke-width: 0.6"/>
      </g>
     </g>
    </g>
    <g id="ytick_32">
     <g id="line2d_56">
      <g>
       <use xlink:href="#m2f395512e8" x="56.015346" y="71.635327" style="stroke: #000000; stroke-width: 0.6"/>
      </g>
     </g>
    </g>
    <g id="ytick_33">
     <g id="line2d_57">
      <g>
       <use xlink:href="#m2f395512e8" x="56.015346" y="66.675187" style="stroke: #000000; stroke-width: 0.6"/>
      </g>
     </g>
    </g>
    <g id="ytick_34">
     <g id="line2d_58">
      <g>
       <use xlink:href="#m2f395512e8" x="56.015346" y="62.378518" style="stroke: #000000; stroke-width: 0.6"/>
      </g>
     </g>
    </g>
    <g id="ytick_35">
     <g id="line2d_59">
      <g>
       <use xlink:href="#m2f395512e8" x="56.015346" y="58.588588" style="stroke: #000000; stroke-width: 0.6"/>
      </g>
     </g>
    </g>
    <g id="ytick_36">
     <g id="line2d_60">
      <g>
       <use xlink:href="#m2f395512e8" x="56.015346" y="32.89483" style="stroke: #000000; stroke-width: 0.6"/>
      </g>
     </g>
    </g>
    <g id="text_16">
     <!-- MSE Loss -->
     <g transform="translate(19.435659 196.023906) rotate(-90) scale(0.1 -0.1)">
      <defs>
       <path id="DejaVuSans-4d" d="M 628 4666 
L 1569 4666 
L 2759 1491 
L 3956 4666 
L 4897 4666 
L 4897 0 
L 4281 0 
L 4281 4097 
L 3078 897 
L 2444 897 
L 1241 4097 
L 1241 0 
L 628 0 
L 628 4666 
z
" transform="scale(0.015625)"/>
       <path id="DejaVuSans-53" d="M 3425 4513 
L 3425 3897 
Q 3066 4069 2747 4153 
Q 2428 4238 2131 4238 
Q 1616 4238 1336 4038 
Q 1056 3838 1056 3469 
Q 1056 3159 1242 3001 
Q 1428 2844 1947 2747 
L 2328 2669 
Q 3034 2534 3370 2195 
Q 3706 1856 3706 1288 
Q 3706 609 3251 259 
Q 2797 -91 1919 -91 
Q 1588 -91 1214 -16 
Q 841 59 441 206 
L 441 856 
Q 825 641 1194 531 
Q 1563 422 1919 422 
Q 2459 422 2753 634 
Q 3047 847 3047 1241 
Q 3047 1584 2836 1778 
Q 2625 1972 2144 2069 
L 1759 2144 
Q 1053 2284 737 2584 
Q 422 2884 422 3419 
Q 422 4038 858 4394 
Q 1294 4750 2059 4750 
Q 2388 4750 2728 4690 
Q 3069 4631 3425 4513 
z
" transform="scale(0.015625)"/>
       <path id="DejaVuSans-20" transform="scale(0.015625)"/>
       <path id="DejaVuSans-4c" d="M 628 4666 
L 1259 4666 
L 1259 531 
L 3531 531 
L 3531 0 
L 628 0 
L 628 4666 
z
" transform="scale(0.015625)"/>
       <path id="DejaVuSans-73" d="M 2834 3397 
L 2834 2853 
Q 2591 2978 2328 3040 
Q 2066 3103 1784 3103 
Q 1356 3103 1142 2972 
Q 928 2841 928 2578 
Q 928 2378 1081 2264 
Q 1234 2150 1697 2047 
L 1894 2003 
Q 2506 1872 2764 1633 
Q 3022 1394 3022 966 
Q 3022 478 2636 193 
Q 2250 -91 1575 -91 
Q 1294 -91 989 -36 
Q 684 19 347 128 
L 347 722 
Q 666 556 975 473 
Q 1284 391 1588 391 
Q 1994 391 2212 530 
Q 2431 669 2431 922 
Q 2431 1156 2273 1281 
Q 2116 1406 1581 1522 
L 1381 1569 
Q 847 1681 609 1914 
Q 372 2147 372 2553 
Q 372 3047 722 3315 
Q 1072 3584 1716 3584 
Q 2034 3584 2315 3537 
Q 2597 3491 2834 3397 
z
" transform="scale(0.015625)"/>
      </defs>
      <use xlink:href="#DejaVuSans-4d"/>
      <use xlink:href="#DejaVuSans-53" transform="translate(86.279297 0)"/>
      <use xlink:href="#DejaVuSans-45" transform="translate(149.755859 0)"/>
      <use xlink:href="#DejaVuSans-20" transform="translate(212.939453 0)"/>
      <use xlink:href="#DejaVuSans-4c" transform="translate(244.726562 0)"/>
      <use xlink:href="#DejaVuSans-6f" transform="translate(298.689453 0)"/>
      <use xlink:href="#DejaVuSans-73" transform="translate(359.871094 0)"/>
      <use xlink:href="#DejaVuSans-73" transform="translate(411.970703 0)"/>
     </g>
    </g>
   </g>
   <g id="line2d_61">
    <path d="M 79.160103 40.801818 
L 80.453106 88.546754 
L 81.74611 109.630448 
L 83.039113 125.700986 
L 84.332116 136.676838 
L 85.625119 144.541648 
L 86.918122 150.969221 
L 88.211125 155.793025 
L 89.504129 160.158814 
L 90.797132 163.829947 
L 92.090135 166.99658 
L 93.383138 170.571097 
L 94.676141 173.218124 
L 97.262148 180.695632 
L 98.555151 183.373278 
L 99.848154 186.37011 
L 101.141157 190.065001 
L 102.43416 192.974223 
L 103.727164 197.978797 
L 106.31317 204.803695 
L 108.899176 210.337028 
L 110.19218 215.465201 
L 111.485183 218.37266 
L 112.778186 222.205613 
L 115.364192 228.368585 
L 117.950199 233.267693 
L 119.243202 234.637184 
L 120.536205 232.758581 
L 121.829208 237.654097 
L 123.122211 238.822789 
L 124.415215 240.793268 
L 125.708218 241.306683 
L 127.001221 241.595011 
L 128.294224 242.771793 
L 130.88023 242.284545 
L 132.173234 244.9174 
L 133.466237 245.240645 
L 134.75924 245.918844 
L 136.052243 242.945003 
L 137.345246 246.703871 
L 138.63825 246.922471 
L 139.931253 247.521897 
L 141.224256 248.868072 
L 143.810262 250.762799 
L 145.103266 250.678436 
L 146.396269 253.06706 
L 147.689272 253.512352 
L 148.982275 255.413679 
L 150.275278 257.6043 
L 151.568281 257.309438 
L 152.861285 259.388356 
L 154.154288 258.690352 
L 155.447291 239.478805 
L 156.740294 246.645318 
L 158.033297 249.281351 
L 159.326301 250.728188 
L 161.912307 253.305062 
L 163.20531 253.058997 
L 164.498313 255.765528 
L 165.791316 257.009148 
L 167.08432 257.917319 
L 168.377323 259.183344 
L 169.670326 259.144595 
L 170.963329 260.388856 
L 172.256332 261.442153 
L 173.549336 261.260145 
L 174.842339 262.366049 
L 176.135342 262.49717 
L 177.428345 262.765086 
L 178.721348 262.797012 
L 180.014351 265.002134 
L 181.307355 264.117569 
L 182.600358 263.596588 
L 183.893361 264.538472 
L 185.186364 265.829909 
L 186.479367 265.588865 
L 187.772371 264.721923 
L 189.065374 266.484205 
L 190.358377 266.871248 
L 191.65138 266.299913 
L 192.944383 267.547199 
L 194.237387 267.727339 
L 195.53039 267.279142 
L 196.823393 268.929039 
L 199.409399 268.296453 
L 200.702402 268.877261 
L 201.995406 269.294651 
L 203.288409 268.465999 
L 204.581412 269.542963 
L 207.167418 268.58366 
L 208.460422 269.293229 
L 209.753425 270.42443 
L 211.046428 270.729127 
L 212.339431 271.168301 
L 213.632434 268.909305 
L 214.925437 270.559943 
L 217.511444 271.442588 
L 218.804447 271.846735 
L 220.09745 271.417685 
L 221.390453 271.561368 
L 223.97646 271.409344 
L 225.269463 271.708055 
L 226.562466 272.515934 
L 227.855469 272.176282 
L 229.148472 272.713981 
L 230.441476 273.067569 
L 231.734479 271.947019 
L 233.027482 273.056381 
L 234.320485 272.655713 
L 235.613488 273.767881 
L 236.906492 272.027797 
L 238.199495 272.949403 
L 239.492498 273.001778 
L 240.785501 273.984585 
L 242.078504 273.650412 
L 243.371508 273.984004 
L 244.664511 274.123682 
L 245.957514 274.600809 
L 247.250517 274.230318 
L 248.54352 274.102624 
L 249.836523 274.549486 
L 251.129527 273.901347 
L 252.42253 273.931147 
L 253.715533 274.889594 
L 255.008536 274.591118 
L 256.301539 274.476346 
L 257.594543 275.08725 
L 260.180549 275.158335 
L 261.473552 275.247923 
L 262.766555 275.484763 
L 264.059558 274.991051 
L 265.352562 275.770301 
L 266.645565 273.978963 
L 267.938568 275.00965 
L 269.231571 275.303572 
L 270.524574 276.176282 
L 271.817578 275.283576 
L 273.110581 275.987492 
L 274.403584 275.59578 
L 275.696587 275.920869 
L 276.98959 276.421422 
L 278.282593 276.414221 
L 279.575597 275.609883 
L 280.8686 276.641836 
L 282.161603 275.726547 
L 283.454606 276.224543 
L 284.747609 276.458753 
L 286.040613 277.004552 
L 287.333616 276.876647 
L 288.626619 276.082449 
L 289.919622 276.872748 
L 291.212625 276.482532 
L 292.505628 277.45713 
L 293.798632 276.66075 
L 295.091635 277.172711 
L 296.384638 276.445947 
L 297.677641 276.907956 
L 298.970644 277.842892 
L 300.263648 276.268705 
L 301.556651 277.395504 
L 302.849654 276.557515 
L 304.142657 277.722651 
L 305.43566 276.962662 
L 306.728664 277.495203 
L 308.021667 278.239992 
L 309.31467 277.850546 
L 310.607673 277.889957 
L 311.900676 278.230697 
L 314.486683 277.688359 
L 315.779686 277.641836 
L 317.072689 277.876152 
L 319.658695 277.418575 
L 320.951699 278.90034 
L 322.244702 277.005522 
L 323.537705 278.521578 
L 324.830708 278.686782 
L 326.123711 278.532298 
L 327.416714 277.71739 
L 328.709718 279.571257 
L 330.002721 278.980304 
L 331.295724 277.829291 
L 332.588727 278.420373 
L 333.88173 278.360907 
L 335.174734 278.661285 
L 336.467737 278.794298 
L 337.76074 279.651592 
L 339.053743 279.079612 
L 340.346746 279.213362 
L 341.639749 278.74307 
L 342.932753 278.128542 
L 344.225756 279.084438 
L 345.518759 279.367358 
L 346.811762 279.94267 
L 348.104765 279.362716 
L 349.397769 279.984349 
L 350.690772 279.177934 
L 351.983775 279.286972 
L 353.276778 280.389124 
L 354.569781 279.403546 
L 355.862785 279.36498 
L 357.155788 278.61092 
L 358.448791 279.867245 
L 359.741794 278.867259 
L 361.034797 280.391714 
L 362.3278 280.113702 
L 363.620804 279.496985 
L 364.913807 281.064881 
L 367.499813 279.810673 
L 368.792816 280.346986 
L 370.08582 280.737012 
L 371.378823 280.095966 
L 372.671826 279.995421 
L 373.964829 280.333678 
L 375.257832 279.825911 
L 376.550835 280.455964 
L 377.843839 281.289146 
L 379.136842 281.508455 
L 380.429845 279.602828 
L 381.722848 279.401117 
L 384.308855 281.085398 
L 386.894861 281.153772 
L 388.187864 281.205579 
L 389.480867 281.836523 
L 390.77387 281.026429 
L 392.066874 282.218732 
L 393.359877 281.340402 
L 394.65288 280.966139 
L 395.945883 281.64981 
L 397.238886 281.7061 
L 398.53189 280.534785 
L 399.824893 281.963277 
L 401.117896 281.498986 
L 402.410899 281.344536 
L 403.703902 281.350467 
L 404.996906 281.94463 
L 407.582912 282.340194 
L 408.875915 282.25195 
L 410.168918 283.033081 
L 411.461921 283.118163 
L 412.754925 282.312354 
L 414.047928 282.30374 
L 415.340931 282.785543 
L 416.633934 282.024208 
L 417.926937 282.838782 
L 419.219941 282.995938 
L 420.512944 282.63384 
L 421.805947 283.35199 
L 423.09895 282.171832 
L 424.391953 283.099187 
L 425.684956 282.365112 
L 426.97796 282.980596 
L 428.270963 283.060343 
L 429.563966 282.564699 
L 430.856969 283.441345 
L 432.149972 283.807723 
L 433.442976 283.749289 
L 434.735979 283.835145 
L 436.028982 283.467226 
L 437.321985 283.598581 
L 438.614988 283.551804 
L 439.907991 283.232549 
L 441.200995 284.318563 
L 442.493998 283.126421 
L 443.787001 283.728404 
L 445.080004 282.495051 
L 446.373007 282.825913 
L 447.666011 282.943261 
L 448.959014 283.779845 
L 450.252017 282.928732 
L 451.54502 283.724781 
L 452.838023 284.277928 
L 454.131026 283.645142 
L 455.42403 283.933303 
L 456.717033 282.415027 
L 458.010036 284.041649 
L 459.303039 283.984542 
L 460.596042 284.074863 
L 461.889046 283.631388 
L 463.182049 282.951957 
L 464.475052 283.675553 
L 465.768055 284.933804 
L 467.061058 285.343985 
L 468.354062 283.821627 
L 469.647065 284.632105 
L 470.940068 284.590131 
L 472.233071 283.400909 
L 474.819077 284.467829 
L 476.112081 284.309655 
L 477.405084 284.592119 
L 478.698087 284.249477 
L 479.99109 283.033609 
L 481.284093 284.671681 
L 482.577097 284.352131 
L 483.8701 284.869501 
L 485.163103 284.593802 
L 486.456106 284.81004 
L 487.749109 284.466942 
L 489.042112 284.806432 
L 490.335116 284.506069 
L 491.628119 285.364764 
L 492.921122 284.737705 
L 494.214125 285.3918 
L 495.507128 283.127315 
L 496.800132 284.91955 
L 500.679141 284.843469 
L 501.972144 285.553312 
L 503.265147 285.485276 
L 504.558151 284.894089 
L 505.851154 285.091621 
L 507.144157 285.034533 
L 508.43716 285.21434 
L 509.730163 285.72748 
L 511.023167 284.689459 
L 512.31617 285.113765 
L 513.609173 285.78187 
L 514.902176 285.215534 
L 516.195179 284.992317 
L 517.488183 284.886071 
L 518.781186 284.933091 
L 520.074189 285.433462 
L 521.367192 284.413522 
L 522.660195 285.32473 
L 523.953198 284.806876 
L 525.246202 285.855243 
L 526.539205 285.166843 
L 527.832208 284.638967 
L 529.125211 285.397476 
L 530.418214 285.414652 
L 531.711218 285.831387 
L 533.004221 284.483531 
L 534.297224 286.267173 
L 536.88323 284.950115 
L 538.176233 285.502938 
L 539.469237 284.671334 
L 540.76224 286.338117 
L 542.055243 286.314483 
L 542.055243 286.314483 
" clip-path="url(#p2c5df1071b)" style="fill: none; stroke: #1f77b4; stroke-width: 2; stroke-linecap: square"/>
   </g>
   <g id="line2d_62">
    <path d="M 79.160103 174.905472 
L 80.453106 184.65007 
L 81.74611 180.766647 
L 83.039113 204.822562 
L 84.332116 207.005867 
L 85.625119 212.747048 
L 86.918122 220.846765 
L 88.211125 212.433422 
L 89.504129 192.007397 
L 90.797132 222.465753 
L 92.090135 221.572607 
L 93.383138 217.09044 
L 94.676141 228.637682 
L 95.969145 221.765839 
L 97.262148 224.471915 
L 98.555151 229.020666 
L 99.848154 219.181388 
L 101.141157 226.46994 
L 102.43416 223.809036 
L 103.727164 234.461673 
L 105.020167 235.637531 
L 106.31317 241.596509 
L 107.606173 239.730098 
L 108.899176 243.138887 
L 110.19218 241.60746 
L 111.485183 247.233512 
L 112.778186 243.882687 
L 114.071189 246.114553 
L 115.364192 249.584776 
L 116.657195 251.001315 
L 117.950199 249.960851 
L 119.243202 247.650692 
L 120.536205 246.87195 
L 121.829208 251.371721 
L 123.122211 249.047208 
L 124.415215 251.404072 
L 125.708218 252.83918 
L 127.001221 252.88096 
L 128.294224 251.991159 
L 129.587227 253.259173 
L 130.88023 251.381883 
L 132.173234 253.876596 
L 133.466237 255.460118 
L 134.75924 255.384999 
L 136.052243 254.390931 
L 137.345246 258.019961 
L 138.63825 257.264693 
L 139.931253 257.95324 
L 141.224256 250.243888 
L 142.517259 253.029664 
L 143.810262 248.071966 
L 145.103266 254.835557 
L 146.396269 235.932394 
L 147.689272 255.432088 
L 148.982275 245.384555 
L 150.275278 238.394265 
L 151.568281 253.702916 
L 152.861285 272.571414 
L 154.154288 276.325302 
L 155.447291 259.572084 
L 156.740294 264.928689 
L 158.033297 266.38114 
L 159.326301 269.002383 
L 160.619304 264.988746 
L 161.912307 268.660452 
L 163.20531 270.156411 
L 164.498313 272.199423 
L 165.791316 273.130186 
L 168.377323 276.587081 
L 169.670326 255.133461 
L 170.963329 269.742463 
L 172.256332 277.667758 
L 173.549336 272.982518 
L 174.842339 271.028728 
L 176.135342 277.003477 
L 177.428345 272.424954 
L 178.721348 266.884664 
L 180.014351 279.438563 
L 181.307355 280.908088 
L 182.600358 265.935985 
L 183.893361 278.858479 
L 185.186364 282.745906 
L 186.479367 281.307181 
L 187.772371 277.479299 
L 189.065374 275.86871 
L 190.358377 279.996547 
L 191.65138 278.944634 
L 192.944383 283.444907 
L 194.237387 280.74648 
L 195.53039 283.773145 
L 196.823393 283.497411 
L 198.116396 278.650641 
L 199.409399 271.376763 
L 200.702402 282.020377 
L 201.995406 285.969832 
L 203.288409 278.93675 
L 204.581412 278.074643 
L 205.874415 284.294795 
L 207.167418 281.658269 
L 208.460422 283.109836 
L 209.753425 281.397688 
L 211.046428 284.566982 
L 212.339431 284.801668 
L 213.632434 283.286071 
L 214.925437 272.285799 
L 216.218441 281.612095 
L 217.511444 278.159413 
L 218.804447 279.777167 
L 220.09745 276.302744 
L 221.390453 276.611693 
L 222.683457 285.387143 
L 223.97646 284.448853 
L 225.269463 283.893044 
L 226.562466 276.887214 
L 227.855469 278.908469 
L 229.148472 284.796637 
L 230.441476 287.317176 
L 231.734479 284.216666 
L 233.027482 284.813781 
L 234.320485 286.172667 
L 235.613488 288.648566 
L 236.906492 289.420428 
L 238.199495 285.881382 
L 239.492498 287.705957 
L 240.785501 283.454557 
L 242.078504 282.68704 
L 243.371508 288.955831 
L 244.664511 290.47615 
L 245.957514 288.581747 
L 247.250517 281.54691 
L 248.54352 287.03031 
L 249.836523 280.278803 
L 251.129527 289.164014 
L 252.42253 284.391337 
L 253.715533 282.195675 
L 255.008536 285.565639 
L 256.301539 289.360808 
L 257.594543 289.339431 
L 258.887546 283.260621 
L 260.180549 280.091251 
L 261.473552 288.751776 
L 262.766555 290.324488 
L 264.059558 289.121461 
L 265.352562 286.681464 
L 266.645565 289.957703 
L 267.938568 281.024592 
L 269.231571 290.263436 
L 270.524574 290.691063 
L 271.817578 286.667019 
L 273.110581 287.946098 
L 274.403584 291.415283 
L 275.696587 289.32221 
L 276.98959 289.567872 
L 278.282593 292.071462 
L 279.575597 286.473758 
L 280.8686 290.827578 
L 282.161603 291.63173 
L 283.454606 289.344232 
L 284.747609 283.701063 
L 286.040613 277.277252 
L 287.333616 288.651482 
L 288.626619 289.696164 
L 289.919622 283.462002 
L 291.212625 289.793632 
L 292.505628 281.50886 
L 293.798632 288.307246 
L 295.091635 291.442404 
L 296.384638 290.626895 
L 297.677641 291.469601 
L 298.970644 288.22277 
L 300.263648 290.257555 
L 301.556651 293.741466 
L 302.849654 290.585898 
L 304.142657 290.713054 
L 305.43566 290.25326 
L 306.728664 292.773778 
L 308.021667 283.517925 
L 309.31467 290.028105 
L 310.607673 289.621708 
L 311.900676 284.70519 
L 313.193679 282.034595 
L 314.486683 287.297648 
L 315.779686 284.468196 
L 317.072689 289.887429 
L 318.365692 280.540381 
L 319.658695 288.727205 
L 320.951699 287.609514 
L 322.244702 294.229565 
L 323.537705 294.507197 
L 324.830708 284.921517 
L 326.123711 294.595907 
L 327.416714 292.799784 
L 328.709718 295.112858 
L 330.002721 290.95385 
L 331.295724 294.56719 
L 332.588727 290.060974 
L 333.88173 287.36046 
L 335.174734 293.852372 
L 336.467737 291.105754 
L 337.76074 296.15772 
L 339.053743 292.242891 
L 340.346746 292.839215 
L 341.639749 295.704351 
L 342.932753 294.151743 
L 344.225756 293.03402 
L 345.518759 290.371753 
L 346.811762 294.2669 
L 348.104765 289.322596 
L 349.397769 293.658874 
L 350.690772 293.156867 
L 351.983775 294.538109 
L 353.276778 287.745343 
L 354.569781 296.350815 
L 355.862785 291.021714 
L 357.155788 293.403805 
L 358.448791 294.76185 
L 359.741794 276.686347 
L 362.3278 289.342695 
L 363.620804 297.280645 
L 364.913807 296.33324 
L 366.20681 297.137931 
L 367.499813 288.883781 
L 368.792816 297.716015 
L 370.08582 295.374013 
L 371.378823 285.895259 
L 372.671826 291.443781 
L 373.964829 292.60448 
L 375.257832 297.713068 
L 376.550835 297.922387 
L 379.136842 293.519623 
L 380.429845 297.230728 
L 381.722848 286.685261 
L 383.015851 297.455696 
L 384.308855 289.939861 
L 385.601858 292.978999 
L 386.894861 294.606469 
L 388.187864 295.749797 
L 389.480867 281.89978 
L 390.77387 299.084794 
L 392.066874 294.718473 
L 393.359877 298.935524 
L 394.65288 298.922934 
L 395.945883 298.71262 
L 397.238886 289.802791 
L 398.53189 298.537199 
L 399.824893 298.091293 
L 401.117896 294.922672 
L 402.410899 299.158371 
L 404.996906 299.374266 
L 406.289909 293.830926 
L 407.582912 299.131367 
L 408.875915 297.920154 
L 410.168918 300.022834 
L 411.461921 301.428281 
L 412.754925 300.782977 
L 414.047928 300.906859 
L 415.340931 298.958518 
L 416.633934 295.017053 
L 417.926937 302.180908 
L 419.219941 292.690385 
L 420.512944 298.476374 
L 421.805947 301.762051 
L 423.09895 298.502543 
L 424.391953 297.065736 
L 425.684956 300.486538 
L 426.97796 301.771225 
L 428.270963 298.44972 
L 429.563966 295.503966 
L 430.856969 302.210592 
L 432.149972 297.87858 
L 433.442976 296.276262 
L 434.735979 297.72727 
L 436.028982 300.117172 
L 437.321985 299.161722 
L 438.614988 299.731374 
L 439.907991 301.284767 
L 441.200995 301.315747 
L 442.493998 301.867713 
L 443.787001 301.516727 
L 445.080004 296.251185 
L 446.373007 300.330795 
L 447.666011 301.799621 
L 448.959014 299.129056 
L 450.252017 302.250267 
L 451.54502 300.521798 
L 452.838023 302.000551 
L 454.131026 299.919133 
L 455.42403 302.324099 
L 456.717033 301.420175 
L 458.010036 298.942605 
L 459.303039 300.051581 
L 460.596042 302.809194 
L 461.889046 301.387501 
L 463.182049 301.991132 
L 464.475052 292.283148 
L 465.768055 303.196486 
L 467.061058 299.780092 
L 468.354062 300.957656 
L 470.940068 302.794578 
L 472.233071 300.583173 
L 473.526074 296.549374 
L 474.819077 301.813432 
L 476.112081 297.239127 
L 477.405084 295.827922 
L 478.698087 303.623309 
L 479.99109 303.165683 
L 481.284093 297.098843 
L 482.577097 300.886112 
L 483.8701 301.450816 
L 485.163103 298.450278 
L 486.456106 301.33728 
L 487.749109 298.435605 
L 489.042112 303.707041 
L 490.335116 299.462767 
L 491.628119 301.23107 
L 492.921122 301.549834 
L 494.214125 292.584192 
L 495.507128 302.545501 
L 496.800132 303.844584 
L 498.093135 293.637098 
L 499.386138 304.392132 
L 500.679141 304.050682 
L 501.972144 297.656541 
L 503.265147 302.225088 
L 504.558151 302.71703 
L 505.851154 302.256783 
L 507.144157 302.615784 
L 508.43716 301.017988 
L 509.730163 303.475618 
L 511.023167 301.616739 
L 512.31617 303.23942 
L 513.609173 297.548784 
L 514.902176 302.33023 
L 516.195179 301.902069 
L 517.488183 298.500187 
L 518.781186 299.734783 
L 520.074189 292.591147 
L 521.367192 298.11418 
L 522.660195 303.068425 
L 523.953198 304.838182 
L 525.246202 303.948911 
L 526.539205 301.684288 
L 527.832208 302.392412 
L 529.125211 298.338401 
L 530.418214 303.801945 
L 531.711218 303.222932 
L 533.004221 302.495889 
L 534.297224 299.777024 
L 535.590227 301.370946 
L 536.88323 299.191754 
L 538.176233 298.780426 
L 539.469237 304.009056 
L 540.76224 302.531023 
L 542.055243 300.702708 
L 542.055243 300.702708 
" clip-path="url(#p2c5df1071b)" style="fill: none; stroke: #ff7f0e; stroke-width: 2; stroke-linecap: square"/>
   </g>
   <g id="patch_3">
    <path d="M 56.015346 318.04 
L 56.015346 27.6 
" style="fill: none; stroke: #000000; stroke-width: 0.8; stroke-linejoin: miter; stroke-linecap: square"/>
   </g>
   <g id="patch_4">
    <path d="M 565.2 318.04 
L 565.2 27.6 
" style="fill: none; stroke: #000000; stroke-width: 0.8; stroke-linejoin: miter; stroke-linecap: square"/>
   </g>
   <g id="patch_5">
    <path d="M 56.015346 318.04 
L 565.2 318.04 
" style="fill: none; stroke: #000000; stroke-width: 0.8; stroke-linejoin: miter; stroke-linecap: square"/>
   </g>
   <g id="patch_6">
    <path d="M 56.015346 27.6 
L 565.2 27.6 
" style="fill: none; stroke: #000000; stroke-width: 0.8; stroke-linejoin: miter; stroke-linecap: square"/>
   </g>
   <g id="text_17">
    <!-- Evolución del Loss por Época -->
    <g transform="translate(223.534548 21.6) scale(0.12 -0.12)">
     <defs>
      <path id="DejaVuSans-76" d="M 191 3500 
L 800 3500 
L 1894 563 
L 2988 3500 
L 3597 3500 
L 2284 0 
L 1503 0 
L 191 3500 
z
" transform="scale(0.015625)"/>
      <path id="DejaVuSans-6c" d="M 603 4863 
L 1178 4863 
L 1178 0 
L 603 0 
L 603 4863 
z
" transform="scale(0.015625)"/>
      <path id="DejaVuSans-75" d="M 544 1381 
L 544 3500 
L 1119 3500 
L 1119 1403 
Q 1119 906 1312 657 
Q 1506 409 1894 409 
Q 2359 409 2629 706 
Q 2900 1003 2900 1516 
L 2900 3500 
L 3475 3500 
L 3475 0 
L 2900 0 
L 2900 538 
Q 2691 219 2414 64 
Q 2138 -91 1772 -91 
Q 1169 -91 856 284 
Q 544 659 544 1381 
z
M 1991 3584 
L 1991 3584 
z
" transform="scale(0.015625)"/>
      <path id="DejaVuSans-69" d="M 603 3500 
L 1178 3500 
L 1178 0 
L 603 0 
L 603 3500 
z
M 603 4863 
L 1178 4863 
L 1178 4134 
L 603 4134 
L 603 4863 
z
" transform="scale(0.015625)"/>
      <path id="DejaVuSans-f3" d="M 1959 3097 
Q 1497 3097 1228 2736 
Q 959 2375 959 1747 
Q 959 1119 1226 758 
Q 1494 397 1959 397 
Q 2419 397 2687 759 
Q 2956 1122 2956 1747 
Q 2956 2369 2687 2733 
Q 2419 3097 1959 3097 
z
M 1959 3584 
Q 2709 3584 3137 3096 
Q 3566 2609 3566 1747 
Q 3566 888 3137 398 
Q 2709 -91 1959 -91 
Q 1206 -91 779 398 
Q 353 888 353 1747 
Q 353 2609 779 3096 
Q 1206 3584 1959 3584 
z
M 2394 5119 
L 3016 5119 
L 1997 3944 
L 1519 3944 
L 2394 5119 
z
" transform="scale(0.015625)"/>
      <path id="DejaVuSans-6e" d="M 3513 2113 
L 3513 0 
L 2938 0 
L 2938 2094 
Q 2938 2591 2744 2837 
Q 2550 3084 2163 3084 
Q 1697 3084 1428 2787 
Q 1159 2491 1159 1978 
L 1159 0 
L 581 0 
L 581 3500 
L 1159 3500 
L 1159 2956 
Q 1366 3272 1645 3428 
Q 1925 3584 2291 3584 
Q 2894 3584 3203 3211 
Q 3513 2838 3513 2113 
z
" transform="scale(0.015625)"/>
      <path id="DejaVuSans-64" d="M 2906 2969 
L 2906 4863 
L 3481 4863 
L 3481 0 
L 2906 0 
L 2906 525 
Q 2725 213 2448 61 
Q 2172 -91 1784 -91 
Q 1150 -91 751 415 
Q 353 922 353 1747 
Q 353 2572 751 3078 
Q 1150 3584 1784 3584 
Q 2172 3584 2448 3432 
Q 2725 3281 2906 2969 
z
M 947 1747 
Q 947 1113 1208 752 
Q 1469 391 1925 391 
Q 2381 391 2643 752 
Q 2906 1113 2906 1747 
Q 2906 2381 2643 2742 
Q 2381 3103 1925 3103 
Q 1469 3103 1208 2742 
Q 947 2381 947 1747 
z
" transform="scale(0.015625)"/>
      <path id="DejaVuSans-65" d="M 3597 1894 
L 3597 1613 
L 953 1613 
Q 991 1019 1311 708 
Q 1631 397 2203 397 
Q 2534 397 2845 478 
Q 3156 559 3463 722 
L 3463 178 
Q 3153 47 2828 -22 
Q 2503 -91 2169 -91 
Q 1331 -91 842 396 
Q 353 884 353 1716 
Q 353 2575 817 3079 
Q 1281 3584 2069 3584 
Q 2775 3584 3186 3129 
Q 3597 2675 3597 1894 
z
M 3022 2063 
Q 3016 2534 2758 2815 
Q 2500 3097 2075 3097 
Q 1594 3097 1305 2825 
Q 1016 2553 972 2059 
L 3022 2063 
z
" transform="scale(0.015625)"/>
      <path id="DejaVuSans-72" d="M 2631 2963 
Q 2534 3019 2420 3045 
Q 2306 3072 2169 3072 
Q 1681 3072 1420 2755 
Q 1159 2438 1159 1844 
L 1159 0 
L 581 0 
L 581 3500 
L 1159 3500 
L 1159 2956 
Q 1341 3275 1631 3429 
Q 1922 3584 2338 3584 
Q 2397 3584 2469 3576 
Q 2541 3569 2628 3553 
L 2631 2963 
z
" transform="scale(0.015625)"/>
      <path id="DejaVuSans-c9" d="M 628 4666 
L 3578 4666 
L 3578 4134 
L 1259 4134 
L 1259 2753 
L 3481 2753 
L 3481 2222 
L 1259 2222 
L 1259 531 
L 3634 531 
L 3634 0 
L 628 0 
L 628 4666 
z
M 2266 5935 
L 2844 5935 
L 2131 5110 
L 1653 5110 
L 2266 5935 
z
" transform="scale(0.015625)"/>
      <path id="DejaVuSans-61" d="M 2194 1759 
Q 1497 1759 1228 1600 
Q 959 1441 959 1056 
Q 959 750 1161 570 
Q 1363 391 1709 391 
Q 2188 391 2477 730 
Q 2766 1069 2766 1631 
L 2766 1759 
L 2194 1759 
z
M 3341 1997 
L 3341 0 
L 2766 0 
L 2766 531 
Q 2569 213 2275 61 
Q 1981 -91 1556 -91 
Q 1019 -91 701 211 
Q 384 513 384 1019 
Q 384 1609 779 1909 
Q 1175 2209 1959 2209 
L 2766 2209 
L 2766 2266 
Q 2766 2663 2505 2880 
Q 2244 3097 1772 3097 
Q 1472 3097 1187 3025 
Q 903 2953 641 2809 
L 641 3341 
Q 956 3463 1253 3523 
Q 1550 3584 1831 3584 
Q 2591 3584 2966 3190 
Q 3341 2797 3341 1997 
z
" transform="scale(0.015625)"/>
     </defs>
     <use xlink:href="#DejaVuSans-45"/>
     <use xlink:href="#DejaVuSans-76" transform="translate(63.183594 0)"/>
     <use xlink:href="#DejaVuSans-6f" transform="translate(122.363281 0)"/>
     <use xlink:href="#DejaVuSans-6c" transform="translate(183.544922 0)"/>
     <use xlink:href="#DejaVuSans-75" transform="translate(211.328125 0)"/>
     <use xlink:href="#DejaVuSans-63" transform="translate(274.707031 0)"/>
     <use xlink:href="#DejaVuSans-69" transform="translate(329.6875 0)"/>
     <use xlink:href="#DejaVuSans-f3" transform="translate(357.470703 0)"/>
     <use xlink:href="#DejaVuSans-6e" transform="translate(418.652344 0)"/>
     <use xlink:href="#DejaVuSans-20" transform="translate(482.03125 0)"/>
     <use xlink:href="#DejaVuSans-64" transform="translate(513.818359 0)"/>
     <use xlink:href="#DejaVuSans-65" transform="translate(577.294922 0)"/>
     <use xlink:href="#DejaVuSans-6c" transform="translate(638.818359 0)"/>
     <use xlink:href="#DejaVuSans-20" transform="translate(666.601562 0)"/>
     <use xlink:href="#DejaVuSans-4c" transform="translate(698.388672 0)"/>
     <use xlink:href="#DejaVuSans-6f" transform="translate(752.351562 0)"/>
     <use xlink:href="#DejaVuSans-73" transform="translate(813.533203 0)"/>
     <use xlink:href="#DejaVuSans-73" transform="translate(865.632812 0)"/>
     <use xlink:href="#DejaVuSans-20" transform="translate(917.732422 0)"/>
     <use xlink:href="#DejaVuSans-70" transform="translate(949.519531 0)"/>
     <use xlink:href="#DejaVuSans-6f" transform="translate(1012.996094 0)"/>
     <use xlink:href="#DejaVuSans-72" transform="translate(1074.177734 0)"/>
     <use xlink:href="#DejaVuSans-20" transform="translate(1115.291016 0)"/>
     <use xlink:href="#DejaVuSans-c9" transform="translate(1147.078125 0)"/>
     <use xlink:href="#DejaVuSans-70" transform="translate(1210.261719 0)"/>
     <use xlink:href="#DejaVuSans-6f" transform="translate(1273.738281 0)"/>
     <use xlink:href="#DejaVuSans-63" transform="translate(1334.919922 0)"/>
     <use xlink:href="#DejaVuSans-61" transform="translate(1389.900391 0)"/>
    </g>
   </g>
   <g id="legend_1">
    <g id="patch_7">
     <path d="M 477.1 64.95625 
L 558.2 64.95625 
Q 560.2 64.95625 560.2 62.95625 
L 560.2 34.6 
Q 560.2 32.6 558.2 32.6 
L 477.1 32.6 
Q 475.1 32.6 475.1 34.6 
L 475.1 62.95625 
Q 475.1 64.95625 477.1 64.95625 
z
" style="fill: #ffffff; opacity: 0.8; stroke: #cccccc; stroke-linejoin: miter"/>
    </g>
    <g id="line2d_63">
     <path d="M 479.1 40.698438 
L 489.1 40.698438 
L 499.1 40.698438 
" style="fill: none; stroke: #1f77b4; stroke-width: 2; stroke-linecap: square"/>
    </g>
    <g id="text_18">
     <!-- Train Loss -->
     <g transform="translate(507.1 44.198438) scale(0.1 -0.1)">
      <defs>
       <path id="DejaVuSans-54" d="M -19 4666 
L 3928 4666 
L 3928 4134 
L 2272 4134 
L 2272 0 
L 1638 0 
L 1638 4134 
L -19 4134 
L -19 4666 
z
" transform="scale(0.015625)"/>
      </defs>
      <use xlink:href="#DejaVuSans-54"/>
      <use xlink:href="#DejaVuSans-72" transform="translate(46.333984 0)"/>
      <use xlink:href="#DejaVuSans-61" transform="translate(87.447266 0)"/>
      <use xlink:href="#DejaVuSans-69" transform="translate(148.726562 0)"/>
      <use xlink:href="#DejaVuSans-6e" transform="translate(176.509766 0)"/>
      <use xlink:href="#DejaVuSans-20" transform="translate(239.888672 0)"/>
      <use xlink:href="#DejaVuSans-4c" transform="translate(271.675781 0)"/>
      <use xlink:href="#DejaVuSans-6f" transform="translate(325.638672 0)"/>
      <use xlink:href="#DejaVuSans-73" transform="translate(386.820312 0)"/>
      <use xlink:href="#DejaVuSans-73" transform="translate(438.919922 0)"/>
     </g>
    </g>
    <g id="line2d_64">
     <path d="M 479.1 55.376563 
L 489.1 55.376563 
L 499.1 55.376563 
" style="fill: none; stroke: #ff7f0e; stroke-width: 2; stroke-linecap: square"/>
    </g>
    <g id="text_19">
     <!-- Test Loss -->
     <g transform="translate(507.1 58.876563) scale(0.1 -0.1)">
      <defs>
       <path id="DejaVuSans-74" d="M 1172 4494 
L 1172 3500 
L 2356 3500 
L 2356 3053 
L 1172 3053 
L 1172 1153 
Q 1172 725 1289 603 
Q 1406 481 1766 481 
L 2356 481 
L 2356 0 
L 1766 0 
Q 1100 0 847 248 
Q 594 497 594 1153 
L 594 3053 
L 172 3053 
L 172 3500 
L 594 3500 
L 594 4494 
L 1172 4494 
z
" transform="scale(0.015625)"/>
      </defs>
      <use xlink:href="#DejaVuSans-54"/>
      <use xlink:href="#DejaVuSans-65" transform="translate(44.083984 0)"/>
      <use xlink:href="#DejaVuSans-73" transform="translate(105.607422 0)"/>
      <use xlink:href="#DejaVuSans-74" transform="translate(157.707031 0)"/>
      <use xlink:href="#DejaVuSans-20" transform="translate(196.916016 0)"/>
      <use xlink:href="#DejaVuSans-4c" transform="translate(228.703125 0)"/>
      <use xlink:href="#DejaVuSans-6f" transform="translate(282.666016 0)"/>
      <use xlink:href="#DejaVuSans-73" transform="translate(343.847656 0)"/>
      <use xlink:href="#DejaVuSans-73" transform="translate(395.947266 0)"/>
     </g>
    </g>
   </g>
  </g>
 </g>
 <defs>
  <clipPath id="p2c5df1071b">
   <rect x="56.015346" y="27.6" width="509.184654" height="290.44"/>
  </clipPath>
 </defs>
</svg>
