<?xml version="1.0" encoding="utf-8" standalone="no"?>
<!DOCTYPE svg PUBLIC "-//W3C//DTD SVG 1.1//EN"
  "http://www.w3.org/Graphics/SVG/1.1/DTD/svg11.dtd">
<svg xmlns:xlink="http://www.w3.org/1999/xlink" width="576pt" height="360pt" viewBox="0 0 576 360" xmlns="http://www.w3.org/2000/svg" version="1.1">
 <metadata>
  <rdf:RDF xmlns:dc="http://purl.org/dc/elements/1.1/" xmlns:cc="http://creativecommons.org/ns#" xmlns:rdf="http://www.w3.org/1999/02/22-rdf-syntax-ns#">
   <cc:Work>
    <dc:type rdf:resource="http://purl.org/dc/dcmitype/StillImage"/>
    <dc:date>2025-05-12T19:27:58.301568</dc:date>
    <dc:format>image/svg+xml</dc:format>
    <dc:creator>
     <cc:Agent>
      <dc:title>Matplotlib v3.10.1, https://matplotlib.org/</dc:title>
     </cc:Agent>
    </dc:creator>
   </cc:Work>
  </rdf:RDF>
 </metadata>
 <defs>
  <style type="text/css">*{stroke-linejoin: round; stroke-linecap: butt}</style>
 </defs>
 <g id="figure_1">
  <g id="patch_1">
   <path d="M 0 360 
L 576 360 
L 576 0 
L 0 0 
z
" style="fill: #ffffff"/>
  </g>
  <g id="axes_1">
   <g id="patch_2">
    <path d="M 56.015346 318.04 
L 565.2 318.04 
L 565.2 27.6 
L 56.015346 27.6 
z
" style="fill: #ffffff"/>
   </g>
   <g id="matplotlib.axis_1">
    <g id="xtick_1">
     <g id="line2d_1">
      <path d="M 79.160103 318.04 
L 79.160103 27.6 
" clip-path="url(#p67740c8bb9)" style="fill: none; stroke: #b0b0b0; stroke-width: 0.8; stroke-linecap: square"/>
     </g>
     <g id="line2d_2">
      <defs>
       <path id="m7e1261f4bf" d="M 0 0 
L 0 3.5 
" style="stroke: #000000; stroke-width: 0.8"/>
      </defs>
      <g>
       <use xlink:href="#m7e1261f4bf" x="79.160103" y="318.04" style="stroke: #000000; stroke-width: 0.8"/>
      </g>
     </g>
     <g id="text_1">
      <!-- 0 -->
      <g transform="translate(75.978853 332.638438) scale(0.1 -0.1)">
       <defs>
        <path id="DejaVuSans-30" d="M 2034 4250 
Q 1547 4250 1301 3770 
Q 1056 3291 1056 2328 
Q 1056 1369 1301 889 
Q 1547 409 2034 409 
Q 2525 409 2770 889 
Q 3016 1369 3016 2328 
Q 3016 3291 2770 3770 
Q 2525 4250 2034 4250 
z
M 2034 4750 
Q 2819 4750 3233 4129 
Q 3647 3509 3647 2328 
Q 3647 1150 3233 529 
Q 2819 -91 2034 -91 
Q 1250 -91 836 529 
Q 422 1150 422 2328 
Q 422 3509 836 4129 
Q 1250 4750 2034 4750 
z
" transform="scale(0.015625)"/>
       </defs>
       <use xlink:href="#DejaVuSans-30"/>
      </g>
     </g>
    </g>
    <g id="xtick_2">
     <g id="line2d_3">
      <path d="M 138.316032 318.04 
L 138.316032 27.6 
" clip-path="url(#p67740c8bb9)" style="fill: none; stroke: #b0b0b0; stroke-width: 0.8; stroke-linecap: square"/>
     </g>
     <g id="line2d_4">
      <g>
       <use xlink:href="#m7e1261f4bf" x="138.316032" y="318.04" style="stroke: #000000; stroke-width: 0.8"/>
      </g>
     </g>
     <g id="text_2">
      <!-- 40 -->
      <g transform="translate(131.953532 332.638438) scale(0.1 -0.1)">
       <defs>
        <path id="DejaVuSans-34" d="M 2419 4116 
L 825 1625 
L 2419 1625 
L 2419 4116 
z
M 2253 4666 
L 3047 4666 
L 3047 1625 
L 3713 1625 
L 3713 1100 
L 3047 1100 
L 3047 0 
L 2419 0 
L 2419 1100 
L 313 1100 
L 313 1709 
L 2253 4666 
z
" transform="scale(0.015625)"/>
       </defs>
       <use xlink:href="#DejaVuSans-34"/>
       <use xlink:href="#DejaVuSans-30" transform="translate(63.623047 0)"/>
      </g>
     </g>
    </g>
    <g id="xtick_3">
     <g id="line2d_5">
      <path d="M 197.47196 318.04 
L 197.47196 27.6 
" clip-path="url(#p67740c8bb9)" style="fill: none; stroke: #b0b0b0; stroke-width: 0.8; stroke-linecap: square"/>
     </g>
     <g id="line2d_6">
      <g>
       <use xlink:href="#m7e1261f4bf" x="197.47196" y="318.04" style="stroke: #000000; stroke-width: 0.8"/>
      </g>
     </g>
     <g id="text_3">
      <!-- 80 -->
      <g transform="translate(191.10946 332.638438) scale(0.1 -0.1)">
       <defs>
        <path id="DejaVuSans-38" d="M 2034 2216 
Q 1584 2216 1326 1975 
Q 1069 1734 1069 1313 
Q 1069 891 1326 650 
Q 1584 409 2034 409 
Q 2484 409 2743 651 
Q 3003 894 3003 1313 
Q 3003 1734 2745 1975 
Q 2488 2216 2034 2216 
z
M 1403 2484 
Q 997 2584 770 2862 
Q 544 3141 544 3541 
Q 544 4100 942 4425 
Q 1341 4750 2034 4750 
Q 2731 4750 3128 4425 
Q 3525 4100 3525 3541 
Q 3525 3141 3298 2862 
Q 3072 2584 2669 2484 
Q 3125 2378 3379 2068 
Q 3634 1759 3634 1313 
Q 3634 634 3220 271 
Q 2806 -91 2034 -91 
Q 1263 -91 848 271 
Q 434 634 434 1313 
Q 434 1759 690 2068 
Q 947 2378 1403 2484 
z
M 1172 3481 
Q 1172 3119 1398 2916 
Q 1625 2713 2034 2713 
Q 2441 2713 2670 2916 
Q 2900 3119 2900 3481 
Q 2900 3844 2670 4047 
Q 2441 4250 2034 4250 
Q 1625 4250 1398 4047 
Q 1172 3844 1172 3481 
z
" transform="scale(0.015625)"/>
       </defs>
       <use xlink:href="#DejaVuSans-38"/>
       <use xlink:href="#DejaVuSans-30" transform="translate(63.623047 0)"/>
      </g>
     </g>
    </g>
    <g id="xtick_4">
     <g id="line2d_7">
      <path d="M 256.627888 318.04 
L 256.627888 27.6 
" clip-path="url(#p67740c8bb9)" style="fill: none; stroke: #b0b0b0; stroke-width: 0.8; stroke-linecap: square"/>
     </g>
     <g id="line2d_8">
      <g>
       <use xlink:href="#m7e1261f4bf" x="256.627888" y="318.04" style="stroke: #000000; stroke-width: 0.8"/>
      </g>
     </g>
     <g id="text_4">
      <!-- 120 -->
      <g transform="translate(247.084138 332.638438) scale(0.1 -0.1)">
       <defs>
        <path id="DejaVuSans-31" d="M 794 531 
L 1825 531 
L 1825 4091 
L 703 3866 
L 703 4441 
L 1819 4666 
L 2450 4666 
L 2450 531 
L 3481 531 
L 3481 0 
L 794 0 
L 794 531 
z
" transform="scale(0.015625)"/>
        <path id="DejaVuSans-32" d="M 1228 531 
L 3431 531 
L 3431 0 
L 469 0 
L 469 531 
Q 828 903 1448 1529 
Q 2069 2156 2228 2338 
Q 2531 2678 2651 2914 
Q 2772 3150 2772 3378 
Q 2772 3750 2511 3984 
Q 2250 4219 1831 4219 
Q 1534 4219 1204 4116 
Q 875 4013 500 3803 
L 500 4441 
Q 881 4594 1212 4672 
Q 1544 4750 1819 4750 
Q 2544 4750 2975 4387 
Q 3406 4025 3406 3419 
Q 3406 3131 3298 2873 
Q 3191 2616 2906 2266 
Q 2828 2175 2409 1742 
Q 1991 1309 1228 531 
z
" transform="scale(0.015625)"/>
       </defs>
       <use xlink:href="#DejaVuSans-31"/>
       <use xlink:href="#DejaVuSans-32" transform="translate(63.623047 0)"/>
       <use xlink:href="#DejaVuSans-30" transform="translate(127.246094 0)"/>
      </g>
     </g>
    </g>
    <g id="xtick_5">
     <g id="line2d_9">
      <path d="M 315.783817 318.04 
L 315.783817 27.6 
" clip-path="url(#p67740c8bb9)" style="fill: none; stroke: #b0b0b0; stroke-width: 0.8; stroke-linecap: square"/>
     </g>
     <g id="line2d_10">
      <g>
       <use xlink:href="#m7e1261f4bf" x="315.783817" y="318.04" style="stroke: #000000; stroke-width: 0.8"/>
      </g>
     </g>
     <g id="text_5">
      <!-- 160 -->
      <g transform="translate(306.240067 332.638438) scale(0.1 -0.1)">
       <defs>
        <path id="DejaVuSans-36" d="M 2113 2584 
Q 1688 2584 1439 2293 
Q 1191 2003 1191 1497 
Q 1191 994 1439 701 
Q 1688 409 2113 409 
Q 2538 409 2786 701 
Q 3034 994 3034 1497 
Q 3034 2003 2786 2293 
Q 2538 2584 2113 2584 
z
M 3366 4563 
L 3366 3988 
Q 3128 4100 2886 4159 
Q 2644 4219 2406 4219 
Q 1781 4219 1451 3797 
Q 1122 3375 1075 2522 
Q 1259 2794 1537 2939 
Q 1816 3084 2150 3084 
Q 2853 3084 3261 2657 
Q 3669 2231 3669 1497 
Q 3669 778 3244 343 
Q 2819 -91 2113 -91 
Q 1303 -91 875 529 
Q 447 1150 447 2328 
Q 447 3434 972 4092 
Q 1497 4750 2381 4750 
Q 2619 4750 2861 4703 
Q 3103 4656 3366 4563 
z
" transform="scale(0.015625)"/>
       </defs>
       <use xlink:href="#DejaVuSans-31"/>
       <use xlink:href="#DejaVuSans-36" transform="translate(63.623047 0)"/>
       <use xlink:href="#DejaVuSans-30" transform="translate(127.246094 0)"/>
      </g>
     </g>
    </g>
    <g id="xtick_6">
     <g id="line2d_11">
      <path d="M 374.939745 318.04 
L 374.939745 27.6 
" clip-path="url(#p67740c8bb9)" style="fill: none; stroke: #b0b0b0; stroke-width: 0.8; stroke-linecap: square"/>
     </g>
     <g id="line2d_12">
      <g>
       <use xlink:href="#m7e1261f4bf" x="374.939745" y="318.04" style="stroke: #000000; stroke-width: 0.8"/>
      </g>
     </g>
     <g id="text_6">
      <!-- 200 -->
      <g transform="translate(365.395995 332.638438) scale(0.1 -0.1)">
       <use xlink:href="#DejaVuSans-32"/>
       <use xlink:href="#DejaVuSans-30" transform="translate(63.623047 0)"/>
       <use xlink:href="#DejaVuSans-30" transform="translate(127.246094 0)"/>
      </g>
     </g>
    </g>
    <g id="xtick_7">
     <g id="line2d_13">
      <path d="M 434.095674 318.04 
L 434.095674 27.6 
" clip-path="url(#p67740c8bb9)" style="fill: none; stroke: #b0b0b0; stroke-width: 0.8; stroke-linecap: square"/>
     </g>
     <g id="line2d_14">
      <g>
       <use xlink:href="#m7e1261f4bf" x="434.095674" y="318.04" style="stroke: #000000; stroke-width: 0.8"/>
      </g>
     </g>
     <g id="text_7">
      <!-- 240 -->
      <g transform="translate(424.551924 332.638438) scale(0.1 -0.1)">
       <use xlink:href="#DejaVuSans-32"/>
       <use xlink:href="#DejaVuSans-34" transform="translate(63.623047 0)"/>
       <use xlink:href="#DejaVuSans-30" transform="translate(127.246094 0)"/>
      </g>
     </g>
    </g>
    <g id="xtick_8">
     <g id="line2d_15">
      <path d="M 493.251602 318.04 
L 493.251602 27.6 
" clip-path="url(#p67740c8bb9)" style="fill: none; stroke: #b0b0b0; stroke-width: 0.8; stroke-linecap: square"/>
     </g>
     <g id="line2d_16">
      <g>
       <use xlink:href="#m7e1261f4bf" x="493.251602" y="318.04" style="stroke: #000000; stroke-width: 0.8"/>
      </g>
     </g>
     <g id="text_8">
      <!-- 280 -->
      <g transform="translate(483.707852 332.638438) scale(0.1 -0.1)">
       <use xlink:href="#DejaVuSans-32"/>
       <use xlink:href="#DejaVuSans-38" transform="translate(63.623047 0)"/>
       <use xlink:href="#DejaVuSans-30" transform="translate(127.246094 0)"/>
      </g>
     </g>
    </g>
    <g id="xtick_9">
     <g id="line2d_17">
      <path d="M 552.40753 318.04 
L 552.40753 27.6 
" clip-path="url(#p67740c8bb9)" style="fill: none; stroke: #b0b0b0; stroke-width: 0.8; stroke-linecap: square"/>
     </g>
     <g id="line2d_18">
      <g>
       <use xlink:href="#m7e1261f4bf" x="552.40753" y="318.04" style="stroke: #000000; stroke-width: 0.8"/>
      </g>
     </g>
     <g id="text_9">
      <!-- 320 -->
      <g transform="translate(542.86378 332.638438) scale(0.1 -0.1)">
       <defs>
        <path id="DejaVuSans-33" d="M 2597 2516 
Q 3050 2419 3304 2112 
Q 3559 1806 3559 1356 
Q 3559 666 3084 287 
Q 2609 -91 1734 -91 
Q 1441 -91 1130 -33 
Q 819 25 488 141 
L 488 750 
Q 750 597 1062 519 
Q 1375 441 1716 441 
Q 2309 441 2620 675 
Q 2931 909 2931 1356 
Q 2931 1769 2642 2001 
Q 2353 2234 1838 2234 
L 1294 2234 
L 1294 2753 
L 1863 2753 
Q 2328 2753 2575 2939 
Q 2822 3125 2822 3475 
Q 2822 3834 2567 4026 
Q 2313 4219 1838 4219 
Q 1578 4219 1281 4162 
Q 984 4106 628 3988 
L 628 4550 
Q 988 4650 1302 4700 
Q 1616 4750 1894 4750 
Q 2613 4750 3031 4423 
Q 3450 4097 3450 3541 
Q 3450 3153 3228 2886 
Q 3006 2619 2597 2516 
z
" transform="scale(0.015625)"/>
       </defs>
       <use xlink:href="#DejaVuSans-33"/>
       <use xlink:href="#DejaVuSans-32" transform="translate(63.623047 0)"/>
       <use xlink:href="#DejaVuSans-30" transform="translate(127.246094 0)"/>
      </g>
     </g>
    </g>
    <g id="text_10">
     <!-- Epoch -->
     <g transform="translate(295.296736 346.316563) scale(0.1 -0.1)">
      <defs>
       <path id="DejaVuSans-45" d="M 628 4666 
L 3578 4666 
L 3578 4134 
L 1259 4134 
L 1259 2753 
L 3481 2753 
L 3481 2222 
L 1259 2222 
L 1259 531 
L 3634 531 
L 3634 0 
L 628 0 
L 628 4666 
z
" transform="scale(0.015625)"/>
       <path id="DejaVuSans-70" d="M 1159 525 
L 1159 -1331 
L 581 -1331 
L 581 3500 
L 1159 3500 
L 1159 2969 
Q 1341 3281 1617 3432 
Q 1894 3584 2278 3584 
Q 2916 3584 3314 3078 
Q 3713 2572 3713 1747 
Q 3713 922 3314 415 
Q 2916 -91 2278 -91 
Q 1894 -91 1617 61 
Q 1341 213 1159 525 
z
M 3116 1747 
Q 3116 2381 2855 2742 
Q 2594 3103 2138 3103 
Q 1681 3103 1420 2742 
Q 1159 2381 1159 1747 
Q 1159 1113 1420 752 
Q 1681 391 2138 391 
Q 2594 391 2855 752 
Q 3116 1113 3116 1747 
z
" transform="scale(0.015625)"/>
       <path id="DejaVuSans-6f" d="M 1959 3097 
Q 1497 3097 1228 2736 
Q 959 2375 959 1747 
Q 959 1119 1226 758 
Q 1494 397 1959 397 
Q 2419 397 2687 759 
Q 2956 1122 2956 1747 
Q 2956 2369 2687 2733 
Q 2419 3097 1959 3097 
z
M 1959 3584 
Q 2709 3584 3137 3096 
Q 3566 2609 3566 1747 
Q 3566 888 3137 398 
Q 2709 -91 1959 -91 
Q 1206 -91 779 398 
Q 353 888 353 1747 
Q 353 2609 779 3096 
Q 1206 3584 1959 3584 
z
" transform="scale(0.015625)"/>
       <path id="DejaVuSans-63" d="M 3122 3366 
L 3122 2828 
Q 2878 2963 2633 3030 
Q 2388 3097 2138 3097 
Q 1578 3097 1268 2742 
Q 959 2388 959 1747 
Q 959 1106 1268 751 
Q 1578 397 2138 397 
Q 2388 397 2633 464 
Q 2878 531 3122 666 
L 3122 134 
Q 2881 22 2623 -34 
Q 2366 -91 2075 -91 
Q 1284 -91 818 406 
Q 353 903 353 1747 
Q 353 2603 823 3093 
Q 1294 3584 2113 3584 
Q 2378 3584 2631 3529 
Q 2884 3475 3122 3366 
z
" transform="scale(0.015625)"/>
       <path id="DejaVuSans-68" d="M 3513 2113 
L 3513 0 
L 2938 0 
L 2938 2094 
Q 2938 2591 2744 2837 
Q 2550 3084 2163 3084 
Q 1697 3084 1428 2787 
Q 1159 2491 1159 1978 
L 1159 0 
L 581 0 
L 581 4863 
L 1159 4863 
L 1159 2956 
Q 1366 3272 1645 3428 
Q 1925 3584 2291 3584 
Q 2894 3584 3203 3211 
Q 3513 2838 3513 2113 
z
" transform="scale(0.015625)"/>
      </defs>
      <use xlink:href="#DejaVuSans-45"/>
      <use xlink:href="#DejaVuSans-70" transform="translate(63.183594 0)"/>
      <use xlink:href="#DejaVuSans-6f" transform="translate(126.660156 0)"/>
      <use xlink:href="#DejaVuSans-63" transform="translate(187.841797 0)"/>
      <use xlink:href="#DejaVuSans-68" transform="translate(242.822266 0)"/>
     </g>
    </g>
   </g>
   <g id="matplotlib.axis_2">
    <g id="ytick_1">
     <g id="line2d_19">
      <path d="M 56.015346 274.547889 
L 565.2 274.547889 
" clip-path="url(#p67740c8bb9)" style="fill: none; stroke: #b0b0b0; stroke-width: 0.8; stroke-linecap: square"/>
     </g>
     <g id="line2d_20">
      <defs>
       <path id="m4a75ec387b" d="M 0 0 
L -3.5 0 
" style="stroke: #000000; stroke-width: 0.8"/>
      </defs>
      <g>
       <use xlink:href="#m4a75ec387b" x="56.015346" y="274.547889" style="stroke: #000000; stroke-width: 0.8"/>
      </g>
     </g>
     <g id="text_11">
      <!-- $\mathdefault{10^{-4}}$ -->
      <g transform="translate(25.515346 278.347108) scale(0.1 -0.1)">
       <defs>
        <path id="DejaVuSans-2212" d="M 678 2272 
L 4684 2272 
L 4684 1741 
L 678 1741 
L 678 2272 
z
" transform="scale(0.015625)"/>
       </defs>
       <use xlink:href="#DejaVuSans-31" transform="translate(0 0.684375)"/>
       <use xlink:href="#DejaVuSans-30" transform="translate(63.623047 0.684375)"/>
       <use xlink:href="#DejaVuSans-2212" transform="translate(128.203125 38.965625) scale(0.7)"/>
       <use xlink:href="#DejaVuSans-34" transform="translate(186.855469 38.965625) scale(0.7)"/>
      </g>
     </g>
    </g>
    <g id="ytick_2">
     <g id="line2d_21">
      <path d="M 56.015346 220.13111 
L 565.2 220.13111 
" clip-path="url(#p67740c8bb9)" style="fill: none; stroke: #b0b0b0; stroke-width: 0.8; stroke-linecap: square"/>
     </g>
     <g id="line2d_22">
      <g>
       <use xlink:href="#m4a75ec387b" x="56.015346" y="220.13111" style="stroke: #000000; stroke-width: 0.8"/>
      </g>
     </g>
     <g id="text_12">
      <!-- $\mathdefault{10^{-3}}$ -->
      <g transform="translate(25.515346 223.930329) scale(0.1 -0.1)">
       <use xlink:href="#DejaVuSans-31" transform="translate(0 0.765625)"/>
       <use xlink:href="#DejaVuSans-30" transform="translate(63.623047 0.765625)"/>
       <use xlink:href="#DejaVuSans-2212" transform="translate(128.203125 39.046875) scale(0.7)"/>
       <use xlink:href="#DejaVuSans-33" transform="translate(186.855469 39.046875) scale(0.7)"/>
      </g>
     </g>
    </g>
    <g id="ytick_3">
     <g id="line2d_23">
      <path d="M 56.015346 165.714331 
L 565.2 165.714331 
" clip-path="url(#p67740c8bb9)" style="fill: none; stroke: #b0b0b0; stroke-width: 0.8; stroke-linecap: square"/>
     </g>
     <g id="line2d_24">
      <g>
       <use xlink:href="#m4a75ec387b" x="56.015346" y="165.714331" style="stroke: #000000; stroke-width: 0.8"/>
      </g>
     </g>
     <g id="text_13">
      <!-- $\mathdefault{10^{-2}}$ -->
      <g transform="translate(25.515346 169.51355) scale(0.1 -0.1)">
       <use xlink:href="#DejaVuSans-31" transform="translate(0 0.765625)"/>
       <use xlink:href="#DejaVuSans-30" transform="translate(63.623047 0.765625)"/>
       <use xlink:href="#DejaVuSans-2212" transform="translate(128.203125 39.046875) scale(0.7)"/>
       <use xlink:href="#DejaVuSans-32" transform="translate(186.855469 39.046875) scale(0.7)"/>
      </g>
     </g>
    </g>
    <g id="ytick_4">
     <g id="line2d_25">
      <path d="M 56.015346 111.297552 
L 565.2 111.297552 
" clip-path="url(#p67740c8bb9)" style="fill: none; stroke: #b0b0b0; stroke-width: 0.8; stroke-linecap: square"/>
     </g>
     <g id="line2d_26">
      <g>
       <use xlink:href="#m4a75ec387b" x="56.015346" y="111.297552" style="stroke: #000000; stroke-width: 0.8"/>
      </g>
     </g>
     <g id="text_14">
      <!-- $\mathdefault{10^{-1}}$ -->
      <g transform="translate(25.515346 115.09677) scale(0.1 -0.1)">
       <use xlink:href="#DejaVuSans-31" transform="translate(0 0.684375)"/>
       <use xlink:href="#DejaVuSans-30" transform="translate(63.623047 0.684375)"/>
       <use xlink:href="#DejaVuSans-2212" transform="translate(128.203125 38.965625) scale(0.7)"/>
       <use xlink:href="#DejaVuSans-31" transform="translate(186.855469 38.965625) scale(0.7)"/>
      </g>
     </g>
    </g>
    <g id="ytick_5">
     <g id="line2d_27">
      <path d="M 56.015346 56.880773 
L 565.2 56.880773 
" clip-path="url(#p67740c8bb9)" style="fill: none; stroke: #b0b0b0; stroke-width: 0.8; stroke-linecap: square"/>
     </g>
     <g id="line2d_28">
      <g>
       <use xlink:href="#m4a75ec387b" x="56.015346" y="56.880773" style="stroke: #000000; stroke-width: 0.8"/>
      </g>
     </g>
     <g id="text_15">
      <!-- $\mathdefault{10^{0}}$ -->
      <g transform="translate(31.415346 60.679991) scale(0.1 -0.1)">
       <use xlink:href="#DejaVuSans-31" transform="translate(0 0.765625)"/>
       <use xlink:href="#DejaVuSans-30" transform="translate(63.623047 0.765625)"/>
       <use xlink:href="#DejaVuSans-30" transform="translate(128.203125 39.046875) scale(0.7)"/>
      </g>
     </g>
    </g>
    <g id="ytick_6">
     <g id="line2d_29">
      <defs>
       <path id="m1a2d6693e1" d="M 0 0 
L -2 0 
" style="stroke: #000000; stroke-width: 0.6"/>
      </defs>
      <g>
       <use xlink:href="#m1a2d6693e1" x="56.015346" y="312.583585" style="stroke: #000000; stroke-width: 0.6"/>
      </g>
     </g>
    </g>
    <g id="ytick_7">
     <g id="line2d_30">
      <g>
       <use xlink:href="#m1a2d6693e1" x="56.015346" y="303.001266" style="stroke: #000000; stroke-width: 0.6"/>
      </g>
     </g>
    </g>
    <g id="ytick_8">
     <g id="line2d_31">
      <g>
       <use xlink:href="#m1a2d6693e1" x="56.015346" y="296.202503" style="stroke: #000000; stroke-width: 0.6"/>
      </g>
     </g>
    </g>
    <g id="ytick_9">
     <g id="line2d_32">
      <g>
       <use xlink:href="#m1a2d6693e1" x="56.015346" y="290.928972" style="stroke: #000000; stroke-width: 0.6"/>
      </g>
     </g>
    </g>
    <g id="ytick_10">
     <g id="line2d_33">
      <g>
       <use xlink:href="#m1a2d6693e1" x="56.015346" y="286.620184" style="stroke: #000000; stroke-width: 0.6"/>
      </g>
     </g>
    </g>
    <g id="ytick_11">
     <g id="line2d_34">
      <g>
       <use xlink:href="#m1a2d6693e1" x="56.015346" y="282.977155" style="stroke: #000000; stroke-width: 0.6"/>
      </g>
     </g>
    </g>
    <g id="ytick_12">
     <g id="line2d_35">
      <g>
       <use xlink:href="#m1a2d6693e1" x="56.015346" y="279.82142" style="stroke: #000000; stroke-width: 0.6"/>
      </g>
     </g>
    </g>
    <g id="ytick_13">
     <g id="line2d_36">
      <g>
       <use xlink:href="#m1a2d6693e1" x="56.015346" y="277.037864" style="stroke: #000000; stroke-width: 0.6"/>
      </g>
     </g>
    </g>
    <g id="ytick_14">
     <g id="line2d_37">
      <g>
       <use xlink:href="#m1a2d6693e1" x="56.015346" y="258.166806" style="stroke: #000000; stroke-width: 0.6"/>
      </g>
     </g>
    </g>
    <g id="ytick_15">
     <g id="line2d_38">
      <g>
       <use xlink:href="#m1a2d6693e1" x="56.015346" y="248.584487" style="stroke: #000000; stroke-width: 0.6"/>
      </g>
     </g>
    </g>
    <g id="ytick_16">
     <g id="line2d_39">
      <g>
       <use xlink:href="#m1a2d6693e1" x="56.015346" y="241.785724" style="stroke: #000000; stroke-width: 0.6"/>
      </g>
     </g>
    </g>
    <g id="ytick_17">
     <g id="line2d_40">
      <g>
       <use xlink:href="#m1a2d6693e1" x="56.015346" y="236.512193" style="stroke: #000000; stroke-width: 0.6"/>
      </g>
     </g>
    </g>
    <g id="ytick_18">
     <g id="line2d_41">
      <g>
       <use xlink:href="#m1a2d6693e1" x="56.015346" y="232.203404" style="stroke: #000000; stroke-width: 0.6"/>
      </g>
     </g>
    </g>
    <g id="ytick_19">
     <g id="line2d_42">
      <g>
       <use xlink:href="#m1a2d6693e1" x="56.015346" y="228.560376" style="stroke: #000000; stroke-width: 0.6"/>
      </g>
     </g>
    </g>
    <g id="ytick_20">
     <g id="line2d_43">
      <g>
       <use xlink:href="#m1a2d6693e1" x="56.015346" y="225.404641" style="stroke: #000000; stroke-width: 0.6"/>
      </g>
     </g>
    </g>
    <g id="ytick_21">
     <g id="line2d_44">
      <g>
       <use xlink:href="#m1a2d6693e1" x="56.015346" y="222.621085" style="stroke: #000000; stroke-width: 0.6"/>
      </g>
     </g>
    </g>
    <g id="ytick_22">
     <g id="line2d_45">
      <g>
       <use xlink:href="#m1a2d6693e1" x="56.015346" y="203.750027" style="stroke: #000000; stroke-width: 0.6"/>
      </g>
     </g>
    </g>
    <g id="ytick_23">
     <g id="line2d_46">
      <g>
       <use xlink:href="#m1a2d6693e1" x="56.015346" y="194.167708" style="stroke: #000000; stroke-width: 0.6"/>
      </g>
     </g>
    </g>
    <g id="ytick_24">
     <g id="line2d_47">
      <g>
       <use xlink:href="#m1a2d6693e1" x="56.015346" y="187.368944" style="stroke: #000000; stroke-width: 0.6"/>
      </g>
     </g>
    </g>
    <g id="ytick_25">
     <g id="line2d_48">
      <g>
       <use xlink:href="#m1a2d6693e1" x="56.015346" y="182.095414" style="stroke: #000000; stroke-width: 0.6"/>
      </g>
     </g>
    </g>
    <g id="ytick_26">
     <g id="line2d_49">
      <g>
       <use xlink:href="#m1a2d6693e1" x="56.015346" y="177.786625" style="stroke: #000000; stroke-width: 0.6"/>
      </g>
     </g>
    </g>
    <g id="ytick_27">
     <g id="line2d_50">
      <g>
       <use xlink:href="#m1a2d6693e1" x="56.015346" y="174.143597" style="stroke: #000000; stroke-width: 0.6"/>
      </g>
     </g>
    </g>
    <g id="ytick_28">
     <g id="line2d_51">
      <g>
       <use xlink:href="#m1a2d6693e1" x="56.015346" y="170.987862" style="stroke: #000000; stroke-width: 0.6"/>
      </g>
     </g>
    </g>
    <g id="ytick_29">
     <g id="line2d_52">
      <g>
       <use xlink:href="#m1a2d6693e1" x="56.015346" y="168.204306" style="stroke: #000000; stroke-width: 0.6"/>
      </g>
     </g>
    </g>
    <g id="ytick_30">
     <g id="line2d_53">
      <g>
       <use xlink:href="#m1a2d6693e1" x="56.015346" y="149.333248" style="stroke: #000000; stroke-width: 0.6"/>
      </g>
     </g>
    </g>
    <g id="ytick_31">
     <g id="line2d_54">
      <g>
       <use xlink:href="#m1a2d6693e1" x="56.015346" y="139.750929" style="stroke: #000000; stroke-width: 0.6"/>
      </g>
     </g>
    </g>
    <g id="ytick_32">
     <g id="line2d_55">
      <g>
       <use xlink:href="#m1a2d6693e1" x="56.015346" y="132.952165" style="stroke: #000000; stroke-width: 0.6"/>
      </g>
     </g>
    </g>
    <g id="ytick_33">
     <g id="line2d_56">
      <g>
       <use xlink:href="#m1a2d6693e1" x="56.015346" y="127.678634" style="stroke: #000000; stroke-width: 0.6"/>
      </g>
     </g>
    </g>
    <g id="ytick_34">
     <g id="line2d_57">
      <g>
       <use xlink:href="#m1a2d6693e1" x="56.015346" y="123.369846" style="stroke: #000000; stroke-width: 0.6"/>
      </g>
     </g>
    </g>
    <g id="ytick_35">
     <g id="line2d_58">
      <g>
       <use xlink:href="#m1a2d6693e1" x="56.015346" y="119.726817" style="stroke: #000000; stroke-width: 0.6"/>
      </g>
     </g>
    </g>
    <g id="ytick_36">
     <g id="line2d_59">
      <g>
       <use xlink:href="#m1a2d6693e1" x="56.015346" y="116.571082" style="stroke: #000000; stroke-width: 0.6"/>
      </g>
     </g>
    </g>
    <g id="ytick_37">
     <g id="line2d_60">
      <g>
       <use xlink:href="#m1a2d6693e1" x="56.015346" y="113.787527" style="stroke: #000000; stroke-width: 0.6"/>
      </g>
     </g>
    </g>
    <g id="ytick_38">
     <g id="line2d_61">
      <g>
       <use xlink:href="#m1a2d6693e1" x="56.015346" y="94.916469" style="stroke: #000000; stroke-width: 0.6"/>
      </g>
     </g>
    </g>
    <g id="ytick_39">
     <g id="line2d_62">
      <g>
       <use xlink:href="#m1a2d6693e1" x="56.015346" y="85.33415" style="stroke: #000000; stroke-width: 0.6"/>
      </g>
     </g>
    </g>
    <g id="ytick_40">
     <g id="line2d_63">
      <g>
       <use xlink:href="#m1a2d6693e1" x="56.015346" y="78.535386" style="stroke: #000000; stroke-width: 0.6"/>
      </g>
     </g>
    </g>
    <g id="ytick_41">
     <g id="line2d_64">
      <g>
       <use xlink:href="#m1a2d6693e1" x="56.015346" y="73.261855" style="stroke: #000000; stroke-width: 0.6"/>
      </g>
     </g>
    </g>
    <g id="ytick_42">
     <g id="line2d_65">
      <g>
       <use xlink:href="#m1a2d6693e1" x="56.015346" y="68.953067" style="stroke: #000000; stroke-width: 0.6"/>
      </g>
     </g>
    </g>
    <g id="ytick_43">
     <g id="line2d_66">
      <g>
       <use xlink:href="#m1a2d6693e1" x="56.015346" y="65.310038" style="stroke: #000000; stroke-width: 0.6"/>
      </g>
     </g>
    </g>
    <g id="ytick_44">
     <g id="line2d_67">
      <g>
       <use xlink:href="#m1a2d6693e1" x="56.015346" y="62.154303" style="stroke: #000000; stroke-width: 0.6"/>
      </g>
     </g>
    </g>
    <g id="ytick_45">
     <g id="line2d_68">
      <g>
       <use xlink:href="#m1a2d6693e1" x="56.015346" y="59.370748" style="stroke: #000000; stroke-width: 0.6"/>
      </g>
     </g>
    </g>
    <g id="ytick_46">
     <g id="line2d_69">
      <g>
       <use xlink:href="#m1a2d6693e1" x="56.015346" y="40.49969" style="stroke: #000000; stroke-width: 0.6"/>
      </g>
     </g>
    </g>
    <g id="ytick_47">
     <g id="line2d_70">
      <g>
       <use xlink:href="#m1a2d6693e1" x="56.015346" y="30.917371" style="stroke: #000000; stroke-width: 0.6"/>
      </g>
     </g>
    </g>
    <g id="text_16">
     <!-- MSE Loss -->
     <g transform="translate(19.435659 196.023906) rotate(-90) scale(0.1 -0.1)">
      <defs>
       <path id="DejaVuSans-4d" d="M 628 4666 
L 1569 4666 
L 2759 1491 
L 3956 4666 
L 4897 4666 
L 4897 0 
L 4281 0 
L 4281 4097 
L 3078 897 
L 2444 897 
L 1241 4097 
L 1241 0 
L 628 0 
L 628 4666 
z
" transform="scale(0.015625)"/>
       <path id="DejaVuSans-53" d="M 3425 4513 
L 3425 3897 
Q 3066 4069 2747 4153 
Q 2428 4238 2131 4238 
Q 1616 4238 1336 4038 
Q 1056 3838 1056 3469 
Q 1056 3159 1242 3001 
Q 1428 2844 1947 2747 
L 2328 2669 
Q 3034 2534 3370 2195 
Q 3706 1856 3706 1288 
Q 3706 609 3251 259 
Q 2797 -91 1919 -91 
Q 1588 -91 1214 -16 
Q 841 59 441 206 
L 441 856 
Q 825 641 1194 531 
Q 1563 422 1919 422 
Q 2459 422 2753 634 
Q 3047 847 3047 1241 
Q 3047 1584 2836 1778 
Q 2625 1972 2144 2069 
L 1759 2144 
Q 1053 2284 737 2584 
Q 422 2884 422 3419 
Q 422 4038 858 4394 
Q 1294 4750 2059 4750 
Q 2388 4750 2728 4690 
Q 3069 4631 3425 4513 
z
" transform="scale(0.015625)"/>
       <path id="DejaVuSans-20" transform="scale(0.015625)"/>
       <path id="DejaVuSans-4c" d="M 628 4666 
L 1259 4666 
L 1259 531 
L 3531 531 
L 3531 0 
L 628 0 
L 628 4666 
z
" transform="scale(0.015625)"/>
       <path id="DejaVuSans-73" d="M 2834 3397 
L 2834 2853 
Q 2591 2978 2328 3040 
Q 2066 3103 1784 3103 
Q 1356 3103 1142 2972 
Q 928 2841 928 2578 
Q 928 2378 1081 2264 
Q 1234 2150 1697 2047 
L 1894 2003 
Q 2506 1872 2764 1633 
Q 3022 1394 3022 966 
Q 3022 478 2636 193 
Q 2250 -91 1575 -91 
Q 1294 -91 989 -36 
Q 684 19 347 128 
L 347 722 
Q 666 556 975 473 
Q 1284 391 1588 391 
Q 1994 391 2212 530 
Q 2431 669 2431 922 
Q 2431 1156 2273 1281 
Q 2116 1406 1581 1522 
L 1381 1569 
Q 847 1681 609 1914 
Q 372 2147 372 2553 
Q 372 3047 722 3315 
Q 1072 3584 1716 3584 
Q 2034 3584 2315 3537 
Q 2597 3491 2834 3397 
z
" transform="scale(0.015625)"/>
      </defs>
      <use xlink:href="#DejaVuSans-4d"/>
      <use xlink:href="#DejaVuSans-53" transform="translate(86.279297 0)"/>
      <use xlink:href="#DejaVuSans-45" transform="translate(149.755859 0)"/>
      <use xlink:href="#DejaVuSans-20" transform="translate(212.939453 0)"/>
      <use xlink:href="#DejaVuSans-4c" transform="translate(244.726562 0)"/>
      <use xlink:href="#DejaVuSans-6f" transform="translate(298.689453 0)"/>
      <use xlink:href="#DejaVuSans-73" transform="translate(359.871094 0)"/>
      <use xlink:href="#DejaVuSans-73" transform="translate(411.970703 0)"/>
     </g>
    </g>
   </g>
   <g id="line2d_71">
    <path d="M 79.160103 40.801818 
L 80.639001 90.35774 
L 83.596798 133.659128 
L 85.075696 153.172504 
L 86.554594 168.306903 
L 89.512391 182.233542 
L 90.991289 186.998462 
L 92.470187 190.147225 
L 93.949085 192.156063 
L 95.427983 196.943766 
L 96.906882 199.648942 
L 98.38578 200.91355 
L 99.864678 205.215925 
L 101.343576 206.085766 
L 102.822475 208.599842 
L 105.780271 212.150784 
L 107.259169 213.433007 
L 108.738067 213.724075 
L 110.216966 214.82666 
L 111.695864 215.377835 
L 113.174762 216.228359 
L 114.65366 215.708538 
L 116.132558 216.506536 
L 117.611457 216.569703 
L 119.090355 217.51501 
L 120.569253 217.032493 
L 122.048151 218.537028 
L 123.527049 217.761484 
L 125.005948 218.625906 
L 126.484846 218.37403 
L 127.963744 218.773847 
L 129.442642 218.710041 
L 132.400439 219.230495 
L 133.879337 219.775819 
L 135.358235 219.25285 
L 136.837133 220.283384 
L 138.316032 219.493869 
L 139.79493 219.628419 
L 141.273828 220.439771 
L 142.752726 220.363194 
L 144.231624 220.843214 
L 147.189421 220.709663 
L 148.668319 222.003226 
L 150.147217 221.444242 
L 151.626115 220.15375 
L 153.105014 221.293266 
L 156.06281 221.01303 
L 157.541708 221.681019 
L 159.020607 220.819077 
L 160.499505 222.060149 
L 161.978403 221.29342 
L 163.457301 222.095997 
L 164.936199 224.519899 
L 166.415098 224.795036 
L 170.851792 224.755728 
L 172.33069 224.725127 
L 173.809589 224.252935 
L 175.288487 225.130225 
L 176.767385 225.316477 
L 178.246283 224.931839 
L 179.725181 224.856396 
L 181.20408 225.57481 
L 182.682978 224.796839 
L 184.161876 224.886116 
L 185.640774 225.263063 
L 187.119672 225.045983 
L 188.598571 225.230038 
L 190.077469 226.918653 
L 191.556367 226.653284 
L 193.035265 226.619761 
L 194.514164 227.048837 
L 195.993062 226.767034 
L 197.47196 227.13599 
L 200.429756 226.913635 
L 201.908655 227.001289 
L 203.387553 227.328927 
L 204.866451 227.047053 
L 206.345349 227.102203 
L 207.824247 226.924996 
L 209.303146 227.19243 
L 210.782044 226.957927 
L 212.260942 227.421585 
L 213.73984 226.782622 
L 216.697637 227.037881 
L 218.176535 227.248512 
L 219.655433 228.190467 
L 221.134331 228.30876 
L 224.092128 227.731594 
L 225.571026 228.115331 
L 228.528822 228.106847 
L 230.007721 227.938948 
L 231.486619 228.263676 
L 232.965517 228.383802 
L 234.444415 227.998041 
L 235.923313 228.799436 
L 237.402212 228.884166 
L 240.360008 228.524633 
L 241.838906 229.113467 
L 243.317804 228.799745 
L 244.796703 228.691083 
L 246.275601 228.848573 
L 247.754499 228.765217 
L 249.233397 228.859893 
L 250.712296 228.506971 
L 255.14899 228.791269 
L 256.627888 228.774206 
L 258.106787 229.123493 
L 259.585685 228.498396 
L 261.064583 228.870081 
L 262.543481 228.953751 
L 264.022379 228.452894 
L 265.501278 228.82795 
L 266.980176 228.680329 
L 268.459074 229.067012 
L 269.937972 228.774868 
L 271.41687 228.906414 
L 272.895769 228.50132 
L 274.374667 229.169032 
L 275.853565 228.878311 
L 278.811362 229.509057 
L 280.29026 229.053653 
L 281.769158 229.443827 
L 283.248056 229.22645 
L 284.726954 228.866744 
L 286.205853 229.209283 
L 287.684751 229.14243 
L 289.163649 229.22885 
L 290.642547 229.029196 
L 292.121445 229.565037 
L 295.079242 229.140827 
L 296.55814 229.367213 
L 298.037038 229.16867 
L 299.515936 228.841965 
L 300.994835 229.143861 
L 302.473733 229.010371 
L 303.952631 229.236501 
L 305.431529 229.280278 
L 306.910428 229.155359 
L 308.389326 229.954011 
L 309.868224 229.200023 
L 312.82602 229.239191 
L 314.304919 229.121628 
L 315.783817 229.498544 
L 317.262715 229.346804 
L 318.741613 229.442647 
L 320.220511 229.394414 
L 321.69941 230.005262 
L 323.178308 229.264275 
L 324.657206 229.264181 
L 326.136104 229.470553 
L 327.615002 229.477754 
L 329.093901 229.302143 
L 330.572799 229.719885 
L 332.051697 229.501372 
L 333.530595 229.737815 
L 335.009494 229.326804 
L 336.488392 229.345388 
L 337.96729 229.690262 
L 340.925086 229.661843 
L 343.882883 229.323118 
L 345.361781 229.575965 
L 346.840679 229.414933 
L 348.319577 229.36886 
L 351.277374 229.48077 
L 352.756272 229.739991 
L 354.23517 229.414785 
L 355.714068 229.204632 
L 358.671865 229.605333 
L 360.150763 229.359029 
L 361.629661 229.519153 
L 363.10856 229.555035 
L 364.587458 229.756318 
L 366.066356 229.68431 
L 367.545254 229.850522 
L 370.503051 229.457572 
L 371.981949 229.97999 
L 373.460847 229.596375 
L 374.939745 229.6822 
L 377.897542 229.643471 
L 379.37644 229.248004 
L 380.855338 229.573291 
L 382.334236 229.456532 
L 383.813134 229.741902 
L 385.292033 229.668718 
L 386.770931 229.713449 
L 388.249829 229.485559 
L 392.686524 229.486477 
L 394.165422 229.966931 
L 395.64432 229.494773 
L 397.123218 229.546274 
L 398.602117 229.316509 
L 400.081015 229.376043 
L 401.559913 229.578561 
L 404.517709 229.475243 
L 407.475506 229.637298 
L 408.954404 229.767845 
L 410.433302 229.714797 
L 411.9122 229.404105 
L 413.391099 229.312118 
L 414.869997 229.698711 
L 417.827793 229.442669 
L 419.306692 229.432246 
L 420.78559 229.788667 
L 422.264488 229.694888 
L 423.743386 229.762715 
L 425.222284 229.707439 
L 426.701183 229.246035 
L 429.658979 229.344511 
L 431.137877 229.799978 
L 432.616775 229.432605 
L 434.095674 229.928097 
L 435.574572 229.45444 
L 437.05347 229.541438 
L 438.532368 229.462283 
L 440.011266 229.669056 
L 442.969063 229.644172 
L 444.447961 229.283276 
L 445.926859 229.465545 
L 448.884656 229.300497 
L 450.363554 229.363394 
L 451.842452 229.666185 
L 453.32135 229.738432 
L 454.800249 229.260426 
L 456.279147 229.187932 
L 457.758045 229.535608 
L 459.236943 229.691056 
L 460.715841 229.654771 
L 462.19474 230.020364 
L 463.673638 229.749306 
L 465.152536 229.362719 
L 466.631434 229.670469 
L 468.110332 229.458819 
L 471.068129 229.706007 
L 472.547027 229.446912 
L 474.025925 229.527387 
L 475.504824 229.483986 
L 476.983722 229.608711 
L 479.941518 229.409874 
L 481.420416 229.860354 
L 482.899315 229.741605 
L 484.378213 229.841849 
L 485.857111 229.524428 
L 487.336009 229.812895 
L 488.814907 229.770187 
L 490.293806 229.474072 
L 491.772704 229.461087 
L 493.251602 229.722714 
L 496.209398 229.768414 
L 497.688297 229.148551 
L 499.167195 229.530529 
L 500.646093 229.528166 
L 502.124991 229.310135 
L 508.040584 229.90098 
L 509.519482 229.416888 
L 512.477279 229.61095 
L 513.956177 229.430427 
L 515.435075 229.734249 
L 516.913973 229.755023 
L 518.392872 229.35734 
L 521.350668 229.568366 
L 522.829566 229.501986 
L 524.308464 229.66065 
L 525.787363 229.594172 
L 527.266261 229.265849 
L 528.745159 229.574705 
L 530.224057 229.645705 
L 533.181854 229.539765 
L 534.660752 229.739874 
L 536.13965 229.792344 
L 537.618548 229.657942 
L 539.097447 229.88037 
L 542.055243 229.568914 
L 542.055243 229.568914 
" clip-path="url(#p67740c8bb9)" style="fill: none; stroke: #1f77b4; stroke-width: 2; stroke-linecap: square"/>
   </g>
   <g id="line2d_72">
    <path d="M 79.160103 213.012647 
L 80.639001 219.119848 
L 82.1179 218.407025 
L 83.596798 238.949187 
L 85.075696 235.021369 
L 86.554594 259.243362 
L 88.033492 255.23677 
L 89.512391 222.107822 
L 90.991289 265.095916 
L 92.470187 268.254318 
L 93.949085 240.77434 
L 95.427983 282.844166 
L 96.906882 257.217658 
L 98.38578 249.477755 
L 99.864678 271.246334 
L 101.343576 240.521233 
L 102.822475 271.095013 
L 104.301373 275.971669 
L 105.780271 260.530669 
L 107.259169 287.743127 
L 108.738067 268.971446 
L 110.216966 262.789081 
L 111.695864 278.094518 
L 113.174762 282.498977 
L 114.65366 288.781374 
L 116.132558 293.979382 
L 117.611457 290.954556 
L 119.090355 277.539757 
L 120.569253 279.345392 
L 122.048151 284.804261 
L 123.527049 291.518351 
L 125.005948 293.160606 
L 126.484846 295.217892 
L 127.963744 281.7349 
L 129.442642 291.12985 
L 130.921541 295.291605 
L 132.400439 295.777145 
L 133.879337 296.654223 
L 135.358235 294.674798 
L 136.837133 271.654417 
L 138.316032 288.719154 
L 139.79493 291.835953 
L 141.273828 296.736128 
L 142.752726 298.246304 
L 144.231624 289.296647 
L 145.710523 289.970585 
L 147.189421 299.74101 
L 148.668319 298.980351 
L 150.147217 296.751974 
L 151.626115 289.189725 
L 153.105014 285.348498 
L 154.583912 285.88817 
L 156.06281 295.399449 
L 157.541708 298.931583 
L 159.020607 276.637653 
L 160.499505 291.539666 
L 161.978403 297.91254 
L 163.457301 294.997702 
L 164.936199 287.652764 
L 166.415098 300.91689 
L 167.893996 299.548551 
L 169.372894 300.072836 
L 170.851792 300.022889 
L 172.33069 302.042315 
L 173.809589 296.231613 
L 175.288487 283.315039 
L 176.767385 300.428317 
L 178.246283 291.572218 
L 179.725181 289.617967 
L 181.20408 296.647314 
L 182.682978 294.809106 
L 184.161876 301.188799 
L 185.640774 294.980119 
L 187.119672 282.992411 
L 188.598571 296.003454 
L 190.077469 302.011423 
L 191.556367 297.293603 
L 193.035265 302.001135 
L 195.993062 301.780904 
L 197.47196 301.431202 
L 198.950858 301.7409 
L 200.429756 302.876606 
L 201.908655 303.82003 
L 203.387553 301.83074 
L 204.866451 296.141897 
L 206.345349 295.641164 
L 207.824247 302.841822 
L 209.303146 303.041504 
L 210.782044 296.13636 
L 212.260942 300.607189 
L 213.73984 300.368375 
L 215.218738 302.99735 
L 216.697637 293.399011 
L 218.176535 300.359504 
L 219.655433 302.656618 
L 221.134331 299.851812 
L 222.61323 303.303358 
L 224.092128 301.198686 
L 225.571026 303.051145 
L 227.049924 303.53513 
L 228.528822 298.415426 
L 231.486619 302.9911 
L 232.965517 302.995524 
L 234.444415 301.967532 
L 235.923313 303.821891 
L 237.402212 303.284539 
L 238.88111 303.11361 
L 240.360008 303.832869 
L 241.838906 303.533578 
L 243.317804 303.07845 
L 244.796703 302.890332 
L 246.275601 304.116372 
L 247.754499 303.30975 
L 249.233397 303.498648 
L 250.712296 301.625558 
L 252.191194 303.096095 
L 253.670092 301.325217 
L 255.14899 303.59301 
L 256.627888 304.350538 
L 258.106787 303.075555 
L 259.585685 302.656248 
L 261.064583 299.641067 
L 262.543481 303.983047 
L 264.022379 300.461838 
L 265.501278 303.40334 
L 266.980176 303.524832 
L 268.459074 300.524709 
L 269.937972 303.648161 
L 271.41687 303.206794 
L 272.895769 303.321159 
L 274.374667 302.776663 
L 275.853565 303.510997 
L 277.332463 303.645677 
L 278.811362 301.930536 
L 280.29026 302.356256 
L 281.769158 303.752937 
L 283.248056 303.434501 
L 284.726954 302.046768 
L 286.205853 303.819866 
L 287.684751 301.735771 
L 289.163649 303.947299 
L 290.642547 303.148157 
L 292.121445 302.890043 
L 293.600344 301.903655 
L 295.079242 303.228904 
L 296.55814 303.008553 
L 298.037038 304.38997 
L 299.515936 303.209841 
L 300.994835 303.900405 
L 302.473733 304.26569 
L 303.952631 303.9355 
L 305.431529 303.090304 
L 306.910428 304.022618 
L 308.389326 304.451752 
L 309.868224 304.169102 
L 311.347122 303.309604 
L 312.82602 304.366426 
L 314.304919 303.162653 
L 315.783817 302.881937 
L 317.262715 303.894743 
L 318.741613 303.008619 
L 320.220511 302.968005 
L 321.69941 302.596989 
L 323.178308 302.756074 
L 324.657206 303.777916 
L 327.615002 304.196282 
L 329.093901 301.875181 
L 330.572799 303.774572 
L 332.051697 304.410461 
L 333.530595 302.260691 
L 335.009494 304.564718 
L 336.488392 304.148471 
L 337.96729 303.264836 
L 339.446188 303.67383 
L 340.925086 301.371789 
L 342.403985 303.511959 
L 343.882883 304.363863 
L 345.361781 303.922551 
L 346.840679 303.905118 
L 348.319577 300.115409 
L 349.798476 303.702636 
L 351.277374 303.844847 
L 352.756272 304.190129 
L 354.23517 303.742234 
L 355.714068 303.656855 
L 357.192967 303.936518 
L 358.671865 303.596385 
L 360.150763 303.622125 
L 361.629661 304.430714 
L 363.10856 303.584714 
L 364.587458 303.163111 
L 366.066356 303.580685 
L 367.545254 303.790896 
L 369.024152 303.767314 
L 370.503051 304.179053 
L 371.981949 304.433862 
L 373.460847 302.799258 
L 374.939745 300.323212 
L 376.418643 304.295458 
L 377.897542 303.398478 
L 379.37644 304.352516 
L 380.855338 303.618868 
L 382.334236 303.863623 
L 383.813134 302.471493 
L 385.292033 303.747898 
L 386.770931 304.02588 
L 388.249829 304.430385 
L 389.728727 304.139382 
L 391.207626 304.02313 
L 392.686524 304.038169 
L 394.165422 304.838182 
L 395.64432 304.053835 
L 400.081015 304.30399 
L 401.559913 303.121502 
L 403.038811 304.027103 
L 404.517709 303.66797 
L 405.996608 302.840857 
L 407.475506 303.969008 
L 408.954404 304.313787 
L 410.433302 300.882801 
L 411.9122 304.064557 
L 413.391099 301.948485 
L 414.869997 304.319857 
L 416.348895 300.700127 
L 417.827793 303.81288 
L 419.306692 303.744797 
L 420.78559 301.471923 
L 422.264488 303.679769 
L 423.743386 304.544541 
L 425.222284 304.386038 
L 426.701183 302.799673 
L 429.658979 304.591938 
L 431.137877 302.19029 
L 432.616775 303.861854 
L 434.095674 304.456478 
L 435.574572 303.829534 
L 437.05347 303.918129 
L 438.532368 303.366955 
L 440.011266 302.205994 
L 441.490165 302.976248 
L 442.969063 304.01975 
L 444.447961 304.118861 
L 447.405758 303.442704 
L 448.884656 303.958811 
L 450.363554 302.981227 
L 451.842452 302.250009 
L 453.32135 303.947275 
L 454.800249 302.823827 
L 456.279147 302.852129 
L 457.758045 302.633096 
L 459.236943 302.549032 
L 460.715841 304.195842 
L 462.19474 303.973232 
L 463.673638 304.388433 
L 465.152536 304.212255 
L 466.631434 304.560038 
L 468.110332 303.177791 
L 469.589231 303.020622 
L 471.068129 303.684733 
L 472.547027 303.774966 
L 474.025925 304.057674 
L 475.504824 303.696164 
L 476.983722 304.275426 
L 478.46262 303.519376 
L 481.420416 304.336766 
L 482.899315 303.36487 
L 484.378213 304.475197 
L 485.857111 303.543115 
L 487.336009 301.569381 
L 488.814907 304.116133 
L 490.293806 303.878095 
L 491.772704 304.409465 
L 493.251602 304.454241 
L 494.7305 304.225138 
L 496.209398 302.706991 
L 497.688297 303.997117 
L 499.167195 301.427089 
L 500.646093 300.932628 
L 502.124991 304.123932 
L 503.60389 303.962996 
L 505.082788 303.996119 
L 506.561686 303.845046 
L 508.040584 302.988554 
L 509.519482 301.416841 
L 510.998381 304.077566 
L 512.477279 303.463798 
L 513.956177 304.332935 
L 515.435075 304.408463 
L 516.913973 303.483027 
L 518.392872 302.424925 
L 519.87177 304.561633 
L 521.350668 303.63201 
L 522.829566 304.194754 
L 525.787363 304.04846 
L 527.266261 301.099754 
L 528.745159 303.411316 
L 530.224057 302.454536 
L 531.702956 304.300822 
L 533.181854 304.406493 
L 534.660752 303.924109 
L 537.618548 304.401894 
L 539.097447 303.179752 
L 540.576345 302.109422 
L 542.055243 304.23722 
L 542.055243 304.23722 
" clip-path="url(#p67740c8bb9)" style="fill: none; stroke: #ff7f0e; stroke-width: 2; stroke-linecap: square"/>
   </g>
   <g id="patch_3">
    <path d="M 56.015346 318.04 
L 56.015346 27.6 
" style="fill: none; stroke: #000000; stroke-width: 0.8; stroke-linejoin: miter; stroke-linecap: square"/>
   </g>
   <g id="patch_4">
    <path d="M 565.2 318.04 
L 565.2 27.6 
" style="fill: none; stroke: #000000; stroke-width: 0.8; stroke-linejoin: miter; stroke-linecap: square"/>
   </g>
   <g id="patch_5">
    <path d="M 56.015346 318.04 
L 565.2 318.04 
" style="fill: none; stroke: #000000; stroke-width: 0.8; stroke-linejoin: miter; stroke-linecap: square"/>
   </g>
   <g id="patch_6">
    <path d="M 56.015346 27.6 
L 565.2 27.6 
" style="fill: none; stroke: #000000; stroke-width: 0.8; stroke-linejoin: miter; stroke-linecap: square"/>
   </g>
   <g id="text_17">
    <!-- Evolución del Loss por Época -->
    <g transform="translate(223.534548 21.6) scale(0.12 -0.12)">
     <defs>
      <path id="DejaVuSans-76" d="M 191 3500 
L 800 3500 
L 1894 563 
L 2988 3500 
L 3597 3500 
L 2284 0 
L 1503 0 
L 191 3500 
z
" transform="scale(0.015625)"/>
      <path id="DejaVuSans-6c" d="M 603 4863 
L 1178 4863 
L 1178 0 
L 603 0 
L 603 4863 
z
" transform="scale(0.015625)"/>
      <path id="DejaVuSans-75" d="M 544 1381 
L 544 3500 
L 1119 3500 
L 1119 1403 
Q 1119 906 1312 657 
Q 1506 409 1894 409 
Q 2359 409 2629 706 
Q 2900 1003 2900 1516 
L 2900 3500 
L 3475 3500 
L 3475 0 
L 2900 0 
L 2900 538 
Q 2691 219 2414 64 
Q 2138 -91 1772 -91 
Q 1169 -91 856 284 
Q 544 659 544 1381 
z
M 1991 3584 
L 1991 3584 
z
" transform="scale(0.015625)"/>
      <path id="DejaVuSans-69" d="M 603 3500 
L 1178 3500 
L 1178 0 
L 603 0 
L 603 3500 
z
M 603 4863 
L 1178 4863 
L 1178 4134 
L 603 4134 
L 603 4863 
z
" transform="scale(0.015625)"/>
      <path id="DejaVuSans-f3" d="M 1959 3097 
Q 1497 3097 1228 2736 
Q 959 2375 959 1747 
Q 959 1119 1226 758 
Q 1494 397 1959 397 
Q 2419 397 2687 759 
Q 2956 1122 2956 1747 
Q 2956 2369 2687 2733 
Q 2419 3097 1959 3097 
z
M 1959 3584 
Q 2709 3584 3137 3096 
Q 3566 2609 3566 1747 
Q 3566 888 3137 398 
Q 2709 -91 1959 -91 
Q 1206 -91 779 398 
Q 353 888 353 1747 
Q 353 2609 779 3096 
Q 1206 3584 1959 3584 
z
M 2394 5119 
L 3016 5119 
L 1997 3944 
L 1519 3944 
L 2394 5119 
z
" transform="scale(0.015625)"/>
      <path id="DejaVuSans-6e" d="M 3513 2113 
L 3513 0 
L 2938 0 
L 2938 2094 
Q 2938 2591 2744 2837 
Q 2550 3084 2163 3084 
Q 1697 3084 1428 2787 
Q 1159 2491 1159 1978 
L 1159 0 
L 581 0 
L 581 3500 
L 1159 3500 
L 1159 2956 
Q 1366 3272 1645 3428 
Q 1925 3584 2291 3584 
Q 2894 3584 3203 3211 
Q 3513 2838 3513 2113 
z
" transform="scale(0.015625)"/>
      <path id="DejaVuSans-64" d="M 2906 2969 
L 2906 4863 
L 3481 4863 
L 3481 0 
L 2906 0 
L 2906 525 
Q 2725 213 2448 61 
Q 2172 -91 1784 -91 
Q 1150 -91 751 415 
Q 353 922 353 1747 
Q 353 2572 751 3078 
Q 1150 3584 1784 3584 
Q 2172 3584 2448 3432 
Q 2725 3281 2906 2969 
z
M 947 1747 
Q 947 1113 1208 752 
Q 1469 391 1925 391 
Q 2381 391 2643 752 
Q 2906 1113 2906 1747 
Q 2906 2381 2643 2742 
Q 2381 3103 1925 3103 
Q 1469 3103 1208 2742 
Q 947 2381 947 1747 
z
" transform="scale(0.015625)"/>
      <path id="DejaVuSans-65" d="M 3597 1894 
L 3597 1613 
L 953 1613 
Q 991 1019 1311 708 
Q 1631 397 2203 397 
Q 2534 397 2845 478 
Q 3156 559 3463 722 
L 3463 178 
Q 3153 47 2828 -22 
Q 2503 -91 2169 -91 
Q 1331 -91 842 396 
Q 353 884 353 1716 
Q 353 2575 817 3079 
Q 1281 3584 2069 3584 
Q 2775 3584 3186 3129 
Q 3597 2675 3597 1894 
z
M 3022 2063 
Q 3016 2534 2758 2815 
Q 2500 3097 2075 3097 
Q 1594 3097 1305 2825 
Q 1016 2553 972 2059 
L 3022 2063 
z
" transform="scale(0.015625)"/>
      <path id="DejaVuSans-72" d="M 2631 2963 
Q 2534 3019 2420 3045 
Q 2306 3072 2169 3072 
Q 1681 3072 1420 2755 
Q 1159 2438 1159 1844 
L 1159 0 
L 581 0 
L 581 3500 
L 1159 3500 
L 1159 2956 
Q 1341 3275 1631 3429 
Q 1922 3584 2338 3584 
Q 2397 3584 2469 3576 
Q 2541 3569 2628 3553 
L 2631 2963 
z
" transform="scale(0.015625)"/>
      <path id="DejaVuSans-c9" d="M 628 4666 
L 3578 4666 
L 3578 4134 
L 1259 4134 
L 1259 2753 
L 3481 2753 
L 3481 2222 
L 1259 2222 
L 1259 531 
L 3634 531 
L 3634 0 
L 628 0 
L 628 4666 
z
M 2266 5935 
L 2844 5935 
L 2131 5110 
L 1653 5110 
L 2266 5935 
z
" transform="scale(0.015625)"/>
      <path id="DejaVuSans-61" d="M 2194 1759 
Q 1497 1759 1228 1600 
Q 959 1441 959 1056 
Q 959 750 1161 570 
Q 1363 391 1709 391 
Q 2188 391 2477 730 
Q 2766 1069 2766 1631 
L 2766 1759 
L 2194 1759 
z
M 3341 1997 
L 3341 0 
L 2766 0 
L 2766 531 
Q 2569 213 2275 61 
Q 1981 -91 1556 -91 
Q 1019 -91 701 211 
Q 384 513 384 1019 
Q 384 1609 779 1909 
Q 1175 2209 1959 2209 
L 2766 2209 
L 2766 2266 
Q 2766 2663 2505 2880 
Q 2244 3097 1772 3097 
Q 1472 3097 1187 3025 
Q 903 2953 641 2809 
L 641 3341 
Q 956 3463 1253 3523 
Q 1550 3584 1831 3584 
Q 2591 3584 2966 3190 
Q 3341 2797 3341 1997 
z
" transform="scale(0.015625)"/>
     </defs>
     <use xlink:href="#DejaVuSans-45"/>
     <use xlink:href="#DejaVuSans-76" transform="translate(63.183594 0)"/>
     <use xlink:href="#DejaVuSans-6f" transform="translate(122.363281 0)"/>
     <use xlink:href="#DejaVuSans-6c" transform="translate(183.544922 0)"/>
     <use xlink:href="#DejaVuSans-75" transform="translate(211.328125 0)"/>
     <use xlink:href="#DejaVuSans-63" transform="translate(274.707031 0)"/>
     <use xlink:href="#DejaVuSans-69" transform="translate(329.6875 0)"/>
     <use xlink:href="#DejaVuSans-f3" transform="translate(357.470703 0)"/>
     <use xlink:href="#DejaVuSans-6e" transform="translate(418.652344 0)"/>
     <use xlink:href="#DejaVuSans-20" transform="translate(482.03125 0)"/>
     <use xlink:href="#DejaVuSans-64" transform="translate(513.818359 0)"/>
     <use xlink:href="#DejaVuSans-65" transform="translate(577.294922 0)"/>
     <use xlink:href="#DejaVuSans-6c" transform="translate(638.818359 0)"/>
     <use xlink:href="#DejaVuSans-20" transform="translate(666.601562 0)"/>
     <use xlink:href="#DejaVuSans-4c" transform="translate(698.388672 0)"/>
     <use xlink:href="#DejaVuSans-6f" transform="translate(752.351562 0)"/>
     <use xlink:href="#DejaVuSans-73" transform="translate(813.533203 0)"/>
     <use xlink:href="#DejaVuSans-73" transform="translate(865.632812 0)"/>
     <use xlink:href="#DejaVuSans-20" transform="translate(917.732422 0)"/>
     <use xlink:href="#DejaVuSans-70" transform="translate(949.519531 0)"/>
     <use xlink:href="#DejaVuSans-6f" transform="translate(1012.996094 0)"/>
     <use xlink:href="#DejaVuSans-72" transform="translate(1074.177734 0)"/>
     <use xlink:href="#DejaVuSans-20" transform="translate(1115.291016 0)"/>
     <use xlink:href="#DejaVuSans-c9" transform="translate(1147.078125 0)"/>
     <use xlink:href="#DejaVuSans-70" transform="translate(1210.261719 0)"/>
     <use xlink:href="#DejaVuSans-6f" transform="translate(1273.738281 0)"/>
     <use xlink:href="#DejaVuSans-63" transform="translate(1334.919922 0)"/>
     <use xlink:href="#DejaVuSans-61" transform="translate(1389.900391 0)"/>
    </g>
   </g>
   <g id="legend_1">
    <g id="patch_7">
     <path d="M 453.839062 64.95625 
L 558.2 64.95625 
Q 560.2 64.95625 560.2 62.95625 
L 560.2 34.6 
Q 560.2 32.6 558.2 32.6 
L 453.839062 32.6 
Q 451.839062 32.6 451.839062 34.6 
L 451.839062 62.95625 
Q 451.839062 64.95625 453.839062 64.95625 
z
" style="fill: #ffffff; opacity: 0.8; stroke: #cccccc; stroke-linejoin: miter"/>
    </g>
    <g id="line2d_73">
     <path d="M 455.839062 40.698438 
L 465.839062 40.698438 
L 475.839062 40.698438 
" style="fill: none; stroke: #1f77b4; stroke-width: 2; stroke-linecap: square"/>
    </g>
    <g id="text_18">
     <!-- Train Loss -->
     <g transform="translate(483.839062 44.198438) scale(0.1 -0.1)">
      <defs>
       <path id="DejaVuSans-54" d="M -19 4666 
L 3928 4666 
L 3928 4134 
L 2272 4134 
L 2272 0 
L 1638 0 
L 1638 4134 
L -19 4134 
L -19 4666 
z
" transform="scale(0.015625)"/>
      </defs>
      <use xlink:href="#DejaVuSans-54"/>
      <use xlink:href="#DejaVuSans-72" transform="translate(46.333984 0)"/>
      <use xlink:href="#DejaVuSans-61" transform="translate(87.447266 0)"/>
      <use xlink:href="#DejaVuSans-69" transform="translate(148.726562 0)"/>
      <use xlink:href="#DejaVuSans-6e" transform="translate(176.509766 0)"/>
      <use xlink:href="#DejaVuSans-20" transform="translate(239.888672 0)"/>
      <use xlink:href="#DejaVuSans-4c" transform="translate(271.675781 0)"/>
      <use xlink:href="#DejaVuSans-6f" transform="translate(325.638672 0)"/>
      <use xlink:href="#DejaVuSans-73" transform="translate(386.820312 0)"/>
      <use xlink:href="#DejaVuSans-73" transform="translate(438.919922 0)"/>
     </g>
    </g>
    <g id="line2d_74">
     <path d="M 455.839062 55.376563 
L 465.839062 55.376563 
L 475.839062 55.376563 
" style="fill: none; stroke: #ff7f0e; stroke-width: 2; stroke-linecap: square"/>
    </g>
    <g id="text_19">
     <!-- Val Loss (MSE) -->
     <g transform="translate(483.839062 58.876563) scale(0.1 -0.1)">
      <defs>
       <path id="DejaVuSans-56" d="M 1831 0 
L 50 4666 
L 709 4666 
L 2188 738 
L 3669 4666 
L 4325 4666 
L 2547 0 
L 1831 0 
z
" transform="scale(0.015625)"/>
       <path id="DejaVuSans-28" d="M 1984 4856 
Q 1566 4138 1362 3434 
Q 1159 2731 1159 2009 
Q 1159 1288 1364 580 
Q 1569 -128 1984 -844 
L 1484 -844 
Q 1016 -109 783 600 
Q 550 1309 550 2009 
Q 550 2706 781 3412 
Q 1013 4119 1484 4856 
L 1984 4856 
z
" transform="scale(0.015625)"/>
       <path id="DejaVuSans-29" d="M 513 4856 
L 1013 4856 
Q 1481 4119 1714 3412 
Q 1947 2706 1947 2009 
Q 1947 1309 1714 600 
Q 1481 -109 1013 -844 
L 513 -844 
Q 928 -128 1133 580 
Q 1338 1288 1338 2009 
Q 1338 2731 1133 3434 
Q 928 4138 513 4856 
z
" transform="scale(0.015625)"/>
      </defs>
      <use xlink:href="#DejaVuSans-56"/>
      <use xlink:href="#DejaVuSans-61" transform="translate(60.658203 0)"/>
      <use xlink:href="#DejaVuSans-6c" transform="translate(121.9375 0)"/>
      <use xlink:href="#DejaVuSans-20" transform="translate(149.720703 0)"/>
      <use xlink:href="#DejaVuSans-4c" transform="translate(181.507812 0)"/>
      <use xlink:href="#DejaVuSans-6f" transform="translate(235.470703 0)"/>
      <use xlink:href="#DejaVuSans-73" transform="translate(296.652344 0)"/>
      <use xlink:href="#DejaVuSans-73" transform="translate(348.751953 0)"/>
      <use xlink:href="#DejaVuSans-20" transform="translate(400.851562 0)"/>
      <use xlink:href="#DejaVuSans-28" transform="translate(432.638672 0)"/>
      <use xlink:href="#DejaVuSans-4d" transform="translate(471.652344 0)"/>
      <use xlink:href="#DejaVuSans-53" transform="translate(557.931641 0)"/>
      <use xlink:href="#DejaVuSans-45" transform="translate(621.408203 0)"/>
      <use xlink:href="#DejaVuSans-29" transform="translate(684.591797 0)"/>
     </g>
    </g>
   </g>
  </g>
 </g>
 <defs>
  <clipPath id="p67740c8bb9">
   <rect x="56.015346" y="27.6" width="509.184654" height="290.44"/>
  </clipPath>
 </defs>
</svg>
