<?xml version="1.0" encoding="utf-8" standalone="no"?>
<!DOCTYPE svg PUBLIC "-//W3C//DTD SVG 1.1//EN"
  "http://www.w3.org/Graphics/SVG/1.1/DTD/svg11.dtd">
<svg xmlns:xlink="http://www.w3.org/1999/xlink" width="432pt" height="288pt" viewBox="0 0 432 288" xmlns="http://www.w3.org/2000/svg" version="1.1">
 <metadata>
  <rdf:RDF xmlns:dc="http://purl.org/dc/elements/1.1/" xmlns:cc="http://creativecommons.org/ns#" xmlns:rdf="http://www.w3.org/1999/02/22-rdf-syntax-ns#">
   <cc:Work>
    <dc:type rdf:resource="http://purl.org/dc/dcmitype/StillImage"/>
    <dc:date>2025-06-18T11:08:16.650961</dc:date>
    <dc:format>image/svg+xml</dc:format>
    <dc:creator>
     <cc:Agent>
      <dc:title>Matplotlib v3.10.1, https://matplotlib.org/</dc:title>
     </cc:Agent>
    </dc:creator>
   </cc:Work>
  </rdf:RDF>
 </metadata>
 <defs>
  <style type="text/css">*{stroke-linejoin: round; stroke-linecap: butt}</style>
 </defs>
 <g id="figure_1">
  <g id="patch_1">
   <path d="M 0 288 
L 432 288 
L 432 0 
L 0 0 
z
" style="fill: #ffffff"/>
  </g>
  <g id="axes_1">
   <g id="patch_2">
    <path d="M 57.729489 241 
L 419.04 241 
L 419.04 26.88 
L 57.729489 26.88 
z
" style="fill: #ffffff"/>
   </g>
   <g id="matplotlib.axis_1">
    <g id="xtick_1">
     <g id="line2d_1">
      <path d="M 74.152694 241 
L 74.152694 26.88 
" clip-path="url(#p20582ee857)" style="fill: none; stroke: #b0b0b0; stroke-width: 0.8; stroke-linecap: square"/>
     </g>
     <g id="line2d_2">
      <defs>
       <path id="m89490adf80" d="M 0 0 
L 0 3.5 
" style="stroke: #000000; stroke-width: 0.8"/>
      </defs>
      <g>
       <use xlink:href="#m89490adf80" x="74.152694" y="241" style="stroke: #000000; stroke-width: 0.8"/>
      </g>
     </g>
     <g id="text_1">
      <!-- 0 -->
      <g transform="translate(71.152694 256.3325) scale(0.12 -0.12)">
       <defs>
        <path id="TimesNewRomanPSMT-30" d="M 231 2094 
Q 231 2819 450 3342 
Q 669 3866 1031 4122 
Q 1313 4325 1613 4325 
Q 2100 4325 2488 3828 
Q 2972 3213 2972 2159 
Q 2972 1422 2759 906 
Q 2547 391 2217 158 
Q 1888 -75 1581 -75 
Q 975 -75 572 641 
Q 231 1244 231 2094 
z
M 844 2016 
Q 844 1141 1059 588 
Q 1238 122 1591 122 
Q 1759 122 1940 273 
Q 2122 425 2216 781 
Q 2359 1319 2359 2297 
Q 2359 3022 2209 3506 
Q 2097 3866 1919 4016 
Q 1791 4119 1609 4119 
Q 1397 4119 1231 3928 
Q 1006 3669 925 3112 
Q 844 2556 844 2016 
z
" transform="scale(0.015625)"/>
       </defs>
       <use xlink:href="#TimesNewRomanPSMT-30"/>
      </g>
     </g>
    </g>
    <g id="xtick_2">
     <g id="line2d_3">
      <path d="M 120.415243 241 
L 120.415243 26.88 
" clip-path="url(#p20582ee857)" style="fill: none; stroke: #b0b0b0; stroke-width: 0.8; stroke-linecap: square"/>
     </g>
     <g id="line2d_4">
      <g>
       <use xlink:href="#m89490adf80" x="120.415243" y="241" style="stroke: #000000; stroke-width: 0.8"/>
      </g>
     </g>
     <g id="text_2">
      <!-- 40 -->
      <g transform="translate(114.415243 256.3325) scale(0.12 -0.12)">
       <defs>
        <path id="TimesNewRomanPSMT-34" d="M 2978 1563 
L 2978 1119 
L 2409 1119 
L 2409 0 
L 1894 0 
L 1894 1119 
L 100 1119 
L 100 1519 
L 2066 4325 
L 2409 4325 
L 2409 1563 
L 2978 1563 
z
M 1894 1563 
L 1894 3666 
L 406 1563 
L 1894 1563 
z
" transform="scale(0.015625)"/>
       </defs>
       <use xlink:href="#TimesNewRomanPSMT-34"/>
       <use xlink:href="#TimesNewRomanPSMT-30" transform="translate(50 0)"/>
      </g>
     </g>
    </g>
    <g id="xtick_3">
     <g id="line2d_5">
      <path d="M 166.677793 241 
L 166.677793 26.88 
" clip-path="url(#p20582ee857)" style="fill: none; stroke: #b0b0b0; stroke-width: 0.8; stroke-linecap: square"/>
     </g>
     <g id="line2d_6">
      <g>
       <use xlink:href="#m89490adf80" x="166.677793" y="241" style="stroke: #000000; stroke-width: 0.8"/>
      </g>
     </g>
     <g id="text_3">
      <!-- 80 -->
      <g transform="translate(160.677793 256.3325) scale(0.12 -0.12)">
       <defs>
        <path id="TimesNewRomanPSMT-38" d="M 1228 2134 
Q 725 2547 579 2797 
Q 434 3047 434 3316 
Q 434 3728 753 4026 
Q 1072 4325 1600 4325 
Q 2113 4325 2425 4047 
Q 2738 3769 2738 3413 
Q 2738 3175 2569 2928 
Q 2400 2681 1866 2347 
Q 2416 1922 2594 1678 
Q 2831 1359 2831 1006 
Q 2831 559 2490 242 
Q 2150 -75 1597 -75 
Q 994 -75 656 303 
Q 388 606 388 966 
Q 388 1247 577 1523 
Q 766 1800 1228 2134 
z
M 1719 2469 
Q 2094 2806 2194 3001 
Q 2294 3197 2294 3444 
Q 2294 3772 2109 3958 
Q 1925 4144 1606 4144 
Q 1288 4144 1088 3959 
Q 888 3775 888 3528 
Q 888 3366 970 3203 
Q 1053 3041 1206 2894 
L 1719 2469 
z
M 1375 2016 
Q 1116 1797 991 1539 
Q 866 1281 866 981 
Q 866 578 1086 336 
Q 1306 94 1647 94 
Q 1984 94 2187 284 
Q 2391 475 2391 747 
Q 2391 972 2272 1150 
Q 2050 1481 1375 2016 
z
" transform="scale(0.015625)"/>
       </defs>
       <use xlink:href="#TimesNewRomanPSMT-38"/>
       <use xlink:href="#TimesNewRomanPSMT-30" transform="translate(50 0)"/>
      </g>
     </g>
    </g>
    <g id="xtick_4">
     <g id="line2d_7">
      <path d="M 212.940342 241 
L 212.940342 26.88 
" clip-path="url(#p20582ee857)" style="fill: none; stroke: #b0b0b0; stroke-width: 0.8; stroke-linecap: square"/>
     </g>
     <g id="line2d_8">
      <g>
       <use xlink:href="#m89490adf80" x="212.940342" y="241" style="stroke: #000000; stroke-width: 0.8"/>
      </g>
     </g>
     <g id="text_4">
      <!-- 120 -->
      <g transform="translate(203.940342 256.3325) scale(0.12 -0.12)">
       <defs>
        <path id="TimesNewRomanPSMT-31" d="M 750 3822 
L 1781 4325 
L 1884 4325 
L 1884 747 
Q 1884 391 1914 303 
Q 1944 216 2037 169 
Q 2131 122 2419 116 
L 2419 0 
L 825 0 
L 825 116 
Q 1125 122 1212 167 
Q 1300 213 1334 289 
Q 1369 366 1369 747 
L 1369 3034 
Q 1369 3497 1338 3628 
Q 1316 3728 1258 3775 
Q 1200 3822 1119 3822 
Q 1003 3822 797 3725 
L 750 3822 
z
" transform="scale(0.015625)"/>
        <path id="TimesNewRomanPSMT-32" d="M 2934 816 
L 2638 0 
L 138 0 
L 138 116 
Q 1241 1122 1691 1759 
Q 2141 2397 2141 2925 
Q 2141 3328 1894 3587 
Q 1647 3847 1303 3847 
Q 991 3847 742 3664 
Q 494 3481 375 3128 
L 259 3128 
Q 338 3706 661 4015 
Q 984 4325 1469 4325 
Q 1984 4325 2329 3994 
Q 2675 3663 2675 3213 
Q 2675 2891 2525 2569 
Q 2294 2063 1775 1497 
Q 997 647 803 472 
L 1909 472 
Q 2247 472 2383 497 
Q 2519 522 2628 598 
Q 2738 675 2819 816 
L 2934 816 
z
" transform="scale(0.015625)"/>
       </defs>
       <use xlink:href="#TimesNewRomanPSMT-31"/>
       <use xlink:href="#TimesNewRomanPSMT-32" transform="translate(50 0)"/>
       <use xlink:href="#TimesNewRomanPSMT-30" transform="translate(100 0)"/>
      </g>
     </g>
    </g>
    <g id="xtick_5">
     <g id="line2d_9">
      <path d="M 259.202892 241 
L 259.202892 26.88 
" clip-path="url(#p20582ee857)" style="fill: none; stroke: #b0b0b0; stroke-width: 0.8; stroke-linecap: square"/>
     </g>
     <g id="line2d_10">
      <g>
       <use xlink:href="#m89490adf80" x="259.202892" y="241" style="stroke: #000000; stroke-width: 0.8"/>
      </g>
     </g>
     <g id="text_5">
      <!-- 160 -->
      <g transform="translate(250.202892 256.3325) scale(0.12 -0.12)">
       <defs>
        <path id="TimesNewRomanPSMT-36" d="M 2869 4325 
L 2869 4209 
Q 2456 4169 2195 4045 
Q 1934 3922 1679 3669 
Q 1425 3416 1258 3105 
Q 1091 2794 978 2366 
Q 1428 2675 1881 2675 
Q 2316 2675 2634 2325 
Q 2953 1975 2953 1425 
Q 2953 894 2631 456 
Q 2244 -75 1606 -75 
Q 1172 -75 869 213 
Q 275 772 275 1663 
Q 275 2231 503 2743 
Q 731 3256 1154 3653 
Q 1578 4050 1965 4187 
Q 2353 4325 2688 4325 
L 2869 4325 
z
M 925 2138 
Q 869 1716 869 1456 
Q 869 1156 980 804 
Q 1091 453 1309 247 
Q 1469 100 1697 100 
Q 1969 100 2183 356 
Q 2397 613 2397 1088 
Q 2397 1622 2184 2012 
Q 1972 2403 1581 2403 
Q 1463 2403 1327 2353 
Q 1191 2303 925 2138 
z
" transform="scale(0.015625)"/>
       </defs>
       <use xlink:href="#TimesNewRomanPSMT-31"/>
       <use xlink:href="#TimesNewRomanPSMT-36" transform="translate(50 0)"/>
       <use xlink:href="#TimesNewRomanPSMT-30" transform="translate(100 0)"/>
      </g>
     </g>
    </g>
    <g id="xtick_6">
     <g id="line2d_11">
      <path d="M 305.465441 241 
L 305.465441 26.88 
" clip-path="url(#p20582ee857)" style="fill: none; stroke: #b0b0b0; stroke-width: 0.8; stroke-linecap: square"/>
     </g>
     <g id="line2d_12">
      <g>
       <use xlink:href="#m89490adf80" x="305.465441" y="241" style="stroke: #000000; stroke-width: 0.8"/>
      </g>
     </g>
     <g id="text_6">
      <!-- 200 -->
      <g transform="translate(296.465441 256.3325) scale(0.12 -0.12)">
       <use xlink:href="#TimesNewRomanPSMT-32"/>
       <use xlink:href="#TimesNewRomanPSMT-30" transform="translate(50 0)"/>
       <use xlink:href="#TimesNewRomanPSMT-30" transform="translate(100 0)"/>
      </g>
     </g>
    </g>
    <g id="xtick_7">
     <g id="line2d_13">
      <path d="M 351.727991 241 
L 351.727991 26.88 
" clip-path="url(#p20582ee857)" style="fill: none; stroke: #b0b0b0; stroke-width: 0.8; stroke-linecap: square"/>
     </g>
     <g id="line2d_14">
      <g>
       <use xlink:href="#m89490adf80" x="351.727991" y="241" style="stroke: #000000; stroke-width: 0.8"/>
      </g>
     </g>
     <g id="text_7">
      <!-- 240 -->
      <g transform="translate(342.727991 256.3325) scale(0.12 -0.12)">
       <use xlink:href="#TimesNewRomanPSMT-32"/>
       <use xlink:href="#TimesNewRomanPSMT-34" transform="translate(50 0)"/>
       <use xlink:href="#TimesNewRomanPSMT-30" transform="translate(100 0)"/>
      </g>
     </g>
    </g>
    <g id="xtick_8">
     <g id="line2d_15">
      <path d="M 397.99054 241 
L 397.99054 26.88 
" clip-path="url(#p20582ee857)" style="fill: none; stroke: #b0b0b0; stroke-width: 0.8; stroke-linecap: square"/>
     </g>
     <g id="line2d_16">
      <g>
       <use xlink:href="#m89490adf80" x="397.99054" y="241" style="stroke: #000000; stroke-width: 0.8"/>
      </g>
     </g>
     <g id="text_8">
      <!-- 280 -->
      <g transform="translate(388.99054 256.3325) scale(0.12 -0.12)">
       <use xlink:href="#TimesNewRomanPSMT-32"/>
       <use xlink:href="#TimesNewRomanPSMT-38" transform="translate(50 0)"/>
       <use xlink:href="#TimesNewRomanPSMT-30" transform="translate(100 0)"/>
      </g>
     </g>
    </g>
    <g id="text_9">
     <!-- Epoch -->
     <g transform="translate(223.056619 271.231875) scale(0.12 -0.12)">
      <defs>
       <path id="TimesNewRomanPSMT-45" d="M 1338 4006 
L 1338 2331 
L 2269 2331 
Q 2631 2331 2753 2441 
Q 2916 2584 2934 2947 
L 3050 2947 
L 3050 1472 
L 2934 1472 
Q 2891 1781 2847 1869 
Q 2791 1978 2662 2040 
Q 2534 2103 2269 2103 
L 1338 2103 
L 1338 706 
Q 1338 425 1363 364 
Q 1388 303 1450 267 
Q 1513 231 1688 231 
L 2406 231 
Q 2766 231 2928 281 
Q 3091 331 3241 478 
Q 3434 672 3638 1063 
L 3763 1063 
L 3397 0 
L 131 0 
L 131 116 
L 281 116 
Q 431 116 566 188 
Q 666 238 702 338 
Q 738 438 738 747 
L 738 3500 
Q 738 3903 656 3997 
Q 544 4122 281 4122 
L 131 4122 
L 131 4238 
L 3397 4238 
L 3444 3309 
L 3322 3309 
Q 3256 3644 3176 3769 
Q 3097 3894 2941 3959 
Q 2816 4006 2500 4006 
L 1338 4006 
z
" transform="scale(0.015625)"/>
       <path id="TimesNewRomanPSMT-70" d="M -6 2578 
L 875 2934 
L 994 2934 
L 994 2266 
Q 1216 2644 1439 2795 
Q 1663 2947 1909 2947 
Q 2341 2947 2628 2609 
Q 2981 2197 2981 1534 
Q 2981 794 2556 309 
Q 2206 -88 1675 -88 
Q 1444 -88 1275 -22 
Q 1150 25 994 166 
L 994 -706 
Q 994 -1000 1030 -1079 
Q 1066 -1159 1155 -1206 
Q 1244 -1253 1478 -1253 
L 1478 -1369 
L -22 -1369 
L -22 -1253 
L 56 -1253 
Q 228 -1256 350 -1188 
Q 409 -1153 442 -1076 
Q 475 -1000 475 -688 
L 475 2019 
Q 475 2297 450 2372 
Q 425 2447 370 2484 
Q 316 2522 222 2522 
Q 147 2522 31 2478 
L -6 2578 
z
M 994 2081 
L 994 1013 
Q 994 666 1022 556 
Q 1066 375 1236 237 
Q 1406 100 1666 100 
Q 1978 100 2172 344 
Q 2425 663 2425 1241 
Q 2425 1897 2138 2250 
Q 1938 2494 1663 2494 
Q 1513 2494 1366 2419 
Q 1253 2363 994 2081 
z
" transform="scale(0.015625)"/>
       <path id="TimesNewRomanPSMT-6f" d="M 1600 2947 
Q 2250 2947 2644 2453 
Q 2978 2031 2978 1484 
Q 2978 1100 2793 706 
Q 2609 313 2286 112 
Q 1963 -88 1566 -88 
Q 919 -88 538 428 
Q 216 863 216 1403 
Q 216 1797 411 2186 
Q 606 2575 925 2761 
Q 1244 2947 1600 2947 
z
M 1503 2744 
Q 1338 2744 1170 2645 
Q 1003 2547 900 2300 
Q 797 2053 797 1666 
Q 797 1041 1045 587 
Q 1294 134 1700 134 
Q 2003 134 2200 384 
Q 2397 634 2397 1244 
Q 2397 2006 2069 2444 
Q 1847 2744 1503 2744 
z
" transform="scale(0.015625)"/>
       <path id="TimesNewRomanPSMT-63" d="M 2631 1088 
Q 2516 522 2178 217 
Q 1841 -88 1431 -88 
Q 944 -88 581 321 
Q 219 731 219 1428 
Q 219 2103 620 2525 
Q 1022 2947 1584 2947 
Q 2006 2947 2278 2723 
Q 2550 2500 2550 2259 
Q 2550 2141 2473 2067 
Q 2397 1994 2259 1994 
Q 2075 1994 1981 2113 
Q 1928 2178 1911 2362 
Q 1894 2547 1784 2644 
Q 1675 2738 1481 2738 
Q 1169 2738 978 2506 
Q 725 2200 725 1697 
Q 725 1184 976 792 
Q 1228 400 1656 400 
Q 1963 400 2206 609 
Q 2378 753 2541 1131 
L 2631 1088 
z
" transform="scale(0.015625)"/>
       <path id="TimesNewRomanPSMT-68" d="M 1041 4444 
L 1041 2350 
Q 1388 2731 1591 2839 
Q 1794 2947 1997 2947 
Q 2241 2947 2416 2812 
Q 2591 2678 2675 2391 
Q 2734 2191 2734 1659 
L 2734 647 
Q 2734 375 2778 275 
Q 2809 200 2884 156 
Q 2959 113 3159 113 
L 3159 0 
L 1753 0 
L 1753 113 
L 1819 113 
Q 2019 113 2097 173 
Q 2175 234 2206 353 
Q 2216 403 2216 647 
L 2216 1659 
Q 2216 2128 2167 2275 
Q 2119 2422 2012 2495 
Q 1906 2569 1756 2569 
Q 1603 2569 1437 2487 
Q 1272 2406 1041 2159 
L 1041 647 
Q 1041 353 1073 281 
Q 1106 209 1195 161 
Q 1284 113 1503 113 
L 1503 0 
L 84 0 
L 84 113 
Q 275 113 384 172 
Q 447 203 484 290 
Q 522 378 522 647 
L 522 3238 
Q 522 3728 498 3840 
Q 475 3953 426 3993 
Q 378 4034 297 4034 
Q 231 4034 84 3984 
L 41 4094 
L 897 4444 
L 1041 4444 
z
" transform="scale(0.015625)"/>
      </defs>
      <use xlink:href="#TimesNewRomanPSMT-45"/>
      <use xlink:href="#TimesNewRomanPSMT-70" transform="translate(61.083984 0)"/>
      <use xlink:href="#TimesNewRomanPSMT-6f" transform="translate(111.083984 0)"/>
      <use xlink:href="#TimesNewRomanPSMT-63" transform="translate(161.083984 0)"/>
      <use xlink:href="#TimesNewRomanPSMT-68" transform="translate(205.46875 0)"/>
     </g>
    </g>
   </g>
   <g id="matplotlib.axis_2">
    <g id="ytick_1">
     <g id="line2d_17">
      <path d="M 57.729489 200.563464 
L 419.04 200.563464 
" clip-path="url(#p20582ee857)" style="fill: none; stroke: #b0b0b0; stroke-width: 0.8; stroke-linecap: square"/>
     </g>
     <g id="line2d_18">
      <defs>
       <path id="m3c6f1efb50" d="M 0 0 
L -3.5 0 
" style="stroke: #000000; stroke-width: 0.8"/>
      </defs>
      <g>
       <use xlink:href="#m3c6f1efb50" x="57.729489" y="200.563464" style="stroke: #000000; stroke-width: 0.8"/>
      </g>
     </g>
     <g id="text_10">
      <!-- $\mathdefault{10^{-4}}$ -->
      <g transform="translate(29.009489 205.880026) scale(0.12 -0.12)">
       <defs>
        <path id="TimesNewRomanPSMT-2212" d="M 3484 2000 
L 116 2000 
L 116 2256 
L 3484 2256 
L 3484 2000 
z
" transform="scale(0.015625)"/>
       </defs>
       <use xlink:href="#TimesNewRomanPSMT-31" transform="translate(0 0.582813)"/>
       <use xlink:href="#TimesNewRomanPSMT-30" transform="translate(50 0.582813)"/>
       <use xlink:href="#TimesNewRomanPSMT-2212" transform="translate(101.502813 60.695312) scale(0.7)"/>
       <use xlink:href="#TimesNewRomanPSMT-34" transform="translate(140.980352 60.695312) scale(0.7)"/>
      </g>
     </g>
    </g>
    <g id="ytick_2">
     <g id="line2d_19">
      <path d="M 57.729489 145.822279 
L 419.04 145.822279 
" clip-path="url(#p20582ee857)" style="fill: none; stroke: #b0b0b0; stroke-width: 0.8; stroke-linecap: square"/>
     </g>
     <g id="line2d_20">
      <g>
       <use xlink:href="#m3c6f1efb50" x="57.729489" y="145.822279" style="stroke: #000000; stroke-width: 0.8"/>
      </g>
     </g>
     <g id="text_11">
      <!-- $\mathdefault{10^{-3}}$ -->
      <g transform="translate(29.009489 151.138842) scale(0.12 -0.12)">
       <defs>
        <path id="TimesNewRomanPSMT-33" d="M 325 3431 
Q 506 3859 782 4092 
Q 1059 4325 1472 4325 
Q 1981 4325 2253 3994 
Q 2459 3747 2459 3466 
Q 2459 3003 1878 2509 
Q 2269 2356 2469 2072 
Q 2669 1788 2669 1403 
Q 2669 853 2319 450 
Q 1863 -75 997 -75 
Q 569 -75 414 31 
Q 259 138 259 259 
Q 259 350 332 419 
Q 406 488 509 488 
Q 588 488 669 463 
Q 722 447 909 348 
Q 1097 250 1169 231 
Q 1284 197 1416 197 
Q 1734 197 1970 444 
Q 2206 691 2206 1028 
Q 2206 1275 2097 1509 
Q 2016 1684 1919 1775 
Q 1784 1900 1550 2001 
Q 1316 2103 1072 2103 
L 972 2103 
L 972 2197 
Q 1219 2228 1467 2375 
Q 1716 2522 1828 2728 
Q 1941 2934 1941 3181 
Q 1941 3503 1739 3701 
Q 1538 3900 1238 3900 
Q 753 3900 428 3381 
L 325 3431 
z
" transform="scale(0.015625)"/>
       </defs>
       <use xlink:href="#TimesNewRomanPSMT-31" transform="translate(0 0.582813)"/>
       <use xlink:href="#TimesNewRomanPSMT-30" transform="translate(50 0.582813)"/>
       <use xlink:href="#TimesNewRomanPSMT-2212" transform="translate(101.502813 60.695312) scale(0.7)"/>
       <use xlink:href="#TimesNewRomanPSMT-33" transform="translate(140.980352 60.695312) scale(0.7)"/>
      </g>
     </g>
    </g>
    <g id="ytick_3">
     <g id="line2d_21">
      <path d="M 57.729489 91.081095 
L 419.04 91.081095 
" clip-path="url(#p20582ee857)" style="fill: none; stroke: #b0b0b0; stroke-width: 0.8; stroke-linecap: square"/>
     </g>
     <g id="line2d_22">
      <g>
       <use xlink:href="#m3c6f1efb50" x="57.729489" y="91.081095" style="stroke: #000000; stroke-width: 0.8"/>
      </g>
     </g>
     <g id="text_12">
      <!-- $\mathdefault{10^{-2}}$ -->
      <g transform="translate(29.009489 96.397658) scale(0.12 -0.12)">
       <use xlink:href="#TimesNewRomanPSMT-31" transform="translate(0 0.582813)"/>
       <use xlink:href="#TimesNewRomanPSMT-30" transform="translate(50 0.582813)"/>
       <use xlink:href="#TimesNewRomanPSMT-2212" transform="translate(101.502813 60.695312) scale(0.7)"/>
       <use xlink:href="#TimesNewRomanPSMT-32" transform="translate(140.980352 60.695312) scale(0.7)"/>
      </g>
     </g>
    </g>
    <g id="ytick_4">
     <g id="line2d_23">
      <path d="M 57.729489 36.339911 
L 419.04 36.339911 
" clip-path="url(#p20582ee857)" style="fill: none; stroke: #b0b0b0; stroke-width: 0.8; stroke-linecap: square"/>
     </g>
     <g id="line2d_24">
      <g>
       <use xlink:href="#m3c6f1efb50" x="57.729489" y="36.339911" style="stroke: #000000; stroke-width: 0.8"/>
      </g>
     </g>
     <g id="text_13">
      <!-- $\mathdefault{10^{-1}}$ -->
      <g transform="translate(29.009489 41.656473) scale(0.12 -0.12)">
       <use xlink:href="#TimesNewRomanPSMT-31" transform="translate(0 0.582813)"/>
       <use xlink:href="#TimesNewRomanPSMT-30" transform="translate(50 0.582813)"/>
       <use xlink:href="#TimesNewRomanPSMT-2212" transform="translate(101.502813 60.695312) scale(0.7)"/>
       <use xlink:href="#TimesNewRomanPSMT-31" transform="translate(140.980352 60.695312) scale(0.7)"/>
      </g>
     </g>
    </g>
    <g id="ytick_5">
     <g id="line2d_25">
      <defs>
       <path id="mec1e5e2db3" d="M 0 0 
L -2 0 
" style="stroke: #000000; stroke-width: 0.6"/>
      </defs>
      <g>
       <use xlink:href="#mec1e5e2db3" x="57.729489" y="238.825909" style="stroke: #000000; stroke-width: 0.6"/>
      </g>
     </g>
    </g>
    <g id="ytick_6">
     <g id="line2d_26">
      <g>
       <use xlink:href="#mec1e5e2db3" x="57.729489" y="229.186465" style="stroke: #000000; stroke-width: 0.6"/>
      </g>
     </g>
    </g>
    <g id="ytick_7">
     <g id="line2d_27">
      <g>
       <use xlink:href="#mec1e5e2db3" x="57.729489" y="222.347171" style="stroke: #000000; stroke-width: 0.6"/>
      </g>
     </g>
    </g>
    <g id="ytick_8">
     <g id="line2d_28">
      <g>
       <use xlink:href="#mec1e5e2db3" x="57.729489" y="217.042202" style="stroke: #000000; stroke-width: 0.6"/>
      </g>
     </g>
    </g>
    <g id="ytick_9">
     <g id="line2d_29">
      <g>
       <use xlink:href="#mec1e5e2db3" x="57.729489" y="212.707727" style="stroke: #000000; stroke-width: 0.6"/>
      </g>
     </g>
    </g>
    <g id="ytick_10">
     <g id="line2d_30">
      <g>
       <use xlink:href="#mec1e5e2db3" x="57.729489" y="209.04298" style="stroke: #000000; stroke-width: 0.6"/>
      </g>
     </g>
    </g>
    <g id="ytick_11">
     <g id="line2d_31">
      <g>
       <use xlink:href="#mec1e5e2db3" x="57.729489" y="205.868433" style="stroke: #000000; stroke-width: 0.6"/>
      </g>
     </g>
    </g>
    <g id="ytick_12">
     <g id="line2d_32">
      <g>
       <use xlink:href="#mec1e5e2db3" x="57.729489" y="203.068283" style="stroke: #000000; stroke-width: 0.6"/>
      </g>
     </g>
    </g>
    <g id="ytick_13">
     <g id="line2d_33">
      <g>
       <use xlink:href="#mec1e5e2db3" x="57.729489" y="184.084725" style="stroke: #000000; stroke-width: 0.6"/>
      </g>
     </g>
    </g>
    <g id="ytick_14">
     <g id="line2d_34">
      <g>
       <use xlink:href="#mec1e5e2db3" x="57.729489" y="174.445281" style="stroke: #000000; stroke-width: 0.6"/>
      </g>
     </g>
    </g>
    <g id="ytick_15">
     <g id="line2d_35">
      <g>
       <use xlink:href="#mec1e5e2db3" x="57.729489" y="167.605987" style="stroke: #000000; stroke-width: 0.6"/>
      </g>
     </g>
    </g>
    <g id="ytick_16">
     <g id="line2d_36">
      <g>
       <use xlink:href="#mec1e5e2db3" x="57.729489" y="162.301018" style="stroke: #000000; stroke-width: 0.6"/>
      </g>
     </g>
    </g>
    <g id="ytick_17">
     <g id="line2d_37">
      <g>
       <use xlink:href="#mec1e5e2db3" x="57.729489" y="157.966543" style="stroke: #000000; stroke-width: 0.6"/>
      </g>
     </g>
    </g>
    <g id="ytick_18">
     <g id="line2d_38">
      <g>
       <use xlink:href="#mec1e5e2db3" x="57.729489" y="154.301796" style="stroke: #000000; stroke-width: 0.6"/>
      </g>
     </g>
    </g>
    <g id="ytick_19">
     <g id="line2d_39">
      <g>
       <use xlink:href="#mec1e5e2db3" x="57.729489" y="151.127248" style="stroke: #000000; stroke-width: 0.6"/>
      </g>
     </g>
    </g>
    <g id="ytick_20">
     <g id="line2d_40">
      <g>
       <use xlink:href="#mec1e5e2db3" x="57.729489" y="148.327099" style="stroke: #000000; stroke-width: 0.6"/>
      </g>
     </g>
    </g>
    <g id="ytick_21">
     <g id="line2d_41">
      <g>
       <use xlink:href="#mec1e5e2db3" x="57.729489" y="129.343541" style="stroke: #000000; stroke-width: 0.6"/>
      </g>
     </g>
    </g>
    <g id="ytick_22">
     <g id="line2d_42">
      <g>
       <use xlink:href="#mec1e5e2db3" x="57.729489" y="119.704097" style="stroke: #000000; stroke-width: 0.6"/>
      </g>
     </g>
    </g>
    <g id="ytick_23">
     <g id="line2d_43">
      <g>
       <use xlink:href="#mec1e5e2db3" x="57.729489" y="112.864803" style="stroke: #000000; stroke-width: 0.6"/>
      </g>
     </g>
    </g>
    <g id="ytick_24">
     <g id="line2d_44">
      <g>
       <use xlink:href="#mec1e5e2db3" x="57.729489" y="107.559834" style="stroke: #000000; stroke-width: 0.6"/>
      </g>
     </g>
    </g>
    <g id="ytick_25">
     <g id="line2d_45">
      <g>
       <use xlink:href="#mec1e5e2db3" x="57.729489" y="103.225359" style="stroke: #000000; stroke-width: 0.6"/>
      </g>
     </g>
    </g>
    <g id="ytick_26">
     <g id="line2d_46">
      <g>
       <use xlink:href="#mec1e5e2db3" x="57.729489" y="99.560612" style="stroke: #000000; stroke-width: 0.6"/>
      </g>
     </g>
    </g>
    <g id="ytick_27">
     <g id="line2d_47">
      <g>
       <use xlink:href="#mec1e5e2db3" x="57.729489" y="96.386064" style="stroke: #000000; stroke-width: 0.6"/>
      </g>
     </g>
    </g>
    <g id="ytick_28">
     <g id="line2d_48">
      <g>
       <use xlink:href="#mec1e5e2db3" x="57.729489" y="93.585914" style="stroke: #000000; stroke-width: 0.6"/>
      </g>
     </g>
    </g>
    <g id="ytick_29">
     <g id="line2d_49">
      <g>
       <use xlink:href="#mec1e5e2db3" x="57.729489" y="74.602357" style="stroke: #000000; stroke-width: 0.6"/>
      </g>
     </g>
    </g>
    <g id="ytick_30">
     <g id="line2d_50">
      <g>
       <use xlink:href="#mec1e5e2db3" x="57.729489" y="64.962913" style="stroke: #000000; stroke-width: 0.6"/>
      </g>
     </g>
    </g>
    <g id="ytick_31">
     <g id="line2d_51">
      <g>
       <use xlink:href="#mec1e5e2db3" x="57.729489" y="58.123618" style="stroke: #000000; stroke-width: 0.6"/>
      </g>
     </g>
    </g>
    <g id="ytick_32">
     <g id="line2d_52">
      <g>
       <use xlink:href="#mec1e5e2db3" x="57.729489" y="52.818649" style="stroke: #000000; stroke-width: 0.6"/>
      </g>
     </g>
    </g>
    <g id="ytick_33">
     <g id="line2d_53">
      <g>
       <use xlink:href="#mec1e5e2db3" x="57.729489" y="48.484174" style="stroke: #000000; stroke-width: 0.6"/>
      </g>
     </g>
    </g>
    <g id="ytick_34">
     <g id="line2d_54">
      <g>
       <use xlink:href="#mec1e5e2db3" x="57.729489" y="44.819428" style="stroke: #000000; stroke-width: 0.6"/>
      </g>
     </g>
    </g>
    <g id="ytick_35">
     <g id="line2d_55">
      <g>
       <use xlink:href="#mec1e5e2db3" x="57.729489" y="41.64488" style="stroke: #000000; stroke-width: 0.6"/>
      </g>
     </g>
    </g>
    <g id="ytick_36">
     <g id="line2d_56">
      <g>
       <use xlink:href="#mec1e5e2db3" x="57.729489" y="38.84473" style="stroke: #000000; stroke-width: 0.6"/>
      </g>
     </g>
    </g>
    <g id="text_14">
     <!-- MSE Loss -->
     <g transform="translate(22.442614 159.111875) rotate(-90) scale(0.12 -0.12)">
      <defs>
       <path id="TimesNewRomanPSMT-4d" d="M 2619 0 
L 981 3566 
L 981 734 
Q 981 344 1066 247 
Q 1181 116 1431 116 
L 1581 116 
L 1581 0 
L 106 0 
L 106 116 
L 256 116 
Q 525 116 638 278 
Q 706 378 706 734 
L 706 3503 
Q 706 3784 644 3909 
Q 600 4000 483 4061 
Q 366 4122 106 4122 
L 106 4238 
L 1306 4238 
L 2844 922 
L 4356 4238 
L 5556 4238 
L 5556 4122 
L 5409 4122 
Q 5138 4122 5025 3959 
Q 4956 3859 4956 3503 
L 4956 734 
Q 4956 344 5044 247 
Q 5159 116 5409 116 
L 5556 116 
L 5556 0 
L 3756 0 
L 3756 116 
L 3906 116 
Q 4178 116 4288 278 
Q 4356 378 4356 734 
L 4356 3566 
L 2722 0 
L 2619 0 
z
" transform="scale(0.015625)"/>
       <path id="TimesNewRomanPSMT-53" d="M 2934 4334 
L 2934 2869 
L 2819 2869 
Q 2763 3291 2617 3541 
Q 2472 3791 2203 3937 
Q 1934 4084 1647 4084 
Q 1322 4084 1109 3886 
Q 897 3688 897 3434 
Q 897 3241 1031 3081 
Q 1225 2847 1953 2456 
Q 2547 2138 2764 1967 
Q 2981 1797 3098 1565 
Q 3216 1334 3216 1081 
Q 3216 600 2842 251 
Q 2469 -97 1881 -97 
Q 1697 -97 1534 -69 
Q 1438 -53 1133 45 
Q 828 144 747 144 
Q 669 144 623 97 
Q 578 50 556 -97 
L 441 -97 
L 441 1356 
L 556 1356 
Q 638 900 775 673 
Q 913 447 1195 297 
Q 1478 147 1816 147 
Q 2206 147 2432 353 
Q 2659 559 2659 841 
Q 2659 997 2573 1156 
Q 2488 1316 2306 1453 
Q 2184 1547 1640 1851 
Q 1097 2156 867 2337 
Q 638 2519 519 2737 
Q 400 2956 400 3219 
Q 400 3675 750 4004 
Q 1100 4334 1641 4334 
Q 1978 4334 2356 4169 
Q 2531 4091 2603 4091 
Q 2684 4091 2736 4139 
Q 2788 4188 2819 4334 
L 2934 4334 
z
" transform="scale(0.015625)"/>
       <path id="TimesNewRomanPSMT-20" transform="scale(0.015625)"/>
       <path id="TimesNewRomanPSMT-4c" d="M 3669 1172 
L 3772 1150 
L 3409 0 
L 128 0 
L 128 116 
L 288 116 
Q 556 116 672 291 
Q 738 391 738 753 
L 738 3488 
Q 738 3884 650 3984 
Q 528 4122 288 4122 
L 128 4122 
L 128 4238 
L 2047 4238 
L 2047 4122 
Q 1709 4125 1573 4059 
Q 1438 3994 1388 3894 
Q 1338 3794 1338 3416 
L 1338 753 
Q 1338 494 1388 397 
Q 1425 331 1503 300 
Q 1581 269 1991 269 
L 2300 269 
Q 2788 269 2984 341 
Q 3181 413 3343 595 
Q 3506 778 3669 1172 
z
" transform="scale(0.015625)"/>
       <path id="TimesNewRomanPSMT-73" d="M 2050 2947 
L 2050 1972 
L 1947 1972 
Q 1828 2431 1642 2597 
Q 1456 2763 1169 2763 
Q 950 2763 815 2647 
Q 681 2531 681 2391 
Q 681 2216 781 2091 
Q 878 1963 1175 1819 
L 1631 1597 
Q 2266 1288 2266 781 
Q 2266 391 1970 151 
Q 1675 -88 1309 -88 
Q 1047 -88 709 6 
Q 606 38 541 38 
Q 469 38 428 -44 
L 325 -44 
L 325 978 
L 428 978 
Q 516 541 762 319 
Q 1009 97 1316 97 
Q 1531 97 1667 223 
Q 1803 350 1803 528 
Q 1803 744 1651 891 
Q 1500 1038 1047 1263 
Q 594 1488 453 1669 
Q 313 1847 313 2119 
Q 313 2472 555 2709 
Q 797 2947 1181 2947 
Q 1350 2947 1591 2875 
Q 1750 2828 1803 2828 
Q 1853 2828 1881 2850 
Q 1909 2872 1947 2947 
L 2050 2947 
z
" transform="scale(0.015625)"/>
      </defs>
      <use xlink:href="#TimesNewRomanPSMT-4d"/>
      <use xlink:href="#TimesNewRomanPSMT-53" transform="translate(88.916016 0)"/>
      <use xlink:href="#TimesNewRomanPSMT-45" transform="translate(144.53125 0)"/>
      <use xlink:href="#TimesNewRomanPSMT-20" transform="translate(205.615234 0)"/>
      <use xlink:href="#TimesNewRomanPSMT-4c" transform="translate(230.615234 0)"/>
      <use xlink:href="#TimesNewRomanPSMT-6f" transform="translate(291.699219 0)"/>
      <use xlink:href="#TimesNewRomanPSMT-73" transform="translate(341.699219 0)"/>
      <use xlink:href="#TimesNewRomanPSMT-73" transform="translate(380.615234 0)"/>
     </g>
    </g>
   </g>
   <g id="line2d_57">
    <path d="M 74.152694 36.612727 
L 75.309258 91.476288 
L 76.465821 107.52584 
L 77.622385 120.515657 
L 78.778949 131.525017 
L 81.092076 150.937044 
L 82.24864 160.234353 
L 83.405204 166.019535 
L 86.874895 178.442716 
L 89.188022 185.372526 
L 90.344586 186.875574 
L 92.657714 193.4579 
L 93.814277 191.357261 
L 94.970841 194.522916 
L 96.127405 197.111431 
L 97.283969 197.233143 
L 98.440532 200.399871 
L 99.597096 202.232912 
L 100.75366 204.321187 
L 103.066787 204.575128 
L 104.223351 207.090521 
L 105.379915 207.106824 
L 106.536479 207.593668 
L 107.693042 208.619552 
L 108.849606 209.250402 
L 110.00617 208.63179 
L 111.162733 209.685963 
L 112.319297 208.011851 
L 113.475861 209.919462 
L 114.632425 209.611363 
L 115.788988 210.217123 
L 116.945552 210.489156 
L 118.102116 211.510733 
L 119.25868 214.511841 
L 120.415243 214.475096 
L 121.571807 214.899287 
L 122.728371 214.750845 
L 123.884935 214.365678 
L 125.041498 214.795562 
L 126.198062 216.0509 
L 127.354626 215.108727 
L 128.51119 215.972874 
L 129.667753 215.012676 
L 130.824317 215.700986 
L 131.980881 215.910851 
L 133.137444 215.936212 
L 134.294008 215.666882 
L 135.450572 216.340384 
L 136.607136 215.459338 
L 137.763699 215.950158 
L 138.920263 218.248479 
L 140.076827 217.608228 
L 141.233391 217.541384 
L 142.389954 217.971909 
L 143.546518 218.17073 
L 144.703082 218.491698 
L 145.859646 217.876761 
L 147.016209 218.094859 
L 148.172773 218.196274 
L 149.329337 218.46929 
L 151.642464 218.364376 
L 152.799028 218.573031 
L 155.112155 218.623824 
L 156.268719 217.938574 
L 157.425283 218.246864 
L 159.73841 219.088159 
L 160.894974 218.881932 
L 162.051538 218.862954 
L 163.208102 218.425997 
L 164.364665 219.884583 
L 165.521229 219.897591 
L 166.677793 220.273768 
L 167.834357 219.532385 
L 168.99092 219.851298 
L 170.147484 219.612827 
L 171.304048 220.423895 
L 172.460611 220.073881 
L 173.617175 220.552668 
L 174.773739 220.221777 
L 178.24343 220.414775 
L 179.399994 219.983188 
L 180.556558 220.274593 
L 181.713121 219.84352 
L 184.026249 221.206302 
L 185.182813 221.224982 
L 186.339376 220.800573 
L 187.49594 220.653972 
L 188.652504 221.357283 
L 189.809068 220.784225 
L 190.965631 221.213982 
L 194.435322 220.726339 
L 195.591886 221.349908 
L 196.74845 221.439603 
L 201.374705 221.373282 
L 202.531269 221.499079 
L 203.687832 221.430759 
L 204.844396 221.525377 
L 206.00096 221.160908 
L 207.157524 221.62506 
L 208.314087 221.548081 
L 209.470651 221.290401 
L 210.627215 221.250244 
L 211.783779 221.564559 
L 212.940342 221.232102 
L 214.096906 221.647026 
L 216.410033 221.86963 
L 217.566597 221.595224 
L 218.723161 221.908812 
L 221.036288 221.877001 
L 222.192852 221.72695 
L 223.349416 221.855506 
L 224.50598 221.808142 
L 225.662543 222.201187 
L 226.819107 221.895953 
L 227.975671 222.082637 
L 229.132235 221.79633 
L 230.288798 221.644663 
L 231.445362 221.898902 
L 232.601926 221.580314 
L 233.758489 221.771249 
L 237.228181 221.842489 
L 238.384744 222.040557 
L 240.697872 222.168454 
L 241.854436 221.858269 
L 243.010999 221.954368 
L 244.167563 221.58072 
L 245.324127 221.928534 
L 249.950382 221.792881 
L 251.106946 222.124117 
L 253.420073 221.858742 
L 255.7332 222.086974 
L 256.889764 221.709241 
L 259.202892 222.152823 
L 260.359455 221.674529 
L 261.516019 221.996047 
L 264.98571 222.049746 
L 266.142274 221.658634 
L 267.298838 221.72007 
L 269.611965 222.136397 
L 271.925093 222.041558 
L 273.081657 222.249469 
L 274.23822 222.239324 
L 276.551348 221.898249 
L 277.707911 221.991822 
L 278.864475 221.759255 
L 280.021039 221.984714 
L 281.177603 221.918775 
L 282.334166 222.224288 
L 283.49073 221.891911 
L 285.803858 222.118211 
L 286.960421 222.143433 
L 289.273549 221.921137 
L 290.430113 222.173234 
L 291.586676 221.840565 
L 292.74324 222.044392 
L 293.899804 221.99734 
L 295.056367 221.780829 
L 296.212931 222.072837 
L 299.682622 221.931599 
L 304.308877 222.075321 
L 305.465441 221.641173 
L 306.622005 222.054822 
L 310.091696 222.073517 
L 312.404824 221.935887 
L 313.561387 221.66743 
L 314.717951 222.015237 
L 317.031078 221.636359 
L 318.187642 222.163642 
L 319.344206 222.014482 
L 320.50077 221.662662 
L 322.813897 222.122445 
L 323.970461 222.044875 
L 325.127025 222.250313 
L 326.283588 221.905106 
L 327.440152 221.896357 
L 328.596716 222.127784 
L 329.75328 222.038122 
L 330.909843 222.09429 
L 333.222971 222.378689 
L 334.379535 221.908893 
L 336.692662 221.900894 
L 337.849226 222.052588 
L 340.162353 221.933 
L 342.475481 222.064965 
L 343.632044 222.1802 
L 347.101736 221.943278 
L 348.258299 221.98923 
L 349.414863 222.278243 
L 350.571427 222.055208 
L 351.727991 222.113922 
L 355.197682 221.91736 
L 356.354246 222.286192 
L 357.510809 221.948721 
L 358.667373 221.972991 
L 360.9805 221.655709 
L 362.137064 222.064095 
L 364.450192 222.076017 
L 365.606755 221.922999 
L 367.919883 222.020155 
L 369.076447 222.077104 
L 371.389574 221.752845 
L 372.546138 221.838107 
L 373.702702 222.056917 
L 374.859265 221.752911 
L 378.328956 221.934581 
L 379.48552 221.817024 
L 380.642084 222.1067 
L 381.798648 221.875503 
L 382.955211 221.889868 
L 384.111775 222.146547 
L 385.268339 221.949191 
L 386.424903 221.89237 
L 391.051158 222.158151 
L 392.207721 221.573537 
L 393.364285 222.022739 
L 394.520849 221.789719 
L 395.677413 222.087785 
L 396.833976 222.138611 
L 399.147104 221.717399 
L 400.303667 221.804532 
L 401.460231 222.259626 
L 402.616795 222.131473 
L 402.616795 222.131473 
" clip-path="url(#p20582ee857)" style="fill: none; stroke: #1f77b4; stroke-width: 2; stroke-linecap: square"/>
   </g>
   <g id="line2d_58">
    <path d="M 74.152694 142.270472 
L 75.309258 154.952426 
L 76.465821 169.147751 
L 77.622385 189.364542 
L 78.778949 170.32119 
L 79.935513 191.351011 
L 81.092076 186.941381 
L 82.24864 196.310205 
L 83.405204 200.855867 
L 84.561768 172.161924 
L 85.718331 178.697638 
L 86.874895 204.232716 
L 88.031459 163.495718 
L 89.188022 200.734345 
L 90.344586 176.568023 
L 91.50115 176.345908 
L 92.657714 174.587305 
L 93.814277 188.586207 
L 94.970841 212.20066 
L 96.127405 192.825596 
L 97.283969 158.191469 
L 98.440532 217.516609 
L 99.597096 183.578513 
L 100.75366 173.015695 
L 101.910224 184.620067 
L 103.066787 204.61446 
L 104.223351 196.38235 
L 105.379915 226.009961 
L 106.536479 202.303269 
L 107.693042 205.567822 
L 108.849606 215.855015 
L 110.00617 220.460452 
L 111.162733 209.802007 
L 112.319297 212.170764 
L 113.475861 208.375219 
L 114.632425 218.051932 
L 115.788988 193.091565 
L 116.945552 224.923539 
L 118.102116 213.942001 
L 119.25868 221.583817 
L 120.415243 212.283852 
L 121.571807 213.24626 
L 122.728371 211.487836 
L 123.884935 210.192964 
L 125.041498 227.820166 
L 126.198062 211.90913 
L 127.354626 217.835075 
L 128.51119 220.516203 
L 129.667753 214.689141 
L 130.824317 226.35396 
L 131.980881 205.304128 
L 133.137444 219.913692 
L 134.294008 227.367151 
L 135.450572 221.286615 
L 136.607136 220.992074 
L 137.763699 226.001402 
L 138.920263 227.697969 
L 140.076827 209.631203 
L 141.233391 223.28098 
L 142.389954 218.210624 
L 143.546518 224.49352 
L 144.703082 228.668713 
L 145.859646 227.432048 
L 147.016209 216.670711 
L 148.172773 223.181609 
L 149.329337 226.751966 
L 150.4859 229.601269 
L 151.642464 225.743822 
L 152.799028 217.757992 
L 155.112155 225.142037 
L 156.268719 215.815486 
L 157.425283 229.098417 
L 158.581847 226.363482 
L 159.73841 229.107093 
L 160.894974 225.552897 
L 162.051538 229.473843 
L 163.208102 228.716496 
L 164.364665 228.972798 
L 165.521229 227.218129 
L 166.677793 228.519186 
L 167.834357 227.850652 
L 168.99092 225.357806 
L 170.147484 230.772689 
L 171.304048 228.384108 
L 172.460611 230.526935 
L 173.617175 229.281855 
L 174.773739 226.828975 
L 175.930303 230.0809 
L 177.086866 215.610257 
L 178.24343 230.413353 
L 179.399994 220.165784 
L 180.556558 225.345023 
L 181.713121 220.228926 
L 182.869685 228.739102 
L 184.026249 230.490035 
L 185.182813 228.056985 
L 186.339376 228.911221 
L 187.49594 230.369102 
L 188.652504 229.026972 
L 189.809068 229.885736 
L 190.965631 230.527525 
L 192.122195 226.938527 
L 193.278759 230.665489 
L 194.435322 228.970571 
L 195.591886 230.229964 
L 196.74845 229.992538 
L 197.905014 230.874983 
L 199.061577 230.965315 
L 200.218141 229.764266 
L 201.374705 226.244882 
L 202.531269 229.234703 
L 203.687832 230.575436 
L 204.844396 229.868084 
L 206.00096 227.231598 
L 207.157524 230.592517 
L 208.314087 230.181425 
L 209.470651 227.996745 
L 210.627215 229.088176 
L 211.783779 230.737902 
L 212.940342 230.593486 
L 214.096906 229.742407 
L 216.410033 230.602302 
L 217.566597 230.382549 
L 218.723161 227.862238 
L 219.879725 230.710819 
L 221.036288 229.621372 
L 222.192852 228.789664 
L 223.349416 229.713433 
L 224.50598 229.356163 
L 225.662543 227.609329 
L 226.819107 229.784585 
L 227.975671 230.955246 
L 229.132235 229.833659 
L 230.288798 230.586491 
L 231.445362 230.681669 
L 232.601926 228.25802 
L 233.758489 229.300883 
L 234.915053 231.19 
L 236.071617 230.793306 
L 237.228181 230.813292 
L 238.384744 230.0997 
L 239.541308 230.768445 
L 240.697872 230.289347 
L 241.854436 229.251762 
L 243.010999 229.952481 
L 244.167563 230.482375 
L 245.324127 228.885515 
L 246.480691 230.395308 
L 247.637254 228.607692 
L 248.793818 230.082863 
L 251.106946 229.517369 
L 252.263509 229.823276 
L 253.420073 230.507181 
L 254.576637 230.822884 
L 255.7332 230.160417 
L 256.889764 229.013408 
L 259.202892 228.854874 
L 260.359455 229.548805 
L 261.516019 228.561389 
L 262.672583 229.823862 
L 264.98571 230.755484 
L 266.142274 229.974051 
L 267.298838 230.103682 
L 268.455402 230.761222 
L 269.611965 230.875203 
L 271.925093 230.848126 
L 273.081657 229.426082 
L 275.394784 230.502428 
L 276.551348 229.443235 
L 277.707911 229.636908 
L 278.864475 230.961634 
L 280.021039 229.600241 
L 281.177603 230.796482 
L 282.334166 229.692668 
L 283.49073 230.125108 
L 284.647294 229.092525 
L 285.803858 230.315335 
L 286.960421 231.267273 
L 288.116985 229.222948 
L 289.273549 230.266961 
L 290.430113 230.284946 
L 292.74324 230.706018 
L 293.899804 228.927111 
L 295.056367 230.229366 
L 296.212931 229.811689 
L 297.369495 229.828992 
L 298.526059 229.612655 
L 299.682622 230.255133 
L 300.839186 228.26277 
L 301.99575 229.960868 
L 303.152314 230.227161 
L 304.308877 230.622882 
L 305.465441 228.645377 
L 306.622005 228.7148 
L 307.778569 230.175574 
L 308.935132 229.83938 
L 310.091696 230.556497 
L 311.24826 228.720038 
L 312.404824 230.808038 
L 313.561387 230.699541 
L 314.717951 231.098408 
L 315.874515 230.553469 
L 317.031078 229.114386 
L 318.187642 229.389279 
L 319.344206 230.878925 
L 320.50077 228.090422 
L 321.657333 229.637099 
L 322.813897 228.570082 
L 323.970461 230.188967 
L 325.127025 229.154986 
L 326.283588 230.256565 
L 327.440152 229.977642 
L 328.596716 229.221055 
L 329.75328 229.034306 
L 332.066407 230.124334 
L 333.222971 230.117946 
L 334.379535 230.343243 
L 335.536098 228.717233 
L 336.692662 230.50211 
L 337.849226 229.017219 
L 339.005789 230.872636 
L 340.162353 229.419134 
L 341.318917 229.473318 
L 343.632044 228.971238 
L 344.788608 230.681993 
L 345.945172 229.827669 
L 347.101736 228.605726 
L 348.258299 229.747933 
L 349.414863 231.048641 
L 350.571427 228.951323 
L 351.727991 228.940281 
L 352.884554 230.656008 
L 354.041118 229.301036 
L 355.197682 230.817046 
L 356.354246 230.186228 
L 357.510809 230.758661 
L 358.667373 228.841144 
L 359.823937 231.101101 
L 360.9805 230.759762 
L 362.137064 230.93963 
L 363.293628 230.973297 
L 364.450192 229.834174 
L 365.606755 230.917158 
L 366.763319 231.192282 
L 369.076447 230.058622 
L 370.23301 231.014488 
L 371.389574 231.106725 
L 372.546138 230.445339 
L 373.702702 230.535497 
L 374.859265 231.112079 
L 376.015829 230.44013 
L 377.172393 230.354426 
L 378.328956 230.584373 
L 379.48552 231.042991 
L 380.642084 230.798984 
L 382.955211 229.899377 
L 384.111775 230.385079 
L 385.268339 227.003742 
L 386.424903 230.886748 
L 387.581466 230.586674 
L 388.73803 230.676145 
L 389.894594 229.444847 
L 391.051158 229.641013 
L 392.207721 228.909108 
L 393.364285 228.514959 
L 394.520849 230.349576 
L 395.677413 228.46341 
L 396.833976 230.662665 
L 397.99054 230.834456 
L 399.147104 230.303012 
L 400.303667 231.051075 
L 401.460231 230.006592 
L 402.616795 229.125258 
L 402.616795 229.125258 
" clip-path="url(#p20582ee857)" style="fill: none; stroke: #ff7f0e; stroke-width: 2; stroke-linecap: square"/>
   </g>
   <g id="patch_3">
    <path d="M 57.729489 241 
L 57.729489 26.88 
" style="fill: none; stroke: #000000; stroke-width: 0.8; stroke-linejoin: miter; stroke-linecap: square"/>
   </g>
   <g id="patch_4">
    <path d="M 419.04 241 
L 419.04 26.88 
" style="fill: none; stroke: #000000; stroke-width: 0.8; stroke-linejoin: miter; stroke-linecap: square"/>
   </g>
   <g id="patch_5">
    <path d="M 57.729489 241 
L 419.04 241 
" style="fill: none; stroke: #000000; stroke-width: 0.8; stroke-linejoin: miter; stroke-linecap: square"/>
   </g>
   <g id="patch_6">
    <path d="M 57.729489 26.88 
L 419.04 26.88 
" style="fill: none; stroke: #000000; stroke-width: 0.8; stroke-linejoin: miter; stroke-linecap: square"/>
   </g>
   <g id="text_15">
    <!-- Evolution of MSE Loss during Training -->
    <g transform="translate(150.527401 20.88) scale(0.11 -0.11)">
     <defs>
      <path id="TimesNewRomanPSMT-76" d="M 53 2863 
L 1400 2863 
L 1400 2747 
L 1313 2747 
Q 1191 2747 1127 2687 
Q 1063 2628 1063 2528 
Q 1063 2419 1128 2269 
L 1794 688 
L 2463 2328 
Q 2534 2503 2534 2594 
Q 2534 2638 2509 2666 
Q 2475 2713 2422 2730 
Q 2369 2747 2206 2747 
L 2206 2863 
L 3141 2863 
L 3141 2747 
Q 2978 2734 2916 2681 
Q 2806 2588 2719 2369 
L 1703 -88 
L 1575 -88 
L 553 2328 
Q 484 2497 421 2570 
Q 359 2644 263 2694 
Q 209 2722 53 2747 
L 53 2863 
z
" transform="scale(0.015625)"/>
      <path id="TimesNewRomanPSMT-6c" d="M 1184 4444 
L 1184 647 
Q 1184 378 1223 290 
Q 1263 203 1344 158 
Q 1425 113 1647 113 
L 1647 0 
L 244 0 
L 244 113 
Q 441 113 512 153 
Q 584 194 625 287 
Q 666 381 666 647 
L 666 3247 
Q 666 3731 644 3842 
Q 622 3953 573 3993 
Q 525 4034 450 4034 
Q 369 4034 244 3984 
L 191 4094 
L 1044 4444 
L 1184 4444 
z
" transform="scale(0.015625)"/>
      <path id="TimesNewRomanPSMT-75" d="M 2709 2863 
L 2709 1128 
Q 2709 631 2732 520 
Q 2756 409 2807 365 
Q 2859 322 2928 322 
Q 3025 322 3147 375 
L 3191 266 
L 2334 -88 
L 2194 -88 
L 2194 519 
Q 1825 119 1631 15 
Q 1438 -88 1222 -88 
Q 981 -88 804 51 
Q 628 191 559 409 
Q 491 628 491 1028 
L 491 2306 
Q 491 2509 447 2587 
Q 403 2666 317 2708 
Q 231 2750 6 2747 
L 6 2863 
L 1009 2863 
L 1009 947 
Q 1009 547 1148 422 
Q 1288 297 1484 297 
Q 1619 297 1789 381 
Q 1959 466 2194 703 
L 2194 2325 
Q 2194 2569 2105 2655 
Q 2016 2741 1734 2747 
L 1734 2863 
L 2709 2863 
z
" transform="scale(0.015625)"/>
      <path id="TimesNewRomanPSMT-74" d="M 1031 3803 
L 1031 2863 
L 1700 2863 
L 1700 2644 
L 1031 2644 
L 1031 788 
Q 1031 509 1111 412 
Q 1191 316 1316 316 
Q 1419 316 1516 380 
Q 1613 444 1666 569 
L 1788 569 
Q 1678 263 1478 108 
Q 1278 -47 1066 -47 
Q 922 -47 784 33 
Q 647 113 581 261 
Q 516 409 516 719 
L 516 2644 
L 63 2644 
L 63 2747 
Q 234 2816 414 2980 
Q 594 3144 734 3369 
Q 806 3488 934 3803 
L 1031 3803 
z
" transform="scale(0.015625)"/>
      <path id="TimesNewRomanPSMT-69" d="M 928 4444 
Q 1059 4444 1151 4351 
Q 1244 4259 1244 4128 
Q 1244 3997 1151 3903 
Q 1059 3809 928 3809 
Q 797 3809 703 3903 
Q 609 3997 609 4128 
Q 609 4259 701 4351 
Q 794 4444 928 4444 
z
M 1188 2947 
L 1188 647 
Q 1188 378 1227 289 
Q 1266 200 1342 156 
Q 1419 113 1622 113 
L 1622 0 
L 231 0 
L 231 113 
Q 441 113 512 153 
Q 584 194 626 287 
Q 669 381 669 647 
L 669 1750 
Q 669 2216 641 2353 
Q 619 2453 572 2492 
Q 525 2531 444 2531 
Q 356 2531 231 2484 
L 188 2597 
L 1050 2947 
L 1188 2947 
z
" transform="scale(0.015625)"/>
      <path id="TimesNewRomanPSMT-6e" d="M 1034 2341 
Q 1538 2947 1994 2947 
Q 2228 2947 2397 2830 
Q 2566 2713 2666 2444 
Q 2734 2256 2734 1869 
L 2734 647 
Q 2734 375 2778 278 
Q 2813 200 2889 156 
Q 2966 113 3172 113 
L 3172 0 
L 1756 0 
L 1756 113 
L 1816 113 
Q 2016 113 2095 173 
Q 2175 234 2206 353 
Q 2219 400 2219 647 
L 2219 1819 
Q 2219 2209 2117 2386 
Q 2016 2563 1775 2563 
Q 1403 2563 1034 2156 
L 1034 647 
Q 1034 356 1069 288 
Q 1113 197 1189 155 
Q 1266 113 1500 113 
L 1500 0 
L 84 0 
L 84 113 
L 147 113 
Q 366 113 442 223 
Q 519 334 519 647 
L 519 1709 
Q 519 2225 495 2337 
Q 472 2450 423 2490 
Q 375 2531 294 2531 
Q 206 2531 84 2484 
L 38 2597 
L 900 2947 
L 1034 2947 
L 1034 2341 
z
" transform="scale(0.015625)"/>
      <path id="TimesNewRomanPSMT-66" d="M 1319 2638 
L 1319 756 
Q 1319 356 1406 250 
Q 1522 113 1716 113 
L 1975 113 
L 1975 0 
L 266 0 
L 266 113 
L 394 113 
Q 519 113 622 175 
Q 725 238 764 344 
Q 803 450 803 756 
L 803 2638 
L 247 2638 
L 247 2863 
L 803 2863 
L 803 3050 
Q 803 3478 940 3775 
Q 1078 4072 1361 4255 
Q 1644 4438 1997 4438 
Q 2325 4438 2600 4225 
Q 2781 4084 2781 3909 
Q 2781 3816 2700 3733 
Q 2619 3650 2525 3650 
Q 2453 3650 2373 3701 
Q 2294 3753 2178 3923 
Q 2063 4094 1966 4153 
Q 1869 4213 1750 4213 
Q 1606 4213 1506 4136 
Q 1406 4059 1362 3898 
Q 1319 3738 1319 3069 
L 1319 2863 
L 2056 2863 
L 2056 2638 
L 1319 2638 
z
" transform="scale(0.015625)"/>
      <path id="TimesNewRomanPSMT-64" d="M 2222 322 
Q 2013 103 1813 7 
Q 1613 -88 1381 -88 
Q 913 -88 563 304 
Q 213 697 213 1313 
Q 213 1928 600 2439 
Q 988 2950 1597 2950 
Q 1975 2950 2222 2709 
L 2222 3238 
Q 2222 3728 2198 3840 
Q 2175 3953 2125 3993 
Q 2075 4034 2000 4034 
Q 1919 4034 1784 3984 
L 1744 4094 
L 2597 4444 
L 2738 4444 
L 2738 1134 
Q 2738 631 2761 520 
Q 2784 409 2836 365 
Q 2888 322 2956 322 
Q 3041 322 3181 375 
L 3216 266 
L 2366 -88 
L 2222 -88 
L 2222 322 
z
M 2222 541 
L 2222 2016 
Q 2203 2228 2109 2403 
Q 2016 2578 1861 2667 
Q 1706 2756 1559 2756 
Q 1284 2756 1069 2509 
Q 784 2184 784 1559 
Q 784 928 1059 592 
Q 1334 256 1672 256 
Q 1956 256 2222 541 
z
" transform="scale(0.015625)"/>
      <path id="TimesNewRomanPSMT-72" d="M 1038 2947 
L 1038 2303 
Q 1397 2947 1775 2947 
Q 1947 2947 2059 2842 
Q 2172 2738 2172 2600 
Q 2172 2478 2090 2393 
Q 2009 2309 1897 2309 
Q 1788 2309 1652 2417 
Q 1516 2525 1450 2525 
Q 1394 2525 1328 2463 
Q 1188 2334 1038 2041 
L 1038 669 
Q 1038 431 1097 309 
Q 1138 225 1241 169 
Q 1344 113 1538 113 
L 1538 0 
L 72 0 
L 72 113 
Q 291 113 397 181 
Q 475 231 506 341 
Q 522 394 522 644 
L 522 1753 
Q 522 2253 501 2348 
Q 481 2444 426 2487 
Q 372 2531 291 2531 
Q 194 2531 72 2484 
L 41 2597 
L 906 2947 
L 1038 2947 
z
" transform="scale(0.015625)"/>
      <path id="TimesNewRomanPSMT-67" d="M 966 1044 
Q 703 1172 562 1401 
Q 422 1631 422 1909 
Q 422 2334 742 2640 
Q 1063 2947 1563 2947 
Q 1972 2947 2272 2747 
L 2878 2747 
Q 3013 2747 3034 2739 
Q 3056 2731 3066 2713 
Q 3084 2684 3084 2613 
Q 3084 2531 3069 2500 
Q 3059 2484 3036 2475 
Q 3013 2466 2878 2466 
L 2506 2466 
Q 2681 2241 2681 1891 
Q 2681 1491 2375 1206 
Q 2069 922 1553 922 
Q 1341 922 1119 984 
Q 981 866 932 777 
Q 884 688 884 625 
Q 884 572 936 522 
Q 988 472 1138 450 
Q 1225 438 1575 428 
Q 2219 413 2409 384 
Q 2700 344 2873 169 
Q 3047 -6 3047 -263 
Q 3047 -616 2716 -925 
Q 2228 -1381 1444 -1381 
Q 841 -1381 425 -1109 
Q 191 -953 191 -784 
Q 191 -709 225 -634 
Q 278 -519 444 -313 
Q 466 -284 763 25 
Q 600 122 533 198 
Q 466 275 466 372 
Q 466 481 555 628 
Q 644 775 966 1044 
z
M 1509 2797 
Q 1278 2797 1122 2612 
Q 966 2428 966 2047 
Q 966 1553 1178 1281 
Q 1341 1075 1591 1075 
Q 1828 1075 1981 1253 
Q 2134 1431 2134 1813 
Q 2134 2309 1919 2591 
Q 1759 2797 1509 2797 
z
M 934 0 
Q 788 -159 713 -296 
Q 638 -434 638 -550 
Q 638 -700 819 -813 
Q 1131 -1006 1722 -1006 
Q 2284 -1006 2551 -807 
Q 2819 -609 2819 -384 
Q 2819 -222 2659 -153 
Q 2497 -84 2016 -72 
Q 1313 -53 934 0 
z
" transform="scale(0.015625)"/>
      <path id="TimesNewRomanPSMT-54" d="M 3703 4238 
L 3750 3244 
L 3631 3244 
Q 3597 3506 3538 3619 
Q 3441 3800 3280 3886 
Q 3119 3972 2856 3972 
L 2259 3972 
L 2259 734 
Q 2259 344 2344 247 
Q 2463 116 2709 116 
L 2856 116 
L 2856 0 
L 1059 0 
L 1059 116 
L 1209 116 
Q 1478 116 1591 278 
Q 1659 378 1659 734 
L 1659 3972 
L 1150 3972 
Q 853 3972 728 3928 
Q 566 3869 450 3700 
Q 334 3531 313 3244 
L 194 3244 
L 244 4238 
L 3703 4238 
z
" transform="scale(0.015625)"/>
      <path id="TimesNewRomanPSMT-61" d="M 1822 413 
Q 1381 72 1269 19 
Q 1100 -59 909 -59 
Q 613 -59 420 144 
Q 228 347 228 678 
Q 228 888 322 1041 
Q 450 1253 767 1440 
Q 1084 1628 1822 1897 
L 1822 2009 
Q 1822 2438 1686 2597 
Q 1550 2756 1291 2756 
Q 1094 2756 978 2650 
Q 859 2544 859 2406 
L 866 2225 
Q 866 2081 792 2003 
Q 719 1925 600 1925 
Q 484 1925 411 2006 
Q 338 2088 338 2228 
Q 338 2497 613 2722 
Q 888 2947 1384 2947 
Q 1766 2947 2009 2819 
Q 2194 2722 2281 2516 
Q 2338 2381 2338 1966 
L 2338 994 
Q 2338 584 2353 492 
Q 2369 400 2405 369 
Q 2441 338 2488 338 
Q 2538 338 2575 359 
Q 2641 400 2828 588 
L 2828 413 
Q 2478 -56 2159 -56 
Q 2006 -56 1915 50 
Q 1825 156 1822 413 
z
M 1822 616 
L 1822 1706 
Q 1350 1519 1213 1441 
Q 966 1303 859 1153 
Q 753 1003 753 825 
Q 753 600 887 451 
Q 1022 303 1197 303 
Q 1434 303 1822 616 
z
" transform="scale(0.015625)"/>
     </defs>
     <use xlink:href="#TimesNewRomanPSMT-45"/>
     <use xlink:href="#TimesNewRomanPSMT-76" transform="translate(61.083984 0)"/>
     <use xlink:href="#TimesNewRomanPSMT-6f" transform="translate(111.083984 0)"/>
     <use xlink:href="#TimesNewRomanPSMT-6c" transform="translate(161.083984 0)"/>
     <use xlink:href="#TimesNewRomanPSMT-75" transform="translate(188.867188 0)"/>
     <use xlink:href="#TimesNewRomanPSMT-74" transform="translate(238.867188 0)"/>
     <use xlink:href="#TimesNewRomanPSMT-69" transform="translate(266.650391 0)"/>
     <use xlink:href="#TimesNewRomanPSMT-6f" transform="translate(294.433594 0)"/>
     <use xlink:href="#TimesNewRomanPSMT-6e" transform="translate(344.433594 0)"/>
     <use xlink:href="#TimesNewRomanPSMT-20" transform="translate(394.433594 0)"/>
     <use xlink:href="#TimesNewRomanPSMT-6f" transform="translate(419.433594 0)"/>
     <use xlink:href="#TimesNewRomanPSMT-66" transform="translate(469.433594 0)"/>
     <use xlink:href="#TimesNewRomanPSMT-20" transform="translate(502.734375 0)"/>
     <use xlink:href="#TimesNewRomanPSMT-4d" transform="translate(527.734375 0)"/>
     <use xlink:href="#TimesNewRomanPSMT-53" transform="translate(616.650391 0)"/>
     <use xlink:href="#TimesNewRomanPSMT-45" transform="translate(672.265625 0)"/>
     <use xlink:href="#TimesNewRomanPSMT-20" transform="translate(733.349609 0)"/>
     <use xlink:href="#TimesNewRomanPSMT-4c" transform="translate(758.349609 0)"/>
     <use xlink:href="#TimesNewRomanPSMT-6f" transform="translate(819.433594 0)"/>
     <use xlink:href="#TimesNewRomanPSMT-73" transform="translate(869.433594 0)"/>
     <use xlink:href="#TimesNewRomanPSMT-73" transform="translate(908.349609 0)"/>
     <use xlink:href="#TimesNewRomanPSMT-20" transform="translate(947.265625 0)"/>
     <use xlink:href="#TimesNewRomanPSMT-64" transform="translate(972.265625 0)"/>
     <use xlink:href="#TimesNewRomanPSMT-75" transform="translate(1022.265625 0)"/>
     <use xlink:href="#TimesNewRomanPSMT-72" transform="translate(1072.265625 0)"/>
     <use xlink:href="#TimesNewRomanPSMT-69" transform="translate(1105.566406 0)"/>
     <use xlink:href="#TimesNewRomanPSMT-6e" transform="translate(1133.349609 0)"/>
     <use xlink:href="#TimesNewRomanPSMT-67" transform="translate(1183.349609 0)"/>
     <use xlink:href="#TimesNewRomanPSMT-20" transform="translate(1233.349609 0)"/>
     <use xlink:href="#TimesNewRomanPSMT-54" transform="translate(1256.599609 0)"/>
     <use xlink:href="#TimesNewRomanPSMT-72" transform="translate(1314.183594 0)"/>
     <use xlink:href="#TimesNewRomanPSMT-61" transform="translate(1347.484375 0)"/>
     <use xlink:href="#TimesNewRomanPSMT-69" transform="translate(1391.869141 0)"/>
     <use xlink:href="#TimesNewRomanPSMT-6e" transform="translate(1419.652344 0)"/>
     <use xlink:href="#TimesNewRomanPSMT-69" transform="translate(1469.652344 0)"/>
     <use xlink:href="#TimesNewRomanPSMT-6e" transform="translate(1497.435547 0)"/>
     <use xlink:href="#TimesNewRomanPSMT-67" transform="translate(1547.435547 0)"/>
    </g>
   </g>
   <g id="legend_1">
    <g id="patch_7">
     <path d="M 294.913125 70.41375 
L 410.64 70.41375 
Q 413.04 70.41375 413.04 68.01375 
L 413.04 35.28 
Q 413.04 32.88 410.64 32.88 
L 294.913125 32.88 
Q 292.513125 32.88 292.513125 35.28 
L 292.513125 68.01375 
Q 292.513125 70.41375 294.913125 70.41375 
z
" style="fill: #ffffff; opacity: 0.8; stroke: #cccccc; stroke-linejoin: miter"/>
    </g>
    <g id="line2d_59">
     <path d="M 297.313125 41.88 
L 309.313125 41.88 
L 321.313125 41.88 
" style="fill: none; stroke: #1f77b4; stroke-width: 2; stroke-linecap: square"/>
    </g>
    <g id="text_16">
     <!-- Train Loss -->
     <g transform="translate(330.913125 46.08) scale(0.12 -0.12)">
      <use xlink:href="#TimesNewRomanPSMT-54"/>
      <use xlink:href="#TimesNewRomanPSMT-72" transform="translate(57.583984 0)"/>
      <use xlink:href="#TimesNewRomanPSMT-61" transform="translate(90.884766 0)"/>
      <use xlink:href="#TimesNewRomanPSMT-69" transform="translate(135.269531 0)"/>
      <use xlink:href="#TimesNewRomanPSMT-6e" transform="translate(163.052734 0)"/>
      <use xlink:href="#TimesNewRomanPSMT-20" transform="translate(213.052734 0)"/>
      <use xlink:href="#TimesNewRomanPSMT-4c" transform="translate(238.052734 0)"/>
      <use xlink:href="#TimesNewRomanPSMT-6f" transform="translate(299.136719 0)"/>
      <use xlink:href="#TimesNewRomanPSMT-73" transform="translate(349.136719 0)"/>
      <use xlink:href="#TimesNewRomanPSMT-73" transform="translate(388.052734 0)"/>
     </g>
    </g>
    <g id="line2d_60">
     <path d="M 297.313125 58.846875 
L 309.313125 58.846875 
L 321.313125 58.846875 
" style="fill: none; stroke: #ff7f0e; stroke-width: 2; stroke-linecap: square"/>
    </g>
    <g id="text_17">
     <!-- Val Loss (MSE) -->
     <g transform="translate(330.913125 63.046875) scale(0.12 -0.12)">
      <defs>
       <path id="TimesNewRomanPSMT-56" d="M 4544 4238 
L 4544 4122 
Q 4319 4081 4203 3978 
Q 4038 3825 3909 3509 
L 2431 -97 
L 2316 -97 
L 728 3556 
Q 606 3838 556 3900 
Q 478 3997 364 4051 
Q 250 4106 56 4122 
L 56 4238 
L 1788 4238 
L 1788 4122 
Q 1494 4094 1406 4022 
Q 1319 3950 1319 3838 
Q 1319 3681 1463 3350 
L 2541 866 
L 3541 3319 
Q 3688 3681 3688 3822 
Q 3688 3913 3597 3995 
Q 3506 4078 3291 4113 
Q 3275 4116 3238 4122 
L 3238 4238 
L 4544 4238 
z
" transform="scale(0.015625)"/>
       <path id="TimesNewRomanPSMT-28" d="M 1988 -1253 
L 1988 -1369 
Q 1516 -1131 1200 -813 
Q 750 -359 506 256 
Q 263 872 263 1534 
Q 263 2503 741 3301 
Q 1219 4100 1988 4444 
L 1988 4313 
Q 1603 4100 1356 3731 
Q 1109 3363 987 2797 
Q 866 2231 866 1616 
Q 866 947 969 400 
Q 1050 -31 1165 -292 
Q 1281 -553 1476 -793 
Q 1672 -1034 1988 -1253 
z
" transform="scale(0.015625)"/>
       <path id="TimesNewRomanPSMT-29" d="M 144 4313 
L 144 4444 
Q 619 4209 934 3891 
Q 1381 3434 1625 2820 
Q 1869 2206 1869 1541 
Q 1869 572 1392 -226 
Q 916 -1025 144 -1369 
L 144 -1253 
Q 528 -1038 776 -670 
Q 1025 -303 1145 264 
Q 1266 831 1266 1447 
Q 1266 2113 1163 2663 
Q 1084 3094 967 3353 
Q 850 3613 656 3853 
Q 463 4094 144 4313 
z
" transform="scale(0.015625)"/>
      </defs>
      <use xlink:href="#TimesNewRomanPSMT-56"/>
      <use xlink:href="#TimesNewRomanPSMT-61" transform="translate(61.091797 0)"/>
      <use xlink:href="#TimesNewRomanPSMT-6c" transform="translate(105.476562 0)"/>
      <use xlink:href="#TimesNewRomanPSMT-20" transform="translate(133.259766 0)"/>
      <use xlink:href="#TimesNewRomanPSMT-4c" transform="translate(158.259766 0)"/>
      <use xlink:href="#TimesNewRomanPSMT-6f" transform="translate(219.34375 0)"/>
      <use xlink:href="#TimesNewRomanPSMT-73" transform="translate(269.34375 0)"/>
      <use xlink:href="#TimesNewRomanPSMT-73" transform="translate(308.259766 0)"/>
      <use xlink:href="#TimesNewRomanPSMT-20" transform="translate(347.175781 0)"/>
      <use xlink:href="#TimesNewRomanPSMT-28" transform="translate(372.175781 0)"/>
      <use xlink:href="#TimesNewRomanPSMT-4d" transform="translate(405.476562 0)"/>
      <use xlink:href="#TimesNewRomanPSMT-53" transform="translate(494.392578 0)"/>
      <use xlink:href="#TimesNewRomanPSMT-45" transform="translate(550.007812 0)"/>
      <use xlink:href="#TimesNewRomanPSMT-29" transform="translate(611.091797 0)"/>
     </g>
    </g>
   </g>
  </g>
 </g>
 <defs>
  <clipPath id="p20582ee857">
   <rect x="57.729489" y="26.88" width="361.310511" height="214.12"/>
  </clipPath>
 </defs>
</svg>
