<?xml version="1.0" encoding="utf-8" standalone="no"?>
<!DOCTYPE svg PUBLIC "-//W3C//DTD SVG 1.1//EN"
  "http://www.w3.org/Graphics/SVG/1.1/DTD/svg11.dtd">
<svg xmlns:xlink="http://www.w3.org/1999/xlink" width="576pt" height="360pt" viewBox="0 0 576 360" xmlns="http://www.w3.org/2000/svg" version="1.1">
 <metadata>
  <rdf:RDF xmlns:dc="http://purl.org/dc/elements/1.1/" xmlns:cc="http://creativecommons.org/ns#" xmlns:rdf="http://www.w3.org/1999/02/22-rdf-syntax-ns#">
   <cc:Work>
    <dc:type rdf:resource="http://purl.org/dc/dcmitype/StillImage"/>
    <dc:date>2025-04-30T10:55:20.151011</dc:date>
    <dc:format>image/svg+xml</dc:format>
    <dc:creator>
     <cc:Agent>
      <dc:title>Matplotlib v3.10.1, https://matplotlib.org/</dc:title>
     </cc:Agent>
    </dc:creator>
   </cc:Work>
  </rdf:RDF>
 </metadata>
 <defs>
  <style type="text/css">*{stroke-linejoin: round; stroke-linecap: butt}</style>
 </defs>
 <g id="figure_1">
  <g id="patch_1">
   <path d="M 0 360 
L 576 360 
L 576 0 
L 0 0 
z
" style="fill: #ffffff"/>
  </g>
  <g id="axes_1">
   <g id="patch_2">
    <path d="M 55.880346 318.04 
L 565.2 318.04 
L 565.2 27.6 
L 55.880346 27.6 
z
" style="fill: #ffffff"/>
   </g>
   <g id="matplotlib.axis_1">
    <g id="xtick_1">
     <g id="line2d_1">
      <path d="M 79.031239 318.04 
L 79.031239 27.6 
" clip-path="url(#p09bd8bc95d)" style="fill: none; stroke: #b0b0b0; stroke-width: 0.8; stroke-linecap: square"/>
     </g>
     <g id="line2d_2">
      <defs>
       <path id="m6ac29e9b3e" d="M 0 0 
L 0 3.5 
" style="stroke: #000000; stroke-width: 0.8"/>
      </defs>
      <g>
       <use xlink:href="#m6ac29e9b3e" x="79.031239" y="318.04" style="stroke: #000000; stroke-width: 0.8"/>
      </g>
     </g>
     <g id="text_1">
      <!-- 0 -->
      <g transform="translate(75.849989 332.638438) scale(0.1 -0.1)">
       <defs>
        <path id="DejaVuSans-30" d="M 2034 4250 
Q 1547 4250 1301 3770 
Q 1056 3291 1056 2328 
Q 1056 1369 1301 889 
Q 1547 409 2034 409 
Q 2525 409 2770 889 
Q 3016 1369 3016 2328 
Q 3016 3291 2770 3770 
Q 2525 4250 2034 4250 
z
M 2034 4750 
Q 2819 4750 3233 4129 
Q 3647 3509 3647 2328 
Q 3647 1150 3233 529 
Q 2819 -91 2034 -91 
Q 1250 -91 836 529 
Q 422 1150 422 2328 
Q 422 3509 836 4129 
Q 1250 4750 2034 4750 
z
" transform="scale(0.015625)"/>
       </defs>
       <use xlink:href="#DejaVuSans-30"/>
      </g>
     </g>
    </g>
    <g id="xtick_2">
     <g id="line2d_3">
      <path d="M 139.556451 318.04 
L 139.556451 27.6 
" clip-path="url(#p09bd8bc95d)" style="fill: none; stroke: #b0b0b0; stroke-width: 0.8; stroke-linecap: square"/>
     </g>
     <g id="line2d_4">
      <g>
       <use xlink:href="#m6ac29e9b3e" x="139.556451" y="318.04" style="stroke: #000000; stroke-width: 0.8"/>
      </g>
     </g>
     <g id="text_2">
      <!-- 40 -->
      <g transform="translate(133.193951 332.638438) scale(0.1 -0.1)">
       <defs>
        <path id="DejaVuSans-34" d="M 2419 4116 
L 825 1625 
L 2419 1625 
L 2419 4116 
z
M 2253 4666 
L 3047 4666 
L 3047 1625 
L 3713 1625 
L 3713 1100 
L 3047 1100 
L 3047 0 
L 2419 0 
L 2419 1100 
L 313 1100 
L 313 1709 
L 2253 4666 
z
" transform="scale(0.015625)"/>
       </defs>
       <use xlink:href="#DejaVuSans-34"/>
       <use xlink:href="#DejaVuSans-30" transform="translate(63.623047 0)"/>
      </g>
     </g>
    </g>
    <g id="xtick_3">
     <g id="line2d_5">
      <path d="M 200.081662 318.04 
L 200.081662 27.6 
" clip-path="url(#p09bd8bc95d)" style="fill: none; stroke: #b0b0b0; stroke-width: 0.8; stroke-linecap: square"/>
     </g>
     <g id="line2d_6">
      <g>
       <use xlink:href="#m6ac29e9b3e" x="200.081662" y="318.04" style="stroke: #000000; stroke-width: 0.8"/>
      </g>
     </g>
     <g id="text_3">
      <!-- 80 -->
      <g transform="translate(193.719162 332.638438) scale(0.1 -0.1)">
       <defs>
        <path id="DejaVuSans-38" d="M 2034 2216 
Q 1584 2216 1326 1975 
Q 1069 1734 1069 1313 
Q 1069 891 1326 650 
Q 1584 409 2034 409 
Q 2484 409 2743 651 
Q 3003 894 3003 1313 
Q 3003 1734 2745 1975 
Q 2488 2216 2034 2216 
z
M 1403 2484 
Q 997 2584 770 2862 
Q 544 3141 544 3541 
Q 544 4100 942 4425 
Q 1341 4750 2034 4750 
Q 2731 4750 3128 4425 
Q 3525 4100 3525 3541 
Q 3525 3141 3298 2862 
Q 3072 2584 2669 2484 
Q 3125 2378 3379 2068 
Q 3634 1759 3634 1313 
Q 3634 634 3220 271 
Q 2806 -91 2034 -91 
Q 1263 -91 848 271 
Q 434 634 434 1313 
Q 434 1759 690 2068 
Q 947 2378 1403 2484 
z
M 1172 3481 
Q 1172 3119 1398 2916 
Q 1625 2713 2034 2713 
Q 2441 2713 2670 2916 
Q 2900 3119 2900 3481 
Q 2900 3844 2670 4047 
Q 2441 4250 2034 4250 
Q 1625 4250 1398 4047 
Q 1172 3844 1172 3481 
z
" transform="scale(0.015625)"/>
       </defs>
       <use xlink:href="#DejaVuSans-38"/>
       <use xlink:href="#DejaVuSans-30" transform="translate(63.623047 0)"/>
      </g>
     </g>
    </g>
    <g id="xtick_4">
     <g id="line2d_7">
      <path d="M 260.606874 318.04 
L 260.606874 27.6 
" clip-path="url(#p09bd8bc95d)" style="fill: none; stroke: #b0b0b0; stroke-width: 0.8; stroke-linecap: square"/>
     </g>
     <g id="line2d_8">
      <g>
       <use xlink:href="#m6ac29e9b3e" x="260.606874" y="318.04" style="stroke: #000000; stroke-width: 0.8"/>
      </g>
     </g>
     <g id="text_4">
      <!-- 120 -->
      <g transform="translate(251.063124 332.638438) scale(0.1 -0.1)">
       <defs>
        <path id="DejaVuSans-31" d="M 794 531 
L 1825 531 
L 1825 4091 
L 703 3866 
L 703 4441 
L 1819 4666 
L 2450 4666 
L 2450 531 
L 3481 531 
L 3481 0 
L 794 0 
L 794 531 
z
" transform="scale(0.015625)"/>
        <path id="DejaVuSans-32" d="M 1228 531 
L 3431 531 
L 3431 0 
L 469 0 
L 469 531 
Q 828 903 1448 1529 
Q 2069 2156 2228 2338 
Q 2531 2678 2651 2914 
Q 2772 3150 2772 3378 
Q 2772 3750 2511 3984 
Q 2250 4219 1831 4219 
Q 1534 4219 1204 4116 
Q 875 4013 500 3803 
L 500 4441 
Q 881 4594 1212 4672 
Q 1544 4750 1819 4750 
Q 2544 4750 2975 4387 
Q 3406 4025 3406 3419 
Q 3406 3131 3298 2873 
Q 3191 2616 2906 2266 
Q 2828 2175 2409 1742 
Q 1991 1309 1228 531 
z
" transform="scale(0.015625)"/>
       </defs>
       <use xlink:href="#DejaVuSans-31"/>
       <use xlink:href="#DejaVuSans-32" transform="translate(63.623047 0)"/>
       <use xlink:href="#DejaVuSans-30" transform="translate(127.246094 0)"/>
      </g>
     </g>
    </g>
    <g id="xtick_5">
     <g id="line2d_9">
      <path d="M 321.132085 318.04 
L 321.132085 27.6 
" clip-path="url(#p09bd8bc95d)" style="fill: none; stroke: #b0b0b0; stroke-width: 0.8; stroke-linecap: square"/>
     </g>
     <g id="line2d_10">
      <g>
       <use xlink:href="#m6ac29e9b3e" x="321.132085" y="318.04" style="stroke: #000000; stroke-width: 0.8"/>
      </g>
     </g>
     <g id="text_5">
      <!-- 160 -->
      <g transform="translate(311.588335 332.638438) scale(0.1 -0.1)">
       <defs>
        <path id="DejaVuSans-36" d="M 2113 2584 
Q 1688 2584 1439 2293 
Q 1191 2003 1191 1497 
Q 1191 994 1439 701 
Q 1688 409 2113 409 
Q 2538 409 2786 701 
Q 3034 994 3034 1497 
Q 3034 2003 2786 2293 
Q 2538 2584 2113 2584 
z
M 3366 4563 
L 3366 3988 
Q 3128 4100 2886 4159 
Q 2644 4219 2406 4219 
Q 1781 4219 1451 3797 
Q 1122 3375 1075 2522 
Q 1259 2794 1537 2939 
Q 1816 3084 2150 3084 
Q 2853 3084 3261 2657 
Q 3669 2231 3669 1497 
Q 3669 778 3244 343 
Q 2819 -91 2113 -91 
Q 1303 -91 875 529 
Q 447 1150 447 2328 
Q 447 3434 972 4092 
Q 1497 4750 2381 4750 
Q 2619 4750 2861 4703 
Q 3103 4656 3366 4563 
z
" transform="scale(0.015625)"/>
       </defs>
       <use xlink:href="#DejaVuSans-31"/>
       <use xlink:href="#DejaVuSans-36" transform="translate(63.623047 0)"/>
       <use xlink:href="#DejaVuSans-30" transform="translate(127.246094 0)"/>
      </g>
     </g>
    </g>
    <g id="xtick_6">
     <g id="line2d_11">
      <path d="M 381.657296 318.04 
L 381.657296 27.6 
" clip-path="url(#p09bd8bc95d)" style="fill: none; stroke: #b0b0b0; stroke-width: 0.8; stroke-linecap: square"/>
     </g>
     <g id="line2d_12">
      <g>
       <use xlink:href="#m6ac29e9b3e" x="381.657296" y="318.04" style="stroke: #000000; stroke-width: 0.8"/>
      </g>
     </g>
     <g id="text_6">
      <!-- 200 -->
      <g transform="translate(372.113546 332.638438) scale(0.1 -0.1)">
       <use xlink:href="#DejaVuSans-32"/>
       <use xlink:href="#DejaVuSans-30" transform="translate(63.623047 0)"/>
       <use xlink:href="#DejaVuSans-30" transform="translate(127.246094 0)"/>
      </g>
     </g>
    </g>
    <g id="xtick_7">
     <g id="line2d_13">
      <path d="M 442.182508 318.04 
L 442.182508 27.6 
" clip-path="url(#p09bd8bc95d)" style="fill: none; stroke: #b0b0b0; stroke-width: 0.8; stroke-linecap: square"/>
     </g>
     <g id="line2d_14">
      <g>
       <use xlink:href="#m6ac29e9b3e" x="442.182508" y="318.04" style="stroke: #000000; stroke-width: 0.8"/>
      </g>
     </g>
     <g id="text_7">
      <!-- 240 -->
      <g transform="translate(432.638758 332.638438) scale(0.1 -0.1)">
       <use xlink:href="#DejaVuSans-32"/>
       <use xlink:href="#DejaVuSans-34" transform="translate(63.623047 0)"/>
       <use xlink:href="#DejaVuSans-30" transform="translate(127.246094 0)"/>
      </g>
     </g>
    </g>
    <g id="xtick_8">
     <g id="line2d_15">
      <path d="M 502.707719 318.04 
L 502.707719 27.6 
" clip-path="url(#p09bd8bc95d)" style="fill: none; stroke: #b0b0b0; stroke-width: 0.8; stroke-linecap: square"/>
     </g>
     <g id="line2d_16">
      <g>
       <use xlink:href="#m6ac29e9b3e" x="502.707719" y="318.04" style="stroke: #000000; stroke-width: 0.8"/>
      </g>
     </g>
     <g id="text_8">
      <!-- 280 -->
      <g transform="translate(493.163969 332.638438) scale(0.1 -0.1)">
       <use xlink:href="#DejaVuSans-32"/>
       <use xlink:href="#DejaVuSans-38" transform="translate(63.623047 0)"/>
       <use xlink:href="#DejaVuSans-30" transform="translate(127.246094 0)"/>
      </g>
     </g>
    </g>
    <g id="xtick_9">
     <g id="line2d_17">
      <path d="M 563.232931 318.04 
L 563.232931 27.6 
" clip-path="url(#p09bd8bc95d)" style="fill: none; stroke: #b0b0b0; stroke-width: 0.8; stroke-linecap: square"/>
     </g>
     <g id="line2d_18">
      <g>
       <use xlink:href="#m6ac29e9b3e" x="563.232931" y="318.04" style="stroke: #000000; stroke-width: 0.8"/>
      </g>
     </g>
     <g id="text_9">
      <!-- 320 -->
      <g transform="translate(553.689181 332.638438) scale(0.1 -0.1)">
       <defs>
        <path id="DejaVuSans-33" d="M 2597 2516 
Q 3050 2419 3304 2112 
Q 3559 1806 3559 1356 
Q 3559 666 3084 287 
Q 2609 -91 1734 -91 
Q 1441 -91 1130 -33 
Q 819 25 488 141 
L 488 750 
Q 750 597 1062 519 
Q 1375 441 1716 441 
Q 2309 441 2620 675 
Q 2931 909 2931 1356 
Q 2931 1769 2642 2001 
Q 2353 2234 1838 2234 
L 1294 2234 
L 1294 2753 
L 1863 2753 
Q 2328 2753 2575 2939 
Q 2822 3125 2822 3475 
Q 2822 3834 2567 4026 
Q 2313 4219 1838 4219 
Q 1578 4219 1281 4162 
Q 984 4106 628 3988 
L 628 4550 
Q 988 4650 1302 4700 
Q 1616 4750 1894 4750 
Q 2613 4750 3031 4423 
Q 3450 4097 3450 3541 
Q 3450 3153 3228 2886 
Q 3006 2619 2597 2516 
z
" transform="scale(0.015625)"/>
       </defs>
       <use xlink:href="#DejaVuSans-33"/>
       <use xlink:href="#DejaVuSans-32" transform="translate(63.623047 0)"/>
       <use xlink:href="#DejaVuSans-30" transform="translate(127.246094 0)"/>
      </g>
     </g>
    </g>
    <g id="text_10">
     <!-- Epoch -->
     <g transform="translate(295.229236 346.316563) scale(0.1 -0.1)">
      <defs>
       <path id="DejaVuSans-45" d="M 628 4666 
L 3578 4666 
L 3578 4134 
L 1259 4134 
L 1259 2753 
L 3481 2753 
L 3481 2222 
L 1259 2222 
L 1259 531 
L 3634 531 
L 3634 0 
L 628 0 
L 628 4666 
z
" transform="scale(0.015625)"/>
       <path id="DejaVuSans-70" d="M 1159 525 
L 1159 -1331 
L 581 -1331 
L 581 3500 
L 1159 3500 
L 1159 2969 
Q 1341 3281 1617 3432 
Q 1894 3584 2278 3584 
Q 2916 3584 3314 3078 
Q 3713 2572 3713 1747 
Q 3713 922 3314 415 
Q 2916 -91 2278 -91 
Q 1894 -91 1617 61 
Q 1341 213 1159 525 
z
M 3116 1747 
Q 3116 2381 2855 2742 
Q 2594 3103 2138 3103 
Q 1681 3103 1420 2742 
Q 1159 2381 1159 1747 
Q 1159 1113 1420 752 
Q 1681 391 2138 391 
Q 2594 391 2855 752 
Q 3116 1113 3116 1747 
z
" transform="scale(0.015625)"/>
       <path id="DejaVuSans-6f" d="M 1959 3097 
Q 1497 3097 1228 2736 
Q 959 2375 959 1747 
Q 959 1119 1226 758 
Q 1494 397 1959 397 
Q 2419 397 2687 759 
Q 2956 1122 2956 1747 
Q 2956 2369 2687 2733 
Q 2419 3097 1959 3097 
z
M 1959 3584 
Q 2709 3584 3137 3096 
Q 3566 2609 3566 1747 
Q 3566 888 3137 398 
Q 2709 -91 1959 -91 
Q 1206 -91 779 398 
Q 353 888 353 1747 
Q 353 2609 779 3096 
Q 1206 3584 1959 3584 
z
" transform="scale(0.015625)"/>
       <path id="DejaVuSans-63" d="M 3122 3366 
L 3122 2828 
Q 2878 2963 2633 3030 
Q 2388 3097 2138 3097 
Q 1578 3097 1268 2742 
Q 959 2388 959 1747 
Q 959 1106 1268 751 
Q 1578 397 2138 397 
Q 2388 397 2633 464 
Q 2878 531 3122 666 
L 3122 134 
Q 2881 22 2623 -34 
Q 2366 -91 2075 -91 
Q 1284 -91 818 406 
Q 353 903 353 1747 
Q 353 2603 823 3093 
Q 1294 3584 2113 3584 
Q 2378 3584 2631 3529 
Q 2884 3475 3122 3366 
z
" transform="scale(0.015625)"/>
       <path id="DejaVuSans-68" d="M 3513 2113 
L 3513 0 
L 2938 0 
L 2938 2094 
Q 2938 2591 2744 2837 
Q 2550 3084 2163 3084 
Q 1697 3084 1428 2787 
Q 1159 2491 1159 1978 
L 1159 0 
L 581 0 
L 581 4863 
L 1159 4863 
L 1159 2956 
Q 1366 3272 1645 3428 
Q 1925 3584 2291 3584 
Q 2894 3584 3203 3211 
Q 3513 2838 3513 2113 
z
" transform="scale(0.015625)"/>
      </defs>
      <use xlink:href="#DejaVuSans-45"/>
      <use xlink:href="#DejaVuSans-70" transform="translate(63.183594 0)"/>
      <use xlink:href="#DejaVuSans-6f" transform="translate(126.660156 0)"/>
      <use xlink:href="#DejaVuSans-63" transform="translate(187.841797 0)"/>
      <use xlink:href="#DejaVuSans-68" transform="translate(242.822266 0)"/>
     </g>
    </g>
   </g>
   <g id="matplotlib.axis_2">
    <g id="ytick_1">
     <g id="line2d_19">
      <path d="M 55.880346 218.281119 
L 565.2 218.281119 
" clip-path="url(#p09bd8bc95d)" style="fill: none; stroke: #b0b0b0; stroke-width: 0.8; stroke-linecap: square"/>
     </g>
     <g id="line2d_20">
      <defs>
       <path id="md041bb2a85" d="M 0 0 
L -3.5 0 
" style="stroke: #000000; stroke-width: 0.8"/>
      </defs>
      <g>
       <use xlink:href="#md041bb2a85" x="55.880346" y="218.281119" style="stroke: #000000; stroke-width: 0.8"/>
      </g>
     </g>
     <g id="text_11">
      <!-- $\mathdefault{10^{-3}}$ -->
      <g transform="translate(25.380346 222.080337) scale(0.1 -0.1)">
       <defs>
        <path id="DejaVuSans-2212" d="M 678 2272 
L 4684 2272 
L 4684 1741 
L 678 1741 
L 678 2272 
z
" transform="scale(0.015625)"/>
       </defs>
       <use xlink:href="#DejaVuSans-31" transform="translate(0 0.765625)"/>
       <use xlink:href="#DejaVuSans-30" transform="translate(63.623047 0.765625)"/>
       <use xlink:href="#DejaVuSans-2212" transform="translate(128.203125 39.046875) scale(0.7)"/>
       <use xlink:href="#DejaVuSans-33" transform="translate(186.855469 39.046875) scale(0.7)"/>
      </g>
     </g>
    </g>
    <g id="ytick_2">
     <g id="line2d_21">
      <path d="M 55.880346 93.93612 
L 565.2 93.93612 
" clip-path="url(#p09bd8bc95d)" style="fill: none; stroke: #b0b0b0; stroke-width: 0.8; stroke-linecap: square"/>
     </g>
     <g id="line2d_22">
      <g>
       <use xlink:href="#md041bb2a85" x="55.880346" y="93.93612" style="stroke: #000000; stroke-width: 0.8"/>
      </g>
     </g>
     <g id="text_12">
      <!-- $\mathdefault{10^{-2}}$ -->
      <g transform="translate(25.380346 97.735339) scale(0.1 -0.1)">
       <use xlink:href="#DejaVuSans-31" transform="translate(0 0.765625)"/>
       <use xlink:href="#DejaVuSans-30" transform="translate(63.623047 0.765625)"/>
       <use xlink:href="#DejaVuSans-2212" transform="translate(128.203125 39.046875) scale(0.7)"/>
       <use xlink:href="#DejaVuSans-32" transform="translate(186.855469 39.046875) scale(0.7)"/>
      </g>
     </g>
    </g>
    <g id="ytick_3">
     <g id="line2d_23">
      <defs>
       <path id="md6799cd8df" d="M 0 0 
L -2 0 
" style="stroke: #000000; stroke-width: 0.6"/>
      </defs>
      <g>
       <use xlink:href="#md6799cd8df" x="55.880346" y="305.194542" style="stroke: #000000; stroke-width: 0.6"/>
      </g>
     </g>
    </g>
    <g id="ytick_4">
     <g id="line2d_24">
      <g>
       <use xlink:href="#md6799cd8df" x="55.880346" y="283.298475" style="stroke: #000000; stroke-width: 0.6"/>
      </g>
     </g>
    </g>
    <g id="ytick_5">
     <g id="line2d_25">
      <g>
       <use xlink:href="#md6799cd8df" x="55.880346" y="267.762968" style="stroke: #000000; stroke-width: 0.6"/>
      </g>
     </g>
    </g>
    <g id="ytick_6">
     <g id="line2d_26">
      <g>
       <use xlink:href="#md6799cd8df" x="55.880346" y="255.712693" style="stroke: #000000; stroke-width: 0.6"/>
      </g>
     </g>
    </g>
    <g id="ytick_7">
     <g id="line2d_27">
      <g>
       <use xlink:href="#md6799cd8df" x="55.880346" y="245.866901" style="stroke: #000000; stroke-width: 0.6"/>
      </g>
     </g>
    </g>
    <g id="ytick_8">
     <g id="line2d_28">
      <g>
       <use xlink:href="#md6799cd8df" x="55.880346" y="237.542402" style="stroke: #000000; stroke-width: 0.6"/>
      </g>
     </g>
    </g>
    <g id="ytick_9">
     <g id="line2d_29">
      <g>
       <use xlink:href="#md6799cd8df" x="55.880346" y="230.331394" style="stroke: #000000; stroke-width: 0.6"/>
      </g>
     </g>
    </g>
    <g id="ytick_10">
     <g id="line2d_30">
      <g>
       <use xlink:href="#md6799cd8df" x="55.880346" y="223.970834" style="stroke: #000000; stroke-width: 0.6"/>
      </g>
     </g>
    </g>
    <g id="ytick_11">
     <g id="line2d_31">
      <g>
       <use xlink:href="#md6799cd8df" x="55.880346" y="180.849544" style="stroke: #000000; stroke-width: 0.6"/>
      </g>
     </g>
    </g>
    <g id="ytick_12">
     <g id="line2d_32">
      <g>
       <use xlink:href="#md6799cd8df" x="55.880346" y="158.953477" style="stroke: #000000; stroke-width: 0.6"/>
      </g>
     </g>
    </g>
    <g id="ytick_13">
     <g id="line2d_33">
      <g>
       <use xlink:href="#md6799cd8df" x="55.880346" y="143.41797" style="stroke: #000000; stroke-width: 0.6"/>
      </g>
     </g>
    </g>
    <g id="ytick_14">
     <g id="line2d_34">
      <g>
       <use xlink:href="#md6799cd8df" x="55.880346" y="131.367695" style="stroke: #000000; stroke-width: 0.6"/>
      </g>
     </g>
    </g>
    <g id="ytick_15">
     <g id="line2d_35">
      <g>
       <use xlink:href="#md6799cd8df" x="55.880346" y="121.521903" style="stroke: #000000; stroke-width: 0.6"/>
      </g>
     </g>
    </g>
    <g id="ytick_16">
     <g id="line2d_36">
      <g>
       <use xlink:href="#md6799cd8df" x="55.880346" y="113.197404" style="stroke: #000000; stroke-width: 0.6"/>
      </g>
     </g>
    </g>
    <g id="ytick_17">
     <g id="line2d_37">
      <g>
       <use xlink:href="#md6799cd8df" x="55.880346" y="105.986396" style="stroke: #000000; stroke-width: 0.6"/>
      </g>
     </g>
    </g>
    <g id="ytick_18">
     <g id="line2d_38">
      <g>
       <use xlink:href="#md6799cd8df" x="55.880346" y="99.625835" style="stroke: #000000; stroke-width: 0.6"/>
      </g>
     </g>
    </g>
    <g id="ytick_19">
     <g id="line2d_39">
      <g>
       <use xlink:href="#md6799cd8df" x="55.880346" y="56.504546" style="stroke: #000000; stroke-width: 0.6"/>
      </g>
     </g>
    </g>
    <g id="ytick_20">
     <g id="line2d_40">
      <g>
       <use xlink:href="#md6799cd8df" x="55.880346" y="34.608479" style="stroke: #000000; stroke-width: 0.6"/>
      </g>
     </g>
    </g>
    <g id="text_13">
     <!-- MSE Loss -->
     <g transform="translate(19.300659 196.023906) rotate(-90) scale(0.1 -0.1)">
      <defs>
       <path id="DejaVuSans-4d" d="M 628 4666 
L 1569 4666 
L 2759 1491 
L 3956 4666 
L 4897 4666 
L 4897 0 
L 4281 0 
L 4281 4097 
L 3078 897 
L 2444 897 
L 1241 4097 
L 1241 0 
L 628 0 
L 628 4666 
z
" transform="scale(0.015625)"/>
       <path id="DejaVuSans-53" d="M 3425 4513 
L 3425 3897 
Q 3066 4069 2747 4153 
Q 2428 4238 2131 4238 
Q 1616 4238 1336 4038 
Q 1056 3838 1056 3469 
Q 1056 3159 1242 3001 
Q 1428 2844 1947 2747 
L 2328 2669 
Q 3034 2534 3370 2195 
Q 3706 1856 3706 1288 
Q 3706 609 3251 259 
Q 2797 -91 1919 -91 
Q 1588 -91 1214 -16 
Q 841 59 441 206 
L 441 856 
Q 825 641 1194 531 
Q 1563 422 1919 422 
Q 2459 422 2753 634 
Q 3047 847 3047 1241 
Q 3047 1584 2836 1778 
Q 2625 1972 2144 2069 
L 1759 2144 
Q 1053 2284 737 2584 
Q 422 2884 422 3419 
Q 422 4038 858 4394 
Q 1294 4750 2059 4750 
Q 2388 4750 2728 4690 
Q 3069 4631 3425 4513 
z
" transform="scale(0.015625)"/>
       <path id="DejaVuSans-20" transform="scale(0.015625)"/>
       <path id="DejaVuSans-4c" d="M 628 4666 
L 1259 4666 
L 1259 531 
L 3531 531 
L 3531 0 
L 628 0 
L 628 4666 
z
" transform="scale(0.015625)"/>
       <path id="DejaVuSans-73" d="M 2834 3397 
L 2834 2853 
Q 2591 2978 2328 3040 
Q 2066 3103 1784 3103 
Q 1356 3103 1142 2972 
Q 928 2841 928 2578 
Q 928 2378 1081 2264 
Q 1234 2150 1697 2047 
L 1894 2003 
Q 2506 1872 2764 1633 
Q 3022 1394 3022 966 
Q 3022 478 2636 193 
Q 2250 -91 1575 -91 
Q 1294 -91 989 -36 
Q 684 19 347 128 
L 347 722 
Q 666 556 975 473 
Q 1284 391 1588 391 
Q 1994 391 2212 530 
Q 2431 669 2431 922 
Q 2431 1156 2273 1281 
Q 2116 1406 1581 1522 
L 1381 1569 
Q 847 1681 609 1914 
Q 372 2147 372 2553 
Q 372 3047 722 3315 
Q 1072 3584 1716 3584 
Q 2034 3584 2315 3537 
Q 2597 3491 2834 3397 
z
" transform="scale(0.015625)"/>
      </defs>
      <use xlink:href="#DejaVuSans-4d"/>
      <use xlink:href="#DejaVuSans-53" transform="translate(86.279297 0)"/>
      <use xlink:href="#DejaVuSans-45" transform="translate(149.755859 0)"/>
      <use xlink:href="#DejaVuSans-20" transform="translate(212.939453 0)"/>
      <use xlink:href="#DejaVuSans-4c" transform="translate(244.726562 0)"/>
      <use xlink:href="#DejaVuSans-6f" transform="translate(298.689453 0)"/>
      <use xlink:href="#DejaVuSans-73" transform="translate(359.871094 0)"/>
      <use xlink:href="#DejaVuSans-73" transform="translate(411.970703 0)"/>
     </g>
    </g>
   </g>
   <g id="line2d_41">
    <path d="M 79.031239 40.801818 
L 80.54437 134.097778 
L 82.0575 173.987753 
L 83.57063 201.746091 
L 85.083761 221.599634 
L 86.596891 233.761218 
L 88.110021 243.57621 
L 89.623151 250.275334 
L 91.136282 255.222475 
L 92.649412 259.300973 
L 94.162542 265.364232 
L 95.675673 263.612459 
L 97.188803 271.802105 
L 98.701933 271.665981 
L 100.215063 273.036352 
L 101.728194 276.486708 
L 103.241324 277.08047 
L 104.754454 279.389693 
L 106.267585 282.125161 
L 107.780715 282.770672 
L 109.293845 283.608915 
L 110.806975 284.825429 
L 113.833236 285.561381 
L 115.346366 285.49974 
L 116.859497 286.145279 
L 118.372627 287.414356 
L 119.885757 285.692781 
L 121.398887 286.201968 
L 122.912018 286.274199 
L 124.425148 287.392702 
L 125.938278 286.820975 
L 127.451409 287.586651 
L 128.964539 287.15768 
L 130.477669 287.93076 
L 131.990799 287.505759 
L 133.50393 287.771667 
L 135.01706 289.251402 
L 136.53019 289.582938 
L 138.043321 289.624392 
L 139.556451 290.721845 
L 141.069581 290.775103 
L 142.582711 290.995701 
L 144.095842 290.11969 
L 145.608972 291.852503 
L 147.122102 290.645414 
L 148.635233 290.106209 
L 150.148363 290.381879 
L 151.661493 290.835308 
L 153.174623 291.158051 
L 154.687754 291.09658 
L 156.200884 291.315019 
L 157.714014 291.05144 
L 159.227145 289.909872 
L 160.740275 292.206982 
L 162.253405 292.643736 
L 163.766535 291.832648 
L 165.279666 292.951734 
L 166.792796 293.056845 
L 168.305926 293.012554 
L 169.819057 292.265581 
L 171.332187 292.441087 
L 172.845317 292.351456 
L 174.358447 292.463726 
L 175.871578 293.254548 
L 177.384708 293.344733 
L 178.897838 291.168272 
L 180.410969 292.540575 
L 181.924099 291.690773 
L 183.437229 292.540593 
L 184.950359 292.72791 
L 186.46349 293.060412 
L 187.97662 293.117853 
L 189.48975 291.95275 
L 191.002881 293.047372 
L 192.516011 293.533638 
L 194.029141 292.726759 
L 195.542271 291.681577 
L 197.055402 294.99979 
L 198.568532 292.672821 
L 200.081662 293.284351 
L 201.594793 293.035234 
L 203.107923 293.830348 
L 204.621053 294.377782 
L 206.134183 293.244742 
L 207.647314 293.482861 
L 209.160444 293.086215 
L 210.673574 294.094161 
L 212.186705 294.132212 
L 213.699835 293.504038 
L 215.212965 294.10703 
L 216.726095 292.973339 
L 218.239226 294.072808 
L 219.752356 294.488234 
L 221.265486 293.783085 
L 222.778617 294.076705 
L 224.291747 293.973095 
L 225.804877 294.943777 
L 227.318007 294.953352 
L 228.831138 294.47296 
L 230.344268 295.176765 
L 231.857398 294.802827 
L 233.370529 295.233155 
L 234.883659 294.092691 
L 236.396789 293.693064 
L 237.909919 294.556359 
L 239.42305 294.134647 
L 240.93618 294.362066 
L 242.44931 293.152981 
L 243.962441 293.960458 
L 245.475571 293.388646 
L 246.988701 295.465926 
L 248.501831 294.983278 
L 250.014962 294.194334 
L 251.528092 294.291216 
L 253.041222 294.614511 
L 254.554353 293.772095 
L 257.580613 294.533863 
L 259.093743 293.810141 
L 260.606874 294.261454 
L 262.120004 294.092471 
L 263.633134 293.374694 
L 266.659395 294.810028 
L 268.172525 294.506252 
L 269.685655 295.555863 
L 271.198786 293.879497 
L 272.711916 295.361983 
L 274.225046 294.909904 
L 275.738177 294.679076 
L 277.251307 295.299149 
L 278.764437 294.931304 
L 281.790698 295.270643 
L 283.303828 294.308274 
L 284.816958 293.737204 
L 286.330089 294.682655 
L 287.843219 294.642487 
L 289.356349 295.089569 
L 290.869479 294.807766 
L 292.38261 294.379831 
L 293.89574 294.164776 
L 295.40887 294.979672 
L 296.922001 294.666445 
L 299.948261 295.26496 
L 302.974522 294.827802 
L 304.487652 294.856677 
L 306.000782 294.644547 
L 307.513913 295.049159 
L 309.027043 293.788728 
L 310.540173 294.391105 
L 312.053303 295.361138 
L 313.566434 295.430779 
L 315.079564 295.045426 
L 316.592694 295.05428 
L 318.105824 294.429665 
L 319.618955 294.40258 
L 321.132085 294.845286 
L 322.645215 295.165874 
L 324.158346 296.226518 
L 325.671476 294.536662 
L 327.184606 294.843158 
L 328.697736 294.872717 
L 331.723997 295.384917 
L 333.237127 294.248543 
L 334.750258 294.986267 
L 336.263388 294.616603 
L 337.776518 295.19247 
L 339.289648 294.492771 
L 340.802779 294.300721 
L 342.315909 295.003734 
L 345.34217 295.141921 
L 346.8553 294.745008 
L 348.36843 295.443319 
L 349.88156 294.355243 
L 351.394691 293.894269 
L 352.907821 294.589301 
L 354.420951 295.554471 
L 355.934082 295.477909 
L 357.447212 294.880577 
L 360.473472 294.269706 
L 361.986603 294.92441 
L 365.012863 295.9004 
L 366.525994 295.736763 
L 368.039124 295.203717 
L 369.552254 294.418854 
L 371.065384 294.547262 
L 372.578515 295.379878 
L 375.604775 294.410037 
L 377.117906 295.0049 
L 380.144166 294.806713 
L 381.657296 295.126783 
L 383.170427 294.699639 
L 384.683557 294.870061 
L 386.196687 296.114241 
L 387.709818 294.68002 
L 389.222948 294.454458 
L 390.736078 294.342015 
L 392.249208 295.042218 
L 393.762339 294.681469 
L 395.275469 295.786032 
L 396.788599 294.53005 
L 399.81486 294.914957 
L 401.32799 294.954669 
L 402.84112 295.6646 
L 404.354251 295.958285 
L 405.867381 294.64374 
L 407.380511 295.111288 
L 408.893642 294.823935 
L 410.406772 294.283756 
L 411.919902 295.367242 
L 413.433032 294.402602 
L 414.946163 295.612034 
L 416.459293 295.492683 
L 417.972423 295.969679 
L 419.485554 294.907189 
L 420.998684 295.014934 
L 424.024944 294.69133 
L 425.538075 295.953307 
L 427.051205 294.574191 
L 428.564335 295.228312 
L 430.077466 294.874831 
L 431.590596 295.091707 
L 433.103726 294.754271 
L 434.616856 295.784149 
L 436.129987 295.423783 
L 437.643117 294.524166 
L 439.156247 295.543476 
L 440.669378 295.356931 
L 442.182508 294.803092 
L 445.208768 294.927109 
L 448.235029 294.731172 
L 449.748159 295.545693 
L 451.26129 295.514488 
L 452.77442 295.613922 
L 454.28755 295.122064 
L 455.80068 295.194854 
L 457.313811 294.648572 
L 458.826941 295.467131 
L 460.340071 294.275666 
L 461.853202 295.418319 
L 463.366332 294.506022 
L 464.879462 295.704237 
L 466.392592 295.157935 
L 467.905723 295.198304 
L 469.418853 295.965032 
L 470.931983 294.065544 
L 472.445114 294.705122 
L 475.471374 295.053574 
L 476.984504 294.989174 
L 478.497635 295.56246 
L 480.010765 295.072964 
L 481.523895 295.008924 
L 483.037026 294.219574 
L 484.550156 295.405047 
L 487.576416 295.24809 
L 489.089547 294.835046 
L 490.602677 294.82294 
L 492.115807 295.248882 
L 493.628938 294.853809 
L 495.142068 294.930595 
L 496.655198 295.333963 
L 498.168328 295.441111 
L 499.681459 293.984297 
L 501.194589 294.503153 
L 502.707719 294.679225 
L 504.22085 295.454789 
L 505.73398 295.216932 
L 507.24711 295.334467 
L 508.76024 294.928272 
L 510.273371 295.161653 
L 511.786501 295.594694 
L 513.299631 295.396154 
L 514.812762 294.261298 
L 516.325892 294.841056 
L 517.839022 294.913005 
L 519.352152 294.729612 
L 522.378413 295.392859 
L 523.891543 294.965639 
L 525.404674 295.343889 
L 526.917804 294.203626 
L 528.430934 294.69255 
L 529.944064 294.769027 
L 531.457195 295.018965 
L 532.970325 295.652362 
L 534.483455 294.728409 
L 535.996586 295.683852 
L 537.509716 294.858666 
L 539.022846 295.689962 
L 540.535976 295.229677 
L 542.049107 295.298929 
L 542.049107 295.298929 
" clip-path="url(#p09bd8bc95d)" style="fill: none; stroke: #1f77b4; stroke-width: 2; stroke-linecap: square"/>
   </g>
   <g id="line2d_42">
    <path d="M 79.031239 159.617427 
L 80.54437 231.225495 
L 83.57063 258.78247 
L 85.083761 265.136171 
L 86.596891 266.157429 
L 88.110021 280.138409 
L 89.623151 282.530868 
L 91.136282 283.298928 
L 92.649412 278.551886 
L 94.162542 268.726024 
L 95.675673 285.624626 
L 97.188803 283.611992 
L 98.701933 278.746815 
L 100.215063 282.176589 
L 101.728194 293.719222 
L 103.241324 286.489334 
L 104.754454 292.231115 
L 106.267585 267.297195 
L 107.780715 292.553223 
L 109.293845 287.863992 
L 110.806975 223.341315 
L 112.320106 255.474485 
L 113.833236 295.278351 
L 115.346366 289.418269 
L 116.859497 299.495527 
L 118.372627 299.371286 
L 119.885757 268.427129 
L 121.398887 294.497422 
L 122.912018 292.181527 
L 124.425148 277.371969 
L 125.938278 236.942819 
L 127.451409 283.480596 
L 128.964539 270.57774 
L 130.477669 293.240096 
L 131.990799 296.391843 
L 133.50393 287.800058 
L 135.01706 292.527404 
L 136.53019 301.209963 
L 138.043321 293.876432 
L 139.556451 294.629635 
L 142.582711 302.570096 
L 144.095842 302.428079 
L 145.608972 299.412104 
L 147.122102 289.46442 
L 148.635233 284.231933 
L 150.148363 295.990032 
L 151.661493 300.478346 
L 153.174623 298.09745 
L 154.687754 301.949263 
L 156.200884 287.555137 
L 157.714014 294.824146 
L 159.227145 295.799584 
L 160.740275 286.502113 
L 162.253405 294.390463 
L 163.766535 303.400246 
L 165.279666 303.61931 
L 166.792796 302.897372 
L 168.305926 292.767369 
L 169.819057 302.710656 
L 171.332187 300.820907 
L 172.845317 291.846669 
L 174.358447 300.619829 
L 175.871578 298.900485 
L 177.384708 294.790144 
L 178.897838 303.873926 
L 180.410969 301.257244 
L 181.924099 302.873312 
L 183.437229 302.671846 
L 184.950359 298.733699 
L 186.46349 299.248315 
L 187.97662 300.276754 
L 189.48975 302.590311 
L 191.002881 300.187966 
L 192.516011 300.017758 
L 194.029141 299.228479 
L 195.542271 299.87088 
L 197.055402 304.435093 
L 198.568532 302.592973 
L 200.081662 303.534424 
L 201.594793 294.75219 
L 203.107923 304.100095 
L 204.621053 302.006303 
L 206.134183 303.60557 
L 207.647314 297.560559 
L 209.160444 300.320428 
L 210.673574 303.680806 
L 212.186705 298.78671 
L 213.699835 301.623448 
L 215.212965 304.153433 
L 218.239226 304.363837 
L 219.752356 303.964018 
L 221.265486 304.160352 
L 222.778617 304.045875 
L 224.291747 304.400003 
L 225.804877 298.939178 
L 227.318007 303.042639 
L 228.831138 304.507265 
L 230.344268 297.744662 
L 231.857398 304.347171 
L 233.370529 303.053812 
L 234.883659 303.798275 
L 236.396789 303.755037 
L 237.909919 304.063602 
L 239.42305 304.567435 
L 240.93618 304.220642 
L 242.44931 299.781988 
L 243.962441 301.114381 
L 245.475571 303.78656 
L 246.988701 302.549193 
L 248.501831 301.556003 
L 250.014962 297.828371 
L 251.528092 304.272048 
L 254.554353 304.622567 
L 256.067483 303.573726 
L 257.580613 300.668533 
L 259.093743 304.61976 
L 260.606874 302.368687 
L 262.120004 304.245244 
L 263.633134 304.326682 
L 265.146265 304.13348 
L 266.659395 298.557723 
L 268.172525 304.211358 
L 269.685655 303.992546 
L 271.198786 303.943179 
L 272.711916 304.044974 
L 274.225046 304.64402 
L 275.738177 304.525459 
L 277.251307 301.58425 
L 278.764437 304.188776 
L 280.277567 304.609459 
L 281.790698 303.860216 
L 283.303828 304.646151 
L 284.816958 302.719802 
L 286.330089 304.663416 
L 289.356349 304.514579 
L 290.869479 304.166084 
L 292.38261 304.411542 
L 293.89574 303.234016 
L 295.40887 304.632703 
L 296.922001 304.687979 
L 298.435131 303.74052 
L 299.948261 304.279214 
L 301.461391 302.813067 
L 302.974522 304.594069 
L 304.487652 304.499445 
L 306.000782 303.989779 
L 307.513913 304.418482 
L 309.027043 301.980534 
L 310.540173 304.165117 
L 312.053303 304.73693 
L 313.566434 304.560456 
L 315.079564 304.817798 
L 316.592694 304.24707 
L 318.105824 304.305169 
L 319.618955 304.70507 
L 321.132085 302.672146 
L 322.645215 304.476599 
L 324.158346 304.593152 
L 325.671476 303.212419 
L 328.697736 304.362041 
L 330.210867 304.228715 
L 331.723997 304.553226 
L 334.750258 304.696376 
L 336.263388 303.050538 
L 337.776518 304.701364 
L 339.289648 304.772875 
L 342.315909 303.965358 
L 343.829039 304.361767 
L 345.34217 304.337525 
L 346.8553 304.62642 
L 348.36843 302.181948 
L 349.88156 304.186809 
L 351.394691 304.634146 
L 352.907821 304.38962 
L 354.420951 303.316048 
L 355.934082 304.380403 
L 357.447212 304.741197 
L 358.960342 304.498137 
L 361.986603 304.714611 
L 363.499733 304.534487 
L 365.012863 304.735076 
L 368.039124 304.302004 
L 369.552254 303.949302 
L 371.065384 303.769034 
L 372.578515 304.760518 
L 374.091645 304.342707 
L 378.631036 304.654203 
L 380.144166 304.548143 
L 381.657296 304.589165 
L 383.170427 303.838585 
L 384.683557 304.757685 
L 387.709818 304.789443 
L 389.222948 304.334864 
L 390.736078 304.838182 
L 392.249208 304.647555 
L 393.762339 304.74069 
L 395.275469 304.591438 
L 396.788599 304.825556 
L 398.30173 304.710674 
L 399.81486 304.054965 
L 401.32799 304.827667 
L 402.84112 304.771916 
L 404.354251 304.492095 
L 405.867381 304.656257 
L 407.380511 303.962558 
L 408.893642 304.19833 
L 410.406772 304.630767 
L 411.919902 304.447387 
L 413.433032 302.615276 
L 414.946163 304.717364 
L 416.459293 304.746134 
L 417.972423 304.247267 
L 419.485554 304.722104 
L 420.998684 304.720013 
L 422.511814 303.62994 
L 424.024944 304.598025 
L 425.538075 304.689007 
L 427.051205 304.520453 
L 428.564335 304.782252 
L 431.590596 304.325363 
L 433.103726 302.167115 
L 434.616856 304.332594 
L 436.129987 304.765211 
L 437.643117 303.517448 
L 439.156247 304.528599 
L 440.669378 304.427271 
L 442.182508 304.76771 
L 443.695638 304.322054 
L 445.208768 302.07253 
L 446.721899 303.188907 
L 448.235029 304.660844 
L 449.748159 304.792817 
L 451.26129 304.794681 
L 452.77442 304.358006 
L 454.28755 304.784467 
L 455.80068 304.772782 
L 457.313811 304.431745 
L 458.826941 304.812246 
L 460.340071 304.81344 
L 461.853202 303.756636 
L 463.366332 304.740932 
L 464.879462 303.735219 
L 466.392592 304.705829 
L 467.905723 304.668229 
L 469.418853 304.224319 
L 470.931983 304.761528 
L 472.445114 304.531541 
L 473.958244 304.423548 
L 475.471374 304.455979 
L 476.984504 304.730272 
L 478.497635 304.628356 
L 480.010765 304.070986 
L 481.523895 304.47238 
L 483.037026 304.702936 
L 487.576416 304.80989 
L 489.089547 304.103075 
L 490.602677 304.239971 
L 492.115807 303.546961 
L 493.628938 304.687594 
L 495.142068 303.657719 
L 496.655198 304.506264 
L 498.168328 304.371154 
L 499.681459 304.71264 
L 501.194589 303.200118 
L 502.707719 304.08602 
L 504.22085 304.512642 
L 507.24711 304.581364 
L 508.76024 304.376738 
L 510.273371 304.657887 
L 513.299631 304.689571 
L 516.325892 304.771078 
L 520.865283 304.62439 
L 522.378413 304.714463 
L 523.891543 304.659323 
L 525.404674 304.808837 
L 526.917804 303.175563 
L 528.430934 304.759637 
L 529.944064 304.538388 
L 531.457195 304.833736 
L 534.483455 304.062313 
L 535.996586 304.489139 
L 539.022846 304.678759 
L 540.535976 304.419528 
L 542.049107 304.7678 
L 542.049107 304.7678 
" clip-path="url(#p09bd8bc95d)" style="fill: none; stroke: #ff7f0e; stroke-width: 2; stroke-linecap: square"/>
   </g>
   <g id="patch_3">
    <path d="M 55.880346 318.04 
L 55.880346 27.6 
" style="fill: none; stroke: #000000; stroke-width: 0.8; stroke-linejoin: miter; stroke-linecap: square"/>
   </g>
   <g id="patch_4">
    <path d="M 565.2 318.04 
L 565.2 27.6 
" style="fill: none; stroke: #000000; stroke-width: 0.8; stroke-linejoin: miter; stroke-linecap: square"/>
   </g>
   <g id="patch_5">
    <path d="M 55.880346 318.04 
L 565.2 318.04 
" style="fill: none; stroke: #000000; stroke-width: 0.8; stroke-linejoin: miter; stroke-linecap: square"/>
   </g>
   <g id="patch_6">
    <path d="M 55.880346 27.6 
L 565.2 27.6 
" style="fill: none; stroke: #000000; stroke-width: 0.8; stroke-linejoin: miter; stroke-linecap: square"/>
   </g>
   <g id="text_14">
    <!-- Evolución del Loss por Época -->
    <g transform="translate(223.467048 21.6) scale(0.12 -0.12)">
     <defs>
      <path id="DejaVuSans-76" d="M 191 3500 
L 800 3500 
L 1894 563 
L 2988 3500 
L 3597 3500 
L 2284 0 
L 1503 0 
L 191 3500 
z
" transform="scale(0.015625)"/>
      <path id="DejaVuSans-6c" d="M 603 4863 
L 1178 4863 
L 1178 0 
L 603 0 
L 603 4863 
z
" transform="scale(0.015625)"/>
      <path id="DejaVuSans-75" d="M 544 1381 
L 544 3500 
L 1119 3500 
L 1119 1403 
Q 1119 906 1312 657 
Q 1506 409 1894 409 
Q 2359 409 2629 706 
Q 2900 1003 2900 1516 
L 2900 3500 
L 3475 3500 
L 3475 0 
L 2900 0 
L 2900 538 
Q 2691 219 2414 64 
Q 2138 -91 1772 -91 
Q 1169 -91 856 284 
Q 544 659 544 1381 
z
M 1991 3584 
L 1991 3584 
z
" transform="scale(0.015625)"/>
      <path id="DejaVuSans-69" d="M 603 3500 
L 1178 3500 
L 1178 0 
L 603 0 
L 603 3500 
z
M 603 4863 
L 1178 4863 
L 1178 4134 
L 603 4134 
L 603 4863 
z
" transform="scale(0.015625)"/>
      <path id="DejaVuSans-f3" d="M 1959 3097 
Q 1497 3097 1228 2736 
Q 959 2375 959 1747 
Q 959 1119 1226 758 
Q 1494 397 1959 397 
Q 2419 397 2687 759 
Q 2956 1122 2956 1747 
Q 2956 2369 2687 2733 
Q 2419 3097 1959 3097 
z
M 1959 3584 
Q 2709 3584 3137 3096 
Q 3566 2609 3566 1747 
Q 3566 888 3137 398 
Q 2709 -91 1959 -91 
Q 1206 -91 779 398 
Q 353 888 353 1747 
Q 353 2609 779 3096 
Q 1206 3584 1959 3584 
z
M 2394 5119 
L 3016 5119 
L 1997 3944 
L 1519 3944 
L 2394 5119 
z
" transform="scale(0.015625)"/>
      <path id="DejaVuSans-6e" d="M 3513 2113 
L 3513 0 
L 2938 0 
L 2938 2094 
Q 2938 2591 2744 2837 
Q 2550 3084 2163 3084 
Q 1697 3084 1428 2787 
Q 1159 2491 1159 1978 
L 1159 0 
L 581 0 
L 581 3500 
L 1159 3500 
L 1159 2956 
Q 1366 3272 1645 3428 
Q 1925 3584 2291 3584 
Q 2894 3584 3203 3211 
Q 3513 2838 3513 2113 
z
" transform="scale(0.015625)"/>
      <path id="DejaVuSans-64" d="M 2906 2969 
L 2906 4863 
L 3481 4863 
L 3481 0 
L 2906 0 
L 2906 525 
Q 2725 213 2448 61 
Q 2172 -91 1784 -91 
Q 1150 -91 751 415 
Q 353 922 353 1747 
Q 353 2572 751 3078 
Q 1150 3584 1784 3584 
Q 2172 3584 2448 3432 
Q 2725 3281 2906 2969 
z
M 947 1747 
Q 947 1113 1208 752 
Q 1469 391 1925 391 
Q 2381 391 2643 752 
Q 2906 1113 2906 1747 
Q 2906 2381 2643 2742 
Q 2381 3103 1925 3103 
Q 1469 3103 1208 2742 
Q 947 2381 947 1747 
z
" transform="scale(0.015625)"/>
      <path id="DejaVuSans-65" d="M 3597 1894 
L 3597 1613 
L 953 1613 
Q 991 1019 1311 708 
Q 1631 397 2203 397 
Q 2534 397 2845 478 
Q 3156 559 3463 722 
L 3463 178 
Q 3153 47 2828 -22 
Q 2503 -91 2169 -91 
Q 1331 -91 842 396 
Q 353 884 353 1716 
Q 353 2575 817 3079 
Q 1281 3584 2069 3584 
Q 2775 3584 3186 3129 
Q 3597 2675 3597 1894 
z
M 3022 2063 
Q 3016 2534 2758 2815 
Q 2500 3097 2075 3097 
Q 1594 3097 1305 2825 
Q 1016 2553 972 2059 
L 3022 2063 
z
" transform="scale(0.015625)"/>
      <path id="DejaVuSans-72" d="M 2631 2963 
Q 2534 3019 2420 3045 
Q 2306 3072 2169 3072 
Q 1681 3072 1420 2755 
Q 1159 2438 1159 1844 
L 1159 0 
L 581 0 
L 581 3500 
L 1159 3500 
L 1159 2956 
Q 1341 3275 1631 3429 
Q 1922 3584 2338 3584 
Q 2397 3584 2469 3576 
Q 2541 3569 2628 3553 
L 2631 2963 
z
" transform="scale(0.015625)"/>
      <path id="DejaVuSans-c9" d="M 628 4666 
L 3578 4666 
L 3578 4134 
L 1259 4134 
L 1259 2753 
L 3481 2753 
L 3481 2222 
L 1259 2222 
L 1259 531 
L 3634 531 
L 3634 0 
L 628 0 
L 628 4666 
z
M 2266 5935 
L 2844 5935 
L 2131 5110 
L 1653 5110 
L 2266 5935 
z
" transform="scale(0.015625)"/>
      <path id="DejaVuSans-61" d="M 2194 1759 
Q 1497 1759 1228 1600 
Q 959 1441 959 1056 
Q 959 750 1161 570 
Q 1363 391 1709 391 
Q 2188 391 2477 730 
Q 2766 1069 2766 1631 
L 2766 1759 
L 2194 1759 
z
M 3341 1997 
L 3341 0 
L 2766 0 
L 2766 531 
Q 2569 213 2275 61 
Q 1981 -91 1556 -91 
Q 1019 -91 701 211 
Q 384 513 384 1019 
Q 384 1609 779 1909 
Q 1175 2209 1959 2209 
L 2766 2209 
L 2766 2266 
Q 2766 2663 2505 2880 
Q 2244 3097 1772 3097 
Q 1472 3097 1187 3025 
Q 903 2953 641 2809 
L 641 3341 
Q 956 3463 1253 3523 
Q 1550 3584 1831 3584 
Q 2591 3584 2966 3190 
Q 3341 2797 3341 1997 
z
" transform="scale(0.015625)"/>
     </defs>
     <use xlink:href="#DejaVuSans-45"/>
     <use xlink:href="#DejaVuSans-76" transform="translate(63.183594 0)"/>
     <use xlink:href="#DejaVuSans-6f" transform="translate(122.363281 0)"/>
     <use xlink:href="#DejaVuSans-6c" transform="translate(183.544922 0)"/>
     <use xlink:href="#DejaVuSans-75" transform="translate(211.328125 0)"/>
     <use xlink:href="#DejaVuSans-63" transform="translate(274.707031 0)"/>
     <use xlink:href="#DejaVuSans-69" transform="translate(329.6875 0)"/>
     <use xlink:href="#DejaVuSans-f3" transform="translate(357.470703 0)"/>
     <use xlink:href="#DejaVuSans-6e" transform="translate(418.652344 0)"/>
     <use xlink:href="#DejaVuSans-20" transform="translate(482.03125 0)"/>
     <use xlink:href="#DejaVuSans-64" transform="translate(513.818359 0)"/>
     <use xlink:href="#DejaVuSans-65" transform="translate(577.294922 0)"/>
     <use xlink:href="#DejaVuSans-6c" transform="translate(638.818359 0)"/>
     <use xlink:href="#DejaVuSans-20" transform="translate(666.601562 0)"/>
     <use xlink:href="#DejaVuSans-4c" transform="translate(698.388672 0)"/>
     <use xlink:href="#DejaVuSans-6f" transform="translate(752.351562 0)"/>
     <use xlink:href="#DejaVuSans-73" transform="translate(813.533203 0)"/>
     <use xlink:href="#DejaVuSans-73" transform="translate(865.632812 0)"/>
     <use xlink:href="#DejaVuSans-20" transform="translate(917.732422 0)"/>
     <use xlink:href="#DejaVuSans-70" transform="translate(949.519531 0)"/>
     <use xlink:href="#DejaVuSans-6f" transform="translate(1012.996094 0)"/>
     <use xlink:href="#DejaVuSans-72" transform="translate(1074.177734 0)"/>
     <use xlink:href="#DejaVuSans-20" transform="translate(1115.291016 0)"/>
     <use xlink:href="#DejaVuSans-c9" transform="translate(1147.078125 0)"/>
     <use xlink:href="#DejaVuSans-70" transform="translate(1210.261719 0)"/>
     <use xlink:href="#DejaVuSans-6f" transform="translate(1273.738281 0)"/>
     <use xlink:href="#DejaVuSans-63" transform="translate(1334.919922 0)"/>
     <use xlink:href="#DejaVuSans-61" transform="translate(1389.900391 0)"/>
    </g>
   </g>
   <g id="legend_1">
    <g id="patch_7">
     <path d="M 453.839062 64.95625 
L 558.2 64.95625 
Q 560.2 64.95625 560.2 62.95625 
L 560.2 34.6 
Q 560.2 32.6 558.2 32.6 
L 453.839062 32.6 
Q 451.839062 32.6 451.839062 34.6 
L 451.839062 62.95625 
Q 451.839062 64.95625 453.839062 64.95625 
z
" style="fill: #ffffff; opacity: 0.8; stroke: #cccccc; stroke-linejoin: miter"/>
    </g>
    <g id="line2d_43">
     <path d="M 455.839062 40.698438 
L 465.839062 40.698438 
L 475.839062 40.698438 
" style="fill: none; stroke: #1f77b4; stroke-width: 2; stroke-linecap: square"/>
    </g>
    <g id="text_15">
     <!-- Train Loss -->
     <g transform="translate(483.839062 44.198438) scale(0.1 -0.1)">
      <defs>
       <path id="DejaVuSans-54" d="M -19 4666 
L 3928 4666 
L 3928 4134 
L 2272 4134 
L 2272 0 
L 1638 0 
L 1638 4134 
L -19 4134 
L -19 4666 
z
" transform="scale(0.015625)"/>
      </defs>
      <use xlink:href="#DejaVuSans-54"/>
      <use xlink:href="#DejaVuSans-72" transform="translate(46.333984 0)"/>
      <use xlink:href="#DejaVuSans-61" transform="translate(87.447266 0)"/>
      <use xlink:href="#DejaVuSans-69" transform="translate(148.726562 0)"/>
      <use xlink:href="#DejaVuSans-6e" transform="translate(176.509766 0)"/>
      <use xlink:href="#DejaVuSans-20" transform="translate(239.888672 0)"/>
      <use xlink:href="#DejaVuSans-4c" transform="translate(271.675781 0)"/>
      <use xlink:href="#DejaVuSans-6f" transform="translate(325.638672 0)"/>
      <use xlink:href="#DejaVuSans-73" transform="translate(386.820312 0)"/>
      <use xlink:href="#DejaVuSans-73" transform="translate(438.919922 0)"/>
     </g>
    </g>
    <g id="line2d_44">
     <path d="M 455.839062 55.376563 
L 465.839062 55.376563 
L 475.839062 55.376563 
" style="fill: none; stroke: #ff7f0e; stroke-width: 2; stroke-linecap: square"/>
    </g>
    <g id="text_16">
     <!-- Val Loss (MSE) -->
     <g transform="translate(483.839062 58.876563) scale(0.1 -0.1)">
      <defs>
       <path id="DejaVuSans-56" d="M 1831 0 
L 50 4666 
L 709 4666 
L 2188 738 
L 3669 4666 
L 4325 4666 
L 2547 0 
L 1831 0 
z
" transform="scale(0.015625)"/>
       <path id="DejaVuSans-28" d="M 1984 4856 
Q 1566 4138 1362 3434 
Q 1159 2731 1159 2009 
Q 1159 1288 1364 580 
Q 1569 -128 1984 -844 
L 1484 -844 
Q 1016 -109 783 600 
Q 550 1309 550 2009 
Q 550 2706 781 3412 
Q 1013 4119 1484 4856 
L 1984 4856 
z
" transform="scale(0.015625)"/>
       <path id="DejaVuSans-29" d="M 513 4856 
L 1013 4856 
Q 1481 4119 1714 3412 
Q 1947 2706 1947 2009 
Q 1947 1309 1714 600 
Q 1481 -109 1013 -844 
L 513 -844 
Q 928 -128 1133 580 
Q 1338 1288 1338 2009 
Q 1338 2731 1133 3434 
Q 928 4138 513 4856 
z
" transform="scale(0.015625)"/>
      </defs>
      <use xlink:href="#DejaVuSans-56"/>
      <use xlink:href="#DejaVuSans-61" transform="translate(60.658203 0)"/>
      <use xlink:href="#DejaVuSans-6c" transform="translate(121.9375 0)"/>
      <use xlink:href="#DejaVuSans-20" transform="translate(149.720703 0)"/>
      <use xlink:href="#DejaVuSans-4c" transform="translate(181.507812 0)"/>
      <use xlink:href="#DejaVuSans-6f" transform="translate(235.470703 0)"/>
      <use xlink:href="#DejaVuSans-73" transform="translate(296.652344 0)"/>
      <use xlink:href="#DejaVuSans-73" transform="translate(348.751953 0)"/>
      <use xlink:href="#DejaVuSans-20" transform="translate(400.851562 0)"/>
      <use xlink:href="#DejaVuSans-28" transform="translate(432.638672 0)"/>
      <use xlink:href="#DejaVuSans-4d" transform="translate(471.652344 0)"/>
      <use xlink:href="#DejaVuSans-53" transform="translate(557.931641 0)"/>
      <use xlink:href="#DejaVuSans-45" transform="translate(621.408203 0)"/>
      <use xlink:href="#DejaVuSans-29" transform="translate(684.591797 0)"/>
     </g>
    </g>
   </g>
  </g>
 </g>
 <defs>
  <clipPath id="p09bd8bc95d">
   <rect x="55.880346" y="27.6" width="509.319654" height="290.44"/>
  </clipPath>
 </defs>
</svg>
