<?xml version="1.0" encoding="utf-8" standalone="no"?>
<!DOCTYPE svg PUBLIC "-//W3C//DTD SVG 1.1//EN"
  "http://www.w3.org/Graphics/SVG/1.1/DTD/svg11.dtd">
<svg xmlns:xlink="http://www.w3.org/1999/xlink" width="576pt" height="360pt" viewBox="0 0 576 360" xmlns="http://www.w3.org/2000/svg" version="1.1">
 <metadata>
  <rdf:RDF xmlns:dc="http://purl.org/dc/elements/1.1/" xmlns:cc="http://creativecommons.org/ns#" xmlns:rdf="http://www.w3.org/1999/02/22-rdf-syntax-ns#">
   <cc:Work>
    <dc:type rdf:resource="http://purl.org/dc/dcmitype/StillImage"/>
    <dc:date>2025-04-19T19:46:10.443693</dc:date>
    <dc:format>image/svg+xml</dc:format>
    <dc:creator>
     <cc:Agent>
      <dc:title>Matplotlib v3.10.1, https://matplotlib.org/</dc:title>
     </cc:Agent>
    </dc:creator>
   </cc:Work>
  </rdf:RDF>
 </metadata>
 <defs>
  <style type="text/css">*{stroke-linejoin: round; stroke-linecap: butt}</style>
 </defs>
 <g id="figure_1">
  <g id="patch_1">
   <path d="M 0 360 
L 576 360 
L 576 0 
L 0 0 
z
" style="fill: #ffffff"/>
  </g>
  <g id="axes_1">
   <g id="patch_2">
    <path d="M 56.015346 318.04 
L 565.2 318.04 
L 565.2 27.6 
L 56.015346 27.6 
z
" style="fill: #ffffff"/>
   </g>
   <g id="matplotlib.axis_1">
    <g id="xtick_1">
     <g id="line2d_1">
      <path d="M 79.160103 318.04 
L 79.160103 27.6 
" clip-path="url(#p32f0bbe14c)" style="fill: none; stroke: #b0b0b0; stroke-width: 0.8; stroke-linecap: square"/>
     </g>
     <g id="line2d_2">
      <defs>
       <path id="m82eb6b224e" d="M 0 0 
L 0 3.5 
" style="stroke: #000000; stroke-width: 0.8"/>
      </defs>
      <g>
       <use xlink:href="#m82eb6b224e" x="79.160103" y="318.04" style="stroke: #000000; stroke-width: 0.8"/>
      </g>
     </g>
     <g id="text_1">
      <!-- 0 -->
      <g transform="translate(75.978853 332.638438) scale(0.1 -0.1)">
       <defs>
        <path id="DejaVuSans-30" d="M 2034 4250 
Q 1547 4250 1301 3770 
Q 1056 3291 1056 2328 
Q 1056 1369 1301 889 
Q 1547 409 2034 409 
Q 2525 409 2770 889 
Q 3016 1369 3016 2328 
Q 3016 3291 2770 3770 
Q 2525 4250 2034 4250 
z
M 2034 4750 
Q 2819 4750 3233 4129 
Q 3647 3509 3647 2328 
Q 3647 1150 3233 529 
Q 2819 -91 2034 -91 
Q 1250 -91 836 529 
Q 422 1150 422 2328 
Q 422 3509 836 4129 
Q 1250 4750 2034 4750 
z
" transform="scale(0.015625)"/>
       </defs>
       <use xlink:href="#DejaVuSans-30"/>
      </g>
     </g>
    </g>
    <g id="xtick_2">
     <g id="line2d_3">
      <path d="M 135.519089 318.04 
L 135.519089 27.6 
" clip-path="url(#p32f0bbe14c)" style="fill: none; stroke: #b0b0b0; stroke-width: 0.8; stroke-linecap: square"/>
     </g>
     <g id="line2d_4">
      <g>
       <use xlink:href="#m82eb6b224e" x="135.519089" y="318.04" style="stroke: #000000; stroke-width: 0.8"/>
      </g>
     </g>
     <g id="text_2">
      <!-- 150 -->
      <g transform="translate(125.975339 332.638438) scale(0.1 -0.1)">
       <defs>
        <path id="DejaVuSans-31" d="M 794 531 
L 1825 531 
L 1825 4091 
L 703 3866 
L 703 4441 
L 1819 4666 
L 2450 4666 
L 2450 531 
L 3481 531 
L 3481 0 
L 794 0 
L 794 531 
z
" transform="scale(0.015625)"/>
        <path id="DejaVuSans-35" d="M 691 4666 
L 3169 4666 
L 3169 4134 
L 1269 4134 
L 1269 2991 
Q 1406 3038 1543 3061 
Q 1681 3084 1819 3084 
Q 2600 3084 3056 2656 
Q 3513 2228 3513 1497 
Q 3513 744 3044 326 
Q 2575 -91 1722 -91 
Q 1428 -91 1123 -41 
Q 819 9 494 109 
L 494 744 
Q 775 591 1075 516 
Q 1375 441 1709 441 
Q 2250 441 2565 725 
Q 2881 1009 2881 1497 
Q 2881 1984 2565 2268 
Q 2250 2553 1709 2553 
Q 1456 2553 1204 2497 
Q 953 2441 691 2322 
L 691 4666 
z
" transform="scale(0.015625)"/>
       </defs>
       <use xlink:href="#DejaVuSans-31"/>
       <use xlink:href="#DejaVuSans-35" transform="translate(63.623047 0)"/>
       <use xlink:href="#DejaVuSans-30" transform="translate(127.246094 0)"/>
      </g>
     </g>
    </g>
    <g id="xtick_3">
     <g id="line2d_5">
      <path d="M 191.878076 318.04 
L 191.878076 27.6 
" clip-path="url(#p32f0bbe14c)" style="fill: none; stroke: #b0b0b0; stroke-width: 0.8; stroke-linecap: square"/>
     </g>
     <g id="line2d_6">
      <g>
       <use xlink:href="#m82eb6b224e" x="191.878076" y="318.04" style="stroke: #000000; stroke-width: 0.8"/>
      </g>
     </g>
     <g id="text_3">
      <!-- 300 -->
      <g transform="translate(182.334326 332.638438) scale(0.1 -0.1)">
       <defs>
        <path id="DejaVuSans-33" d="M 2597 2516 
Q 3050 2419 3304 2112 
Q 3559 1806 3559 1356 
Q 3559 666 3084 287 
Q 2609 -91 1734 -91 
Q 1441 -91 1130 -33 
Q 819 25 488 141 
L 488 750 
Q 750 597 1062 519 
Q 1375 441 1716 441 
Q 2309 441 2620 675 
Q 2931 909 2931 1356 
Q 2931 1769 2642 2001 
Q 2353 2234 1838 2234 
L 1294 2234 
L 1294 2753 
L 1863 2753 
Q 2328 2753 2575 2939 
Q 2822 3125 2822 3475 
Q 2822 3834 2567 4026 
Q 2313 4219 1838 4219 
Q 1578 4219 1281 4162 
Q 984 4106 628 3988 
L 628 4550 
Q 988 4650 1302 4700 
Q 1616 4750 1894 4750 
Q 2613 4750 3031 4423 
Q 3450 4097 3450 3541 
Q 3450 3153 3228 2886 
Q 3006 2619 2597 2516 
z
" transform="scale(0.015625)"/>
       </defs>
       <use xlink:href="#DejaVuSans-33"/>
       <use xlink:href="#DejaVuSans-30" transform="translate(63.623047 0)"/>
       <use xlink:href="#DejaVuSans-30" transform="translate(127.246094 0)"/>
      </g>
     </g>
    </g>
    <g id="xtick_4">
     <g id="line2d_7">
      <path d="M 248.237062 318.04 
L 248.237062 27.6 
" clip-path="url(#p32f0bbe14c)" style="fill: none; stroke: #b0b0b0; stroke-width: 0.8; stroke-linecap: square"/>
     </g>
     <g id="line2d_8">
      <g>
       <use xlink:href="#m82eb6b224e" x="248.237062" y="318.04" style="stroke: #000000; stroke-width: 0.8"/>
      </g>
     </g>
     <g id="text_4">
      <!-- 450 -->
      <g transform="translate(238.693312 332.638438) scale(0.1 -0.1)">
       <defs>
        <path id="DejaVuSans-34" d="M 2419 4116 
L 825 1625 
L 2419 1625 
L 2419 4116 
z
M 2253 4666 
L 3047 4666 
L 3047 1625 
L 3713 1625 
L 3713 1100 
L 3047 1100 
L 3047 0 
L 2419 0 
L 2419 1100 
L 313 1100 
L 313 1709 
L 2253 4666 
z
" transform="scale(0.015625)"/>
       </defs>
       <use xlink:href="#DejaVuSans-34"/>
       <use xlink:href="#DejaVuSans-35" transform="translate(63.623047 0)"/>
       <use xlink:href="#DejaVuSans-30" transform="translate(127.246094 0)"/>
      </g>
     </g>
    </g>
    <g id="xtick_5">
     <g id="line2d_9">
      <path d="M 304.596048 318.04 
L 304.596048 27.6 
" clip-path="url(#p32f0bbe14c)" style="fill: none; stroke: #b0b0b0; stroke-width: 0.8; stroke-linecap: square"/>
     </g>
     <g id="line2d_10">
      <g>
       <use xlink:href="#m82eb6b224e" x="304.596048" y="318.04" style="stroke: #000000; stroke-width: 0.8"/>
      </g>
     </g>
     <g id="text_5">
      <!-- 600 -->
      <g transform="translate(295.052298 332.638438) scale(0.1 -0.1)">
       <defs>
        <path id="DejaVuSans-36" d="M 2113 2584 
Q 1688 2584 1439 2293 
Q 1191 2003 1191 1497 
Q 1191 994 1439 701 
Q 1688 409 2113 409 
Q 2538 409 2786 701 
Q 3034 994 3034 1497 
Q 3034 2003 2786 2293 
Q 2538 2584 2113 2584 
z
M 3366 4563 
L 3366 3988 
Q 3128 4100 2886 4159 
Q 2644 4219 2406 4219 
Q 1781 4219 1451 3797 
Q 1122 3375 1075 2522 
Q 1259 2794 1537 2939 
Q 1816 3084 2150 3084 
Q 2853 3084 3261 2657 
Q 3669 2231 3669 1497 
Q 3669 778 3244 343 
Q 2819 -91 2113 -91 
Q 1303 -91 875 529 
Q 447 1150 447 2328 
Q 447 3434 972 4092 
Q 1497 4750 2381 4750 
Q 2619 4750 2861 4703 
Q 3103 4656 3366 4563 
z
" transform="scale(0.015625)"/>
       </defs>
       <use xlink:href="#DejaVuSans-36"/>
       <use xlink:href="#DejaVuSans-30" transform="translate(63.623047 0)"/>
       <use xlink:href="#DejaVuSans-30" transform="translate(127.246094 0)"/>
      </g>
     </g>
    </g>
    <g id="xtick_6">
     <g id="line2d_11">
      <path d="M 360.955034 318.04 
L 360.955034 27.6 
" clip-path="url(#p32f0bbe14c)" style="fill: none; stroke: #b0b0b0; stroke-width: 0.8; stroke-linecap: square"/>
     </g>
     <g id="line2d_12">
      <g>
       <use xlink:href="#m82eb6b224e" x="360.955034" y="318.04" style="stroke: #000000; stroke-width: 0.8"/>
      </g>
     </g>
     <g id="text_6">
      <!-- 750 -->
      <g transform="translate(351.411284 332.638438) scale(0.1 -0.1)">
       <defs>
        <path id="DejaVuSans-37" d="M 525 4666 
L 3525 4666 
L 3525 4397 
L 1831 0 
L 1172 0 
L 2766 4134 
L 525 4134 
L 525 4666 
z
" transform="scale(0.015625)"/>
       </defs>
       <use xlink:href="#DejaVuSans-37"/>
       <use xlink:href="#DejaVuSans-35" transform="translate(63.623047 0)"/>
       <use xlink:href="#DejaVuSans-30" transform="translate(127.246094 0)"/>
      </g>
     </g>
    </g>
    <g id="xtick_7">
     <g id="line2d_13">
      <path d="M 417.31402 318.04 
L 417.31402 27.6 
" clip-path="url(#p32f0bbe14c)" style="fill: none; stroke: #b0b0b0; stroke-width: 0.8; stroke-linecap: square"/>
     </g>
     <g id="line2d_14">
      <g>
       <use xlink:href="#m82eb6b224e" x="417.31402" y="318.04" style="stroke: #000000; stroke-width: 0.8"/>
      </g>
     </g>
     <g id="text_7">
      <!-- 900 -->
      <g transform="translate(407.77027 332.638438) scale(0.1 -0.1)">
       <defs>
        <path id="DejaVuSans-39" d="M 703 97 
L 703 672 
Q 941 559 1184 500 
Q 1428 441 1663 441 
Q 2288 441 2617 861 
Q 2947 1281 2994 2138 
Q 2813 1869 2534 1725 
Q 2256 1581 1919 1581 
Q 1219 1581 811 2004 
Q 403 2428 403 3163 
Q 403 3881 828 4315 
Q 1253 4750 1959 4750 
Q 2769 4750 3195 4129 
Q 3622 3509 3622 2328 
Q 3622 1225 3098 567 
Q 2575 -91 1691 -91 
Q 1453 -91 1209 -44 
Q 966 3 703 97 
z
M 1959 2075 
Q 2384 2075 2632 2365 
Q 2881 2656 2881 3163 
Q 2881 3666 2632 3958 
Q 2384 4250 1959 4250 
Q 1534 4250 1286 3958 
Q 1038 3666 1038 3163 
Q 1038 2656 1286 2365 
Q 1534 2075 1959 2075 
z
" transform="scale(0.015625)"/>
       </defs>
       <use xlink:href="#DejaVuSans-39"/>
       <use xlink:href="#DejaVuSans-30" transform="translate(63.623047 0)"/>
       <use xlink:href="#DejaVuSans-30" transform="translate(127.246094 0)"/>
      </g>
     </g>
    </g>
    <g id="xtick_8">
     <g id="line2d_15">
      <path d="M 473.673006 318.04 
L 473.673006 27.6 
" clip-path="url(#p32f0bbe14c)" style="fill: none; stroke: #b0b0b0; stroke-width: 0.8; stroke-linecap: square"/>
     </g>
     <g id="line2d_16">
      <g>
       <use xlink:href="#m82eb6b224e" x="473.673006" y="318.04" style="stroke: #000000; stroke-width: 0.8"/>
      </g>
     </g>
     <g id="text_8">
      <!-- 1050 -->
      <g transform="translate(460.948006 332.638438) scale(0.1 -0.1)">
       <use xlink:href="#DejaVuSans-31"/>
       <use xlink:href="#DejaVuSans-30" transform="translate(63.623047 0)"/>
       <use xlink:href="#DejaVuSans-35" transform="translate(127.246094 0)"/>
       <use xlink:href="#DejaVuSans-30" transform="translate(190.869141 0)"/>
      </g>
     </g>
    </g>
    <g id="xtick_9">
     <g id="line2d_17">
      <path d="M 530.031993 318.04 
L 530.031993 27.6 
" clip-path="url(#p32f0bbe14c)" style="fill: none; stroke: #b0b0b0; stroke-width: 0.8; stroke-linecap: square"/>
     </g>
     <g id="line2d_18">
      <g>
       <use xlink:href="#m82eb6b224e" x="530.031993" y="318.04" style="stroke: #000000; stroke-width: 0.8"/>
      </g>
     </g>
     <g id="text_9">
      <!-- 1200 -->
      <g transform="translate(517.306993 332.638438) scale(0.1 -0.1)">
       <defs>
        <path id="DejaVuSans-32" d="M 1228 531 
L 3431 531 
L 3431 0 
L 469 0 
L 469 531 
Q 828 903 1448 1529 
Q 2069 2156 2228 2338 
Q 2531 2678 2651 2914 
Q 2772 3150 2772 3378 
Q 2772 3750 2511 3984 
Q 2250 4219 1831 4219 
Q 1534 4219 1204 4116 
Q 875 4013 500 3803 
L 500 4441 
Q 881 4594 1212 4672 
Q 1544 4750 1819 4750 
Q 2544 4750 2975 4387 
Q 3406 4025 3406 3419 
Q 3406 3131 3298 2873 
Q 3191 2616 2906 2266 
Q 2828 2175 2409 1742 
Q 1991 1309 1228 531 
z
" transform="scale(0.015625)"/>
       </defs>
       <use xlink:href="#DejaVuSans-31"/>
       <use xlink:href="#DejaVuSans-32" transform="translate(63.623047 0)"/>
       <use xlink:href="#DejaVuSans-30" transform="translate(127.246094 0)"/>
       <use xlink:href="#DejaVuSans-30" transform="translate(190.869141 0)"/>
      </g>
     </g>
    </g>
    <g id="text_10">
     <!-- Epoch -->
     <g transform="translate(295.296736 346.316563) scale(0.1 -0.1)">
      <defs>
       <path id="DejaVuSans-45" d="M 628 4666 
L 3578 4666 
L 3578 4134 
L 1259 4134 
L 1259 2753 
L 3481 2753 
L 3481 2222 
L 1259 2222 
L 1259 531 
L 3634 531 
L 3634 0 
L 628 0 
L 628 4666 
z
" transform="scale(0.015625)"/>
       <path id="DejaVuSans-70" d="M 1159 525 
L 1159 -1331 
L 581 -1331 
L 581 3500 
L 1159 3500 
L 1159 2969 
Q 1341 3281 1617 3432 
Q 1894 3584 2278 3584 
Q 2916 3584 3314 3078 
Q 3713 2572 3713 1747 
Q 3713 922 3314 415 
Q 2916 -91 2278 -91 
Q 1894 -91 1617 61 
Q 1341 213 1159 525 
z
M 3116 1747 
Q 3116 2381 2855 2742 
Q 2594 3103 2138 3103 
Q 1681 3103 1420 2742 
Q 1159 2381 1159 1747 
Q 1159 1113 1420 752 
Q 1681 391 2138 391 
Q 2594 391 2855 752 
Q 3116 1113 3116 1747 
z
" transform="scale(0.015625)"/>
       <path id="DejaVuSans-6f" d="M 1959 3097 
Q 1497 3097 1228 2736 
Q 959 2375 959 1747 
Q 959 1119 1226 758 
Q 1494 397 1959 397 
Q 2419 397 2687 759 
Q 2956 1122 2956 1747 
Q 2956 2369 2687 2733 
Q 2419 3097 1959 3097 
z
M 1959 3584 
Q 2709 3584 3137 3096 
Q 3566 2609 3566 1747 
Q 3566 888 3137 398 
Q 2709 -91 1959 -91 
Q 1206 -91 779 398 
Q 353 888 353 1747 
Q 353 2609 779 3096 
Q 1206 3584 1959 3584 
z
" transform="scale(0.015625)"/>
       <path id="DejaVuSans-63" d="M 3122 3366 
L 3122 2828 
Q 2878 2963 2633 3030 
Q 2388 3097 2138 3097 
Q 1578 3097 1268 2742 
Q 959 2388 959 1747 
Q 959 1106 1268 751 
Q 1578 397 2138 397 
Q 2388 397 2633 464 
Q 2878 531 3122 666 
L 3122 134 
Q 2881 22 2623 -34 
Q 2366 -91 2075 -91 
Q 1284 -91 818 406 
Q 353 903 353 1747 
Q 353 2603 823 3093 
Q 1294 3584 2113 3584 
Q 2378 3584 2631 3529 
Q 2884 3475 3122 3366 
z
" transform="scale(0.015625)"/>
       <path id="DejaVuSans-68" d="M 3513 2113 
L 3513 0 
L 2938 0 
L 2938 2094 
Q 2938 2591 2744 2837 
Q 2550 3084 2163 3084 
Q 1697 3084 1428 2787 
Q 1159 2491 1159 1978 
L 1159 0 
L 581 0 
L 581 4863 
L 1159 4863 
L 1159 2956 
Q 1366 3272 1645 3428 
Q 1925 3584 2291 3584 
Q 2894 3584 3203 3211 
Q 3513 2838 3513 2113 
z
" transform="scale(0.015625)"/>
      </defs>
      <use xlink:href="#DejaVuSans-45"/>
      <use xlink:href="#DejaVuSans-70" transform="translate(63.183594 0)"/>
      <use xlink:href="#DejaVuSans-6f" transform="translate(126.660156 0)"/>
      <use xlink:href="#DejaVuSans-63" transform="translate(187.841797 0)"/>
      <use xlink:href="#DejaVuSans-68" transform="translate(242.822266 0)"/>
     </g>
    </g>
   </g>
   <g id="matplotlib.axis_2">
    <g id="ytick_1">
     <g id="line2d_19">
      <path d="M 56.015346 243.973108 
L 565.2 243.973108 
" clip-path="url(#p32f0bbe14c)" style="fill: none; stroke: #b0b0b0; stroke-width: 0.8; stroke-linecap: square"/>
     </g>
     <g id="line2d_20">
      <defs>
       <path id="m8871963877" d="M 0 0 
L -3.5 0 
" style="stroke: #000000; stroke-width: 0.8"/>
      </defs>
      <g>
       <use xlink:href="#m8871963877" x="56.015346" y="243.973108" style="stroke: #000000; stroke-width: 0.8"/>
      </g>
     </g>
     <g id="text_11">
      <!-- $\mathdefault{10^{-4}}$ -->
      <g transform="translate(25.515346 247.772326) scale(0.1 -0.1)">
       <defs>
        <path id="DejaVuSans-2212" d="M 678 2272 
L 4684 2272 
L 4684 1741 
L 678 1741 
L 678 2272 
z
" transform="scale(0.015625)"/>
       </defs>
       <use xlink:href="#DejaVuSans-31" transform="translate(0 0.684375)"/>
       <use xlink:href="#DejaVuSans-30" transform="translate(63.623047 0.684375)"/>
       <use xlink:href="#DejaVuSans-2212" transform="translate(128.203125 38.965625) scale(0.7)"/>
       <use xlink:href="#DejaVuSans-34" transform="translate(186.855469 38.965625) scale(0.7)"/>
      </g>
     </g>
    </g>
    <g id="ytick_2">
     <g id="line2d_21">
      <path d="M 56.015346 165.97472 
L 565.2 165.97472 
" clip-path="url(#p32f0bbe14c)" style="fill: none; stroke: #b0b0b0; stroke-width: 0.8; stroke-linecap: square"/>
     </g>
     <g id="line2d_22">
      <g>
       <use xlink:href="#m8871963877" x="56.015346" y="165.97472" style="stroke: #000000; stroke-width: 0.8"/>
      </g>
     </g>
     <g id="text_12">
      <!-- $\mathdefault{10^{-3}}$ -->
      <g transform="translate(25.515346 169.773939) scale(0.1 -0.1)">
       <use xlink:href="#DejaVuSans-31" transform="translate(0 0.765625)"/>
       <use xlink:href="#DejaVuSans-30" transform="translate(63.623047 0.765625)"/>
       <use xlink:href="#DejaVuSans-2212" transform="translate(128.203125 39.046875) scale(0.7)"/>
       <use xlink:href="#DejaVuSans-33" transform="translate(186.855469 39.046875) scale(0.7)"/>
      </g>
     </g>
    </g>
    <g id="ytick_3">
     <g id="line2d_23">
      <path d="M 56.015346 87.976333 
L 565.2 87.976333 
" clip-path="url(#p32f0bbe14c)" style="fill: none; stroke: #b0b0b0; stroke-width: 0.8; stroke-linecap: square"/>
     </g>
     <g id="line2d_24">
      <g>
       <use xlink:href="#m8871963877" x="56.015346" y="87.976333" style="stroke: #000000; stroke-width: 0.8"/>
      </g>
     </g>
     <g id="text_13">
      <!-- $\mathdefault{10^{-2}}$ -->
      <g transform="translate(25.515346 91.775551) scale(0.1 -0.1)">
       <use xlink:href="#DejaVuSans-31" transform="translate(0 0.765625)"/>
       <use xlink:href="#DejaVuSans-30" transform="translate(63.623047 0.765625)"/>
       <use xlink:href="#DejaVuSans-2212" transform="translate(128.203125 39.046875) scale(0.7)"/>
       <use xlink:href="#DejaVuSans-32" transform="translate(186.855469 39.046875) scale(0.7)"/>
      </g>
     </g>
    </g>
    <g id="ytick_4">
     <g id="line2d_25">
      <defs>
       <path id="m4e96aab152" d="M 0 0 
L -2 0 
" style="stroke: #000000; stroke-width: 0.6"/>
      </defs>
      <g>
       <use xlink:href="#m4e96aab152" x="56.015346" y="298.491641" style="stroke: #000000; stroke-width: 0.6"/>
      </g>
     </g>
    </g>
    <g id="ytick_5">
     <g id="line2d_26">
      <g>
       <use xlink:href="#m4e96aab152" x="56.015346" y="284.756806" style="stroke: #000000; stroke-width: 0.6"/>
      </g>
     </g>
    </g>
    <g id="ytick_6">
     <g id="line2d_27">
      <g>
       <use xlink:href="#m4e96aab152" x="56.015346" y="275.011786" style="stroke: #000000; stroke-width: 0.6"/>
      </g>
     </g>
    </g>
    <g id="ytick_7">
     <g id="line2d_28">
      <g>
       <use xlink:href="#m4e96aab152" x="56.015346" y="267.452962" style="stroke: #000000; stroke-width: 0.6"/>
      </g>
     </g>
    </g>
    <g id="ytick_8">
     <g id="line2d_29">
      <g>
       <use xlink:href="#m4e96aab152" x="56.015346" y="261.276952" style="stroke: #000000; stroke-width: 0.6"/>
      </g>
     </g>
    </g>
    <g id="ytick_9">
     <g id="line2d_30">
      <g>
       <use xlink:href="#m4e96aab152" x="56.015346" y="256.055211" style="stroke: #000000; stroke-width: 0.6"/>
      </g>
     </g>
    </g>
    <g id="ytick_10">
     <g id="line2d_31">
      <g>
       <use xlink:href="#m4e96aab152" x="56.015346" y="251.531932" style="stroke: #000000; stroke-width: 0.6"/>
      </g>
     </g>
    </g>
    <g id="ytick_11">
     <g id="line2d_32">
      <g>
       <use xlink:href="#m4e96aab152" x="56.015346" y="247.542118" style="stroke: #000000; stroke-width: 0.6"/>
      </g>
     </g>
    </g>
    <g id="ytick_12">
     <g id="line2d_33">
      <g>
       <use xlink:href="#m4e96aab152" x="56.015346" y="220.493253" style="stroke: #000000; stroke-width: 0.6"/>
      </g>
     </g>
    </g>
    <g id="ytick_13">
     <g id="line2d_34">
      <g>
       <use xlink:href="#m4e96aab152" x="56.015346" y="206.758419" style="stroke: #000000; stroke-width: 0.6"/>
      </g>
     </g>
    </g>
    <g id="ytick_14">
     <g id="line2d_35">
      <g>
       <use xlink:href="#m4e96aab152" x="56.015346" y="197.013399" style="stroke: #000000; stroke-width: 0.6"/>
      </g>
     </g>
    </g>
    <g id="ytick_15">
     <g id="line2d_36">
      <g>
       <use xlink:href="#m4e96aab152" x="56.015346" y="189.454574" style="stroke: #000000; stroke-width: 0.6"/>
      </g>
     </g>
    </g>
    <g id="ytick_16">
     <g id="line2d_37">
      <g>
       <use xlink:href="#m4e96aab152" x="56.015346" y="183.278565" style="stroke: #000000; stroke-width: 0.6"/>
      </g>
     </g>
    </g>
    <g id="ytick_17">
     <g id="line2d_38">
      <g>
       <use xlink:href="#m4e96aab152" x="56.015346" y="178.056823" style="stroke: #000000; stroke-width: 0.6"/>
      </g>
     </g>
    </g>
    <g id="ytick_18">
     <g id="line2d_39">
      <g>
       <use xlink:href="#m4e96aab152" x="56.015346" y="173.533545" style="stroke: #000000; stroke-width: 0.6"/>
      </g>
     </g>
    </g>
    <g id="ytick_19">
     <g id="line2d_40">
      <g>
       <use xlink:href="#m4e96aab152" x="56.015346" y="169.543731" style="stroke: #000000; stroke-width: 0.6"/>
      </g>
     </g>
    </g>
    <g id="ytick_20">
     <g id="line2d_41">
      <g>
       <use xlink:href="#m4e96aab152" x="56.015346" y="142.494866" style="stroke: #000000; stroke-width: 0.6"/>
      </g>
     </g>
    </g>
    <g id="ytick_21">
     <g id="line2d_42">
      <g>
       <use xlink:href="#m4e96aab152" x="56.015346" y="128.760032" style="stroke: #000000; stroke-width: 0.6"/>
      </g>
     </g>
    </g>
    <g id="ytick_22">
     <g id="line2d_43">
      <g>
       <use xlink:href="#m4e96aab152" x="56.015346" y="119.015012" style="stroke: #000000; stroke-width: 0.6"/>
      </g>
     </g>
    </g>
    <g id="ytick_23">
     <g id="line2d_44">
      <g>
       <use xlink:href="#m4e96aab152" x="56.015346" y="111.456187" style="stroke: #000000; stroke-width: 0.6"/>
      </g>
     </g>
    </g>
    <g id="ytick_24">
     <g id="line2d_45">
      <g>
       <use xlink:href="#m4e96aab152" x="56.015346" y="105.280177" style="stroke: #000000; stroke-width: 0.6"/>
      </g>
     </g>
    </g>
    <g id="ytick_25">
     <g id="line2d_46">
      <g>
       <use xlink:href="#m4e96aab152" x="56.015346" y="100.058436" style="stroke: #000000; stroke-width: 0.6"/>
      </g>
     </g>
    </g>
    <g id="ytick_26">
     <g id="line2d_47">
      <g>
       <use xlink:href="#m4e96aab152" x="56.015346" y="95.535157" style="stroke: #000000; stroke-width: 0.6"/>
      </g>
     </g>
    </g>
    <g id="ytick_27">
     <g id="line2d_48">
      <g>
       <use xlink:href="#m4e96aab152" x="56.015346" y="91.545343" style="stroke: #000000; stroke-width: 0.6"/>
      </g>
     </g>
    </g>
    <g id="ytick_28">
     <g id="line2d_49">
      <g>
       <use xlink:href="#m4e96aab152" x="56.015346" y="64.496478" style="stroke: #000000; stroke-width: 0.6"/>
      </g>
     </g>
    </g>
    <g id="ytick_29">
     <g id="line2d_50">
      <g>
       <use xlink:href="#m4e96aab152" x="56.015346" y="50.761644" style="stroke: #000000; stroke-width: 0.6"/>
      </g>
     </g>
    </g>
    <g id="ytick_30">
     <g id="line2d_51">
      <g>
       <use xlink:href="#m4e96aab152" x="56.015346" y="41.016624" style="stroke: #000000; stroke-width: 0.6"/>
      </g>
     </g>
    </g>
    <g id="ytick_31">
     <g id="line2d_52">
      <g>
       <use xlink:href="#m4e96aab152" x="56.015346" y="33.457799" style="stroke: #000000; stroke-width: 0.6"/>
      </g>
     </g>
    </g>
    <g id="text_14">
     <!-- MSE Loss -->
     <g transform="translate(19.435659 196.023906) rotate(-90) scale(0.1 -0.1)">
      <defs>
       <path id="DejaVuSans-4d" d="M 628 4666 
L 1569 4666 
L 2759 1491 
L 3956 4666 
L 4897 4666 
L 4897 0 
L 4281 0 
L 4281 4097 
L 3078 897 
L 2444 897 
L 1241 4097 
L 1241 0 
L 628 0 
L 628 4666 
z
" transform="scale(0.015625)"/>
       <path id="DejaVuSans-53" d="M 3425 4513 
L 3425 3897 
Q 3066 4069 2747 4153 
Q 2428 4238 2131 4238 
Q 1616 4238 1336 4038 
Q 1056 3838 1056 3469 
Q 1056 3159 1242 3001 
Q 1428 2844 1947 2747 
L 2328 2669 
Q 3034 2534 3370 2195 
Q 3706 1856 3706 1288 
Q 3706 609 3251 259 
Q 2797 -91 1919 -91 
Q 1588 -91 1214 -16 
Q 841 59 441 206 
L 441 856 
Q 825 641 1194 531 
Q 1563 422 1919 422 
Q 2459 422 2753 634 
Q 3047 847 3047 1241 
Q 3047 1584 2836 1778 
Q 2625 1972 2144 2069 
L 1759 2144 
Q 1053 2284 737 2584 
Q 422 2884 422 3419 
Q 422 4038 858 4394 
Q 1294 4750 2059 4750 
Q 2388 4750 2728 4690 
Q 3069 4631 3425 4513 
z
" transform="scale(0.015625)"/>
       <path id="DejaVuSans-20" transform="scale(0.015625)"/>
       <path id="DejaVuSans-4c" d="M 628 4666 
L 1259 4666 
L 1259 531 
L 3531 531 
L 3531 0 
L 628 0 
L 628 4666 
z
" transform="scale(0.015625)"/>
       <path id="DejaVuSans-73" d="M 2834 3397 
L 2834 2853 
Q 2591 2978 2328 3040 
Q 2066 3103 1784 3103 
Q 1356 3103 1142 2972 
Q 928 2841 928 2578 
Q 928 2378 1081 2264 
Q 1234 2150 1697 2047 
L 1894 2003 
Q 2506 1872 2764 1633 
Q 3022 1394 3022 966 
Q 3022 478 2636 193 
Q 2250 -91 1575 -91 
Q 1294 -91 989 -36 
Q 684 19 347 128 
L 347 722 
Q 666 556 975 473 
Q 1284 391 1588 391 
Q 1994 391 2212 530 
Q 2431 669 2431 922 
Q 2431 1156 2273 1281 
Q 2116 1406 1581 1522 
L 1381 1569 
Q 847 1681 609 1914 
Q 372 2147 372 2553 
Q 372 3047 722 3315 
Q 1072 3584 1716 3584 
Q 2034 3584 2315 3537 
Q 2597 3491 2834 3397 
z
" transform="scale(0.015625)"/>
      </defs>
      <use xlink:href="#DejaVuSans-4d"/>
      <use xlink:href="#DejaVuSans-53" transform="translate(86.279297 0)"/>
      <use xlink:href="#DejaVuSans-45" transform="translate(149.755859 0)"/>
      <use xlink:href="#DejaVuSans-20" transform="translate(212.939453 0)"/>
      <use xlink:href="#DejaVuSans-4c" transform="translate(244.726562 0)"/>
      <use xlink:href="#DejaVuSans-6f" transform="translate(298.689453 0)"/>
      <use xlink:href="#DejaVuSans-73" transform="translate(359.871094 0)"/>
      <use xlink:href="#DejaVuSans-73" transform="translate(411.970703 0)"/>
     </g>
    </g>
   </g>
   <g id="line2d_53">
    <path d="M 79.160103 40.801818 
L 79.53583 101.62912 
L 79.911556 135.626292 
L 80.287283 159.40108 
L 80.663009 169.944544 
L 81.414463 179.549393 
L 81.790189 180.859332 
L 82.165916 187.101133 
L 82.541642 188.325065 
L 82.917369 192.032795 
L 83.293095 189.134746 
L 83.668822 196.529711 
L 84.420275 199.854874 
L 84.796002 207.948181 
L 85.171728 209.215574 
L 85.547455 207.524819 
L 86.674635 218.49962 
L 87.050361 220.686525 
L 87.426088 210.817285 
L 87.801814 218.271125 
L 88.177541 221.451988 
L 88.553268 223.354175 
L 88.928994 223.832832 
L 89.304721 224.748277 
L 89.680447 226.434171 
L 90.056174 227.307144 
L 90.4319 229.891115 
L 90.807627 231.379693 
L 91.183354 230.793931 
L 91.55908 226.001277 
L 91.934807 231.027165 
L 92.310533 234.161913 
L 92.68626 233.700728 
L 93.061986 234.325026 
L 93.437713 235.197835 
L 93.81344 237.966406 
L 94.189166 235.604975 
L 94.564893 237.28413 
L 94.940619 238.239794 
L 95.692072 242.858265 
L 96.067799 246.260118 
L 96.443526 246.8939 
L 96.819252 246.652757 
L 97.194979 247.840362 
L 97.946432 249.021068 
L 98.322158 250.260566 
L 99.073612 247.86882 
L 99.449338 250.765072 
L 99.825065 251.624725 
L 100.200791 251.725339 
L 100.952244 252.374894 
L 101.327971 253.578311 
L 102.079424 252.137101 
L 102.455151 254.259062 
L 102.830877 255.132305 
L 103.206604 254.281042 
L 103.58233 255.420908 
L 103.958057 252.180912 
L 104.333784 254.925683 
L 104.70951 256.466009 
L 105.460963 255.792712 
L 105.83669 256.640061 
L 106.212417 256.08301 
L 106.588143 259.401277 
L 106.96387 257.429508 
L 107.339596 257.224643 
L 107.715323 258.618397 
L 108.091049 256.14709 
L 108.466776 256.565399 
L 108.842503 246.729632 
L 109.218229 251.538314 
L 109.593956 254.287506 
L 109.969682 257.953468 
L 110.345409 256.707943 
L 110.721135 258.670711 
L 111.096862 256.888955 
L 111.472589 258.129176 
L 111.848315 258.252952 
L 112.224042 260.140214 
L 112.599768 259.501199 
L 112.975495 261.345631 
L 113.351221 261.325791 
L 113.726948 260.953709 
L 114.102675 261.583688 
L 114.478401 262.450927 
L 114.854128 260.73001 
L 115.229854 260.837009 
L 115.605581 262.778783 
L 115.981307 261.890827 
L 116.357034 262.472298 
L 116.732761 262.113681 
L 117.108487 264.012285 
L 117.484214 264.425513 
L 117.85994 264.330678 
L 118.235667 264.965345 
L 118.611393 262.80206 
L 118.98712 264.370123 
L 119.362847 264.984286 
L 119.738573 267.803905 
L 120.1143 265.891788 
L 120.490026 266.463182 
L 120.865753 268.336816 
L 121.241479 266.696345 
L 121.617206 268.090276 
L 121.992933 266.777413 
L 122.368659 266.4635 
L 122.744386 266.513186 
L 123.120112 266.791434 
L 123.495839 268.511395 
L 123.871566 266.900778 
L 124.247292 266.43232 
L 124.623019 267.22122 
L 124.998745 267.314597 
L 125.374472 268.938747 
L 125.750198 268.845595 
L 126.125925 268.539249 
L 126.501652 268.445574 
L 127.253105 264.873709 
L 127.628831 267.939049 
L 128.004558 269.182669 
L 128.380284 268.224355 
L 128.756011 269.536808 
L 129.131738 268.51694 
L 129.507464 266.778551 
L 129.883191 268.182824 
L 130.258917 268.402539 
L 130.634644 269.002128 
L 131.386097 268.02424 
L 131.761824 268.278461 
L 132.13755 268.969618 
L 132.513277 267.873951 
L 132.889003 269.671558 
L 133.26473 268.069466 
L 133.640456 269.631103 
L 134.016183 268.447171 
L 134.39191 270.453033 
L 134.767636 271.678566 
L 135.519089 269.246228 
L 135.894816 269.902545 
L 136.270542 270.853112 
L 136.646269 270.459338 
L 137.397722 271.354812 
L 138.149175 269.181194 
L 138.524902 270.295436 
L 138.900628 270.729119 
L 139.652082 272.344064 
L 140.027808 270.947877 
L 140.779261 271.196893 
L 141.154988 270.864925 
L 141.530715 269.604875 
L 141.906441 269.488132 
L 142.282168 270.922958 
L 143.033621 271.838474 
L 143.785074 270.547844 
L 144.160801 270.840111 
L 144.536527 269.741379 
L 144.912254 272.097528 
L 145.28798 270.420598 
L 145.663707 271.052713 
L 146.039433 269.877502 
L 146.41516 271.542565 
L 146.790887 270.755582 
L 147.166613 272.267447 
L 147.54234 271.480573 
L 148.293793 273.175216 
L 148.669519 272.9179 
L 149.045246 271.330639 
L 149.420973 271.455542 
L 149.796699 272.02775 
L 150.172426 271.702328 
L 150.548152 271.177773 
L 150.923879 272.850712 
L 151.299605 271.968933 
L 151.675332 271.383375 
L 152.051059 272.502382 
L 152.426785 272.003407 
L 153.178238 272.759513 
L 153.553965 271.647292 
L 153.929691 271.556834 
L 154.305418 272.457254 
L 154.681145 271.241706 
L 155.056871 272.669294 
L 155.808324 274.692301 
L 156.184051 272.874174 
L 156.559777 271.893481 
L 156.935504 273.433951 
L 157.311231 272.989368 
L 157.686957 272.729314 
L 158.062684 271.891531 
L 158.814137 273.093028 
L 159.189864 271.676167 
L 159.56559 271.05365 
L 159.941317 273.720308 
L 160.317043 272.345835 
L 160.69277 271.885369 
L 161.068496 273.708588 
L 161.444223 272.35908 
L 161.81995 272.05858 
L 162.195676 273.748502 
L 162.571403 272.038122 
L 162.947129 273.417576 
L 163.322856 272.990521 
L 163.698582 271.714644 
L 164.074309 273.19719 
L 164.450036 273.152723 
L 164.825762 273.300097 
L 165.201489 272.154134 
L 165.577215 273.214999 
L 165.952942 272.804169 
L 166.328668 274.32101 
L 166.704395 272.736858 
L 167.080122 273.660415 
L 167.455848 274.171383 
L 167.831575 273.967411 
L 168.207301 273.251423 
L 168.583028 273.481267 
L 168.958754 274.076634 
L 169.710208 273.330269 
L 170.085934 274.173738 
L 170.461661 271.981735 
L 170.837387 273.438266 
L 171.213114 274.140142 
L 171.58884 273.068586 
L 171.964567 274.19808 
L 172.340294 273.182377 
L 172.71602 273.851439 
L 173.091747 272.508009 
L 173.467473 272.333116 
L 173.8432 272.957953 
L 174.218927 272.621981 
L 175.346106 273.638212 
L 175.721833 273.339332 
L 176.097559 272.421754 
L 177.600466 273.523232 
L 177.976192 273.662529 
L 178.351919 273.236883 
L 178.727645 273.621835 
L 179.103372 272.02158 
L 179.854825 274.240319 
L 180.230552 272.824696 
L 180.606278 273.682126 
L 181.357731 272.726424 
L 181.733458 273.767856 
L 182.484911 273.061105 
L 182.860638 273.726605 
L 183.236364 273.914818 
L 183.612091 272.98228 
L 183.987817 273.143622 
L 184.363544 274.490227 
L 184.739271 274.132277 
L 185.114997 274.259555 
L 185.490724 273.601898 
L 185.86645 274.235535 
L 186.242177 273.698392 
L 186.617903 273.636737 
L 186.99363 273.205571 
L 187.369357 274.214971 
L 187.745083 272.922207 
L 188.872263 274.097113 
L 189.247989 273.54166 
L 189.623716 274.610573 
L 189.999443 273.017198 
L 190.375169 273.845706 
L 190.750896 271.453248 
L 191.126622 273.063283 
L 191.502349 273.533183 
L 191.878076 272.749444 
L 192.253802 272.99556 
L 192.629529 271.947562 
L 193.005255 273.685332 
L 193.380982 273.704017 
L 193.756708 272.610871 
L 194.132435 274.543476 
L 194.508162 272.460908 
L 194.883888 273.92973 
L 195.259615 274.20077 
L 195.635341 274.744351 
L 196.011068 272.959184 
L 196.386794 272.765891 
L 196.762521 274.548851 
L 197.138248 273.293503 
L 197.513974 274.116955 
L 197.889701 274.526965 
L 198.265427 274.080746 
L 198.641154 273.255179 
L 199.392607 273.879844 
L 199.768334 274.074589 
L 200.14406 273.319799 
L 200.519787 273.447937 
L 200.895513 273.991845 
L 201.27124 272.858953 
L 201.646966 273.445342 
L 202.022693 273.127697 
L 202.39842 273.687127 
L 202.774146 273.608324 
L 203.149873 272.576621 
L 203.525599 272.902814 
L 204.277052 274.379076 
L 205.028506 272.737671 
L 205.404232 272.800355 
L 205.779959 274.095267 
L 206.155685 274.248257 
L 206.531412 273.302256 
L 206.907138 273.995398 
L 207.282865 273.181946 
L 207.658592 273.619127 
L 208.034318 273.235001 
L 208.410045 273.127366 
L 208.785771 273.951158 
L 209.537225 272.779704 
L 209.912951 273.978916 
L 210.664404 273.16145 
L 211.040131 273.51204 
L 211.415857 273.093266 
L 211.791584 274.383861 
L 212.167311 274.672595 
L 212.543037 273.162064 
L 212.918764 273.695506 
L 213.29449 272.864188 
L 213.670217 273.594578 
L 214.045943 273.454001 
L 214.42167 274.390694 
L 214.797397 272.844727 
L 215.173123 272.923744 
L 215.54885 273.617737 
L 215.924576 272.987015 
L 216.300303 273.081996 
L 216.676029 273.716696 
L 217.051756 274.66855 
L 217.803209 272.553796 
L 218.178936 272.753812 
L 218.930389 274.228087 
L 219.306115 272.641053 
L 219.681842 274.025054 
L 220.057569 272.649146 
L 220.433295 273.442177 
L 220.809022 272.075082 
L 221.560475 273.522979 
L 221.936201 272.579328 
L 222.311928 272.374963 
L 222.687655 272.648721 
L 223.063381 272.578695 
L 223.814834 274.372345 
L 224.190561 274.096192 
L 224.566287 273.589732 
L 225.317741 273.893767 
L 225.693467 273.243084 
L 226.069194 274.607569 
L 226.44492 274.067846 
L 226.820647 273.102465 
L 227.947827 273.732684 
L 228.323553 273.288905 
L 228.69928 273.75468 
L 229.075006 273.254717 
L 229.450733 273.792832 
L 229.82646 274.764559 
L 230.202186 274.196816 
L 230.577913 273.377604 
L 231.329366 272.614868 
L 231.705092 274.317651 
L 232.080819 272.987567 
L 232.456546 273.091361 
L 232.832272 273.578656 
L 233.207999 273.450946 
L 233.583725 274.01195 
L 233.959452 273.871389 
L 234.335178 273.385242 
L 234.710905 273.290285 
L 235.086632 272.475215 
L 235.462358 274.602919 
L 236.213811 273.32281 
L 236.589538 274.100285 
L 236.965264 274.134819 
L 237.340991 273.339093 
L 237.716718 273.680345 
L 238.092444 272.902657 
L 238.468171 274.592269 
L 238.843897 272.710311 
L 239.219624 273.46188 
L 239.59535 274.503858 
L 239.971077 273.451471 
L 240.346804 273.725212 
L 240.72253 274.453489 
L 241.098257 273.743294 
L 241.473983 273.640254 
L 241.84971 272.646576 
L 242.225436 272.871612 
L 242.97689 274.256923 
L 243.352616 272.892629 
L 243.728343 273.523065 
L 244.104069 273.821436 
L 244.479796 274.261948 
L 244.855523 272.729541 
L 245.231249 273.398995 
L 245.606976 273.257586 
L 245.982702 273.661146 
L 246.358429 273.295817 
L 246.734155 271.777675 
L 247.109882 273.080338 
L 247.485609 273.915925 
L 247.861335 273.97042 
L 248.612788 273.470397 
L 248.988515 273.870333 
L 249.364241 272.938765 
L 249.739968 274.387283 
L 250.115695 273.389499 
L 250.491421 273.630365 
L 250.867148 273.628243 
L 251.242874 272.955996 
L 251.618601 273.652282 
L 251.994327 273.112085 
L 252.370054 272.92471 
L 252.745781 274.23797 
L 253.121507 272.400827 
L 253.497234 273.548173 
L 253.87296 273.672985 
L 255.00014 273.436964 
L 255.751593 274.482898 
L 256.12732 272.884529 
L 256.503046 273.211328 
L 256.878773 273.722085 
L 257.254499 273.752104 
L 257.630226 272.817261 
L 258.005953 273.516279 
L 258.381679 272.24585 
L 258.757406 273.010715 
L 259.508859 272.261036 
L 259.884586 273.892553 
L 260.260312 273.216961 
L 260.636039 274.60275 
L 261.011765 274.00479 
L 261.387492 273.785903 
L 261.763218 272.464788 
L 262.138945 272.387959 
L 262.514672 273.638188 
L 262.890398 273.227574 
L 263.266125 273.975573 
L 263.641851 274.054367 
L 264.017578 274.411497 
L 264.393304 273.940435 
L 264.769031 273.120139 
L 265.144758 273.478198 
L 265.520484 273.487452 
L 265.896211 272.650909 
L 266.271937 274.24355 
L 266.647664 274.682248 
L 267.02339 273.893752 
L 267.399117 274.398271 
L 267.774844 274.231135 
L 268.15057 273.472559 
L 268.526297 273.850902 
L 269.27775 272.410509 
L 270.029203 273.710372 
L 270.40493 274.252571 
L 270.780656 272.605834 
L 271.156383 273.96316 
L 271.532109 273.576242 
L 272.283562 273.190684 
L 272.659289 273.133987 
L 273.035016 272.818477 
L 273.410742 274.540475 
L 273.786469 274.198101 
L 274.162195 272.880566 
L 274.537922 272.857728 
L 274.913648 273.618059 
L 275.289375 273.217132 
L 275.665102 272.185734 
L 276.040828 273.263985 
L 276.416555 274.773519 
L 277.168008 273.173725 
L 277.543735 274.600511 
L 277.919461 272.980581 
L 278.295188 272.529766 
L 278.670914 273.6383 
L 279.046641 273.327132 
L 279.422367 272.732322 
L 279.798094 273.063367 
L 280.173821 273.006961 
L 280.549547 273.445866 
L 280.925274 273.448768 
L 281.301 273.222464 
L 281.676727 273.538527 
L 282.052453 273.661655 
L 282.42818 273.29571 
L 282.803907 274.336499 
L 283.179633 273.584699 
L 283.55536 273.817162 
L 283.931086 273.346692 
L 284.306813 273.972181 
L 284.682539 272.597473 
L 285.058266 272.798463 
L 285.433993 273.541544 
L 285.809719 273.607454 
L 286.185446 274.133095 
L 286.561172 272.562359 
L 286.936899 272.646859 
L 287.312625 273.096814 
L 287.688352 272.625612 
L 288.064079 273.519152 
L 288.439805 274.891815 
L 288.815532 273.150964 
L 289.191258 274.452192 
L 289.566985 272.914199 
L 289.942711 273.763629 
L 290.318438 273.619048 
L 290.694165 273.166415 
L 291.069891 273.540294 
L 291.445618 274.302633 
L 291.821344 272.815626 
L 292.197071 274.076178 
L 292.572797 274.268716 
L 292.948524 273.761578 
L 293.324251 271.890473 
L 293.699977 273.261007 
L 294.075704 273.412257 
L 294.45143 272.807286 
L 294.827157 273.835267 
L 295.202884 274.189354 
L 295.57861 273.044377 
L 295.954337 273.963728 
L 296.330063 273.657166 
L 296.70579 273.094598 
L 297.081516 273.012544 
L 297.457243 273.239984 
L 297.83297 273.298061 
L 298.208696 273.569314 
L 298.584423 273.073084 
L 298.960149 273.68527 
L 299.335876 272.881823 
L 299.711602 272.937796 
L 300.087329 272.553896 
L 300.463056 273.257212 
L 300.838782 273.332294 
L 301.214509 272.090403 
L 301.965962 273.572022 
L 302.717415 273.64316 
L 303.093142 273.577418 
L 303.468868 272.871399 
L 303.844595 273.752083 
L 304.220321 273.949209 
L 304.596048 274.645123 
L 304.971774 273.373726 
L 305.347501 273.354801 
L 305.723228 274.312554 
L 306.098954 273.915341 
L 306.474681 274.037896 
L 306.850407 272.502681 
L 307.226134 273.293343 
L 307.60186 272.412214 
L 307.977587 274.618616 
L 308.353314 273.275916 
L 308.72904 272.737387 
L 309.104767 274.16386 
L 309.85622 272.423521 
L 310.231946 273.529337 
L 310.607673 274.221961 
L 311.359126 272.940019 
L 311.734853 273.739416 
L 312.110579 273.269533 
L 312.486306 273.17836 
L 313.237759 274.483326 
L 313.613486 273.700572 
L 313.989212 273.560179 
L 314.364939 273.261309 
L 314.740665 274.253823 
L 315.116392 273.644418 
L 315.492119 273.49927 
L 315.867845 273.215215 
L 316.243572 274.364553 
L 316.619298 273.652894 
L 316.995025 273.663223 
L 317.370751 274.695618 
L 317.746478 273.054687 
L 318.122205 272.772076 
L 318.497931 274.11461 
L 318.873658 273.420542 
L 319.249384 274.080036 
L 319.625111 272.912101 
L 320.000837 272.576665 
L 320.376564 272.994675 
L 320.752291 272.428569 
L 321.128017 274.374717 
L 321.503744 273.022803 
L 321.87947 274.352252 
L 322.255197 273.249778 
L 322.630923 273.557179 
L 323.00665 272.526043 
L 323.382377 273.440693 
L 323.758103 273.879897 
L 324.13383 273.044466 
L 324.509556 273.800432 
L 324.885283 275.051083 
L 325.636736 273.180158 
L 326.012463 273.393053 
L 326.388189 274.097181 
L 326.763916 273.35581 
L 327.139642 273.698099 
L 327.515369 273.459557 
L 327.891096 272.878434 
L 328.266822 274.256574 
L 328.642549 272.891629 
L 329.018275 274.560111 
L 329.394002 274.710955 
L 329.769728 272.319325 
L 330.145455 273.39678 
L 330.521182 273.869084 
L 330.896908 273.410777 
L 331.272635 273.469493 
L 331.648361 273.910672 
L 332.024088 272.808253 
L 332.399814 273.164066 
L 332.775541 273.084874 
L 333.151268 274.32448 
L 333.526994 273.4323 
L 333.902721 273.936776 
L 334.278447 273.821277 
L 334.654174 274.379233 
L 335.0299 273.780725 
L 335.405627 274.125952 
L 335.781354 273.180009 
L 336.15708 274.353592 
L 336.532807 273.679616 
L 336.908533 273.684621 
L 337.659986 272.987047 
L 338.035713 274.169691 
L 338.41144 273.186873 
L 338.787166 273.334685 
L 339.162893 273.349918 
L 339.538619 273.820419 
L 339.914346 272.928243 
L 340.290072 274.066455 
L 340.665799 273.186337 
L 341.417252 273.621927 
L 341.792979 274.006161 
L 342.168705 272.964031 
L 342.544432 273.832785 
L 342.920158 272.843293 
L 343.671612 273.54553 
L 344.047338 272.365501 
L 344.423065 273.603337 
L 344.798791 272.393247 
L 345.174518 273.274141 
L 345.550245 273.094784 
L 345.925971 273.855462 
L 346.301698 273.12089 
L 346.677424 274.527416 
L 347.053151 273.51056 
L 347.804604 274.285102 
L 348.180331 273.429374 
L 348.556057 273.517445 
L 349.30751 272.68263 
L 349.683237 273.218086 
L 350.058963 272.168514 
L 350.43469 274.611173 
L 350.810417 273.755927 
L 351.186143 273.703076 
L 351.56187 273.974235 
L 351.937596 273.798085 
L 352.313323 274.427913 
L 352.689049 272.57589 
L 353.064776 273.929769 
L 353.440503 274.862924 
L 353.816229 274.320976 
L 354.191956 273.359479 
L 354.567682 273.285106 
L 354.943409 273.499569 
L 355.319135 274.010745 
L 355.694862 273.101156 
L 356.070589 274.320393 
L 356.446315 273.19944 
L 356.822042 274.052938 
L 357.197768 274.314086 
L 357.573495 272.517913 
L 357.949221 274.000328 
L 358.324948 273.893227 
L 358.700675 275.098155 
L 359.452128 273.156049 
L 359.827854 273.336648 
L 360.203581 274.206278 
L 360.579307 273.290331 
L 360.955034 273.943528 
L 361.330761 273.985923 
L 361.706487 273.524974 
L 362.082214 274.165648 
L 362.45794 273.364653 
L 362.833667 273.134401 
L 363.209394 271.626739 
L 363.58512 273.686333 
L 363.960847 273.200157 
L 364.336573 273.717317 
L 364.7123 273.843069 
L 365.088026 273.259743 
L 365.463753 273.12462 
L 365.83948 273.421557 
L 366.215206 273.395973 
L 366.590933 273.677586 
L 366.966659 274.258317 
L 367.342386 273.765586 
L 367.718112 274.226905 
L 368.093839 272.894848 
L 368.469566 273.498923 
L 368.845292 273.180618 
L 369.221019 273.91578 
L 369.596745 274.228163 
L 369.972472 273.541968 
L 370.348198 274.242842 
L 370.723925 274.263354 
L 371.099652 272.784716 
L 371.475378 272.939266 
L 371.851105 273.764898 
L 372.602558 273.346749 
L 372.978284 274.071028 
L 373.729738 274.165848 
L 374.105464 273.135579 
L 374.481191 274.754223 
L 374.856917 274.526896 
L 375.232644 273.178623 
L 375.60837 273.270635 
L 375.984097 273.224623 
L 376.359824 272.864759 
L 376.73555 273.450253 
L 377.111277 272.164141 
L 377.487003 273.118306 
L 377.86273 273.430193 
L 378.238456 275.295701 
L 378.614183 273.618597 
L 378.98991 273.56449 
L 379.365636 273.244457 
L 379.741363 273.11917 
L 380.492816 274.601486 
L 380.868543 274.159291 
L 381.244269 274.802748 
L 381.619996 274.349743 
L 381.995722 274.68683 
L 382.371449 273.024055 
L 382.747175 274.096777 
L 383.122902 272.164177 
L 383.498629 273.692578 
L 383.874355 273.520813 
L 384.250082 273.486173 
L 385.001535 273.226024 
L 385.377261 273.808148 
L 385.752988 273.073027 
L 386.504441 273.525512 
L 386.880168 274.216661 
L 387.255894 273.769617 
L 387.631621 273.058851 
L 388.007347 274.675824 
L 388.383074 273.918476 
L 389.134527 273.591762 
L 389.510254 272.95382 
L 389.88598 273.950625 
L 390.261707 273.678473 
L 390.637433 273.98463 
L 391.01316 273.572695 
L 391.388887 273.462194 
L 391.764613 272.341134 
L 392.14034 273.699164 
L 392.516066 273.157147 
L 392.891793 274.197169 
L 393.267519 273.944693 
L 393.643246 273.877318 
L 394.018973 274.084736 
L 394.394699 274.079305 
L 394.770426 273.402538 
L 395.146152 274.153717 
L 395.521879 273.268263 
L 395.897605 273.947339 
L 396.273332 272.79492 
L 396.649059 273.745134 
L 397.024785 273.654844 
L 397.400512 275.114201 
L 397.776238 273.439962 
L 398.151965 273.71821 
L 398.527692 273.668051 
L 398.903418 274.232065 
L 399.279145 274.410227 
L 399.654871 273.703274 
L 400.030598 273.54322 
L 400.406324 273.840286 
L 400.782051 273.85591 
L 401.157778 273.249652 
L 401.533504 273.79219 
L 401.909231 273.533246 
L 402.284957 274.141193 
L 402.660684 273.29983 
L 403.03641 274.100847 
L 403.412137 273.597985 
L 404.16359 273.1112 
L 404.539317 274.596379 
L 404.915043 273.333166 
L 405.29077 273.228322 
L 405.666496 273.487738 
L 406.042223 272.627702 
L 406.41795 273.824846 
L 406.793676 273.463895 
L 408.296582 274.6593 
L 408.672309 274.255676 
L 409.423762 273.042858 
L 409.799489 273.281909 
L 410.175215 273.333649 
L 410.550942 272.626942 
L 410.926668 273.439576 
L 411.302395 274.605538 
L 411.678122 274.896602 
L 412.053848 274.232335 
L 412.429575 274.606799 
L 413.181028 273.412062 
L 413.556755 272.876888 
L 413.932481 273.724828 
L 414.308208 273.583842 
L 414.683934 273.657489 
L 415.059661 273.170084 
L 415.435387 274.605694 
L 416.186841 273.203031 
L 416.562567 273.216335 
L 416.938294 272.734843 
L 417.31402 275.310239 
L 417.689747 271.574012 
L 418.065473 273.650137 
L 418.4412 273.210483 
L 418.816927 272.581737 
L 419.944106 274.022956 
L 420.319833 271.523993 
L 420.695559 273.142214 
L 421.071286 272.248669 
L 421.447013 274.246384 
L 421.822739 272.81739 
L 422.198466 271.835013 
L 422.574192 274.524442 
L 422.949919 273.384405 
L 423.325645 274.955345 
L 423.701372 274.689876 
L 424.077099 273.834221 
L 424.452825 273.531788 
L 424.828552 272.268478 
L 425.204278 273.988899 
L 425.580005 274.340934 
L 425.955731 272.767923 
L 426.331458 275.159808 
L 426.707185 273.875249 
L 427.082911 273.844908 
L 427.458638 273.999642 
L 427.834364 273.62693 
L 428.210091 273.629677 
L 428.585817 273.463588 
L 428.961544 272.268415 
L 429.337271 273.374114 
L 429.712997 273.261622 
L 430.088724 273.693549 
L 430.46445 273.441831 
L 430.840177 272.731207 
L 431.215904 273.759615 
L 431.59163 273.227721 
L 431.967357 273.501523 
L 432.343083 273.292354 
L 432.71881 272.881069 
L 433.094536 274.311609 
L 433.470263 273.13943 
L 433.84599 273.780082 
L 434.221716 274.060966 
L 434.597443 273.745792 
L 434.973169 273.070975 
L 435.348896 272.713386 
L 435.724622 273.713215 
L 436.100349 274.227122 
L 436.476076 274.307338 
L 436.851802 272.477116 
L 437.227529 273.772868 
L 437.603255 273.094506 
L 437.978982 274.029534 
L 438.354708 273.204355 
L 438.730435 274.568358 
L 439.106162 274.461721 
L 439.481888 271.957116 
L 439.857615 273.039588 
L 440.233341 272.523522 
L 440.609068 273.772438 
L 440.984794 273.663567 
L 441.736248 274.350585 
L 442.111974 272.398219 
L 442.487701 273.855171 
L 442.863427 272.924188 
L 443.239154 273.01163 
L 443.61488 272.511907 
L 444.366334 273.94583 
L 444.74206 272.882989 
L 445.117787 273.923983 
L 445.493513 274.343817 
L 446.244966 274.360056 
L 446.620693 274.31955 
L 446.99642 272.615314 
L 447.372146 273.996421 
L 447.747873 274.451242 
L 448.123599 273.906771 
L 448.499326 272.72253 
L 448.875053 273.347133 
L 449.250779 272.467908 
L 449.626506 272.6837 
L 450.002232 272.543328 
L 450.377959 273.923973 
L 450.753685 273.087797 
L 451.129412 273.503288 
L 451.505139 273.551164 
L 451.880865 274.704339 
L 452.256592 272.74872 
L 452.632318 273.285349 
L 453.008045 272.551223 
L 453.383771 273.629178 
L 453.759498 273.926756 
L 454.135225 273.600535 
L 454.510951 272.453702 
L 454.886678 273.568978 
L 455.262404 273.567586 
L 455.638131 274.222012 
L 456.013857 274.389765 
L 456.389584 273.110681 
L 456.765311 273.795201 
L 457.141037 273.415492 
L 457.516764 272.668188 
L 458.268217 273.935199 
L 458.643943 272.712268 
L 459.01967 273.665372 
L 459.395397 272.935538 
L 460.14685 274.288418 
L 460.898303 274.098885 
L 461.274029 273.531811 
L 461.649756 274.565813 
L 462.025483 273.715731 
L 462.401209 274.162025 
L 462.776936 273.409966 
L 463.152662 274.12712 
L 463.528389 272.133578 
L 464.655569 273.376763 
L 465.031295 274.32329 
L 465.407022 273.517564 
L 465.782748 273.911767 
L 466.158475 273.922272 
L 466.534202 273.160959 
L 466.909928 273.605938 
L 467.285655 273.479995 
L 467.661381 274.261155 
L 468.037108 272.754744 
L 468.412834 272.549763 
L 468.788561 272.692749 
L 469.164288 273.801503 
L 469.540014 273.105399 
L 469.915741 274.371271 
L 470.667194 273.481447 
L 471.04292 271.741038 
L 471.794374 273.125762 
L 472.1701 274.010387 
L 472.545827 273.210986 
L 472.921553 274.502738 
L 473.29728 275.048736 
L 473.673006 272.973381 
L 474.048733 273.096978 
L 474.42446 273.838899 
L 474.800186 273.205288 
L 475.175913 271.674615 
L 475.551639 274.316157 
L 475.927366 274.723963 
L 476.303092 273.170663 
L 476.678819 273.970567 
L 477.054546 272.98439 
L 477.430272 273.449474 
L 477.805999 274.696825 
L 478.181725 274.453296 
L 478.557452 273.97942 
L 478.933178 273.180252 
L 479.308905 273.893643 
L 479.684632 272.569296 
L 480.060358 273.577386 
L 480.436085 273.669895 
L 480.811811 273.341223 
L 481.187538 274.728492 
L 481.938991 273.083949 
L 482.314718 273.786901 
L 482.690444 272.671348 
L 483.066171 273.375939 
L 483.441897 273.661878 
L 483.817624 273.273315 
L 484.193351 273.329571 
L 484.569077 274.516906 
L 484.944804 273.638726 
L 485.32053 272.439233 
L 485.696257 274.242926 
L 486.071983 274.021349 
L 486.44771 274.717926 
L 486.823437 274.339493 
L 487.199163 274.561447 
L 487.57489 272.809556 
L 487.950616 273.075342 
L 488.326343 274.450351 
L 488.702069 272.55261 
L 489.077796 274.204649 
L 489.453523 272.526896 
L 489.829249 274.019441 
L 490.204976 274.731439 
L 490.580702 272.869217 
L 490.956429 273.527247 
L 491.332155 272.568802 
L 491.707882 275.32653 
L 492.835062 272.440041 
L 493.210788 273.888224 
L 493.586515 272.981812 
L 493.962241 272.956739 
L 494.337968 273.253153 
L 494.713695 272.958414 
L 495.089421 275.044608 
L 495.465148 273.575756 
L 495.840874 274.700776 
L 496.216601 274.780376 
L 496.592327 274.588592 
L 496.968054 272.764365 
L 497.343781 273.795392 
L 497.719507 274.042773 
L 498.47096 272.808658 
L 498.846687 273.09037 
L 499.222414 272.722904 
L 499.59814 274.005072 
L 499.973867 273.781262 
L 500.349593 274.793254 
L 500.72532 274.031182 
L 501.101046 272.880909 
L 501.476773 273.197629 
L 501.8525 273.802979 
L 502.228226 273.599245 
L 502.603953 273.838675 
L 502.979679 272.899111 
L 503.355406 274.048592 
L 503.731132 272.841953 
L 504.106859 273.549537 
L 504.482586 275.700748 
L 504.858312 273.981449 
L 505.234039 273.245691 
L 505.609765 275.063608 
L 505.985492 272.799227 
L 506.361218 272.338534 
L 506.736945 273.278287 
L 507.488398 274.041583 
L 507.864125 273.71919 
L 508.239851 274.07252 
L 508.615578 273.747602 
L 509.367031 272.918582 
L 509.742758 273.583926 
L 510.118484 273.083821 
L 510.494211 274.667791 
L 510.869937 272.874123 
L 511.245664 273.185959 
L 511.62139 273.298335 
L 511.997117 272.820756 
L 512.372844 274.909355 
L 512.74857 272.825776 
L 513.124297 272.54583 
L 513.500023 273.353519 
L 513.87575 274.844474 
L 514.251476 272.345631 
L 514.627203 273.736096 
L 515.00293 272.74372 
L 515.378656 274.044951 
L 515.754383 273.084318 
L 516.130109 273.60832 
L 516.505836 273.362865 
L 516.881563 273.706556 
L 517.257289 273.592828 
L 517.633016 273.949432 
L 518.008742 273.727423 
L 518.384469 274.180823 
L 518.760195 273.76428 
L 519.135922 274.415324 
L 519.887375 272.427605 
L 520.263102 274.080498 
L 520.638828 273.130595 
L 521.014555 273.981708 
L 521.390281 274.238825 
L 521.766008 273.852609 
L 522.141735 274.729956 
L 522.893188 272.260949 
L 523.268914 273.354503 
L 523.644641 273.684905 
L 524.020367 273.659435 
L 524.396094 273.455134 
L 524.771821 273.721465 
L 525.147547 273.579848 
L 525.523274 272.548275 
L 525.899 274.181532 
L 526.274727 273.005845 
L 526.650453 273.677831 
L 527.02618 272.763992 
L 527.401907 274.251871 
L 527.777633 273.646807 
L 528.15336 274.403943 
L 528.529086 273.466896 
L 528.904813 273.385321 
L 529.656266 272.610579 
L 530.031993 273.63823 
L 530.407719 274.242473 
L 530.783446 273.194232 
L 531.159172 273.059361 
L 531.534899 272.468611 
L 531.910625 274.273031 
L 532.286352 274.234241 
L 532.662079 273.799833 
L 533.037805 272.79095 
L 533.413532 273.284492 
L 533.789258 273.240895 
L 534.164985 272.57067 
L 534.540712 274.00725 
L 534.916438 273.766542 
L 535.292165 273.364996 
L 535.667891 273.715102 
L 536.043618 274.311917 
L 536.419344 274.099069 
L 537.170798 272.935672 
L 537.546524 273.202827 
L 537.922251 272.43199 
L 538.297977 274.328577 
L 539.04943 273.456634 
L 539.425157 273.513482 
L 539.800884 274.157218 
L 540.17661 273.90375 
L 540.552337 271.350028 
L 540.928063 273.442332 
L 541.30379 273.615568 
L 541.679516 273.116063 
L 542.055243 273.543853 
L 542.055243 273.543853 
" clip-path="url(#p32f0bbe14c)" style="fill: none; stroke: #1f77b4; stroke-width: 2; stroke-linecap: square"/>
   </g>
   <g id="line2d_54">
    <path d="M 79.160103 119.988188 
L 79.53583 136.610591 
L 79.911556 168.241164 
L 80.287283 170.189199 
L 80.663009 157.2916 
L 81.038736 181.589128 
L 81.414463 150.418865 
L 81.790189 197.72648 
L 82.165916 187.026531 
L 82.541642 215.448092 
L 82.917369 189.313328 
L 83.293095 182.895836 
L 83.668822 225.292716 
L 84.044549 188.368649 
L 84.420275 216.04543 
L 85.171728 235.952926 
L 85.547455 219.314023 
L 85.923181 233.270784 
L 86.298908 178.368311 
L 86.674635 151.584763 
L 87.050361 216.652916 
L 87.801814 242.43296 
L 88.177541 246.261751 
L 88.553268 207.848259 
L 88.928994 217.062363 
L 89.304721 208.17774 
L 89.680447 251.462626 
L 90.056174 229.553346 
L 90.4319 245.129626 
L 90.807627 252.435559 
L 91.183354 246.587845 
L 91.55908 212.322094 
L 91.934807 240.692982 
L 92.310533 242.466165 
L 92.68626 236.905104 
L 93.061986 222.958754 
L 93.437713 241.7928 
L 93.81344 236.581205 
L 94.189166 252.205047 
L 94.564893 250.336854 
L 94.940619 240.590044 
L 95.316346 250.438886 
L 95.692072 265.525678 
L 96.067799 267.539126 
L 96.443526 260.412381 
L 96.819252 267.683036 
L 97.194979 269.84555 
L 97.570705 272.950976 
L 97.946432 272.715406 
L 98.322158 272.946648 
L 98.697885 275.365258 
L 99.073612 279.689914 
L 99.449338 276.348955 
L 99.825065 261.508628 
L 100.200791 270.085375 
L 100.576518 265.768212 
L 100.952244 265.554387 
L 101.327971 276.435594 
L 101.703698 275.230917 
L 102.079424 273.256466 
L 102.455151 281.884837 
L 102.830877 271.124559 
L 103.206604 275.196293 
L 103.58233 271.767218 
L 103.958057 270.148527 
L 104.333784 279.873811 
L 104.70951 230.729044 
L 105.085237 283.639338 
L 105.460963 285.955006 
L 105.83669 281.672611 
L 106.212417 279.121282 
L 106.588143 272.880363 
L 106.96387 272.484491 
L 107.339596 258.004569 
L 107.715323 284.072337 
L 108.091049 284.914952 
L 108.842503 271.368558 
L 109.218229 272.291694 
L 109.593956 274.223212 
L 109.969682 287.371033 
L 110.345409 287.296067 
L 110.721135 288.465773 
L 111.096862 281.921686 
L 111.472589 288.82799 
L 111.848315 283.338958 
L 112.224042 290.468149 
L 112.599768 291.356234 
L 112.975495 291.075182 
L 113.726948 292.22724 
L 114.102675 290.700048 
L 114.478401 291.706992 
L 114.854128 294.090728 
L 115.229854 293.072436 
L 115.605581 293.90204 
L 115.981307 293.931925 
L 116.357034 291.001644 
L 116.732761 289.579608 
L 117.108487 289.763418 
L 117.484214 281.067922 
L 117.85994 289.020074 
L 118.235667 291.194268 
L 118.611393 284.192841 
L 118.98712 293.260147 
L 119.738573 295.944233 
L 120.1143 294.187015 
L 120.490026 294.548723 
L 120.865753 293.928258 
L 121.241479 290.461826 
L 121.617206 296.300802 
L 121.992933 293.675351 
L 122.744386 295.306346 
L 123.120112 297.152879 
L 123.495839 293.812227 
L 123.871566 292.339916 
L 124.247292 295.623481 
L 124.623019 292.899102 
L 124.998745 295.538618 
L 125.374472 296.800919 
L 125.750198 297.350462 
L 126.125925 298.508107 
L 126.877378 296.012709 
L 127.253105 297.29713 
L 127.628831 297.598929 
L 128.004558 296.357842 
L 128.380284 298.073312 
L 128.756011 295.556259 
L 129.131738 298.972827 
L 129.507464 296.948763 
L 129.883191 296.671991 
L 130.258917 299.546643 
L 130.634644 299.232948 
L 131.01037 297.541175 
L 131.386097 296.944763 
L 131.761824 296.011168 
L 132.13755 293.470045 
L 132.513277 298.047361 
L 132.889003 298.611408 
L 133.26473 295.738601 
L 133.640456 291.839899 
L 134.016183 299.023939 
L 134.39191 297.215293 
L 134.767636 300.226389 
L 135.143363 300.491669 
L 135.519089 297.000172 
L 135.894816 300.676901 
L 136.270542 297.830576 
L 136.646269 300.730715 
L 137.021996 296.367702 
L 137.397722 299.356248 
L 137.773449 298.565823 
L 138.149175 298.828339 
L 138.524902 297.816068 
L 138.900628 300.430947 
L 139.276355 298.972249 
L 139.652082 298.288442 
L 140.027808 300.557784 
L 140.403535 300.973701 
L 140.779261 297.573118 
L 141.154988 299.86436 
L 141.530715 300.555283 
L 141.906441 299.664901 
L 142.282168 299.69916 
L 142.657894 302.37874 
L 143.409347 298.273296 
L 143.785074 298.005705 
L 144.536527 301.629881 
L 144.912254 298.697134 
L 145.28798 300.20247 
L 145.663707 300.6481 
L 146.039433 300.346886 
L 146.41516 300.673802 
L 146.790887 299.009014 
L 147.166613 302.102551 
L 147.54234 298.992342 
L 147.918066 300.212432 
L 148.293793 302.308412 
L 148.669519 300.112372 
L 149.045246 299.017311 
L 149.420973 303.243072 
L 149.796699 302.752733 
L 150.172426 301.67197 
L 151.299605 302.605745 
L 151.675332 300.479141 
L 152.051059 300.71518 
L 152.426785 301.605386 
L 152.802512 300.664754 
L 153.178238 302.172364 
L 153.553965 301.9601 
L 153.929691 300.217026 
L 154.305418 302.698423 
L 154.681145 302.706659 
L 155.056871 302.006911 
L 155.432598 303.052183 
L 155.808324 302.419214 
L 156.184051 303.168739 
L 156.559777 302.637037 
L 156.935504 302.396108 
L 157.311231 299.956588 
L 157.686957 303.35359 
L 158.062684 300.392108 
L 158.43841 302.84637 
L 158.814137 302.902231 
L 159.189864 299.415493 
L 159.56559 302.298093 
L 159.941317 302.147024 
L 160.317043 302.838632 
L 160.69277 300.853283 
L 161.068496 302.420556 
L 161.444223 301.458131 
L 161.81995 299.830902 
L 162.195676 299.871287 
L 162.571403 302.272207 
L 162.947129 301.629651 
L 163.322856 303.948761 
L 163.698582 301.002969 
L 164.074309 301.836209 
L 164.450036 300.416762 
L 164.825762 300.544787 
L 165.201489 302.363132 
L 165.577215 301.035896 
L 165.952942 301.693385 
L 166.328668 301.716341 
L 166.704395 301.315064 
L 167.080122 303.577407 
L 167.455848 303.703451 
L 167.831575 296.228589 
L 168.207301 300.966647 
L 168.583028 303.112318 
L 168.958754 302.452965 
L 169.334481 303.332085 
L 169.710208 301.284889 
L 170.085934 301.935017 
L 170.837387 304.152995 
L 171.213114 303.349312 
L 171.58884 301.012589 
L 171.964567 303.505381 
L 172.340294 303.367171 
L 172.71602 300.32584 
L 173.091747 303.027607 
L 173.467473 301.710629 
L 173.8432 303.043182 
L 174.218927 301.661021 
L 174.594653 301.205486 
L 175.346106 303.48863 
L 175.721833 302.987723 
L 176.097559 300.314625 
L 176.473286 302.096057 
L 176.849013 301.121374 
L 177.224739 303.159523 
L 177.600466 303.153583 
L 177.976192 303.583178 
L 178.727645 301.000749 
L 179.103372 303.459407 
L 179.479099 303.759588 
L 179.854825 301.702387 
L 180.230552 302.97691 
L 180.606278 302.953934 
L 180.982005 302.572029 
L 181.357731 303.316749 
L 181.733458 303.150825 
L 182.109185 302.601335 
L 182.484911 302.878341 
L 183.236364 302.709269 
L 183.612091 298.576656 
L 183.987817 303.445786 
L 184.739271 299.946906 
L 185.114997 304.130787 
L 185.490724 303.242349 
L 185.86645 300.902151 
L 186.242177 303.19785 
L 186.617903 302.751419 
L 186.99363 298.673811 
L 187.369357 303.387154 
L 187.745083 302.757502 
L 188.12081 299.44533 
L 188.496536 303.058472 
L 188.872263 300.198183 
L 189.247989 301.757931 
L 189.999443 301.363432 
L 190.375169 302.89034 
L 190.750896 302.012674 
L 191.126622 302.997054 
L 191.502349 302.722168 
L 191.878076 301.912904 
L 192.253802 298.784258 
L 192.629529 301.163209 
L 193.005255 302.755804 
L 193.380982 302.984651 
L 193.756708 302.203233 
L 194.132435 303.182423 
L 194.508162 303.322568 
L 194.883888 299.441867 
L 195.259615 304.248184 
L 195.635341 303.841764 
L 196.011068 301.845946 
L 196.386794 303.380409 
L 196.762521 303.491723 
L 197.138248 302.82932 
L 197.513974 304.165239 
L 197.889701 301.039988 
L 198.265427 301.365974 
L 198.641154 297.494114 
L 199.01688 300.001663 
L 199.392607 304.07078 
L 199.768334 296.369864 
L 200.14406 302.081329 
L 200.895513 303.915519 
L 201.27124 303.581474 
L 201.646966 302.770454 
L 202.022693 303.731148 
L 202.39842 300.866747 
L 202.774146 303.84993 
L 203.149873 302.284393 
L 203.525599 302.317534 
L 203.901326 300.321431 
L 204.277052 303.934714 
L 204.652779 302.654817 
L 205.028506 302.655583 
L 205.404232 303.606804 
L 205.779959 303.142777 
L 206.155685 300.966372 
L 206.531412 301.892494 
L 206.907138 302.358874 
L 207.282865 301.101312 
L 207.658592 303.156931 
L 208.034318 303.384491 
L 208.410045 302.411068 
L 208.785771 303.275132 
L 209.161498 303.087535 
L 209.537225 304.009778 
L 209.912951 300.396635 
L 210.288678 300.36771 
L 210.664404 302.24187 
L 211.040131 302.837347 
L 211.415857 302.410099 
L 211.791584 303.839614 
L 212.167311 298.516985 
L 212.543037 301.772933 
L 212.918764 291.473532 
L 213.29449 301.66928 
L 213.670217 302.129718 
L 214.045943 298.951534 
L 214.42167 303.819038 
L 214.797397 301.735733 
L 215.173123 304.477386 
L 215.54885 301.667916 
L 215.924576 303.042266 
L 216.300303 301.605372 
L 216.676029 303.754369 
L 217.051756 303.539556 
L 217.427483 303.002872 
L 217.803209 300.185157 
L 218.178936 304.347523 
L 218.554662 304.149613 
L 218.930389 301.912478 
L 219.306115 303.156153 
L 219.681842 303.558357 
L 220.057569 302.859641 
L 220.433295 303.247334 
L 220.809022 298.869967 
L 221.184748 303.872829 
L 221.560475 303.27795 
L 221.936201 301.876336 
L 222.311928 302.20247 
L 222.687655 303.066159 
L 223.063381 301.714108 
L 223.439108 301.345174 
L 223.814834 303.373974 
L 224.190561 302.542635 
L 224.566287 303.547703 
L 224.942014 302.834328 
L 225.317741 299.701388 
L 225.693467 302.318106 
L 226.069194 303.806399 
L 226.44492 301.842535 
L 226.820647 301.938452 
L 227.196374 302.652451 
L 227.5721 302.674073 
L 227.947827 300.682199 
L 228.323553 302.358083 
L 228.69928 303.205809 
L 229.075006 303.151104 
L 229.450733 302.326707 
L 229.82646 301.854986 
L 230.202186 303.844326 
L 230.577913 299.492981 
L 230.953639 303.804983 
L 231.705092 303.651657 
L 232.080819 300.118885 
L 232.456546 302.609979 
L 232.832272 302.539548 
L 233.207999 303.077103 
L 233.583725 302.860468 
L 233.959452 303.91728 
L 234.335178 299.923874 
L 234.710905 304.257417 
L 235.086632 303.100981 
L 235.462358 300.376832 
L 235.838085 300.476001 
L 236.213811 303.112237 
L 236.589538 304.322208 
L 236.965264 303.422322 
L 237.340991 300.02891 
L 237.716718 304.464856 
L 238.092444 293.758946 
L 238.468171 302.093587 
L 238.843897 300.917703 
L 239.219624 298.589022 
L 239.59535 303.263574 
L 239.971077 302.24788 
L 240.346804 303.91173 
L 240.72253 304.389981 
L 241.098257 302.303695 
L 241.473983 303.106806 
L 241.84971 303.646689 
L 242.601163 302.696787 
L 242.97689 300.880573 
L 243.352616 303.115323 
L 244.104069 302.203588 
L 244.479796 302.259836 
L 244.855523 301.817552 
L 245.231249 302.166749 
L 245.606976 303.895024 
L 245.982702 300.447834 
L 246.358429 303.671083 
L 246.734155 301.632768 
L 247.485609 302.231637 
L 247.861335 302.160325 
L 248.237062 303.495604 
L 248.612788 302.158897 
L 248.988515 302.511573 
L 249.364241 297.358524 
L 249.739968 302.335944 
L 250.115695 303.103022 
L 250.491421 300.793784 
L 250.867148 300.81403 
L 251.242874 303.669877 
L 251.618601 304.089089 
L 251.994327 301.463865 
L 252.370054 303.479545 
L 252.745781 302.742354 
L 253.121507 302.703994 
L 253.497234 300.956059 
L 253.87296 301.721024 
L 254.248687 303.422533 
L 254.624413 302.298017 
L 255.00014 302.727778 
L 255.375867 301.865531 
L 255.751593 303.063941 
L 256.12732 302.283486 
L 256.503046 303.503019 
L 256.878773 301.597399 
L 257.254499 303.127932 
L 257.630226 300.774407 
L 258.005953 302.442498 
L 258.381679 302.082476 
L 258.757406 301.302113 
L 259.133132 303.930778 
L 259.508859 301.40409 
L 259.884586 303.008623 
L 260.260312 302.926671 
L 260.636039 303.321907 
L 261.011765 303.275182 
L 261.387492 297.974566 
L 261.763218 303.139677 
L 262.138945 303.764361 
L 262.514672 302.243371 
L 262.890398 302.210849 
L 263.266125 302.02884 
L 263.641851 300.01059 
L 264.017578 302.281578 
L 264.393304 302.488144 
L 264.769031 304.287629 
L 265.144758 303.370124 
L 265.520484 295.090506 
L 265.896211 302.252389 
L 266.271937 301.646061 
L 266.647664 301.816889 
L 267.02339 300.889444 
L 267.399117 302.036426 
L 267.774844 304.162176 
L 268.15057 303.095687 
L 268.526297 301.356317 
L 268.902023 303.067284 
L 269.27775 302.347027 
L 269.653476 303.486677 
L 270.029203 302.09247 
L 270.40493 301.579254 
L 270.780656 297.328432 
L 271.156383 301.426569 
L 271.532109 302.928648 
L 271.907836 298.726264 
L 272.283562 303.390144 
L 273.035016 303.308636 
L 273.410742 303.850995 
L 273.786469 301.731169 
L 274.537922 302.070527 
L 274.913648 298.332646 
L 275.665102 300.328361 
L 276.040828 294.53466 
L 276.416555 302.86941 
L 276.792281 303.4242 
L 277.168008 301.674183 
L 277.543735 302.905284 
L 278.295188 302.987656 
L 278.670914 303.347943 
L 279.046641 301.796412 
L 279.422367 300.757056 
L 279.798094 303.962228 
L 280.173821 302.867952 
L 280.549547 300.153975 
L 280.925274 302.892434 
L 281.301 302.15958 
L 281.676727 301.783582 
L 282.052453 304.838182 
L 282.42818 302.622583 
L 282.803907 303.075388 
L 283.179633 301.850818 
L 283.55536 301.967087 
L 283.931086 303.672358 
L 284.306813 304.07987 
L 284.682539 303.744921 
L 285.058266 299.719346 
L 285.433993 303.447016 
L 285.809719 301.30822 
L 286.185446 303.842821 
L 286.561172 301.787423 
L 286.936899 302.109537 
L 287.312625 297.853963 
L 287.688352 302.67561 
L 288.064079 300.73188 
L 288.439805 303.7299 
L 288.815532 300.489466 
L 289.191258 303.901814 
L 289.566985 302.591621 
L 289.942711 299.521067 
L 290.318438 302.539204 
L 290.694165 303.749717 
L 291.069891 302.504732 
L 291.445618 303.083992 
L 291.821344 301.725352 
L 292.197071 303.745306 
L 292.572797 297.771058 
L 292.948524 304.169746 
L 293.324251 304.32312 
L 293.699977 298.761502 
L 294.075704 303.295927 
L 294.45143 304.402747 
L 294.827157 303.340278 
L 295.202884 298.4357 
L 295.57861 303.099351 
L 295.954337 299.894711 
L 296.330063 303.058825 
L 296.70579 297.676099 
L 297.081516 303.153516 
L 297.457243 302.366258 
L 297.83297 300.781625 
L 298.208696 302.565524 
L 298.584423 299.74842 
L 298.960149 302.130534 
L 299.335876 303.111972 
L 299.711602 303.055476 
L 300.087329 303.895692 
L 300.463056 301.139744 
L 300.838782 303.929468 
L 301.214509 303.058649 
L 301.965962 300.555404 
L 302.341688 301.750722 
L 302.717415 303.361451 
L 303.093142 303.482308 
L 303.468868 302.12955 
L 303.844595 300.193216 
L 304.220321 303.075318 
L 304.596048 301.702661 
L 304.971774 302.974297 
L 305.347501 303.783855 
L 305.723228 302.055386 
L 306.098954 303.090866 
L 306.474681 298.033161 
L 306.850407 300.604489 
L 307.226134 304.288561 
L 307.60186 302.052559 
L 308.353314 303.941874 
L 308.72904 300.789032 
L 309.104767 303.901561 
L 309.480493 303.199461 
L 309.85622 303.724488 
L 310.231946 303.884571 
L 310.9834 300.267558 
L 311.359126 302.953041 
L 311.734853 303.202959 
L 312.110579 302.187053 
L 312.486306 303.664967 
L 312.862033 303.716119 
L 313.237759 303.222363 
L 313.613486 300.502564 
L 313.989212 301.716883 
L 314.364939 303.409161 
L 314.740665 302.780348 
L 315.116392 303.002903 
L 315.492119 301.467474 
L 315.867845 303.140723 
L 316.243572 299.281717 
L 316.619298 302.199961 
L 316.995025 300.494326 
L 317.370751 302.779443 
L 317.746478 303.43341 
L 318.122205 303.086346 
L 318.497931 303.141292 
L 318.873658 301.746143 
L 319.249384 304.203672 
L 319.625111 301.851638 
L 320.000837 302.793166 
L 320.376564 302.745187 
L 320.752291 300.378747 
L 321.128017 303.546176 
L 321.503744 301.423952 
L 321.87947 301.165092 
L 322.255197 302.913624 
L 322.630923 302.595808 
L 323.00665 302.503851 
L 323.382377 300.427287 
L 323.758103 303.60575 
L 324.13383 303.664698 
L 324.509556 302.116905 
L 324.885283 303.365136 
L 325.261009 303.912909 
L 325.636736 300.029529 
L 326.012463 301.126735 
L 326.388189 303.637065 
L 326.763916 301.26459 
L 327.139642 303.601039 
L 327.515369 303.737093 
L 327.891096 302.654507 
L 328.266822 304.184514 
L 328.642549 301.551271 
L 329.018275 303.7086 
L 329.769728 300.237241 
L 330.145455 302.742885 
L 330.521182 300.232729 
L 330.896908 300.306836 
L 331.272635 303.190527 
L 331.648361 303.217092 
L 332.024088 302.856066 
L 332.399814 303.600817 
L 332.775541 302.898504 
L 333.151268 301.851321 
L 333.902721 304.385177 
L 334.654174 298.018165 
L 335.0299 303.604299 
L 335.405627 300.313491 
L 335.781354 303.295675 
L 336.15708 302.907772 
L 336.532807 304.04757 
L 336.908533 302.395403 
L 337.28426 303.299147 
L 337.659986 301.008248 
L 338.035713 303.818115 
L 338.41144 301.904998 
L 339.162893 304.138328 
L 339.914346 303.344356 
L 340.290072 302.258951 
L 340.665799 301.916783 
L 341.041526 302.31464 
L 341.417252 301.809855 
L 341.792979 301.608865 
L 342.168705 301.840181 
L 342.544432 303.342503 
L 342.920158 303.028494 
L 343.295885 303.305987 
L 343.671612 301.698956 
L 344.047338 302.688818 
L 344.423065 304.296598 
L 344.798791 303.581263 
L 345.174518 303.816864 
L 345.550245 301.815561 
L 345.925971 302.155653 
L 346.301698 301.685157 
L 346.677424 302.282236 
L 347.053151 302.639105 
L 347.428877 302.682492 
L 347.804604 299.757728 
L 348.180331 301.590845 
L 348.556057 301.426818 
L 348.931784 303.701909 
L 349.683237 302.774205 
L 350.058963 303.503126 
L 350.43469 302.427189 
L 350.810417 302.519566 
L 351.186143 302.872155 
L 351.56187 301.184834 
L 351.937596 301.799045 
L 352.313323 303.361493 
L 352.689049 302.497734 
L 353.064776 300.972478 
L 353.440503 303.01707 
L 353.816229 303.527329 
L 354.567682 299.970527 
L 354.943409 303.039916 
L 355.319135 298.681308 
L 355.694862 303.391839 
L 356.446315 301.718513 
L 356.822042 303.684419 
L 357.197768 302.781943 
L 357.573495 302.95767 
L 357.949221 301.558228 
L 358.324948 301.508978 
L 358.700675 301.709179 
L 359.452128 304.171837 
L 359.827854 302.54409 
L 360.203581 303.66421 
L 360.579307 303.258368 
L 360.955034 303.630862 
L 361.330761 302.01986 
L 361.706487 299.104548 
L 362.082214 300.17054 
L 362.45794 300.156386 
L 362.833667 303.28444 
L 363.58512 303.893116 
L 363.960847 298.375579 
L 364.336573 303.630091 
L 364.7123 303.89326 
L 365.088026 302.762387 
L 365.463753 303.89807 
L 365.83948 302.49349 
L 366.215206 303.04887 
L 366.590933 302.291854 
L 366.966659 303.109715 
L 367.342386 302.178172 
L 368.093839 302.658753 
L 368.845292 303.823971 
L 369.221019 301.378137 
L 369.596745 303.908928 
L 369.972472 300.811334 
L 370.348198 303.874887 
L 370.723925 304.305924 
L 371.099652 298.885782 
L 371.475378 303.788534 
L 371.851105 301.614715 
L 372.226831 303.263174 
L 372.602558 300.756206 
L 372.978284 303.259599 
L 373.729738 302.582436 
L 374.105464 300.477266 
L 374.481191 301.441382 
L 374.856917 302.038889 
L 375.232644 303.030396 
L 375.60837 300.521662 
L 375.984097 302.33406 
L 376.359824 300.919632 
L 376.73555 302.616987 
L 377.111277 302.208397 
L 377.86273 303.32383 
L 378.238456 302.613921 
L 378.614183 303.802431 
L 378.98991 301.978471 
L 379.365636 302.73201 
L 379.741363 301.889283 
L 380.117089 302.264178 
L 380.492816 302.954644 
L 380.868543 302.799204 
L 381.244269 303.264521 
L 381.619996 301.407266 
L 381.995722 303.561419 
L 382.371449 303.869514 
L 382.747175 297.690072 
L 383.122902 301.279851 
L 383.498629 302.064977 
L 383.874355 303.343225 
L 384.250082 302.343944 
L 384.625808 303.126692 
L 385.001535 303.476407 
L 385.377261 301.900449 
L 385.752988 301.919077 
L 386.128715 304.105957 
L 386.504441 299.760997 
L 386.880168 303.291862 
L 387.255894 301.464413 
L 387.631621 303.522679 
L 388.007347 303.024556 
L 388.758801 303.959299 
L 389.134527 301.9555 
L 389.510254 300.677473 
L 389.88598 303.884997 
L 390.261707 304.563713 
L 390.637433 303.078524 
L 391.01316 299.422497 
L 391.388887 304.126206 
L 391.764613 298.192782 
L 392.14034 302.882392 
L 392.516066 302.768214 
L 392.891793 303.489216 
L 393.267519 302.221526 
L 393.643246 302.297076 
L 394.018973 302.872769 
L 394.394699 302.21708 
L 394.770426 302.758767 
L 395.146152 303.87328 
L 395.521879 303.957112 
L 395.897605 301.592429 
L 396.273332 302.859697 
L 396.649059 302.600389 
L 397.024785 301.245249 
L 397.400512 303.64822 
L 397.776238 300.871291 
L 398.151965 301.495644 
L 398.527692 302.953551 
L 398.903418 302.537736 
L 399.279145 304.046601 
L 399.654871 302.913027 
L 400.030598 297.676662 
L 400.406324 304.063738 
L 400.782051 303.517804 
L 401.157778 304.305862 
L 401.533504 303.056484 
L 401.909231 300.018282 
L 402.284957 303.727588 
L 402.660684 303.644841 
L 403.03641 301.988987 
L 403.412137 303.426663 
L 404.16359 302.617871 
L 404.539317 300.570368 
L 405.29077 304.54432 
L 405.666496 303.12428 
L 406.042223 301.165782 
L 406.41795 302.455868 
L 406.793676 304.569857 
L 407.169403 302.152831 
L 407.545129 300.880993 
L 407.920856 302.337632 
L 408.296582 303.210522 
L 409.048036 303.576977 
L 409.423762 304.572368 
L 410.175215 302.681656 
L 410.550942 304.539097 
L 410.926668 303.195415 
L 411.302395 303.540171 
L 411.678122 302.950272 
L 412.053848 303.523629 
L 412.429575 302.694987 
L 413.181028 303.506592 
L 413.556755 301.713414 
L 413.932481 302.506109 
L 414.308208 301.677656 
L 414.683934 303.462422 
L 415.059661 303.332572 
L 415.435387 303.543862 
L 415.811114 304.232716 
L 416.186841 304.278184 
L 416.562567 299.661482 
L 416.938294 298.939981 
L 417.31402 302.293126 
L 417.689747 301.436589 
L 418.065473 300.279277 
L 418.4412 301.399622 
L 418.816927 299.164397 
L 419.56838 303.288799 
L 419.944106 302.808515 
L 420.319833 303.150917 
L 420.695559 303.173617 
L 421.071286 304.097933 
L 421.822739 302.92992 
L 422.198466 303.345422 
L 422.574192 302.244424 
L 422.949919 300.265698 
L 423.325645 303.388129 
L 423.701372 304.546648 
L 424.077099 303.330418 
L 424.452825 303.966019 
L 424.828552 299.504213 
L 425.204278 301.71853 
L 425.580005 301.928718 
L 425.955731 302.449319 
L 426.331458 300.90189 
L 426.707185 303.551506 
L 427.082911 302.620603 
L 427.458638 298.6271 
L 427.834364 303.580719 
L 428.210091 303.149913 
L 428.961544 303.772573 
L 429.337271 303.870597 
L 429.712997 301.930846 
L 430.088724 304.583894 
L 430.46445 302.891817 
L 430.840177 303.392854 
L 431.59163 300.39289 
L 431.967357 301.622777 
L 432.343083 300.80345 
L 432.71881 300.503482 
L 433.094536 301.593745 
L 433.470263 303.96653 
L 433.84599 302.979903 
L 434.221716 302.52422 
L 434.597443 300.8066 
L 434.973169 300.25053 
L 435.348896 303.480134 
L 436.100349 301.776443 
L 436.476076 303.124569 
L 437.227529 304.417893 
L 437.603255 301.819119 
L 437.978982 302.843175 
L 438.354708 301.170267 
L 438.730435 301.555942 
L 439.106162 303.893325 
L 439.481888 303.345895 
L 439.857615 304.073178 
L 440.233341 303.024451 
L 440.609068 304.361651 
L 440.984794 300.810209 
L 441.360521 303.088622 
L 441.736248 304.232888 
L 442.111974 304.159197 
L 442.487701 301.802221 
L 442.863427 302.367529 
L 443.239154 303.155347 
L 443.61488 304.437018 
L 443.990607 299.94608 
L 444.366334 301.970686 
L 444.74206 302.185954 
L 445.117787 297.771603 
L 445.493513 303.154809 
L 445.86924 303.282644 
L 446.244966 302.828525 
L 446.620693 301.057832 
L 446.99642 303.800374 
L 447.372146 301.76019 
L 447.747873 303.715659 
L 448.123599 303.11426 
L 448.875053 300.848081 
L 449.250779 301.175419 
L 449.626506 303.323346 
L 450.002232 302.590283 
L 450.377959 301.264283 
L 450.753685 303.643159 
L 451.129412 301.836968 
L 451.505139 302.642894 
L 451.880865 302.148812 
L 452.256592 299.861174 
L 452.632318 302.975506 
L 453.008045 303.796997 
L 453.383771 302.518827 
L 453.759498 303.313871 
L 454.135225 302.925315 
L 454.510951 303.807106 
L 454.886678 303.848663 
L 455.262404 304.378194 
L 455.638131 302.353891 
L 456.013857 301.009403 
L 456.389584 301.823691 
L 456.765311 302.184136 
L 457.141037 301.572387 
L 457.89249 303.690108 
L 458.268217 303.883755 
L 459.01967 302.925242 
L 459.395397 303.830924 
L 459.771123 303.995129 
L 460.14685 300.74196 
L 460.898303 304.213885 
L 461.274029 299.942195 
L 461.649756 304.319171 
L 462.025483 303.971611 
L 462.401209 304.014285 
L 462.776936 303.022123 
L 463.152662 302.476259 
L 463.904115 303.590115 
L 464.279842 302.034076 
L 464.655569 299.578157 
L 465.031295 302.339526 
L 465.407022 301.519885 
L 465.782748 303.185292 
L 466.158475 304.227315 
L 466.534202 300.499533 
L 466.909928 303.717507 
L 467.285655 302.283042 
L 467.661381 302.577646 
L 468.412834 303.857473 
L 468.788561 297.827694 
L 469.164288 302.600041 
L 469.540014 303.79917 
L 470.291467 297.74321 
L 470.667194 302.841911 
L 471.04292 302.41783 
L 471.418647 302.848935 
L 471.794374 303.980739 
L 472.1701 303.47655 
L 472.545827 302.214707 
L 472.921553 302.854104 
L 473.29728 304.444514 
L 473.673006 304.273378 
L 474.048733 301.476988 
L 474.42446 302.545062 
L 474.800186 302.859066 
L 475.175913 302.796846 
L 475.551639 302.444333 
L 475.927366 301.909203 
L 476.678819 298.502941 
L 477.054546 303.510621 
L 477.430272 302.18729 
L 477.805999 301.651093 
L 478.181725 303.931834 
L 478.557452 301.35508 
L 478.933178 303.523704 
L 479.308905 301.321701 
L 479.684632 301.676089 
L 480.060358 304.230727 
L 480.436085 303.546902 
L 480.811811 301.400733 
L 481.187538 301.327359 
L 481.563265 298.28319 
L 481.938991 303.844254 
L 482.314718 303.759937 
L 482.690444 304.12176 
L 483.066171 303.254808 
L 483.441897 297.414817 
L 483.817624 302.630652 
L 484.193351 301.5222 
L 484.569077 304.295826 
L 484.944804 302.153576 
L 485.32053 304.311169 
L 485.696257 303.355244 
L 486.071983 304.049425 
L 486.823437 302.704723 
L 487.199163 304.02534 
L 487.57489 304.766701 
L 487.950616 303.160477 
L 488.326343 300.586951 
L 488.702069 299.016088 
L 489.077796 303.196767 
L 489.453523 304.311407 
L 489.829249 302.451594 
L 490.204976 303.974027 
L 490.580702 301.970908 
L 490.956429 297.962419 
L 491.332155 302.668967 
L 491.707882 303.304729 
L 492.083609 303.481065 
L 492.459335 303.374828 
L 492.835062 303.404467 
L 493.210788 303.976294 
L 493.586515 302.70981 
L 493.962241 303.593546 
L 494.337968 301.328926 
L 494.713695 303.149496 
L 495.089421 300.072137 
L 495.840874 302.683479 
L 496.216601 302.844125 
L 496.592327 304.169888 
L 496.968054 303.134356 
L 497.343781 301.000852 
L 497.719507 301.754263 
L 498.095234 302.045407 
L 498.47096 300.981602 
L 498.846687 302.113631 
L 499.222414 304.074889 
L 499.59814 303.95212 
L 499.973867 302.553029 
L 500.349593 303.405214 
L 500.72532 303.625925 
L 501.101046 301.253852 
L 501.476773 303.952913 
L 501.8525 303.527879 
L 502.228226 302.649403 
L 502.603953 302.859862 
L 502.979679 302.432796 
L 503.355406 304.356094 
L 503.731132 304.38708 
L 504.106859 302.31881 
L 504.482586 304.204467 
L 505.985492 302.20016 
L 506.361218 303.54585 
L 506.736945 303.030245 
L 507.112672 303.287226 
L 507.488398 304.626582 
L 507.864125 302.214889 
L 508.239851 301.731508 
L 508.615578 303.478452 
L 508.991304 304.678329 
L 509.367031 303.218633 
L 509.742758 304.386699 
L 510.118484 303.291596 
L 510.494211 303.469137 
L 510.869937 302.015207 
L 511.245664 298.369466 
L 511.62139 303.49413 
L 511.997117 301.264176 
L 512.372844 300.388224 
L 512.74857 303.678943 
L 513.124297 302.383627 
L 513.500023 303.682986 
L 513.87575 303.06033 
L 514.251476 301.839845 
L 514.627203 304.13122 
L 515.00293 303.579473 
L 515.378656 304.359962 
L 515.754383 300.428967 
L 516.130109 304.02411 
L 516.505836 300.330043 
L 517.257289 301.885407 
L 517.633016 304.634958 
L 518.008742 301.02514 
L 518.384469 304.672416 
L 518.760195 303.928492 
L 519.135922 302.465646 
L 519.511649 303.067354 
L 519.887375 302.839539 
L 520.263102 303.842345 
L 520.638828 303.548934 
L 521.014555 303.099181 
L 521.390281 303.043827 
L 521.766008 303.829788 
L 522.141735 302.900936 
L 522.517461 303.740334 
L 522.893188 303.538265 
L 523.268914 298.318685 
L 523.644641 301.982278 
L 524.020367 303.990392 
L 524.396094 302.641947 
L 524.771821 304.368727 
L 525.147547 302.271425 
L 525.523274 303.614057 
L 525.899 303.543025 
L 526.274727 302.482757 
L 526.650453 303.972658 
L 527.02618 301.669415 
L 527.401907 303.595211 
L 527.777633 299.367552 
L 528.15336 303.91805 
L 528.529086 301.88946 
L 528.904813 301.789776 
L 529.280539 301.185878 
L 529.656266 302.487388 
L 530.031993 301.343827 
L 530.407719 302.950173 
L 530.783446 300.612285 
L 531.159172 303.246851 
L 531.910625 303.030914 
L 532.286352 303.656871 
L 532.662079 301.610766 
L 533.037805 301.110052 
L 533.413532 299.122585 
L 533.789258 303.32954 
L 534.540712 304.737981 
L 534.916438 299.69266 
L 535.292165 298.766406 
L 535.667891 304.112248 
L 536.043618 302.462608 
L 536.419344 301.961793 
L 537.170798 303.693434 
L 537.922251 302.521079 
L 538.297977 303.053925 
L 538.673704 300.14459 
L 539.04943 298.644181 
L 539.425157 301.873302 
L 539.800884 302.897034 
L 540.17661 300.12377 
L 540.552337 303.020422 
L 540.928063 303.812069 
L 541.30379 297.917662 
L 541.679516 302.87252 
L 542.055243 303.664127 
L 542.055243 303.664127 
" clip-path="url(#p32f0bbe14c)" style="fill: none; stroke: #ff7f0e; stroke-width: 2; stroke-linecap: square"/>
   </g>
   <g id="patch_3">
    <path d="M 56.015346 318.04 
L 56.015346 27.6 
" style="fill: none; stroke: #000000; stroke-width: 0.8; stroke-linejoin: miter; stroke-linecap: square"/>
   </g>
   <g id="patch_4">
    <path d="M 565.2 318.04 
L 565.2 27.6 
" style="fill: none; stroke: #000000; stroke-width: 0.8; stroke-linejoin: miter; stroke-linecap: square"/>
   </g>
   <g id="patch_5">
    <path d="M 56.015346 318.04 
L 565.2 318.04 
" style="fill: none; stroke: #000000; stroke-width: 0.8; stroke-linejoin: miter; stroke-linecap: square"/>
   </g>
   <g id="patch_6">
    <path d="M 56.015346 27.6 
L 565.2 27.6 
" style="fill: none; stroke: #000000; stroke-width: 0.8; stroke-linejoin: miter; stroke-linecap: square"/>
   </g>
   <g id="text_15">
    <!-- Evolucin del Loss por poca -->
    <g transform="translate(223.534548 21.6) scale(0.12 -0.12)">
     <defs>
      <path id="DejaVuSans-76" d="M 191 3500 
L 800 3500 
L 1894 563 
L 2988 3500 
L 3597 3500 
L 2284 0 
L 1503 0 
L 191 3500 
z
" transform="scale(0.015625)"/>
      <path id="DejaVuSans-6c" d="M 603 4863 
L 1178 4863 
L 1178 0 
L 603 0 
L 603 4863 
z
" transform="scale(0.015625)"/>
      <path id="DejaVuSans-75" d="M 544 1381 
L 544 3500 
L 1119 3500 
L 1119 1403 
Q 1119 906 1312 657 
Q 1506 409 1894 409 
Q 2359 409 2629 706 
Q 2900 1003 2900 1516 
L 2900 3500 
L 3475 3500 
L 3475 0 
L 2900 0 
L 2900 538 
Q 2691 219 2414 64 
Q 2138 -91 1772 -91 
Q 1169 -91 856 284 
Q 544 659 544 1381 
z
M 1991 3584 
L 1991 3584 
z
" transform="scale(0.015625)"/>
      <path id="DejaVuSans-69" d="M 603 3500 
L 1178 3500 
L 1178 0 
L 603 0 
L 603 3500 
z
M 603 4863 
L 1178 4863 
L 1178 4134 
L 603 4134 
L 603 4863 
z
" transform="scale(0.015625)"/>
      <path id="DejaVuSans-f3" d="M 1959 3097 
Q 1497 3097 1228 2736 
Q 959 2375 959 1747 
Q 959 1119 1226 758 
Q 1494 397 1959 397 
Q 2419 397 2687 759 
Q 2956 1122 2956 1747 
Q 2956 2369 2687 2733 
Q 2419 3097 1959 3097 
z
M 1959 3584 
Q 2709 3584 3137 3096 
Q 3566 2609 3566 1747 
Q 3566 888 3137 398 
Q 2709 -91 1959 -91 
Q 1206 -91 779 398 
Q 353 888 353 1747 
Q 353 2609 779 3096 
Q 1206 3584 1959 3584 
z
M 2394 5119 
L 3016 5119 
L 1997 3944 
L 1519 3944 
L 2394 5119 
z
" transform="scale(0.015625)"/>
      <path id="DejaVuSans-6e" d="M 3513 2113 
L 3513 0 
L 2938 0 
L 2938 2094 
Q 2938 2591 2744 2837 
Q 2550 3084 2163 3084 
Q 1697 3084 1428 2787 
Q 1159 2491 1159 1978 
L 1159 0 
L 581 0 
L 581 3500 
L 1159 3500 
L 1159 2956 
Q 1366 3272 1645 3428 
Q 1925 3584 2291 3584 
Q 2894 3584 3203 3211 
Q 3513 2838 3513 2113 
z
" transform="scale(0.015625)"/>
      <path id="DejaVuSans-64" d="M 2906 2969 
L 2906 4863 
L 3481 4863 
L 3481 0 
L 2906 0 
L 2906 525 
Q 2725 213 2448 61 
Q 2172 -91 1784 -91 
Q 1150 -91 751 415 
Q 353 922 353 1747 
Q 353 2572 751 3078 
Q 1150 3584 1784 3584 
Q 2172 3584 2448 3432 
Q 2725 3281 2906 2969 
z
M 947 1747 
Q 947 1113 1208 752 
Q 1469 391 1925 391 
Q 2381 391 2643 752 
Q 2906 1113 2906 1747 
Q 2906 2381 2643 2742 
Q 2381 3103 1925 3103 
Q 1469 3103 1208 2742 
Q 947 2381 947 1747 
z
" transform="scale(0.015625)"/>
      <path id="DejaVuSans-65" d="M 3597 1894 
L 3597 1613 
L 953 1613 
Q 991 1019 1311 708 
Q 1631 397 2203 397 
Q 2534 397 2845 478 
Q 3156 559 3463 722 
L 3463 178 
Q 3153 47 2828 -22 
Q 2503 -91 2169 -91 
Q 1331 -91 842 396 
Q 353 884 353 1716 
Q 353 2575 817 3079 
Q 1281 3584 2069 3584 
Q 2775 3584 3186 3129 
Q 3597 2675 3597 1894 
z
M 3022 2063 
Q 3016 2534 2758 2815 
Q 2500 3097 2075 3097 
Q 1594 3097 1305 2825 
Q 1016 2553 972 2059 
L 3022 2063 
z
" transform="scale(0.015625)"/>
      <path id="DejaVuSans-72" d="M 2631 2963 
Q 2534 3019 2420 3045 
Q 2306 3072 2169 3072 
Q 1681 3072 1420 2755 
Q 1159 2438 1159 1844 
L 1159 0 
L 581 0 
L 581 3500 
L 1159 3500 
L 1159 2956 
Q 1341 3275 1631 3429 
Q 1922 3584 2338 3584 
Q 2397 3584 2469 3576 
Q 2541 3569 2628 3553 
L 2631 2963 
z
" transform="scale(0.015625)"/>
      <path id="DejaVuSans-c9" d="M 628 4666 
L 3578 4666 
L 3578 4134 
L 1259 4134 
L 1259 2753 
L 3481 2753 
L 3481 2222 
L 1259 2222 
L 1259 531 
L 3634 531 
L 3634 0 
L 628 0 
L 628 4666 
z
M 2266 5935 
L 2844 5935 
L 2131 5110 
L 1653 5110 
L 2266 5935 
z
" transform="scale(0.015625)"/>
      <path id="DejaVuSans-61" d="M 2194 1759 
Q 1497 1759 1228 1600 
Q 959 1441 959 1056 
Q 959 750 1161 570 
Q 1363 391 1709 391 
Q 2188 391 2477 730 
Q 2766 1069 2766 1631 
L 2766 1759 
L 2194 1759 
z
M 3341 1997 
L 3341 0 
L 2766 0 
L 2766 531 
Q 2569 213 2275 61 
Q 1981 -91 1556 -91 
Q 1019 -91 701 211 
Q 384 513 384 1019 
Q 384 1609 779 1909 
Q 1175 2209 1959 2209 
L 2766 2209 
L 2766 2266 
Q 2766 2663 2505 2880 
Q 2244 3097 1772 3097 
Q 1472 3097 1187 3025 
Q 903 2953 641 2809 
L 641 3341 
Q 956 3463 1253 3523 
Q 1550 3584 1831 3584 
Q 2591 3584 2966 3190 
Q 3341 2797 3341 1997 
z
" transform="scale(0.015625)"/>
     </defs>
     <use xlink:href="#DejaVuSans-45"/>
     <use xlink:href="#DejaVuSans-76" transform="translate(63.183594 0)"/>
     <use xlink:href="#DejaVuSans-6f" transform="translate(122.363281 0)"/>
     <use xlink:href="#DejaVuSans-6c" transform="translate(183.544922 0)"/>
     <use xlink:href="#DejaVuSans-75" transform="translate(211.328125 0)"/>
     <use xlink:href="#DejaVuSans-63" transform="translate(274.707031 0)"/>
     <use xlink:href="#DejaVuSans-69" transform="translate(329.6875 0)"/>
     <use xlink:href="#DejaVuSans-f3" transform="translate(357.470703 0)"/>
     <use xlink:href="#DejaVuSans-6e" transform="translate(418.652344 0)"/>
     <use xlink:href="#DejaVuSans-20" transform="translate(482.03125 0)"/>
     <use xlink:href="#DejaVuSans-64" transform="translate(513.818359 0)"/>
     <use xlink:href="#DejaVuSans-65" transform="translate(577.294922 0)"/>
     <use xlink:href="#DejaVuSans-6c" transform="translate(638.818359 0)"/>
     <use xlink:href="#DejaVuSans-20" transform="translate(666.601562 0)"/>
     <use xlink:href="#DejaVuSans-4c" transform="translate(698.388672 0)"/>
     <use xlink:href="#DejaVuSans-6f" transform="translate(752.351562 0)"/>
     <use xlink:href="#DejaVuSans-73" transform="translate(813.533203 0)"/>
     <use xlink:href="#DejaVuSans-73" transform="translate(865.632812 0)"/>
     <use xlink:href="#DejaVuSans-20" transform="translate(917.732422 0)"/>
     <use xlink:href="#DejaVuSans-70" transform="translate(949.519531 0)"/>
     <use xlink:href="#DejaVuSans-6f" transform="translate(1012.996094 0)"/>
     <use xlink:href="#DejaVuSans-72" transform="translate(1074.177734 0)"/>
     <use xlink:href="#DejaVuSans-20" transform="translate(1115.291016 0)"/>
     <use xlink:href="#DejaVuSans-c9" transform="translate(1147.078125 0)"/>
     <use xlink:href="#DejaVuSans-70" transform="translate(1210.261719 0)"/>
     <use xlink:href="#DejaVuSans-6f" transform="translate(1273.738281 0)"/>
     <use xlink:href="#DejaVuSans-63" transform="translate(1334.919922 0)"/>
     <use xlink:href="#DejaVuSans-61" transform="translate(1389.900391 0)"/>
    </g>
   </g>
   <g id="legend_1">
    <g id="patch_7">
     <path d="M 453.839062 64.95625 
L 558.2 64.95625 
Q 560.2 64.95625 560.2 62.95625 
L 560.2 34.6 
Q 560.2 32.6 558.2 32.6 
L 453.839062 32.6 
Q 451.839062 32.6 451.839062 34.6 
L 451.839062 62.95625 
Q 451.839062 64.95625 453.839062 64.95625 
z
" style="fill: #ffffff; opacity: 0.8; stroke: #cccccc; stroke-linejoin: miter"/>
    </g>
    <g id="line2d_55">
     <path d="M 455.839062 40.698438 
L 465.839062 40.698438 
L 475.839062 40.698438 
" style="fill: none; stroke: #1f77b4; stroke-width: 2; stroke-linecap: square"/>
    </g>
    <g id="text_16">
     <!-- Train Loss -->
     <g transform="translate(483.839062 44.198438) scale(0.1 -0.1)">
      <defs>
       <path id="DejaVuSans-54" d="M -19 4666 
L 3928 4666 
L 3928 4134 
L 2272 4134 
L 2272 0 
L 1638 0 
L 1638 4134 
L -19 4134 
L -19 4666 
z
" transform="scale(0.015625)"/>
      </defs>
      <use xlink:href="#DejaVuSans-54"/>
      <use xlink:href="#DejaVuSans-72" transform="translate(46.333984 0)"/>
      <use xlink:href="#DejaVuSans-61" transform="translate(87.447266 0)"/>
      <use xlink:href="#DejaVuSans-69" transform="translate(148.726562 0)"/>
      <use xlink:href="#DejaVuSans-6e" transform="translate(176.509766 0)"/>
      <use xlink:href="#DejaVuSans-20" transform="translate(239.888672 0)"/>
      <use xlink:href="#DejaVuSans-4c" transform="translate(271.675781 0)"/>
      <use xlink:href="#DejaVuSans-6f" transform="translate(325.638672 0)"/>
      <use xlink:href="#DejaVuSans-73" transform="translate(386.820312 0)"/>
      <use xlink:href="#DejaVuSans-73" transform="translate(438.919922 0)"/>
     </g>
    </g>
    <g id="line2d_56">
     <path d="M 455.839062 55.376563 
L 465.839062 55.376563 
L 475.839062 55.376563 
" style="fill: none; stroke: #ff7f0e; stroke-width: 2; stroke-linecap: square"/>
    </g>
    <g id="text_17">
     <!-- Val Loss (MSE) -->
     <g transform="translate(483.839062 58.876563) scale(0.1 -0.1)">
      <defs>
       <path id="DejaVuSans-56" d="M 1831 0 
L 50 4666 
L 709 4666 
L 2188 738 
L 3669 4666 
L 4325 4666 
L 2547 0 
L 1831 0 
z
" transform="scale(0.015625)"/>
       <path id="DejaVuSans-28" d="M 1984 4856 
Q 1566 4138 1362 3434 
Q 1159 2731 1159 2009 
Q 1159 1288 1364 580 
Q 1569 -128 1984 -844 
L 1484 -844 
Q 1016 -109 783 600 
Q 550 1309 550 2009 
Q 550 2706 781 3412 
Q 1013 4119 1484 4856 
L 1984 4856 
z
" transform="scale(0.015625)"/>
       <path id="DejaVuSans-29" d="M 513 4856 
L 1013 4856 
Q 1481 4119 1714 3412 
Q 1947 2706 1947 2009 
Q 1947 1309 1714 600 
Q 1481 -109 1013 -844 
L 513 -844 
Q 928 -128 1133 580 
Q 1338 1288 1338 2009 
Q 1338 2731 1133 3434 
Q 928 4138 513 4856 
z
" transform="scale(0.015625)"/>
      </defs>
      <use xlink:href="#DejaVuSans-56"/>
      <use xlink:href="#DejaVuSans-61" transform="translate(60.658203 0)"/>
      <use xlink:href="#DejaVuSans-6c" transform="translate(121.9375 0)"/>
      <use xlink:href="#DejaVuSans-20" transform="translate(149.720703 0)"/>
      <use xlink:href="#DejaVuSans-4c" transform="translate(181.507812 0)"/>
      <use xlink:href="#DejaVuSans-6f" transform="translate(235.470703 0)"/>
      <use xlink:href="#DejaVuSans-73" transform="translate(296.652344 0)"/>
      <use xlink:href="#DejaVuSans-73" transform="translate(348.751953 0)"/>
      <use xlink:href="#DejaVuSans-20" transform="translate(400.851562 0)"/>
      <use xlink:href="#DejaVuSans-28" transform="translate(432.638672 0)"/>
      <use xlink:href="#DejaVuSans-4d" transform="translate(471.652344 0)"/>
      <use xlink:href="#DejaVuSans-53" transform="translate(557.931641 0)"/>
      <use xlink:href="#DejaVuSans-45" transform="translate(621.408203 0)"/>
      <use xlink:href="#DejaVuSans-29" transform="translate(684.591797 0)"/>
     </g>
    </g>
   </g>
  </g>
 </g>
 <defs>
  <clipPath id="p32f0bbe14c">
   <rect x="56.015346" y="27.6" width="509.184654" height="290.44"/>
  </clipPath>
 </defs>
</svg>
