<?xml version="1.0" encoding="utf-8" standalone="no"?>
<!DOCTYPE svg PUBLIC "-//W3C//DTD SVG 1.1//EN"
  "http://www.w3.org/Graphics/SVG/1.1/DTD/svg11.dtd">
<svg xmlns:xlink="http://www.w3.org/1999/xlink" width="576pt" height="360pt" viewBox="0 0 576 360" xmlns="http://www.w3.org/2000/svg" version="1.1">
 <metadata>
  <rdf:RDF xmlns:dc="http://purl.org/dc/elements/1.1/" xmlns:cc="http://creativecommons.org/ns#" xmlns:rdf="http://www.w3.org/1999/02/22-rdf-syntax-ns#">
   <cc:Work>
    <dc:type rdf:resource="http://purl.org/dc/dcmitype/StillImage"/>
    <dc:date>2025-04-25T12:21:18.361843</dc:date>
    <dc:format>image/svg+xml</dc:format>
    <dc:creator>
     <cc:Agent>
      <dc:title>Matplotlib v3.10.1, https://matplotlib.org/</dc:title>
     </cc:Agent>
    </dc:creator>
   </cc:Work>
  </rdf:RDF>
 </metadata>
 <defs>
  <style type="text/css">*{stroke-linejoin: round; stroke-linecap: butt}</style>
 </defs>
 <g id="figure_1">
  <g id="patch_1">
   <path d="M 0 360 
L 576 360 
L 576 0 
L 0 0 
z
" style="fill: #ffffff"/>
  </g>
  <g id="axes_1">
   <g id="patch_2">
    <path d="M 55.880346 318.04 
L 565.2 318.04 
L 565.2 27.6 
L 55.880346 27.6 
z
" style="fill: #ffffff"/>
   </g>
   <g id="matplotlib.axis_1">
    <g id="xtick_1">
     <g id="line2d_1">
      <path d="M 79.031239 318.04 
L 79.031239 27.6 
" clip-path="url(#pe54d813fda)" style="fill: none; stroke: #b0b0b0; stroke-width: 0.8; stroke-linecap: square"/>
     </g>
     <g id="line2d_2">
      <defs>
       <path id="mc3405f0107" d="M 0 0 
L 0 3.5 
" style="stroke: #000000; stroke-width: 0.8"/>
      </defs>
      <g>
       <use xlink:href="#mc3405f0107" x="79.031239" y="318.04" style="stroke: #000000; stroke-width: 0.8"/>
      </g>
     </g>
     <g id="text_1">
      <!-- 0 -->
      <g transform="translate(75.849989 332.638438) scale(0.1 -0.1)">
       <defs>
        <path id="DejaVuSans-30" d="M 2034 4250 
Q 1547 4250 1301 3770 
Q 1056 3291 1056 2328 
Q 1056 1369 1301 889 
Q 1547 409 2034 409 
Q 2525 409 2770 889 
Q 3016 1369 3016 2328 
Q 3016 3291 2770 3770 
Q 2525 4250 2034 4250 
z
M 2034 4750 
Q 2819 4750 3233 4129 
Q 3647 3509 3647 2328 
Q 3647 1150 3233 529 
Q 2819 -91 2034 -91 
Q 1250 -91 836 529 
Q 422 1150 422 2328 
Q 422 3509 836 4129 
Q 1250 4750 2034 4750 
z
" transform="scale(0.015625)"/>
       </defs>
       <use xlink:href="#DejaVuSans-30"/>
      </g>
     </g>
    </g>
    <g id="xtick_2">
     <g id="line2d_3">
      <path d="M 146.625089 318.04 
L 146.625089 27.6 
" clip-path="url(#pe54d813fda)" style="fill: none; stroke: #b0b0b0; stroke-width: 0.8; stroke-linecap: square"/>
     </g>
     <g id="line2d_4">
      <g>
       <use xlink:href="#mc3405f0107" x="146.625089" y="318.04" style="stroke: #000000; stroke-width: 0.8"/>
      </g>
     </g>
     <g id="text_2">
      <!-- 80 -->
      <g transform="translate(140.262589 332.638438) scale(0.1 -0.1)">
       <defs>
        <path id="DejaVuSans-38" d="M 2034 2216 
Q 1584 2216 1326 1975 
Q 1069 1734 1069 1313 
Q 1069 891 1326 650 
Q 1584 409 2034 409 
Q 2484 409 2743 651 
Q 3003 894 3003 1313 
Q 3003 1734 2745 1975 
Q 2488 2216 2034 2216 
z
M 1403 2484 
Q 997 2584 770 2862 
Q 544 3141 544 3541 
Q 544 4100 942 4425 
Q 1341 4750 2034 4750 
Q 2731 4750 3128 4425 
Q 3525 4100 3525 3541 
Q 3525 3141 3298 2862 
Q 3072 2584 2669 2484 
Q 3125 2378 3379 2068 
Q 3634 1759 3634 1313 
Q 3634 634 3220 271 
Q 2806 -91 2034 -91 
Q 1263 -91 848 271 
Q 434 634 434 1313 
Q 434 1759 690 2068 
Q 947 2378 1403 2484 
z
M 1172 3481 
Q 1172 3119 1398 2916 
Q 1625 2713 2034 2713 
Q 2441 2713 2670 2916 
Q 2900 3119 2900 3481 
Q 2900 3844 2670 4047 
Q 2441 4250 2034 4250 
Q 1625 4250 1398 4047 
Q 1172 3844 1172 3481 
z
" transform="scale(0.015625)"/>
       </defs>
       <use xlink:href="#DejaVuSans-38"/>
       <use xlink:href="#DejaVuSans-30" transform="translate(63.623047 0)"/>
      </g>
     </g>
    </g>
    <g id="xtick_3">
     <g id="line2d_5">
      <path d="M 214.218938 318.04 
L 214.218938 27.6 
" clip-path="url(#pe54d813fda)" style="fill: none; stroke: #b0b0b0; stroke-width: 0.8; stroke-linecap: square"/>
     </g>
     <g id="line2d_6">
      <g>
       <use xlink:href="#mc3405f0107" x="214.218938" y="318.04" style="stroke: #000000; stroke-width: 0.8"/>
      </g>
     </g>
     <g id="text_3">
      <!-- 160 -->
      <g transform="translate(204.675188 332.638438) scale(0.1 -0.1)">
       <defs>
        <path id="DejaVuSans-31" d="M 794 531 
L 1825 531 
L 1825 4091 
L 703 3866 
L 703 4441 
L 1819 4666 
L 2450 4666 
L 2450 531 
L 3481 531 
L 3481 0 
L 794 0 
L 794 531 
z
" transform="scale(0.015625)"/>
        <path id="DejaVuSans-36" d="M 2113 2584 
Q 1688 2584 1439 2293 
Q 1191 2003 1191 1497 
Q 1191 994 1439 701 
Q 1688 409 2113 409 
Q 2538 409 2786 701 
Q 3034 994 3034 1497 
Q 3034 2003 2786 2293 
Q 2538 2584 2113 2584 
z
M 3366 4563 
L 3366 3988 
Q 3128 4100 2886 4159 
Q 2644 4219 2406 4219 
Q 1781 4219 1451 3797 
Q 1122 3375 1075 2522 
Q 1259 2794 1537 2939 
Q 1816 3084 2150 3084 
Q 2853 3084 3261 2657 
Q 3669 2231 3669 1497 
Q 3669 778 3244 343 
Q 2819 -91 2113 -91 
Q 1303 -91 875 529 
Q 447 1150 447 2328 
Q 447 3434 972 4092 
Q 1497 4750 2381 4750 
Q 2619 4750 2861 4703 
Q 3103 4656 3366 4563 
z
" transform="scale(0.015625)"/>
       </defs>
       <use xlink:href="#DejaVuSans-31"/>
       <use xlink:href="#DejaVuSans-36" transform="translate(63.623047 0)"/>
       <use xlink:href="#DejaVuSans-30" transform="translate(127.246094 0)"/>
      </g>
     </g>
    </g>
    <g id="xtick_4">
     <g id="line2d_7">
      <path d="M 281.812787 318.04 
L 281.812787 27.6 
" clip-path="url(#pe54d813fda)" style="fill: none; stroke: #b0b0b0; stroke-width: 0.8; stroke-linecap: square"/>
     </g>
     <g id="line2d_8">
      <g>
       <use xlink:href="#mc3405f0107" x="281.812787" y="318.04" style="stroke: #000000; stroke-width: 0.8"/>
      </g>
     </g>
     <g id="text_4">
      <!-- 240 -->
      <g transform="translate(272.269037 332.638438) scale(0.1 -0.1)">
       <defs>
        <path id="DejaVuSans-32" d="M 1228 531 
L 3431 531 
L 3431 0 
L 469 0 
L 469 531 
Q 828 903 1448 1529 
Q 2069 2156 2228 2338 
Q 2531 2678 2651 2914 
Q 2772 3150 2772 3378 
Q 2772 3750 2511 3984 
Q 2250 4219 1831 4219 
Q 1534 4219 1204 4116 
Q 875 4013 500 3803 
L 500 4441 
Q 881 4594 1212 4672 
Q 1544 4750 1819 4750 
Q 2544 4750 2975 4387 
Q 3406 4025 3406 3419 
Q 3406 3131 3298 2873 
Q 3191 2616 2906 2266 
Q 2828 2175 2409 1742 
Q 1991 1309 1228 531 
z
" transform="scale(0.015625)"/>
        <path id="DejaVuSans-34" d="M 2419 4116 
L 825 1625 
L 2419 1625 
L 2419 4116 
z
M 2253 4666 
L 3047 4666 
L 3047 1625 
L 3713 1625 
L 3713 1100 
L 3047 1100 
L 3047 0 
L 2419 0 
L 2419 1100 
L 313 1100 
L 313 1709 
L 2253 4666 
z
" transform="scale(0.015625)"/>
       </defs>
       <use xlink:href="#DejaVuSans-32"/>
       <use xlink:href="#DejaVuSans-34" transform="translate(63.623047 0)"/>
       <use xlink:href="#DejaVuSans-30" transform="translate(127.246094 0)"/>
      </g>
     </g>
    </g>
    <g id="xtick_5">
     <g id="line2d_9">
      <path d="M 349.406636 318.04 
L 349.406636 27.6 
" clip-path="url(#pe54d813fda)" style="fill: none; stroke: #b0b0b0; stroke-width: 0.8; stroke-linecap: square"/>
     </g>
     <g id="line2d_10">
      <g>
       <use xlink:href="#mc3405f0107" x="349.406636" y="318.04" style="stroke: #000000; stroke-width: 0.8"/>
      </g>
     </g>
     <g id="text_5">
      <!-- 320 -->
      <g transform="translate(339.862886 332.638438) scale(0.1 -0.1)">
       <defs>
        <path id="DejaVuSans-33" d="M 2597 2516 
Q 3050 2419 3304 2112 
Q 3559 1806 3559 1356 
Q 3559 666 3084 287 
Q 2609 -91 1734 -91 
Q 1441 -91 1130 -33 
Q 819 25 488 141 
L 488 750 
Q 750 597 1062 519 
Q 1375 441 1716 441 
Q 2309 441 2620 675 
Q 2931 909 2931 1356 
Q 2931 1769 2642 2001 
Q 2353 2234 1838 2234 
L 1294 2234 
L 1294 2753 
L 1863 2753 
Q 2328 2753 2575 2939 
Q 2822 3125 2822 3475 
Q 2822 3834 2567 4026 
Q 2313 4219 1838 4219 
Q 1578 4219 1281 4162 
Q 984 4106 628 3988 
L 628 4550 
Q 988 4650 1302 4700 
Q 1616 4750 1894 4750 
Q 2613 4750 3031 4423 
Q 3450 4097 3450 3541 
Q 3450 3153 3228 2886 
Q 3006 2619 2597 2516 
z
" transform="scale(0.015625)"/>
       </defs>
       <use xlink:href="#DejaVuSans-33"/>
       <use xlink:href="#DejaVuSans-32" transform="translate(63.623047 0)"/>
       <use xlink:href="#DejaVuSans-30" transform="translate(127.246094 0)"/>
      </g>
     </g>
    </g>
    <g id="xtick_6">
     <g id="line2d_11">
      <path d="M 417.000486 318.04 
L 417.000486 27.6 
" clip-path="url(#pe54d813fda)" style="fill: none; stroke: #b0b0b0; stroke-width: 0.8; stroke-linecap: square"/>
     </g>
     <g id="line2d_12">
      <g>
       <use xlink:href="#mc3405f0107" x="417.000486" y="318.04" style="stroke: #000000; stroke-width: 0.8"/>
      </g>
     </g>
     <g id="text_6">
      <!-- 400 -->
      <g transform="translate(407.456736 332.638438) scale(0.1 -0.1)">
       <use xlink:href="#DejaVuSans-34"/>
       <use xlink:href="#DejaVuSans-30" transform="translate(63.623047 0)"/>
       <use xlink:href="#DejaVuSans-30" transform="translate(127.246094 0)"/>
      </g>
     </g>
    </g>
    <g id="xtick_7">
     <g id="line2d_13">
      <path d="M 484.594335 318.04 
L 484.594335 27.6 
" clip-path="url(#pe54d813fda)" style="fill: none; stroke: #b0b0b0; stroke-width: 0.8; stroke-linecap: square"/>
     </g>
     <g id="line2d_14">
      <g>
       <use xlink:href="#mc3405f0107" x="484.594335" y="318.04" style="stroke: #000000; stroke-width: 0.8"/>
      </g>
     </g>
     <g id="text_7">
      <!-- 480 -->
      <g transform="translate(475.050585 332.638438) scale(0.1 -0.1)">
       <use xlink:href="#DejaVuSans-34"/>
       <use xlink:href="#DejaVuSans-38" transform="translate(63.623047 0)"/>
       <use xlink:href="#DejaVuSans-30" transform="translate(127.246094 0)"/>
      </g>
     </g>
    </g>
    <g id="xtick_8">
     <g id="line2d_15">
      <path d="M 552.188184 318.04 
L 552.188184 27.6 
" clip-path="url(#pe54d813fda)" style="fill: none; stroke: #b0b0b0; stroke-width: 0.8; stroke-linecap: square"/>
     </g>
     <g id="line2d_16">
      <g>
       <use xlink:href="#mc3405f0107" x="552.188184" y="318.04" style="stroke: #000000; stroke-width: 0.8"/>
      </g>
     </g>
     <g id="text_8">
      <!-- 560 -->
      <g transform="translate(542.644434 332.638438) scale(0.1 -0.1)">
       <defs>
        <path id="DejaVuSans-35" d="M 691 4666 
L 3169 4666 
L 3169 4134 
L 1269 4134 
L 1269 2991 
Q 1406 3038 1543 3061 
Q 1681 3084 1819 3084 
Q 2600 3084 3056 2656 
Q 3513 2228 3513 1497 
Q 3513 744 3044 326 
Q 2575 -91 1722 -91 
Q 1428 -91 1123 -41 
Q 819 9 494 109 
L 494 744 
Q 775 591 1075 516 
Q 1375 441 1709 441 
Q 2250 441 2565 725 
Q 2881 1009 2881 1497 
Q 2881 1984 2565 2268 
Q 2250 2553 1709 2553 
Q 1456 2553 1204 2497 
Q 953 2441 691 2322 
L 691 4666 
z
" transform="scale(0.015625)"/>
       </defs>
       <use xlink:href="#DejaVuSans-35"/>
       <use xlink:href="#DejaVuSans-36" transform="translate(63.623047 0)"/>
       <use xlink:href="#DejaVuSans-30" transform="translate(127.246094 0)"/>
      </g>
     </g>
    </g>
    <g id="text_9">
     <!-- Epoch -->
     <g transform="translate(295.229236 346.316563) scale(0.1 -0.1)">
      <defs>
       <path id="DejaVuSans-45" d="M 628 4666 
L 3578 4666 
L 3578 4134 
L 1259 4134 
L 1259 2753 
L 3481 2753 
L 3481 2222 
L 1259 2222 
L 1259 531 
L 3634 531 
L 3634 0 
L 628 0 
L 628 4666 
z
" transform="scale(0.015625)"/>
       <path id="DejaVuSans-70" d="M 1159 525 
L 1159 -1331 
L 581 -1331 
L 581 3500 
L 1159 3500 
L 1159 2969 
Q 1341 3281 1617 3432 
Q 1894 3584 2278 3584 
Q 2916 3584 3314 3078 
Q 3713 2572 3713 1747 
Q 3713 922 3314 415 
Q 2916 -91 2278 -91 
Q 1894 -91 1617 61 
Q 1341 213 1159 525 
z
M 3116 1747 
Q 3116 2381 2855 2742 
Q 2594 3103 2138 3103 
Q 1681 3103 1420 2742 
Q 1159 2381 1159 1747 
Q 1159 1113 1420 752 
Q 1681 391 2138 391 
Q 2594 391 2855 752 
Q 3116 1113 3116 1747 
z
" transform="scale(0.015625)"/>
       <path id="DejaVuSans-6f" d="M 1959 3097 
Q 1497 3097 1228 2736 
Q 959 2375 959 1747 
Q 959 1119 1226 758 
Q 1494 397 1959 397 
Q 2419 397 2687 759 
Q 2956 1122 2956 1747 
Q 2956 2369 2687 2733 
Q 2419 3097 1959 3097 
z
M 1959 3584 
Q 2709 3584 3137 3096 
Q 3566 2609 3566 1747 
Q 3566 888 3137 398 
Q 2709 -91 1959 -91 
Q 1206 -91 779 398 
Q 353 888 353 1747 
Q 353 2609 779 3096 
Q 1206 3584 1959 3584 
z
" transform="scale(0.015625)"/>
       <path id="DejaVuSans-63" d="M 3122 3366 
L 3122 2828 
Q 2878 2963 2633 3030 
Q 2388 3097 2138 3097 
Q 1578 3097 1268 2742 
Q 959 2388 959 1747 
Q 959 1106 1268 751 
Q 1578 397 2138 397 
Q 2388 397 2633 464 
Q 2878 531 3122 666 
L 3122 134 
Q 2881 22 2623 -34 
Q 2366 -91 2075 -91 
Q 1284 -91 818 406 
Q 353 903 353 1747 
Q 353 2603 823 3093 
Q 1294 3584 2113 3584 
Q 2378 3584 2631 3529 
Q 2884 3475 3122 3366 
z
" transform="scale(0.015625)"/>
       <path id="DejaVuSans-68" d="M 3513 2113 
L 3513 0 
L 2938 0 
L 2938 2094 
Q 2938 2591 2744 2837 
Q 2550 3084 2163 3084 
Q 1697 3084 1428 2787 
Q 1159 2491 1159 1978 
L 1159 0 
L 581 0 
L 581 4863 
L 1159 4863 
L 1159 2956 
Q 1366 3272 1645 3428 
Q 1925 3584 2291 3584 
Q 2894 3584 3203 3211 
Q 3513 2838 3513 2113 
z
" transform="scale(0.015625)"/>
      </defs>
      <use xlink:href="#DejaVuSans-45"/>
      <use xlink:href="#DejaVuSans-70" transform="translate(63.183594 0)"/>
      <use xlink:href="#DejaVuSans-6f" transform="translate(126.660156 0)"/>
      <use xlink:href="#DejaVuSans-63" transform="translate(187.841797 0)"/>
      <use xlink:href="#DejaVuSans-68" transform="translate(242.822266 0)"/>
     </g>
    </g>
   </g>
   <g id="matplotlib.axis_2">
    <g id="ytick_1">
     <g id="line2d_17">
      <path d="M 55.880346 223.073382 
L 565.2 223.073382 
" clip-path="url(#pe54d813fda)" style="fill: none; stroke: #b0b0b0; stroke-width: 0.8; stroke-linecap: square"/>
     </g>
     <g id="line2d_18">
      <defs>
       <path id="mad7fda8956" d="M 0 0 
L -3.5 0 
" style="stroke: #000000; stroke-width: 0.8"/>
      </defs>
      <g>
       <use xlink:href="#mad7fda8956" x="55.880346" y="223.073382" style="stroke: #000000; stroke-width: 0.8"/>
      </g>
     </g>
     <g id="text_10">
      <!-- $\mathdefault{10^{-3}}$ -->
      <g transform="translate(25.380346 226.872601) scale(0.1 -0.1)">
       <defs>
        <path id="DejaVuSans-2212" d="M 678 2272 
L 4684 2272 
L 4684 1741 
L 678 1741 
L 678 2272 
z
" transform="scale(0.015625)"/>
       </defs>
       <use xlink:href="#DejaVuSans-31" transform="translate(0 0.765625)"/>
       <use xlink:href="#DejaVuSans-30" transform="translate(63.623047 0.765625)"/>
       <use xlink:href="#DejaVuSans-2212" transform="translate(128.203125 39.046875) scale(0.7)"/>
       <use xlink:href="#DejaVuSans-33" transform="translate(186.855469 39.046875) scale(0.7)"/>
      </g>
     </g>
    </g>
    <g id="ytick_2">
     <g id="line2d_19">
      <path d="M 55.880346 109.067589 
L 565.2 109.067589 
" clip-path="url(#pe54d813fda)" style="fill: none; stroke: #b0b0b0; stroke-width: 0.8; stroke-linecap: square"/>
     </g>
     <g id="line2d_20">
      <g>
       <use xlink:href="#mad7fda8956" x="55.880346" y="109.067589" style="stroke: #000000; stroke-width: 0.8"/>
      </g>
     </g>
     <g id="text_11">
      <!-- $\mathdefault{10^{-2}}$ -->
      <g transform="translate(25.380346 112.866808) scale(0.1 -0.1)">
       <use xlink:href="#DejaVuSans-31" transform="translate(0 0.765625)"/>
       <use xlink:href="#DejaVuSans-30" transform="translate(63.623047 0.765625)"/>
       <use xlink:href="#DejaVuSans-2212" transform="translate(128.203125 39.046875) scale(0.7)"/>
       <use xlink:href="#DejaVuSans-32" transform="translate(186.855469 39.046875) scale(0.7)"/>
      </g>
     </g>
    </g>
    <g id="ytick_3">
     <g id="line2d_21">
      <defs>
       <path id="m84a41b7112" d="M 0 0 
L -2 0 
" style="stroke: #000000; stroke-width: 0.6"/>
      </defs>
      <g>
       <use xlink:href="#m84a41b7112" x="55.880346" y="302.760012" style="stroke: #000000; stroke-width: 0.6"/>
      </g>
     </g>
    </g>
    <g id="ytick_4">
     <g id="line2d_22">
      <g>
       <use xlink:href="#m84a41b7112" x="55.880346" y="282.684588" style="stroke: #000000; stroke-width: 0.6"/>
      </g>
     </g>
    </g>
    <g id="ytick_5">
     <g id="line2d_23">
      <g>
       <use xlink:href="#m84a41b7112" x="55.880346" y="268.440849" style="stroke: #000000; stroke-width: 0.6"/>
      </g>
     </g>
    </g>
    <g id="ytick_6">
     <g id="line2d_24">
      <g>
       <use xlink:href="#m84a41b7112" x="55.880346" y="257.392546" style="stroke: #000000; stroke-width: 0.6"/>
      </g>
     </g>
    </g>
    <g id="ytick_7">
     <g id="line2d_25">
      <g>
       <use xlink:href="#m84a41b7112" x="55.880346" y="248.365425" style="stroke: #000000; stroke-width: 0.6"/>
      </g>
     </g>
    </g>
    <g id="ytick_8">
     <g id="line2d_26">
      <g>
       <use xlink:href="#m84a41b7112" x="55.880346" y="240.733103" style="stroke: #000000; stroke-width: 0.6"/>
      </g>
     </g>
    </g>
    <g id="ytick_9">
     <g id="line2d_27">
      <g>
       <use xlink:href="#m84a41b7112" x="55.880346" y="234.121685" style="stroke: #000000; stroke-width: 0.6"/>
      </g>
     </g>
    </g>
    <g id="ytick_10">
     <g id="line2d_28">
      <g>
       <use xlink:href="#m84a41b7112" x="55.880346" y="228.290001" style="stroke: #000000; stroke-width: 0.6"/>
      </g>
     </g>
    </g>
    <g id="ytick_11">
     <g id="line2d_29">
      <g>
       <use xlink:href="#m84a41b7112" x="55.880346" y="188.754219" style="stroke: #000000; stroke-width: 0.6"/>
      </g>
     </g>
    </g>
    <g id="ytick_12">
     <g id="line2d_30">
      <g>
       <use xlink:href="#m84a41b7112" x="55.880346" y="168.678795" style="stroke: #000000; stroke-width: 0.6"/>
      </g>
     </g>
    </g>
    <g id="ytick_13">
     <g id="line2d_31">
      <g>
       <use xlink:href="#m84a41b7112" x="55.880346" y="154.435055" style="stroke: #000000; stroke-width: 0.6"/>
      </g>
     </g>
    </g>
    <g id="ytick_14">
     <g id="line2d_32">
      <g>
       <use xlink:href="#m84a41b7112" x="55.880346" y="143.386753" style="stroke: #000000; stroke-width: 0.6"/>
      </g>
     </g>
    </g>
    <g id="ytick_15">
     <g id="line2d_33">
      <g>
       <use xlink:href="#m84a41b7112" x="55.880346" y="134.359632" style="stroke: #000000; stroke-width: 0.6"/>
      </g>
     </g>
    </g>
    <g id="ytick_16">
     <g id="line2d_34">
      <g>
       <use xlink:href="#m84a41b7112" x="55.880346" y="126.72731" style="stroke: #000000; stroke-width: 0.6"/>
      </g>
     </g>
    </g>
    <g id="ytick_17">
     <g id="line2d_35">
      <g>
       <use xlink:href="#m84a41b7112" x="55.880346" y="120.115892" style="stroke: #000000; stroke-width: 0.6"/>
      </g>
     </g>
    </g>
    <g id="ytick_18">
     <g id="line2d_36">
      <g>
       <use xlink:href="#m84a41b7112" x="55.880346" y="114.284208" style="stroke: #000000; stroke-width: 0.6"/>
      </g>
     </g>
    </g>
    <g id="ytick_19">
     <g id="line2d_37">
      <g>
       <use xlink:href="#m84a41b7112" x="55.880346" y="74.748426" style="stroke: #000000; stroke-width: 0.6"/>
      </g>
     </g>
    </g>
    <g id="ytick_20">
     <g id="line2d_38">
      <g>
       <use xlink:href="#m84a41b7112" x="55.880346" y="54.673002" style="stroke: #000000; stroke-width: 0.6"/>
      </g>
     </g>
    </g>
    <g id="ytick_21">
     <g id="line2d_39">
      <g>
       <use xlink:href="#m84a41b7112" x="55.880346" y="40.429262" style="stroke: #000000; stroke-width: 0.6"/>
      </g>
     </g>
    </g>
    <g id="ytick_22">
     <g id="line2d_40">
      <g>
       <use xlink:href="#m84a41b7112" x="55.880346" y="29.380959" style="stroke: #000000; stroke-width: 0.6"/>
      </g>
     </g>
    </g>
    <g id="text_12">
     <!-- MSE Loss -->
     <g transform="translate(19.300659 196.023906) rotate(-90) scale(0.1 -0.1)">
      <defs>
       <path id="DejaVuSans-4d" d="M 628 4666 
L 1569 4666 
L 2759 1491 
L 3956 4666 
L 4897 4666 
L 4897 0 
L 4281 0 
L 4281 4097 
L 3078 897 
L 2444 897 
L 1241 4097 
L 1241 0 
L 628 0 
L 628 4666 
z
" transform="scale(0.015625)"/>
       <path id="DejaVuSans-53" d="M 3425 4513 
L 3425 3897 
Q 3066 4069 2747 4153 
Q 2428 4238 2131 4238 
Q 1616 4238 1336 4038 
Q 1056 3838 1056 3469 
Q 1056 3159 1242 3001 
Q 1428 2844 1947 2747 
L 2328 2669 
Q 3034 2534 3370 2195 
Q 3706 1856 3706 1288 
Q 3706 609 3251 259 
Q 2797 -91 1919 -91 
Q 1588 -91 1214 -16 
Q 841 59 441 206 
L 441 856 
Q 825 641 1194 531 
Q 1563 422 1919 422 
Q 2459 422 2753 634 
Q 3047 847 3047 1241 
Q 3047 1584 2836 1778 
Q 2625 1972 2144 2069 
L 1759 2144 
Q 1053 2284 737 2584 
Q 422 2884 422 3419 
Q 422 4038 858 4394 
Q 1294 4750 2059 4750 
Q 2388 4750 2728 4690 
Q 3069 4631 3425 4513 
z
" transform="scale(0.015625)"/>
       <path id="DejaVuSans-20" transform="scale(0.015625)"/>
       <path id="DejaVuSans-4c" d="M 628 4666 
L 1259 4666 
L 1259 531 
L 3531 531 
L 3531 0 
L 628 0 
L 628 4666 
z
" transform="scale(0.015625)"/>
       <path id="DejaVuSans-73" d="M 2834 3397 
L 2834 2853 
Q 2591 2978 2328 3040 
Q 2066 3103 1784 3103 
Q 1356 3103 1142 2972 
Q 928 2841 928 2578 
Q 928 2378 1081 2264 
Q 1234 2150 1697 2047 
L 1894 2003 
Q 2506 1872 2764 1633 
Q 3022 1394 3022 966 
Q 3022 478 2636 193 
Q 2250 -91 1575 -91 
Q 1294 -91 989 -36 
Q 684 19 347 128 
L 347 722 
Q 666 556 975 473 
Q 1284 391 1588 391 
Q 1994 391 2212 530 
Q 2431 669 2431 922 
Q 2431 1156 2273 1281 
Q 2116 1406 1581 1522 
L 1381 1569 
Q 847 1681 609 1914 
Q 372 2147 372 2553 
Q 372 3047 722 3315 
Q 1072 3584 1716 3584 
Q 2034 3584 2315 3537 
Q 2597 3491 2834 3397 
z
" transform="scale(0.015625)"/>
      </defs>
      <use xlink:href="#DejaVuSans-4d"/>
      <use xlink:href="#DejaVuSans-53" transform="translate(86.279297 0)"/>
      <use xlink:href="#DejaVuSans-45" transform="translate(149.755859 0)"/>
      <use xlink:href="#DejaVuSans-20" transform="translate(212.939453 0)"/>
      <use xlink:href="#DejaVuSans-4c" transform="translate(244.726562 0)"/>
      <use xlink:href="#DejaVuSans-6f" transform="translate(298.689453 0)"/>
      <use xlink:href="#DejaVuSans-73" transform="translate(359.871094 0)"/>
      <use xlink:href="#DejaVuSans-73" transform="translate(411.970703 0)"/>
     </g>
    </g>
   </g>
   <g id="line2d_41">
    <path d="M 79.031239 40.801818 
L 79.876163 133.746962 
L 80.721086 175.618269 
L 81.566009 197.876099 
L 82.410932 211.447215 
L 83.255855 220.88912 
L 84.100778 225.784746 
L 85.790624 232.260085 
L 86.635548 240.451732 
L 87.480471 240.864946 
L 88.325394 242.813956 
L 89.170317 245.060542 
L 90.01524 246.774849 
L 90.860163 251.892917 
L 91.705086 253.447218 
L 92.550009 255.79346 
L 93.394932 256.12975 
L 94.239856 258.592619 
L 95.084779 259.613849 
L 95.929702 263.038541 
L 96.774625 263.438224 
L 97.619548 264.585876 
L 98.464471 264.350214 
L 99.309394 265.227627 
L 100.154317 264.594994 
L 100.99924 265.527535 
L 101.844164 265.148769 
L 102.689087 266.058573 
L 103.53401 266.04655 
L 104.378933 266.535125 
L 106.068779 267.274839 
L 106.913702 267.951443 
L 107.758625 267.50343 
L 108.603549 267.530469 
L 109.448472 267.860172 
L 110.293395 268.066296 
L 111.138318 267.790462 
L 111.983241 268.861277 
L 113.673087 267.869154 
L 114.51801 268.917135 
L 115.362933 268.820813 
L 116.207857 268.332154 
L 117.05278 268.500069 
L 117.897703 267.879559 
L 118.742626 269.209825 
L 119.587549 269.227255 
L 120.432472 268.550403 
L 121.277395 268.863614 
L 122.122318 268.693875 
L 122.967241 268.916234 
L 123.812165 269.90994 
L 124.657088 269.531036 
L 126.346934 269.415871 
L 127.191857 269.474096 
L 128.03678 268.822913 
L 128.881703 269.551851 
L 129.726626 269.575322 
L 130.57155 269.862571 
L 131.416473 269.679139 
L 132.261396 269.946375 
L 133.106319 269.992563 
L 133.951242 269.275036 
L 134.796165 269.275995 
L 135.641088 270.022129 
L 136.486011 270.214962 
L 137.330934 269.530351 
L 138.175858 269.83452 
L 139.020781 269.647927 
L 139.865704 269.74098 
L 140.710627 269.506221 
L 141.55555 271.191812 
L 142.400473 271.624096 
L 143.245396 270.789616 
L 144.935242 271.198254 
L 145.780166 271.43477 
L 147.470012 270.930821 
L 149.159858 271.731704 
L 150.004781 271.140961 
L 150.849704 271.631537 
L 151.694627 271.708813 
L 152.539551 271.616985 
L 153.384474 271.21832 
L 154.229397 271.533711 
L 155.07432 271.516807 
L 155.919243 272.225219 
L 156.764166 271.659105 
L 157.609089 272.343639 
L 158.454012 271.814737 
L 159.298935 271.763055 
L 160.143859 272.271071 
L 160.988782 271.918752 
L 162.678628 272.179054 
L 163.523551 272.008475 
L 164.368474 272.159883 
L 167.748167 272.201068 
L 168.59309 271.822026 
L 169.438013 272.126592 
L 170.282936 272.251229 
L 171.127859 271.944876 
L 173.662628 272.461359 
L 174.507552 272.359583 
L 175.352475 272.02533 
L 177.042321 272.530329 
L 177.887244 272.439133 
L 178.732167 271.982814 
L 179.57709 272.057839 
L 180.422013 271.887107 
L 181.266936 272.39122 
L 182.11186 272.543609 
L 182.956783 272.310232 
L 183.801706 272.589751 
L 185.491552 272.448609 
L 186.336475 272.734202 
L 188.026321 272.606256 
L 188.871244 272.70293 
L 189.716168 272.562688 
L 190.561091 272.252437 
L 191.406014 272.729954 
L 192.250937 272.626393 
L 193.940783 272.79631 
L 194.785706 272.409776 
L 195.630629 272.734197 
L 197.320476 272.641381 
L 199.855245 272.643395 
L 200.700168 272.278986 
L 201.545091 272.716477 
L 202.390014 272.497866 
L 203.234937 272.4718 
L 204.924784 273.04511 
L 205.769707 272.799976 
L 207.459553 272.771903 
L 208.304476 272.431327 
L 209.149399 272.883927 
L 210.839245 272.418567 
L 212.529092 272.896717 
L 213.374015 273.003119 
L 214.218938 272.741102 
L 215.063861 272.781784 
L 215.908784 273.10444 
L 216.753707 272.994333 
L 217.59863 272.670396 
L 218.443554 272.979929 
L 219.288477 273.030966 
L 220.1334 272.840615 
L 220.978323 272.980171 
L 221.823246 272.686546 
L 222.668169 272.764141 
L 223.513092 272.622152 
L 224.358015 272.851659 
L 225.202938 272.962167 
L 226.047862 272.729275 
L 227.737708 273.05921 
L 228.582631 272.752828 
L 229.427554 272.800771 
L 230.272477 272.608442 
L 231.1174 272.760546 
L 231.962323 272.644136 
L 232.807246 272.722616 
L 233.65217 272.949246 
L 235.342016 272.900093 
L 236.186939 272.675633 
L 237.031862 273.030772 
L 237.876785 272.673204 
L 238.721708 272.877362 
L 240.411555 272.888026 
L 241.256478 272.777403 
L 242.946324 273.170791 
L 243.791247 272.690484 
L 244.63617 273.06862 
L 245.481093 273.065105 
L 246.326016 272.927582 
L 247.170939 273.138169 
L 248.015863 272.911438 
L 248.860786 272.523069 
L 249.705709 273.365366 
L 250.550632 273.004145 
L 251.395555 273.226537 
L 252.240478 272.753002 
L 253.085401 273.108639 
L 256.465094 272.924594 
L 257.310017 273.060583 
L 258.15494 272.831702 
L 258.999863 273.233977 
L 259.844786 272.957371 
L 261.534632 272.776938 
L 262.379556 273.117253 
L 263.224479 273.033146 
L 264.069402 272.810255 
L 265.759248 273.296774 
L 266.604171 272.923422 
L 269.13894 273.041104 
L 270.828787 272.845415 
L 271.67371 272.913372 
L 272.518633 272.739555 
L 273.363556 273.036867 
L 274.208479 272.747566 
L 275.053402 273.062723 
L 275.898325 272.830909 
L 276.743248 273.082948 
L 277.588172 273.063352 
L 279.278018 272.748556 
L 280.122941 273.243182 
L 280.967864 273.215632 
L 281.812787 272.823192 
L 283.502633 273.21879 
L 284.347556 273.198594 
L 285.19248 272.993308 
L 286.037403 272.923054 
L 286.882326 273.090502 
L 287.727249 273.093593 
L 288.572172 272.906907 
L 289.417095 273.386144 
L 290.262018 272.979216 
L 291.106941 272.800595 
L 292.796788 272.973948 
L 293.641711 273.079654 
L 294.486634 272.922513 
L 295.331557 273.059468 
L 296.17648 272.900042 
L 297.021403 273.172547 
L 297.866326 272.800073 
L 298.711249 273.051982 
L 299.556173 273.081434 
L 301.246019 272.952877 
L 304.625711 273.177935 
L 305.470634 272.861349 
L 307.160481 272.903478 
L 308.005404 273.433587 
L 308.850327 273.098068 
L 309.69525 272.92779 
L 312.230019 273.046433 
L 313.074942 272.655754 
L 313.919866 273.279545 
L 314.764789 272.947542 
L 316.454635 273.135385 
L 317.299558 272.872717 
L 318.144481 272.880398 
L 318.989404 273.108234 
L 319.834327 273.145059 
L 321.524174 272.768991 
L 322.369097 273.177237 
L 323.21402 272.854882 
L 324.058943 273.295369 
L 324.903866 272.82016 
L 325.748789 273.100459 
L 326.593712 272.854331 
L 327.438635 272.808016 
L 328.283558 273.127945 
L 331.663251 272.786569 
L 333.353097 273.057185 
L 334.19802 272.682947 
L 335.042943 273.184742 
L 337.577713 272.897824 
L 338.422636 273.136754 
L 339.267559 273.143096 
L 340.112482 272.991648 
L 342.647251 273.081273 
L 343.492175 273.019892 
L 344.337098 272.822863 
L 345.182021 273.371598 
L 346.026944 273.033644 
L 346.871867 273.183838 
L 347.71679 272.967201 
L 348.561713 273.149148 
L 349.406636 273.126459 
L 350.251559 272.935048 
L 351.941406 272.922985 
L 352.786329 272.845032 
L 353.631252 273.203742 
L 354.476175 273.065208 
L 355.321098 272.758163 
L 356.166021 273.145283 
L 357.010944 273.248119 
L 357.855868 272.908905 
L 358.700791 272.893965 
L 359.545714 272.693533 
L 360.390637 273.28335 
L 361.23556 273.264702 
L 362.080483 273.096682 
L 362.925406 273.100679 
L 363.770329 272.472163 
L 364.615252 273.065324 
L 365.460176 273.049842 
L 366.305099 272.876816 
L 367.150022 272.904628 
L 367.994945 273.31633 
L 368.839868 273.074229 
L 369.684791 272.680454 
L 370.529714 272.738901 
L 371.374637 273.091451 
L 373.064484 273.094061 
L 373.909407 272.984749 
L 375.599253 272.96265 
L 376.444176 272.720669 
L 377.289099 273.186909 
L 379.823869 273.118725 
L 380.668792 272.849782 
L 382.358638 272.842618 
L 383.203561 273.094259 
L 384.893407 272.758716 
L 385.73833 273.093608 
L 386.583253 272.882012 
L 387.428177 273.084605 
L 389.962946 273.242027 
L 390.807869 272.71078 
L 391.652792 273.124091 
L 392.497715 272.928951 
L 393.342638 272.872396 
L 394.187561 273.153371 
L 395.877408 272.797927 
L 396.722331 273.048109 
L 397.567254 272.988317 
L 398.412177 273.065406 
L 399.2571 272.943796 
L 400.102023 273.217537 
L 400.946946 273.237376 
L 401.79187 273.003308 
L 404.326639 272.823427 
L 406.016485 273.112124 
L 406.861408 272.8177 
L 407.706331 272.769819 
L 408.551254 273.086441 
L 409.396178 272.825188 
L 410.241101 272.983328 
L 411.086024 272.896726 
L 411.930947 272.953663 
L 412.77587 273.139854 
L 413.620793 273.007435 
L 415.310639 272.995986 
L 416.155562 272.991893 
L 417.000486 273.410285 
L 417.845409 273.146066 
L 419.535255 273.055735 
L 420.380178 272.86133 
L 421.225101 273.121679 
L 422.070024 272.954959 
L 422.914947 273.276523 
L 424.604794 272.96774 
L 425.449717 273.100234 
L 427.139563 273.111279 
L 427.984486 273.246859 
L 428.829409 272.936274 
L 429.674332 272.923063 
L 430.519255 272.429631 
L 431.364179 273.127126 
L 432.209102 273.290915 
L 433.054025 273.133348 
L 433.898948 273.173747 
L 434.743871 272.963472 
L 436.433717 272.966001 
L 437.27864 273.090821 
L 438.123563 272.712845 
L 438.968487 273.047954 
L 439.81341 272.728327 
L 440.658333 272.979187 
L 441.503256 272.971778 
L 443.193102 273.199233 
L 444.882948 272.983935 
L 447.417718 272.82283 
L 448.262641 273.073949 
L 449.107564 272.930887 
L 453.33218 273.33356 
L 455.866949 272.958286 
L 456.711872 273.205902 
L 458.401718 273.267186 
L 459.246641 272.982817 
L 461.781411 273.227406 
L 462.626334 273.029349 
L 463.471257 273.16466 
L 464.31618 272.812488 
L 466.006026 273.061089 
L 466.850949 272.923867 
L 467.695873 273.062943 
L 468.540796 272.927563 
L 470.230642 273.077914 
L 471.075565 273.190027 
L 471.920488 272.904619 
L 472.765411 272.970429 
L 473.610334 273.221577 
L 474.455257 273.031371 
L 476.145104 273.223721 
L 476.990027 272.918699 
L 477.83495 273.040077 
L 478.679873 272.653481 
L 479.524796 273.243792 
L 480.369719 273.044522 
L 482.904489 272.912578 
L 483.749412 273.084322 
L 484.594335 273.137012 
L 485.439258 273.06327 
L 486.284181 272.852533 
L 487.974027 273.089335 
L 488.81895 273.139207 
L 489.663873 272.960454 
L 490.508797 273.116215 
L 491.35372 272.790792 
L 492.198643 273.233174 
L 493.888489 272.87093 
L 494.733412 273.123822 
L 495.578335 272.96262 
L 496.423258 272.916663 
L 497.268182 273.18713 
L 498.958028 272.807969 
L 499.802951 273.121656 
L 500.647874 273.279477 
L 501.492797 272.936801 
L 502.33772 273.080843 
L 503.182643 272.847737 
L 504.027566 272.952679 
L 504.87249 272.783994 
L 505.717413 273.063131 
L 506.562336 273.120231 
L 507.407259 272.784755 
L 508.252182 273.049788 
L 509.097105 272.95114 
L 509.942028 273.097127 
L 510.786951 272.943544 
L 513.321721 273.072267 
L 514.166644 272.69262 
L 515.011567 273.169996 
L 515.85649 273.099844 
L 516.701413 273.195505 
L 517.546336 273.107587 
L 518.391259 272.829608 
L 519.236183 273.205765 
L 520.081106 272.895548 
L 521.770952 273.035177 
L 522.615875 272.796568 
L 523.460798 272.988435 
L 524.305721 272.640049 
L 525.150644 273.104618 
L 526.840491 272.920177 
L 527.685414 273.082562 
L 528.530337 272.936324 
L 529.37526 273.043408 
L 530.220183 273.024455 
L 531.065106 273.300676 
L 532.754952 272.780682 
L 533.599875 272.855222 
L 534.444799 273.131721 
L 536.979568 273.202572 
L 537.824491 272.882296 
L 538.669414 273.199984 
L 539.514337 273.187949 
L 540.35926 272.935091 
L 541.204184 273.073887 
L 542.049107 273.03037 
L 542.049107 273.03037 
" clip-path="url(#pe54d813fda)" style="fill: none; stroke: #1f77b4; stroke-width: 2; stroke-linecap: square"/>
   </g>
   <g id="line2d_42">
    <path d="M 79.031239 114.185302 
L 79.876163 104.362033 
L 80.721086 165.650418 
L 81.566009 191.837563 
L 82.410932 173.712032 
L 83.255855 246.362129 
L 84.100778 273.019232 
L 84.945701 242.710826 
L 85.790624 232.544638 
L 86.635548 274.460358 
L 87.480471 278.613594 
L 88.325394 231.790693 
L 89.170317 256.454908 
L 90.01524 248.555566 
L 90.860163 227.166803 
L 91.705086 269.76086 
L 92.550009 278.824834 
L 93.394932 267.211436 
L 94.239856 278.467644 
L 95.084779 284.411656 
L 95.929702 245.476965 
L 96.774625 290.421298 
L 97.619548 265.253231 
L 98.464471 259.545223 
L 99.309394 266.458331 
L 100.154317 291.5289 
L 100.99924 256.422901 
L 101.844164 286.260256 
L 102.689087 265.685325 
L 103.53401 285.049243 
L 104.378933 286.720378 
L 105.223856 281.804265 
L 106.068779 290.103825 
L 106.913702 288.072444 
L 107.758625 270.840407 
L 108.603549 269.175439 
L 109.448472 292.746641 
L 110.293395 291.287183 
L 111.138318 287.836178 
L 111.983241 294.462106 
L 112.828164 294.25938 
L 113.673087 283.634272 
L 114.51801 290.435373 
L 115.362933 293.666088 
L 116.207857 277.531087 
L 117.05278 299.957848 
L 117.897703 291.200452 
L 118.742626 292.553109 
L 119.587549 290.809931 
L 120.432472 297.188862 
L 121.277395 293.151003 
L 122.122318 284.239296 
L 122.967241 300.466512 
L 123.812165 286.802972 
L 124.657088 296.195243 
L 125.502011 280.801594 
L 126.346934 300.029707 
L 127.191857 297.861809 
L 128.03678 296.735289 
L 128.881703 296.404 
L 129.726626 299.787605 
L 130.57155 278.952862 
L 131.416473 302.589826 
L 133.106319 285.562182 
L 133.951242 302.557468 
L 134.796165 289.112298 
L 135.641088 297.531446 
L 136.486011 300.047864 
L 137.330934 302.201748 
L 138.175858 298.424052 
L 139.020781 285.553371 
L 139.865704 300.0801 
L 140.710627 301.311005 
L 141.55555 298.047006 
L 142.400473 300.529617 
L 143.245396 281.761641 
L 144.090319 301.657489 
L 144.935242 289.337856 
L 145.780166 303.703457 
L 146.625089 301.123267 
L 147.470012 301.206836 
L 148.314935 302.831942 
L 149.159858 300.910627 
L 150.004781 299.984773 
L 150.849704 302.511358 
L 151.694627 301.94359 
L 152.539551 298.430973 
L 153.384474 301.632988 
L 154.229397 300.293966 
L 155.07432 303.109503 
L 155.919243 303.778609 
L 156.764166 296.079339 
L 157.609089 303.650791 
L 158.454012 301.785191 
L 159.298935 300.24116 
L 160.143859 300.775023 
L 160.988782 303.339113 
L 161.833705 301.567976 
L 162.678628 300.912578 
L 163.523551 303.917761 
L 164.368474 304.011015 
L 165.213397 303.446213 
L 166.05832 303.110649 
L 166.903243 303.492073 
L 167.748167 303.307067 
L 168.59309 302.153412 
L 169.438013 302.14499 
L 170.282936 301.988372 
L 171.972782 304.276002 
L 172.817705 299.169771 
L 173.662628 303.713533 
L 174.507552 299.732022 
L 175.352475 303.011484 
L 176.197398 302.620987 
L 177.042321 303.462426 
L 177.887244 299.615092 
L 178.732167 303.6191 
L 179.57709 293.744097 
L 180.422013 304.091646 
L 181.266936 302.778461 
L 182.11186 304.196375 
L 182.956783 302.581124 
L 183.801706 303.931865 
L 187.181398 304.415368 
L 188.871244 303.26239 
L 189.716168 304.107943 
L 190.561091 304.016361 
L 191.406014 304.359406 
L 192.250937 299.518213 
L 193.09586 304.350317 
L 193.940783 304.619723 
L 194.785706 302.739779 
L 195.630629 303.818462 
L 196.475553 304.308436 
L 197.320476 301.615648 
L 198.165399 302.182288 
L 199.010322 303.656656 
L 199.855245 303.782459 
L 200.700168 302.377921 
L 201.545091 303.671933 
L 202.390014 298.088571 
L 203.234937 302.90916 
L 204.079861 304.475447 
L 204.924784 303.09883 
L 205.769707 304.274742 
L 207.459553 304.490994 
L 209.994322 304.572311 
L 210.839245 304.056669 
L 211.684169 303.926516 
L 212.529092 302.913009 
L 213.374015 304.664134 
L 215.063861 304.29988 
L 215.908784 302.812814 
L 216.753707 304.387123 
L 217.59863 304.16321 
L 218.443554 304.553063 
L 219.288477 304.144061 
L 220.978323 304.130033 
L 221.823246 303.876479 
L 223.513092 304.63978 
L 224.358015 303.555686 
L 225.202938 304.692621 
L 226.047862 304.008259 
L 226.892785 303.843064 
L 227.737708 304.070017 
L 228.582631 304.534483 
L 229.427554 303.719307 
L 230.272477 304.575842 
L 231.1174 304.53132 
L 231.962323 304.358443 
L 232.807246 304.632375 
L 233.65217 304.721157 
L 234.497093 303.533148 
L 235.342016 304.318313 
L 236.186939 303.688361 
L 237.031862 303.822547 
L 237.876785 304.504367 
L 238.721708 304.481102 
L 239.566631 304.188554 
L 241.256478 304.413279 
L 242.101401 304.702837 
L 246.326016 304.790166 
L 247.170939 304.438103 
L 248.015863 304.310971 
L 248.860786 304.529767 
L 249.705709 303.883971 
L 251.395555 304.709203 
L 252.240478 304.162769 
L 253.085401 304.560848 
L 253.930324 304.721322 
L 254.775247 303.660409 
L 255.620171 304.583702 
L 256.465094 304.606331 
L 258.15494 304.387123 
L 258.999863 303.732538 
L 259.844786 304.481974 
L 260.689709 303.913339 
L 261.534632 304.047727 
L 262.379556 304.442467 
L 263.224479 303.730088 
L 264.069402 304.375014 
L 264.914325 304.379179 
L 265.759248 304.751683 
L 266.604171 304.657246 
L 267.449094 304.004926 
L 268.294017 304.701803 
L 269.983864 304.474683 
L 270.828787 304.615654 
L 271.67371 304.249357 
L 273.363556 304.208808 
L 274.208479 303.519048 
L 275.053402 304.29658 
L 275.898325 304.680178 
L 276.743248 303.159122 
L 277.588172 304.713437 
L 278.433095 304.545298 
L 279.278018 304.128119 
L 280.122941 304.460375 
L 280.967864 304.346226 
L 281.812787 303.823276 
L 282.65771 304.025053 
L 283.502633 304.506524 
L 284.347556 304.126063 
L 285.19248 304.501038 
L 286.037403 304.375866 
L 286.882326 303.870057 
L 287.727249 304.673794 
L 288.572172 303.346331 
L 289.417095 304.334506 
L 290.262018 304.206141 
L 291.106941 304.667634 
L 291.951865 302.919499 
L 292.796788 304.450395 
L 293.641711 304.010475 
L 294.486634 304.238581 
L 295.331557 304.634803 
L 296.17648 304.432424 
L 297.021403 303.9814 
L 297.866326 304.71865 
L 298.711249 304.020552 
L 299.556173 304.340456 
L 300.401096 304.780667 
L 301.246019 304.524078 
L 302.090942 304.541447 
L 303.780788 304.229295 
L 304.625711 304.758596 
L 305.470634 304.426839 
L 306.315557 304.828682 
L 307.160481 304.425881 
L 308.005404 304.838182 
L 308.850327 303.735217 
L 309.69525 304.248578 
L 310.540173 303.918908 
L 311.385096 304.712564 
L 312.230019 303.89822 
L 313.919866 304.099111 
L 314.764789 304.646433 
L 315.609712 303.388887 
L 316.454635 304.429667 
L 317.299558 304.348398 
L 318.144481 304.46316 
L 318.989404 304.3628 
L 319.834327 304.087272 
L 320.67925 302.17034 
L 321.524174 304.632079 
L 322.369097 304.7172 
L 323.21402 304.253011 
L 324.058943 304.17718 
L 324.903866 304.580428 
L 325.748789 304.030294 
L 326.593712 304.362026 
L 327.438635 303.604887 
L 328.283558 304.366662 
L 329.128482 304.488211 
L 329.973405 303.68694 
L 330.818328 303.835335 
L 331.663251 303.838027 
L 332.508174 304.494259 
L 333.353097 304.071452 
L 334.19802 304.269 
L 335.042943 304.158363 
L 335.887867 304.77248 
L 336.73279 303.648755 
L 337.577713 304.622783 
L 338.422636 304.69724 
L 339.267559 303.547234 
L 340.112482 303.433919 
L 341.802328 304.078126 
L 342.647251 304.00578 
L 343.492175 304.635959 
L 344.337098 304.434243 
L 345.182021 304.563508 
L 346.026944 303.987825 
L 346.871867 304.741097 
L 347.71679 304.51663 
L 348.561713 303.543633 
L 349.406636 304.661648 
L 350.251559 304.435275 
L 351.096483 304.624309 
L 351.941406 303.998602 
L 352.786329 304.440813 
L 353.631252 304.592254 
L 354.476175 304.232365 
L 355.321098 304.677063 
L 356.166021 304.76767 
L 357.855868 304.44227 
L 358.700791 304.730697 
L 359.545714 303.669317 
L 360.390637 304.56303 
L 361.23556 304.526859 
L 362.080483 304.749309 
L 363.770329 304.097249 
L 364.615252 302.956731 
L 365.460176 304.7419 
L 366.305099 304.716195 
L 367.150022 304.023061 
L 367.994945 304.799422 
L 368.839868 303.735389 
L 369.684791 304.550485 
L 370.529714 304.482019 
L 371.374637 304.65835 
L 372.21956 304.447745 
L 373.064484 304.60859 
L 373.909407 303.528885 
L 374.75433 304.484261 
L 375.599253 304.504408 
L 376.444176 304.186207 
L 377.289099 304.654903 
L 378.134022 304.385481 
L 378.978945 303.870477 
L 379.823869 304.543781 
L 381.513715 303.527147 
L 382.358638 303.544789 
L 383.203561 304.479274 
L 384.048484 304.792384 
L 384.893407 304.181417 
L 385.73833 304.736804 
L 386.583253 304.052893 
L 387.428177 304.564001 
L 388.2731 304.735668 
L 389.118023 304.754969 
L 389.962946 302.787731 
L 390.807869 304.724823 
L 391.652792 304.617992 
L 392.497715 304.3078 
L 393.342638 304.272711 
L 394.187561 303.516161 
L 395.032485 304.648128 
L 395.877408 304.577494 
L 396.722331 304.636075 
L 397.567254 304.231533 
L 398.412177 304.573462 
L 399.2571 304.741791 
L 400.102023 304.412753 
L 400.946946 304.660645 
L 401.79187 303.147063 
L 402.636793 304.236581 
L 403.481716 304.290349 
L 404.326639 303.832346 
L 405.171562 304.426403 
L 406.016485 304.099725 
L 406.861408 304.642623 
L 407.706331 303.638916 
L 408.551254 304.737978 
L 409.396178 304.388965 
L 410.241101 304.575248 
L 411.086024 302.040385 
L 411.930947 304.169017 
L 414.465716 304.309172 
L 415.310639 304.294306 
L 416.155562 303.568179 
L 417.000486 303.997224 
L 417.845409 303.812106 
L 419.535255 304.250976 
L 420.380178 304.569949 
L 423.759871 304.312934 
L 424.604794 303.695512 
L 426.29464 304.620958 
L 427.139563 304.538198 
L 427.984486 304.777316 
L 428.829409 304.499934 
L 429.674332 304.37051 
L 430.519255 304.777128 
L 432.209102 304.512417 
L 433.054025 304.56146 
L 434.743871 304.2179 
L 436.433717 303.623575 
L 437.27864 304.697479 
L 438.123563 304.607098 
L 438.968487 304.265851 
L 439.81341 304.522651 
L 440.658333 303.993147 
L 441.503256 304.309964 
L 442.348179 304.769471 
L 443.193102 304.496635 
L 444.038025 304.784904 
L 444.882948 304.480978 
L 446.572795 304.195682 
L 447.417718 304.422383 
L 448.262641 304.378899 
L 449.107564 303.148185 
L 449.952487 304.508095 
L 450.79741 303.102487 
L 451.642333 304.680613 
L 452.487256 303.979757 
L 453.33218 304.488651 
L 454.177103 304.639596 
L 455.022026 304.271303 
L 455.866949 304.585051 
L 456.711872 303.678557 
L 457.556795 304.213408 
L 458.401718 303.955091 
L 459.246641 304.779335 
L 460.091564 304.221829 
L 460.936488 304.682422 
L 461.781411 304.559152 
L 462.626334 304.111945 
L 463.471257 304.588662 
L 464.31618 304.530805 
L 465.161103 304.757823 
L 466.006026 304.529129 
L 467.695873 304.656729 
L 468.540796 304.255075 
L 469.385719 304.578664 
L 470.230642 304.202075 
L 471.075565 304.811218 
L 471.920488 303.766155 
L 472.765411 304.553608 
L 473.610334 304.254633 
L 474.455257 304.295165 
L 475.300181 304.211605 
L 476.145104 304.737846 
L 476.990027 304.444487 
L 477.83495 304.691924 
L 478.679873 304.327441 
L 479.524796 304.611899 
L 480.369719 303.430435 
L 481.214642 304.019897 
L 482.059565 304.150018 
L 482.904489 304.455305 
L 483.749412 303.792173 
L 484.594335 303.469315 
L 486.284181 304.392506 
L 487.129104 304.318789 
L 487.974027 303.481924 
L 488.81895 304.44003 
L 489.663873 304.064413 
L 490.508797 304.590307 
L 491.35372 304.609693 
L 492.198643 302.84819 
L 493.043566 304.344834 
L 493.888489 302.665125 
L 494.733412 304.649116 
L 495.578335 304.701304 
L 497.268182 304.635581 
L 498.113105 304.306511 
L 498.958028 304.776551 
L 499.802951 303.987611 
L 500.647874 304.786739 
L 503.182643 304.245033 
L 504.87249 304.484869 
L 505.717413 304.685452 
L 506.562336 302.356906 
L 507.407259 304.465796 
L 508.252182 303.738854 
L 509.097105 304.101495 
L 509.942028 304.789445 
L 510.786951 304.356318 
L 511.631874 304.207917 
L 512.476798 304.762354 
L 513.321721 304.704841 
L 514.166644 304.768488 
L 515.011567 304.291601 
L 516.701413 304.00104 
L 517.546336 304.726457 
L 518.391259 303.831856 
L 520.081106 304.517713 
L 520.926029 304.604278 
L 522.615875 304.18848 
L 523.460798 304.229069 
L 524.305721 304.700413 
L 525.150644 304.228587 
L 526.840491 304.703953 
L 528.530337 303.985853 
L 529.37526 304.561666 
L 530.220183 304.541555 
L 531.065106 303.743334 
L 531.910029 304.075843 
L 532.754952 302.863202 
L 533.599875 304.772356 
L 534.444799 304.39229 
L 536.134645 304.661813 
L 536.979568 303.96881 
L 537.824491 304.66981 
L 538.669414 304.62618 
L 539.514337 303.973273 
L 540.35926 304.556137 
L 541.204184 304.183504 
L 542.049107 304.44776 
L 542.049107 304.44776 
" clip-path="url(#pe54d813fda)" style="fill: none; stroke: #ff7f0e; stroke-width: 2; stroke-linecap: square"/>
   </g>
   <g id="patch_3">
    <path d="M 55.880346 318.04 
L 55.880346 27.6 
" style="fill: none; stroke: #000000; stroke-width: 0.8; stroke-linejoin: miter; stroke-linecap: square"/>
   </g>
   <g id="patch_4">
    <path d="M 565.2 318.04 
L 565.2 27.6 
" style="fill: none; stroke: #000000; stroke-width: 0.8; stroke-linejoin: miter; stroke-linecap: square"/>
   </g>
   <g id="patch_5">
    <path d="M 55.880346 318.04 
L 565.2 318.04 
" style="fill: none; stroke: #000000; stroke-width: 0.8; stroke-linejoin: miter; stroke-linecap: square"/>
   </g>
   <g id="patch_6">
    <path d="M 55.880346 27.6 
L 565.2 27.6 
" style="fill: none; stroke: #000000; stroke-width: 0.8; stroke-linejoin: miter; stroke-linecap: square"/>
   </g>
   <g id="text_13">
    <!-- Evolución del Loss por Época -->
    <g transform="translate(223.467048 21.6) scale(0.12 -0.12)">
     <defs>
      <path id="DejaVuSans-76" d="M 191 3500 
L 800 3500 
L 1894 563 
L 2988 3500 
L 3597 3500 
L 2284 0 
L 1503 0 
L 191 3500 
z
" transform="scale(0.015625)"/>
      <path id="DejaVuSans-6c" d="M 603 4863 
L 1178 4863 
L 1178 0 
L 603 0 
L 603 4863 
z
" transform="scale(0.015625)"/>
      <path id="DejaVuSans-75" d="M 544 1381 
L 544 3500 
L 1119 3500 
L 1119 1403 
Q 1119 906 1312 657 
Q 1506 409 1894 409 
Q 2359 409 2629 706 
Q 2900 1003 2900 1516 
L 2900 3500 
L 3475 3500 
L 3475 0 
L 2900 0 
L 2900 538 
Q 2691 219 2414 64 
Q 2138 -91 1772 -91 
Q 1169 -91 856 284 
Q 544 659 544 1381 
z
M 1991 3584 
L 1991 3584 
z
" transform="scale(0.015625)"/>
      <path id="DejaVuSans-69" d="M 603 3500 
L 1178 3500 
L 1178 0 
L 603 0 
L 603 3500 
z
M 603 4863 
L 1178 4863 
L 1178 4134 
L 603 4134 
L 603 4863 
z
" transform="scale(0.015625)"/>
      <path id="DejaVuSans-f3" d="M 1959 3097 
Q 1497 3097 1228 2736 
Q 959 2375 959 1747 
Q 959 1119 1226 758 
Q 1494 397 1959 397 
Q 2419 397 2687 759 
Q 2956 1122 2956 1747 
Q 2956 2369 2687 2733 
Q 2419 3097 1959 3097 
z
M 1959 3584 
Q 2709 3584 3137 3096 
Q 3566 2609 3566 1747 
Q 3566 888 3137 398 
Q 2709 -91 1959 -91 
Q 1206 -91 779 398 
Q 353 888 353 1747 
Q 353 2609 779 3096 
Q 1206 3584 1959 3584 
z
M 2394 5119 
L 3016 5119 
L 1997 3944 
L 1519 3944 
L 2394 5119 
z
" transform="scale(0.015625)"/>
      <path id="DejaVuSans-6e" d="M 3513 2113 
L 3513 0 
L 2938 0 
L 2938 2094 
Q 2938 2591 2744 2837 
Q 2550 3084 2163 3084 
Q 1697 3084 1428 2787 
Q 1159 2491 1159 1978 
L 1159 0 
L 581 0 
L 581 3500 
L 1159 3500 
L 1159 2956 
Q 1366 3272 1645 3428 
Q 1925 3584 2291 3584 
Q 2894 3584 3203 3211 
Q 3513 2838 3513 2113 
z
" transform="scale(0.015625)"/>
      <path id="DejaVuSans-64" d="M 2906 2969 
L 2906 4863 
L 3481 4863 
L 3481 0 
L 2906 0 
L 2906 525 
Q 2725 213 2448 61 
Q 2172 -91 1784 -91 
Q 1150 -91 751 415 
Q 353 922 353 1747 
Q 353 2572 751 3078 
Q 1150 3584 1784 3584 
Q 2172 3584 2448 3432 
Q 2725 3281 2906 2969 
z
M 947 1747 
Q 947 1113 1208 752 
Q 1469 391 1925 391 
Q 2381 391 2643 752 
Q 2906 1113 2906 1747 
Q 2906 2381 2643 2742 
Q 2381 3103 1925 3103 
Q 1469 3103 1208 2742 
Q 947 2381 947 1747 
z
" transform="scale(0.015625)"/>
      <path id="DejaVuSans-65" d="M 3597 1894 
L 3597 1613 
L 953 1613 
Q 991 1019 1311 708 
Q 1631 397 2203 397 
Q 2534 397 2845 478 
Q 3156 559 3463 722 
L 3463 178 
Q 3153 47 2828 -22 
Q 2503 -91 2169 -91 
Q 1331 -91 842 396 
Q 353 884 353 1716 
Q 353 2575 817 3079 
Q 1281 3584 2069 3584 
Q 2775 3584 3186 3129 
Q 3597 2675 3597 1894 
z
M 3022 2063 
Q 3016 2534 2758 2815 
Q 2500 3097 2075 3097 
Q 1594 3097 1305 2825 
Q 1016 2553 972 2059 
L 3022 2063 
z
" transform="scale(0.015625)"/>
      <path id="DejaVuSans-72" d="M 2631 2963 
Q 2534 3019 2420 3045 
Q 2306 3072 2169 3072 
Q 1681 3072 1420 2755 
Q 1159 2438 1159 1844 
L 1159 0 
L 581 0 
L 581 3500 
L 1159 3500 
L 1159 2956 
Q 1341 3275 1631 3429 
Q 1922 3584 2338 3584 
Q 2397 3584 2469 3576 
Q 2541 3569 2628 3553 
L 2631 2963 
z
" transform="scale(0.015625)"/>
      <path id="DejaVuSans-c9" d="M 628 4666 
L 3578 4666 
L 3578 4134 
L 1259 4134 
L 1259 2753 
L 3481 2753 
L 3481 2222 
L 1259 2222 
L 1259 531 
L 3634 531 
L 3634 0 
L 628 0 
L 628 4666 
z
M 2266 5935 
L 2844 5935 
L 2131 5110 
L 1653 5110 
L 2266 5935 
z
" transform="scale(0.015625)"/>
      <path id="DejaVuSans-61" d="M 2194 1759 
Q 1497 1759 1228 1600 
Q 959 1441 959 1056 
Q 959 750 1161 570 
Q 1363 391 1709 391 
Q 2188 391 2477 730 
Q 2766 1069 2766 1631 
L 2766 1759 
L 2194 1759 
z
M 3341 1997 
L 3341 0 
L 2766 0 
L 2766 531 
Q 2569 213 2275 61 
Q 1981 -91 1556 -91 
Q 1019 -91 701 211 
Q 384 513 384 1019 
Q 384 1609 779 1909 
Q 1175 2209 1959 2209 
L 2766 2209 
L 2766 2266 
Q 2766 2663 2505 2880 
Q 2244 3097 1772 3097 
Q 1472 3097 1187 3025 
Q 903 2953 641 2809 
L 641 3341 
Q 956 3463 1253 3523 
Q 1550 3584 1831 3584 
Q 2591 3584 2966 3190 
Q 3341 2797 3341 1997 
z
" transform="scale(0.015625)"/>
     </defs>
     <use xlink:href="#DejaVuSans-45"/>
     <use xlink:href="#DejaVuSans-76" transform="translate(63.183594 0)"/>
     <use xlink:href="#DejaVuSans-6f" transform="translate(122.363281 0)"/>
     <use xlink:href="#DejaVuSans-6c" transform="translate(183.544922 0)"/>
     <use xlink:href="#DejaVuSans-75" transform="translate(211.328125 0)"/>
     <use xlink:href="#DejaVuSans-63" transform="translate(274.707031 0)"/>
     <use xlink:href="#DejaVuSans-69" transform="translate(329.6875 0)"/>
     <use xlink:href="#DejaVuSans-f3" transform="translate(357.470703 0)"/>
     <use xlink:href="#DejaVuSans-6e" transform="translate(418.652344 0)"/>
     <use xlink:href="#DejaVuSans-20" transform="translate(482.03125 0)"/>
     <use xlink:href="#DejaVuSans-64" transform="translate(513.818359 0)"/>
     <use xlink:href="#DejaVuSans-65" transform="translate(577.294922 0)"/>
     <use xlink:href="#DejaVuSans-6c" transform="translate(638.818359 0)"/>
     <use xlink:href="#DejaVuSans-20" transform="translate(666.601562 0)"/>
     <use xlink:href="#DejaVuSans-4c" transform="translate(698.388672 0)"/>
     <use xlink:href="#DejaVuSans-6f" transform="translate(752.351562 0)"/>
     <use xlink:href="#DejaVuSans-73" transform="translate(813.533203 0)"/>
     <use xlink:href="#DejaVuSans-73" transform="translate(865.632812 0)"/>
     <use xlink:href="#DejaVuSans-20" transform="translate(917.732422 0)"/>
     <use xlink:href="#DejaVuSans-70" transform="translate(949.519531 0)"/>
     <use xlink:href="#DejaVuSans-6f" transform="translate(1012.996094 0)"/>
     <use xlink:href="#DejaVuSans-72" transform="translate(1074.177734 0)"/>
     <use xlink:href="#DejaVuSans-20" transform="translate(1115.291016 0)"/>
     <use xlink:href="#DejaVuSans-c9" transform="translate(1147.078125 0)"/>
     <use xlink:href="#DejaVuSans-70" transform="translate(1210.261719 0)"/>
     <use xlink:href="#DejaVuSans-6f" transform="translate(1273.738281 0)"/>
     <use xlink:href="#DejaVuSans-63" transform="translate(1334.919922 0)"/>
     <use xlink:href="#DejaVuSans-61" transform="translate(1389.900391 0)"/>
    </g>
   </g>
   <g id="legend_1">
    <g id="patch_7">
     <path d="M 453.839062 64.95625 
L 558.2 64.95625 
Q 560.2 64.95625 560.2 62.95625 
L 560.2 34.6 
Q 560.2 32.6 558.2 32.6 
L 453.839062 32.6 
Q 451.839062 32.6 451.839062 34.6 
L 451.839062 62.95625 
Q 451.839062 64.95625 453.839062 64.95625 
z
" style="fill: #ffffff; opacity: 0.8; stroke: #cccccc; stroke-linejoin: miter"/>
    </g>
    <g id="line2d_43">
     <path d="M 455.839062 40.698438 
L 465.839062 40.698438 
L 475.839062 40.698438 
" style="fill: none; stroke: #1f77b4; stroke-width: 2; stroke-linecap: square"/>
    </g>
    <g id="text_14">
     <!-- Train Loss -->
     <g transform="translate(483.839062 44.198438) scale(0.1 -0.1)">
      <defs>
       <path id="DejaVuSans-54" d="M -19 4666 
L 3928 4666 
L 3928 4134 
L 2272 4134 
L 2272 0 
L 1638 0 
L 1638 4134 
L -19 4134 
L -19 4666 
z
" transform="scale(0.015625)"/>
      </defs>
      <use xlink:href="#DejaVuSans-54"/>
      <use xlink:href="#DejaVuSans-72" transform="translate(46.333984 0)"/>
      <use xlink:href="#DejaVuSans-61" transform="translate(87.447266 0)"/>
      <use xlink:href="#DejaVuSans-69" transform="translate(148.726562 0)"/>
      <use xlink:href="#DejaVuSans-6e" transform="translate(176.509766 0)"/>
      <use xlink:href="#DejaVuSans-20" transform="translate(239.888672 0)"/>
      <use xlink:href="#DejaVuSans-4c" transform="translate(271.675781 0)"/>
      <use xlink:href="#DejaVuSans-6f" transform="translate(325.638672 0)"/>
      <use xlink:href="#DejaVuSans-73" transform="translate(386.820312 0)"/>
      <use xlink:href="#DejaVuSans-73" transform="translate(438.919922 0)"/>
     </g>
    </g>
    <g id="line2d_44">
     <path d="M 455.839062 55.376563 
L 465.839062 55.376563 
L 475.839062 55.376563 
" style="fill: none; stroke: #ff7f0e; stroke-width: 2; stroke-linecap: square"/>
    </g>
    <g id="text_15">
     <!-- Val Loss (MSE) -->
     <g transform="translate(483.839062 58.876563) scale(0.1 -0.1)">
      <defs>
       <path id="DejaVuSans-56" d="M 1831 0 
L 50 4666 
L 709 4666 
L 2188 738 
L 3669 4666 
L 4325 4666 
L 2547 0 
L 1831 0 
z
" transform="scale(0.015625)"/>
       <path id="DejaVuSans-28" d="M 1984 4856 
Q 1566 4138 1362 3434 
Q 1159 2731 1159 2009 
Q 1159 1288 1364 580 
Q 1569 -128 1984 -844 
L 1484 -844 
Q 1016 -109 783 600 
Q 550 1309 550 2009 
Q 550 2706 781 3412 
Q 1013 4119 1484 4856 
L 1984 4856 
z
" transform="scale(0.015625)"/>
       <path id="DejaVuSans-29" d="M 513 4856 
L 1013 4856 
Q 1481 4119 1714 3412 
Q 1947 2706 1947 2009 
Q 1947 1309 1714 600 
Q 1481 -109 1013 -844 
L 513 -844 
Q 928 -128 1133 580 
Q 1338 1288 1338 2009 
Q 1338 2731 1133 3434 
Q 928 4138 513 4856 
z
" transform="scale(0.015625)"/>
      </defs>
      <use xlink:href="#DejaVuSans-56"/>
      <use xlink:href="#DejaVuSans-61" transform="translate(60.658203 0)"/>
      <use xlink:href="#DejaVuSans-6c" transform="translate(121.9375 0)"/>
      <use xlink:href="#DejaVuSans-20" transform="translate(149.720703 0)"/>
      <use xlink:href="#DejaVuSans-4c" transform="translate(181.507812 0)"/>
      <use xlink:href="#DejaVuSans-6f" transform="translate(235.470703 0)"/>
      <use xlink:href="#DejaVuSans-73" transform="translate(296.652344 0)"/>
      <use xlink:href="#DejaVuSans-73" transform="translate(348.751953 0)"/>
      <use xlink:href="#DejaVuSans-20" transform="translate(400.851562 0)"/>
      <use xlink:href="#DejaVuSans-28" transform="translate(432.638672 0)"/>
      <use xlink:href="#DejaVuSans-4d" transform="translate(471.652344 0)"/>
      <use xlink:href="#DejaVuSans-53" transform="translate(557.931641 0)"/>
      <use xlink:href="#DejaVuSans-45" transform="translate(621.408203 0)"/>
      <use xlink:href="#DejaVuSans-29" transform="translate(684.591797 0)"/>
     </g>
    </g>
   </g>
  </g>
 </g>
 <defs>
  <clipPath id="pe54d813fda">
   <rect x="55.880346" y="27.6" width="509.319654" height="290.44"/>
  </clipPath>
 </defs>
</svg>
