<?xml version="1.0" encoding="utf-8" standalone="no"?>
<!DOCTYPE svg PUBLIC "-//W3C//DTD SVG 1.1//EN"
  "http://www.w3.org/Graphics/SVG/1.1/DTD/svg11.dtd">
<svg xmlns:xlink="http://www.w3.org/1999/xlink" width="576pt" height="360pt" viewBox="0 0 576 360" xmlns="http://www.w3.org/2000/svg" version="1.1">
 <metadata>
  <rdf:RDF xmlns:dc="http://purl.org/dc/elements/1.1/" xmlns:cc="http://creativecommons.org/ns#" xmlns:rdf="http://www.w3.org/1999/02/22-rdf-syntax-ns#">
   <cc:Work>
    <dc:type rdf:resource="http://purl.org/dc/dcmitype/StillImage"/>
    <dc:date>2025-04-30T11:58:25.493334</dc:date>
    <dc:format>image/svg+xml</dc:format>
    <dc:creator>
     <cc:Agent>
      <dc:title>Matplotlib v3.10.1, https://matplotlib.org/</dc:title>
     </cc:Agent>
    </dc:creator>
   </cc:Work>
  </rdf:RDF>
 </metadata>
 <defs>
  <style type="text/css">*{stroke-linejoin: round; stroke-linecap: butt}</style>
 </defs>
 <g id="figure_1">
  <g id="patch_1">
   <path d="M 0 360 
L 576 360 
L 576 0 
L 0 0 
z
" style="fill: #ffffff"/>
  </g>
  <g id="axes_1">
   <g id="patch_2">
    <path d="M 55.880346 318.04 
L 562.737767 318.04 
L 562.737767 27.6 
L 55.880346 27.6 
z
" style="fill: #ffffff"/>
   </g>
   <g id="matplotlib.axis_1">
    <g id="xtick_1">
     <g id="line2d_1">
      <path d="M 78.91932 318.04 
L 78.91932 27.6 
" clip-path="url(#pe47e5d6ea5)" style="fill: none; stroke: #b0b0b0; stroke-width: 0.8; stroke-linecap: square"/>
     </g>
     <g id="line2d_2">
      <defs>
       <path id="mef165ebaf8" d="M 0 0 
L 0 3.5 
" style="stroke: #000000; stroke-width: 0.8"/>
      </defs>
      <g>
       <use xlink:href="#mef165ebaf8" x="78.91932" y="318.04" style="stroke: #000000; stroke-width: 0.8"/>
      </g>
     </g>
     <g id="text_1">
      <!-- 0 -->
      <g transform="translate(75.73807 332.638438) scale(0.1 -0.1)">
       <defs>
        <path id="DejaVuSans-30" d="M 2034 4250 
Q 1547 4250 1301 3770 
Q 1056 3291 1056 2328 
Q 1056 1369 1301 889 
Q 1547 409 2034 409 
Q 2525 409 2770 889 
Q 3016 1369 3016 2328 
Q 3016 3291 2770 3770 
Q 2525 4250 2034 4250 
z
M 2034 4750 
Q 2819 4750 3233 4129 
Q 3647 3509 3647 2328 
Q 3647 1150 3233 529 
Q 2819 -91 2034 -91 
Q 1250 -91 836 529 
Q 422 1150 422 2328 
Q 422 3509 836 4129 
Q 1250 4750 2034 4750 
z
" transform="scale(0.015625)"/>
       </defs>
       <use xlink:href="#DejaVuSans-30"/>
      </g>
     </g>
    </g>
    <g id="xtick_2">
     <g id="line2d_3">
      <path d="M 133.288579 318.04 
L 133.288579 27.6 
" clip-path="url(#pe47e5d6ea5)" style="fill: none; stroke: #b0b0b0; stroke-width: 0.8; stroke-linecap: square"/>
     </g>
     <g id="line2d_4">
      <g>
       <use xlink:href="#mef165ebaf8" x="133.288579" y="318.04" style="stroke: #000000; stroke-width: 0.8"/>
      </g>
     </g>
     <g id="text_2">
      <!-- 40 -->
      <g transform="translate(126.926079 332.638438) scale(0.1 -0.1)">
       <defs>
        <path id="DejaVuSans-34" d="M 2419 4116 
L 825 1625 
L 2419 1625 
L 2419 4116 
z
M 2253 4666 
L 3047 4666 
L 3047 1625 
L 3713 1625 
L 3713 1100 
L 3047 1100 
L 3047 0 
L 2419 0 
L 2419 1100 
L 313 1100 
L 313 1709 
L 2253 4666 
z
" transform="scale(0.015625)"/>
       </defs>
       <use xlink:href="#DejaVuSans-34"/>
       <use xlink:href="#DejaVuSans-30" transform="translate(63.623047 0)"/>
      </g>
     </g>
    </g>
    <g id="xtick_3">
     <g id="line2d_5">
      <path d="M 187.657839 318.04 
L 187.657839 27.6 
" clip-path="url(#pe47e5d6ea5)" style="fill: none; stroke: #b0b0b0; stroke-width: 0.8; stroke-linecap: square"/>
     </g>
     <g id="line2d_6">
      <g>
       <use xlink:href="#mef165ebaf8" x="187.657839" y="318.04" style="stroke: #000000; stroke-width: 0.8"/>
      </g>
     </g>
     <g id="text_3">
      <!-- 80 -->
      <g transform="translate(181.295339 332.638438) scale(0.1 -0.1)">
       <defs>
        <path id="DejaVuSans-38" d="M 2034 2216 
Q 1584 2216 1326 1975 
Q 1069 1734 1069 1313 
Q 1069 891 1326 650 
Q 1584 409 2034 409 
Q 2484 409 2743 651 
Q 3003 894 3003 1313 
Q 3003 1734 2745 1975 
Q 2488 2216 2034 2216 
z
M 1403 2484 
Q 997 2584 770 2862 
Q 544 3141 544 3541 
Q 544 4100 942 4425 
Q 1341 4750 2034 4750 
Q 2731 4750 3128 4425 
Q 3525 4100 3525 3541 
Q 3525 3141 3298 2862 
Q 3072 2584 2669 2484 
Q 3125 2378 3379 2068 
Q 3634 1759 3634 1313 
Q 3634 634 3220 271 
Q 2806 -91 2034 -91 
Q 1263 -91 848 271 
Q 434 634 434 1313 
Q 434 1759 690 2068 
Q 947 2378 1403 2484 
z
M 1172 3481 
Q 1172 3119 1398 2916 
Q 1625 2713 2034 2713 
Q 2441 2713 2670 2916 
Q 2900 3119 2900 3481 
Q 2900 3844 2670 4047 
Q 2441 4250 2034 4250 
Q 1625 4250 1398 4047 
Q 1172 3844 1172 3481 
z
" transform="scale(0.015625)"/>
       </defs>
       <use xlink:href="#DejaVuSans-38"/>
       <use xlink:href="#DejaVuSans-30" transform="translate(63.623047 0)"/>
      </g>
     </g>
    </g>
    <g id="xtick_4">
     <g id="line2d_7">
      <path d="M 242.027098 318.04 
L 242.027098 27.6 
" clip-path="url(#pe47e5d6ea5)" style="fill: none; stroke: #b0b0b0; stroke-width: 0.8; stroke-linecap: square"/>
     </g>
     <g id="line2d_8">
      <g>
       <use xlink:href="#mef165ebaf8" x="242.027098" y="318.04" style="stroke: #000000; stroke-width: 0.8"/>
      </g>
     </g>
     <g id="text_4">
      <!-- 120 -->
      <g transform="translate(232.483348 332.638438) scale(0.1 -0.1)">
       <defs>
        <path id="DejaVuSans-31" d="M 794 531 
L 1825 531 
L 1825 4091 
L 703 3866 
L 703 4441 
L 1819 4666 
L 2450 4666 
L 2450 531 
L 3481 531 
L 3481 0 
L 794 0 
L 794 531 
z
" transform="scale(0.015625)"/>
        <path id="DejaVuSans-32" d="M 1228 531 
L 3431 531 
L 3431 0 
L 469 0 
L 469 531 
Q 828 903 1448 1529 
Q 2069 2156 2228 2338 
Q 2531 2678 2651 2914 
Q 2772 3150 2772 3378 
Q 2772 3750 2511 3984 
Q 2250 4219 1831 4219 
Q 1534 4219 1204 4116 
Q 875 4013 500 3803 
L 500 4441 
Q 881 4594 1212 4672 
Q 1544 4750 1819 4750 
Q 2544 4750 2975 4387 
Q 3406 4025 3406 3419 
Q 3406 3131 3298 2873 
Q 3191 2616 2906 2266 
Q 2828 2175 2409 1742 
Q 1991 1309 1228 531 
z
" transform="scale(0.015625)"/>
       </defs>
       <use xlink:href="#DejaVuSans-31"/>
       <use xlink:href="#DejaVuSans-32" transform="translate(63.623047 0)"/>
       <use xlink:href="#DejaVuSans-30" transform="translate(127.246094 0)"/>
      </g>
     </g>
    </g>
    <g id="xtick_5">
     <g id="line2d_9">
      <path d="M 296.396358 318.04 
L 296.396358 27.6 
" clip-path="url(#pe47e5d6ea5)" style="fill: none; stroke: #b0b0b0; stroke-width: 0.8; stroke-linecap: square"/>
     </g>
     <g id="line2d_10">
      <g>
       <use xlink:href="#mef165ebaf8" x="296.396358" y="318.04" style="stroke: #000000; stroke-width: 0.8"/>
      </g>
     </g>
     <g id="text_5">
      <!-- 160 -->
      <g transform="translate(286.852608 332.638438) scale(0.1 -0.1)">
       <defs>
        <path id="DejaVuSans-36" d="M 2113 2584 
Q 1688 2584 1439 2293 
Q 1191 2003 1191 1497 
Q 1191 994 1439 701 
Q 1688 409 2113 409 
Q 2538 409 2786 701 
Q 3034 994 3034 1497 
Q 3034 2003 2786 2293 
Q 2538 2584 2113 2584 
z
M 3366 4563 
L 3366 3988 
Q 3128 4100 2886 4159 
Q 2644 4219 2406 4219 
Q 1781 4219 1451 3797 
Q 1122 3375 1075 2522 
Q 1259 2794 1537 2939 
Q 1816 3084 2150 3084 
Q 2853 3084 3261 2657 
Q 3669 2231 3669 1497 
Q 3669 778 3244 343 
Q 2819 -91 2113 -91 
Q 1303 -91 875 529 
Q 447 1150 447 2328 
Q 447 3434 972 4092 
Q 1497 4750 2381 4750 
Q 2619 4750 2861 4703 
Q 3103 4656 3366 4563 
z
" transform="scale(0.015625)"/>
       </defs>
       <use xlink:href="#DejaVuSans-31"/>
       <use xlink:href="#DejaVuSans-36" transform="translate(63.623047 0)"/>
       <use xlink:href="#DejaVuSans-30" transform="translate(127.246094 0)"/>
      </g>
     </g>
    </g>
    <g id="xtick_6">
     <g id="line2d_11">
      <path d="M 350.765617 318.04 
L 350.765617 27.6 
" clip-path="url(#pe47e5d6ea5)" style="fill: none; stroke: #b0b0b0; stroke-width: 0.8; stroke-linecap: square"/>
     </g>
     <g id="line2d_12">
      <g>
       <use xlink:href="#mef165ebaf8" x="350.765617" y="318.04" style="stroke: #000000; stroke-width: 0.8"/>
      </g>
     </g>
     <g id="text_6">
      <!-- 200 -->
      <g transform="translate(341.221867 332.638438) scale(0.1 -0.1)">
       <use xlink:href="#DejaVuSans-32"/>
       <use xlink:href="#DejaVuSans-30" transform="translate(63.623047 0)"/>
       <use xlink:href="#DejaVuSans-30" transform="translate(127.246094 0)"/>
      </g>
     </g>
    </g>
    <g id="xtick_7">
     <g id="line2d_13">
      <path d="M 405.134877 318.04 
L 405.134877 27.6 
" clip-path="url(#pe47e5d6ea5)" style="fill: none; stroke: #b0b0b0; stroke-width: 0.8; stroke-linecap: square"/>
     </g>
     <g id="line2d_14">
      <g>
       <use xlink:href="#mef165ebaf8" x="405.134877" y="318.04" style="stroke: #000000; stroke-width: 0.8"/>
      </g>
     </g>
     <g id="text_7">
      <!-- 240 -->
      <g transform="translate(395.591127 332.638438) scale(0.1 -0.1)">
       <use xlink:href="#DejaVuSans-32"/>
       <use xlink:href="#DejaVuSans-34" transform="translate(63.623047 0)"/>
       <use xlink:href="#DejaVuSans-30" transform="translate(127.246094 0)"/>
      </g>
     </g>
    </g>
    <g id="xtick_8">
     <g id="line2d_15">
      <path d="M 459.504136 318.04 
L 459.504136 27.6 
" clip-path="url(#pe47e5d6ea5)" style="fill: none; stroke: #b0b0b0; stroke-width: 0.8; stroke-linecap: square"/>
     </g>
     <g id="line2d_16">
      <g>
       <use xlink:href="#mef165ebaf8" x="459.504136" y="318.04" style="stroke: #000000; stroke-width: 0.8"/>
      </g>
     </g>
     <g id="text_8">
      <!-- 280 -->
      <g transform="translate(449.960386 332.638438) scale(0.1 -0.1)">
       <use xlink:href="#DejaVuSans-32"/>
       <use xlink:href="#DejaVuSans-38" transform="translate(63.623047 0)"/>
       <use xlink:href="#DejaVuSans-30" transform="translate(127.246094 0)"/>
      </g>
     </g>
    </g>
    <g id="xtick_9">
     <g id="line2d_17">
      <path d="M 513.873396 318.04 
L 513.873396 27.6 
" clip-path="url(#pe47e5d6ea5)" style="fill: none; stroke: #b0b0b0; stroke-width: 0.8; stroke-linecap: square"/>
     </g>
     <g id="line2d_18">
      <g>
       <use xlink:href="#mef165ebaf8" x="513.873396" y="318.04" style="stroke: #000000; stroke-width: 0.8"/>
      </g>
     </g>
     <g id="text_9">
      <!-- 320 -->
      <g transform="translate(504.329646 332.638438) scale(0.1 -0.1)">
       <defs>
        <path id="DejaVuSans-33" d="M 2597 2516 
Q 3050 2419 3304 2112 
Q 3559 1806 3559 1356 
Q 3559 666 3084 287 
Q 2609 -91 1734 -91 
Q 1441 -91 1130 -33 
Q 819 25 488 141 
L 488 750 
Q 750 597 1062 519 
Q 1375 441 1716 441 
Q 2309 441 2620 675 
Q 2931 909 2931 1356 
Q 2931 1769 2642 2001 
Q 2353 2234 1838 2234 
L 1294 2234 
L 1294 2753 
L 1863 2753 
Q 2328 2753 2575 2939 
Q 2822 3125 2822 3475 
Q 2822 3834 2567 4026 
Q 2313 4219 1838 4219 
Q 1578 4219 1281 4162 
Q 984 4106 628 3988 
L 628 4550 
Q 988 4650 1302 4700 
Q 1616 4750 1894 4750 
Q 2613 4750 3031 4423 
Q 3450 4097 3450 3541 
Q 3450 3153 3228 2886 
Q 3006 2619 2597 2516 
z
" transform="scale(0.015625)"/>
       </defs>
       <use xlink:href="#DejaVuSans-33"/>
       <use xlink:href="#DejaVuSans-32" transform="translate(63.623047 0)"/>
       <use xlink:href="#DejaVuSans-30" transform="translate(127.246094 0)"/>
      </g>
     </g>
    </g>
    <g id="text_10">
     <!-- Epoch -->
     <g transform="translate(293.998119 346.316563) scale(0.1 -0.1)">
      <defs>
       <path id="DejaVuSans-45" d="M 628 4666 
L 3578 4666 
L 3578 4134 
L 1259 4134 
L 1259 2753 
L 3481 2753 
L 3481 2222 
L 1259 2222 
L 1259 531 
L 3634 531 
L 3634 0 
L 628 0 
L 628 4666 
z
" transform="scale(0.015625)"/>
       <path id="DejaVuSans-70" d="M 1159 525 
L 1159 -1331 
L 581 -1331 
L 581 3500 
L 1159 3500 
L 1159 2969 
Q 1341 3281 1617 3432 
Q 1894 3584 2278 3584 
Q 2916 3584 3314 3078 
Q 3713 2572 3713 1747 
Q 3713 922 3314 415 
Q 2916 -91 2278 -91 
Q 1894 -91 1617 61 
Q 1341 213 1159 525 
z
M 3116 1747 
Q 3116 2381 2855 2742 
Q 2594 3103 2138 3103 
Q 1681 3103 1420 2742 
Q 1159 2381 1159 1747 
Q 1159 1113 1420 752 
Q 1681 391 2138 391 
Q 2594 391 2855 752 
Q 3116 1113 3116 1747 
z
" transform="scale(0.015625)"/>
       <path id="DejaVuSans-6f" d="M 1959 3097 
Q 1497 3097 1228 2736 
Q 959 2375 959 1747 
Q 959 1119 1226 758 
Q 1494 397 1959 397 
Q 2419 397 2687 759 
Q 2956 1122 2956 1747 
Q 2956 2369 2687 2733 
Q 2419 3097 1959 3097 
z
M 1959 3584 
Q 2709 3584 3137 3096 
Q 3566 2609 3566 1747 
Q 3566 888 3137 398 
Q 2709 -91 1959 -91 
Q 1206 -91 779 398 
Q 353 888 353 1747 
Q 353 2609 779 3096 
Q 1206 3584 1959 3584 
z
" transform="scale(0.015625)"/>
       <path id="DejaVuSans-63" d="M 3122 3366 
L 3122 2828 
Q 2878 2963 2633 3030 
Q 2388 3097 2138 3097 
Q 1578 3097 1268 2742 
Q 959 2388 959 1747 
Q 959 1106 1268 751 
Q 1578 397 2138 397 
Q 2388 397 2633 464 
Q 2878 531 3122 666 
L 3122 134 
Q 2881 22 2623 -34 
Q 2366 -91 2075 -91 
Q 1284 -91 818 406 
Q 353 903 353 1747 
Q 353 2603 823 3093 
Q 1294 3584 2113 3584 
Q 2378 3584 2631 3529 
Q 2884 3475 3122 3366 
z
" transform="scale(0.015625)"/>
       <path id="DejaVuSans-68" d="M 3513 2113 
L 3513 0 
L 2938 0 
L 2938 2094 
Q 2938 2591 2744 2837 
Q 2550 3084 2163 3084 
Q 1697 3084 1428 2787 
Q 1159 2491 1159 1978 
L 1159 0 
L 581 0 
L 581 4863 
L 1159 4863 
L 1159 2956 
Q 1366 3272 1645 3428 
Q 1925 3584 2291 3584 
Q 2894 3584 3203 3211 
Q 3513 2838 3513 2113 
z
" transform="scale(0.015625)"/>
      </defs>
      <use xlink:href="#DejaVuSans-45"/>
      <use xlink:href="#DejaVuSans-70" transform="translate(63.183594 0)"/>
      <use xlink:href="#DejaVuSans-6f" transform="translate(126.660156 0)"/>
      <use xlink:href="#DejaVuSans-63" transform="translate(187.841797 0)"/>
      <use xlink:href="#DejaVuSans-68" transform="translate(242.822266 0)"/>
     </g>
    </g>
   </g>
   <g id="matplotlib.axis_2">
    <g id="ytick_1">
     <g id="line2d_19">
      <path d="M 55.880346 214.593015 
L 562.737767 214.593015 
" clip-path="url(#pe47e5d6ea5)" style="fill: none; stroke: #b0b0b0; stroke-width: 0.8; stroke-linecap: square"/>
     </g>
     <g id="line2d_20">
      <defs>
       <path id="m9f3e19a4e9" d="M 0 0 
L -3.5 0 
" style="stroke: #000000; stroke-width: 0.8"/>
      </defs>
      <g>
       <use xlink:href="#m9f3e19a4e9" x="55.880346" y="214.593015" style="stroke: #000000; stroke-width: 0.8"/>
      </g>
     </g>
     <g id="text_11">
      <!-- $\mathdefault{10^{-3}}$ -->
      <g transform="translate(25.380346 218.392234) scale(0.1 -0.1)">
       <defs>
        <path id="DejaVuSans-2212" d="M 678 2272 
L 4684 2272 
L 4684 1741 
L 678 1741 
L 678 2272 
z
" transform="scale(0.015625)"/>
       </defs>
       <use xlink:href="#DejaVuSans-31" transform="translate(0 0.765625)"/>
       <use xlink:href="#DejaVuSans-30" transform="translate(63.623047 0.765625)"/>
       <use xlink:href="#DejaVuSans-2212" transform="translate(128.203125 39.046875) scale(0.7)"/>
       <use xlink:href="#DejaVuSans-33" transform="translate(186.855469 39.046875) scale(0.7)"/>
      </g>
     </g>
    </g>
    <g id="ytick_2">
     <g id="line2d_21">
      <path d="M 55.880346 84.786879 
L 562.737767 84.786879 
" clip-path="url(#pe47e5d6ea5)" style="fill: none; stroke: #b0b0b0; stroke-width: 0.8; stroke-linecap: square"/>
     </g>
     <g id="line2d_22">
      <g>
       <use xlink:href="#m9f3e19a4e9" x="55.880346" y="84.786879" style="stroke: #000000; stroke-width: 0.8"/>
      </g>
     </g>
     <g id="text_12">
      <!-- $\mathdefault{10^{-2}}$ -->
      <g transform="translate(25.380346 88.586098) scale(0.1 -0.1)">
       <use xlink:href="#DejaVuSans-31" transform="translate(0 0.765625)"/>
       <use xlink:href="#DejaVuSans-30" transform="translate(63.623047 0.765625)"/>
       <use xlink:href="#DejaVuSans-2212" transform="translate(128.203125 39.046875) scale(0.7)"/>
       <use xlink:href="#DejaVuSans-32" transform="translate(186.855469 39.046875) scale(0.7)"/>
      </g>
     </g>
    </g>
    <g id="ytick_3">
     <g id="line2d_23">
      <defs>
       <path id="ma3c7bf5fd9" d="M 0 0 
L -2 0 
" style="stroke: #000000; stroke-width: 0.6"/>
      </defs>
      <g>
       <use xlink:href="#ma3c7bf5fd9" x="55.880346" y="305.323611" style="stroke: #000000; stroke-width: 0.6"/>
      </g>
     </g>
    </g>
    <g id="ytick_4">
     <g id="line2d_24">
      <g>
       <use xlink:href="#ma3c7bf5fd9" x="55.880346" y="282.465885" style="stroke: #000000; stroke-width: 0.6"/>
      </g>
     </g>
    </g>
    <g id="ytick_5">
     <g id="line2d_25">
      <g>
       <use xlink:href="#ma3c7bf5fd9" x="55.880346" y="266.24807" style="stroke: #000000; stroke-width: 0.6"/>
      </g>
     </g>
    </g>
    <g id="ytick_6">
     <g id="line2d_26">
      <g>
       <use xlink:href="#ma3c7bf5fd9" x="55.880346" y="253.668556" style="stroke: #000000; stroke-width: 0.6"/>
      </g>
     </g>
    </g>
    <g id="ytick_7">
     <g id="line2d_27">
      <g>
       <use xlink:href="#ma3c7bf5fd9" x="55.880346" y="243.390344" style="stroke: #000000; stroke-width: 0.6"/>
      </g>
     </g>
    </g>
    <g id="ytick_8">
     <g id="line2d_28">
      <g>
       <use xlink:href="#ma3c7bf5fd9" x="55.880346" y="234.70024" style="stroke: #000000; stroke-width: 0.6"/>
      </g>
     </g>
    </g>
    <g id="ytick_9">
     <g id="line2d_29">
      <g>
       <use xlink:href="#ma3c7bf5fd9" x="55.880346" y="227.17253" style="stroke: #000000; stroke-width: 0.6"/>
      </g>
     </g>
    </g>
    <g id="ytick_10">
     <g id="line2d_30">
      <g>
       <use xlink:href="#ma3c7bf5fd9" x="55.880346" y="220.532618" style="stroke: #000000; stroke-width: 0.6"/>
      </g>
     </g>
    </g>
    <g id="ytick_11">
     <g id="line2d_31">
      <g>
       <use xlink:href="#ma3c7bf5fd9" x="55.880346" y="175.517475" style="stroke: #000000; stroke-width: 0.6"/>
      </g>
     </g>
    </g>
    <g id="ytick_12">
     <g id="line2d_32">
      <g>
       <use xlink:href="#ma3c7bf5fd9" x="55.880346" y="152.659749" style="stroke: #000000; stroke-width: 0.6"/>
      </g>
     </g>
    </g>
    <g id="ytick_13">
     <g id="line2d_33">
      <g>
       <use xlink:href="#ma3c7bf5fd9" x="55.880346" y="136.441934" style="stroke: #000000; stroke-width: 0.6"/>
      </g>
     </g>
    </g>
    <g id="ytick_14">
     <g id="line2d_34">
      <g>
       <use xlink:href="#ma3c7bf5fd9" x="55.880346" y="123.86242" style="stroke: #000000; stroke-width: 0.6"/>
      </g>
     </g>
    </g>
    <g id="ytick_15">
     <g id="line2d_35">
      <g>
       <use xlink:href="#ma3c7bf5fd9" x="55.880346" y="113.584208" style="stroke: #000000; stroke-width: 0.6"/>
      </g>
     </g>
    </g>
    <g id="ytick_16">
     <g id="line2d_36">
      <g>
       <use xlink:href="#ma3c7bf5fd9" x="55.880346" y="104.894104" style="stroke: #000000; stroke-width: 0.6"/>
      </g>
     </g>
    </g>
    <g id="ytick_17">
     <g id="line2d_37">
      <g>
       <use xlink:href="#ma3c7bf5fd9" x="55.880346" y="97.366394" style="stroke: #000000; stroke-width: 0.6"/>
      </g>
     </g>
    </g>
    <g id="ytick_18">
     <g id="line2d_38">
      <g>
       <use xlink:href="#ma3c7bf5fd9" x="55.880346" y="90.726482" style="stroke: #000000; stroke-width: 0.6"/>
      </g>
     </g>
    </g>
    <g id="ytick_19">
     <g id="line2d_39">
      <g>
       <use xlink:href="#ma3c7bf5fd9" x="55.880346" y="45.711339" style="stroke: #000000; stroke-width: 0.6"/>
      </g>
     </g>
    </g>
    <g id="text_13">
     <!-- MSE Loss -->
     <g transform="translate(19.300659 196.023906) rotate(-90) scale(0.1 -0.1)">
      <defs>
       <path id="DejaVuSans-4d" d="M 628 4666 
L 1569 4666 
L 2759 1491 
L 3956 4666 
L 4897 4666 
L 4897 0 
L 4281 0 
L 4281 4097 
L 3078 897 
L 2444 897 
L 1241 4097 
L 1241 0 
L 628 0 
L 628 4666 
z
" transform="scale(0.015625)"/>
       <path id="DejaVuSans-53" d="M 3425 4513 
L 3425 3897 
Q 3066 4069 2747 4153 
Q 2428 4238 2131 4238 
Q 1616 4238 1336 4038 
Q 1056 3838 1056 3469 
Q 1056 3159 1242 3001 
Q 1428 2844 1947 2747 
L 2328 2669 
Q 3034 2534 3370 2195 
Q 3706 1856 3706 1288 
Q 3706 609 3251 259 
Q 2797 -91 1919 -91 
Q 1588 -91 1214 -16 
Q 841 59 441 206 
L 441 856 
Q 825 641 1194 531 
Q 1563 422 1919 422 
Q 2459 422 2753 634 
Q 3047 847 3047 1241 
Q 3047 1584 2836 1778 
Q 2625 1972 2144 2069 
L 1759 2144 
Q 1053 2284 737 2584 
Q 422 2884 422 3419 
Q 422 4038 858 4394 
Q 1294 4750 2059 4750 
Q 2388 4750 2728 4690 
Q 3069 4631 3425 4513 
z
" transform="scale(0.015625)"/>
       <path id="DejaVuSans-20" transform="scale(0.015625)"/>
       <path id="DejaVuSans-4c" d="M 628 4666 
L 1259 4666 
L 1259 531 
L 3531 531 
L 3531 0 
L 628 0 
L 628 4666 
z
" transform="scale(0.015625)"/>
       <path id="DejaVuSans-73" d="M 2834 3397 
L 2834 2853 
Q 2591 2978 2328 3040 
Q 2066 3103 1784 3103 
Q 1356 3103 1142 2972 
Q 928 2841 928 2578 
Q 928 2378 1081 2264 
Q 1234 2150 1697 2047 
L 1894 2003 
Q 2506 1872 2764 1633 
Q 3022 1394 3022 966 
Q 3022 478 2636 193 
Q 2250 -91 1575 -91 
Q 1294 -91 989 -36 
Q 684 19 347 128 
L 347 722 
Q 666 556 975 473 
Q 1284 391 1588 391 
Q 1994 391 2212 530 
Q 2431 669 2431 922 
Q 2431 1156 2273 1281 
Q 2116 1406 1581 1522 
L 1381 1569 
Q 847 1681 609 1914 
Q 372 2147 372 2553 
Q 372 3047 722 3315 
Q 1072 3584 1716 3584 
Q 2034 3584 2315 3537 
Q 2597 3491 2834 3397 
z
" transform="scale(0.015625)"/>
      </defs>
      <use xlink:href="#DejaVuSans-4d"/>
      <use xlink:href="#DejaVuSans-53" transform="translate(86.279297 0)"/>
      <use xlink:href="#DejaVuSans-45" transform="translate(149.755859 0)"/>
      <use xlink:href="#DejaVuSans-20" transform="translate(212.939453 0)"/>
      <use xlink:href="#DejaVuSans-4c" transform="translate(244.726562 0)"/>
      <use xlink:href="#DejaVuSans-6f" transform="translate(298.689453 0)"/>
      <use xlink:href="#DejaVuSans-73" transform="translate(359.871094 0)"/>
      <use xlink:href="#DejaVuSans-73" transform="translate(411.970703 0)"/>
     </g>
    </g>
   </g>
   <g id="line2d_40">
    <path d="M 78.91932 40.801818 
L 80.278551 137.340435 
L 81.637783 178.903613 
L 82.997014 206.215104 
L 84.356246 225.71829 
L 85.715477 235.968521 
L 87.074709 244.487247 
L 88.43394 252.098315 
L 89.793172 256.409595 
L 91.152403 257.025314 
L 92.511635 263.525929 
L 93.870866 267.312431 
L 95.230098 265.56403 
L 96.589329 271.342025 
L 97.948561 272.292192 
L 99.307792 277.339341 
L 100.667024 277.936277 
L 102.026255 280.329137 
L 104.744718 282.337892 
L 106.10395 285.330539 
L 107.463181 285.146602 
L 108.822413 284.803383 
L 110.181644 286.490435 
L 111.540876 285.477996 
L 114.259338 286.395343 
L 115.61857 285.947034 
L 116.977801 287.072014 
L 118.337033 286.870777 
L 119.696264 285.99895 
L 121.055496 286.347239 
L 122.414727 287.252112 
L 123.773959 286.63219 
L 125.13319 289.692238 
L 126.492422 289.027079 
L 127.851653 289.087115 
L 129.210885 289.341748 
L 130.570116 290.211155 
L 131.929348 289.546372 
L 133.288579 289.168724 
L 134.647811 289.059871 
L 136.007042 290.200793 
L 137.366274 290.04372 
L 138.725505 289.272883 
L 140.084737 290.400463 
L 141.443968 290.869902 
L 142.8032 290.203647 
L 144.162431 290.520785 
L 145.521663 290.102448 
L 146.880894 291.671107 
L 148.240126 291.139349 
L 149.599357 292.234703 
L 150.958589 292.209577 
L 152.31782 292.723004 
L 153.677052 291.335477 
L 155.036283 292.04772 
L 156.395515 291.677205 
L 157.754746 292.069133 
L 159.113978 292.57912 
L 160.473209 291.33485 
L 161.832441 293.197662 
L 163.191672 293.217101 
L 164.550903 292.626074 
L 165.910135 293.324023 
L 167.269366 293.097727 
L 168.628598 292.403099 
L 169.987829 293.94204 
L 171.347061 292.520253 
L 172.706292 293.173164 
L 174.065524 292.769975 
L 175.424755 292.793837 
L 176.783987 292.983716 
L 178.143218 293.606242 
L 179.50245 293.619529 
L 180.861681 294.066549 
L 182.220913 294.165534 
L 183.580144 292.315803 
L 184.939376 292.653773 
L 186.298607 292.469548 
L 187.657839 293.17209 
L 189.01707 293.463065 
L 190.376302 293.913298 
L 191.735533 293.478359 
L 193.094765 294.149502 
L 194.453996 293.17043 
L 195.813228 293.144234 
L 197.172459 294.031752 
L 198.531691 292.678169 
L 199.890922 293.299087 
L 201.250154 293.230105 
L 203.968617 293.805676 
L 205.327848 293.1377 
L 206.68708 294.457084 
L 208.046311 293.829292 
L 209.405543 294.354427 
L 210.764774 293.43554 
L 212.124006 292.96952 
L 213.483237 294.264417 
L 214.842469 294.50911 
L 217.560931 293.444018 
L 218.920163 293.691455 
L 220.279394 292.789336 
L 221.638626 294.811521 
L 222.997857 293.767837 
L 225.71632 293.233459 
L 228.434783 293.44488 
L 229.794015 293.157337 
L 231.153246 293.756933 
L 235.230941 294.369555 
L 236.590172 293.456727 
L 237.949404 294.229999 
L 239.308635 294.386455 
L 240.667867 293.831446 
L 242.027098 293.403179 
L 243.38633 294.077018 
L 244.745561 293.819219 
L 246.104793 294.894561 
L 247.464024 294.689515 
L 248.823256 293.598716 
L 250.182487 294.027174 
L 251.541719 293.993272 
L 252.90095 293.30984 
L 254.260182 294.903086 
L 255.619413 294.053823 
L 256.978645 293.891687 
L 258.337876 293.350365 
L 259.697108 293.253144 
L 261.056339 293.952167 
L 262.415571 294.453926 
L 263.774802 293.883984 
L 265.134034 293.906313 
L 266.493265 294.091589 
L 267.852496 295.141186 
L 269.211728 294.115385 
L 270.570959 294.308401 
L 271.930191 294.676874 
L 273.289422 294.078636 
L 274.648654 293.884284 
L 276.007885 294.980574 
L 277.367117 293.799118 
L 278.726348 293.812522 
L 280.08558 294.803852 
L 281.444811 295.451926 
L 282.804043 293.827467 
L 284.163274 294.040238 
L 285.522506 294.412651 
L 286.881737 293.461157 
L 288.240969 294.836001 
L 290.959432 293.652402 
L 292.318663 294.50153 
L 293.677895 294.718438 
L 295.037126 293.64039 
L 296.396358 294.357547 
L 297.755589 294.717434 
L 299.114821 294.250047 
L 300.474052 293.902785 
L 301.833284 293.989007 
L 303.192515 293.672163 
L 304.551747 294.231113 
L 305.910978 294.544914 
L 307.27021 294.09527 
L 308.629441 294.339672 
L 309.988673 293.742069 
L 311.347904 294.255747 
L 312.707136 293.990572 
L 314.066367 294.728464 
L 315.425599 294.076911 
L 316.78483 295.071499 
L 318.144061 293.597778 
L 320.862524 294.540152 
L 322.221756 294.324968 
L 323.580987 294.981321 
L 324.940219 294.503566 
L 326.29945 294.761243 
L 327.658682 294.145144 
L 329.017913 293.853068 
L 330.377145 294.235345 
L 331.736376 294.342879 
L 334.454839 294.159802 
L 335.814071 294.64355 
L 337.173302 294.725208 
L 338.532534 294.433512 
L 339.891765 294.896119 
L 342.610228 293.908716 
L 343.96946 294.312514 
L 345.328691 293.863531 
L 346.687923 294.217412 
L 348.047154 294.710466 
L 349.406386 293.555701 
L 350.765617 294.902515 
L 352.124849 295.123453 
L 353.48408 295.18761 
L 354.843312 294.51771 
L 356.202543 295.310262 
L 357.561775 294.984265 
L 358.921006 295.361427 
L 361.639469 294.370038 
L 362.998701 294.524885 
L 364.357932 293.961391 
L 365.717164 295.14026 
L 367.076395 294.403016 
L 368.435626 293.935242 
L 369.794858 294.224999 
L 371.154089 295.110289 
L 372.513321 295.096787 
L 373.872552 294.46728 
L 375.231784 294.699157 
L 376.591015 294.373776 
L 377.950247 295.315649 
L 379.309478 294.79873 
L 380.66871 294.636458 
L 382.027941 294.66887 
L 383.387173 294.181095 
L 384.746404 294.197394 
L 386.105636 295.623178 
L 387.464867 294.77795 
L 388.824099 294.225482 
L 391.542562 294.726166 
L 392.901793 294.205727 
L 394.261025 294.44712 
L 395.620256 294.378971 
L 396.979488 295.128868 
L 398.338719 294.698065 
L 399.697951 294.094432 
L 401.057182 294.552498 
L 402.416414 294.120348 
L 403.775645 294.470445 
L 405.134877 294.246771 
L 406.494108 294.651371 
L 407.85334 293.970976 
L 409.212571 294.546341 
L 410.571803 294.220276 
L 411.931034 294.371754 
L 413.290266 293.714685 
L 414.649497 295.117828 
L 416.008729 294.739689 
L 417.36796 293.680609 
L 418.727191 294.746546 
L 420.086423 294.214852 
L 421.445654 295.00652 
L 422.804886 294.289901 
L 424.164117 294.852574 
L 425.523349 294.591439 
L 426.88258 295.074736 
L 429.601043 294.234959 
L 430.960275 294.321366 
L 432.319506 294.828785 
L 433.678738 293.888721 
L 435.037969 294.488646 
L 437.756432 294.476633 
L 439.115664 293.946014 
L 440.474895 294.299336 
L 441.834127 293.509741 
L 443.193358 294.269519 
L 444.55259 294.675109 
L 445.911821 294.407978 
L 447.271053 294.722546 
L 448.630284 295.397432 
L 449.989516 294.440788 
L 451.348747 293.982412 
L 452.707979 293.677177 
L 454.06721 294.823221 
L 455.426442 294.566211 
L 456.785673 294.067337 
L 458.144905 294.863105 
L 459.504136 295.104496 
L 460.863368 294.800917 
L 462.222599 294.280793 
L 466.300294 294.257107 
L 467.659525 294.467193 
L 469.018756 293.693331 
L 470.377988 294.438499 
L 471.737219 295.632726 
L 474.455682 294.099149 
L 477.174145 294.661656 
L 478.533377 294.509506 
L 479.892608 294.846022 
L 481.25184 294.252103 
L 482.611071 295.29765 
L 483.970303 294.181575 
L 485.329534 294.094274 
L 486.688766 294.926759 
L 488.047997 294.752713 
L 489.407229 294.810632 
L 490.76646 293.11335 
L 492.125692 294.592973 
L 493.484923 294.995857 
L 494.844155 295.858871 
L 497.562618 293.747916 
L 498.921849 294.469093 
L 501.640312 294.98167 
L 502.999544 293.521307 
L 504.358775 295.162579 
L 505.718007 294.691771 
L 507.077238 294.397292 
L 508.43647 293.409689 
L 509.795701 293.263939 
L 511.154933 294.241817 
L 512.514164 293.869227 
L 513.873396 294.937156 
L 516.591859 294.190216 
L 517.95109 294.725537 
L 520.669553 294.711338 
L 522.028784 294.347086 
L 523.388016 294.669455 
L 524.747247 294.322419 
L 526.106479 294.453511 
L 527.46571 294.948357 
L 528.824942 293.496262 
L 530.184173 294.742821 
L 532.902636 294.834546 
L 534.261868 295.32043 
L 535.621099 294.219428 
L 536.980331 293.914329 
L 538.339562 294.19443 
L 539.698794 293.990529 
L 539.698794 293.990529 
" clip-path="url(#pe47e5d6ea5)" style="fill: none; stroke: #1f77b4; stroke-width: 2; stroke-linecap: square"/>
   </g>
   <g id="line2d_41">
    <path d="M 78.91932 201.272595 
L 80.278551 204.733644 
L 81.637783 235.508319 
L 82.997014 248.084991 
L 84.356246 271.728271 
L 85.715477 260.268549 
L 87.074709 280.361217 
L 88.43394 236.274793 
L 89.793172 284.743531 
L 91.152403 257.931911 
L 92.511635 252.89059 
L 93.870866 281.495526 
L 95.230098 287.158017 
L 96.589329 289.536714 
L 97.948561 285.150347 
L 99.307792 284.986143 
L 100.667024 272.578862 
L 102.026255 266.522292 
L 103.385487 291.051581 
L 104.744718 286.794458 
L 106.10395 241.917872 
L 107.463181 294.885839 
L 108.822413 297.960475 
L 110.181644 297.559188 
L 111.540876 234.299045 
L 112.900107 280.219833 
L 114.259338 261.318533 
L 115.61857 184.760126 
L 116.977801 278.69883 
L 118.337033 295.203886 
L 119.696264 250.856631 
L 121.055496 284.721498 
L 122.414727 295.185523 
L 123.773959 238.051589 
L 125.13319 274.38224 
L 126.492422 294.638733 
L 127.851653 290.408011 
L 129.210885 299.249683 
L 130.570116 303.170977 
L 131.929348 274.679248 
L 133.288579 295.273622 
L 134.647811 277.677458 
L 136.007042 302.017766 
L 137.366274 232.317682 
L 138.725505 301.603125 
L 140.084737 302.404741 
L 141.443968 288.666558 
L 142.8032 283.515642 
L 144.162431 300.401865 
L 145.521663 302.609761 
L 146.880894 298.340629 
L 148.240126 301.31056 
L 149.599357 295.978995 
L 150.958589 296.754645 
L 152.31782 282.000119 
L 153.677052 285.37505 
L 155.036283 295.136889 
L 156.395515 301.977126 
L 157.754746 302.715731 
L 159.113978 302.147889 
L 160.473209 277.971323 
L 161.832441 297.003491 
L 163.191672 302.451911 
L 164.550903 302.989551 
L 165.910135 290.289738 
L 167.269366 303.129727 
L 168.628598 281.36344 
L 169.987829 303.583716 
L 171.347061 299.271615 
L 172.706292 304.068443 
L 174.065524 303.159331 
L 175.424755 301.369918 
L 176.783987 302.950533 
L 178.143218 297.845806 
L 179.50245 301.991805 
L 180.861681 303.292404 
L 182.220913 294.227336 
L 183.580144 300.452376 
L 184.939376 290.306768 
L 186.298607 291.84047 
L 187.657839 303.145691 
L 189.01707 300.34022 
L 190.376302 300.039317 
L 191.735533 300.996541 
L 193.094765 304.26713 
L 194.453996 304.177105 
L 195.813228 303.277269 
L 197.172459 301.185444 
L 198.531691 301.732121 
L 199.890922 302.860861 
L 201.250154 302.322815 
L 202.609385 302.08503 
L 203.968617 300.767672 
L 205.327848 303.89008 
L 206.68708 304.405248 
L 208.046311 304.365134 
L 209.405543 302.988445 
L 210.764774 302.406474 
L 212.124006 303.570009 
L 213.483237 296.699528 
L 214.842469 301.727811 
L 217.560931 303.58734 
L 218.920163 304.556993 
L 220.279394 304.160508 
L 221.638626 304.235288 
L 222.997857 299.991741 
L 224.357089 303.628266 
L 225.71632 304.452245 
L 227.075552 304.20969 
L 228.434783 291.085836 
L 229.794015 304.539345 
L 232.512478 301.161269 
L 233.871709 303.991195 
L 235.230941 303.802307 
L 236.590172 304.533169 
L 239.308635 304.478128 
L 240.667867 303.561914 
L 242.027098 304.255537 
L 243.38633 301.586329 
L 244.745561 304.20291 
L 246.104793 299.860069 
L 247.464024 304.619434 
L 248.823256 304.243428 
L 250.182487 304.645248 
L 251.541719 304.121439 
L 252.90095 303.402168 
L 254.260182 304.438123 
L 255.619413 304.592458 
L 256.978645 302.512905 
L 258.337876 304.292336 
L 259.697108 304.60037 
L 261.056339 303.441218 
L 262.415571 303.565039 
L 263.774802 304.363585 
L 265.134034 304.453198 
L 266.493265 303.945462 
L 267.852496 304.691386 
L 269.211728 301.731474 
L 270.570959 304.711394 
L 271.930191 304.484678 
L 273.289422 304.624769 
L 274.648654 302.660933 
L 276.007885 304.349893 
L 277.367117 304.538059 
L 278.726348 303.898482 
L 280.08558 304.647355 
L 281.444811 303.274563 
L 282.804043 304.741955 
L 285.522506 304.291977 
L 286.881737 304.130586 
L 288.240969 304.378181 
L 290.959432 304.487357 
L 292.318663 304.221953 
L 293.677895 304.633529 
L 295.037126 304.057416 
L 296.396358 303.656584 
L 299.114821 304.445949 
L 300.474052 304.034308 
L 301.833284 304.738314 
L 303.192515 304.694927 
L 304.551747 304.446478 
L 305.910978 304.498351 
L 307.27021 304.25895 
L 308.629441 303.381902 
L 309.988673 304.528958 
L 311.347904 303.378415 
L 312.707136 304.774649 
L 315.425599 304.633585 
L 316.78483 304.056101 
L 318.144061 304.213454 
L 319.503293 303.154074 
L 320.862524 304.153907 
L 322.221756 303.650583 
L 323.580987 304.054653 
L 324.940219 304.576528 
L 326.29945 303.798906 
L 327.658682 304.728312 
L 329.017913 304.765908 
L 330.377145 304.10774 
L 331.736376 304.593353 
L 333.095608 304.131522 
L 334.454839 304.516446 
L 335.814071 304.650375 
L 339.891765 304.763626 
L 341.250997 302.782069 
L 342.610228 304.107363 
L 343.96946 304.111189 
L 345.328691 304.658242 
L 346.687923 301.420873 
L 348.047154 304.719713 
L 349.406386 301.881876 
L 350.765617 304.609903 
L 352.124849 304.627208 
L 353.48408 304.190181 
L 354.843312 302.543745 
L 356.202543 304.243106 
L 357.561775 304.732343 
L 358.921006 303.495133 
L 360.280238 304.762338 
L 361.639469 304.721774 
L 362.998701 304.457504 
L 364.357932 304.65335 
L 365.717164 304.655243 
L 367.076395 304.26118 
L 368.435626 304.704728 
L 369.794858 304.482969 
L 371.154089 304.736743 
L 372.513321 302.687207 
L 373.872552 304.744882 
L 375.231784 304.455092 
L 376.591015 303.261896 
L 377.950247 304.763309 
L 379.309478 304.44968 
L 380.66871 304.690011 
L 383.387173 304.776631 
L 384.746404 304.58517 
L 386.105636 304.237549 
L 387.464867 304.633087 
L 388.824099 304.348288 
L 390.18333 304.686085 
L 391.542562 304.718479 
L 392.901793 304.166206 
L 395.620256 304.771541 
L 396.979488 304.527207 
L 398.338719 304.806711 
L 399.697951 304.740213 
L 401.057182 304.55516 
L 402.416414 300.951678 
L 403.775645 304.838182 
L 405.134877 304.57624 
L 406.494108 304.761258 
L 407.85334 304.645357 
L 409.212571 303.080705 
L 410.571803 304.6581 
L 411.931034 304.735805 
L 413.290266 304.428199 
L 414.649497 303.846758 
L 417.36796 304.440509 
L 418.727191 304.440202 
L 421.445654 304.755008 
L 422.804886 304.184557 
L 424.164117 304.3852 
L 425.523349 304.720118 
L 426.88258 304.712437 
L 428.241812 304.187037 
L 429.601043 304.127478 
L 430.960275 304.758119 
L 432.319506 304.151344 
L 433.678738 303.837948 
L 435.037969 304.036849 
L 436.397201 304.795092 
L 437.756432 304.519657 
L 439.115664 302.541723 
L 440.474895 304.450593 
L 441.834127 304.784935 
L 443.193358 304.457601 
L 444.55259 304.662162 
L 445.911821 302.731034 
L 447.271053 304.787051 
L 448.630284 304.366876 
L 449.989516 304.702391 
L 451.348747 304.352981 
L 452.707979 301.942453 
L 454.06721 304.14539 
L 455.426442 304.674816 
L 458.144905 304.477138 
L 459.504136 304.662097 
L 460.863368 304.01647 
L 462.222599 304.718455 
L 463.581831 304.334881 
L 464.941062 304.607327 
L 466.300294 304.442968 
L 467.659525 304.433617 
L 469.018756 304.822556 
L 471.737219 304.75649 
L 473.096451 304.451574 
L 474.455682 304.440449 
L 475.814914 303.97056 
L 478.533377 304.552473 
L 479.892608 304.781014 
L 482.611071 304.784723 
L 483.970303 304.46448 
L 485.329534 304.426132 
L 486.688766 304.809186 
L 488.047997 304.421469 
L 490.76646 304.133634 
L 492.125692 304.756218 
L 493.484923 304.663881 
L 494.844155 304.050013 
L 496.203386 304.314209 
L 497.562618 304.819954 
L 498.921849 304.745154 
L 500.281081 304.331834 
L 501.640312 304.778906 
L 502.999544 303.988115 
L 508.43647 304.794251 
L 509.795701 304.766477 
L 511.154933 303.549333 
L 512.514164 304.200678 
L 513.873396 304.51766 
L 515.232627 304.699207 
L 516.591859 302.522221 
L 519.310322 304.648903 
L 520.669553 302.983837 
L 522.028784 304.698533 
L 523.388016 304.308939 
L 524.747247 304.692052 
L 531.543405 304.68658 
L 532.902636 303.927337 
L 534.261868 304.385534 
L 535.621099 304.233888 
L 536.980331 304.281209 
L 538.339562 304.7499 
L 539.698794 303.504509 
L 539.698794 303.504509 
" clip-path="url(#pe47e5d6ea5)" style="fill: none; stroke: #ff7f0e; stroke-width: 2; stroke-linecap: square"/>
   </g>
   <g id="patch_3">
    <path d="M 55.880346 318.04 
L 55.880346 27.6 
" style="fill: none; stroke: #000000; stroke-width: 0.8; stroke-linejoin: miter; stroke-linecap: square"/>
   </g>
   <g id="patch_4">
    <path d="M 562.737767 318.04 
L 562.737767 27.6 
" style="fill: none; stroke: #000000; stroke-width: 0.8; stroke-linejoin: miter; stroke-linecap: square"/>
   </g>
   <g id="patch_5">
    <path d="M 55.880346 318.04 
L 562.737767 318.04 
" style="fill: none; stroke: #000000; stroke-width: 0.8; stroke-linejoin: miter; stroke-linecap: square"/>
   </g>
   <g id="patch_6">
    <path d="M 55.880346 27.6 
L 562.737767 27.6 
" style="fill: none; stroke: #000000; stroke-width: 0.8; stroke-linejoin: miter; stroke-linecap: square"/>
   </g>
   <g id="text_14">
    <!-- Evolución del Loss por Época -->
    <g transform="translate(222.235932 21.6) scale(0.12 -0.12)">
     <defs>
      <path id="DejaVuSans-76" d="M 191 3500 
L 800 3500 
L 1894 563 
L 2988 3500 
L 3597 3500 
L 2284 0 
L 1503 0 
L 191 3500 
z
" transform="scale(0.015625)"/>
      <path id="DejaVuSans-6c" d="M 603 4863 
L 1178 4863 
L 1178 0 
L 603 0 
L 603 4863 
z
" transform="scale(0.015625)"/>
      <path id="DejaVuSans-75" d="M 544 1381 
L 544 3500 
L 1119 3500 
L 1119 1403 
Q 1119 906 1312 657 
Q 1506 409 1894 409 
Q 2359 409 2629 706 
Q 2900 1003 2900 1516 
L 2900 3500 
L 3475 3500 
L 3475 0 
L 2900 0 
L 2900 538 
Q 2691 219 2414 64 
Q 2138 -91 1772 -91 
Q 1169 -91 856 284 
Q 544 659 544 1381 
z
M 1991 3584 
L 1991 3584 
z
" transform="scale(0.015625)"/>
      <path id="DejaVuSans-69" d="M 603 3500 
L 1178 3500 
L 1178 0 
L 603 0 
L 603 3500 
z
M 603 4863 
L 1178 4863 
L 1178 4134 
L 603 4134 
L 603 4863 
z
" transform="scale(0.015625)"/>
      <path id="DejaVuSans-f3" d="M 1959 3097 
Q 1497 3097 1228 2736 
Q 959 2375 959 1747 
Q 959 1119 1226 758 
Q 1494 397 1959 397 
Q 2419 397 2687 759 
Q 2956 1122 2956 1747 
Q 2956 2369 2687 2733 
Q 2419 3097 1959 3097 
z
M 1959 3584 
Q 2709 3584 3137 3096 
Q 3566 2609 3566 1747 
Q 3566 888 3137 398 
Q 2709 -91 1959 -91 
Q 1206 -91 779 398 
Q 353 888 353 1747 
Q 353 2609 779 3096 
Q 1206 3584 1959 3584 
z
M 2394 5119 
L 3016 5119 
L 1997 3944 
L 1519 3944 
L 2394 5119 
z
" transform="scale(0.015625)"/>
      <path id="DejaVuSans-6e" d="M 3513 2113 
L 3513 0 
L 2938 0 
L 2938 2094 
Q 2938 2591 2744 2837 
Q 2550 3084 2163 3084 
Q 1697 3084 1428 2787 
Q 1159 2491 1159 1978 
L 1159 0 
L 581 0 
L 581 3500 
L 1159 3500 
L 1159 2956 
Q 1366 3272 1645 3428 
Q 1925 3584 2291 3584 
Q 2894 3584 3203 3211 
Q 3513 2838 3513 2113 
z
" transform="scale(0.015625)"/>
      <path id="DejaVuSans-64" d="M 2906 2969 
L 2906 4863 
L 3481 4863 
L 3481 0 
L 2906 0 
L 2906 525 
Q 2725 213 2448 61 
Q 2172 -91 1784 -91 
Q 1150 -91 751 415 
Q 353 922 353 1747 
Q 353 2572 751 3078 
Q 1150 3584 1784 3584 
Q 2172 3584 2448 3432 
Q 2725 3281 2906 2969 
z
M 947 1747 
Q 947 1113 1208 752 
Q 1469 391 1925 391 
Q 2381 391 2643 752 
Q 2906 1113 2906 1747 
Q 2906 2381 2643 2742 
Q 2381 3103 1925 3103 
Q 1469 3103 1208 2742 
Q 947 2381 947 1747 
z
" transform="scale(0.015625)"/>
      <path id="DejaVuSans-65" d="M 3597 1894 
L 3597 1613 
L 953 1613 
Q 991 1019 1311 708 
Q 1631 397 2203 397 
Q 2534 397 2845 478 
Q 3156 559 3463 722 
L 3463 178 
Q 3153 47 2828 -22 
Q 2503 -91 2169 -91 
Q 1331 -91 842 396 
Q 353 884 353 1716 
Q 353 2575 817 3079 
Q 1281 3584 2069 3584 
Q 2775 3584 3186 3129 
Q 3597 2675 3597 1894 
z
M 3022 2063 
Q 3016 2534 2758 2815 
Q 2500 3097 2075 3097 
Q 1594 3097 1305 2825 
Q 1016 2553 972 2059 
L 3022 2063 
z
" transform="scale(0.015625)"/>
      <path id="DejaVuSans-72" d="M 2631 2963 
Q 2534 3019 2420 3045 
Q 2306 3072 2169 3072 
Q 1681 3072 1420 2755 
Q 1159 2438 1159 1844 
L 1159 0 
L 581 0 
L 581 3500 
L 1159 3500 
L 1159 2956 
Q 1341 3275 1631 3429 
Q 1922 3584 2338 3584 
Q 2397 3584 2469 3576 
Q 2541 3569 2628 3553 
L 2631 2963 
z
" transform="scale(0.015625)"/>
      <path id="DejaVuSans-c9" d="M 628 4666 
L 3578 4666 
L 3578 4134 
L 1259 4134 
L 1259 2753 
L 3481 2753 
L 3481 2222 
L 1259 2222 
L 1259 531 
L 3634 531 
L 3634 0 
L 628 0 
L 628 4666 
z
M 2266 5935 
L 2844 5935 
L 2131 5110 
L 1653 5110 
L 2266 5935 
z
" transform="scale(0.015625)"/>
      <path id="DejaVuSans-61" d="M 2194 1759 
Q 1497 1759 1228 1600 
Q 959 1441 959 1056 
Q 959 750 1161 570 
Q 1363 391 1709 391 
Q 2188 391 2477 730 
Q 2766 1069 2766 1631 
L 2766 1759 
L 2194 1759 
z
M 3341 1997 
L 3341 0 
L 2766 0 
L 2766 531 
Q 2569 213 2275 61 
Q 1981 -91 1556 -91 
Q 1019 -91 701 211 
Q 384 513 384 1019 
Q 384 1609 779 1909 
Q 1175 2209 1959 2209 
L 2766 2209 
L 2766 2266 
Q 2766 2663 2505 2880 
Q 2244 3097 1772 3097 
Q 1472 3097 1187 3025 
Q 903 2953 641 2809 
L 641 3341 
Q 956 3463 1253 3523 
Q 1550 3584 1831 3584 
Q 2591 3584 2966 3190 
Q 3341 2797 3341 1997 
z
" transform="scale(0.015625)"/>
     </defs>
     <use xlink:href="#DejaVuSans-45"/>
     <use xlink:href="#DejaVuSans-76" transform="translate(63.183594 0)"/>
     <use xlink:href="#DejaVuSans-6f" transform="translate(122.363281 0)"/>
     <use xlink:href="#DejaVuSans-6c" transform="translate(183.544922 0)"/>
     <use xlink:href="#DejaVuSans-75" transform="translate(211.328125 0)"/>
     <use xlink:href="#DejaVuSans-63" transform="translate(274.707031 0)"/>
     <use xlink:href="#DejaVuSans-69" transform="translate(329.6875 0)"/>
     <use xlink:href="#DejaVuSans-f3" transform="translate(357.470703 0)"/>
     <use xlink:href="#DejaVuSans-6e" transform="translate(418.652344 0)"/>
     <use xlink:href="#DejaVuSans-20" transform="translate(482.03125 0)"/>
     <use xlink:href="#DejaVuSans-64" transform="translate(513.818359 0)"/>
     <use xlink:href="#DejaVuSans-65" transform="translate(577.294922 0)"/>
     <use xlink:href="#DejaVuSans-6c" transform="translate(638.818359 0)"/>
     <use xlink:href="#DejaVuSans-20" transform="translate(666.601562 0)"/>
     <use xlink:href="#DejaVuSans-4c" transform="translate(698.388672 0)"/>
     <use xlink:href="#DejaVuSans-6f" transform="translate(752.351562 0)"/>
     <use xlink:href="#DejaVuSans-73" transform="translate(813.533203 0)"/>
     <use xlink:href="#DejaVuSans-73" transform="translate(865.632812 0)"/>
     <use xlink:href="#DejaVuSans-20" transform="translate(917.732422 0)"/>
     <use xlink:href="#DejaVuSans-70" transform="translate(949.519531 0)"/>
     <use xlink:href="#DejaVuSans-6f" transform="translate(1012.996094 0)"/>
     <use xlink:href="#DejaVuSans-72" transform="translate(1074.177734 0)"/>
     <use xlink:href="#DejaVuSans-20" transform="translate(1115.291016 0)"/>
     <use xlink:href="#DejaVuSans-c9" transform="translate(1147.078125 0)"/>
     <use xlink:href="#DejaVuSans-70" transform="translate(1210.261719 0)"/>
     <use xlink:href="#DejaVuSans-6f" transform="translate(1273.738281 0)"/>
     <use xlink:href="#DejaVuSans-63" transform="translate(1334.919922 0)"/>
     <use xlink:href="#DejaVuSans-61" transform="translate(1389.900391 0)"/>
    </g>
   </g>
   <g id="legend_1">
    <g id="patch_7">
     <path d="M 451.37683 64.95625 
L 555.737767 64.95625 
Q 557.737767 64.95625 557.737767 62.95625 
L 557.737767 34.6 
Q 557.737767 32.6 555.737767 32.6 
L 451.37683 32.6 
Q 449.37683 32.6 449.37683 34.6 
L 449.37683 62.95625 
Q 449.37683 64.95625 451.37683 64.95625 
z
" style="fill: #ffffff; opacity: 0.8; stroke: #cccccc; stroke-linejoin: miter"/>
    </g>
    <g id="line2d_42">
     <path d="M 453.37683 40.698438 
L 463.37683 40.698438 
L 473.37683 40.698438 
" style="fill: none; stroke: #1f77b4; stroke-width: 2; stroke-linecap: square"/>
    </g>
    <g id="text_15">
     <!-- Train Loss -->
     <g transform="translate(481.37683 44.198438) scale(0.1 -0.1)">
      <defs>
       <path id="DejaVuSans-54" d="M -19 4666 
L 3928 4666 
L 3928 4134 
L 2272 4134 
L 2272 0 
L 1638 0 
L 1638 4134 
L -19 4134 
L -19 4666 
z
" transform="scale(0.015625)"/>
      </defs>
      <use xlink:href="#DejaVuSans-54"/>
      <use xlink:href="#DejaVuSans-72" transform="translate(46.333984 0)"/>
      <use xlink:href="#DejaVuSans-61" transform="translate(87.447266 0)"/>
      <use xlink:href="#DejaVuSans-69" transform="translate(148.726562 0)"/>
      <use xlink:href="#DejaVuSans-6e" transform="translate(176.509766 0)"/>
      <use xlink:href="#DejaVuSans-20" transform="translate(239.888672 0)"/>
      <use xlink:href="#DejaVuSans-4c" transform="translate(271.675781 0)"/>
      <use xlink:href="#DejaVuSans-6f" transform="translate(325.638672 0)"/>
      <use xlink:href="#DejaVuSans-73" transform="translate(386.820312 0)"/>
      <use xlink:href="#DejaVuSans-73" transform="translate(438.919922 0)"/>
     </g>
    </g>
    <g id="line2d_43">
     <path d="M 453.37683 55.376563 
L 463.37683 55.376563 
L 473.37683 55.376563 
" style="fill: none; stroke: #ff7f0e; stroke-width: 2; stroke-linecap: square"/>
    </g>
    <g id="text_16">
     <!-- Val Loss (MSE) -->
     <g transform="translate(481.37683 58.876563) scale(0.1 -0.1)">
      <defs>
       <path id="DejaVuSans-56" d="M 1831 0 
L 50 4666 
L 709 4666 
L 2188 738 
L 3669 4666 
L 4325 4666 
L 2547 0 
L 1831 0 
z
" transform="scale(0.015625)"/>
       <path id="DejaVuSans-28" d="M 1984 4856 
Q 1566 4138 1362 3434 
Q 1159 2731 1159 2009 
Q 1159 1288 1364 580 
Q 1569 -128 1984 -844 
L 1484 -844 
Q 1016 -109 783 600 
Q 550 1309 550 2009 
Q 550 2706 781 3412 
Q 1013 4119 1484 4856 
L 1984 4856 
z
" transform="scale(0.015625)"/>
       <path id="DejaVuSans-29" d="M 513 4856 
L 1013 4856 
Q 1481 4119 1714 3412 
Q 1947 2706 1947 2009 
Q 1947 1309 1714 600 
Q 1481 -109 1013 -844 
L 513 -844 
Q 928 -128 1133 580 
Q 1338 1288 1338 2009 
Q 1338 2731 1133 3434 
Q 928 4138 513 4856 
z
" transform="scale(0.015625)"/>
      </defs>
      <use xlink:href="#DejaVuSans-56"/>
      <use xlink:href="#DejaVuSans-61" transform="translate(60.658203 0)"/>
      <use xlink:href="#DejaVuSans-6c" transform="translate(121.9375 0)"/>
      <use xlink:href="#DejaVuSans-20" transform="translate(149.720703 0)"/>
      <use xlink:href="#DejaVuSans-4c" transform="translate(181.507812 0)"/>
      <use xlink:href="#DejaVuSans-6f" transform="translate(235.470703 0)"/>
      <use xlink:href="#DejaVuSans-73" transform="translate(296.652344 0)"/>
      <use xlink:href="#DejaVuSans-73" transform="translate(348.751953 0)"/>
      <use xlink:href="#DejaVuSans-20" transform="translate(400.851562 0)"/>
      <use xlink:href="#DejaVuSans-28" transform="translate(432.638672 0)"/>
      <use xlink:href="#DejaVuSans-4d" transform="translate(471.652344 0)"/>
      <use xlink:href="#DejaVuSans-53" transform="translate(557.931641 0)"/>
      <use xlink:href="#DejaVuSans-45" transform="translate(621.408203 0)"/>
      <use xlink:href="#DejaVuSans-29" transform="translate(684.591797 0)"/>
     </g>
    </g>
   </g>
  </g>
 </g>
 <defs>
  <clipPath id="pe47e5d6ea5">
   <rect x="55.880346" y="27.6" width="506.857421" height="290.44"/>
  </clipPath>
 </defs>
</svg>
