<?xml version="1.0" encoding="utf-8" standalone="no"?>
<!DOCTYPE svg PUBLIC "-//W3C//DTD SVG 1.1//EN"
  "http://www.w3.org/Graphics/SVG/1.1/DTD/svg11.dtd">
<svg xmlns:xlink="http://www.w3.org/1999/xlink" width="432pt" height="288pt" viewBox="0 0 432 288" xmlns="http://www.w3.org/2000/svg" version="1.1">
 <metadata>
  <rdf:RDF xmlns:dc="http://purl.org/dc/elements/1.1/" xmlns:cc="http://creativecommons.org/ns#" xmlns:rdf="http://www.w3.org/1999/02/22-rdf-syntax-ns#">
   <cc:Work>
    <dc:type rdf:resource="http://purl.org/dc/dcmitype/StillImage"/>
    <dc:date>2025-06-19T12:00:51.677421</dc:date>
    <dc:format>image/svg+xml</dc:format>
    <dc:creator>
     <cc:Agent>
      <dc:title>Matplotlib v3.10.0, https://matplotlib.org/</dc:title>
     </cc:Agent>
    </dc:creator>
   </cc:Work>
  </rdf:RDF>
 </metadata>
 <defs>
  <style type="text/css">*{stroke-linejoin: round; stroke-linecap: butt}</style>
 </defs>
 <g id="figure_1">
  <g id="patch_1">
   <path d="M 0 288 
L 432 288 
L 432 0 
L 0 0 
z
" style="fill: #ffffff"/>
  </g>
  <g id="axes_1">
   <g id="patch_2">
    <path d="M 57.113446 242.786449 
L 414.672887 242.786449 
L 414.672887 26.570347 
L 57.113446 26.570347 
z
" style="fill: #ffffff"/>
   </g>
   <g id="matplotlib.axis_1">
    <g id="xtick_1">
     <g id="line2d_1">
      <path d="M 73.366147 242.786449 
L 73.366147 26.570347 
" clip-path="url(#p7f621fe822)" style="fill: none; stroke: #b0b0b0; stroke-width: 0.8; stroke-linecap: square"/>
     </g>
     <g id="line2d_2">
      <defs>
       <path id="m306e66893a" d="M 0 0 
L 0 3.5 
" style="stroke: #000000; stroke-width: 0.8"/>
      </defs>
      <g>
       <use xlink:href="#m306e66893a" x="73.366147" y="242.786449" style="stroke: #000000; stroke-width: 0.8"/>
      </g>
     </g>
     <g id="text_1">
      <!-- $\mathdefault{0}$ -->
      <g transform="translate(70.439652 258.088629) scale(0.12 -0.12)">
       <defs>
        <path id="CMR17-30" d="M 2688 2038 
C 2688 2430 2682 3099 2413 3613 
C 2176 4063 1798 4224 1466 4224 
C 1158 4224 768 4082 525 3620 
C 269 3137 243 2539 243 2038 
C 243 1671 250 1112 448 623 
C 723 -39 1216 -128 1466 -128 
C 1760 -128 2208 -7 2470 604 
C 2662 1048 2688 1568 2688 2038 
z
M 1466 -26 
C 1056 -26 813 328 723 816 
C 653 1196 653 1749 653 2109 
C 653 2604 653 3015 736 3407 
C 858 3954 1216 4121 1466 4121 
C 1728 4121 2067 3947 2189 3420 
C 2272 3054 2278 2623 2278 2109 
C 2278 1691 2278 1176 2202 797 
C 2067 96 1690 -26 1466 -26 
z
" transform="scale(0.015625)"/>
       </defs>
       <use xlink:href="#CMR17-30" transform="scale(0.996264)"/>
      </g>
     </g>
    </g>
    <g id="xtick_2">
     <g id="line2d_3">
      <path d="M 111.834081 242.786449 
L 111.834081 26.570347 
" clip-path="url(#p7f621fe822)" style="fill: none; stroke: #b0b0b0; stroke-width: 0.8; stroke-linecap: square"/>
     </g>
     <g id="line2d_4">
      <g>
       <use xlink:href="#m306e66893a" x="111.834081" y="242.786449" style="stroke: #000000; stroke-width: 0.8"/>
      </g>
     </g>
     <g id="text_2">
      <!-- $\mathdefault{20}$ -->
      <g transform="translate(105.981091 258.088629) scale(0.12 -0.12)">
       <defs>
        <path id="CMR17-32" d="M 2669 990 
L 2554 990 
C 2490 537 2438 460 2413 422 
C 2381 371 1920 371 1830 371 
L 602 371 
C 832 620 1280 1073 1824 1596 
C 2214 1966 2669 2400 2669 3033 
C 2669 3788 2067 4224 1395 4224 
C 691 4224 262 3603 262 3027 
C 262 2777 448 2745 525 2745 
C 589 2745 781 2783 781 3007 
C 781 3206 614 3264 525 3264 
C 486 3264 448 3257 422 3244 
C 544 3788 915 4057 1306 4057 
C 1862 4057 2227 3616 2227 3033 
C 2227 2477 1901 1998 1536 1583 
L 262 147 
L 262 0 
L 2515 0 
L 2669 990 
z
" transform="scale(0.015625)"/>
       </defs>
       <use xlink:href="#CMR17-32" transform="scale(0.996264)"/>
       <use xlink:href="#CMR17-30" transform="translate(45.690477 0) scale(0.996264)"/>
      </g>
     </g>
    </g>
    <g id="xtick_3">
     <g id="line2d_5">
      <path d="M 150.302014 242.786449 
L 150.302014 26.570347 
" clip-path="url(#p7f621fe822)" style="fill: none; stroke: #b0b0b0; stroke-width: 0.8; stroke-linecap: square"/>
     </g>
     <g id="line2d_6">
      <g>
       <use xlink:href="#m306e66893a" x="150.302014" y="242.786449" style="stroke: #000000; stroke-width: 0.8"/>
      </g>
     </g>
     <g id="text_3">
      <!-- $\mathdefault{40}$ -->
      <g transform="translate(144.449024 258.088629) scale(0.12 -0.12)">
       <defs>
        <path id="CMR17-34" d="M 2150 4147 
C 2150 4281 2144 4288 2029 4288 
L 128 1254 
L 128 1088 
L 1779 1088 
L 1779 460 
C 1779 230 1766 166 1318 166 
L 1197 166 
L 1197 0 
C 1402 12 1747 12 1965 12 
C 2182 12 2528 12 2733 0 
L 2733 166 
L 2611 166 
C 2163 166 2150 230 2150 460 
L 2150 1088 
L 2803 1088 
L 2803 1254 
L 2150 1254 
L 2150 4147 
z
M 1798 3723 
L 1798 1254 
L 256 1254 
L 1798 3723 
z
" transform="scale(0.015625)"/>
       </defs>
       <use xlink:href="#CMR17-34" transform="scale(0.996264)"/>
       <use xlink:href="#CMR17-30" transform="translate(45.690477 0) scale(0.996264)"/>
      </g>
     </g>
    </g>
    <g id="xtick_4">
     <g id="line2d_7">
      <path d="M 188.769948 242.786449 
L 188.769948 26.570347 
" clip-path="url(#p7f621fe822)" style="fill: none; stroke: #b0b0b0; stroke-width: 0.8; stroke-linecap: square"/>
     </g>
     <g id="line2d_8">
      <g>
       <use xlink:href="#m306e66893a" x="188.769948" y="242.786449" style="stroke: #000000; stroke-width: 0.8"/>
      </g>
     </g>
     <g id="text_4">
      <!-- $\mathdefault{60}$ -->
      <g transform="translate(182.916958 258.088629) scale(0.12 -0.12)">
       <defs>
        <path id="CMR17-36" d="M 678 2198 
C 678 3712 1395 4076 1811 4076 
C 1946 4076 2272 4049 2400 3782 
C 2298 3782 2106 3782 2106 3558 
C 2106 3385 2246 3328 2336 3328 
C 2394 3328 2566 3353 2566 3571 
C 2566 3987 2246 4224 1805 4224 
C 1043 4224 243 3411 243 2011 
C 243 257 966 -128 1478 -128 
C 2099 -128 2688 431 2688 1295 
C 2688 2101 2170 2688 1517 2688 
C 1126 2688 838 2430 678 1979 
L 678 2198 
z
M 1478 25 
C 691 25 691 1212 691 1450 
C 691 1914 909 2585 1504 2585 
C 1613 2585 1926 2585 2138 2140 
C 2253 1889 2253 1624 2253 1302 
C 2253 954 2253 696 2118 438 
C 1978 173 1773 25 1478 25 
z
" transform="scale(0.015625)"/>
       </defs>
       <use xlink:href="#CMR17-36" transform="scale(0.996264)"/>
       <use xlink:href="#CMR17-30" transform="translate(45.690477 0) scale(0.996264)"/>
      </g>
     </g>
    </g>
    <g id="xtick_5">
     <g id="line2d_9">
      <path d="M 227.237881 242.786449 
L 227.237881 26.570347 
" clip-path="url(#p7f621fe822)" style="fill: none; stroke: #b0b0b0; stroke-width: 0.8; stroke-linecap: square"/>
     </g>
     <g id="line2d_10">
      <g>
       <use xlink:href="#m306e66893a" x="227.237881" y="242.786449" style="stroke: #000000; stroke-width: 0.8"/>
      </g>
     </g>
     <g id="text_5">
      <!-- $\mathdefault{80}$ -->
      <g transform="translate(221.384891 258.088629) scale(0.12 -0.12)">
       <defs>
        <path id="CMR17-38" d="M 1741 2289 
C 2144 2494 2554 2803 2554 3298 
C 2554 3884 1990 4224 1472 4224 
C 890 4224 378 3800 378 3215 
C 378 3054 416 2777 666 2533 
C 730 2469 998 2276 1171 2154 
C 883 2006 211 1652 211 945 
C 211 282 838 -128 1459 -128 
C 2144 -128 2720 366 2720 1022 
C 2720 1607 2330 1877 2074 2051 
L 1741 2289 
z
M 902 2855 
C 851 2887 595 3086 595 3388 
C 595 3781 998 4076 1459 4076 
C 1965 4076 2336 3716 2336 3298 
C 2336 2700 1670 2359 1638 2359 
C 1632 2359 1626 2359 1574 2398 
L 902 2855 
z
M 2080 1536 
C 2176 1466 2483 1253 2483 861 
C 2483 385 2010 25 1472 25 
C 890 25 448 443 448 951 
C 448 1459 838 1884 1280 2083 
L 2080 1536 
z
" transform="scale(0.015625)"/>
       </defs>
       <use xlink:href="#CMR17-38" transform="scale(0.996264)"/>
       <use xlink:href="#CMR17-30" transform="translate(45.690477 0) scale(0.996264)"/>
      </g>
     </g>
    </g>
    <g id="xtick_6">
     <g id="line2d_11">
      <path d="M 265.705815 242.786449 
L 265.705815 26.570347 
" clip-path="url(#p7f621fe822)" style="fill: none; stroke: #b0b0b0; stroke-width: 0.8; stroke-linecap: square"/>
     </g>
     <g id="line2d_12">
      <g>
       <use xlink:href="#m306e66893a" x="265.705815" y="242.786449" style="stroke: #000000; stroke-width: 0.8"/>
      </g>
     </g>
     <g id="text_6">
      <!-- $\mathdefault{100}$ -->
      <g transform="translate(256.926329 258.088629) scale(0.12 -0.12)">
       <defs>
        <path id="CMR17-31" d="M 1702 4083 
C 1702 4217 1696 4224 1606 4224 
C 1357 3927 979 3833 621 3820 
C 602 3820 570 3820 563 3808 
C 557 3795 557 3782 557 3648 
C 755 3648 1088 3686 1344 3839 
L 1344 467 
C 1344 243 1331 166 781 166 
L 589 166 
L 589 0 
C 896 6 1216 12 1523 12 
C 1830 12 2150 6 2458 0 
L 2458 166 
L 2266 166 
C 1715 166 1702 236 1702 467 
L 1702 4083 
z
" transform="scale(0.015625)"/>
       </defs>
       <use xlink:href="#CMR17-31" transform="scale(0.996264)"/>
       <use xlink:href="#CMR17-30" transform="translate(45.690477 0) scale(0.996264)"/>
       <use xlink:href="#CMR17-30" transform="translate(91.380954 0) scale(0.996264)"/>
      </g>
     </g>
    </g>
    <g id="xtick_7">
     <g id="line2d_13">
      <path d="M 304.173748 242.786449 
L 304.173748 26.570347 
" clip-path="url(#p7f621fe822)" style="fill: none; stroke: #b0b0b0; stroke-width: 0.8; stroke-linecap: square"/>
     </g>
     <g id="line2d_14">
      <g>
       <use xlink:href="#m306e66893a" x="304.173748" y="242.786449" style="stroke: #000000; stroke-width: 0.8"/>
      </g>
     </g>
     <g id="text_7">
      <!-- $\mathdefault{120}$ -->
      <g transform="translate(295.394263 258.088629) scale(0.12 -0.12)">
       <use xlink:href="#CMR17-31" transform="scale(0.996264)"/>
       <use xlink:href="#CMR17-32" transform="translate(45.690477 0) scale(0.996264)"/>
       <use xlink:href="#CMR17-30" transform="translate(91.380954 0) scale(0.996264)"/>
      </g>
     </g>
    </g>
    <g id="xtick_8">
     <g id="line2d_15">
      <path d="M 342.641682 242.786449 
L 342.641682 26.570347 
" clip-path="url(#p7f621fe822)" style="fill: none; stroke: #b0b0b0; stroke-width: 0.8; stroke-linecap: square"/>
     </g>
     <g id="line2d_16">
      <g>
       <use xlink:href="#m306e66893a" x="342.641682" y="242.786449" style="stroke: #000000; stroke-width: 0.8"/>
      </g>
     </g>
     <g id="text_8">
      <!-- $\mathdefault{140}$ -->
      <g transform="translate(333.862196 258.088629) scale(0.12 -0.12)">
       <use xlink:href="#CMR17-31" transform="scale(0.996264)"/>
       <use xlink:href="#CMR17-34" transform="translate(45.690477 0) scale(0.996264)"/>
       <use xlink:href="#CMR17-30" transform="translate(91.380954 0) scale(0.996264)"/>
      </g>
     </g>
    </g>
    <g id="xtick_9">
     <g id="line2d_17">
      <path d="M 381.109615 242.786449 
L 381.109615 26.570347 
" clip-path="url(#p7f621fe822)" style="fill: none; stroke: #b0b0b0; stroke-width: 0.8; stroke-linecap: square"/>
     </g>
     <g id="line2d_18">
      <g>
       <use xlink:href="#m306e66893a" x="381.109615" y="242.786449" style="stroke: #000000; stroke-width: 0.8"/>
      </g>
     </g>
     <g id="text_9">
      <!-- $\mathdefault{160}$ -->
      <g transform="translate(372.33013 258.088629) scale(0.12 -0.12)">
       <use xlink:href="#CMR17-31" transform="scale(0.996264)"/>
       <use xlink:href="#CMR17-36" transform="translate(45.690477 0) scale(0.996264)"/>
       <use xlink:href="#CMR17-30" transform="translate(91.380954 0) scale(0.996264)"/>
      </g>
     </g>
    </g>
    <g id="text_10">
     <!-- \textbf{Epoch} -->
     <g transform="translate(217.469199 272.715404) scale(0.12 -0.12)">
      <defs>
       <path id="CMBX12-45" d="M 4518 1753 
L 4250 1753 
C 4115 783 3878 275 2765 275 
L 1766 275 
L 1766 2156 
L 2144 2156 
C 2758 2156 2822 1889 2822 1395 
L 3091 1395 
L 3091 3177 
L 2822 3177 
C 2822 2699 2758 2432 2144 2432 
L 1766 2432 
L 1766 4108 
L 2765 4108 
C 3744 4108 3955 3694 4051 2871 
L 4320 2871 
L 4134 4383 
L 243 4383 
L 243 4108 
L 922 4108 
L 922 275 
L 243 275 
L 243 0 
L 4243 0 
L 4518 1753 
z
" transform="scale(0.015625)"/>
       <path id="CMBX12-70" d="M 1805 -941 
L 1363 -941 
L 1363 237 
C 1523 96 1805 -64 2189 -64 
C 3066 -64 3750 470 3750 1414 
C 3750 2306 3155 2880 2291 2880 
C 1914 2880 1587 2751 1331 2546 
L 1331 2880 
L 224 2828 
L 224 2552 
C 621 2552 666 2552 666 2300 
L 666 -941 
L 224 -941 
L 224 -1216 
C 371 -1204 832 -1204 1011 -1204 
C 1190 -1204 1658 -1204 1805 -1216 
L 1805 -941 
z
M 1363 2235 
C 1600 2546 1939 2649 2189 2649 
C 2605 2649 2982 2268 2982 1414 
C 2982 476 2522 147 2112 147 
C 1837 147 1562 289 1363 593 
L 1363 2235 
z
" transform="scale(0.015625)"/>
       <path id="CMBX12-6f" d="M 3392 1379 
C 3392 2245 2803 2880 1798 2880 
C 755 2880 198 2213 198 1379 
C 198 538 787 -64 1792 -64 
C 2835 -64 3392 570 3392 1379 
z
M 1798 166 
C 966 166 966 917 966 1443 
C 966 1744 966 2065 1088 2296 
C 1229 2553 1517 2668 1792 2668 
C 2157 2668 2387 2495 2496 2315 
C 2624 2084 2624 1751 2624 1443 
C 2624 910 2624 166 1798 166 
z
" transform="scale(0.015625)"/>
       <path id="CMBX12-63" d="M 2995 724 
C 2995 801 2925 801 2861 801 
C 2758 801 2752 795 2720 718 
C 2675 596 2502 166 1914 166 
C 1011 166 1011 1141 1011 1430 
C 1011 1808 1018 2649 1856 2649 
C 1901 2649 2278 2636 2278 2604 
C 2278 2598 2272 2591 2259 2585 
C 2240 2566 2157 2469 2157 2309 
C 2157 2039 2374 1930 2534 1930 
C 2669 1930 2912 2014 2912 2315 
C 2912 2841 2176 2880 1830 2880 
C 691 2880 243 2136 243 1398 
C 243 525 851 -64 1792 -64 
C 2797 -64 2995 679 2995 724 
z
" transform="scale(0.015625)"/>
       <path id="CMBX12-68" d="M 3398 1958 
C 3398 2566 3136 2880 2432 2880 
C 1786 2880 1472 2425 1382 2233 
L 1376 2233 
L 1376 4480 
L 269 4428 
L 269 4153 
C 666 4153 710 4153 710 3896 
L 710 275 
L 269 275 
L 269 0 
C 416 12 877 12 1056 12 
C 1235 12 1702 12 1850 0 
L 1850 275 
L 1408 275 
L 1408 1638 
C 1408 2329 1920 2668 2330 2668 
C 2566 2668 2701 2515 2701 2028 
L 2701 275 
L 2259 275 
L 2259 0 
C 2406 12 2867 12 3046 12 
C 3226 12 3693 12 3840 0 
L 3840 275 
L 3398 275 
L 3398 1958 
z
" transform="scale(0.015625)"/>
      </defs>
      <use xlink:href="#CMBX12-45" transform="scale(0.996264)"/>
      <use xlink:href="#CMBX12-70" transform="translate(73.566746 0) scale(0.996264)"/>
      <use xlink:href="#CMBX12-6f" transform="translate(138.946571 0) scale(0.996264)"/>
      <use xlink:href="#CMBX12-63" transform="translate(198.099747 0) scale(0.996264)"/>
      <use xlink:href="#CMBX12-68" transform="translate(244.799622 0) scale(0.996264)"/>
     </g>
    </g>
   </g>
   <g id="matplotlib.axis_2">
    <g id="ytick_1">
     <g id="line2d_19">
      <path d="M 57.113446 227.803714 
L 414.672887 227.803714 
" clip-path="url(#p7f621fe822)" style="fill: none; stroke: #b0b0b0; stroke-width: 0.8; stroke-linecap: square"/>
     </g>
     <g id="line2d_20">
      <defs>
       <path id="mc532f91cf5" d="M 0 0 
L -3.5 0 
" style="stroke: #000000; stroke-width: 0.8"/>
      </defs>
      <g>
       <use xlink:href="#mc532f91cf5" x="57.113446" y="227.803714" style="stroke: #000000; stroke-width: 0.8"/>
      </g>
     </g>
     <g id="text_11">
      <!-- $\mathdefault{10^{-4}}$ -->
      <g transform="translate(27.586776 231.954804) scale(0.12 -0.12)">
       <defs>
        <path id="CMSY10-0" d="M 4218 1472 
C 4326 1472 4442 1472 4442 1600 
C 4442 1728 4326 1728 4218 1728 
L 755 1728 
C 646 1728 531 1728 531 1600 
C 531 1472 646 1472 755 1472 
L 4218 1472 
z
" transform="scale(0.015625)"/>
       </defs>
       <use xlink:href="#CMR17-31" transform="scale(0.996264)"/>
       <use xlink:href="#CMR17-30" transform="translate(45.690477 0) scale(0.996264)"/>
       <use xlink:href="#CMSY10-0" transform="translate(91.380954 36.153639) scale(0.697382)"/>
       <use xlink:href="#CMR17-34" transform="translate(145.621947 36.153639) scale(0.697382)"/>
      </g>
     </g>
    </g>
    <g id="ytick_2">
     <g id="line2d_21">
      <path d="M 57.113446 176.193407 
L 414.672887 176.193407 
" clip-path="url(#p7f621fe822)" style="fill: none; stroke: #b0b0b0; stroke-width: 0.8; stroke-linecap: square"/>
     </g>
     <g id="line2d_22">
      <g>
       <use xlink:href="#mc532f91cf5" x="57.113446" y="176.193407" style="stroke: #000000; stroke-width: 0.8"/>
      </g>
     </g>
     <g id="text_12">
      <!-- $\mathdefault{10^{-3}}$ -->
      <g transform="translate(27.586776 180.344497) scale(0.12 -0.12)">
       <defs>
        <path id="CMR17-33" d="M 1414 2176 
C 1984 2176 2234 1673 2234 1094 
C 2234 322 1824 25 1453 25 
C 1114 25 563 193 390 691 
C 422 678 454 678 486 678 
C 640 678 755 780 755 947 
C 755 1132 614 1216 486 1216 
C 378 1216 211 1164 211 927 
C 211 335 787 -128 1466 -128 
C 2176 -128 2720 432 2720 1087 
C 2720 1718 2208 2176 1600 2246 
C 2086 2347 2554 2776 2554 3353 
C 2554 3856 2048 4224 1472 4224 
C 890 4224 378 3862 378 3347 
C 378 3123 544 3084 627 3084 
C 762 3084 877 3167 877 3334 
C 877 3500 762 3584 627 3584 
C 602 3584 570 3584 544 3571 
C 730 3999 1235 4076 1459 4076 
C 1683 4076 2106 3966 2106 3347 
C 2106 3167 2080 2851 1862 2574 
C 1670 2329 1453 2316 1242 2297 
C 1210 2297 1062 2284 1037 2284 
C 992 2278 966 2272 966 2227 
C 966 2182 973 2176 1101 2176 
L 1414 2176 
z
" transform="scale(0.015625)"/>
       </defs>
       <use xlink:href="#CMR17-31" transform="scale(0.996264)"/>
       <use xlink:href="#CMR17-30" transform="translate(45.690477 0) scale(0.996264)"/>
       <use xlink:href="#CMSY10-0" transform="translate(91.380954 36.153639) scale(0.697382)"/>
       <use xlink:href="#CMR17-33" transform="translate(145.621947 36.153639) scale(0.697382)"/>
      </g>
     </g>
    </g>
    <g id="ytick_3">
     <g id="line2d_23">
      <path d="M 57.113446 124.583099 
L 414.672887 124.583099 
" clip-path="url(#p7f621fe822)" style="fill: none; stroke: #b0b0b0; stroke-width: 0.8; stroke-linecap: square"/>
     </g>
     <g id="line2d_24">
      <g>
       <use xlink:href="#mc532f91cf5" x="57.113446" y="124.583099" style="stroke: #000000; stroke-width: 0.8"/>
      </g>
     </g>
     <g id="text_13">
      <!-- $\mathdefault{10^{-2}}$ -->
      <g transform="translate(27.586776 128.734189) scale(0.12 -0.12)">
       <use xlink:href="#CMR17-31" transform="scale(0.996264)"/>
       <use xlink:href="#CMR17-30" transform="translate(45.690477 0) scale(0.996264)"/>
       <use xlink:href="#CMSY10-0" transform="translate(91.380954 36.153639) scale(0.697382)"/>
       <use xlink:href="#CMR17-32" transform="translate(145.621947 36.153639) scale(0.697382)"/>
      </g>
     </g>
    </g>
    <g id="ytick_4">
     <g id="line2d_25">
      <path d="M 57.113446 72.972791 
L 414.672887 72.972791 
" clip-path="url(#p7f621fe822)" style="fill: none; stroke: #b0b0b0; stroke-width: 0.8; stroke-linecap: square"/>
     </g>
     <g id="line2d_26">
      <g>
       <use xlink:href="#mc532f91cf5" x="57.113446" y="72.972791" style="stroke: #000000; stroke-width: 0.8"/>
      </g>
     </g>
     <g id="text_14">
      <!-- $\mathdefault{10^{-1}}$ -->
      <g transform="translate(27.586776 77.123881) scale(0.12 -0.12)">
       <use xlink:href="#CMR17-31" transform="scale(0.996264)"/>
       <use xlink:href="#CMR17-30" transform="translate(45.690477 0) scale(0.996264)"/>
       <use xlink:href="#CMSY10-0" transform="translate(91.380954 36.153639) scale(0.697382)"/>
       <use xlink:href="#CMR17-31" transform="translate(145.621947 36.153639) scale(0.697382)"/>
      </g>
     </g>
    </g>
    <g id="ytick_5">
     <g id="line2d_27">
      <defs>
       <path id="m603683ad88" d="M 0 0 
L -2 0 
" style="stroke: #000000; stroke-width: 0.6"/>
      </defs>
      <g>
       <use xlink:href="#m603683ad88" x="57.113446" y="239.253397" style="stroke: #000000; stroke-width: 0.6"/>
      </g>
     </g>
    </g>
    <g id="ytick_6">
     <g id="line2d_28">
      <g>
       <use xlink:href="#m603683ad88" x="57.113446" y="235.798252" style="stroke: #000000; stroke-width: 0.6"/>
      </g>
     </g>
    </g>
    <g id="ytick_7">
     <g id="line2d_29">
      <g>
       <use xlink:href="#m603683ad88" x="57.113446" y="232.80527" style="stroke: #000000; stroke-width: 0.6"/>
      </g>
     </g>
    </g>
    <g id="ytick_8">
     <g id="line2d_30">
      <g>
       <use xlink:href="#m603683ad88" x="57.113446" y="230.165272" style="stroke: #000000; stroke-width: 0.6"/>
      </g>
     </g>
    </g>
    <g id="ytick_9">
     <g id="line2d_31">
      <g>
       <use xlink:href="#m603683ad88" x="57.113446" y="212.267464" style="stroke: #000000; stroke-width: 0.6"/>
      </g>
     </g>
    </g>
    <g id="ytick_10">
     <g id="line2d_32">
      <g>
       <use xlink:href="#m603683ad88" x="57.113446" y="203.17934" style="stroke: #000000; stroke-width: 0.6"/>
      </g>
     </g>
    </g>
    <g id="ytick_11">
     <g id="line2d_33">
      <g>
       <use xlink:href="#m603683ad88" x="57.113446" y="196.731213" style="stroke: #000000; stroke-width: 0.6"/>
      </g>
     </g>
    </g>
    <g id="ytick_12">
     <g id="line2d_34">
      <g>
       <use xlink:href="#m603683ad88" x="57.113446" y="191.729657" style="stroke: #000000; stroke-width: 0.6"/>
      </g>
     </g>
    </g>
    <g id="ytick_13">
     <g id="line2d_35">
      <g>
       <use xlink:href="#m603683ad88" x="57.113446" y="187.643089" style="stroke: #000000; stroke-width: 0.6"/>
      </g>
     </g>
    </g>
    <g id="ytick_14">
     <g id="line2d_36">
      <g>
       <use xlink:href="#m603683ad88" x="57.113446" y="184.187944" style="stroke: #000000; stroke-width: 0.6"/>
      </g>
     </g>
    </g>
    <g id="ytick_15">
     <g id="line2d_37">
      <g>
       <use xlink:href="#m603683ad88" x="57.113446" y="181.194962" style="stroke: #000000; stroke-width: 0.6"/>
      </g>
     </g>
    </g>
    <g id="ytick_16">
     <g id="line2d_38">
      <g>
       <use xlink:href="#m603683ad88" x="57.113446" y="178.554965" style="stroke: #000000; stroke-width: 0.6"/>
      </g>
     </g>
    </g>
    <g id="ytick_17">
     <g id="line2d_39">
      <g>
       <use xlink:href="#m603683ad88" x="57.113446" y="160.657156" style="stroke: #000000; stroke-width: 0.6"/>
      </g>
     </g>
    </g>
    <g id="ytick_18">
     <g id="line2d_40">
      <g>
       <use xlink:href="#m603683ad88" x="57.113446" y="151.569032" style="stroke: #000000; stroke-width: 0.6"/>
      </g>
     </g>
    </g>
    <g id="ytick_19">
     <g id="line2d_41">
      <g>
       <use xlink:href="#m603683ad88" x="57.113446" y="145.120905" style="stroke: #000000; stroke-width: 0.6"/>
      </g>
     </g>
    </g>
    <g id="ytick_20">
     <g id="line2d_42">
      <g>
       <use xlink:href="#m603683ad88" x="57.113446" y="140.11935" style="stroke: #000000; stroke-width: 0.6"/>
      </g>
     </g>
    </g>
    <g id="ytick_21">
     <g id="line2d_43">
      <g>
       <use xlink:href="#m603683ad88" x="57.113446" y="136.032781" style="stroke: #000000; stroke-width: 0.6"/>
      </g>
     </g>
    </g>
    <g id="ytick_22">
     <g id="line2d_44">
      <g>
       <use xlink:href="#m603683ad88" x="57.113446" y="132.577637" style="stroke: #000000; stroke-width: 0.6"/>
      </g>
     </g>
    </g>
    <g id="ytick_23">
     <g id="line2d_45">
      <g>
       <use xlink:href="#m603683ad88" x="57.113446" y="129.584655" style="stroke: #000000; stroke-width: 0.6"/>
      </g>
     </g>
    </g>
    <g id="ytick_24">
     <g id="line2d_46">
      <g>
       <use xlink:href="#m603683ad88" x="57.113446" y="126.944657" style="stroke: #000000; stroke-width: 0.6"/>
      </g>
     </g>
    </g>
    <g id="ytick_25">
     <g id="line2d_47">
      <g>
       <use xlink:href="#m603683ad88" x="57.113446" y="109.046848" style="stroke: #000000; stroke-width: 0.6"/>
      </g>
     </g>
    </g>
    <g id="ytick_26">
     <g id="line2d_48">
      <g>
       <use xlink:href="#m603683ad88" x="57.113446" y="99.958724" style="stroke: #000000; stroke-width: 0.6"/>
      </g>
     </g>
    </g>
    <g id="ytick_27">
     <g id="line2d_49">
      <g>
       <use xlink:href="#m603683ad88" x="57.113446" y="93.510598" style="stroke: #000000; stroke-width: 0.6"/>
      </g>
     </g>
    </g>
    <g id="ytick_28">
     <g id="line2d_50">
      <g>
       <use xlink:href="#m603683ad88" x="57.113446" y="88.509042" style="stroke: #000000; stroke-width: 0.6"/>
      </g>
     </g>
    </g>
    <g id="ytick_29">
     <g id="line2d_51">
      <g>
       <use xlink:href="#m603683ad88" x="57.113446" y="84.422474" style="stroke: #000000; stroke-width: 0.6"/>
      </g>
     </g>
    </g>
    <g id="ytick_30">
     <g id="line2d_52">
      <g>
       <use xlink:href="#m603683ad88" x="57.113446" y="80.967329" style="stroke: #000000; stroke-width: 0.6"/>
      </g>
     </g>
    </g>
    <g id="ytick_31">
     <g id="line2d_53">
      <g>
       <use xlink:href="#m603683ad88" x="57.113446" y="77.974347" style="stroke: #000000; stroke-width: 0.6"/>
      </g>
     </g>
    </g>
    <g id="ytick_32">
     <g id="line2d_54">
      <g>
       <use xlink:href="#m603683ad88" x="57.113446" y="75.33435" style="stroke: #000000; stroke-width: 0.6"/>
      </g>
     </g>
    </g>
    <g id="ytick_33">
     <g id="line2d_55">
      <g>
       <use xlink:href="#m603683ad88" x="57.113446" y="57.436541" style="stroke: #000000; stroke-width: 0.6"/>
      </g>
     </g>
    </g>
    <g id="ytick_34">
     <g id="line2d_56">
      <g>
       <use xlink:href="#m603683ad88" x="57.113446" y="48.348417" style="stroke: #000000; stroke-width: 0.6"/>
      </g>
     </g>
    </g>
    <g id="ytick_35">
     <g id="line2d_57">
      <g>
       <use xlink:href="#m603683ad88" x="57.113446" y="41.90029" style="stroke: #000000; stroke-width: 0.6"/>
      </g>
     </g>
    </g>
    <g id="ytick_36">
     <g id="line2d_58">
      <g>
       <use xlink:href="#m603683ad88" x="57.113446" y="36.898734" style="stroke: #000000; stroke-width: 0.6"/>
      </g>
     </g>
    </g>
    <g id="ytick_37">
     <g id="line2d_59">
      <g>
       <use xlink:href="#m603683ad88" x="57.113446" y="32.812166" style="stroke: #000000; stroke-width: 0.6"/>
      </g>
     </g>
    </g>
    <g id="ytick_38">
     <g id="line2d_60">
      <g>
       <use xlink:href="#m603683ad88" x="57.113446" y="29.357022" style="stroke: #000000; stroke-width: 0.6"/>
      </g>
     </g>
    </g>
    <g id="text_15">
     <!-- \textbf{MSE Loss} -->
     <g transform="translate(21.26218 164.156767) rotate(-90) scale(0.12 -0.12)">
      <defs>
       <path id="CMBX12-4d" d="M 3411 816 
L 1875 4281 
C 1818 4416 1760 4416 1626 4416 
L 262 4416 
L 262 4140 
L 941 4140 
L 941 468 
C 941 326 934 320 768 294 
C 653 281 525 275 410 275 
L 262 275 
L 262 0 
C 410 12 909 12 1088 12 
C 1267 12 1773 12 1920 0 
L 1920 275 
L 1773 275 
C 1600 275 1587 275 1434 294 
C 1248 320 1242 326 1242 468 
L 1242 4063 
L 1248 4063 
L 2989 134 
C 3021 64 3059 0 3168 0 
C 3277 0 3315 64 3347 134 
L 5120 4140 
L 5126 4140 
L 5126 275 
L 4448 275 
L 4448 0 
C 4621 12 5286 12 5504 12 
C 5722 12 6387 12 6560 0 
L 6560 275 
L 5882 275 
L 5882 4140 
L 6560 4140 
L 6560 4416 
L 5197 4416 
C 5062 4416 5005 4416 4947 4281 
L 3411 816 
z
" transform="scale(0.015625)"/>
       <path id="CMBX12-53" d="M 1626 2828 
C 992 2969 973 3430 973 3520 
C 973 3846 1184 4223 1805 4223 
C 2426 4223 2982 3923 3117 3084 
C 3136 2950 3136 2944 3258 2944 
C 3392 2944 3392 2963 3392 3110 
L 3392 4313 
C 3392 4435 3392 4480 3296 4480 
C 3251 4480 3232 4473 3174 4409 
L 2899 4096 
C 2739 4230 2419 4480 1798 4480 
C 883 4480 397 3904 397 3206 
C 397 2777 627 2476 717 2387 
C 1050 2054 1229 2016 1894 1868 
C 2534 1728 2611 1715 2752 1580 
C 2835 1497 3021 1318 3021 992 
C 3021 716 2886 211 2170 211 
C 1606 211 717 403 666 1337 
C 659 1452 659 1472 531 1472 
C 397 1472 397 1452 397 1305 
L 397 102 
C 397 -20 397 -64 493 -64 
C 538 -64 544 -58 608 0 
C 678 70 736 153 896 313 
C 1267 19 1792 -64 2176 -64 
C 3174 -64 3597 614 3597 1292 
C 3597 1894 3200 2470 2502 2630 
L 1626 2828 
z
" transform="scale(0.015625)"/>
       <path id="CMBX12-4c" d="M 4019 1737 
L 3750 1737 
C 3706 1293 3603 275 2451 275 
L 1766 275 
L 1766 4140 
L 2618 4140 
L 2618 4416 
C 2304 4403 1734 4403 1395 4403 
C 1158 4403 429 4403 243 4416 
L 243 4140 
L 922 4140 
L 922 275 
L 243 275 
L 243 0 
L 3834 0 
L 4019 1737 
z
" transform="scale(0.015625)"/>
       <path id="CMBX12-73" d="M 2413 2713 
C 2413 2835 2413 2880 2317 2880 
C 2278 2880 2266 2880 2170 2822 
C 2144 2803 2074 2758 2042 2739 
C 1862 2841 1626 2880 1395 2880 
C 1203 2880 243 2880 243 2046 
C 243 1372 1037 1231 1235 1199 
C 1408 1167 1619 1128 1645 1128 
C 1901 1071 2157 910 2157 641 
C 2157 147 1574 147 1440 147 
C 1114 147 710 249 531 872 
C 493 1000 486 1006 378 1006 
C 243 1006 243 987 243 840 
L 243 102 
C 243 -20 243 -64 339 -64 
C 384 -64 397 -64 525 38 
L 691 160 
C 979 -64 1325 -64 1440 -64 
C 1792 -64 2592 12 2592 865 
C 2592 1173 2426 1385 2298 1500 
C 2035 1719 1818 1757 1472 1821 
C 1062 1892 678 1962 678 2270 
C 678 2687 1248 2687 1382 2687 
C 2093 2687 2131 2238 2144 2078 
C 2150 1995 2202 1995 2278 1995 
C 2413 1995 2413 2014 2413 2161 
L 2413 2713 
z
" transform="scale(0.015625)"/>
      </defs>
      <use xlink:href="#CMBX12-4d" transform="scale(0.996264)"/>
      <use xlink:href="#CMBX12-53" transform="translate(106.314425 0) scale(0.996264)"/>
      <use xlink:href="#CMBX12-45" transform="translate(168.580926 0) scale(0.996264)"/>
      <use xlink:href="#CMBX12-4c" transform="translate(279.507572 0) scale(0.996264)"/>
      <use xlink:href="#CMBX12-6f" transform="translate(346.847667 0) scale(0.996264)"/>
      <use xlink:href="#CMBX12-73" transform="translate(402.887518 0) scale(0.996264)"/>
      <use xlink:href="#CMBX12-73" transform="translate(447.096855 0) scale(0.996264)"/>
     </g>
    </g>
   </g>
   <g id="line2d_61">
    <path d="M 73.366147 36.398351 
L 75.289544 72.873374 
L 77.212941 88.966931 
L 79.136337 100.975816 
L 84.906527 131.011129 
L 86.829924 139.978332 
L 88.753321 149.602187 
L 90.676717 157.494519 
L 92.600114 164.523603 
L 94.523511 169.14665 
L 96.446908 171.438332 
L 98.370304 172.88818 
L 100.293701 173.630785 
L 102.217098 174.760869 
L 104.140494 176.093139 
L 106.063891 176.357646 
L 107.987288 178.95902 
L 111.834081 182.81262 
L 113.757478 184.459001 
L 115.680874 184.951086 
L 117.604271 186.951284 
L 119.527668 187.288181 
L 121.451064 190.036544 
L 123.374461 190.438313 
L 125.297858 192.128971 
L 127.221254 193.273416 
L 129.144651 193.936554 
L 131.068048 195.486973 
L 132.991444 195.59907 
L 134.914841 196.896852 
L 136.838238 198.445697 
L 138.761634 197.738515 
L 140.685031 198.491485 
L 142.608428 199.093392 
L 146.455221 201.951264 
L 148.378618 200.369138 
L 150.302014 202.346174 
L 152.225411 201.807267 
L 154.148808 202.876371 
L 156.072204 202.732394 
L 157.995601 203.002245 
L 159.918998 202.754841 
L 161.842394 203.797437 
L 163.765791 203.730406 
L 165.689188 204.610836 
L 167.612584 204.360369 
L 169.535981 203.711977 
L 171.459378 203.833392 
L 173.382774 204.969652 
L 175.306171 205.004203 
L 177.229568 206.250927 
L 179.152964 205.643614 
L 181.076361 206.07421 
L 182.999758 205.908009 
L 184.923154 207.112661 
L 186.846551 207.451974 
L 188.769948 207.374671 
L 190.693344 208.198641 
L 192.616741 207.334379 
L 194.540138 208.198905 
L 196.463534 207.339111 
L 200.310328 208.24543 
L 202.233724 208.055172 
L 204.157121 207.746894 
L 206.080518 208.920833 
L 208.003914 208.793239 
L 209.927311 208.970262 
L 211.850708 210.047076 
L 213.774104 207.917561 
L 217.620898 208.94507 
L 219.544295 209.615166 
L 221.467691 209.346335 
L 223.391088 208.207174 
L 225.314485 208.984473 
L 227.237881 209.905364 
L 229.161278 210.123379 
L 231.084675 209.756312 
L 233.008071 210.585228 
L 234.931468 210.232095 
L 236.854865 209.507669 
L 238.778261 209.638885 
L 240.701658 210.240042 
L 242.625055 209.044446 
L 244.548451 209.879611 
L 248.395245 210.619916 
L 250.318641 209.616581 
L 252.242038 209.55013 
L 254.165435 209.151868 
L 258.012228 210.194544 
L 261.859021 209.873717 
L 263.782418 209.691952 
L 265.705815 209.714164 
L 267.629211 210.588909 
L 269.552608 210.010937 
L 271.476005 209.747889 
L 273.399401 210.333783 
L 275.322798 209.69136 
L 277.246195 210.686226 
L 279.169591 210.03567 
L 281.092988 210.217672 
L 283.016385 211.134385 
L 284.939781 210.523553 
L 286.863178 210.269597 
L 288.786575 210.50263 
L 292.633368 209.747613 
L 294.556765 210.710269 
L 296.480161 211.129291 
L 300.326955 210.432437 
L 302.250351 211.104619 
L 304.173748 210.587671 
L 306.097145 210.463697 
L 308.020541 209.974661 
L 309.943938 210.496097 
L 311.867335 210.431673 
L 313.790731 210.51818 
L 317.637525 209.798386 
L 319.560921 211.267827 
L 321.484318 210.470535 
L 323.407715 209.376064 
L 325.331111 209.440463 
L 327.254508 210.213764 
L 329.177905 211.723317 
L 331.101301 210.170344 
L 333.024698 210.84103 
L 336.871491 210.220689 
L 338.794888 210.627497 
L 340.718285 210.37833 
L 344.565078 210.673191 
L 346.488475 210.383548 
L 348.411872 211.895662 
L 350.335268 209.977072 
L 352.258665 211.374238 
L 354.182062 210.682932 
L 356.105458 211.233293 
L 358.028855 209.281208 
L 359.952252 210.419978 
L 361.875648 211.236791 
L 363.799045 210.826059 
L 365.722442 210.567218 
L 367.645838 211.045551 
L 369.569235 210.599036 
L 371.492632 211.57646 
L 373.416028 210.147203 
L 375.339425 210.925771 
L 377.262822 210.286841 
L 379.186218 210.138577 
L 383.033012 210.621481 
L 384.956408 210.310607 
L 386.879805 211.106048 
L 388.803202 211.067461 
L 390.726598 210.420292 
L 392.649995 210.687548 
L 398.420185 210.986389 
L 398.420185 210.986389 
" clip-path="url(#p7f621fe822)" style="fill: none; stroke: #1f77b4; stroke-width: 2; stroke-linecap: square"/>
   </g>
   <g id="line2d_62">
    <path d="M 73.366147 99.09792 
L 75.289544 119.778685 
L 77.212941 129.17311 
L 82.983131 150.54229 
L 84.906527 156.157592 
L 86.829924 163.156073 
L 88.753321 169.712477 
L 90.676717 175.087858 
L 92.600114 179.046346 
L 94.523511 182.706209 
L 96.446908 181.34194 
L 98.370304 183.662051 
L 100.293701 180.280309 
L 102.217098 182.659102 
L 106.063891 188.129933 
L 107.987288 189.498594 
L 109.910684 195.379035 
L 111.834081 199.7849 
L 113.757478 195.347808 
L 115.680874 205.234618 
L 117.604271 206.357252 
L 119.527668 208.694771 
L 121.451064 208.182864 
L 123.374461 194.13773 
L 125.297858 201.357665 
L 127.221254 202.808238 
L 129.144651 215.955624 
L 131.068048 218.699009 
L 132.991444 202.996861 
L 134.914841 218.8289 
L 136.838238 218.497894 
L 138.761634 201.753984 
L 142.608428 222.126384 
L 144.531824 215.998615 
L 146.455221 214.318496 
L 148.378618 220.323239 
L 150.302014 227.298887 
L 152.225411 216.858548 
L 154.148808 221.50269 
L 156.072204 197.074848 
L 157.995601 227.739079 
L 159.918998 218.489566 
L 161.842394 231.940515 
L 163.765791 218.814599 
L 165.689188 215.835078 
L 167.612584 203.641025 
L 169.535981 212.74903 
L 171.459378 218.240901 
L 173.382774 221.431568 
L 175.306171 230.220355 
L 177.229568 212.082891 
L 179.152964 197.886078 
L 181.076361 206.332934 
L 182.999758 221.902651 
L 184.923154 218.99795 
L 186.846551 213.209855 
L 188.769948 218.763028 
L 190.693344 219.647558 
L 192.616741 204.154869 
L 194.540138 213.12849 
L 196.463534 213.510082 
L 198.386931 221.307544 
L 200.310328 208.312705 
L 202.233724 212.85728 
L 204.157121 220.693309 
L 206.080518 232.958444 
L 208.003914 231.408116 
L 209.927311 219.549173 
L 211.850708 220.072202 
L 213.774104 224.201805 
L 215.697501 218.050278 
L 217.620898 231.969798 
L 219.544295 223.609893 
L 221.467691 225.217921 
L 223.391088 230.642753 
L 225.314485 215.409541 
L 227.237881 215.099726 
L 229.161278 227.156378 
L 231.084675 220.225048 
L 233.008071 225.569807 
L 234.931468 222.277626 
L 236.854865 229.978048 
L 238.778261 227.284096 
L 240.701658 223.797707 
L 242.625055 227.633063 
L 244.548451 215.090711 
L 246.471848 223.442869 
L 248.395245 218.414404 
L 250.318641 230.503379 
L 252.242038 224.544172 
L 254.165435 222.629827 
L 256.088831 221.510629 
L 258.012228 223.503716 
L 259.935625 229.399458 
L 261.859021 222.884982 
L 263.782418 230.064671 
L 265.705815 225.584868 
L 267.629211 218.929954 
L 269.552608 230.948643 
L 271.476005 223.998473 
L 273.399401 221.276484 
L 275.322798 223.330514 
L 277.246195 222.860624 
L 279.169591 224.640469 
L 281.092988 225.001298 
L 283.016385 220.113197 
L 284.939781 222.981902 
L 286.863178 220.104428 
L 288.786575 216.784401 
L 290.709971 224.798172 
L 292.633368 227.460508 
L 294.556765 225.274529 
L 296.480161 222.436749 
L 298.403558 231.068584 
L 300.326955 229.289382 
L 302.250351 216.668378 
L 304.173748 227.959305 
L 306.097145 221.122704 
L 308.020541 221.037739 
L 309.943938 220.430141 
L 311.867335 226.358514 
L 313.790731 225.749073 
L 315.714128 226.560943 
L 317.637525 228.155429 
L 319.560921 225.242839 
L 321.484318 224.398177 
L 323.407715 223.34704 
L 325.331111 219.656074 
L 327.254508 228.183092 
L 329.177905 228.368508 
L 331.101301 221.863646 
L 333.024698 222.778282 
L 334.948095 224.714572 
L 336.871491 220.02498 
L 338.794888 228.940027 
L 340.718285 219.079105 
L 342.641682 221.03624 
L 344.565078 228.434696 
L 346.488475 223.978038 
L 348.411872 226.460296 
L 350.335268 219.586046 
L 352.258665 221.668617 
L 354.182062 219.984805 
L 356.105458 225.187141 
L 358.028855 226.820108 
L 359.952252 226.663549 
L 361.875648 223.992494 
L 363.799045 224.551618 
L 365.722442 221.15985 
L 367.645838 223.27318 
L 369.569235 212.906385 
L 371.492632 214.69886 
L 373.416028 222.940423 
L 375.339425 226.22631 
L 377.262822 224.422941 
L 379.186218 224.899564 
L 381.109615 231.841334 
L 383.033012 228.677731 
L 384.956408 222.518794 
L 386.879805 226.44825 
L 388.803202 223.839955 
L 390.726598 229.425407 
L 392.649995 220.160274 
L 394.573392 229.306747 
L 396.496788 219.36331 
L 398.420185 223.377298 
L 398.420185 223.377298 
" clip-path="url(#p7f621fe822)" style="fill: none; stroke: #ff7f0e; stroke-width: 2; stroke-linecap: square"/>
   </g>
   <g id="patch_3">
    <path d="M 57.113446 242.786449 
L 57.113446 26.570347 
" style="fill: none; stroke: #000000; stroke-width: 0.8; stroke-linejoin: miter; stroke-linecap: square"/>
   </g>
   <g id="patch_4">
    <path d="M 414.672887 242.786449 
L 414.672887 26.570347 
" style="fill: none; stroke: #000000; stroke-width: 0.8; stroke-linejoin: miter; stroke-linecap: square"/>
   </g>
   <g id="patch_5">
    <path d="M 57.113446 242.786449 
L 414.672887 242.786449 
" style="fill: none; stroke: #000000; stroke-width: 0.8; stroke-linejoin: miter; stroke-linecap: square"/>
   </g>
   <g id="patch_6">
    <path d="M 57.113446 26.570347 
L 414.672887 26.570347 
" style="fill: none; stroke: #000000; stroke-width: 0.8; stroke-linejoin: miter; stroke-linecap: square"/>
   </g>
   <g id="text_16">
    <!-- \textbf{Loss evolution over epochs} -->
    <g transform="translate(162.276414 20.570347) scale(0.11 -0.11)">
     <defs>
      <path id="CMBX12-65" d="M 2893 1408 
C 3040 1408 3078 1408 3078 1568 
C 3078 1758 3034 2232 2739 2529 
C 2470 2796 2112 2880 1741 2880 
C 742 2880 198 2232 198 1433 
C 198 523 858 -64 1824 -64 
C 2790 -64 3078 621 3078 731 
C 3078 829 2982 829 2944 829 
C 2842 829 2835 809 2797 725 
C 2630 302 2208 166 1901 166 
C 973 166 966 1043 966 1408 
L 2893 1408 
z
M 966 1593 
C 979 1852 986 2099 1120 2327 
C 1242 2529 1466 2668 1741 2668 
C 2426 2668 2483 1909 2490 1593 
L 966 1593 
z
" transform="scale(0.015625)"/>
      <path id="CMBX12-76" d="M 3168 2393 
C 3213 2489 3238 2540 3642 2540 
L 3642 2816 
C 3411 2803 3398 2803 3136 2803 
C 2963 2803 2950 2803 2586 2816 
L 2586 2540 
C 2758 2540 2899 2508 2899 2463 
C 2899 2457 2899 2451 2867 2386 
L 2118 737 
L 1293 2540 
L 1645 2540 
L 1645 2816 
C 1498 2803 1050 2803 877 2803 
C 691 2803 320 2803 154 2816 
L 154 2540 
L 557 2540 
L 1683 89 
C 1741 -32 1754 -64 1901 -64 
C 2003 -64 2054 -52 2112 76 
L 3168 2393 
z
" transform="scale(0.015625)"/>
      <path id="CMBX12-6c" d="M 1389 4480 
L 282 4428 
L 282 4153 
C 678 4153 723 4153 723 3901 
L 723 275 
L 282 275 
L 282 0 
C 429 12 883 12 1056 12 
C 1229 12 1683 12 1830 0 
L 1830 275 
L 1389 275 
L 1389 4480 
z
" transform="scale(0.015625)"/>
      <path id="CMBX12-75" d="M 2259 2828 
L 2259 2553 
C 2656 2553 2701 2553 2701 2301 
L 2701 1033 
C 2701 541 2413 147 1914 147 
C 1434 147 1408 308 1408 664 
L 1408 2880 
L 269 2828 
L 269 2553 
C 666 2553 710 2553 710 2301 
L 710 768 
C 710 121 1139 -64 1824 -64 
C 1978 -64 2451 -64 2726 457 
L 2733 457 
L 2733 -64 
L 3840 -26 
L 3840 250 
C 3443 250 3398 250 3398 502 
L 3398 2880 
L 2259 2828 
z
" transform="scale(0.015625)"/>
      <path id="CMBX12-74" d="M 1350 2540 
L 2272 2540 
L 2272 2816 
L 1350 2816 
L 1350 4032 
L 1082 4032 
C 1075 3401 768 2771 134 2751 
L 134 2540 
L 653 2540 
L 653 761 
C 653 83 1178 -64 1638 -64 
C 2112 -64 2394 294 2394 768 
L 2394 1107 
L 2125 1107 
L 2125 774 
C 2125 352 1933 166 1734 166 
C 1350 166 1350 595 1350 742 
L 1350 2540 
z
" transform="scale(0.015625)"/>
      <path id="CMBX12-69" d="M 1427 4019 
C 1427 4281 1216 4480 966 4480 
C 704 4480 506 4262 506 4019 
C 506 3775 704 3558 966 3558 
C 1216 3558 1427 3756 1427 4019 
z
M 301 2828 
L 301 2553 
C 678 2553 723 2553 723 2303 
L 723 275 
L 282 275 
L 282 0 
C 429 12 870 12 1043 12 
C 1222 12 1632 12 1786 0 
L 1786 275 
L 1389 275 
L 1389 2880 
L 301 2828 
z
" transform="scale(0.015625)"/>
      <path id="CMBX12-6e" d="M 3398 1958 
C 3398 2566 3136 2880 2432 2880 
C 1971 2880 1574 2656 1357 2176 
L 1350 2176 
L 1350 2880 
L 269 2828 
L 269 2553 
C 666 2553 710 2553 710 2304 
L 710 275 
L 269 275 
L 269 0 
C 416 12 877 12 1056 12 
C 1235 12 1702 12 1850 0 
L 1850 275 
L 1408 275 
L 1408 1638 
C 1408 2329 1920 2668 2330 2668 
C 2566 2668 2701 2515 2701 2028 
L 2701 275 
L 2259 275 
L 2259 0 
C 2406 12 2867 12 3046 12 
C 3226 12 3693 12 3840 0 
L 3840 275 
L 3398 275 
L 3398 1958 
z
" transform="scale(0.015625)"/>
      <path id="CMBX12-72" d="M 1331 1440 
C 1331 1651 1376 2668 2125 2668 
C 2035 2598 1990 2489 1990 2374 
C 1990 2112 2202 2003 2362 2003 
C 2522 2003 2733 2112 2733 2374 
C 2733 2700 2400 2880 2093 2880 
C 1587 2880 1370 2438 1280 2169 
L 1274 2169 
L 1274 2880 
L 224 2828 
L 224 2553 
C 621 2553 666 2553 666 2304 
L 666 275 
L 224 275 
L 224 0 
C 371 12 851 12 1030 12 
C 1216 12 1734 12 1888 0 
L 1888 275 
L 1331 275 
L 1331 1440 
z
" transform="scale(0.015625)"/>
     </defs>
     <use xlink:href="#CMBX12-4c" transform="scale(0.996264)"/>
     <use xlink:href="#CMBX12-6f" transform="translate(67.340095 0) scale(0.996264)"/>
     <use xlink:href="#CMBX12-73" transform="translate(123.379946 0) scale(0.996264)"/>
     <use xlink:href="#CMBX12-73" transform="translate(167.589283 0) scale(0.996264)"/>
     <use xlink:href="#CMBX12-65" transform="translate(249.158521 0) scale(0.996264)"/>
     <use xlink:href="#CMBX12-76" transform="translate(300.297788 0) scale(0.996264)"/>
     <use xlink:href="#CMBX12-6f" transform="translate(356.337638 0) scale(0.996264)"/>
     <use xlink:href="#CMBX12-6c" transform="translate(412.377489 0) scale(0.996264)"/>
     <use xlink:href="#CMBX12-75" transform="translate(443.510739 0) scale(0.996264)"/>
     <use xlink:href="#CMBX12-74" transform="translate(505.77724 0) scale(0.996264)"/>
     <use xlink:href="#CMBX12-69" transform="translate(549.36379 0) scale(0.996264)"/>
     <use xlink:href="#CMBX12-6f" transform="translate(580.497041 0) scale(0.996264)"/>
     <use xlink:href="#CMBX12-6e" transform="translate(636.536891 0) scale(0.996264)"/>
     <use xlink:href="#CMBX12-6f" transform="translate(736.163292 0) scale(0.996264)"/>
     <use xlink:href="#CMBX12-76" transform="translate(789.089818 0) scale(0.996264)"/>
     <use xlink:href="#CMBX12-65" transform="translate(845.129668 0) scale(0.996264)"/>
     <use xlink:href="#CMBX12-72" transform="translate(896.268935 0) scale(0.996264)"/>
     <use xlink:href="#CMBX12-65" transform="translate(979.406343 0) scale(0.996264)"/>
     <use xlink:href="#CMBX12-70" transform="translate(1030.54561 0) scale(0.996264)"/>
     <use xlink:href="#CMBX12-6f" transform="translate(1095.925436 0) scale(0.996264)"/>
     <use xlink:href="#CMBX12-63" transform="translate(1155.078611 0) scale(0.996264)"/>
     <use xlink:href="#CMBX12-68" transform="translate(1201.778487 0) scale(0.996264)"/>
     <use xlink:href="#CMBX12-73" transform="translate(1264.044988 0) scale(0.996264)"/>
    </g>
   </g>
   <g id="legend_1">
    <g id="patch_7">
     <path d="M 277.755246 69.619538 
L 406.272887 69.619538 
Q 408.672887 69.619538 408.672887 67.219538 
L 408.672887 34.970347 
Q 408.672887 32.570347 406.272887 32.570347 
L 277.755246 32.570347 
Q 275.355246 32.570347 275.355246 34.970347 
L 275.355246 67.219538 
Q 275.355246 69.619538 277.755246 69.619538 
z
" style="fill: #ffffff; opacity: 0.8; stroke: #cccccc; stroke-linejoin: miter"/>
    </g>
    <g id="line2d_63">
     <path d="M 280.155246 41.570347 
L 292.155246 41.570347 
L 304.155246 41.570347 
" style="fill: none; stroke: #1f77b4; stroke-width: 2; stroke-linecap: square"/>
    </g>
    <g id="text_17">
     <!-- \textbf{Train Loss} -->
     <g transform="translate(313.755246 45.770347) scale(0.12 -0.12)">
      <defs>
       <path id="CMBX12-54" d="M 4608 4358 
L 390 4358 
L 262 2833 
L 531 2833 
C 589 3535 640 4083 1562 4083 
L 2080 4083 
L 2080 275 
L 1114 275 
L 1114 0 
C 1626 12 2285 12 2502 12 
C 2893 12 3379 12 3891 0 
L 3891 275 
L 2925 275 
L 2925 4083 
L 3437 4083 
C 4358 4083 4410 3542 4467 2833 
L 4736 2833 
L 4608 4358 
z
" transform="scale(0.015625)"/>
       <path id="CMBX12-61" d="M 2944 1894 
C 2944 2483 2477 2880 1574 2880 
C 1216 2880 461 2847 461 2310 
C 461 2041 666 1926 838 1926 
C 1030 1926 1216 2060 1216 2303 
C 1216 2425 1171 2540 1062 2611 
C 1274 2668 1427 2668 1549 2668 
C 1984 2668 2246 2425 2246 1900 
L 2246 1644 
C 1235 1644 218 1362 218 648 
C 218 64 960 -64 1402 -64 
C 1894 -64 2208 205 2336 488 
C 2336 250 2336 -26 2982 -26 
L 3309 -26 
C 3443 -26 3494 -26 3494 115 
C 3494 250 3437 250 3347 250 
C 2944 256 2944 359 2944 507 
L 2944 1894 
z
M 2246 867 
C 2246 262 1709 147 1504 147 
C 1190 147 928 359 928 655 
C 928 1240 1619 1439 2246 1472 
L 2246 867 
z
" transform="scale(0.015625)"/>
      </defs>
      <use xlink:href="#CMBX12-54" transform="scale(0.996264)"/>
      <use xlink:href="#CMBX12-72" transform="translate(68.608395 0) scale(0.996264)"/>
      <use xlink:href="#CMBX12-61" transform="translate(114.385903 0) scale(0.996264)"/>
      <use xlink:href="#CMBX12-69" transform="translate(168.869091 0) scale(0.996264)"/>
      <use xlink:href="#CMBX12-6e" transform="translate(200.002341 0) scale(0.996264)"/>
      <use xlink:href="#CMBX12-4c" transform="translate(299.628742 0) scale(0.996264)"/>
      <use xlink:href="#CMBX12-6f" transform="translate(366.968838 0) scale(0.996264)"/>
      <use xlink:href="#CMBX12-73" transform="translate(423.008688 0) scale(0.996264)"/>
      <use xlink:href="#CMBX12-73" transform="translate(467.218025 0) scale(0.996264)"/>
     </g>
    </g>
    <g id="line2d_64">
     <path d="M 280.155246 58.294942 
L 292.155246 58.294942 
L 304.155246 58.294942 
" style="fill: none; stroke: #ff7f0e; stroke-width: 2; stroke-linecap: square"/>
    </g>
    <g id="text_18">
     <!-- \textbf{Validation Loss} -->
     <g transform="translate(313.755246 62.494942) scale(0.12 -0.12)">
      <defs>
       <path id="CMBX12-56" d="M 4634 3992 
C 4672 4075 4698 4140 5171 4140 
L 5280 4140 
L 5280 4416 
C 5082 4403 4621 4403 4570 4403 
C 4390 4403 3936 4403 3789 4416 
L 3789 4140 
C 3930 4140 4166 4140 4346 4069 
L 4314 3979 
L 3002 960 
L 1619 4140 
L 2214 4140 
L 2214 4416 
C 2010 4403 1395 4403 1152 4403 
C 947 4403 314 4403 154 4416 
L 154 4140 
L 730 4140 
L 2496 70 
C 2554 -58 2611 -64 2714 -64 
C 2816 -64 2880 -64 2938 70 
L 4634 3992 
z
" transform="scale(0.015625)"/>
       <path id="CMBX12-64" d="M 2221 4428 
L 2221 4153 
C 2618 4153 2662 4153 2662 3896 
L 2662 2571 
C 2522 2694 2240 2880 1798 2880 
C 890 2880 243 2313 243 1408 
C 243 483 877 -64 1728 -64 
C 2080 -64 2381 57 2630 270 
L 2630 -64 
L 3770 -26 
L 3770 250 
C 3373 250 3328 250 3328 502 
L 3328 4480 
L 2221 4428 
z
M 2630 625 
C 2362 231 2035 147 1805 147 
C 1011 147 1011 968 1011 1395 
C 1011 1699 1011 2022 1152 2268 
C 1350 2630 1728 2668 1875 2668 
C 2138 2668 2419 2552 2630 2268 
L 2630 625 
z
" transform="scale(0.015625)"/>
      </defs>
      <use xlink:href="#CMBX12-56" transform="scale(0.996264)"/>
      <use xlink:href="#CMBX12-61" transform="translate(75.29642 0) scale(0.996264)"/>
      <use xlink:href="#CMBX12-6c" transform="translate(129.779608 0) scale(0.996264)"/>
      <use xlink:href="#CMBX12-69" transform="translate(160.912858 0) scale(0.996264)"/>
      <use xlink:href="#CMBX12-64" transform="translate(192.046108 0) scale(0.996264)"/>
      <use xlink:href="#CMBX12-61" transform="translate(254.312609 0) scale(0.996264)"/>
      <use xlink:href="#CMBX12-74" transform="translate(308.795797 0) scale(0.996264)"/>
      <use xlink:href="#CMBX12-69" transform="translate(352.382347 0) scale(0.996264)"/>
      <use xlink:href="#CMBX12-6f" transform="translate(383.515598 0) scale(0.996264)"/>
      <use xlink:href="#CMBX12-6e" transform="translate(439.555448 0) scale(0.996264)"/>
      <use xlink:href="#CMBX12-4c" transform="translate(539.181849 0) scale(0.996264)"/>
      <use xlink:href="#CMBX12-6f" transform="translate(606.521945 0) scale(0.996264)"/>
      <use xlink:href="#CMBX12-73" transform="translate(662.561795 0) scale(0.996264)"/>
      <use xlink:href="#CMBX12-73" transform="translate(706.771132 0) scale(0.996264)"/>
     </g>
    </g>
   </g>
  </g>
 </g>
 <defs>
  <clipPath id="p7f621fe822">
   <rect x="57.113446" y="26.570347" width="357.559441" height="216.216102"/>
  </clipPath>
 </defs>
</svg>
